<svg xmlns="http://www.w3.org/2000/svg" viewBox="0 0 240 210"><title>アートボード 16</title><g id="contents"><polygon points="213.2 7.66 237.24 16.12 162.76 176.13 140.29 191.74 139.59 169.73 213.2 7.66" style="fill:#fff"/><path d="M21,104.24C11.5,108.11,1.6,115,0,125.83c-1.7,11.73,6.1,22.94,14.32,30.51a73.29,73.29,0,0,0,31,16.6,77.27,77.27,0,0,0,18.08,2.52c5.78.1,12-.67,16.83-4.15C84.82,168,87.85,162.75,87,157c-.78-5.56-4.81-10.09-9.39-13-9.61-6.2-22.85-6.5-31.58,1.39a20.35,20.35,0,0,0-6.74,14.25c-.22,6.09,2.36,11.9,6.06,16.61s8.4,8.13,13.26,11.3A107.75,107.75,0,0,0,74,195.8a112.68,112.68,0,0,0,34.76,9.11c11.26,1.08,24.24.42,32.4-8.55a21.79,21.79,0,0,0,4.24-6.93,3,3,0,0,0-2.09-3.69,3.06,3.06,0,0,0-3.69,2.09c-3.47,9-14.42,11.55-23.22,11.51a99.41,99.41,0,0,1-30.93-5.47,102.94,102.94,0,0,1-27.71-14.25c-7.3-5.33-15-14.27-11.66-24a16,16,0,0,1,7.76-8.47,19.45,19.45,0,0,1,13.44-1.21,21.57,21.57,0,0,1,11.57,7c2.52,3.14,3.12,6.89,1,10.27-2.32,3.76-6.86,5.59-11.23,6.07a56.28,56.28,0,0,1-15.6-.76,71.17,71.17,0,0,1-29.06-12C16.39,151.09,9,143.24,6.47,134a16.29,16.29,0,0,1,1.47-12.78,25.31,25.31,0,0,1,9-8.37A45.62,45.62,0,0,1,22.54,110a3.1,3.1,0,0,0,2.1-3.69c-.39-1.42-2.18-2.71-3.69-2.1Z" style="fill:#fff"/></g></svg>