<svg xmlns="http://www.w3.org/2000/svg" viewBox="0 0 300 122.56"><title>アセット 12x@d</title><g id="レイヤー_2" data-name="レイヤー 2"><g id="contents"><path d="M293.75,5A1.25,1.25,0,0,1,295,6.25V116.31a1.25,1.25,0,0,1-1.25,1.25H6.25A1.25,1.25,0,0,1,5,116.31V6.25A1.25,1.25,0,0,1,6.25,5h287.5m0-5H6.25A6.25,6.25,0,0,0,0,6.25V116.31a6.25,6.25,0,0,0,6.25,6.25h287.5a6.25,6.25,0,0,0,6.25-6.25V6.25A6.25,6.25,0,0,0,293.75,0Z" style="fill:#ededed"/><text transform="translate(60.47 91.28)" style="font-size:16px;fill:#3b241a;font-family:YuGo-Bold-83pv-RKSJ-H, YuGothic;font-weight:700;letter-spacing:0.05999755859375em">企業支援団体 <tspan x="107.28" y="0" style="letter-spacing:0.04998779296875em">様</tspan><tspan x="124.08" y="0" style="letter-spacing:0.05303955078125em">の</tspan><tspan x="140.93" y="0">場合</tspan></text><rect x="135.75" y="25.46" width="14.25" height="36.31" style="fill:#ed6c00"/><rect x="150" y="34.55" width="14.25" height="27.22" style="fill:#ed6c00"/><rect x="153.84" y="39.39" width="1.46" height="1.46" style="fill:#fff"/><rect x="158.95" y="39.39" width="1.46" height="1.46" style="fill:#fff"/><rect x="153.84" y="44.51" width="1.46" height="1.46" style="fill:#fff"/><rect x="158.95" y="44.51" width="1.46" height="1.46" style="fill:#fff"/><rect x="153.84" y="49.62" width="1.46" height="1.46" style="fill:#fff"/><rect x="158.95" y="49.62" width="1.46" height="1.46" style="fill:#fff"/><rect x="153.84" y="54.74" width="1.46" height="1.46" style="fill:#fff"/><rect x="158.95" y="54.74" width="1.46" height="1.46" style="fill:#fff"/><rect x="139.59" y="39.39" width="1.46" height="1.46" style="fill:#fff"/><rect x="144.7" y="39.39" width="1.46" height="1.46" style="fill:#fff"/><rect x="139.59" y="44.51" width="1.46" height="1.46" style="fill:#fff"/><rect x="144.7" y="44.51" width="1.46" height="1.46" style="fill:#fff"/><rect x="139.59" y="49.62" width="1.46" height="1.46" style="fill:#fff"/><rect x="144.7" y="49.62" width="1.46" height="1.46" style="fill:#fff"/><rect x="139.59" y="54.74" width="1.46" height="1.46" style="fill:#fff"/><rect x="144.7" y="54.74" width="1.46" height="1.46" style="fill:#fff"/><rect x="139.59" y="29.16" width="1.46" height="1.46" style="fill:#fff"/><rect x="144.7" y="29.16" width="1.46" height="1.46" style="fill:#fff"/><rect x="139.59" y="34.28" width="1.46" height="1.46" style="fill:#fff"/><rect x="144.7" y="34.28" width="1.46" height="1.46" style="fill:#fff"/></g></g></svg>