<svg xmlns="http://www.w3.org/2000/svg" viewBox="0 0 28.5 36.31"><title>アセット 9</title><g id="レイヤー_2" data-name="レイヤー 2"><g id="contents"><rect width="14.25" height="36.31" style="fill:#ed6c00"/><rect x="14.25" y="9.09" width="14.25" height="27.22" style="fill:#ed6c00"/><rect x="18.09" y="13.93" width="1.46" height="1.46" style="fill:#fff"/><rect x="23.2" y="13.93" width="1.46" height="1.46" style="fill:#fff"/><rect x="18.09" y="19.05" width="1.46" height="1.46" style="fill:#fff"/><rect x="23.2" y="19.05" width="1.46" height="1.46" style="fill:#fff"/><rect x="18.09" y="24.16" width="1.46" height="1.46" style="fill:#fff"/><rect x="23.2" y="24.16" width="1.46" height="1.46" style="fill:#fff"/><rect x="18.09" y="29.28" width="1.46" height="1.46" style="fill:#fff"/><rect x="23.2" y="29.28" width="1.46" height="1.46" style="fill:#fff"/><rect x="3.84" y="13.93" width="1.46" height="1.46" style="fill:#fff"/><rect x="8.95" y="13.93" width="1.46" height="1.46" style="fill:#fff"/><rect x="3.84" y="19.05" width="1.46" height="1.46" style="fill:#fff"/><rect x="8.95" y="19.05" width="1.46" height="1.46" style="fill:#fff"/><rect x="3.84" y="24.16" width="1.46" height="1.46" style="fill:#fff"/><rect x="8.95" y="24.16" width="1.46" height="1.46" style="fill:#fff"/><rect x="3.84" y="29.28" width="1.46" height="1.46" style="fill:#fff"/><rect x="8.95" y="29.28" width="1.46" height="1.46" style="fill:#fff"/><rect x="3.84" y="3.7" width="1.46" height="1.46" style="fill:#fff"/><rect x="8.95" y="3.7" width="1.46" height="1.46" style="fill:#fff"/><rect x="3.84" y="8.82" width="1.46" height="1.46" style="fill:#fff"/><rect x="8.95" y="8.82" width="1.46" height="1.46" style="fill:#fff"/></g></g></svg>