<svg xmlns="http://www.w3.org/2000/svg" viewBox="0 0 184.77 51.16"><title>アセット 6</title><g id="レイヤー_2" data-name="レイヤー 2"><g id="contents"><rect width="184.77" height="51.16" style="fill:#f4891e"/><path d="M22,39a9.73,9.73,0,0,1,1.39-18.3l3.27-7.42A4.62,4.62,0,1,1,35.15,17L32.55,23A9.73,9.73,0,0,1,22,39Zm4-16.63c0,.07,0,.12-.05.17a1.54,1.54,0,0,1-1.19,1,6.65,6.65,0,1,0,5,1.11,1.54,1.54,0,0,1-.53-1.89l3.08-7a1.54,1.54,0,0,0-2.82-1.24Z" style="fill:#fff"/><path d="M22.52,34l-2.71-1.2a4.87,4.87,0,1,1,3.92-8.92l2.72,1.2A4.87,4.87,0,0,1,22.52,34Zm0-7.29A1.79,1.79,0,1,0,21.05,30l2.71,1.2a1.79,1.79,0,0,0,1.45-3.28Z" style="fill:#fff"/><path d="M53.38,33.19c-.53,0-.67-.09-.67-.58,0-.16.07-2.8.07-4V20.77c0-1.22-.07-3.77-.07-3.93,0-.48.16-.64.64-.64.16,0,2.19,0,3.25,0h3c3.52,0,5.68,1.75,5.68,5.22,0,3.73-2.19,6.28-6.72,6.28H57.31c-.58,0-.69.12-.69.69,0,1.4.07,4,.07,4.18,0,.49-.14.58-.67.58Zm3.24-9.41c0,.58.11.69.69.69h1.24c1.75,0,2.81-.89,2.81-2.64,0-1.38-.72-2.16-2.42-2.16H57.31c-.58,0-.69.11-.69.69Z" style="fill:#fff"/><path d="M88.54,24.57a8.31,8.31,0,0,1-8.67,8.76c-5.63,0-8.26-4.53-8.26-8.53,0-5.48,3.78-8.7,8.65-8.7C86,16.1,88.54,20.59,88.54,24.57Zm-12.92.25c0,2.35,1.24,4.85,4.41,4.85,2.55,0,4.51-1.84,4.51-4.85,0-2.28-1.27-4.85-4.42-4.85C77.43,20,75.62,21.92,75.62,24.82Z" style="fill:#fff"/><path d="M96.29,33.19c-.53,0-.66-.09-.66-.58,0-.16.07-2.8.07-4V20.84c0-1.22-.07-3.86-.07-4,0-.49.13-.58.66-.58H99c.53,0,.66.09.66.58,0,.16-.06,2.8-.06,4v7.75c0,1.22.06,3.86.06,4,0,.49-.13.58-.66.58Z" style="fill:#fff"/><path d="M111.15,28.59c0,1.22.07,3.86.07,4,0,.49-.14.58-.67.58H108c-.53,0-.67-.09-.67-.58,0-.16.07-2.8.07-4V20.84c0-1.22-.07-3.86-.07-4,0-.49.14-.58.67-.58h1.52a1.14,1.14,0,0,1,1.12.53c.86,1,1.66,2,2.49,2.9l4.78,5.45c.12.14.23.21.3.21s.16-.12.16-.37V20.84c0-1.22-.07-3.86-.07-4,0-.49.14-.58.67-.58h2.55c.53,0,.67.09.67.58,0,.16-.07,2.8-.07,4v7.75c0,1.22.07,3.86.07,4,0,.49-.14.58-.67.58h-1.15a1.17,1.17,0,0,1-1.13-.53c-.82-1-1.58-1.82-2.52-2.87l-5.11-5.73a.38.38,0,0,0-.28-.18c-.11,0-.18.11-.18.36Z" style="fill:#fff"/><path d="M137.88,28.59c0,1.22.06,3.86.06,4,0,.49-.13.58-.66.58h-2.72c-.52,0-.66-.09-.66-.58,0-.16.07-2.8.07-4v-8c0-.58-.12-.69-.69-.69h-.49c-.82,0-2.94,0-3.1,0-.48,0-.58-.14-.58-.66v-2.4c0-.53.1-.66.58-.66.16,0,2.48,0,3.56,0h5.34c1.08,0,3.4,0,3.56,0,.49,0,.58.13.58.66v2.4c0,.52-.09.66-.58.66-.16,0-2.27,0-3.1,0h-.49c-.57,0-.68.11-.68.69Z" style="fill:#fff"/><path d="M160.3,29.88c1.2,0,3.68-.05,3.84-.05.48,0,.57.14.57.67v2c0,.53-.09.67-.57.67-.16,0-2.64,0-3.84,0H157c-1.22,0-3.91,0-4.07,0-.48,0-.57-.14-.57-.67v-1a1,1,0,0,1,.57-1.08c.46-.32.83-.59,1.27-1,4.39-3.73,6.37-5.73,6.37-7.61,0-1.27-.83-2.14-2.49-2.14a4.46,4.46,0,0,0-3.26,1.61c-.21.23-.33.34-.46.34s-.26-.11-.46-.32l-1.7-1.82a.76.76,0,0,1-.28-.5c0-.14.09-.28.3-.48a8.72,8.72,0,0,1,6.16-2.51c4,0,6.21,2.25,6.21,5.2s-2.37,5.61-5.36,8.18c-.18.16-.25.25-.25.32s.14.12.41.12Z"/></g></g></svg>