<svg xmlns="http://www.w3.org/2000/svg" viewBox="0 0 184.77 51.16"><title>アセット 7</title><g id="レイヤー_2" data-name="レイヤー 2"><g id="contents"><rect width="184.77" height="51.16" style="fill:#f4891e"/><path d="M22,39a9.73,9.73,0,0,1,1.39-18.3l3.27-7.42A4.62,4.62,0,1,1,35.15,17L32.55,23A9.73,9.73,0,0,1,22,39Zm4-16.63c0,.07,0,.12-.05.17a1.54,1.54,0,0,1-1.19,1,6.65,6.65,0,1,0,5,1.11,1.54,1.54,0,0,1-.53-1.89l3.08-7a1.54,1.54,0,0,0-2.82-1.24Z" style="fill:#fff"/><path d="M22.52,34l-2.71-1.2a4.87,4.87,0,1,1,3.92-8.92l2.72,1.2A4.87,4.87,0,0,1,22.52,34Zm0-7.29A1.79,1.79,0,1,0,21.05,30l2.71,1.2a1.79,1.79,0,0,0,1.45-3.28Z" style="fill:#fff"/><path d="M53.38,33.19c-.53,0-.67-.09-.67-.58,0-.16.07-2.8.07-4V20.77c0-1.22-.07-3.77-.07-3.93,0-.48.16-.64.64-.64.16,0,2.19,0,3.25,0h3c3.52,0,5.68,1.75,5.68,5.22,0,3.73-2.19,6.28-6.72,6.28H57.31c-.58,0-.69.11-.69.69,0,1.4.07,4,.07,4.18,0,.49-.14.58-.67.58Zm3.24-9.41c0,.58.11.7.69.7h1.24c1.75,0,2.81-.9,2.81-2.65,0-1.38-.72-2.16-2.42-2.16H57.31c-.58,0-.69.11-.69.69Z" style="fill:#fff"/><path d="M88.54,24.57a8.31,8.31,0,0,1-8.67,8.76c-5.63,0-8.25-4.53-8.25-8.53,0-5.48,3.77-8.7,8.64-8.7C86,16.1,88.54,20.59,88.54,24.57Zm-12.92.25c0,2.35,1.24,4.85,4.41,4.85,2.55,0,4.51-1.84,4.51-4.85,0-2.28-1.27-4.85-4.42-4.85C77.43,20,75.62,21.92,75.62,24.82Z" style="fill:#fff"/><path d="M96.29,33.19c-.53,0-.66-.09-.66-.58,0-.16.07-2.8.07-4V20.84c0-1.22-.07-3.86-.07-4,0-.49.13-.58.66-.58H99c.53,0,.66.09.66.58,0,.16-.06,2.8-.06,4v7.75c0,1.22.06,3.86.06,4,0,.49-.13.58-.66.58Z" style="fill:#fff"/><path d="M111.15,28.59c0,1.22.07,3.86.07,4,0,.49-.14.58-.67.58H108c-.53,0-.67-.09-.67-.58,0-.16.07-2.8.07-4V20.84c0-1.22-.07-3.86-.07-4,0-.49.14-.58.67-.58h1.52a1.14,1.14,0,0,1,1.12.53c.86,1,1.66,2,2.49,2.9l4.78,5.45c.12.14.23.21.3.21s.16-.12.16-.37V20.84c0-1.22-.07-3.86-.07-4,0-.49.14-.58.67-.58h2.55c.53,0,.67.09.67.58,0,.16-.07,2.8-.07,4v7.75c0,1.22.07,3.86.07,4,0,.49-.14.58-.67.58h-1.15a1.17,1.17,0,0,1-1.13-.53c-.82-1-1.58-1.82-2.52-2.87l-5.11-5.73a.38.38,0,0,0-.28-.18c-.11,0-.18.11-.18.36Z" style="fill:#fff"/><path d="M137.88,28.59c0,1.22.07,3.86.07,4,0,.49-.14.58-.67.58h-2.72c-.52,0-.66-.09-.66-.58,0-.16.07-2.8.07-4v-8c0-.58-.12-.69-.69-.69h-.49c-.82,0-2.94,0-3.1,0-.48,0-.57-.14-.57-.66v-2.4c0-.53.09-.66.57-.66.16,0,2.48,0,3.56,0h5.34c1.08,0,3.4,0,3.56,0,.49,0,.58.13.58.66v2.4c0,.52-.09.66-.58.66-.16,0-2.27,0-3.1,0h-.48c-.58,0-.69.11-.69.69Z" style="fill:#fff"/><path d="M162.37,24c0,.09.07.14.34.23a3.62,3.62,0,0,1,2.56,3.65c0,2.56-2,5.45-7.59,5.45a11.69,11.69,0,0,1-5-1c-.34-.16-.48-.3-.48-.53a1.09,1.09,0,0,1,.09-.41l.74-2.09c.11-.32.2-.49.37-.49a.86.86,0,0,1,.43.21,7.7,7.7,0,0,0,4,1c2.16,0,3.54-.94,3.54-2.23,0-1.45-1.27-1.91-4-1.91-.64,0-1.54,0-1.84,0-.48,0-.55-.14-.55-.69V23.42c0-.55.07-.69.55-.69.3,0,1,0,1.59,0,2.46,0,3.52-.53,3.52-1.72,0-.94-1-1.52-2.6-1.52a6.56,6.56,0,0,0-3.36.94.92.92,0,0,1-.46.21c-.16,0-.28-.14-.41-.46l-.95-2a1.16,1.16,0,0,1-.13-.46c0-.2.13-.32.46-.48a11.39,11.39,0,0,1,5.28-1.24c4.37,0,6.1,2.09,6.1,4.21a4.1,4.1,0,0,1-1.84,3.51C162.48,23.9,162.37,24,162.37,24Z"/></g></g></svg>