<svg xmlns="http://www.w3.org/2000/svg" viewBox="0 0 60.16 13.4"><title>アセット 282x@f</title><g id="レイヤー_2" data-name="レイヤー 2"><g id="contents"><path d="M3,9.67c0,.95,0,3,0,3.15,0,.38-.1.45-.52.45h-2c-.41,0-.52-.07-.52-.45,0-.13.05-2.2.05-3.15V3.6c0-1,0-3,0-3.15C0,.07.11,0,.52,0H1.71a.91.91,0,0,1,.88.41c.67.81,1.3,1.53,2,2.27L8.28,7a.37.37,0,0,0,.24.16c.07,0,.12-.09.12-.29V3.6c0-1-.05-3-.05-3.15,0-.38.11-.45.52-.45h2c.41,0,.52.07.52.45,0,.13-.05,2.2-.05,3.15V9.67c0,.95.05,3,.05,3.15,0,.38-.11.45-.52.45h-.9a.91.91,0,0,1-.88-.41c-.65-.76-1.25-1.43-2-2.26l-4-4.48C3.26,6,3.19,6,3.13,6S3,6.07,3,6.27Z" style="fill:#ed6c00"/><path d="M26.59,11.94a.94.94,0,0,1,.12.36c0,.14-.1.23-.36.36a8.19,8.19,0,0,1-3.4.72c-3.67,0-5.11-2.22-5.11-4.83,0-3,1.94-5.29,5-5.29,2.51,0,4.07,1.49,4.07,4.7,0,1.22-.18,1.37-.72,1.37h-5c-.28,0-.41.05-.41.19a.94.94,0,0,0,.09.31,2.19,2.19,0,0,0,2.23,1.08,5,5,0,0,0,2.14-.45,1.3,1.3,0,0,1,.38-.13c.15,0,.22.11.35.38ZM24.16,7a.79.79,0,0,0,0-.27,1.28,1.28,0,0,0-1.42-1,1.76,1.76,0,0,0-1.69,1,.76.76,0,0,0-.11.32c0,.13.13.18.41.18h2.4C24,7.29,24.16,7.24,24.16,7Z" style="fill:#ed6c00"/><path d="M38.38,10.64c-.27.63-.56,1.3-.88,2.13-.18.43-.27.5-.74.5H36c-.47,0-.56-.07-.72-.5-.29-.85-.56-1.53-.8-2.17l-1.6-4.15c-.3-.78-.57-1.48-1-2.58a.83.83,0,0,1-.09-.31c0-.16.12-.19.41-.19h2.18c.47,0,.56.07.7.52.34,1.08.58,1.78.83,2.54l.59,1.76c.06.16.13.24.18.24s.15-.08.22-.24l.88-2.07c.31-.72.56-1.31.92-2.25.18-.43.27-.5.74-.5H40c.47,0,.56.07.74.5.38.94.63,1.53.92,2.23l.92,2.13c.07.16.14.23.2.23s.12-.07.18-.23l.59-1.78c.27-.81.49-1.5.81-2.56.15-.45.23-.52.7-.52h2.07c.29,0,.42,0,.42.19a.84.84,0,0,1-.07.31c-.45,1.08-.74,1.8-1,2.61L44.9,10.59c-.28.7-.51,1.33-.8,2.18-.16.43-.25.5-.72.5h-.81c-.47,0-.56-.07-.74-.5-.34-.83-.59-1.44-.88-2.11L39.87,8.17c-.07-.16-.14-.25-.21-.25s-.15.09-.22.25Z" style="fill:#ed6c00"/><path d="M60.16,10.41c0,2.16-1.95,3-4.07,3a7.56,7.56,0,0,1-3.33-.72c-.25-.13-.36-.22-.36-.38a.76.76,0,0,1,.11-.36l.59-1.28c.11-.25.18-.36.31-.36a.88.88,0,0,1,.36.14,4.56,4.56,0,0,0,2.28.69c.78,0,1.16-.24,1.16-.63s-.6-.69-1.39-.94c-1.37-.45-3.24-1.15-3.24-3.2,0-1.71,1.35-3.12,4.17-3.12a6.82,6.82,0,0,1,2.78.58c.25.12.38.21.38.38a1.23,1.23,0,0,1-.09.34L59.24,6c-.11.25-.18.38-.31.38a.88.88,0,0,1-.36-.14,4.06,4.06,0,0,0-1.92-.53c-.78,0-1.1.27-1.1.62s.63.66,1.4.93C58.39,7.8,60.16,8.46,60.16,10.41Z" style="fill:#ed6c00"/></g></g></svg>