<?xml version="1.0" encoding="UTF-8"?>
<svg id="_レイヤー_1" data-name=" レイヤー 1" xmlns="http://www.w3.org/2000/svg" viewBox="0 0 262.17 27.44">
  <defs>
    <style>
      .cls-1 {
        fill: none;
        stroke: #3b241a;
        stroke-miterlimit: 10;
      }

      .cls-2 {
        isolation: isolate;
      }

      .cls-3 {
        fill: #3b241a;
      }
    </style>
  </defs>
  <g id="_レイヤー_11" data-name=" レイヤー 11">
    <g id="_レイヤー_1-2" data-name=" レイヤー 1-2">
      <g id="_レイヤー_1-21" data-name=" レイヤー 1-21">
        <g id="_レイヤー_1-2-2" data-name=" レイヤー 1-2-2">
          <g id="_レイヤー_1-2-21" data-name=" レイヤー 1-2-21">
            <g id="_レイヤー_2" data-name=" レイヤー 2">
              <g id="contents">
                <g class="cls-2">
                  <g class="cls-2">
                    <g class="cls-2">
                      <g class="cls-2">
                        <g class="cls-2">
                          <g class="cls-2">
                            <path class="cls-1" d="M26.87,17.41l-10.73,1.11.71,8.05-4.21.33-.67-7.96-11.03,1.13-.38-3.65,11.1-1.12-.42-4.87-9.45.85-.26-3.65,9.41-.81-.38-4.48,4.14-.36.4,4.48,9.15-.79.34,3.58-9.17.81.41,4.8,10.69-1.15.37,3.69Z"/>
                            <path class="cls-1" d="M46.91,26.49l-3.4.38-2.65-13.28-4.69.66-.48-3.09,4.57-.6-.93-4.66,3.34-.36.93,4.58,12.56-1.67,1.65,1.31c-1.31,3.96-3.71,7.37-7.19,10.21l-2.32-2.12c2-1.63,3.65-3.63,4.92-5.99l-9.01,1.26,2.71,13.36Z"/>
                            <path class="cls-1" d="M75.67,18.05h-4.14V3.04h4.14v15.01ZM90.7,13.94c0,7.73-5.38,11.92-16.13,12.58l-.89-3.62c4.67-.39,7.97-1.33,9.91-2.83s2.91-3.71,2.91-6.66V2.58h4.2v11.36Z"/>
                            <path class="cls-1" d="M127.59,4.53c-.12.76-.59,1.97-1.43,3.64s-2.1,3.32-3.79,4.95c-1.69,1.63-3.32,2.88-4.9,3.75l-2.12-2.83c1.38-.78,2.68-1.83,3.92-3.13,1.24-1.3,2.21-2.6,2.9-3.9h-19.74v-3.53h23.91l1.24,1.04ZM115.43,8.31v.67c0,1.87-.03,3.42-.1,4.66s-.32,2.55-.75,3.94c-.43,1.39-1.12,2.69-2.06,3.89s-2.12,2.24-3.52,3.1c-1.4.86-3.04,1.55-4.91,2.07l-1.48-3.31c3.38-1.05,5.67-2.54,6.88-4.47s1.8-4.57,1.8-7.92l-.03-2.62h4.17Z"/>
                            <path class="cls-1" d="M156.57,8.25h4.84v3.58h-4.84v2.53c0,3.86-1.38,6.83-4.13,8.9-2.75,2.07-6.77,3.15-12.06,3.25l-.59-3.6c4.78-.16,8.09-1.01,9.94-2.54,1.85-1.53,2.78-3.53,2.78-6.02v-2.53h-8.44v6.64h-4.12v-6.64h-4.98v-3.58h4.98V2.61h4.12v5.65h8.44V2.21h4.06v6.04Z"/>
                            <path class="cls-1" d="M177.87,12.34c-1.2,5.41-3.51,9.7-6.92,12.85l-3.17-2.15c1.99-2.11,3.42-4.21,4.31-6.28.88-2.07,1.43-3.67,1.63-4.81l4.16.38ZM183.63,26.57h-4.12V10.36h-10.38v-3.42h10.38V2.43h4.12v4.51h10.28v3.42h-10.28v16.21ZM195.51,23.15l-3.34,2.16c-1.62-1.69-3.03-3.77-4.22-6.25s-1.96-4.71-2.3-6.69l3.9-.56c.32,1.42,1,3.18,2.04,5.27s2.35,4.12,3.92,6.08ZM194.1,3.43c0,.85-.29,1.55-.88,2.1-.58.55-1.32.83-2.2.83s-1.62-.28-2.2-.83c-.58-.55-.88-1.25-.88-2.1s.29-1.55.88-2.1c.58-.55,1.32-.83,2.2-.83s1.62.28,2.2.83c.58.55.88,1.25.88,2.1ZM192.26,2.2c-.33-.34-.75-.51-1.24-.51s-.9.17-1.24.51-.5.75-.5,1.23.17.89.5,1.23.75.51,1.24.51.9-.17,1.24-.51.5-.75.5-1.23-.17-.89-.5-1.23Z"/>
                            <path class="cls-1" d="M227.84,16.56h-25.12v-3.64h25.12v3.64Z"/>
                            <path class="cls-1" d="M261.43,16.15l-2.58,3.24c-3.88-2.63-7.91-4.67-12.07-6.1v13.33h-4.31V1.96h4.35v7.3c4.61,1.49,9.48,3.78,14.62,6.89Z"/>
                          </g>
                        </g>
                        <g class="cls-2">
                          <g class="cls-2">
                            <path class="cls-3" d="M26.87,17.41l-10.73,1.11.71,8.05-4.21.33-.67-7.96-11.03,1.13-.38-3.65,11.1-1.12-.42-4.87-9.45.85-.26-3.65,9.41-.81-.38-4.48,4.14-.36.4,4.48,9.15-.79.34,3.58-9.17.81.41,4.8,10.69-1.15.37,3.69Z"/>
                            <path class="cls-3" d="M46.91,26.49l-3.4.38-2.65-13.28-4.69.66-.48-3.09,4.57-.6-.93-4.66,3.34-.36.93,4.58,12.56-1.67,1.65,1.31c-1.31,3.96-3.71,7.37-7.19,10.21l-2.32-2.12c2-1.63,3.65-3.63,4.92-5.99l-9.01,1.26,2.71,13.36Z"/>
                            <path class="cls-3" d="M75.67,18.05h-4.14V3.04h4.14v15.01ZM90.7,13.94c0,7.73-5.38,11.92-16.13,12.58l-.89-3.62c4.67-.39,7.97-1.33,9.91-2.83s2.91-3.71,2.91-6.66V2.58h4.2v11.36Z"/>
                            <path class="cls-3" d="M127.59,4.53c-.12.76-.59,1.97-1.43,3.64s-2.1,3.32-3.79,4.95c-1.69,1.63-3.32,2.88-4.9,3.75l-2.12-2.83c1.38-.78,2.68-1.83,3.92-3.13,1.24-1.3,2.21-2.6,2.9-3.9h-19.74v-3.53h23.91l1.24,1.04ZM115.43,8.31v.67c0,1.87-.03,3.42-.1,4.66s-.32,2.55-.75,3.94c-.43,1.39-1.12,2.69-2.06,3.89s-2.12,2.24-3.52,3.1c-1.4.86-3.04,1.55-4.91,2.07l-1.48-3.31c3.38-1.05,5.67-2.54,6.88-4.47s1.8-4.57,1.8-7.92l-.03-2.62h4.17Z"/>
                            <path class="cls-3" d="M156.57,8.25h4.84v3.58h-4.84v2.53c0,3.86-1.38,6.83-4.13,8.9-2.75,2.07-6.77,3.15-12.06,3.25l-.59-3.6c4.78-.16,8.09-1.01,9.94-2.54,1.85-1.53,2.78-3.53,2.78-6.02v-2.53h-8.44v6.64h-4.12v-6.64h-4.98v-3.58h4.98V2.61h4.12v5.65h8.44V2.21h4.06v6.04Z"/>
                            <path class="cls-3" d="M177.87,12.34c-1.2,5.41-3.51,9.7-6.92,12.85l-3.17-2.15c1.99-2.11,3.42-4.21,4.31-6.28.88-2.07,1.43-3.67,1.63-4.81l4.16.38ZM183.63,26.57h-4.12V10.36h-10.38v-3.42h10.38V2.43h4.12v4.51h10.28v3.42h-10.28v16.21ZM195.51,23.15l-3.34,2.16c-1.62-1.69-3.03-3.77-4.22-6.25s-1.96-4.71-2.3-6.69l3.9-.56c.32,1.42,1,3.18,2.04,5.27s2.35,4.12,3.92,6.08ZM194.1,3.43c0,.85-.29,1.55-.88,2.1-.58.55-1.32.83-2.2.83s-1.62-.28-2.2-.83c-.58-.55-.88-1.25-.88-2.1s.29-1.55.88-2.1c.58-.55,1.32-.83,2.2-.83s1.62.28,2.2.83c.58.55.88,1.25.88,2.1ZM192.26,2.2c-.33-.34-.75-.51-1.24-.51s-.9.17-1.24.51-.5.75-.5,1.23.17.89.5,1.23.75.51,1.24.51.9-.17,1.24-.51.5-.75.5-1.23-.17-.89-.5-1.23Z"/>
                            <path class="cls-3" d="M227.84,16.56h-25.12v-3.64h25.12v3.64Z"/>
                            <path class="cls-3" d="M261.43,16.15l-2.58,3.24c-3.88-2.63-7.91-4.67-12.07-6.1v13.33h-4.31V1.96h4.35v7.3c4.61,1.49,9.48,3.78,14.62,6.89Z"/>
                          </g>
                        </g>
                      </g>
                    </g>
                  </g>
                </g>
              </g>
            </g>
          </g>
        </g>
      </g>
    </g>
  </g>
</svg>