<?xml version="1.0" encoding="UTF-8"?>
<svg xmlns="http://www.w3.org/2000/svg" version="1.1" viewBox="0 0 317.7 54">
  <defs>
    <style>
      .cls-1 {
        fill: none;
        stroke: #3b241a;
        stroke-miterlimit: 10;
        stroke-width: .5px;
      }

      .cls-1, .cls-2 {
        font-family: mplus-1m-bold, 'M+ 1m';
        font-size: 28px;
        font-weight: 700;
        letter-spacing: .2em;
      }

      .cls-1, .cls-2, .cls-3 {
        isolation: isolate;
      }

      .cls-2, .cls-4 {
        fill: #3b241a;
      }
    </style>
  </defs>
  <!-- Generator: Adobe Illustrator 28.7.1, SVG Export Plug-In . SVG Version: 1.2.0 Build 142)  -->
  <g>
    <g id="_レイヤー_1" data-name="レイヤー_1">
      <g id="_レイヤー_1-2" data-name="_レイヤー_1">
        <g id="_レイヤー_1-2">
          <g id="_レイヤー_1-2-2" data-name="_レイヤー_1-2">
            <g id="_レイヤー_2">
              <g id="contents">
                <path class="cls-4" d="M4.7,12.7s2.4.6,2.8.7c.8.2,1.6.3,1.6.7s-.4.4-.5.4c-.3,0-.5.2-.7.5l-.2.4c-.4.7-.7,1.4-1,2.1,0,.3.3.4.6.4.7,0,1.7,0,1.7-.5s-.2-.6-.3-.9c0,0-.2-.3-.2-.4,0-.6,2.5-1.3,2.8-1.3s.4.2.6.4c.3.4,1.2,2.1,1.4,2.6.5,1,.9,2.1,1.3,3.2,0,.8-2.3,1.6-2.9,1.6s-.4-.2-.6-.6-.3-.6-.8-.6c-1.2,0-4.8.5-7.9.8-.2,0-.3.2-.4.4-.1.2-.2.4-.5.4s-.5-.4-.9-1.9c-.2-.7-.4-1.5-.5-2.2,0-.4.4-.4,1-.4h.5c.8,0,1-.3,1.3-1,.6-1.4,1.1-2.8,1.6-4.2,0-.3,0-.4.3-.4v-.2s0,0-.1,0ZM5.1,36.7v2.6c0,.6-.3.6-1.1.6h-1.9c-.8,0-1,0-1-.6v-15.1c0-1.1.7-1.3,1.6-1.3h8.3c.8,0,1.8,0,1.8,1.3v10.8c0,4.2,0,4.8-4.8,4.8s-1.8-.3-1.8-2.6v-.2c0-.5,0-1,.8-1h1.2c.5,0,.7,0,.7-.7s-.1-.4-.4-.4h-2.7c-.4,0-.8.3-.8.7h0v1.1h0ZM5.1,27.1c0,.3.2.5.5.5h2.9c.3,0,.5-.2.5-.5h0c0-.3-.2-.6-.5-.6h-2.9c-.3,0-.5.2-.5.5h0v.2h0ZM5.1,31.4c0,.3.2.6.6.6h2.7c.3,0,.6-.3.6-.6h0c0-.4-.2-.6-.5-.7h-2.7c-.3,0-.6.3-.6.6h-.1ZM20.3,33c-.6.2-1.4.4-1.4,1.2v.3c0,.8,0,1.2.9,1.2h1.9c.8,0,1.4,0,1.7-2.1,0-.6,0-1,.8-1s1.4.3,2,.7c.5.3,1,.6,1,1.2-.2,1.4-.6,2.7-1.2,3.9-.6,1.1-1.9,1.3-3.1,1.3h-5.6c-1.8,0-2.8-.8-2.8-2.7v-9.7c0-.2.2-.4.6-.4s3.4.2,4,.3c.3,0,.7,0,.7.5s-.2.4-.5.5-.3.5-.3.8,0,.7.5.7,3.2-1.6,3.8-2.1c.1,0,.3-.3.5-.3s.5.3,1.1.9c.2.3.5.6.8,1s1.3,1.3,1.3,1.6,0,.4-.5.4h-1c-1.6.8-3.4,1.5-5.1,2v-.2h0ZM19.6,19.4c-.4,0-.7.3-.7.8v.2c0,.8,0,1.2.9,1.2h2c.9,0,1.3-.3,1.4-1,0-.4.2-.8.2-1.2s.1-.8.9-.8,1.4.2,2,.5c.6.2.9.7.9,1.3-.1,1.4-.6,2.7-1.3,3.9-.7,1.2-1.7,1.3-3,1.3h-4.5c-2.6,0-3.8-.2-3.8-2.9v-9c0-.3.2-.5.5-.5s3.5.2,4,.3c.3,0,.6.2.6.5s-.2.4-.5.5-.3.5-.3.8.1.6.5.6c1.4-.5,2.7-1.3,3.8-2.2.1,0,.4-.3.5-.3s.7.5,1.1,1c.2.3.4.5.7.8l.3.3c.4.5,1,1.1,1,1.4s-.2.4-.5.4h-.7c-.1,0-.3,0-.4.2-1.9.9-3.8,1.6-5.7,2.3v-.3h.1Z"/>
                <path class="cls-4" d="M44.1,31.3c0,1.6.2,1.9,2,1.9,2.6,0,5.2-.2,7.8-.5h.5c.7,0,.8,1.1.8,2v.9c0,.7,0,1.3-.6,1.6-.2,0-.4.2-.7.2-1,0-5.3.3-5.9.3h-4c-1.3,0-2.5-.4-3.5-1.2-.9-1-1-2.9-1-4.5v-4c0-.4-.3-.7-.7-.7h-.3l-.5.2c-.6,0-4.1.9-4.3.9-.6,0-.7-.5-.8-1.1-.2-.9-.4-1.9-.5-2.8,0-.5.7-.7,2.5-1,.6,0,1.4-.2,2.4-.4l1.5-.3c.4,0,.8-.5.8-.9v-6.9c0-.5,0-.4.4-.4l4.4.5c.2,0,.7,0,.7.4s0,.2-.2.3c-.4.3-.5.8-.5,1.3v3.8c0,.4.3.7.7.7h.5l5-1.1c1-.2,2.1-.4,3.1-.7h.6c.7,0,3,2.2,3,3s-.2.4-.4.6-1,1.3-1.3,1.7c-1.4,1.8-2.9,3.5-4.5,5.2-.3.4-.7.8-1.2.8s-3.2-1.6-3.2-2.5.8-.9,1-1.1,2-1.8,2-2,0-.2-.2-.2h-.8l-3.4.7c-.4,0-.8.5-.8.9v4.6l-.4-.3h0Z"/>
                <path class="cls-4" d="M87.1,21.9s0,.2.2.3c.2.4.4.9.5,1.4,0,.7-2.4,3-3.1,3.6-4.8,4.7-9.7,7.4-15.7,10.3-.4,0-.7.4-.8.8,0,0,0,.2-.2.2s-.4-.3-.5-.5c-.5-.7-1-1.5-1.4-2.3-.4-.6-.7-1.2-.9-1.8,0-.3.3-.4.6-.5,2.7-.8,5.3-1.9,7.7-3.3,4.1-2.5,7.8-5.6,10.8-9.4,0,0,0-.1.2-.2.3-.4.5-.7.8-.7.6,0,1.5,1.6,1.8,2.1ZM69.1,15.8c1.9,1.1,3.6,2.4,5.3,3.8.2,0,.3.3.3.5,0,.9-2.1,3.3-2.8,3.3s-.6-.2-.8-.4c-1.5-1.3-3.2-2.5-5-3.5-.2-.2-.5-.3-.5-.6,0-.6,1.8-3.5,2.7-3.5s.6.2.9.4h0Z"/>
                <path class="cls-4" d="M113.8,19.6c2.1,2,3.2,4.8,3.2,7.7,0,4.2-2.3,8-6,10-1.1.6-2.3,1.1-3.6,1.3-1,0-2.6-2.8-2.6-3.6s.3-.4,1.1-.6c3.5-.9,6.3-3.1,6.3-6.9s-3.6-6.6-4.5-6.6-.6.5-.6,1.1c-.3,4.2-1.5,9.3-4.3,12.6-1,1.4-2.6,2.4-4.4,2.5-2,0-3.7-1.3-4.6-3.1-.7-1.4-1-2.9-1-4.5,0-7,5.5-12.8,12.5-12.9h.3c3,0,5.9,1,8.1,3h0ZM97.4,29.4c0,.7.2,2.9,1.2,2.9s1.7-2,2-2.6c1-2.5,1.7-5,1.9-7.7,0-.2,0-.5-.4-.5-.9,0-4.8,2.8-4.8,7.8h.1Z"/>
                <g class="cls-3">
                  <g class="cls-3">
                    <text class="cls-2" transform="translate(122.2 37.7)"><tspan x="0" y="0">社会貢献活動</tspan></text>
                  </g>
                  <g class="cls-3">
                    <text class="cls-1" transform="translate(122.2 37.7)"><tspan x="0" y="0">社会貢献活動</tspan></text>
                  </g>
                </g>
              </g>
            </g>
          </g>
        </g>
      </g>
    </g>
  </g>
</svg>