<?xml version="1.0" encoding="UTF-8"?>
<svg id="_レイヤー_1" data-name="レイヤー 1" xmlns="http://www.w3.org/2000/svg" viewBox="0 0 317.1 26.88">
  <defs>
    <style>
      .cls-1 {
        fill: #3b241a;
      }
    </style>
  </defs>
  <path class="cls-1" d="M11.09,7.87c-2.12.31-4.44.59-6.96.82h-.01s-.03,0-.03,0c-1.49.14-2.7.22-3.6.26l-.48-3.19c.57,0,1.28-.03,2.14-.07C3.27,3.59,4.09,1.72,4.6.06l4.04.69c-.5,1.22-1.29,2.78-2.37,4.67,1.43-.12,2.61-.22,3.56-.32-.38-.81-.76-1.51-1.13-2.09l3.46-1.14c.59.81,1.62,2.93,3.09,6.36l-3.6.88-.56-1.23ZM9.93,20.52h-4.61v5.98H1.51V9.7h12.26v13.74c0,.81-.29,1.48-.88,2s-1.32.78-2.21.78h-2.99l-.45-3.47h2.12c.38,0,.57-.17.57-.51v-1.71ZM9.93,14.11v-1.77h-4.61v1.77h4.61ZM5.32,18.06h4.61v-1.68h-4.61v1.68ZM27.76,9.39c0,.8-.19,1.45-.56,1.95s-.92.84-1.63,1.03-2,.29-3.87.29c-1.36,0-2.47-.05-3.33-.15s-1.56-.43-2.07-1-.78-1.31-.78-2.24V.4h3.81v2.94c2.28-.76,4.14-1.53,5.58-2.31l2.01,2.81c-1.88.85-4.4,1.7-7.59,2.56v2.21c0,.34.18.56.53.66s.98.15,1.87.15c.61,0,1.11-.02,1.52-.06s.69-.15.84-.34.26-.59.32-1.21.09-1.34.09-2.17l3.27.54v3.21ZM27.91,23.07c0,.51-.1.97-.31,1.38s-.5.77-.89,1.07-.78.49-1.19.58-1.11.15-2.12.18-1.58.05-1.71.05c-1.58,0-2.75-.06-3.51-.18s-1.39-.45-1.9-1-.77-1.29-.77-2.21v-9.84h3.87v3.16c2.65-.84,4.71-1.68,6.18-2.53l2.02,2.94c-2.02.94-4.76,1.83-8.2,2.68v2.81c0,.32.14.54.42.64s.95.16,2.01.16c.78,0,1.32-.03,1.63-.09s.52-.16.67-.29.25-.42.33-.86.12-1.37.12-2.8l3.35.53v3.6Z"/>
  <path class="cls-1" d="M58.22,6.45c-2.14,4.42-5.23,8.19-9.27,11.31l-2.97-2.75c2.39-1.82,4.38-3.92,5.95-6.3l-10.85,1.64v8.89c0,1,.23,1.73.68,2.2s1.35.7,2.67.7h12.89v3.97h-13.48c-2.54,0-4.37-.56-5.49-1.68s-1.68-2.82-1.68-5.11v-8.31l-5.71.86-.57-3.87,6.4-.92V.4h4.41v6.06l14.87-2.14,2.17,2.12Z"/>
  <path class="cls-1" d="M77.33,7.76l-2.68,3.63c-1.45-.93-2.73-1.71-3.84-2.34-1.12-.63-3.65-1.94-7.58-3.93l2.31-3.35c3.07,1.22,7,3.22,11.79,5.99ZM89.21,11.34c-2.48,4.58-5.72,8.07-9.71,10.47s-9.05,3.9-15.16,4.5l-1-4.1c3.34-.3,6.12-.81,8.35-1.52s4.18-1.65,5.85-2.8c1.67-1.16,3.1-2.33,4.28-3.53,1.18-1.2,2.47-2.98,3.87-5.35l3.52,2.34Z"/>
  <path class="cls-1" d="M104.38,25.45l-1.01-3.41c3.61-.4,6.32-1.23,8.14-2.49s2.73-3.15,2.73-5.66c0-2.1-.65-3.78-1.96-5.05s-3.12-2.01-5.44-2.23c-.19,5.09-1.14,9.21-2.86,12.37s-3.87,4.74-6.47,4.74c-1.69,0-3.06-.8-4.1-2.39s-1.57-3.42-1.57-5.47v-.34c0-3.14,1.26-5.93,3.8-8.35s5.72-3.72,9.58-3.91h.56c3.68,0,6.7.93,9.07,2.8,2.37,1.87,3.55,4.41,3.55,7.61,0,3.52-1.19,6.27-3.58,8.26-2.39,1.99-5.86,3.16-10.43,3.52ZM103,7.01c-2.04.48-3.78,1.55-5.21,3.22-1.43,1.66-2.15,3.5-2.15,5.51,0,1.04.18,1.99.53,2.86s.85,1.31,1.49,1.31c1.28,0,2.44-1.24,3.49-3.73,1.05-2.49,1.66-5.54,1.85-9.16Z"/>
  <path class="cls-1" d="M130.04,26.76h-3.69v-9.98c-1.03.87-2.12,1.67-3.3,2.39l-1.63-2.77c1.78-1.14,3.37-2.52,4.78-4.15,1.41-1.62,2.47-3.28,3.17-4.97h-6.65v-3.24h3.68V.34h3.72v3.72h3.46l.78.81c-.71,2.52-2.02,5.05-3.93,7.6.91.85,2.47,2.06,4.67,3.65l-1.86,3.15c-1.18-.92-2.25-1.82-3.21-2.71v10.21ZM150.56,25.9h-18.15v-3.57h7.18v-11.13h-5.74v-3.44h5.74V.45h4.19v7.29h6.01v3.44h-6.01v11.13h6.78v3.57Z"/>
  <path class="cls-1" d="M179.35,12.25h-16.26v-1.67c-1.81,1.13-3.45,1.99-4.92,2.56l-1.92-3.12c2.1-.84,4.49-2.26,7.17-4.25,2.68-1.99,4.52-3.83,5.52-5.52h3.97c3.17,3.99,7.52,7.09,13.05,9.3l-2.14,3.44c-1.39-.55-2.88-1.3-4.47-2.26v1.51ZM178.75,25.19c-4.64.52-11.2.99-19.67,1.42l-.63-3.6,3.82-.13c1.04-1.56,2-3.19,2.89-4.88h-7.08v-3.52h26.04v3.52h-6.04c2.49,2.52,4.52,4.93,6.09,7.24l-4.38,1.64c-.22-.44-.58-1-1.05-1.68ZM165.64,8.85h10.87c-2.25-1.64-4.06-3.31-5.43-5.01-1.3,1.63-3.11,3.3-5.43,5.01ZM167.11,22.66c3.86-.21,6.92-.42,9.2-.63-.96-1.17-1.81-2.16-2.56-2.97l1.95-1.05h-5.8c-.86,1.59-1.79,3.14-2.78,4.66Z"/>
  <path class="cls-1" d="M216.93,7.98h-27.69v-2.67h11.66v-1.66h-9.68V1.08h23.85v2.58h-10.05v1.66h11.91v2.67ZM200.25,23.82c-.93.59-2.39,1.16-4.38,1.72s-3.84.97-5.54,1.22l-.97-3.12c2.55-.37,4.99-.97,7.31-1.8h-5v-12.48h22.91v12.48h-4.92c2.31.7,4.79,1.22,7.41,1.54l-1.52,3.33c-2.73-.59-4.54-1-5.41-1.23s-1.66-.49-2.37-.76-1.28-.55-1.7-.83l1.22-2.04h-8.44l1.39,1.98ZM195.72,12.96h14.82v-1.44h-14.82v1.44ZM195.72,16.17h14.82v-1.49h-14.82v1.49ZM210.55,17.91h-14.82v1.77h14.82v-1.77Z"/>
  <path class="cls-1" d="M237.67,24.65c-.18.53-.49.94-.95,1.24s-.94.45-1.45.45h-2.49l-.4-2.99h1.49c.51,0,.76-.24.76-.73v-12.66h-8.67v16.77h-3.12V7.41h5.79v-1.95h-6.42v-2.78h6.42V.34h3.63v2.34h6.42v2.78h-6.42v1.95h5.55v16.2c1.33-2.02,2.26-4.06,2.81-6.12.54-2.06.85-4.25.92-6.56h-2.97v-3.15h3.12V.22h3.69v7.56h4.58v3.15h-4.34c.5,4.56,2.29,8.84,5.39,12.83l-2.55,2.74c-2.05-2.73-3.52-5.56-4.39-8.47-.43,1.6-1.06,3.22-1.89,4.85s-1.68,2.89-2.56,3.76l-1.95-1.99ZM231.78,26.31h-2.94v-5.13h-2.4v-2.46h2.4v-2.24h-2.4v-2.34h.92l-.82-2.94,2.58-.45.86,3.4h.75l.82-3.43,2.67.42-1,3h1v2.34h-2.43v2.24h2.37v2.46h-2.37v5.13ZM250.08,6.64l-2.78.72-1.6-5.43,2.49-.6c.68,1.55,1.31,3.33,1.89,5.32Z"/>
  <path class="cls-1" d="M263.03,10.84l-2.26,3.09c-1.43-1.4-3.14-2.86-5.16-4.38l2.12-2.92c2.24,1.59,4,2.99,5.29,4.2ZM264.1,15.82c-.35,1.51-.99,3.33-1.93,5.46-.93,2.13-1.86,3.9-2.78,5.3l-3.6-1.98c.99-1.37,1.93-3.1,2.84-5.19s1.52-3.67,1.85-4.74l3.62,1.14ZM264.35,4.26l-2.31,3.09c-1.54-1.45-3.3-2.95-5.27-4.53l2.27-2.83c2.52,1.88,4.29,3.3,5.32,4.26ZM278.6,25.44h-9.84v1.08h-4.06v-12.16h6.78v-3.06h-7.85v-3.35h7.85v-2.7c-.69.05-2.79.18-6.3.38l-.63-3.18c1.07-.06,2.4-.16,3.97-.31l3.98-.35c1.08-.1,2.15-.23,3.19-.41l2.55-.45c.64-.13,1.23-.25,1.74-.37s.97-.23,1.36-.35l1.8,3.15c-1.68.54-4.18,1.03-7.5,1.46v3.12h8.13v3.35h-8.13v3.06h6.96v12.16h-4.01v-1.08ZM268.76,22.29h9.84v-4.83h-9.84v4.83Z"/>
  <path class="cls-1" d="M304.78,25.09c-.88.34-5.62.79-14.24,1.35l-.54-3.25c1.07,0,3.23-.07,6.46-.21v-1.29h-5.92v-2.64h5.92v-1.2h-5.29v-9.48h5.29v-1.14h-5.95v-2.52h5.95v-.89c-1.54.08-3.16.14-4.86.18l-.4-2.59c5.5-.24,9.58-.68,12.25-1.32l1.29,2.8c-1.04.26-2.56.49-4.58.67v1.16h5.51v2.52h-5.51v1.14h5.24v9.48h-5.24v1.2h5.39v2.64h-5.39v1.11c2.55-.14,4.11-.26,4.67-.37v1.7c.46-.7,1.12-2.32,1.99-4.86s1.34-5.8,1.42-9.81h-2.01v-3.21h1.95V.34h4v5.93h4.92v9.27c0,1.64-.09,3.33-.28,5.08s-.4,2.94-.64,3.59c-.24.64-.67,1.18-1.28,1.61s-1.34.64-2.18.64h-3.12l-.4-3.31h2.01c.51,0,.91-.16,1.22-.49s.54-1.27.71-2.83c.17-1.56.26-3.29.26-5.17v-5.19h-1.51c-.11,2.83-.29,4.98-.54,6.44-.25,1.46-.74,3.21-1.46,5.22-.72,2.02-1.64,3.83-2.78,5.44l-2.33-1.49ZM296.46,10.62h-1.92v1.68h1.92v-1.68ZM296.46,13.89h-1.92v1.65h1.92v-1.65ZM302.07,12.3v-1.68h-1.92v1.68h1.92ZM302.07,15.54v-1.65h-1.92v1.65h1.92Z"/>
</svg>