<svg xmlns="http://www.w3.org/2000/svg" viewBox="0 0 328.51 34.02"><title>アセット 302x@f</title><g id="レイヤー_2" data-name="レイヤー 2"><g id="contents"><path d="M57.7,10.19c.27.05.43.13.43.35a.35.35,0,0,1-.16.33c-.44.35-.44.44-.55,1.53,0,.27-.08.79-.16,1.36,0,.11,0,.22,0,.33,0,.38.17.52.44.77s.93.92.93,1.31c0,.21-.41.65-.82,1.11s-.74.93-.74,1.07a.15.15,0,0,0,.14.16,4.44,4.44,0,0,0,.76-.6c.08-.08.16-.13.19-.16a8.34,8.34,0,0,1,5.46-2.21,6.91,6.91,0,0,1,6.88,7.18c0,3.68-2.18,6.19-5.32,7.86a11.68,11.68,0,0,1-4,1.36c-1.17,0-2-2.45-2-3.14s.46-.71.95-.81a13.44,13.44,0,0,0,3.53-1.23,4.56,4.56,0,0,0,2.56-3.88c0-1.69-1-3.36-2.89-3.36-2.24,0-5.35,2.21-6.17,3.72a1.81,1.81,0,0,0-.19.9v.24c0,1.45,0,2.9.08,4.32,0,.49.25,3.68.25,3.79s-.09.3-.5.35a21.52,21.52,0,0,1-2.43.11c-1.14,0-1.52,0-1.52-.54a3,3,0,0,1,0-.44c.11-.82.17-2.84.17-3.71,0-.22,0-.52-.36-.52s-1.36,1.61-1.58,2c-.11.19-.25.43-.49.43-.63,0-2.84-2.37-2.84-3,0-.3.3-.58.57-.82l.17-.17A28.26,28.26,0,0,0,53,20.34a1.47,1.47,0,0,0,.22-.57c0-.27-.08-.55-.38-.55a1.86,1.86,0,0,0-.47.11,14.31,14.31,0,0,1-2.62.58c-.46,0-.63-.5-.74-.88a26.28,26.28,0,0,1-.57-2.92c0-.57.41-.63.82-.63h.38c.68,0,3-.05,3.44-.46.17-.14.27-.38.27-.87,0-1.07,0-2.13,0-3.2V10.3c0-.36.19-.47.52-.47C54.39,9.83,57.2,10.08,57.7,10.19Z" style="fill:#ed6c00"/><path d="M96.82,11.22c.41.11.71.2.71.44s-.22.3-.41.38c-.47.22-.58,1-.69,1.75l-.08.55a2.78,2.78,0,0,0,0,.35.56.56,0,0,0,.27.52,1.46,1.46,0,0,0,.66.14,5,5,0,0,1,2.29.57c1.8,1,2.26,2.7,2.26,4.67,0,2.43-.49,6.41-1.72,8.49a6.09,6.09,0,0,1-5.76,3.05c-.79,0-1.14-.08-1.42-.76a10.8,10.8,0,0,1-.6-2.76c0-.35.14-.62.52-.62L94,28c1.66,0,2-.13,2.59-1.17a15.62,15.62,0,0,0,1.23-6c0-1.29-.19-1.67-1.23-1.67s-1.17.11-1.42,1a34.74,34.74,0,0,1-4.2,9.06A19.82,19.82,0,0,1,89,31.89a.71.71,0,0,1-.46.19c-.6,0-3.22-1.45-3.22-2.35,0-.27.3-.57.54-.82a21.5,21.5,0,0,0,4.89-7.64,1.49,1.49,0,0,0,.13-.49.38.38,0,0,0-.43-.41,17.21,17.21,0,0,0-2.32.79,1.21,1.21,0,0,1-.52.16c-.47,0-.77-1-1-2-.14-.63-.41-1.72-.41-2s.3-.46,1-.52a26.89,26.89,0,0,0,4.2-.71c.55-.11.85-.3.93-.9a36.25,36.25,0,0,0,.22-3.93v-.41c0-.27,0-.52.38-.52S96.3,11.09,96.82,11.22Zm7.28,2.24a21.82,21.82,0,0,1,2.13,2.76c.06.11.17.25.28.44a16.34,16.34,0,0,1,1.85,3.41c0,.87-2.51,2.32-3.25,2.32-.38,0-.57-.44-.71-.74a22.94,22.94,0,0,0-3.79-6.14c-.11-.11-.3-.3-.3-.46,0-.63,2.29-2.11,3-2.11A1.16,1.16,0,0,1,104.1,13.46Z" style="fill:#ed6c00"/><path d="M129.71,12.43c.39.16.52.27.52.46s-.08.19-.22.25a2.58,2.58,0,0,0-1.2,1.61,13.23,13.23,0,0,0-.87,4.06c0,.17,0,.47.24.47s.28-.14.44-.52.3-.66.6-.66,1.53.8,1.53,1.23a1.34,1.34,0,0,1-.11.47c-.63,1.52-1.64,4-1.64,5.57v.68c0,.63-.57.9-1.09,1.09a4.75,4.75,0,0,1-1.61.35c-.85,0-1.09-.62-1.31-1.28a22.74,22.74,0,0,1-.93-6.52,27.8,27.8,0,0,1,.66-6c.16-.71.35-1.45.52-2.18.11-.47.16-.79.41-.79A31,31,0,0,1,129.71,12.43Zm6.5-2a13.47,13.47,0,0,1,2.07-.32c.52,0,.63.19.8.87A38.53,38.53,0,0,1,140,19.3c0,4.7-.79,8.74-4.15,12.26-.52.55-1.66,1.72-2.43,1.72-.44,0-1.23-.74-1.56-1-.68-.62-1.25-1.14-1.25-1.61,0-.16.11-.3.46-.54A10.18,10.18,0,0,0,134.54,26a14.42,14.42,0,0,0,1.15-6.25,34,34,0,0,0-1-8.14,1.84,1.84,0,0,1,0-.41C134.65,10.79,135,10.68,136.21,10.43Z" style="fill:#ed6c00"/><path d="M177.43,15.81a5.61,5.61,0,0,1,1.42,3.82c0,3.33-2.4,5.24-5.32,6.25a9.8,9.8,0,0,1-2.29.55c-.5,0-.77-.46-1.31-1.5a4.79,4.79,0,0,1-.58-1.69c0-.39.25-.5.52-.55,1.75-.27,4.81-1,4.81-3a1.64,1.64,0,0,0-1.75-1.66c-1.91,0-4.67,1.45-6.31,2.43a.84.84,0,0,0-.54.74,1.27,1.27,0,0,0,.24.68c1.45,2.65,3,5.27,4.62,7.81a2,2,0,0,1,.38.81c0,.63-2.73,2.05-3.39,2.05-.3,0-.46-.16-.76-.71-.52-.9-1.09-2.05-1.61-3.06-.79-1.5-1.61-3-2.38-4.5-.19-.35-.38-.71-.84-.71a10.25,10.25,0,0,0-2.46,1.83,1,1,0,0,1-.49.27c-.66,0-2.38-2.78-2.38-3.44,0-.24.14-.32,1.15-.95.41-.28,1-.6,1.69-1.07.33-.22.63-.43.63-.84A13.11,13.11,0,0,0,158.57,16c-.22-.27-.36-.44-.36-.63s.77-.57,1.86-1a22.5,22.5,0,0,1,2.59-.93c.17,0,.36.11.36.28a2.08,2.08,0,0,1-.11.41.54.54,0,0,0,0,.21,15,15,0,0,0,.9,2.35.69.69,0,0,0,.68.41,2.71,2.71,0,0,0,1.12-.46,7,7,0,0,1,.73-.41c.44-.22.61-.3.61-.58s-.82-.6-2.19-1c-.27-.08-.63-.19-.63-.57a6.3,6.3,0,0,1,.63-1.72c.52-1.06.71-1.42,1.09-1.42A23,23,0,0,1,169.13,12c.77.3,1.78.77,1.78,1.2s-.19.66-.19.88a.39.39,0,0,0,.41.35,1.41,1.41,0,0,0,.35-.05,11.77,11.77,0,0,1,1.42-.11C174.29,14.31,176.37,14.66,177.43,15.81Z" style="fill:#ed6c00"/><path d="M207,9.89c.22,0,.63.11.63.3s-.08.16-.19.24a1.17,1.17,0,0,0-.44.82c0,.27-.05.85-.05,1.26,0,.71,0,1.14.84,1.14,2.16,0,4.32-.27,6.47-.27.41,0,.77,0,.77,1.94a11.47,11.47,0,0,1-.17,2.05c-.08.21-.16.32-.41.32s-3.08-.19-3.93-.21-1.83,0-2.75,0a.73.73,0,0,0-.8.82v.65a2.39,2.39,0,0,0,.39,1.5,9,9,0,0,1,.73,3.69c0,4.39-3,9.72-4.42,9.72a7.48,7.48,0,0,1-2.21-.74c-.76-.33-1.39-.63-1.39-1s.35-.57.57-.76c.52-.5,1.83-1.72,1.83-2.16s-.24-.36-.49-.36c-2.51-.05-3.47-2.89-3.47-5,0-2.43,1.12-5,3.77-5.54.19,0,.52-.06.52-.3s-.11-.28-.36-.28-2.29.22-2.73.28c-.65.08-4.47.71-5,.84a3.2,3.2,0,0,1-.49.09c-.44,0-.57-.63-.71-2.27-.08-.9-.11-1.53-.11-1.75,0-.41.14-.46.79-.49,2.49-.11,4.94-.3,7.13-.41.71,0,1.33-.08,1.33-1a21,21,0,0,0-.24-3,.68.68,0,0,1,0-.21.37.37,0,0,1,.41-.41C203.23,9.4,206.34,9.81,207,9.89ZM202.2,23.56c0,.49.1,1.91.84,1.91s.93-1.36.93-1.91-.11-1.77-.9-1.77S202.2,23,202.2,23.56Z" style="fill:#ed6c00"/><path d="M235.53,14.5c.27.06.57.14.57.38s-.08.19-.27.33a1.88,1.88,0,0,0-.52,1.2,19.84,19.84,0,0,0-.36,3.82,12.64,12.64,0,0,0,1,5.24c.22.47.71,1.34,1.31,1.34s1.25-1.12,1.5-1.55.44-.69.84-.69c.82,0,2.84,1.56,2.84,2.21s-1.25,2.11-1.72,2.63c-1,1.06-1.91,2-3.41,2-1.83,0-3.38-1.34-4.39-2.76-2-2.84-2.21-6.82-2.21-10.18,0-.52.1-3.82.13-4.2a.42.42,0,0,1,.47-.44C231.65,13.79,234.84,14.36,235.53,14.5Zm10-.87c.74,0,2.89,1.69,4.09,3.63a14.77,14.77,0,0,1,2,5.59,14.11,14.11,0,0,1,.14,1.42c0,.58-.14.82-.68,1a9.67,9.67,0,0,1-2.6.46c-1,0-1-.35-1.11-1.39-.25-3.28-1.4-5.87-4-7.73a.55.55,0,0,1-.27-.46C243.12,15.51,244.7,13.63,245.52,13.63Z" style="fill:#ed6c00"/><path d="M272.52,13.63c1,0,1.69-.06,2.16-.06.68,0,.84.14.84.77V15.7c0,.74-.16.88-.87.88-.44,0-1.12-.06-2.13-.06h-2.87c-1,0-1.69.06-2.15.06-.82,0-.85-.14-.85-1.51v-.46c0-.71.06-1,.71-1s1.53.06,2.29.06Zm-5.3,14.77c0-.74-.05-1.45-.05-2.11,0-1.2.54-1.55,1.66-1.55.69,0,1.37.05,2,.05h.58c.68,0,1.34-.05,2-.05,1.15,0,1.72.35,1.72,1.58,0,.68-.05,1.37-.05,2.08v2.07c0,.85.05,1.69.05,2.54,0,.65-.3.71-1.09.71h-.74c-1.23,0-1.5,0-1.53-.74,0-.33-.24-.44-.54-.44-.49,0-.52.36-.55.61-.05.51-.33.57-1.06.57h-1.4c-.79,0-1.09-.06-1.09-.71s.08-1.69.08-2.54Zm4.84-18.54c.68,0,1.36,0,2,0s.66.32.66,1v1c0,.68-.06,1-.63,1s-1.39,0-2.07,0h-1.7c-.68,0-1.33,0-2,0s-.68-.3-.68-1v-1c0-.65,0-1,.63-1s1.39,0,2.07,0Zm-.28,7.48c1,0,1.67-.06,2.1-.06.71,0,.91.14.91.85v1.26c0,.76-.17.9-.85.9-.46,0-1.12-.06-2.16-.06h-1.12c-1,0-1.69.06-2.13.06-.84,0-.84-.17-.84-1.5v-.5c0-.68.05-1,.68-1s1.34.06,2.29.06Zm0,3.77c.76,0,1.55-.06,2.32-.06s.76.27.76.88V23.1c0,.6-.13.85-.76.85-.79,0-1.56-.06-2.32-.06h-1c-.79,0-1.58.06-2.37.06s-.71-.33-.71-1V22.5c0-1.18,0-1.45.73-1.45s1.56.06,2.35.06Zm-1.09,8.08a.53.53,0,0,0,.52.54h.19a.53.53,0,0,0,.51-.54V28.4a.51.51,0,0,0-.51-.52h-.19a.51.51,0,0,0-.52.52ZM278.83,20c-.88,0-1.78.06-2.65.06-.55,0-.63-.22-.63-.8v-1c0-.52.08-.74.6-.74s1.17,0,1.77,0c.22,0,.44,0,.44-.41s-.22-.44-.54-.44h-.44c-.66,0-.77-.24-.77-.76V15c0-.49.14-.73.77-.73l.44,0c.27,0,.51-.08.51-.43a.36.36,0,0,0-.38-.41l-1.34,0c-.49,0-.6-.22-.6-.74V11.63c0-.49.09-.71.58-.71.33,0,.62,0,1,0a.73.73,0,0,0,.77-.74c0-.16,0-.4,0-.62s.22-.39.49-.39c.44,0,2.27.14,2.79.2s1.14,0,1.14.38c0,.16-.11.24-.22.35a.83.83,0,0,0-.35.55.31.31,0,0,0,.33.3h1.14a.72.72,0,0,0,.77-.79,1.89,1.89,0,0,0,0-.41c0-.06,0-.17,0-.25,0-.3.27-.33.55-.33s2.51.17,3,.22,1,.06,1,.39c0,.16-.08.21-.19.3s-.38.32-.38.57.19.3.38.3c.49,0,1-.06,1.5-.06s.57.25.57,1.21v.49c0,.6-.05.82-.6.82s-.95,0-1.44,0c-.28,0-.47.08-.47.41a.41.41,0,0,0,.41.43l.85,0c.63,0,.76.24.76.73v1c0,.55-.08.79-.73.79h-.82a.41.41,0,0,0-.47.47c0,.38.25.4.44.4.63,0,1.26,0,1.88,0s.58.22.58.79v1c0,.55-.06.8-.58.8-.9,0-1.8-.06-2.67-.06h-2.6a.34.34,0,0,0-.32.36v.11c0,.32.32.38.57.38.74,0,1.47-.06,2.21-.06s1.69.06,1.69,1.15c0,.68-.05,1.58-.05,2.57v1.88a.8.8,0,0,0,.85.82c.11,0,.21,0,.3,0,.54,0,.6.25.6.79v.47c0,1.17,0,1.31-.6,1.31h-.11c-.49,0-1,.05-1,.9V31c0,2.78-2.27,3-4.48,3-.65,0-1-.08-1.17-.76a6.18,6.18,0,0,1-.22-1.42c0-.58.08-1.15.79-1.15l1.06,0c.36,0,.5-.11.5-.49a.44.44,0,0,0-.47-.44h-4c-.69,0-.74.63-.74,1.23,0,.76.05,1.53.05,2.29s-.27.74-1.06.74h-1.45c-.76,0-1.06-.06-1.06-.71,0-1,.05-2.05.05-3.06,0-.33-.24-.46-.54-.46h-.52c-.47,0-.58-.22-.58-.71V27.93c0-.52.11-.71.63-.71.17,0,.33,0,.52,0a.43.43,0,0,0,.49-.44V24.55c0-.88-.05-1.78-.05-2.57,0-1.06.84-1.15,1.69-1.15s1.45.06,2.08.06c.24,0,.49-.11.49-.38V20.4a.35.35,0,0,0-.36-.36Zm2.7,4.15a.38.38,0,0,0,.35-.35v-.09a.35.35,0,0,0-.35-.35h-.47a.35.35,0,0,0-.35.35v.09a.35.35,0,0,0,.35.35Zm-.47,2.21a.36.36,0,0,0-.35.36v.16a.36.36,0,0,0,.35.36h.47a.36.36,0,0,0,.35-.36v-.16a.39.39,0,0,0-.35-.36Zm1.37-13a.34.34,0,0,0-.36.33v.19a.36.36,0,0,0,.36.35h1.64a.35.35,0,0,0,.35-.35v-.19a.33.33,0,0,0-.35-.33Zm0,3.27a.35.35,0,0,0-.36.36v.19a.36.36,0,0,0,.36.35h1.64a.35.35,0,0,0,.35-.35V17a.34.34,0,0,0-.35-.36Zm3.14,7.51a.35.35,0,0,0,.35-.35v-.09a.35.35,0,0,0-.35-.35h-.49a.36.36,0,0,0-.36.35v.09a.39.39,0,0,0,.36.35Zm-.49,2.21a.4.4,0,0,0-.36.36v.16a.37.37,0,0,0,.36.36h.49a.36.36,0,0,0,.35-.36v-.16a.36.36,0,0,0-.35-.36Z" style="fill:#ed6c00"/><path d="M318.55,22.25c0,.3.38.33.62.33h3.53c1.06,0,2.1-.08,2.7-.08,1.17,0,1.36.54,1.36,1.66,0,.55-.05,1.23-.05,2.08v4.5c0,.79.05,1.56.05,2.35s-.22.76-1.25.76h-1.89c-.68,0-.9-.05-.95-.7a.58.58,0,0,0-.68-.55H312c-.52,0-.69.22-.69.71s-.35.49-1.25.49h-2c-.52,0-.84,0-.84-.76s.05-1.56.05-2.35V26.24c0-.79-.05-1.58-.05-2.38s.41-1.36,1.33-1.36c.63,0,1.67.08,2.73.08h2a1.15,1.15,0,0,0,1-.38,3.07,3.07,0,0,0,.33-.82.23.23,0,0,0-.22-.25c-.05,0-.19.06-.24.06a15.47,15.47,0,0,1-2.76.27c-1.07,0-1.23-.44-1.45-1.55-.05-.25-.19-.52-.49-.52s-2.05.6-2.46.73-.38.19-.51.58a.37.37,0,0,1-.36.19c-.35,0-.55-.49-.9-1.39-.14-.36-.3-.8-.52-1.26a1.43,1.43,0,0,1-.19-.57c0-.28.27-.33,1.64-.69.43-.1,1-.21,1.69-.4.16-.06.38-.11.38-.33s-.27-.28-.57-.41a14.13,14.13,0,0,0-1.45-.58c-.3-.1-.71-.19-.71-.57a4.21,4.21,0,0,1,.47-1.25.55.55,0,0,0,.11-.3.32.32,0,0,0-.36-.33c-.27,0-.41-.25-.41-.79V10.6c0-.71.06-.93.68-.93,1.12,0,2.22.05,3.34.05h2.92c.84,0,1.72-.05,2.56-.05s1.53.16,1.53,1.23c0,.76-.05,1.53-.05,2.32v2.24c0,.87.05,1.72.05,2.56a8.85,8.85,0,0,1-.11,1.45v.08c0,.44.38.49.77.57l.21.06a.82.82,0,0,0,.22.05.26.26,0,0,0,.27-.24s-.49-1.15-.76-1.78c-.08-.19-.14-.32-.16-.38a.62.62,0,0,1-.11-.33c0-.24.38-.3.87-.38s1.58-.35,2.19-.52c.24-.05.4-.11.4-.33s-1.5-.79-1.82-.9-.66-.19-.66-.51a5.35,5.35,0,0,1,.49-1.37.5.5,0,0,0,.08-.3c0-.3-.3-.3-.41-.3-.4-.05-.46-.35-.46-.93V10.68c0-.71.06-.93.68-.93,1.12,0,2.21.06,3.33.06h3c.87,0,1.72-.06,2.59-.06s1.5.16,1.5,1.2c0,.79-.05,1.56-.05,2.32v2.19c0,.92.08,1.85.08,2.78,0,1.39-.44,2.46-1.86,2.87a12.55,12.55,0,0,1-3.19.38c-.55,0-1,0-1.23-1.56-.05-.35-.19-.6-.54-.6-.14,0-2.05.66-2.35.74s-.44.11-.44.33.19.24.3.27.6.16.6.38-.27.33-.46.38-.41.11-.57.39A1,1,0,0,0,318.55,22.25Zm-5.95-8.71a.77.77,0,0,0-.77-.76h-2.67c-.2,0-.36,0-.36.16s.08.17.22.22c.52.19,1.75.77,1.75,1.23a2.42,2.42,0,0,1-.28.82.56.56,0,0,0-.08.25.25.25,0,0,0,.25.24s0,0,.16,0a1.76,1.76,0,0,1,.41-.11c.36,0,.36,1.58.36,1.88v.19a.32.32,0,0,0,.3.36c.62,0,.71-.36.71-1Zm9.8,12.78a.33.33,0,0,0,.32-.35v-.14a.34.34,0,0,0-.32-.36H311.64a.34.34,0,0,0-.35.36V26a.35.35,0,0,0,.35.35Zm-10.76,2.57a.34.34,0,0,0-.35.35v.19a.32.32,0,0,0,.35.33H322.4a.31.31,0,0,0,.32-.33v-.19a.34.34,0,0,0-.32-.35ZM324.72,13.6a.78.78,0,0,0-.77-.76H321.3c-.11,0-.3,0-.3.16s.22.22.33.27c.38.17,1.5.66,1.5,1.12a2.2,2.2,0,0,1-.27.82.62.62,0,0,0-.11.33.22.22,0,0,0,.25.22.36.36,0,0,0,.16,0,1.68,1.68,0,0,1,.52-.14c.35,0,.38,1.48.38,1.75v.33a.3.3,0,0,0,.3.3c.66,0,.66-.44.66-.88Z" style="fill:#ed6c00"/><path d="M16.52,24.43c0,2.42.13,7.65.13,8,0,1-.27,1.13-1.32,1.13H10.06c-1.05,0-1.32-.18-1.32-1.13,0-.32.13-5.55.13-8V9.87c0-.82-.13-1.13-.54-1.13a2,2,0,0,0-.73.18C6.05,9.46,4.69,10,3.46,10.56a2.1,2.1,0,0,1-.87.27c-.41,0-.59-.32-.82-1L.18,5.32A2.53,2.53,0,0,1,0,4.46c0-.41.27-.59,1.05-.82A82.22,82.22,0,0,0,9.65.55,6,6,0,0,1,12.33,0h3c1,0,1.32.18,1.32,1.14,0,.32-.13,5.55-.13,8Z" style="fill:#ed6c00"/></g></g></svg>