<?xml version="1.0" encoding="UTF-8"?>
<svg id="_レイヤー_1" xmlns="http://www.w3.org/2000/svg" version="1.1" viewBox="0 0 264.8 28.5">
  <!-- Generator: Adobe Illustrator 29.5.1, SVG Export Plug-In . SVG Version: 2.1.0 Build 141)  -->
  <defs>
    <style>
      .st0 {
        fill: #3b241a;
      }
    </style>
  </defs>
  <path class="st0" d="M5.6,27H1.6v-12.1h4.1v7.6h6.3v-9H2.9V3.6h4v6.9h5.2V1.9h4v8.6h5.4V3.5h4v10.1h-9.4v9h6.9v-7.7h4.1v12.2h-4.1v-1.3H5.6v1.3Z"/>
  <path class="st0" d="M41.6,11.2h-5.3l-.2,2.8h5.5v1.2c0,2.5,0,4.7-.2,6.4-.1,1.7-.3,2.9-.5,3.4-.2.6-.6,1.1-1.3,1.5-.6.4-1.4.7-2.3.7h-3.4l-.6-3.3h2.9c.4,0,.7,0,.9-.2.2-.1.4-.4.5-.6s.2-1,.2-2c0-1.1.1-2.4.2-4.1h-2.2v1.4h-3.6l.7-10h5.1v-3.1h-5.6v-2.9h9.2v8.8ZM52.8,25c-1.8.5-5.4,1-10.8,1.7l-.5-3.3c.6,0,1.4,0,2.3-.2v-7h-1.6v-2.9h1.6V2.1h14.5v2.8h-10.7v1.4h9.9v2h-9.9v1.4h9.9v2.1h-9.9v1.5h11.5v2.9h-6c.2.7.6,1.5,1.1,2.3,1-.7,1.9-1.4,2.7-2.1l2.5,2.2c-.8.7-1.9,1.4-3.4,2.4.7.8,2,1.8,3.6,3.1l-2.6,2.8c-1.6-1.2-3-2.6-4.2-4.1v2.2ZM47.6,22.8c2-.3,3.5-.5,4.7-.7-1.3-1.8-2.2-3.7-2.7-5.8h-2v6.5Z"/>
  <path class="st0" d="M73.4,8.7h-9v-2.8h9v2.8ZM72.8,26.1h-5v1h-3v-9.6h8v8.5ZM72.8,4.7h-7.5v-2.5h7.5v2.5ZM72.6,12.4h-7.4v-2.4h7.4v2.4ZM72.6,16.2h-7.4v-2.4h7.4v2.4ZM69.9,23.6v-3.5h-1.9v3.5h1.9ZM90.9,22.5h-1.2v2c0,.7-.3,1.3-.8,1.8s-1.2.7-1.9.7h-3.4l-.4-3h2.1c.5,0,.8-.2.8-.7v-.7h-7.4v4.6h-3.8v-4.6h-1.2v-2.3h1.2v-6.8h5.8v-1.2h-6.9v-2.2h3.3v-1.3h-2.3v-2.1h2.3v-1.3h-2.8v-2.2h2.8v-1.5h3.7v1.5h3.1v-1.5h3.7v1.5h2.8v2.2h-2.8v1.3h2.1v2.1h-2.1v1.3h3.1v2.2h-6.7v1.2h5.8v6.8h1.2v2.3ZM80.7,15.6h-2.1v1.4h2.1v-1.4ZM78.7,20.3h2.1v-1.5h-2.1v1.5ZM80.7,5.4v1.3h3.1v-1.3h-3.1ZM80.7,10.1h3.1v-1.3h-3.1v1.3ZM86,16.9v-1.4h-2.2v1.4h2.2ZM83.8,20.3h2.2v-1.5h-2.2v1.5Z"/>
  <path class="st0" d="M104.2,9.7c-.5.3-1.6.8-3.4,1.4-1.8.6-3.3,1.1-4.5,1.4l-.8-2.7c1.2-.3,2.7-.7,4.4-1.2s3-1,3.9-1.4l.5,2.5ZM102,6.8l-2.3,1.8-3-2.8,1.2-.9h-2.1v-2.5h12.1v9c0,.7-.3,1.3-.9,1.7-.6.4-1.2.6-1.9.6h-3.1l-.5-2.8h2.4c.4,0,.6-.2.6-.6v-5.5h-4.5l2.1,1.8ZM115.6,25.6h-14.2v.9h-3.9v-11.7h9c.5-1,.9-1.7,1.1-2.2l3.6.6-1,1.6h9.3v11.7h-3.9v-.9ZM115.6,19v-1.6h-14.2v1.6h14.2ZM101.4,22.9h14.2v-1.7h-14.2v1.7ZM117.2,9.8c-.5.3-1.6.8-3.4,1.4-1.8.6-3.3,1.1-4.5,1.4l-.8-2.7c1.2-.2,2.6-.6,4.3-1.2,1.7-.5,3-1,3.9-1.4l.5,2.5ZM115.1,6.8l-2.3,1.8-3-2.8,1.2-.9h-2.2v-2.5h12.4v8.9c0,.7-.3,1.3-.8,1.8-.6.4-1.2.7-2,.7h-3.3l-.5-2.8h2.4c.4,0,.6-.2.6-.6v-5.5h-4.6l2.1,1.8Z"/>
  <path class="st0" d="M152.8,21.4c-1.2,1.5-2.9,2.8-5.1,3.9-2.2,1.1-4.7,1.8-7.3,2.1l-1.2-3.2c2.7-.5,4.8-1.1,6.3-1.8,1.5-.7,2.7-1.5,3.6-2.3h-9.1v-3h10.7v-1.5h-8.7v-2.9h8.7v-1.6h-8.8v-1.8h-1.9V3.6h10.6V1.4h4v2.2h11v5.6h-2v1.8h-8.9v1.6h9.8v2.9h-9.8v1.5h11.3v3h-9.8c1.2,1,2.5,1.8,4,2.3,1.4.6,3.5,1,6.4,1.4l-1.6,3.4c-2.4-.2-4.7-.9-6.9-1.9s-4-2.4-5.3-3.9ZM150.7,8.3v-1.1h4.1v1.1h7.6v-2h-19.2v2h7.4Z"/>
  <path class="st0" d="M175.5,17.4c-.1,1.3-.3,2.8-.7,4.5-.3,1.7-.6,3-1,3.8l-2.5-.6c.8-3,1.2-5.6,1.3-7.9l2.8.2ZM179.4,27.4h-3.4v-11.3c-1.7.2-3,.3-4,.3l-.4-2.8c.5,0,1.2,0,2,0,.5-.6,1-1.4,1.7-2.3-1.3-1.5-2.6-3-3.8-4.3l1.9-2.1.4.5c1-1.5,1.7-2.9,2.3-4.2l2.9,1.2c-.9,1.8-2,3.5-3.3,5.2l1.2,1.4c1.3-1.9,2.1-3.5,2.7-4.6l2.9,1.4c-1.4,2.5-3.2,5.1-5.4,7.9,1,0,1.9-.1,2.7-.2-.3-1-.6-1.7-.7-2l2.5-.8c.5,1.3,1,3.1,1.7,5.4l-2.6.7c0-.2,0-.5-.2-1-.3,0-.8.1-1.3.2v11.7ZM183.4,22.8l-2.7.5c-.2-1.6-.5-3.6-.8-5.9l2.6-.4.9,5.8ZM189.9,24.6c-.7.5-1.8,1-3.2,1.5-1.4.5-2.7.9-3.8,1.1l-1-2.7c2.1-.4,3.9-1,5.3-1.7h-3.3v-10.6h14.2v10.6h-3.2c1.4.6,3,1.1,4.9,1.6l-1.4,2.8c-2.7-.7-4.9-1.6-6.6-2.6l1.2-1.8h-4.3l1.2,1.8ZM199.1,11.2h-16.2v-2.3h6.2v-.9h-5.2v-1.9h5.2v-1h-5.7v-2.2h5.7v-1.3h3.8v1.3h5.9v2.2h-5.9v1h5.1v1.9h-5.1v.9h6.3v2.3ZM194.4,15.4v-1.2h-7.1v1.2h7.1ZM187.3,18.1h7.1v-1.2h-7.1v1.2ZM194.4,19.6h-7.1v1.3h7.1v-1.3Z"/>
  <path class="st0" d="M208.2,17.3c-.1,1.3-.3,2.8-.7,4.6-.3,1.7-.7,3-1,3.8l-2.6-.6c.8-3.2,1.3-5.9,1.4-7.9l2.9.2ZM212.2,27.3h-3.5v-11.1c-1.9.2-3.3.3-4.2.3l-.3-3c.5,0,1.2,0,2.1,0,.6-.8,1.2-1.5,1.7-2.3-1.3-1.4-2.6-2.9-4-4.3l2.1-2.3.5.5c.9-1.5,1.7-2.8,2.3-4.1l3.1,1.2c-1,1.8-2.1,3.5-3.4,5.1l1.2,1.3c1.2-1.9,2.1-3.4,2.7-4.5l3,1.4c-1.7,2.7-3.5,5.3-5.6,7.9,1,0,1.9-.1,2.8-.2-.4-1.1-.6-1.8-.7-2.1l2.7-.8c.5,1.3,1.1,3.2,1.8,5.6l-2.8.7c0-.2,0-.5-.2-.9l-1.3.2v11.5ZM216.2,23.1l-2.7.4c-.5-2.6-.8-4.6-.9-6l2.7-.4.9,6ZM223.3,5.2c-.1,4.3-2,7.6-5.5,9.9l-2.1-2.4c2.6-1.8,3.9-4.3,4-7.4h-3.4v-3h14.2c0,2.6,0,4.4,0,5.2s-.1,1.7-.3,2.7c-.2,1-.4,1.8-.8,2.5-.3.7-.8,1.1-1.3,1.4-.5.3-1.1.4-1.7.5-.6,0-1.7,0-3.3,0l-.5-3.3h2.3c.4,0,.8-.1,1.1-.3s.5-.9.7-1.9c.1-1,.2-2.3.2-3.7h-3.7ZM226.5,25.7h-6.1v1.3h-3.6v-11.3h13.3v11.3h-3.7v-1.3ZM220.4,22.8h6.1v-4h-6.1v4Z"/>
  <path class="st0" d="M246.4,15.5c0,5.1-2,9.1-6,11.8l-2.5-2.6c1.7-1.4,2.9-2.8,3.5-4.3.6-1.5.9-3.1.9-4.9v-4c-1.8,1.1-3.4,2-4.9,2.6l-1.9-3.1c1.9-.7,4.2-2,6.7-3.9,2.5-1.9,4.3-3.7,5.4-5.5h3.7c1.4,1.7,3.1,3.4,5.4,5,2.2,1.6,4.7,2.9,7.5,4l-2.2,3.4c-1.4-.6-2.9-1.3-4.5-2.4v15.2h-4.1V9.9h1.4c-2-1.5-3.7-3-5.1-4.5-1.3,1.6-3,3.2-5.2,4.8h1.9v5.4Z"/>
</svg>