<svg xmlns="http://www.w3.org/2000/svg" viewBox="0 0 314.85 80.52"><defs><style>.cls-1{fill:#3b241a;}.cls-2{fill:#ed6c00;}</style></defs><g id="レイヤー_2" data-name="レイヤー 2"><g id="contents"><path class="cls-1" d="M4.71.69c.12,0,2.43.57,2.76.66.78.18,1.59.33,1.59.72s-.36.42-.48.42A.92.92,0,0,0,7.92,3c0,.09-.12.24-.21.42a10.31,10.31,0,0,0-1,2.13c0,.33.33.42.6.42C8,6,9,6,9,5.46a2.05,2.05,0,0,0-.33-.9,1.18,1.18,0,0,1-.18-.45c0-.6,2.46-1.29,2.79-1.29s.42.21.57.39c.27.39,1.2,2.07,1.44,2.55A18,18,0,0,1,14.55,9c0,.78-2.34,1.56-2.94,1.56-.36,0-.39-.21-.57-.63s-.33-.57-.78-.57c-1.23.12-4.83.48-7.89.75a.74.74,0,0,0-.42.39c-.12.21-.24.36-.51.36S.93,10.41.54,9A17.85,17.85,0,0,1,0,6.78c0-.42.36-.42,1-.45.15,0,.3,0,.48,0,.78,0,1.05-.3,1.32-1,.6-1.41,1.08-2.79,1.56-4.23C4.44.84,4.5.69,4.71.69Zm.36,24c0,1.05.06,1.95.06,2.64s-.27.63-1.11.63H2.16c-.75,0-1-.06-1-.6,0-.72.06-1.71.06-2.67V14.79c0-.87-.06-1.74-.06-2.52,0-1.11.66-1.29,1.62-1.29S4.47,11,5.31,11H8.7c.81,0,1.59-.06,2.4-.06,1,0,1.8.06,1.8,1.29,0,.78-.06,1.65-.06,2.52v8.34c0,4.17,0,4.77-4.77,4.77-1.26,0-1.83-.3-1.83-2.64v-.18c0-.54.06-1,.75-1a3.09,3.09,0,0,1,.51,0,3,3,0,0,0,.72.09c.51,0,.72-.15.72-.69,0-.24-.12-.39-.36-.39H5.91a.78.78,0,0,0-.84.81Zm0-9.63a.47.47,0,0,0,.48.48H8.43A.47.47,0,0,0,8.91,15v-.09a.47.47,0,0,0-.48-.48H5.55a.47.47,0,0,0-.48.48Zm0,4.32a.58.58,0,0,0,.57.6h2.7a.58.58,0,0,0,.57-.6v-.09a.55.55,0,0,0-.57-.57H5.64a.58.58,0,0,0-.57.6ZM20.28,21c-.6.18-1.38.39-1.38,1.17v.3c0,.78,0,1.2.93,1.2h1.92c.84,0,1.44-.12,1.68-2.13.06-.63.06-1,.84-1a4.55,4.55,0,0,1,2,.66c.51.27,1,.57,1,1.2a12.13,12.13,0,0,1-1.17,3.93c-.63,1.08-1.92,1.26-3.09,1.26H17.4c-1.83,0-2.82-.81-2.82-2.7,0-.87,0-1.71,0-2.58V17.13c0-1-.09-1.68-.09-1.95s.24-.42.57-.42c.51,0,3.36.21,4,.27.33,0,.72.12.72.54s-.24.36-.51.51-.33.45-.33.78.06.69.45.69c.72,0,3.24-1.59,3.84-2.1.12-.12.33-.33.51-.33s.51.3,1.08.93c.21.27.51.6.84,1s1.26,1.26,1.26,1.59c0,.12-.09.36-.48.36a.88.88,0,0,1-.48-.12c-.06,0-.09,0-.15,0a1,1,0,0,0-.42.15A31.06,31.06,0,0,1,20.28,21ZM19.65,7.41c-.39.12-.69.3-.69.75V8.4c0,.78,0,1.23.93,1.23h2c.93,0,1.26-.3,1.44-1a8.59,8.59,0,0,0,.21-1.23c.06-.48.15-.78.87-.78a4.74,4.74,0,0,1,2,.48,1.32,1.32,0,0,1,.9,1.32,8.59,8.59,0,0,1-1.29,3.9c-.72,1.17-1.71,1.32-3,1.32H18.48c-2.61,0-3.84-.18-3.84-2.94,0-.84,0-1.68,0-2.52V5.07c0-1.44-.09-3.09-.09-3.39s.21-.45.54-.45,3.51.21,4,.27c.27.06.63.18.63.54s-.24.36-.45.45S19,3,19,3.24s.12.57.48.57a12.38,12.38,0,0,0,3.84-2.25c.12-.09.36-.3.51-.3s.66.48,1.14,1.05a8.24,8.24,0,0,0,.66.78,2.71,2.71,0,0,0,.3.33c.42.45,1,1.14,1,1.38a.43.43,0,0,1-.45.39,1.07,1.07,0,0,1-.3-.06A2.1,2.1,0,0,0,25.77,5a.71.71,0,0,0-.39.15A47.17,47.17,0,0,1,19.65,7.41Z"/><path class="cls-1" d="M54.12,19.32c0,1.62.15,1.86,2,1.86a61.1,61.1,0,0,0,7.77-.54,3.31,3.31,0,0,1,.54-.06c.69,0,.75,1.11.75,2v.93c0,.69-.06,1.29-.6,1.59a1.85,1.85,0,0,1-.69.21c-1,0-5.34.27-5.94.27-1.32,0-2.64,0-4-.06a5.34,5.34,0,0,1-3.48-1.2c-.93-1-1-2.88-1-4.47v-4a.71.71,0,0,0-.72-.72l-.27.06-.45.09c-.57.12-4.11.87-4.35.87-.57,0-.66-.48-.78-1.08a25.21,25.21,0,0,1-.48-2.82c0-.54.66-.66,2.46-1,.63-.09,1.41-.24,2.37-.42l1.47-.27a.93.93,0,0,0,.75-.93V7.53c0-1.11,0-2.22-.06-3.33,0-.45-.09-1-.09-1.47,0-.27.06-.39.36-.39l4.38.48c.24,0,.69.12.69.42,0,.12-.06.18-.18.33a1.48,1.48,0,0,0-.45,1.29V8.64a.67.67,0,0,0,.66.66l.45-.06,5-1c1-.21,2.07-.42,3.09-.72a1.88,1.88,0,0,1,.57-.09c.75,0,3,2.25,3,3,0,.27-.21.45-.39.63s-1,1.29-1.35,1.68c-1.44,1.77-2.94,3.51-4.47,5.19-.3.36-.72.84-1.23.84s-3.18-1.65-3.18-2.49c0-.27.78-.93,1-1.14s2-1.77,2-2c0-.09-.09-.18-.24-.18a3.69,3.69,0,0,0-.75.15l-3.36.69a1,1,0,0,0-.78.93Z"/><path class="cls-1" d="M107.13,9.9c.06.09.09.21.18.33a4.77,4.77,0,0,1,.51,1.41c0,.72-2.43,3-3.06,3.63C99.93,20,95.1,22.68,89.1,25.56a1.3,1.3,0,0,0-.81.78.26.26,0,0,1-.24.18c-.24,0-.42-.27-.54-.48a26.42,26.42,0,0,1-1.41-2.31,7.59,7.59,0,0,1-.87-1.8c0-.27.33-.42.57-.48a31.59,31.59,0,0,0,7.68-3.3,40.18,40.18,0,0,0,10.83-9.39c.06-.09.12-.15.18-.24.27-.39.51-.72.84-.72C105.93,7.8,106.86,9.42,107.13,9.9ZM89.07,3.78a34.26,34.26,0,0,1,5.28,3.78.64.64,0,0,1,.27.54c0,.87-2.13,3.3-2.82,3.3a1.31,1.31,0,0,1-.75-.45,30.9,30.9,0,0,0-5-3.51c-.24-.15-.54-.33-.54-.63,0-.6,1.8-3.45,2.67-3.45A3,3,0,0,1,89.07,3.78Z"/><path class="cls-1" d="M131.85,3.12c0-.3.06-.57.42-.57s3.69.81,4.26,1c.24.06.78.18.78.48s-.21.3-.48.42c-.48.24-.6,1-.72,1.89l-.06.42c0,.18-.09.51-.09.6,0,.69.63.72,1,.72a5.25,5.25,0,0,1,2.49.66c2.13,1.23,2.52,3,2.52,5.13,0,2.64-.57,7-1.89,9.33a6.73,6.73,0,0,1-6.33,3.36c-.87,0-1.29-.12-1.56-.84a11.91,11.91,0,0,1-.66-3c0-.39.12-.72.57-.72s.84,0,1.26,0c1.77,0,2.25-.12,2.85-1.26A17.38,17.38,0,0,0,137.58,14c0-1.38-.21-1.83-1.38-1.83-1,0-1.26.12-1.53,1.11a39.77,39.77,0,0,1-4.62,10,19.66,19.66,0,0,1-2.13,2.91.66.66,0,0,1-.51.21c-.69,0-3.54-1.59-3.54-2.55,0-.3.27-.6.75-1.08a23.43,23.43,0,0,0,5.22-8.25A1.65,1.65,0,0,0,130,14a.42.42,0,0,0-.48-.45,19.43,19.43,0,0,0-2.55.84,1.44,1.44,0,0,1-.6.21c-.48,0-.84-1.17-1.11-2.34a16.28,16.28,0,0,1-.39-2.07c0-.39.21-.48,1.11-.57a32.55,32.55,0,0,0,4.59-.75c.78-.15,1-.39,1.05-1.2a37.87,37.87,0,0,0,.24-4.14Zm12.21,3a22.08,22.08,0,0,1,2.43,3c.45.63,2.46,3.57,2.46,4.14,0,1-2.73,2.55-3.57,2.55-.33,0-.48-.27-.75-.81a25.36,25.36,0,0,0-4.17-6.72,1,1,0,0,1-.33-.54c0-.63,2.31-2.16,3-2.16A1.37,1.37,0,0,1,144.06,6.09ZM147,3.63c.78.78,1.38,1.44,1.38,1.71,0,.6-1.41,1.71-1.77,1.71-.12,0-.3-.18-.45-.36A31.66,31.66,0,0,0,144,4.35c-.18-.15-.33-.3-.33-.45,0-.42,1.5-1.56,1.86-1.56C145.74,2.34,146.46,3.09,147,3.63Zm2.19-3c.42.39,2.16,2,2.16,2.43,0,.6-1.44,1.74-1.77,1.74s-.36-.24-.45-.39a31.7,31.7,0,0,0-2.19-2.31c-.12-.12-.33-.3-.33-.48,0-.42,1.53-1.53,1.86-1.53S149.1.51,149.19.6Z"/><path class="cls-1" d="M167.67,27.45c0,.15-.18.39-.39.39-.36,0-.51-.45-1.05-1.83-.15-.39-.33-.87-.57-1.44a3.91,3.91,0,0,1-.33-1.11.77.77,0,0,1,.54-.75,4.89,4.89,0,0,0,.57-.27c1.14-.66,1.65-.84,1.65-2V16.65a.83.83,0,0,0-.87-.87c-.18,0-.51.06-.78.06-.69,0-.75-.36-.75-1.17V13.08c0-.81.06-1.23.69-1.23.45,0,1.17.09,1.74.09h.39c.66,0,1.32-.06,2-.06,1,0,1.62.33,1.62,1.41,0,.84-.06,1.71-.06,2.64v3.54c0,2.58,1.44,3.54,1.83,3.54a.11.11,0,0,0,.12-.12.54.54,0,0,0-.18-.3,4.83,4.83,0,0,1-.72-1.41c0-.3.36-.33.57-.36.57-.09,4.11-.9,4.11-1.32,0-.15-.27-.18-.36-.18h-.9c-1,0-2,.06-3,.06-.57,0-.63-.33-.63-1V17.37c0-.63.06-1,.63-1,1,0,2,.06,3,.06H177a.35.35,0,0,0,.36-.36v-.24c0-.27-.24-.33-.45-.33-.72,0-1.44.06-2.16.06-.57,0-.63-.33-.63-1v-.75c0-1,0-1.29.69-1.29s1.41.06,2.1.06c.27,0,.39-.09.39-.36,0-.87-.18-.9-.81-.93-1.47-.06-2.79-.18-2.79-2,0-.09.06-1.08.06-1.29v-.6c0-.63-.06-1-.06-1.41,0-.87.51-1,1.05-1l1.8,0h.66a.37.37,0,0,0,.39-.36V4.62a.4.4,0,0,0-.39-.39h-.45c-.84,0-1.68.06-2.52.06s-.81-.18-.81-.93v-1c0-.72.06-.87.78-.87.87,0,1.71,0,2.55,0h1.5c.66,0,1.29,0,1.92,0s1.08.3,1.08,1.14c0,.48-.06,1-.06,1.71V5.1c0,1.8.18,1.77.81,2,.45.12.72.3.72.81A5,5,0,0,1,181.38,11c-.06.06-.15.15-.15.21s.18.18.3.21.48.12.48.39-.12.27-.24.39a.38.38,0,0,0-.12.27.21.21,0,0,0,.21.21h1.26c.39,0,.48-.21.48-.54a1.46,1.46,0,0,0,0-.36c0-.06,0-.18,0-.27a.71.71,0,0,1,.06-.24.89.89,0,0,0,.06-.3,1.09,1.09,0,0,0-.21-.51,2.53,2.53,0,0,1-.21-1.05c0-.12,0-1,0-1.14V7.47c0-.63,0-1,0-1.41,0-.87.48-1,1-1l1.8,0h1.14a.35.35,0,0,0,.36-.36V4.62a.37.37,0,0,0-.36-.39h-1c-.84,0-1.68.06-2.52.06s-.81-.18-.81-.87v-1c0-.72.06-.87.78-.87s1.68,0,2.55,0h2c.63,0,1.26,0,1.89,0s1.08.3,1.08,1.14c0,.48,0,1,0,1.71V5.1c0,.54.06,1,.06,1.47s.12.54.48.63.75.27.75.75-.45,2.85-1.74,3.21a8,8,0,0,1-2.19.21.22.22,0,0,0-.24.24c0,.06,0,.12,0,.18s-.15.27-.24.36a.37.37,0,0,0-.18.3c0,.15.18.18.3.18.78,0,1.56-.06,2.34-.06s.69.33.69,1.17v.84c0,.69,0,1-.69,1s-1.56-.06-2.34-.06c-.21,0-.51.06-.51.33v.21a.4.4,0,0,0,.39.39h.69c1,0,2-.06,2.94-.06.6,0,.66.27.66,1v1.08c0,.63-.06.93-.63.93-1,0-2-.06-3-.06h-1.08c-.12,0-.36,0-.36.18,0,.51,3.9,1.2,4.5,1.29s.66.06.66.42a4.06,4.06,0,0,1-.6,1.65.74.74,0,0,0-.12.33c0,.18.15.24.3.3.48.12.54.54.54,1a4.23,4.23,0,0,1-.69,2.49,1.71,1.71,0,0,1-1,.48c-.78.06-3.12.09-4.08.09h-7.11c-2.49,0-5.58-.09-7.38-.93a5.1,5.1,0,0,1-1.41-1,1.26,1.26,0,0,0-.78-.36c-.39,0-1,.48-1.53,1l-.42.36A1.38,1.38,0,0,0,167.67,27.45ZM171,4.35A14.29,14.29,0,0,1,172.44,7c0,.54-2.43,1.92-2.88,1.92s-.45-.36-.57-.6A23.83,23.83,0,0,0,166.17,4c-.15-.18-.42-.48-.42-.69,0-.57,2.1-2.07,2.73-2.07S170.67,3.84,171,4.35Zm9.93,15c-.18,0-.51,0-.51.27s.39.57.66.81c.45.42.84.81.84,1.05s-.18.33-.39.33l-.24,0a.88.88,0,0,0-.27-.06,1,1,0,0,0-.27.09,33.4,33.4,0,0,1-3.42,1.29c-.12.06-.54.15-.54.33s.72.21,2.46.21h5.67l2.64,0c.12,0,.45,0,.45-.24s-.39-.27-.51-.3a19.33,19.33,0,0,1-3.6-1.47c-.18-.12-.33-.21-.33-.42s.63-1,.9-1.26c.09-.09.3-.3.3-.42s-.15-.15-.24-.15ZM177.72,7.65a.38.38,0,0,0-.36.42c0,.51.24.51.69.51h.27c.36,0,.63-.15.63-.57a.33.33,0,0,0-.36-.36Zm5.55,8.82a.4.4,0,0,0,.39-.39v-.15a.4.4,0,0,0-.39-.39h-1.5a.37.37,0,0,0-.36.39v.15a.39.39,0,0,0,.36.39Zm3.87-8.82a.4.4,0,0,0-.36.42c0,.51.24.51.69.51h.69c.21,0,.63,0,.63-.6,0-.27-.21-.33-.45-.33Z"/><path class="cls-1" d="M217,4.86c.69.3.81.48.81.66s-.15.24-.3.3a2.15,2.15,0,0,0-1.17,1.23,22.54,22.54,0,0,0-1.8,9c0,.75,0,1.56.36,1.56.21,0,.3-.21.51-.66.06-.12.12-.24.18-.39s.21-.45.45-.45S218,17,218,17.55s-1.56,3.87-1.56,5.79c0,.33.06,1,.09,1.29a4.07,4.07,0,0,1,.06.6c0,1.17-2.52,1.92-3.15,1.92s-.87-.69-1.08-1.11a22.33,22.33,0,0,1-2-10.23,40.3,40.3,0,0,1,1-8.49c.24-1.11.66-2.19.93-3.57.06-.24.15-.57.45-.57A43.73,43.73,0,0,1,217,4.86Zm10.11-1.11c1.08.12,1.2.18,1.2.42a13.46,13.46,0,0,0-.27,3v.27c0,.36.06.87.63.87a13.75,13.75,0,0,0,2.25-.57,3.58,3.58,0,0,1,.78-.15c.33,0,.45.3.54.6a12.57,12.57,0,0,1,.51,3c0,.66-.39.87-3.51,1.35-.63.09-1,.24-1,.93,0,.45.24,3.84.27,4.44s.15.9.51,1.11,1,.54,1.47.81c1.5.93,3.09,2.07,3.09,3s-1.41,2.79-2.34,2.79c-.54,0-1.14-.57-1.62-1s-.6-.57-.87-.57-.42.21-.57.45c-.93,1.59-3.06,2.07-4.77,2.07-2.73,0-5.4-1.35-5.4-4.41a4.23,4.23,0,0,1,3.66-4.17,10.68,10.68,0,0,1,2-.15c.78,0,.87-.36.87-.75s-.18-2.28-.21-2.82c0-.36-.09-1-.75-1-.24,0-3.09.18-4.68.18-.48,0-1.2,0-1.32-.57-.06-.33-.18-2.73-.18-3.15s.09-.75.54-.75,3,.24,4.59.24h.27c.45,0,1.05-.06,1.05-.72,0-.27-.33-3.57-.36-4.05a3.26,3.26,0,0,1,0-.54c0-.36.18-.45.51-.45C224.4,3.42,226.44,3.69,227.07,3.75ZM221.82,22.2c0,.57,1,.87,1.59.87s1.38-.24,1.38-1.05c0-.6-.87-.63-1.32-.63S221.82,21.54,221.82,22.2Zm9.24-19.92c.39.42,2.16,2.43,2.16,2.88s-1.59,1.59-1.89,1.59-.33-.21-.6-.63l-.24-.33c-.54-.75-1-1.29-1.56-2-.09-.12-.27-.33-.27-.48,0-.42,1.62-1.38,2-1.38C230.76,2,230.94,2.13,231.06,2.28Zm5.43.9c0,.57-1.53,1.59-1.86,1.59-.18,0-.27-.15-.42-.36-.63-.9-1.35-1.77-2.07-2.61-.15-.18-.24-.27-.24-.39,0-.48,1.68-1.41,1.95-1.41A11,11,0,0,1,236.49,3.18Z"/><path class="cls-1" d="M262.38,2c.33.06.45.18.45.39s-.15.33-.3.45c-.39.3-.39.42-.48,1.35,0,.21-.24,2.13-.24,2.4a.91.91,0,0,0,.36.75,3,3,0,0,1,.93,1.53c0,.15-.06.27-.06.39s.12.21.15.21.45-.33.69-.57c1.29-1.23,2.85-2.46,4.71-2.46a4,4,0,0,1,3.21,1.5,5.93,5.93,0,0,1,.69,3.45c0,1.62-.06,3.24-.12,4.83,0,1-.12,2-.12,2.94,0,.48,0,1.11.48,1.11s1.62-1.32,1.95-1.68a.94.94,0,0,1,.69-.42c.39,0,.87,1,1,1.26a10,10,0,0,1,1,2.49c0,.33-.33.63-1,1.17-1.5,1.23-3.39,2.49-5.4,2.49a2.94,2.94,0,0,1-2.49-1.5,8.54,8.54,0,0,1-.78-4.32c0-2.91.39-5.94.39-7.53,0-.39-.12-.84-.6-.84-1.14,0-4.56,3.36-5.43,4.26a1.72,1.72,0,0,0-.57,1.56c0,2.46.06,6.24.33,8.64a2.13,2.13,0,0,1,0,.42c0,.3-.24.36-.54.39a26.5,26.5,0,0,1-2.67.12c-1.26,0-1.68,0-1.68-.6,0-.06.18-2.13.18-3.12,0-.21,0-.48-.27-.48s-.78,1.05-1.08,1.65c-.06.15-.12.27-.15.33s-.24.45-.48.45c-.63,0-3.15-2.1-3.15-2.73a3.49,3.49,0,0,1,.63-1.11c1.53-2.28,3.09-4.86,4.5-7.23a1.45,1.45,0,0,0,.24-.78c0-.3-.06-.57-.39-.57a3.7,3.7,0,0,0-1.26.45,9.07,9.07,0,0,1-2.25.72c-.63,0-1-.6-1.17-1.14a16.64,16.64,0,0,1-.9-2.88c0-.48.39-.66,1.26-.69s4.11-.72,4.62-1.26a1.44,1.44,0,0,0,.24-1V6.57c0-1.2.06-2.4.06-3.6,0-.3,0-.57,0-.87s.24-.51.6-.51C258.81,1.59,261.72,1.86,262.38,2Z"/><path class="cls-1" d="M310.77,6.24c0,.18-.18.33-.33.42a25.41,25.41,0,0,0-3.69,3,.78.78,0,0,0-.27.54.67.67,0,0,0,.69.63c.09,0,.21,0,.33,0a9.94,9.94,0,0,1,2.1.36,7.07,7.07,0,0,1,5.25,7c0,5.73-5,8.58-10.17,8.58-2.82,0-6.63-1.14-6.63-4.59a4.39,4.39,0,0,1,4.5-4.17,5.29,5.29,0,0,1,4.05,1.92,5.22,5.22,0,0,1,.81,1.5.84.84,0,0,0,.72.57c.72,0,2.16-1.5,2.16-3.48,0-2.55-2.07-3.69-4.38-3.69a8.57,8.57,0,0,0-5.79,2.31,39.86,39.86,0,0,0-3.69,3.78c-.42.54-.66.75-.78.75-.69,0-3-2.46-3-3,0-.36.3-.63.93-1.11S299.28,12,300.33,11c.57-.57,1-1.11,1.53-1.68.21-.21.42-.39.42-.69s-.48-.42-.6-.42-3.36.6-4.14.72a1.46,1.46,0,0,1-.36,0c-.69,0-.87-3.39-.87-4v-.3c0-.45.09-.45,1-.45H298c2,0,6.24-.36,8-1.08a4.65,4.65,0,0,1,1.29-.48C308.49,2.64,310.77,5.58,310.77,6.24Zm-8.19,15.09a.86.86,0,0,0-1,.81c0,.81,1,1.2,1.71,1.2a.71.71,0,0,0,.75-.66A1.49,1.49,0,0,0,302.58,21.33Z"/><path class="cls-2" d="M71.22,64.77c4.77,0,8,2.19,8,6.45,0,3.78-2.43,7.92-9.69,7.92a15,15,0,0,1-6.15-1.32c-.42-.21-.63-.39-.63-.66a1.78,1.78,0,0,1,.15-.57L64,73.86c.18-.42.3-.6.51-.6a1.28,1.28,0,0,1,.57.27,9,9,0,0,0,4.65,1.29c3.12,0,4.41-1.38,4.41-3.27s-1.83-2.79-4.08-2.79a9.18,9.18,0,0,0-2.85.39,2.92,2.92,0,0,1-1,.21,3.48,3.48,0,0,1-1-.18L64.59,69c-.6-.18-.78-.33-.78-.78a2,2,0,0,1,0-.39c.12-1,.21-1.89.3-3l.33-4c.09-1.17.18-2.13.21-3.15,0-.72.15-.87.75-.87.39,0,3.69.06,5.28.06H72.6c1.59,0,5-.06,5.25-.06.63,0,.75.18.75.87v3c0,.69-.12.87-.75.87-.21,0-3.66-.06-5.25-.06H70c-.78,0-.93.12-1,.9l-.09,1.32c0,.24-.06.6-.06.69,0,.36.12.48.48.48S70.41,64.77,71.22,64.77Z"/><path class="cls-1" d="M125,60.9a8.15,8.15,0,0,1,2.19,5.61c0,4.92-3.63,8.25-7.92,9.93a24,24,0,0,1-6,1.5c-.69,0-1-.51-1.26-1.08A10.22,10.22,0,0,1,111,74c0-.6.66-.72,1.14-.75A15.91,15.91,0,0,0,118,71.88c2.25-1,4.38-2.7,4.38-5.37,0-2.25-1.68-3.36-3.75-3.36-4,0-8.34,2.16-11.76,4.05a1.62,1.62,0,0,1-.9.3c-1.29,0-3.12-3.12-3.12-4.32,0-.45.39-.57.75-.66,2.67-.78,5.28-1.74,7.89-2.61a21.65,21.65,0,0,1,7-1.41A8.87,8.87,0,0,1,125,60.9Z"/><path class="cls-1" d="M165.24,59.79a10.56,10.56,0,0,1,3.18,7.71,11.24,11.24,0,0,1-6,10,11.51,11.51,0,0,1-3.57,1.35c-1,0-2.64-2.76-2.64-3.6,0-.27.27-.39,1.14-.6,3.48-.9,6.33-3.09,6.33-6.93,0-4.71-3.6-6.57-4.5-6.57-.51,0-.57.54-.6,1.08-.33,4.17-1.53,9.27-4.29,12.57a5.81,5.81,0,0,1-4.35,2.49,5.34,5.34,0,0,1-4.56-3.09,10.15,10.15,0,0,1-1-4.5,12.71,12.71,0,0,1,12.78-12.93A11.12,11.12,0,0,1,165.24,59.79ZM148.83,69.6c0,.72.18,2.91,1.23,2.91.72,0,1.74-2,2-2.61A27.11,27.11,0,0,0,154,62.22c0-.24-.12-.45-.39-.45C152.73,61.77,148.83,64.53,148.83,69.6Z"/><path class="cls-1" d="M191.88,69.18c0,.42.09,1,.6,1a3.23,3.23,0,0,0,.93-.21,1.76,1.76,0,0,1,.39-.06c.45,0,.69.33.69,2.1,0,1.29-.06,1.47-.66,1.74A56,56,0,0,1,187.41,76c-.66.21-.78.24-.93.69-.09.21-.21.45-.48.45s-.45-.45-.78-1.68c-.12-.42-.27-1-.45-1.56a4.6,4.6,0,0,1-.3-1.23c0-.27.12-.42.66-.54l1.26-.24c.93-.18,1.29-.42,1.29-1.41V67.62a.77.77,0,0,0-.87-.81l-.93,0c-.6,0-.66-.33-.66-1V63.9c0-.87.06-1.17.63-1.17l1.08,0a.82.82,0,0,0,.75-.81V59.82a.83.83,0,0,0-.84-.81c-.45,0-.93.06-1.38.06-.63,0-.69-.3-.69-1V56.13c0-.9.06-1.2.66-1.2s1.74.09,2.76.09h2.67c1,0,2.16-.09,2.73-.09s.72.33.72,1.32v1.56c0,1-.06,1.26-.72,1.26l-.93,0a.74.74,0,0,0-.78.78V62a.76.76,0,0,0,.78.78c.18,0,.45-.06.6-.06.84,0,.9.12.9,1.29v1.62c0,1-.06,1.23-.72,1.23-.24,0-.45,0-.66,0a.9.9,0,0,0-.9.87Zm7.59-.45a.37.37,0,0,0-.39.3c-.06.36-.57.42-1.2.42h-1.44c-1.08,0-1.44-.06-1.44-.66s.09-1.83.09-2.79V57.66c0-.69-.06-1.41-.06-2.1,0-1.14.93-1.2,1.83-1.2s1.77.06,2.64.06H206c.9,0,1.77-.06,2.67-.06s1.83.06,1.83,1.2c0,.69-.06,1.38-.06,2.1V66c0,1,.06,2.25.06,2.79s-.3.66-1.29.66h-1.68c-.87,0-1-.06-1.14-.48a.39.39,0,0,0-.36-.24h-.45a.73.73,0,0,0-.72.72v.6a.73.73,0,0,0,.72.72h1.17c1.05,0,2.1-.06,3.18-.06.81,0,.84.36.84,1.38v1.14c0,.93-.06,1.32-.81,1.32-1.08,0-2.13-.09-3.21-.09h-1.17a.73.73,0,0,0-.72.72v.21a.71.71,0,0,0,.72.72h1.71c1.14,0,2.25-.06,3.39-.06.78,0,.84.42.84,1.41v1.38c0,1-.06,1.35-.87,1.35-1.11,0-2.25-.09-3.36-.09h-10.5c-1.11,0-2.25.09-3.36.09-.81,0-.87-.36-.87-1.35V77.43c0-1,.06-1.38.84-1.38,1.14,0,2.25.06,3.39.06h3.18a.71.71,0,0,0,.72-.72v-.21a.73.73,0,0,0-.72-.72h-1c-1.08,0-2.16.09-3.24.09-.72,0-.78-.33-.78-1.17V72c0-1,.06-1.29.84-1.29,1.05,0,2.1.06,3.18.06h1a.73.73,0,0,0,.72-.72v-.6a.69.69,0,0,0-.72-.72Zm.45-8.76a.69.69,0,0,0,.72-.72v-.42a.71.71,0,0,0-.72-.72h-.18a.71.71,0,0,0-.72.72v.42a.73.73,0,0,0,.72.72Zm-.18,3.36a.73.73,0,0,0-.72.72v.42a.71.71,0,0,0,.72.72h.18a.71.71,0,0,0,.72-.72v-.42a.69.69,0,0,0-.72-.72Zm6-3.36a.71.71,0,0,0,.72-.72v-.42a.69.69,0,0,0-.72-.72h-.18a.71.71,0,0,0-.72.72v.42a.69.69,0,0,0,.72.72Zm-.18,3.36a.69.69,0,0,0-.72.72v.42a.71.71,0,0,0,.72.72h.18a.69.69,0,0,0,.72-.72v-.42a.71.71,0,0,0-.72-.72Z"/><path class="cls-1" d="M237.09,59.43a.81.81,0,0,0,.81-.81V56.37a15.77,15.77,0,0,0-.06-1.8c0-.21-.06-.57-.06-.66,0-.36.3-.42.6-.42s2.7.21,3.18.24c.81.06,1.38.12,1.38.51,0,.21-.15.3-.33.48a1,1,0,0,0-.27.78v3.06a.86.86,0,0,0,.75.87h4.44c1,0,2-.06,3-.06s1.53.36,1.53,1.44S252,62.7,252,63.66V76.23c0,1.14.09,2.31.09,3.45,0,.72-.39.81-1,.81h-2.34c-1.2,0-1.38-.09-1.38-.84a.73.73,0,0,0-.69-.75H233.43c-.6,0-.72.54-.72,1s-.69.6-1.14.6h-2.31c-.72,0-1.11-.09-1.11-.84,0-1.14.09-2.31.09-3.45V63.66c0-1-.06-1.89-.06-2.85s.48-1.44,1.5-1.44,2,.06,3,.06Zm.81,4.92a.84.84,0,0,0-.84-.84h-3.6a.86.86,0,0,0-.84.84v1.92a.86.86,0,0,0,.84.84h3.6a.82.82,0,0,0,.84-.84Zm0,7.53a.84.84,0,0,0-.84-.84h-3.6a.86.86,0,0,0-.84.84V74a.86.86,0,0,0,.84.84h3.6a.8.8,0,0,0,.84-.84Zm4.44-5.61a.82.82,0,0,0,.84.84h3.51a.84.84,0,0,0,.84-.84V64.35a.84.84,0,0,0-.84-.84h-3.51a.84.84,0,0,0-.84.84Zm0,7.74a.84.84,0,0,0,.84.84h3.51a.84.84,0,0,0,.84-.84V71.88a.84.84,0,0,0-.84-.84h-3.51a.8.8,0,0,0-.84.84Z"/></g></g></svg>