<?xml version="1.0" encoding="UTF-8"?>
<svg id="_レイヤー_1" xmlns="http://www.w3.org/2000/svg" version="1.1" viewBox="0 0 314.7 81.8">
  <!-- Generator: Adobe Illustrator 29.5.0, SVG Export Plug-In . SVG Version: 2.1.0 Build 137)  -->
  <defs>
    <style>
      .st0 {
        fill: #ed6c00;
      }

      .st1 {
        fill: #3b241a;
      }
    </style>
  </defs>
  <g>
    <path class="st1" d="M11.4,9c-2.1.3-4.3.6-6.7.8h0c-1.4.1-2.6.2-3.5.2l-.5-3.1c.5,0,1.2,0,2.1,0,1.1-2,1.9-3.8,2.4-5.4l3.9.7c-.5,1.2-1.2,2.7-2.3,4.5,1.4-.1,2.5-.2,3.4-.3-.4-.8-.7-1.5-1.1-2l3.3-1.1c.6.8,1.6,2.8,3,6.1l-3.5.9-.5-1.2h0ZM10.3,21.3h-4.5v5.8h-3.7V10.8h11.9v13.3c0,.8-.3,1.4-.9,1.9-.6.5-1.3.8-2.1.8h-2.9l-.4-3.4h2c.4,0,.6-.2.6-.5v-1.7h0ZM10.3,15.1v-1.7h-4.5v1.7h4.5ZM5.9,18.9h4.5v-1.6h-4.5v1.6ZM27.6,10.5c0,.8-.2,1.4-.5,1.9-.4.5-.9.8-1.6,1-.7.2-1.9.3-3.7.3s-2.4,0-3.2-.1-1.5-.4-2-1-.8-1.3-.8-2.2V1.8h3.7v2.8c2.2-.7,4-1.5,5.4-2.2l1.9,2.7c-1.8.8-4.3,1.7-7.3,2.5v2.1c0,.3.2.5.5.6.3,0,1,.1,1.8.1s1.1,0,1.5,0c.4,0,.7-.1.8-.3s.2-.6.3-1.2,0-1.3,0-2.1l3.2.5v3.1h0ZM27.7,23.7c0,.5-.1.9-.3,1.3-.2.4-.5.8-.9,1-.4.3-.8.5-1.1.6-.4,0-1.1.1-2,.2-1,0-1.5,0-1.7,0-1.5,0-2.7,0-3.4-.2s-1.3-.4-1.8-1c-.5-.5-.7-1.2-.7-2.1v-9.5h3.7v3.1c2.6-.8,4.6-1.6,6-2.4l2,2.8c-2,.9-4.6,1.8-7.9,2.6v2.7c0,.3.1.5.4.6s.9.2,1.9.2,1.3,0,1.6,0,.5-.1.6-.3c.1-.1.2-.4.3-.8s.1-1.3.1-2.7l3.2.5v3.5h0Z"/>
    <path class="st1" d="M69.1,7.7c-2.1,4.3-5.1,7.9-9,10.9l-2.9-2.7c2.3-1.8,4.2-3.8,5.8-6.1l-10.5,1.6v8.6c0,1,.2,1.7.7,2.1s1.3.7,2.6.7h12.5v3.8h-13c-2.5,0-4.2-.5-5.3-1.6s-1.6-2.7-1.6-4.9v-8l-5.5.8-.5-3.7,6.2-.9V1.8h4.3v5.9l14.4-2.1,2.1,2.1h0Z"/>
    <path class="st1" d="M96.5,8.9l-2.6,3.5c-1.4-.9-2.6-1.6-3.7-2.3-1.1-.6-3.5-1.9-7.3-3.8l2.2-3.2c3,1.2,6.8,3.1,11.4,5.8ZM108,12.4c-2.4,4.4-5.5,7.8-9.4,10.1s-8.8,3.8-14.7,4.4l-1-4c3.2-.3,5.9-.8,8.1-1.5s4-1.6,5.7-2.7,3-2.3,4.1-3.4c1.1-1.2,2.4-2.9,3.8-5.2l3.4,2.3h0Z"/>
    <path class="st1" d="M134.1,5c0,.6,0,1.2,0,2h3.4c1.5,0,2.7.5,3.6,1.4.9,1,1.4,2.2,1.4,3.8,0,3.8-.4,6.9-1.3,9.3s-2.4,3.6-4.5,3.6-1.2-.1-1.9-.3c-.7-.2-1.8-.8-3.3-1.6l1.2-3.1c1.6.9,2.8,1.4,3.6,1.4s.6-.1.9-.4.5-.8.8-1.6.5-1.8.6-2.8.2-2.2.2-3.5,0-1.5-.2-1.9-.3-.6-.6-.8-.6-.3-1-.3h-3c-.9,6.2-3.1,11.3-6.6,15.2l-2.9-1.9c1-1.1,2-2.8,3.2-5.2,1.2-2.4,2-5.1,2.4-8.1h-4.8v-3.3h5.2V1.9h3.9v3.1h0ZM150.3,16.3l-3.6,1c-.7-2.4-1.5-4.5-2.3-6.1-.8-1.6-1.9-3.2-3.1-4.8l3-1.7c3.3,4.3,5.3,8.2,6,11.6ZM147.2,5.2l-1.9.7c-.7-1.8-1.3-3.1-1.8-4l1.8-.7c.8,1.5,1.4,2.8,1.9,4ZM150.8,4.9l-1.8.7c-.6-1.4-1.2-2.8-1.8-4l1.7-.7c.7,1.4,1.3,2.7,1.9,4h0Z"/>
    <path class="st1" d="M193.4,23.9l-.6,3c-.1,0-3.3,0-9.4,0-4.2,0-7.2-.2-9-.6-1.5-.5-2.6-1.2-3.3-2.2-1.5,1.4-3,2.5-4.6,3.3l-1.3-3.4c1.3-.5,2.5-1.2,3.5-2v-7.4h-2.8v-3h6.4v9.6c0,.6.2,1,.5,1.5.4.4.8.7,1.4,1s1.6.4,2.9.5,3.5.1,6.3.1c5.4,0,8.7,0,9.8-.2h0ZM173.1,7.6l-3.6,1.6c-.3-.6-.8-1.5-1.6-2.9-.8-1.4-1.5-2.4-1.9-3l3.2-1.4c1.1,1.3,2.4,3.2,3.9,5.8h0ZM181.9,20.7c-.8.6-1.9,1.1-3.3,1.7s-2.7.9-3.8,1.1l-1-2.5c1.2-.2,2.7-.8,4.6-1.7h-5.2v-2.5h4v-1.4h-3.4v-2.4h3.4v-1.1c-.4,0-1,0-1.6,0s-1.1-.2-1.4-.6c-.3-.4-.5-.9-.5-1.5v-4.1h5.1v-1.5h-5.2V1.9h8v5.5h-5.1v1.5c0,.2,0,.4.3.5s.7.1,1.5.1.4,0,.9,0c.4,0,.7-.1.8-.4,0-.2.1-.6.1-1.2l2.4.2v1.6c0,1.1-.5,1.8-1.6,2v1.3h3.9v-1.3c-.9-.3-1.4-.9-1.4-2.1v-4.1h5.4v-1.5h-5.5V1.9h8.3v5.5h-5.4v1.5c0,.2,0,.4.3.5s.7.1,1.5.1,1,0,1.4,0c.3,0,.5-.1.6-.4,0-.2.1-.6.1-1.2l2.4.2v1.6c0,.6-.2,1.1-.5,1.5s-.9.5-1.7.6h-1.9v1.2h3.6v2.4h-3.6v1.4h4.2v2.5h-5.1c1.6.8,3.3,1.4,5,1.8l-1.5,2.7c-1-.2-2.2-.7-3.6-1.3s-2.4-1.2-3.3-1.9l1.3-1.4h-4.5l1.2,1.3h0ZM180.7,15.4v1.4h3.9v-1.4h-3.9Z"/>
    <path class="st1" d="M214.9,3.2c-1.2,4.2-1.7,7.8-1.7,10.9s.5,8,1.6,11.9l-4,.8c-1-4-1.6-7.9-1.6-11.7s.6-8.1,1.6-12.5c0,0,4,.5,4,.6ZM236,22.6l-2.3,3.2c-1.4-1.3-2.8-2.4-4.1-3.2,0,1.4-.6,2.5-1.5,3.2-.9.7-2.6,1.1-5,1.1s-3.2-.4-4.4-1.3-1.8-2-1.8-3.5.6-2.7,1.8-3.6,2.7-1.4,4.3-1.4,1.6,0,2.6.2v-6.2h-9.2v-3.5h9.2V2.7h4.1v5h5.3v3.5h-5.3v7.4c2.1.9,4.2,2.2,6.4,4h0ZM225.6,21.8v-1c-.8-.3-1.6-.5-2.6-.5s-1.2.2-1.6.5c-.5.3-.7.7-.7,1.2s.2.9.8,1.1c.5.3,1.1.4,1.7.4,1.7,0,2.5-.6,2.5-1.8h0ZM233.3,5.7l-2,.8c-.4-1-.9-2.4-1.8-4.3l1.8-.8c.7,1.3,1.3,2.7,1.9,4.2h0ZM236.8,5.1l-1.9.8c-.7-1.7-1.3-3.2-1.9-4.2l1.8-.7c.6,1.1,1.2,2.5,1.9,4.2h0Z"/>
    <path class="st1" d="M257.4,19.2c-1.5,2.1-2.7,3.9-3.8,5.1l-2.2-3.1c1.5-1.7,3.3-4.1,5.4-7.2.1-.2.3-.6.6-1.2v-3.2h-4.9v-3.2h4.9V1.8h4v7.9c3.5-3.4,6.5-5.1,9-5.1s2.8.4,3.8,1.4,1.5,2.1,1.5,3.6-.2,2.9-.5,6.3c-.3,2.7-.5,4.7-.5,5.9v.3c0,.6.2,1,.7,1s1.9-.5,3.6-1.5l.9,3.3c-1.8,1.2-3.5,1.9-5.2,1.9s-2.3-.4-3.1-1.1c-.7-.8-1.1-1.8-1.1-3.1s.2-2.6.6-6.6c.2-2.3.4-4.3.4-5.9v-.2c0-.9-.5-1.4-1.5-1.4s-1.9.5-3.4,1.4-3.2,2.5-5.2,4.6v12.9h-4v-8h0Z"/>
    <path class="st1" d="M306.5,23.1c2.3-.9,3.5-2.4,3.5-4.3s-.6-2.5-1.7-3.3c-1.1-.8-2.6-1.2-4.3-1.2h-.4c-.8,0-1.6.1-2.7.4s-2,.6-2.9,1c-.9.4-1.6.8-2.2,1.2s-2,1.4-4.2,3.1l-2.3-2.9c7.7-5.3,12.6-8.8,14.8-10.4h-12v-3.3h17.1l2,2.2c-2,1.3-5.1,3.4-9.1,6.2,1.2-.3,2.1-.4,2.9-.4,2.8,0,5,.6,6.5,1.9,1.6,1.3,2.4,3.1,2.4,5.5s-1.1,4.9-3.4,6.4c-2.2,1.5-5.2,2.2-8.8,2.2s-4.3-.4-5.7-1.2-2.1-2-2.1-3.5.6-2.3,1.8-3.1c1.2-.8,2.5-1.3,3.9-1.3,3.5,0,5.8,1.6,6.7,4.9h0ZM302.9,24c-.6-1.9-1.7-2.9-3.4-2.9s-.9.1-1.3.4-.5.6-.5,1c0,1,1.2,1.6,3.6,1.6s1,0,1.5,0Z"/>
    <path class="st1" d="M109.1,78.2l-.7-3.3c3.3-.1,6-.3,8.1-.7s3.7-1.1,4.9-2.1c1.2-1,1.8-2.4,1.8-4.1s-.5-2.9-1.5-3.8c-1-1-2.3-1.4-3.9-1.4-2.5,0-7.2.7-14.3,2.1l-.6-3.5,8.5-1.2c2.7-.4,4.7-.6,6.2-.6,2.9,0,5.2.7,6.9,2.2,1.7,1.5,2.6,3.5,2.6,6.2s-1.4,5.9-4.3,7.7c-2.8,1.7-7.5,2.6-13.9,2.7h0Z"/>
    <path class="st1" d="M155.7,77.6l-.9-3.1c3.2-.4,5.7-1.1,7.3-2.2s2.4-2.8,2.4-5.1-.6-3.4-1.8-4.5c-1.2-1.1-2.8-1.8-4.9-2-.2,4.6-1,8.3-2.6,11.1-1.5,2.8-3.5,4.3-5.8,4.3s-2.8-.7-3.7-2.2c-.9-1.4-1.4-3.1-1.4-4.9v-.3c0-2.8,1.1-5.3,3.4-7.5s5.1-3.3,8.6-3.5h.5c3.3,0,6,.8,8.2,2.5s3.2,4,3.2,6.8-1.1,5.6-3.2,7.4-5.3,2.8-9.4,3.2h0ZM154.4,61c-1.8.4-3.4,1.4-4.7,2.9-1.3,1.5-1.9,3.2-1.9,5s.2,1.8.5,2.6c.3.8.8,1.2,1.3,1.2,1.1,0,2.2-1.1,3.1-3.4s1.5-5,1.7-8.2h0Z"/>
    <path class="st1" d="M193.8,73.1c-2.1.8-5.1,1.7-8.9,2.7l-.8-3.2,3.5-.8v-5.9h-2.7v-2.9h2.7v-4.6h-2.7v-2.9h9v2.9h-2.6v4.6h2.4v2.9h-2.4v4.9c1.1-.3,2-.7,2.7-.9v1.3h6.6v-2h-6.1v-14.4h16.1v14.4h-6v2h6.4v3h-6.4v2.1h7.3v3.1h-18.9v-3.1h7.7v-2.1h-6.8v-1h0ZM198.2,60.4h2.3v-2.8h-2.3v2.8ZM200.5,63.1h-2.3v2.9h2.3v-2.9ZM204.5,60.4h2.2v-2.8h-2.2v2.8ZM206.7,63.1h-2.2v2.9h2.2v-2.9Z"/>
    <path class="st1" d="M248.4,79.2h-16.3v1.4h-4.1v-21h10.1v-4.2h4.1v4.2h10.2v21h-4.1v-1.4h0ZM238.1,63h-6v4.6h6s0-4.6,0-4.6ZM232.1,75.9h6v-5.1h-6v5.1ZM248.4,67.6v-4.6h-6.2v4.6h6.2ZM242.2,75.9h6.2v-5.1h-6.2v5.1Z"/>
  </g>
  <path class="st0" d="M65.4,78.2v-4.3h.5c2.3,1.3,4.5,2,6.5,2s2.8-.3,3.7-1c.9-.7,1.3-1.6,1.3-2.9s-.3-1.8-1.1-2.3c-.7-.6-2.2-.8-4.3-.8h-1.3v-3.4h1.3c3.4,0,5.1-1,5.1-3.1s-.4-1.5-1.1-2-1.8-.7-3.1-.7-3.9.7-6.4,1.9h-.4v-4.2c2.6-1,5-1.4,7.4-1.4s4.9.5,6.4,1.5c1.4,1,2.2,2.4,2.2,4.1s-.4,2.4-1.2,3.3c-.8.9-1.9,1.6-3.2,1.9v.2c1.5.3,2.7.9,3.6,1.8.9.9,1.3,2.1,1.3,3.5,0,2.2-.8,4-2.5,5.3s-4,2-6.9,2-5.4-.5-7.7-1.4h0Z"/>
</svg>