<svg xmlns="http://www.w3.org/2000/svg" viewBox="0 0 329.76 28.74"><title>アセット 332x@f</title><g id="レイヤー_2" data-name="レイヤー 2"><g id="contents"><path d="M70.12,6.54c.28,0,2.45.7,2.88.84s.93.26.93.47-.26.3-.44.35a.86.86,0,0,0-.7.42c-.12.16-.22.28-.31.42a.43.43,0,0,0-.09.26c0,.21.18.28.37.28.35,0,.68-.05,1-.05.73,0,1.55,0,1.55.77,0,.4,0,.8,0,1.17V13c0,.47,0,.85,0,1.17,0,.57-.33.61-1.31.61H73c-.66,0-1.12,0-1.12-.61,0-.32.07-.72.07-1.05a.66.66,0,0,0-.75-.7H59a.66.66,0,0,0-.75.65c0,.28.07.68.07,1,0,.51-.35.58-.93.58H55.86c-.65,0-1-.07-1-.58,0-.33,0-.71,0-1.17V11.47c0-.37,0-.77,0-1.17,0-.74.77-.77,1.33-.77l.87,0c.25,0,.51-.07.51-.38a3.68,3.68,0,0,0-.42-1,1.66,1.66,0,0,1-.26-.61c0-.44,2.34-1.1,2.76-1.1s.4.07,1,1.15a5,5,0,0,1,.52,1.26c0,.17-.17.28-.31.35s-.16.1-.16.17.14.14.3.14h1.62c.47,0,.8-.19.8-.7V8.13c0-.52-.08-1.17-.08-1.43s.26-.4.54-.4c.47,0,2.51.17,3,.21.18,0,.51,0,.51.31s-.14.23-.3.37a1.31,1.31,0,0,0-.31,1.08v.61c0,.51.33.7.8.7h.19A1.09,1.09,0,0,0,69,8.78,15,15,0,0,0,69.74,7C69.81,6.75,69.86,6.54,70.12,6.54Zm-.19,12.4c.8,0,1.59-.07,2.39-.07s1.28.17,1.28,1c0,.68,0,1.38,0,2.11v.33c0,.6,0,1.14,0,1.63,0,2.06-2,2.56-3.69,2.56-.94,0-1.45-.1-1.71-.82A5,5,0,0,1,68,24.25c0-.49.19-1,.75-1,.35,0,.7.05,1.06.05s.49-.16.49-.86c0-.52-.28-.75-.78-.75h-2.1a.67.67,0,0,0-.66.65v.91c0,1.18.07,2.35.07,3.49,0,.64-.23.68-1.07.68H64.33c-.81,0-1,0-1-.68,0-1.14.07-2.31.07-3.49v-.91a.66.66,0,0,0-.65-.65H60.43a.65.65,0,0,0-.66.65v1.17c0,.82,0,1.55,0,2.32,0,.54-.28.59-1,.59H57.48c-.68,0-1-.05-1-.59,0-.77,0-1.54,0-2.32V22.2c0-.82-.07-1.6-.07-2.3,0-.86.54-1,1.29-1s1.59.07,2.41.07H63c.21,0,.3-.16.3-.35a.33.33,0,0,0-.3-.37h-.28c-.82,0-1.64,0-2.46,0-.65,0-1.45,0-1.45-.91,0-.37.07-.91.07-1.57v-.26c0-.65-.07-1.19-.07-1.56,0-.89.8-.92,1.48-.92s1.63.05,2.43.05h4.7c.82,0,1.64-.05,2.46-.05.66,0,1.48,0,1.48.92,0,.37-.07.91-.07,1.56v.26c0,.66.07,1.2.07,1.57,0,.84-.75.91-1.41.91-.84,0-1.66,0-2.48,0a.14.14,0,0,0-.14.16c0,.07-.12.16-.16.21s-.26.21-.26.28.09.07.14.07Zm-7.8-3.27a.45.45,0,0,0,.45.46h5a.46.46,0,0,0,.44-.46v-.05a.46.46,0,0,0-.44-.45h-5a.44.44,0,0,0-.45.45Z" style="fill:#ed6c00"/><path d="M101.54,13.21c0,.16.07.25.24.25h.6c.43,0,.47-.16.47-1v-.77c0-1.59,0-3.18,0-4.77,0-.45.14-.61.59-.61.11,0,2.1.16,2.34.19s.74.07.74.35-.23.35-.42.44a.41.41,0,0,0-.21.4c0,.19.07.33.26.33a3.57,3.57,0,0,0,.4-.12,4.23,4.23,0,0,1,1-.3c.19,0,.26.09.36.23a17.94,17.94,0,0,1,.77,1.9,9.46,9.46,0,0,1,.47,1.75c0,.47-1.67.82-2,.82a.28.28,0,0,1-.3-.26A10.92,10.92,0,0,0,106,9.51c-.12,0-.12.33-.12.87,0,.77,0,1.35,0,1.8,0,1.05.09,1.28.75,1.28.49,0,1,0,1.49,0s.64.23.64.86v.94c0,.8,0,.89-.43,1a.24.24,0,0,0-.16.24c0,.23.21.32.42.47s1.15.79,1.15,1.05-.21.28-.38.3-.3,0-.42.31-1.82,3.18-2,3.51a1.42,1.42,0,0,0-.26.77c0,.14.07.68.26.68s.35-.87.37-1.08,0-.47.44-.47c.64,0,1.55.38,1.55,1.13a7.39,7.39,0,0,1-.7,2.71,2.46,2.46,0,0,1-2.2,1.69,2.12,2.12,0,0,1-1.88-1.13.63.63,0,0,0-.46-.23c-.26,0-.54.28-.73.47s-.82.87-1.22.87c-.74,0-1.49-1.06-1.7-1.78-.08-.21-.22-.24-.52-.24h-1c-.63,0-.63.24-.63.73s-.07.47-.82.47h-1c-.66,0-.89-.05-.89-.5s0-1.05,0-1.59V19.41c0-.49,0-1,0-1.52,0-.68.28-.94,1-.94s1.12.05,1.71.05h1.26c.56,0,1.12-.05,1.68-.05s1,.24,1,.94c0,.51,0,1,0,1.52v3.72c0,.19,0,.54.3.54s.85-.4.85-1.62a11.81,11.81,0,0,0-.12-1.31c-.19-1.89-.21-2.38-.26-3.72,0-.54-.14-.86-.75-.86H97.66c-.85,0-1.69,0-2.53,0-.42,0-.54-.11-.59-.3s-.09-.14-.18-.14l-.21,0a1.67,1.67,0,0,1-.31,0c-.4,0-1,0-1.64,0H91c-.65,0-1.24,0-1.71,0s-.65-.16-.65-.86v-.89c0-.59.07-.75.65-.75s1.08,0,1.71,0H92.2c.61,0,1.24,0,1.69,0a1.06,1.06,0,0,1,.47.07,1,1,0,0,0,.37.09l.16,0,.22,0,.49,0c.18,0,.44,0,.44-.28a11.88,11.88,0,0,0-.35-1.36.62.62,0,0,1-.09-.3.41.41,0,0,1,.07-.17.25.25,0,0,0,0-.11c0-.05,0-.07-.14-.12s-.16-.09-.18-.09-.1.11-.1.3V12c0,.54-.14.66-.68.66s-1.35-.05-2-.05h-2c-.67,0-1.38.05-2.06.05s-.65-.19-.65-.89v-.89c0-.63.05-.84.61-.84s1.4,0,2.1,0h2c.68,0,1.35,0,2,0a1.78,1.78,0,0,1,.35,0h.12c.17,0,.19-.09.19-.39V8.92c0-.46.09-.63.44-.63l.85,0c.51,0,.77-.18.77-.7,0-.37,0-.84,0-1,0-.31.21-.36.47-.36.45,0,1.85.15,2.32.19s.91.07.91.38-.16.28-.33.37-.25.21-.25.66.18.49.56.49.58-.05,1-.05.45.21.45.84V10.3c0,.61,0,.8-.47.8l-.58,0c-.1,0-.15,0-.15.09s.12.09.19.12.94.28.94.58c0,.14-.17.19-.28.24s-.21.11-.26.28A4.07,4.07,0,0,0,101.54,13.21Zm-13.27,9.5c0-.59,0-1.17,0-1.78,0-.93.4-1.29,1.31-1.29.54,0,1.06.05,1.6.05h1c.51,0,1-.05,1.56-.05C94.57,19.64,95,20,95,21c0,.58,0,1.16,0,1.75v2c0,.72.07,1.42.07,2.15,0,.54-.21.59-.94.59h-.93c-.78,0-.94-.05-.94-.66v-.3c0-.26-.19-.29-.4-.29s-.37,0-.37.31c0,.07,0,.19,0,.3,0,.59-.19.64-1,.64H89.16c-.73,0-.94-.05-.94-.59,0-.73,0-1.43,0-2.15ZM92.2,6.89c.66,0,1.27,0,1.69,0,.58,0,.65.19.65.73V8.78c0,.56-.07.75-.65.75-.42,0-1,0-1.69,0H91c-.7,0-1.28,0-1.71,0-.61,0-.65-.19-.65-.79V7.64c0-.64,0-.8.65-.8s1,0,1.71,0Zm0,9.57c.68,0,1.29-.05,1.69-.05.61,0,.65.19.65.75v1.13c0,.58-.07.72-.65.72s-1-.05-1.69-.05H91c-.68,0-1.24.05-1.71.05s-.65-.16-.65-.77v-1c0-.61,0-.8.65-.8.43,0,1,.05,1.71.05Zm-.82,7.07a.27.27,0,0,0,.28.3h.26a.31.31,0,0,0,.31-.3V22.38a.31.31,0,0,0-.31-.3h-.26a.29.29,0,0,0-.28.3Zm7.14-12.48c-.18,0-.35,0-.35.26a1.71,1.71,0,0,0,.1.49,8.94,8.94,0,0,1,.3,1.27s0,.16,0,.21,0,.18.14.18c.28,0,.33-.49.4-.72a10,10,0,0,0,.28-1.36c0-.26-.12-.33-.35-.33Zm.94,8.64a.27.27,0,0,0-.28-.28h-.63a.29.29,0,0,0-.31.28v.16a.3.3,0,0,0,.31.29h.63a.28.28,0,0,0,.28-.29Zm0,2.79a.29.29,0,0,0-.28-.31h-.63a.31.31,0,0,0-.31.31v.16a.31.31,0,0,0,.31.3h.63a.29.29,0,0,0,.28-.3Zm6.93-6.3c-.52,0-.52.37-.52.82s0,1.05.24,1.05.77-1.22.77-1.36A.5.5,0,0,0,106.39,16.18Z" style="fill:#ed6c00"/><path d="M129.55,13.42c0-1-.05-2-.05-2.95S129.78,9,130.84,9c.65,0,1.33.07,2,.07s1-.12,1-.87a13.43,13.43,0,0,0-.07-1.43c0-.07,0-.16,0-.23,0-.31.23-.33.49-.33s2.22.09,2.67.12c.18,0,.68.07.68.35s-.14.23-.31.35a.75.75,0,0,0-.26.68v.26c0,.7,0,1.1.85,1.1h.56c.54,0,1,0,1.59,0a2.38,2.38,0,0,1,1.59.68c.31.26.68.54.68,1A14.82,14.82,0,0,1,141.09,14c-.19.42-.45,1-1,1s-2.34-.91-2.34-1.34a.93.93,0,0,1,.16-.35,3.52,3.52,0,0,0,.47-1c0-.14-.07-.16-.33-.16h-.4a.62.62,0,0,0-.68.63v1.92c0,.44.33.65.75.65s.87,0,1.29,0a2.21,2.21,0,0,1,1.71.63,1.85,1.85,0,0,1,.7,1.22c0,1-1.66,4.19-2.27,5.12a1.12,1.12,0,0,0-.21.52c0,.37.56.7,1,1a15.25,15.25,0,0,0,1.7.89c.24.09.57.21.57.51,0,.59-1.17,2.37-1.78,2.37a12.19,12.19,0,0,1-2.74-1.64,1.6,1.6,0,0,0-.94-.45c-.4,0-1,.56-1.36.82a9.44,9.44,0,0,1-2.27,1.34c-.49,0-1.26-1.13-1.52-1.5a.48.48,0,0,0-.35-.26c-.19,0-.3.21-.37.35-.19.4-.35.82-.8.82s-2.57-.91-2.57-1.5a1.75,1.75,0,0,1,.28-.63.19.19,0,0,0,0-.12c0-.16-.18-.16-.28-.16h-1c-.49,0-.77,0-.77-.38V24c0-.35-.14-.38-.31-.38h0c-.47,0-.49.4-.49.8v.28c0,.68-.21.68-1.13.68h-.68c-.68,0-1-.07-1-.63,0-.8,0-1.62,0-2.41v-.87a1.24,1.24,0,0,0-.47-1c-.35-.35-1.31-1.41-1.31-1.88a1.68,1.68,0,0,1,.33-.61,18.26,18.26,0,0,0,2.38-6,7.65,7.65,0,0,0,.21-1.27c0-.19,0-.47-.72-.47-.33,0-.63,0-1,0-.52,0-.56-.23-.56-.89V8.1c0-.7,0-.93.58-.93s1.38.07,2.16.07h2.43c.8,0,1.54-.07,2.15-.07s.59.21.59.84V9.46c0,.63-.05.89-.54.89s-.84,0-1.26,0c-.78,0-.82.26-1,1.39,0,.28-.12.65-.21,1.07a2.31,2.31,0,0,0-.07.47c0,.26.18.28.42.28l.84,0c.89,0,1.19.4,1.19,1.26,0,.7,0,1.38,0,2.08v6c0,.07,0,.26.11.26s.21-.28.28-.49a19.76,19.76,0,0,0,.8-6.74ZM125,20.21a.41.41,0,0,0,.38.37h.11a.39.39,0,0,0,.38-.37v-3.3a.37.37,0,0,0-.38-.38h-.11a.39.39,0,0,0-.38.38Zm8.43,3.41c.4-.3.82-.56.82-.91a1.92,1.92,0,0,0-.45-.84c-.14-.24-.32-.49-.51-.82-.07-.12-.28-.42-.42-.42s-.31.54-.35.82a16.17,16.17,0,0,1-.68,2.5,1,1,0,0,0-.05.3c0,.1,0,.24.16.24A4.27,4.27,0,0,0,133.39,23.62Zm-.49-8.7a.37.37,0,0,0,.37.39h.17a.36.36,0,0,0,.37-.37V12.48a.36.36,0,0,0-.37-.37h-.17a.36.36,0,0,0-.37.37Zm2.57,3.34c-.14,0-.42,0-.42.24s1,1.92,1.36,1.92,1.05-1.36,1.05-1.88c0-.25-.09-.28-.49-.28Z" style="fill:#ed6c00"/><path d="M161.09,9.16c.33.14.45.23.45.4s-.07.16-.19.21a2.19,2.19,0,0,0-1,1.38,11.29,11.29,0,0,0-.75,3.48c0,.15,0,.4.21.4s.24-.11.38-.44.26-.56.51-.56,1.31.68,1.31,1.05a1.16,1.16,0,0,1-.09.4,15.82,15.82,0,0,0-1.4,4.77v.59c0,.54-.5.77-.94.93a4,4,0,0,1-1.38.31c-.73,0-.94-.54-1.13-1.1a19.89,19.89,0,0,1-.79-5.6,24.32,24.32,0,0,1,.56-5.15c.14-.6.3-1.24.44-1.87.1-.4.15-.68.36-.68A26.68,26.68,0,0,1,161.09,9.16Zm5.57-1.71a12.4,12.4,0,0,1,1.78-.28c.45,0,.54.16.68.75a32.66,32.66,0,0,1,.75,7.14c0,4-.68,7.49-3.56,10.51-.44.46-1.42,1.47-2.08,1.47-.37,0-1-.63-1.33-.89-.59-.54-1.08-1-1.08-1.38,0-.14.09-.26.4-.47a8.72,8.72,0,0,0,3-3.49,12.46,12.46,0,0,0,1-5.36,28.87,28.87,0,0,0-.87-7,2.06,2.06,0,0,1,0-.35C165.33,7.75,165.63,7.66,166.66,7.45Z" style="fill:#ed6c00"/><path d="M200.9,11.12a8.26,8.26,0,0,1,2.48,6,8.77,8.77,0,0,1-4.7,7.77A8.94,8.94,0,0,1,195.89,26c-.82,0-2.06-2.15-2.06-2.8,0-.22.21-.31.89-.47,2.72-.71,4.94-2.41,4.94-5.41,0-3.68-2.81-5.13-3.51-5.13-.4,0-.45.43-.47.85-.26,3.25-1.19,7.23-3.35,9.8a4.51,4.51,0,0,1-3.39,1.95,4.17,4.17,0,0,1-3.56-2.41,7.93,7.93,0,0,1-.77-3.52,9.91,9.91,0,0,1,10-10.08A8.7,8.7,0,0,1,200.9,11.12Zm-12.8,7.66c0,.56.14,2.27,1,2.27.56,0,1.35-1.55,1.59-2a21.06,21.06,0,0,0,1.47-6c0-.19-.09-.35-.3-.35C191.14,12.67,188.1,14.82,188.1,18.78Z" style="fill:#ed6c00"/><path d="M219.47,12.6c.24,0,.78,0,.78-.54v-1c0-1-.05-2-.05-3,0-.16,0-.23.21-.23.47,0,1.92.09,2.53.12s1.31.07,1.31.33a.52.52,0,0,1-.14.25,1,1,0,0,0-.23.73V12a.53.53,0,0,0,.53.59h2.91c.39,0,.53-.33.53-.68,0-.66,0-3.25-.09-3.77,0-.09,0-.19,0-.28a.31.31,0,0,1,.35-.3c.33,0,1.71.07,2.13.09.79,0,1.64,0,1.64.3s-.38,0-.38,1.15v1.31c0,.42,0,.84,0,1.29,0,.68.14.89.75.89h.28l2.69-.07c.52,0,.63.21.63,1.31v1c0,.77,0,1.12-.77,1.12s-1.71,0-2.55,0h-.28c-.68,0-.82.11-.82.81,0,4-.77,6.63-4.21,9a9.85,9.85,0,0,1-2.6,1.29c-.31,0-1-.68-1.43-1.17s-.94-.94-.94-1.27.42-.44,1.1-.7c3.61-1.5,4.5-3.46,4.5-7.23,0-.38-.12-.7-.54-.7h-2.86a.53.53,0,0,0-.53.53v1.24c0,1,0,2.28,0,2.58,0,.82,0,1-.87,1h-1.64c-1,0-1.19-.07-1.19-.58,0-1,.05-1.95.05-2.91V16.53a.59.59,0,0,0-.61-.58h-.47c-.91,0-1.83.07-2.43.07s-.73-.61-.73-1.48v-.87c0-.95.09-1.14.63-1.14s1.64.07,2.53.07Z" style="fill:#ed6c00"/><path d="M263,14.8c1.38,0,2.88-.09,3.09-.09.61,0,.7.25.7.93v1.12c0,1.29,0,1.69-.77,1.69-.91,0-2-.07-3-.07H252.21c-1,0-2.13.07-3,.07s-.8-.45-.8-1.69V15.69c0-.7.07-1,.68-1,.33,0,1.64.09,3.11.09Z" style="fill:#ed6c00"/><path d="M285.35,19.41c0,2.2,0,2.25,2.57,2.25a53.14,53.14,0,0,0,8.24-.47,1.67,1.67,0,0,1,.31-.05c.56,0,.61.84.61,1.55v.49c0,1-.05,1.54-.89,1.66-1.46.21-6.75.28-8.43.28s-4.35,0-5.34-1.45c-.65-1-.7-2.93-.7-4.07V11.76c0-1,0-2.49-.09-3.47V8.1a.3.3,0,0,1,.32-.28c.33,0,2.88.49,3.47.59.19,0,.42.09.42.3s-.07.17-.16.26-.33.35-.33,1v3.7a.5.5,0,0,0,.54.54,16.19,16.19,0,0,0,3.76-.73,24.43,24.43,0,0,0,4.15-1.77,1.15,1.15,0,0,1,.37-.15c.35,0,1.43,1.81,2.06,2.86a1.33,1.33,0,0,1,.19.45c0,.18-.23.21-.38.21l-.44,0a2.5,2.5,0,0,0-1,.26,26,26,0,0,1-8.4,2.22c-.28,0-.8,0-.84.66Zm12.68-8c0,.47-1.26,1.22-1.49,1.22s-.26-.19-.35-.33a25.66,25.66,0,0,0-1.57-2.11.49.49,0,0,1-.12-.25c0-.38,1.33-1.06,1.54-1.06A8.93,8.93,0,0,1,298,11.45Zm2.6-1.61c0,.44-1.24,1.21-1.47,1.21s-.28-.18-.54-.58c-.4-.59-.89-1.2-1.36-1.76-.07-.09-.18-.21-.18-.3,0-.4,1.33-1.1,1.54-1.1A8.85,8.85,0,0,1,300.63,9.84Z" style="fill:#ed6c00"/><path d="M323.4,9.51A12.39,12.39,0,0,0,325,9.44a5.87,5.87,0,0,1,.59,0c.72,0,2,1.76,2,2.08a2.81,2.81,0,0,1-.35.73A43.68,43.68,0,0,1,324,17.26a.61.61,0,0,0-.19.44.52.52,0,0,0,.33.49,48.77,48.77,0,0,1,4.26,3.33c.23.21,1,.93,1.21,1.14a.32.32,0,0,1,.14.28c0,.66-2,2.72-2.62,2.72-.35,0-.65-.37-.91-.68a.33.33,0,0,0-.12-.16A24.57,24.57,0,0,0,322,21.05a1.79,1.79,0,0,0-.77-.4.82.82,0,0,0-.58.28A27.12,27.12,0,0,1,317,23.74a16.13,16.13,0,0,1-3.25,1.66c-.42,0-1.29-1.29-1.55-1.66a3.76,3.76,0,0,1-.58-1.26c0-.36.33-.5.61-.59a21,21,0,0,0,9.62-7.68,1.66,1.66,0,0,0,.32-.7c0-.4-.39-.44-.79-.44h-3.56c-1,0-2.13,0-3.21,0-.58,0-.63-.28-.63-1.12V10.42c0-.82.05-1,.61-1,1.08,0,2.15.07,3.23.07Z" style="fill:#ed6c00"/><path d="M21.1,24.57c0,1.33.08,2.81.08,3.32,0,.74-.27.85-1.13.85H15.87c-.85,0-1.13-.11-1.13-.85,0-.51.08-2,.08-3.32,0-1-.19-1.17-1.17-1.17H7.8c-2.61,0-6.55.08-6.82.08-.82,0-1-.24-1-1.13v-1.6a4.21,4.21,0,0,1,.55-2.26C1.4,16.77,2.26,15,3.08,13.3l2.85-6c.78-1.67,1.75-3.74,2.77-6.2C9.13.16,9.32,0,10.34,0h5.14c.59,0,.86.08.86.35a1.84,1.84,0,0,1-.23.7c-1.52,2.89-2.5,4.84-3.43,6.79l-4.33,9a1.44,1.44,0,0,0-.2.66c0,.31.24.39.86.39h5c.7,0,.82-.12.82-.82v-.89c0-1.92-.08-5.39-.08-5.66,0-.82.24-1,1.13-1h4.18c.89,0,1.13.16,1.13,1,0,.27-.08,3.74-.08,5.66v.54c0,1,.19,1.17,1.17,1.17,1.33,0,2.42,0,2.93,0,.77,0,.93.2.93,1.09v3.4c0,.89-.16,1.09-.93,1.09-.51,0-1.6,0-2.93,0C21.29,23.4,21.1,23.6,21.1,24.57Z" style="fill:#f4891e"/></g></g></svg>