<?xml version="1.0" encoding="UTF-8"?>
<svg id="_レイヤー_1" xmlns="http://www.w3.org/2000/svg" version="1.1" viewBox="0 0 264.7 54">
  <!-- Generator: Adobe Illustrator 29.4.0, SVG Export Plug-In . SVG Version: 2.1.0 Build 152)  -->
  <defs>
    <style>
      .st0 {
        fill: #3b241a;
      }
    </style>
  </defs>
  <path class="st0" d="M9.5,14.1l4.5-.7c0,.6.2,1.7.4,2.5,0,.4.3,1.5.5,2.9,2.7-.4,5.2-.8,6.3-1.1,1-.2,2.2-.4,3-.7l.8,4.2c-.7,0-2,.3-2.9.4-1.3.2-3.7.6-6.4,1,.3,1.6.6,3.4,1,5.1,2.9-.5,5.5-.9,6.9-1.2,1.2-.3,2.4-.5,3.3-.8l.9,4.2c-.9,0-2.2.3-3.4.5-1.5.3-4.1.7-6.9,1.1.5,2.6,1,4.8,1.2,5.8.2,1,.5,2.1.8,3.1l-4.6.8c-.2-1.2-.3-2.3-.4-3.2-.2-.9-.6-3.1-1.1-5.8-3.3.5-6.3,1.1-7.6,1.3-1.4.3-2.5.5-3.2.7l-.9-4.3c.9,0,2.3-.2,3.3-.4,1.5-.2,4.4-.7,7.7-1.2-.3-1.7-.7-3.5-1-5.2-2.8.4-5.3.9-6.3,1-1,.2-1.9.4-2.9.7l-.9-4.4c1,0,2,0,3-.2,1.1-.1,3.6-.5,6.3-.9-.3-1.3-.5-2.4-.6-2.9-.2-.9-.4-1.7-.6-2.4Z"/>
  <path class="st0" d="M44.5,21.5c.2.8.5,1.9.9,3.1,4.1-.8,8.5-1.6,9.8-1.9.6,0,1.2-.3,1.6-.5l2.6,1.8c-1.3,2.8-4.6,7.6-6.8,10l-3.5-1.8c1.6-1.5,3.9-4.2,4.7-5.8-.8.1-4,.8-7.4,1.5,1.2,4.4,2.6,9.3,3.1,11,.2.5.6,2,.9,2.6l-4.4,1.1c0-.9-.3-1.9-.6-2.8-.5-1.7-1.8-6.7-2.9-11.1-2.7.6-5,1.1-6,1.3l-1-3.8c1,0,1.9-.2,2.9-.4.4,0,1.6-.3,3.1-.5-.3-1.2-.6-2.3-.8-3-.2-.8-.5-1.6-.9-2.3l4.3-1c.1.7.3,1.6.5,2.4Z"/>
  <path class="st0" d="M75.5,17.3v10.8c0,.8,0,2,0,2.8h-4.6c0-.6.2-1.9.2-2.8v-10.8c0-.6,0-1.7-.1-2.5h4.6c0,.7,0,1.4,0,2.5ZM90.3,17.7v6.3c0,6.9-1.3,9.9-3.7,12.5-2.1,2.3-5.4,3.9-7.8,4.6l-3.3-3.5c3.2-.7,5.8-2,7.7-4,2.2-2.4,2.6-4.8,2.6-9.8v-6.1c0-1.3,0-2.3-.2-3.2h4.8c0,.9-.1,1.9-.1,3.2Z"/>
  <path class="st0" d="M128.3,19.4c-1.5,2.5-4.5,6.5-7.7,8.8l-3.3-2.7c2.6-1.6,5.1-4.4,5.9-6h-16.7c-1.3,0-2.4,0-3.9.2v-4.4c1.2.2,2.6.3,3.9.3h17.2c.9,0,2.7,0,3.3-.3l2.5,2.4c-.4.4-1,1.2-1.2,1.7ZM107.6,41.2l-3.7-3c1-.4,2.2-.9,3.4-1.8,4.1-2.8,4.8-6.2,4.8-11.5s0-1.9-.2-2.9h4.6c0,7.9-.2,14.5-8.9,19.1Z"/>
  <path class="st0" d="M149,41.4l-3.4-3.2c6.2-2.1,8.9-4.9,8.9-12.8v-1.2h-7.6v4.4c0,1.4,0,2.7.1,3.4h-4.5c0-.6.2-1.9.2-3.4v-4.4h-2.7c-1.6,0-2.8,0-3.5.1v-4.4c.5,0,1.9.3,3.5.3h2.7v-3.2c0-.9,0-1.9-.2-2.9h4.5c0,.6-.2,1.6-.2,2.9v3.2h7.6v-3.4c0-1.3,0-2.3-.2-3h4.6c0,.6-.2,1.7-.2,3v3.4h2.4c1.7,0,2.7,0,3.5-.2v4.3c-.7,0-1.8,0-3.5,0h-2.4v1.1c0,7.9-1.9,12.8-9.6,16.2Z"/>
  <path class="st0" d="M176.5,36.8l-3.5-2.4c2.1-2,4.7-5.6,6-8.3l3.6,1.7c-1.5,2.8-4.4,7-6.2,8.9ZM189.9,16.9v2.6h7.5c.9,0,2.3,0,3.2-.2v4.2c-1,0-2.3,0-3.1,0h-7.5v14.9c0,1.9-1.1,3-3.3,3s-3.6,0-5.2-.3l-.4-4c1.4.3,2.8.4,3.6.4s1.2-.3,1.2-1.2c0-1.2,0-11.3,0-12.8h0s-8.1,0-8.1,0c-1,0-2.2,0-3.1.1v-4.3c1,.1,2.1.3,3.1.3h8.1v-2.6c0-.8-.2-2.2-.3-2.8h4.7c0,.4-.3,2-.3,2.8ZM201.9,34.5l-3.8,2c-1.4-2.8-3.6-6.6-5.2-8.6l3.5-1.9c1.6,2,4.2,6.1,5.5,8.4ZM198.4,11.7c2,0,3.7,1.7,3.7,3.7s-1.6,3.7-3.7,3.7-3.7-1.7-3.7-3.7,1.7-3.7,3.7-3.7ZM198.4,17.1c1,0,1.7-.8,1.7-1.7s-.8-1.7-1.7-1.7-1.8.8-1.8,1.7.8,1.7,1.8,1.7Z"/>
  <path class="st0" d="M215.4,24.8h17.2c1.5,0,2.9-.1,3.7-.2v5c-.8,0-2.4-.2-3.7-.2h-17.2c-1.8,0-4,0-5.2.2v-5c1.2,0,3.5.2,5.2.2Z"/>
  <path class="st0" d="M246.3,17.9c0-1.1,0-2.7-.3-3.8h5c-.1,1.1-.3,2.5-.3,3.8v4.7c4.3,1.2,10.4,3.5,13.4,5l-1.8,4.4c-3.3-1.7-8.1-3.6-11.6-4.8v9.1c0,.9.2,3.2.3,4.5h-5c.2-1.3.3-3.2.3-4.5v-18.4Z"/>
</svg>