<?xml version="1.0" encoding="UTF-8"?>
<svg id="_レイヤー_1" xmlns="http://www.w3.org/2000/svg" version="1.1" viewBox="0 0 230 40.1">
  <!-- Generator: Adobe Illustrator 29.4.0, SVG Export Plug-In . SVG Version: 2.1.0 Build 152)  -->
  <defs>
    <style>
      .st0 {
        display: none;
      }

      .st1 {
        fill: #3b241a;
      }
    </style>
  </defs>
  <path class="st1" d="M8.4,11.1l3.9-.6c0,.5.2,1.5.3,2.2,0,.3.3,1.3.4,2.5,2.3-.3,4.5-.7,5.4-.9.9-.2,1.9-.3,2.6-.6l.7,3.6c-.6,0-1.7.3-2.5.3-1.1.2-3.2.5-5.5.9.3,1.4.5,2.9.9,4.4,2.5-.4,4.7-.8,5.9-1,1-.3,2.1-.4,2.8-.7l.8,3.6c-.8,0-1.9.3-2.9.4-1.3.3-3.5.6-5.9.9.4,2.2.9,4.1,1,5s.4,1.8.7,2.7l-4,.7c-.2-1-.3-2-.3-2.8-.2-.8-.5-2.7-.9-5-2.8.4-5.4.9-6.5,1.1-1.2.3-2.2.4-2.8.6l-.8-3.7c.8,0,2-.2,2.8-.3,1.3-.2,3.8-.6,6.6-1-.3-1.5-.6-3-.9-4.5-2.4.3-4.6.8-5.4.9-.9.2-1.6.3-2.5.6l-.8-3.8c.9,0,1.7,0,2.6-.2.9,0,3.1-.4,5.4-.8-.3-1.1-.4-2.1-.5-2.5-.2-.8-.3-1.5-.5-2.1h-.2Z"/>
  <path class="st1" d="M38.5,17.5c.2.7.4,1.6.8,2.7,3.5-.7,7.3-1.4,8.4-1.6.5,0,1-.3,1.4-.4l2.2,1.5c-1.1,2.4-4,6.5-5.9,8.6l-3-1.5c1.4-1.3,3.4-3.6,4-5-.7,0-3.4.7-6.4,1.3,1,3.8,2.2,8,2.7,9.5.2.4.5,1.7.8,2.2l-3.8.9c0-.8-.3-1.6-.5-2.4-.4-1.5-1.5-5.8-2.5-9.6-2.3.5-4.3.9-5.2,1.1l-.9-3.3c.9,0,1.6-.2,2.5-.3.3,0,1.4-.3,2.7-.4-.3-1-.5-2-.7-2.6-.2-.7-.4-1.4-.8-2l3.7-.9c0,.6.3,1.4.4,2.1h0Z"/>
  <path class="st1" d="M65.2,13.9v11.7h-4c0-.5.2-1.6.2-2.4v-9.3c0-.5,0-1.5,0-2.2h4v2.2h0ZM78,14.2v5.4c0,5.9-1.1,8.5-3.2,10.8-1.8,2-4.6,3.4-6.7,4l-2.8-3c2.8-.6,5-1.7,6.6-3.4,1.9-2.1,2.2-4.1,2.2-8.4v-5.3c0-1.1,0-2-.2-2.8h4.1c0,.8,0,1.6,0,2.8Z"/>
  <path class="st1" d="M110.7,15.7c-1.3,2.2-3.9,5.6-6.6,7.6l-2.8-2.3c2.2-1.4,4.4-3.8,5.1-5.2h-14.4c-1.1,0-2.1,0-3.4.2v-3.8c1,.2,2.2.3,3.4.3h14.8c.8,0,2.3,0,2.8-.3l2.2,2.1c-.3.3-.9,1-1,1.5ZM92.8,34.4l-3.2-2.6c.9-.3,1.9-.8,2.9-1.5,3.5-2.4,4.1-5.3,4.1-9.9s0-1.6-.2-2.5h4c0,6.8-.2,12.5-7.7,16.4h0Z"/>
  <path class="st1" d="M128.5,34.6l-2.9-2.8c5.3-1.8,7.7-4.2,7.7-11v-1h-6.5v3.8c0,1.2,0,2.3,0,2.9h-3.9c0-.5.2-1.6.2-2.9v-3.8h-2.3c-1.4,0-2.4,0-3,0v-3.8c.4,0,1.6.3,3,.3h2.3v-2.8c0-.8,0-1.6-.2-2.5h3.9c0,.5-.2,1.4-.2,2.5v2.8h6.5v-2.9c0-1.1,0-2-.2-2.6h4c0,.5-.2,1.5-.2,2.6v2.9h2.1c1.5,0,2.3,0,3-.2v3.7h-5.1v.9c0,6.8-1.6,11-8.3,13.9v-.2Z"/>
  <path class="st1" d="M152.2,30.6l-3-2.1c1.8-1.7,4-4.8,5.2-7.1l3.1,1.5c-1.3,2.4-3.8,6-5.3,7.7h0ZM163.7,13.5v2.2h6.5c.8,0,2,0,2.8-.2v3.6h-9.1v12.8c0,1.6-.9,2.6-2.8,2.6s-3.1,0-4.5-.3l-.3-3.4c1.2.3,2.4.3,3.1.3s1-.3,1-1v-11h-7c-.9,0-1.9,0-2.7,0v-3.7c.9,0,1.8.3,2.7.3h7v-2.2c0-.7-.2-1.9-.3-2.4h4c0,.3-.3,1.7-.3,2.4h0ZM174,28.7l-3.3,1.7c-1.2-2.4-3.1-5.7-4.5-7.4l3-1.6c1.4,1.7,3.6,5.3,4.7,7.2h0ZM171,9c1.7,0,3.2,1.5,3.2,3.2s-1.4,3.2-3.2,3.2-3.2-1.5-3.2-3.2,1.5-3.2,3.2-3.2ZM171,13.7c.9,0,1.5-.7,1.5-1.5s-.7-1.5-1.5-1.5-1.5.7-1.5,1.5.7,1.5,1.5,1.5Z"/>
  <path class="st1" d="M185.6,20.3h14.8c1.3,0,2.5,0,3.2-.2v4.3c-.7,0-2.1-.2-3.2-.2h-14.8c-1.5,0-3.4,0-4.5.2v-4.3c1,0,3,.2,4.5.2Z"/>
  <path class="st1" d="M212.2,14.4c0-.9,0-2.3-.3-3.3h4.3c0,.9-.3,2.2-.3,3.3v4c3.7,1,9,3,11.5,4.3l-1.5,3.8c-2.8-1.5-7-3.1-10-4.1v7.8c0,.8.2,2.8.3,3.9h-4.3c.2-1.1.3-2.8.3-3.9v-15.8h0Z"/>
  <g class="st0">
    <path class="st1" d="M20.1,14.3c-.8,2.2-2.1,5-3.8,7.6,2.5,2,4.8,4.2,6.7,6.2l-2.9,3.2c-2-2.3-4-4.3-6.2-6.2-2.5,3-5.7,6.1-10.4,8.7l-3.1-2.8c4.6-2.2,7.9-4.9,10.6-8.3-2-1.6-4.7-3.6-7.6-5.3l2.4-2.9c2.2,1.4,5.2,3.4,7.4,5.1,1.4-2.2,2.4-4.5,3.1-6.7.3-.7.6-1.8.7-2.6l4.2,1.5c-.4.6-.9,1.9-1.2,2.5h0Z"/>
    <path class="st1" d="M36.8,18.6h18.3c.6,0,1.8,0,2.5-.2v3.6h-9.2c-.2,2.9-.8,5.2-1.8,7.2s-3.1,4.1-5.6,5.4l-3.3-2.4c2-.8,3.9-2.4,5.1-4,1.1-1.7,1.6-3.8,1.7-6.2h-7.7c-.8,0-1.9,0-2.7.1v-3.7c.8.1,1.8.2,2.7.2ZM40.3,11.4h9.2c1,0,2.1,0,3-.2v3.6h-15.2v-3.6c.9.1,2,.2,3,.2ZM56.4,13.1l-2.2,1c-.6-1.1-1.5-2.8-2.2-3.9l2.2-.9c.7,1,1.7,2.8,2.2,3.8ZM59.8,11.8l-2.2,1c-.6-1.2-1.5-2.8-2.2-3.9l2.2-.9c.7,1.1,1.8,2.8,2.3,3.8h0Z"/>
    <path class="st1" d="M77.7,20.4c2.7-1.7,5.5-4.2,7-6l2.8,2.7c-1.3,1.5-3.8,3.4-6.3,5.1v9.6c0,1,0,2.5.2,3h-4.1c0-.6,0-2,0-3v-7.4c-2.5,1.2-5.6,2.5-8,3.3l-1.7-3.3c3.6-.8,7.8-2.7,10-4Z"/>
    <path class="st1" d="M123.8,14.9c-1.3,2.2-4,5.7-6.7,7.7l-2.9-2.3c2.2-1.4,4.4-3.8,5.2-5.2h-14.6c-1.2,0-2.1,0-3.4.2v-3.9c1.1.2,2.2.3,3.4.3h15.1c.8,0,2.3,0,2.9-.3l2.2,2.1c-.3.4-.8,1-1.1,1.5h0ZM105.7,33.9l-3.3-2.7c.9-.3,1.9-.8,2.9-1.5,3.6-2.5,4.2-5.4,4.2-10s0-1.6-.2-2.5h4.1c0,6.9,0,12.7-7.8,16.7h.1Z"/>
    <path class="st1" d="M144.4,23.7c-.8.3-1.7.5-2.5.7v6.7c0,1.7-.3,2.5-1.2,3.1s-2.2.7-4.2.7c0-.9-.5-2.3-.9-3.2h2.6c.3,0,.5,0,.5-.5v-5.7l-3.1.8-.7-3.2c1.1-.2,2.4-.5,3.8-.9v-5h-3.2v-3.1h3.2v-5.3h3.2v5.3h2.3v3.1h-2.3v4.3l2.1-.6.4,3v-.2ZM160.8,21v1.3c-.4,7.4-.8,10.3-1.7,11.3-.6.8-1.3,1-2.2,1.1h-3.6c0-.7-.3-1.7-.7-2.4h-3.1c-2.8,0-3.4-.8-3.4-3.3v-2.3c-.4.3-.7.7-1.1,1-.5-.6-1.6-1.8-2.3-2.3,2.1-1.4,3.8-3.6,5-6h-1.8v-9.9h13.8v9.9h-8.6c-.2.5-.4,1.1-.7,1.6h10.6-.2ZM152.4,29.8c.6,0,.8-.2.9-1.6.6.4,1.7.8,2.5,1-.2,1.7-.6,2.5-1.6,2.9h1.2c.5,0,.7,0,1-.4.6-.6,1-2.8,1.3-8h-9c-.2.2-.3.4-.5.6h.7v1.5c1.5-.4,3-.9,4-1.4l1.9,2c-1.7.7-4,1.3-5.9,1.7v.7c0,.7.1.8,1,.8h2.5v.2ZM148.8,13.4h7.6v-1.5h-7.6v1.5ZM148.8,17h7.6v-1.5h-7.6v1.5Z"/>
    <path class="st1" d="M193.1,19.4c-1.1,3.5-2.6,6.6-4.5,9.2.6,1.8,1.3,2.9,2.2,2.9s.8-1.3,1-4.6c.7.8,1.8,1.5,2.6,1.8-.4,4.9-1.5,6.1-3.9,6.1s-3.2-1.2-4.2-3.3c-1.2,1.3-2.6,2.4-4.1,3.4-.5-.8-1.4-1.8-2.2-2.5h-2.6v2.5h-2.9v-2.5h-5.5v-2.4h5.5v-1.1h-4.6v-6.9h4.5v-1.1h-5v-2.3h5v-1.2h-5.8v-2.7h5.7v-1.5h-4.5v-2.5h4.5v-1.9h3.2v1.9h4.5v2.5h-4.5v1.5h5.9c0-1.9-.1-3.9-.1-5.9h3.4v5.9h7.3v2.7h-7.1c.2,2.7.4,5.1.8,7.2,1-1.8,1.9-3.8,2.5-6l3,.9h0ZM172.1,24.6h2.5v-1h-2.5v1ZM172.1,27.2h2.5v-1h-2.5v1ZM179.6,24.6v-1h-2.6v1h2.6ZM179.6,27.2v-1h-2.6v1h2.6ZM182.4,30.5c.9-.7,1.8-1.5,2.5-2.5-.8-2.9-1.3-6.7-1.5-10.8h-6.2v1.2h5.1v2.3h-5.1v1.1h4.7v6.9h-4.8v1.1h5.1v.6h.2ZM190.9,14.4c-.6-1.1-2.2-2.8-3.4-4l2.4-1.6c1.2,1.1,2.8,2.7,3.5,3.8l-2.6,1.8h.1Z"/>
    <path class="st1" d="M218,27.9c2,2.2,5.1,3.5,9.5,4-.7.7-1.5,2-2,2.9-5.3-.8-8.7-2.8-10.9-6.3-1.7,2.5-4.8,4.7-10.5,6.2-.4-.7-1.3-2-2.1-2.7,4.7-1.1,7.4-2.5,8.9-4.2h-8.4v-2.9h10.1c.1-.6.2-1.2.3-1.8h-7.2v-2.7h7.2v-1.7h-7.6v-1.8h-2.5v-6h10.2v-2.4h3.4v2.4h10.2v6h-2.2v1.8h-8.2v1.7h7.6v2.7h-7.6c0,.6,0,1.2-.2,1.8h11.1v2.9h-9.2,0ZM213,16.2v-1.6h3.3v1.6h7v-2.2h-17.1v2.2h6.8Z"/>
    <path class="st1" d="M239.9,25.5c-.3,2.7-.9,5.4-1.7,7.2-.6-.4-1.8-.9-2.4-1.2.8-1.7,1.2-4.1,1.4-6.5l2.7.4h0ZM243.1,23.2v11.6h-2.9v-11.3l-4,.3-.2-2.9h2c.4-.6.8-1.2,1.3-1.8-.8-1.3-2.1-2.8-3.2-3.9l1.6-2.2c.2.2.4.4.6.6.8-1.5,1.6-3.4,2-4.8l2.9,1c-1,1.9-2.1,4.1-3.2,5.7.3.4.6.8.9,1.1,1-1.6,1.9-3.2,2.5-4.5l2.7,1.3c-1.5,2.4-3.4,5.1-5.2,7.4l2.6-.2c-.3-.6-.6-1.3-.9-1.8l2.4-1c1,1.9,2.1,4.3,2.4,5.9l-2.5,1.1c0-.4-.2-1-.4-1.5h-1.5,0ZM245.8,24.8c.7,1.6,1.3,3.6,1.4,4.9l-2.5.8c-.1-1.4-.7-3.4-1.3-5l2.3-.7h.1ZM257.9,30.3c1.7,1,3.6,2.2,4.8,3l-2.9,1.6c-1-.9-3-2.2-4.6-3.3l1.7-1.3h-5.1l1.9,1.2c-1.7,1.3-4.5,2.7-6.7,3.4-.5-.6-1.4-1.5-2-2.1,1.9-.6,4.1-1.6,5.5-2.5h-2.4v-11.5h12.9v11.5h-3.1ZM252.6,12h-5.6v-2h5.6v-1.3h3.3v1.3h5.8v2h-5.8v1h5.2v1.9h-5.2v1h6.4v2.1h-16v-2.1h6.3v-1h-5v-1.9h5v-1h0ZM250.9,22h6.8v-1.2h-6.8v1.2h0ZM250.9,25.1h6.8v-1.2h-6.8v1.2h0ZM250.9,28.2h6.8v-1.2h-6.8v1.2h0Z"/>
  </g>
</svg>