<svg xmlns="http://www.w3.org/2000/svg" viewBox="0 0 291.05 29.06"><title>アセット 312x@f</title><g id="レイヤー_2" data-name="レイヤー 2"><g id="contents"><path d="M58.8,23.94c0,1.07.07,2.15.07,3.25,0,.59-.23.63-1,.63H56.53c-.75,0-1,0-1-.63,0-1.1.07-2.18.07-3.25V18.41c0-.19,0-.37-.19-.37s-.16.09-.33.09a1,1,0,0,1-.7-.44,7,7,0,0,1-1.26-2.18,1.16,1.16,0,0,1,.32-.7c.07-.1.19-.24.26-.33a23.3,23.3,0,0,0,3.89-7.35c.11-.37.21-.68.51-.68a13.42,13.42,0,0,1,2.2.77l.42.17c.26.09.82.3.82.63a.37.37,0,0,1-.37.3c-.21,0-.26,0-.38.35a37.28,37.28,0,0,1-1.87,4.05,1,1,0,0,0-.16.43c0,.23.18.28.32.32a.24.24,0,0,1,.17.26c0,.14-.07.21-.21.33a3.61,3.61,0,0,0-.24,1.73Zm10-4.94c0,1.1.07,2.17.07,3.27,0,.57-.25.61-1,.61H66.53c-.7,0-.94,0-.94-.58,0-1.1.07-2.2.07-3.3V16.94c0-.26,0-.59-.37-.59a1.86,1.86,0,0,0-.94.38c-.23.23-.23.37-.23.82v5.38c0,1.05.07,1.17.91,1.17h5c.94,0,1.27-.21,1.5-1.94a.41.41,0,0,1,.47-.38,8.23,8.23,0,0,1,2,.4c.5.14.75.31.75.87a6.16,6.16,0,0,1-1.4,3.46,3,3,0,0,1-2.51.75h-6.2c-1.89,0-3.58-.4-3.58-2.69,0-.66,0-1.31,0-2v-4c0-.33,0-.61-.35-.61a.41.41,0,0,0-.16,0,.62.62,0,0,1-.19,0c-.23,0-.33-.21-.42-.42a9.64,9.64,0,0,1-.7-2.13c0-.37.37-.42.91-.59.73-.23.91-.35.91-1.14V11.44c0-.42,0-.82,0-1.22a.51.51,0,0,1,0-.21c0-.33.24-.33.49-.33s2.28.07,2.63.1.49.07.49.32-.1.21-.21.33a2.08,2.08,0,0,0-.21,1.22v1c0,.43,0,.71.35.71a2,2,0,0,0,1-.4,1.21,1.21,0,0,0,.21-.8v-3a14.9,14.9,0,0,0-.07-1.85,1.11,1.11,0,0,1,0-.23c0-.28.23-.31.44-.31.77,0,2,.07,2.48.1.24,0,.73,0,.73.32,0,.14-.09.21-.21.33a.91.91,0,0,0-.21.73c0,.58,0,1.19,0,1.8v1c0,.35,0,.75.33.75a11.7,11.7,0,0,0,1.41-.45l.35-.14a2.94,2.94,0,0,1,.91-.18,2.67,2.67,0,0,1,1.57,1A1.43,1.43,0,0,1,73.67,13c0,.05-.1,6.18-.1,6.25-.07,1.9-1.71,2.49-3.34,2.49-.75,0-1.2-.1-1.2-2.34,0-.31,0-.75.45-.75.16,0,.32,0,.54,0s.3-.16.32-.68c0-.84.1-1.73.1-2.59,0-.47,0-.73-.33-.73a3.24,3.24,0,0,0-1,.33c-.33.21-.33.54-.33.89Z" style="fill:#ed6c00"/><path d="M89.74,10.24c.11-.44.23-.89.3-1.26s.1-.66.4-.66A29.17,29.17,0,0,1,93.9,9.59c.47.21.61.35.61.47s-.07.14-.16.18a1.43,1.43,0,0,0-.87,1,18.9,18.9,0,0,0-1.42,6.65c0,1.29,0,1.92.3,1.92s.28-.19.4-.37.28-.5.54-.5,1.21.8,1.21,1.15-1,2.13-1,3.39c0,.17,0,.75.1,1.1,0,.15.07.54.07.68,0,.87-1.74,1.55-2.46,1.55-.45,0-.66-.31-1.08-1.15a17,17,0,0,1-1.5-7.51A28.63,28.63,0,0,1,89.74,10.24Zm6.69,10a3.66,3.66,0,0,0,3.28,1.56,19,19,0,0,0,5.13-.75,2.62,2.62,0,0,1,.56-.09c.3,0,.44.3.47.52A23.81,23.81,0,0,1,106,24c0,.3,0,.47-.33.61a26.47,26.47,0,0,1-5.78.75c-3.77,0-5.43-1.88-5.43-2.41s1.17-2.81,1.71-2.81C96.27,20.1,96.36,20.21,96.43,20.29Zm0-10.14a5.63,5.63,0,0,1,.72.09,16.88,16.88,0,0,0,3.09.33,14.5,14.5,0,0,0,3.47-.47,2.46,2.46,0,0,1,.46-.07c.45,0,.59.49.64.85a17.53,17.53,0,0,1,.14,1.91c0,.57-.07.73-.68.82a27.37,27.37,0,0,1-3.94.28c-.7,0-3.93-.11-4.37-.49-.19-.16-.19-.86-.19-1.12C95.73,10.55,95.82,10.15,96.39,10.15Z" style="fill:#ed6c00"/><path d="M129.61,7.67c.28.07.54.16.54.3s-.16.24-.44.42a4.54,4.54,0,0,0-.42,1.32.71.71,0,0,0,0,.18c0,.07,0,.17,0,.26s.11.33.28.33a3,3,0,0,0,.51-.14,1.18,1.18,0,0,1,.4-.1c.21,0,.28.12.33.35A23.08,23.08,0,0,1,131,13c0,.54-.33.63-2.15,1-.82.14-.85.3-1.13,1-.39,1.08-.84,2.13-1.31,3.18-.61,1.39-1.24,2.79-2,4.12-.19.33-.42.71-.57,1a.48.48,0,0,1-.51.35c-.8,0-3-1-3-1.59a3.88,3.88,0,0,1,.49-.94c.47-.79,3-5.45,3-6a.37.37,0,0,0-.4-.35c-.14,0-.61.05-.77.07s-.75.07-1,.07c-.49,0-.7-.21-.87-2.2,0-.19-.07-.61-.07-.82s.19-.42.47-.42,1,0,1.47,0c2.13,0,2.44,0,2.67-.66a15.26,15.26,0,0,0,.59-3.63c0-.18,0-.37.16-.37C126.34,6.85,129.15,7.55,129.61,7.67ZM132.75,15c.4.09.61.26.61.68,0,.23-.05.65-.05,1.07,0,1.17.09,2.32.17,3.47,0,.56.14.7.67.91s3.61,1.64,3.61,2.29-1.31,2.44-2.06,2.44c-.19,0-.52-.21-1-.61-.14-.12-.28-.23-.45-.35a.54.54,0,0,0-.89.26,4.1,4.1,0,0,1-.79,1.1,4.09,4.09,0,0,1-2.83.89c-2.23,0-4.54-1.08-4.54-3.61,0-2.34,2.06-3.35,4.14-3.35h.19a.51.51,0,0,0,.56-.56c0-.4-.21-2.48-.28-3.18a8.18,8.18,0,0,1-.1-1.1c0-.49.19-.68.71-.68A13.81,13.81,0,0,1,132.75,15Zm-4.12,8.54c0,.47.47.7.87.7s.72-.28.72-.77c0-.3,0-.56-.7-.56C129.12,22.93,128.63,23.09,128.63,23.56Zm8.05-11.33c.54.49,2,1.9,2,2.39,0,.73-1.89,2.34-2.48,2.34-.28,0-.49-.35-.65-.61a15.23,15.23,0,0,0-2.93-3c-.18-.14-.42-.3-.42-.49,0-.37,1.5-2.29,2.15-2.29C134.81,10.55,136.31,11.88,136.68,12.23Z" style="fill:#ed6c00"/><path d="M156.85,11.25c.23.05.49.12.49.33s-.07.16-.23.28a1.62,1.62,0,0,0-.45,1,17.26,17.26,0,0,0-.3,3.28,10.9,10.9,0,0,0,.84,4.49c.19.4.61,1.15,1.12,1.15s1.08-1,1.29-1.34.38-.58.73-.58c.7,0,2.43,1.33,2.43,1.89s-1.08,1.8-1.47,2.25a3.91,3.91,0,0,1-2.93,1.68,5,5,0,0,1-3.77-2.36c-1.73-2.43-1.89-5.85-1.89-8.73,0-.44.09-3.28.11-3.6s.14-.38.4-.38S156.26,11.13,156.85,11.25Zm8.57-.75c.63,0,2.48,1.45,3.51,3.11a12.9,12.9,0,0,1,1.73,4.8c.05.38.12.94.12,1.22,0,.49-.12.7-.59.84a8.11,8.11,0,0,1-2.22.4c-.87,0-.89-.3-1-1.19a8.35,8.35,0,0,0-3.42-6.63.48.48,0,0,1-.23-.4C163.36,12.12,164.71,10.5,165.42,10.5Z" style="fill:#ed6c00"/><path d="M199.07,14.55c1.07,0,2.2-.05,3.27-.05.66,0,.71.21.71,1.29v.89c0,1.12-.17,1.36-.75,1.36-1.08,0-2.16-.05-3.23-.05h-2.51c-.54,0-.68.35-.75.82a11,11,0,0,1-2.62,5.59c-1.4,1.41-4.28,2.91-5,2.91s-2.55-2.32-2.55-2.79c0-.28.4-.35.75-.44,2.83-.8,4.61-1.83,5.52-4.8a4.13,4.13,0,0,0,.19-.75.51.51,0,0,0-.54-.54h-4c-1,0-2.46.07-3.07.07s-.72-.35-.72-1.45v-.87c0-1.19.16-1.26.72-1.26s2,.07,3.07.07Zm-3.37-6c1.1,0,2.17,0,3.25,0,.65,0,.72.23.72,1.31V11c0,.88,0,1.14-.77,1.14-1.05,0-2.08,0-3.11,0h-5.17c-1.06,0-2.11,0-3.16,0-.71,0-.75-.21-.75-1.4V9.87c0-1,.07-1.31.72-1.31,1,0,1.95,0,2.88,0Z" style="fill:#ed6c00"/><path d="M221.11,11.81a.63.63,0,0,0,.56-.63,4.11,4.11,0,0,0-.07-.47l-.14-.61c-.05-.28-.49-2.1-.49-2.2,0-.25.35-.32.77-.35.94-.07,1.9-.14,2.85-.14.22,0,.43,0,.43.17a.73.73,0,0,1-.12.35,1,1,0,0,0-.19.56c0,.3.24,1.4.31,1.78l0,.18a.76.76,0,0,0,.75.68h.1l1.47-.23c.45-.05,3.16-.49,3.28-.49.54,0,.56.51.68,1.07,0,.38.23,1.39.23,1.71,0,.56-.35.61-1.87.8-.49,0-1.08.12-1.83.23l-1.43.21a.64.64,0,0,0-.49.64v.11l.28,1.43a.71.71,0,0,0,.71.59H227l3.14-.45c.46-.07,3.32-.54,3.44-.54.54,0,.61.52.68,1.2l.07.46a10.41,10.41,0,0,1,.11,1.08.61.61,0,0,1-.58.7l-3.26.42-3,.43a.66.66,0,0,0-.54.58.68.68,0,0,0,0,.19l.17.84c.14.68.86,4,.86,4.38s-.4.44-.7.51a16.2,16.2,0,0,1-2.32.42c-.42,0-.54-.32-.6-1-.15-1.19-.38-2.36-.59-3.53l-.21-1.05a.76.76,0,0,0-.73-.64h-.09l-3.63.52c-.49.07-2.95.49-3.18.49-.45,0-.54-.28-.63-.65s-.31-2-.31-2.28c0-.46.33-.51,1.64-.65.52-.05,1.17-.12,2-.23l3.49-.5a.62.62,0,0,0,.54-.6.66.66,0,0,0,0-.17l-.26-1.36a.68.68,0,0,0-.68-.6h-.16l-1.6.23c-.49.07-3.13.49-3.37.49s-.53-.35-.6-.7-.26-1.78-.26-2.13c0-.52.33-.56,1.75-.73.52-.07,1.22-.14,2.09-.28Z" style="fill:#ed6c00"/><path d="M258.22,9.82a12.55,12.55,0,0,0,1.62-.07,5.65,5.65,0,0,1,.58,0c.73,0,2,1.75,2,2.08a2.48,2.48,0,0,1-.35.72,42.35,42.35,0,0,1-3.25,5.06.63.63,0,0,0-.19.44.54.54,0,0,0,.33.5,46.82,46.82,0,0,1,4.26,3.32c.23.21,1,.94,1.22,1.15a.34.34,0,0,1,.14.28c0,.65-2,2.71-2.62,2.71-.35,0-.66-.37-.92-.68a.46.46,0,0,0-.11-.16,25.83,25.83,0,0,0-4.12-3.77A2,2,0,0,0,256,21a.82.82,0,0,0-.58.28,26.51,26.51,0,0,1-3.68,2.81,16.13,16.13,0,0,1-3.25,1.66c-.42,0-1.29-1.28-1.54-1.66a3.6,3.6,0,0,1-.59-1.26c0-.35.33-.49.61-.59a20.87,20.87,0,0,0,9.62-7.67,1.6,1.6,0,0,0,.33-.71c0-.39-.4-.44-.8-.44H252.6c-1,0-2.13,0-3.2,0-.59,0-.64-.28-.64-1.13V10.73c0-.81.05-1,.61-1,1.08,0,2.16.07,3.23.07Z" style="fill:#ed6c00"/><path d="M285.18,24c0,.78,0,1.55,0,2.34,0,1.13-.07,1.22-1.59,1.22h-1.05c-.94,0-1.22-.12-1.22-.72,0-.94.05-1.85.05-2.79V10.52c0-1-.05-2.17-.05-2.9,0-.3.05-.44.37-.44a32.94,32.94,0,0,1,3.61.47.32.32,0,0,1,.26.28.42.42,0,0,1-.14.28,1.19,1.19,0,0,0-.26.84v4.54c0,.12,0,.33.28.33s.28-.1.4-.1a2.47,2.47,0,0,1,.86.38c.75.47,1.71,1.22,2,1.45a27.79,27.79,0,0,1,2.15,1.9.59.59,0,0,1,.16.37c0,.47-1.71,2.37-2.24,2.37-.21,0-.45-.24-.59-.38a14.3,14.3,0,0,0-2.69-2.11c-.33,0-.35.33-.35.57Z" style="fill:#ed6c00"/><path d="M14.2,23.44c2,0,6.24-.08,6.51-.08.82,0,1,.24,1,1.13v3.43c0,.9-.15,1.14-1,1.14-.27,0-4.49-.08-6.51-.08H8.62c-2.07,0-6.63.08-6.9.08-.82,0-1-.24-1-1.14V26.25a1.64,1.64,0,0,1,1-1.83c.78-.55,1.4-1,2.14-1.64,7.45-6.32,10.8-9.71,10.8-12.91,0-2.15-1.4-3.63-4.21-3.63A7.64,7.64,0,0,0,4.91,9c-.35.39-.54.59-.78.59s-.42-.2-.78-.55L.47,5.93A1.38,1.38,0,0,1,0,5.07c0-.23.16-.47.51-.82A14.86,14.86,0,0,1,11,0c6.71,0,10.53,3.82,10.53,8.81,0,5.19-4,9.52-9.09,13.89-.31.27-.43.43-.43.55s.24.19.71.19Z" style="fill:#f4891e"/></g></g></svg>