<?xml version="1.0" encoding="UTF-8"?>
<svg id="_レイヤー_1" xmlns="http://www.w3.org/2000/svg" version="1.1" viewBox="0 0 262.2 27.4">
  <!-- Generator: Adobe Illustrator 29.5.0, SVG Export Plug-In . SVG Version: 2.1.0 Build 137)  -->
  <defs>
    <style>
      .st0 {
        fill: #3b241a;
      }
    </style>
  </defs>
  <path class="st0" d="M28.2,18l-11.5,1.2.8,8.6-4.5.4-.7-8.5L.4,20.8,0,16.9l11.9-1.2-.5-5.2-10.1.9-.3-3.9,10.1-.9-.4-4.8,4.4-.4.4,4.8,9.8-.8.4,3.8-9.8.9.4,5.1,11.5-1.2.4,4Z"/>
  <path class="st0" d="M46.7,27.7l-3.6.4-2.8-14.2-5,.7-.5-3.3,4.9-.6-1-5,3.6-.4,1,4.9,13.5-1.8,1.8,1.4c-1.4,4.2-4,7.9-7.7,10.9l-2.5-2.3c2.1-1.7,3.9-3.9,5.3-6.4l-9.7,1.3,2.9,14.3Z"/>
  <path class="st0" d="M75.5,18.7h-4.4V2.6h4.4v16.1ZM91.6,14.3c0,8.3-5.8,12.8-17.3,13.5l-1-3.9c5-.4,8.5-1.4,10.6-3s3.1-4,3.1-7.1V2.1h4.5v12.2Z"/>
  <path class="st0" d="M128.1,4.2c-.1.8-.6,2.1-1.5,3.9-.9,1.8-2.2,3.6-4.1,5.3s-3.6,3.1-5.3,4l-2.3-3c1.5-.8,2.9-2,4.2-3.4s2.4-2.8,3.1-4.2h-21.2v-3.8h25.6l1.3,1.1ZM115.1,8.2v.7c0,2,0,3.7-.1,5,0,1.3-.3,2.7-.8,4.2s-1.2,2.9-2.2,4.2c-1,1.3-2.3,2.4-3.8,3.3s-3.3,1.7-5.3,2.2l-1.6-3.5c3.6-1.1,6.1-2.7,7.4-4.8s1.9-4.9,1.9-8.5v-2.8s4.4,0,4.4,0Z"/>
  <path class="st0" d="M157.2,8.2h5.2v3.8h-5.2v2.7c0,4.1-1.5,7.3-4.4,9.5s-7.3,3.4-12.9,3.5l-.6-3.9c5.1-.2,8.7-1.1,10.6-2.7s3-3.8,3-6.5v-2.7h-9v7.1h-4.4v-7.1h-5.3v-3.8h5.3V2.1h4.4v6h9V1.7h4.4v6.5Z"/>
  <path class="st0" d="M178,12.5c-1.3,5.8-3.8,10.4-7.4,13.8l-3.4-2.3c2.1-2.3,3.7-4.5,4.6-6.7.9-2.2,1.5-3.9,1.7-5.2l4.5.4ZM184.2,27.8h-4.4V10.4h-11.1v-3.7h11.1V1.9h4.4v4.8h11v3.7h-11v17.4ZM196.9,24.1l-3.6,2.3c-1.7-1.8-3.2-4-4.5-6.7-1.3-2.7-2.1-5.1-2.5-7.2l4.2-.6c.3,1.5,1.1,3.4,2.2,5.6s2.5,4.4,4.2,6.5ZM195.4,3c0,.9-.3,1.7-.9,2.2s-1.4.9-2.4.9-1.7-.3-2.4-.9-.9-1.3-.9-2.2.3-1.7.9-2.2,1.4-.9,2.4-.9,1.7.3,2.4.9.9,1.3.9,2.2ZM193.4,1.7c-.4-.4-.8-.5-1.3-.5s-1,.2-1.3.5-.5.8-.5,1.3.2,1,.5,1.3.8.5,1.3.5,1-.2,1.3-.5c.4-.4.5-.8.5-1.3s-.2-1-.5-1.3Z"/>
  <path class="st0" d="M228.5,17.1h-26.9v-3.9h26.9v3.9Z"/>
  <path class="st0" d="M262.5,16.6l-2.8,3.5c-4.2-2.8-8.5-5-12.9-6.5v14.3h-4.6V1.4h4.7v7.8c4.9,1.6,10.2,4.1,15.7,7.4Z"/>
</svg>