<?xml version="1.0" encoding="UTF-8"?>
<svg id="_レイヤー_1" data-name="レイヤー_1" xmlns="http://www.w3.org/2000/svg" version="1.1" viewBox="0 0 317.7 54">
  <!-- Generator: Adobe Illustrator 29.4.0, SVG Export Plug-In . SVG Version: 2.1.0 Build 152)  -->
  <defs>
    <style>
      .st0 {
        fill: #3b241a;
      }
    </style>
  </defs>
  <path class="st0" d="M11.7,14.8c1.4,2.1,3,4.8,3.5,6.7l-3.2,1.3c-.1-.5-.3-1-.5-1.5-3.8.3-7.8.5-10.7.7l-.3-3.3c.7,0,1.5,0,2.3,0,.8-1.8,1.6-4.1,2.1-5.8l3.6.7c-.7,1.7-1.5,3.4-2.2,5l3.9-.2c-.4-.8-.9-1.6-1.4-2.4l2.9-1.1ZM13.1,36.5c0,1.5-.3,2.3-1.2,2.8-1,.6-2.3.6-4.1.6-.2-.9-.7-2.2-1.1-3,1,0,2.2,0,2.6,0,.3,0,.5,0,.5-.4v-1.9h-4.4v5.5h-3.2v-16.6h10.9v13.2ZM5.4,26.2v1.5h4.4v-1.5h-4.4ZM9.7,31.9v-1.7h-4.4v1.7h4.4ZM19.6,25.9c-3.4,0-4.2-1-4.2-4.2v-8.7h3.4v4.1c1.9-.8,3.9-1.7,5.2-2.4l2.2,2.5c-2.2,1-4.9,2-7.4,2.7v1.7c0,1,.2,1.2,1.3,1.2h3.2c.9,0,1.1-.4,1.2-3,.7.5,2.1,1.1,3,1.3-.4,3.7-1.3,4.8-3.9,4.8h-4ZM23.5,36.8c1,0,1.2-.6,1.3-3.5.7.5,2.1,1,3,1.3-.4,4.1-1.2,5.2-4,5.2h-4.1c-3.4,0-4.2-1-4.2-4.2v-9.1h3.4v3.9c2.1-.8,4.1-1.8,5.5-2.7l2.3,2.5c-2.2,1.2-5.1,2.3-7.7,3.1v2.3c0,1,.2,1.2,1.3,1.2h3.3Z"/>
  <path class="st0" d="M39.8,25.7c-2.6.5-4.9,1-6.1,1.3l-.7-3.8c1.4-.2,3.9-.6,6.8-1.1v-4.1c0-1,0-2.4-.2-3.3h4.3c-.1.9-.3,2.3-.3,3.3v3.4c4.2-.8,8.3-1.6,9.6-1.9.8-.2,1.5-.4,2.1-.7l2.8,2.1c-.3.4-.7,1.1-1,1.6-1.3,2.4-3.9,6.4-6,8.4l-3.2-1.9c1.9-1.7,3.8-4.4,4.6-5.9-.9.2-4.8,1-8.9,1.8v7.7c0,1.8.5,2.4,3.7,2.4s6.3-.4,9.1-1v3.9c-2.5.3-6,.6-9.1.6-6.6,0-7.6-1.6-7.6-5v-7.9Z"/>
  <path class="st0" d="M74.4,30.9c5-2.9,8.7-7.4,10.6-11.3l2.3,4.1c-2.2,3.9-6.1,7.9-10.7,10.7-2.9,1.8-6.7,3.4-10.8,4.1l-2.4-3.8c4.5-.6,8.3-2.1,11.1-3.8ZM74.4,21.6l-3,3c-1.5-1.6-5.1-4.8-7.3-6.3l2.7-2.9c2,1.4,5.8,4.4,7.5,6.1Z"/>
  <path class="st0" d="M106.6,38.8l-2.2-3.5c1.1-.1,1.9-.3,2.7-.5,3.7-.9,6.6-3.5,6.6-7.8s-2.2-7-6.1-7.7c-.4,2.5-.9,5.1-1.7,7.9-1.7,5.9-4.2,9.5-7.4,9.5s-5.9-3.5-5.9-8.4,5.8-12.4,13.3-12.4,11.7,5,11.7,11.3-3.7,10.4-11.1,11.6ZM98.6,32.3c1.2,0,2.3-1.8,3.5-5.7.7-2.1,1.2-4.6,1.5-7-4.8,1-7.4,5.2-7.4,8.4s1.2,4.4,2.3,4.4Z"/>
  <path class="st0" d="M133.1,32.1c-.6-.8-1.6-2-2.6-3v10.9h-3.4v-10c-1.2,1.1-2.4,2-3.6,2.8-.3-.9-1.1-2.6-1.6-3.3,3.2-1.7,6.2-4.8,8.1-8.1h-7v-3.1h4.1v-5.3h3.4v5.3h1.9c0-.1,1.9,1.1,1.9,1.1-.9,2.2-2,4.3-3.4,6.2,1.4,1.1,3.6,3.1,4.2,3.7l-2.1,2.8ZM149.7,35.8v3.4h-16.4v-3.4h6.7v-10.6h-5.5v-3.3h5.5v-8.7h3.5v8.7h5.5v3.3h-5.5v10.6h6.2Z"/>
  <path class="st0" d="M163.1,22.6c-1.5,1.1-3.2,2.1-4.9,2.9-.4-.8-1.3-2.1-2-2.9,4.9-2.2,9.5-6.3,11.7-9.7h3.6c3.1,4.3,7.7,7.6,12.3,9.2-.9.9-1.6,2.1-2.2,3.2-1.6-.8-3.3-1.7-4.9-2.8v2.3h-13.5v-2.1ZM158,27.2h24v3.2h-13c-.8,1.7-1.8,3.5-2.7,5.1,2.8,0,5.8-.2,8.7-.3-.9-1-1.9-2.1-2.8-3l3-1.6c2.6,2.3,5.3,5.3,6.6,7.5l-3.2,1.9c-.3-.6-.7-1.2-1.2-1.8-6.8.4-14,.7-18.9.9l-.5-3.4h4.4c.8-1.8,1.6-3.7,2.2-5.4h-6.7v-3.2ZM175.4,21.6c-2.2-1.7-4.2-3.6-5.6-5.4-1.2,1.8-3.1,3.7-5.3,5.4h10.9Z"/>
  <path class="st0" d="M208.2,35.2c2.8,1,5.9,2.4,7.8,3.3l-3.8,1.6c-1.7-1-4.7-2.4-7.7-3.6l2.2-1.3h-7.6l2.2,1c-2.4,1.6-6.1,3.1-9.1,3.9-.6-.7-1.8-1.9-2.5-2.5,2.7-.5,5.6-1.4,7.6-2.4h-4.1v-12.8h19.5v12.8h-4.4ZM215.7,21.2h-25.5v-2.7h10.9v-1.7h-8.3v-2.7h20.4v2.7h-8.6v1.7h11.1v2.7ZM196.6,26h12.4v-1.4h-12.4v1.4ZM196.6,29.5h12.4v-1.4h-12.4v1.4ZM196.6,33h12.4v-1.4h-12.4v1.4Z"/>
  <path class="st0" d="M245.8,24c.8,5.5,2.2,10.5,5,13.2-.8.6-1.9,1.9-2.4,2.8-2.1-2.2-3.4-5.3-4.3-9-.9,3.2-2.4,6.3-5,8.9-.3-.4-.8-.9-1.4-1.4-.1.3-.4.5-.7.7-.8.5-1.9.5-3.4.5,0-.8-.4-2-.8-2.7.8,0,1.6,0,1.9,0,.3,0,.3,0,.3-.4v-13.3h-8.2v16.6h-2.8v-19.3h5.3v-2.4h-5.6v-2.9h5.6v-2.4h3.2v2.4h5.8v2.9h-5.8v2.4h5.4v15.4c2.9-3.6,3.7-8.2,3.9-12h-3.5v-3.2h3.5v-7.9h3.4v7.9h4.7v3.2h-4.3ZM232.4,34v4.6h-2.6v-4.6h-2.1v-2.4h2.1v-1.7h-2.2v-2.5h1.1c-.1-.9-.5-2.2-1-3.2l1.8-.5c.5,1,1,2.4,1.1,3.3l-1.4.5h4l-1.7-.4c.3-1,.8-2.5,1-3.5l2.2.5c-.5,1.2-1,2.5-1.4,3.4h1.3v2.5h-2.2v1.7h2.1v2.4h-2.1ZM247.7,19.7c-.3-1.3-1.2-3.4-2.1-4.9l2.7-1c1,1.5,1.9,3.5,2.3,4.8l-2.9,1.1Z"/>
  <path class="st0" d="M262.9,26.9c-1.2-.8-3.7-2.2-5.4-3.1l1.9-2.6c1.6.8,4.2,2,5.5,2.8l-1.9,2.9ZM257.9,37.3c1.5-2.2,3.8-5.8,5.5-9.1l2.5,2.3c-1.5,3-3.4,6.4-5.1,9.2l-2.9-2.3ZM264.1,19c-1.1-.9-3.6-2.2-5.3-3.2l1.9-2.5c1.6.8,4.1,2.1,5.4,2.9l-2.1,2.8ZM277,24.6v3.7h5.9v11.6h-3.3v-1h-8.7v1.2h-3.1v-11.7h5.9v-3.7h-7.7v-3.3h7.7v-3.4c-1.9.3-3.8.5-5.6.7-.1-.8-.6-2.2-1-3,4.9-.5,10.4-1.5,13.6-2.7l2.6,2.7c-1.9.7-4,1.3-6.3,1.7v4h7.4v3.3h-7.4ZM279.6,31.4h-8.7v4.3h8.7v-4.3Z"/>
  <path class="st0" d="M316.8,19.4s0,1.1,0,1.5c-.3,11.9-.5,16.1-1.4,17.4-.7,1-1.3,1.2-2.3,1.5-.9.2-2.2.1-3.6.1,0-1-.4-2.3-1-3.3,1.3.1,2.4.1,2.9.1s.7-.1,1-.5c.6-.8.9-4.3,1.1-13.7h-2.6c-.4,7.8-1.7,13.7-6.6,17.6-.4-.7-1.3-1.7-2-2.3-4.2.4-8.4.9-11.5,1.1l-.4-2.9c1.6-.1,3.7-.3,5.9-.4v-1.7h-5.1v-2.4h5.1v-1.1h-5v-9h5v-1.1h-5.7v-2.5h5.7v-1.2c-1.7.1-3.3.2-4.9.2-.1-.7-.4-1.8-.8-2.4,4.3-.2,9.3-.7,12.5-1.4l1.5,2.6c-1.5.3-3.3.6-5.2.8v1.4h5.6v1.6h2.7c0-1.9,0-3.9,0-6.1h3.3c0,2.1,0,4.1,0,6.1h5.9ZM294,24.9h2.3v-1.3h-2.3v1.3ZM296.2,28.3v-1.3h-2.3v1.3h2.3ZM299.4,35.5c1.7-.1,3.4-.3,5-.4,2.3-3.1,3-7.3,3.2-12.5h-2.6v-2.3h-5.6v1.1h5.1v9h-5.1v1.1h5.2v2.4h-5.2v1.5ZM301.6,24.9v-1.3h-2.3v1.3h2.3ZM299.4,27v1.3h2.3v-1.3h-2.3Z"/>
</svg>