<svg xmlns="http://www.w3.org/2000/svg" viewBox="0 0 309.3 29.37"><title>アセット 322x@f</title><g id="レイヤー_2" data-name="レイヤー 2"><g id="contents"><path d="M77.33,7.2c.73,0,1.43,0,2.16,0s.65.19.65.75V9c0,.63,0,.82-.65.82s-1.43-.05-2.16-.05H71.25c-.73,0-1.45.05-2.18.05s-.66-.21-.66-1V8.65c0-.21,0-.4-.18-.4s-.42.4-.49.59c-.47,1.08-1.32,2.88-1.88,3.88a.52.52,0,0,0-.11.33c0,.26.23.33.42.35s.37.1.37.31-.07.18-.23.32a1.19,1.19,0,0,0-.24.8v9.08c0,1.08.07,2.16.07,3.26,0,.58-.25.63-1,.63H63.66c-.77,0-1-.05-1-.63,0-1.1.07-2.18.07-3.26V18.43c0-.18,0-.39-.21-.39s-.16.07-.23.14a.52.52,0,0,1-.35.16c-.56,0-1.88-2.25-1.88-2.81,0-.25.22-.54.57-1a24,24,0,0,0,3.93-7.35c.09-.32.19-.72.58-.72a1.42,1.42,0,0,1,.43.07,23.53,23.53,0,0,0,2.62.82.73.73,0,0,0,.37-.14,1.74,1.74,0,0,1,.59-.1c.7,0,1.4,0,2.13,0ZM78.6,13H70.08c-.8,0-1.62,0-2.41,0-.59,0-.64-.18-.64-.77V11.18c0-.59,0-.77.64-.77.79,0,1.61,0,2.41,0H78.6c.79,0,1.61,0,2.41,0,.58,0,.63.18.63.77v1.05c0,.59,0,.77-.63.77C80.21,13,79.39,13,78.6,13ZM72.23,26.65c-.19,0-.49,0-.49.38,0,0,0,.09,0,.16,0,.65-.28.65-1.43.65h-.86c-.89,0-1.17,0-1.17-.6s.07-1.45.07-2.18V22.93c0-.61-.05-1.22-.05-1.83,0-1,.61-1.12,1.45-1.12.66,0,1.34.05,2,.05h5c.68,0,1.34-.05,2-.05.84,0,1.45.14,1.45,1.15,0,.58,0,1.19,0,1.8v2.13c0,.75.07,1.47.07,2.18s-.26.6-1.19.6h-.94c-1,0-1.33,0-1.33-.6v-.19c0-.31-.17-.4-.45-.4Zm5.08-10.58H71.18c-.73,0-1.43.07-2.16.07s-.65-.19-.65-.82v-1c0-.54,0-.72.63-.72s1.45,0,2.18,0h6.13c.72,0,1.45,0,2.18,0s.63.18.63.72v1c0,.63-.05.82-.66.82S78,16.07,77.31,16.07Zm0,3.23H71.18c-.73,0-1.43.05-2.16.05s-.65-.17-.65-.8V17.5c0-.52,0-.7.63-.7s1.45,0,2.18,0h6.13c.72,0,1.45,0,2.18,0s.63.18.63.7v1.05c0,.63-.05.8-.66.8S78,19.3,77.31,19.3Zm-5.62,4.19a.66.66,0,0,0,.66.66h3.81a.68.68,0,0,0,.66-.66v-.3a.67.67,0,0,0-.66-.66H72.35a.65.65,0,0,0-.66.66Z" style="fill:#ed6c00"/><path d="M103.73,17.59c0,.66,0,1.15,0,1.43,0,.77-.84.84-1.43.84H102c-.21,0-.47.05-.47.31s2.18,2.27,2.58,2.57c.11.09.28.24.28.4,0,.51-1.52,2.22-2.06,2.22-.31,0-1.1-1-1.31-1.24a.31.31,0,0,0-.24-.18c-.21,0-.23.23-.23.37,0,1,.07,2,.07,3,0,.51-.23.56-.94.56H98.41c-.68,0-.93-.05-.93-.52,0-.7,0-1.5,0-2.2,0-.37,0-.51-.11-.51s-.24.26-.29.37c-.16.42-.51,1.13-.72,1.55s-.31.54-.47.54c-.65,0-2.55-1-2.55-1.5,0-.12.09-.24.23-.4.49-.61,2.86-4.38,2.86-5,0-.33-.3-.38-.56-.38H95.7c-.59,0-1.43-.07-1.43-.84,0-.28,0-.77,0-1.43V15c0-.59,0-1.08,0-1.43,0-.84.94-.87,1.54-.87.4,0,.94,0,1.17,0a.56.56,0,0,0,.57-.56v-.19a.57.57,0,0,0-.57-.56h-.37c-.73,0-1.45,0-2.15,0s-.66-.28-.66-.91V9.4c0-.63,0-.91.66-.91s1.52,0,2.27,0c.39,0,.79-.14.79-.61,0-.13,0-.7,0-1s.18-.3.42-.3c.63,0,1.75,0,2.43.07.35,0,.73.07.73.33s-.12.21-.21.3a.77.77,0,0,0-.24.54.67.67,0,0,0,.73.65c.68,0,1.33,0,2,0s.65.28.65.91v1.1c0,.66,0,.91-.65.91s-1.36,0-2,0a.62.62,0,0,0-.7.6v.15a.57.57,0,0,0,.56.56l1.1,0c.61,0,1.52,0,1.52.87,0,.33,0,.75,0,1.43Zm-6.28-.4c.17,0,.26-.11.26-.25V15.65a.26.26,0,0,0-.26-.26h-.14a.26.26,0,0,0-.26.26v1.29a.26.26,0,0,0,.26.25Zm3.3,0a.26.26,0,0,0,.26-.25V15.65a.26.26,0,0,0-.26-.26h-.14a.26.26,0,0,0-.26.26v1.29c0,.14.1.23.26.25Zm7.42,6.23c-.14,0-.37,0-.37.21s.65.77.79.91.66.61.66.82a.29.29,0,0,1-.3.26c-.07,0-.24-.05-.38-.05a.32.32,0,0,0-.19.07c-.53.45-3.09,2.25-3.65,2.25s-1.82-1.75-1.82-2.18c0-.18.16-.25.44-.39s2.55-1.29,2.55-1.64-.25-.21-.37-.21c-.63,0-.82-.54-.82-1.08,0-.75.05-1.47.05-2.22V14.55c0-.73-.05-1.47-.05-2.2s.37-1.1,1.17-1.1h.23a.88.88,0,0,0,.71-.26,2.33,2.33,0,0,0,.28-.65c0-.22-.19-.26-.35-.26-.64,0-1.27.07-1.9.07-.47,0-.52-.26-.52-1V8c0-.66,0-.89.52-.89s1.31,0,2.11,0h5c.8,0,1.55,0,2.11,0s.51.21.51.77V9.26c0,.68,0,.89-.49.89-.61,0-1.36-.07-2.13-.07h-.65a1,1,0,0,0-.71.3,1.32,1.32,0,0,0-.35.63c0,.12.1.29.4.29.66,0,1.31-.05,1.94-.05.82,0,1.24.19,1.24,1.08s0,1.47,0,2.22v5.62c0,.75,0,1.47,0,2.22,0,1-.56,1.1-1.33,1.1l-.21,0c-.12,0-.21,0-.21.18a11,11,0,0,0,2.53,1.57c.18.1.32.19.32.4,0,.56-1.19,2.18-1.77,2.18s-3.68-2.18-3.68-2.62.63-.94.87-1.17.25-.24.25-.36-.14-.21-.28-.23Zm2.32-9.15a.29.29,0,0,0-.28-.31h-1.83a.29.29,0,0,0-.28.31v.12a.29.29,0,0,0,.28.3h1.83a.28.28,0,0,0,.28-.3Zm0,3a.29.29,0,0,0-.28-.31h-1.83a.29.29,0,0,0-.28.31v.12a.28.28,0,0,0,.28.3h1.83a.28.28,0,0,0,.28-.3Zm0,3a.29.29,0,0,0-.28-.3h-1.83a.29.29,0,0,0-.28.3v.14a.29.29,0,0,0,.28.31h1.83a.29.29,0,0,0,.28-.31Z" style="fill:#ed6c00"/><path d="M143.74,11.44a8.22,8.22,0,0,1,2.48,6,8.77,8.77,0,0,1-4.7,7.77,9,9,0,0,1-2.79,1.06c-.82,0-2.06-2.16-2.06-2.81,0-.21.21-.31.89-.47,2.72-.7,4.94-2.41,4.94-5.41,0-3.67-2.81-5.12-3.51-5.12-.4,0-.45.42-.47.84-.26,3.25-1.19,7.23-3.35,9.81a4.53,4.53,0,0,1-3.39,1.94,4.17,4.17,0,0,1-3.56-2.41,7.91,7.91,0,0,1-.77-3.51,9.92,9.92,0,0,1,10-10.09A8.65,8.65,0,0,1,143.74,11.44Zm-12.8,7.65c0,.56.14,2.27,1,2.27.56,0,1.35-1.54,1.59-2a21.06,21.06,0,0,0,1.47-6c0-.19-.09-.35-.3-.35C134,13,130.94,15.13,130.94,19.09Z" style="fill:#ed6c00"/><path d="M164.49,15.34c-.84,0-1.68.08-2.52.08-.59,0-.61-.31-.61-.8v-.07a.67.67,0,0,0-.66-.75l-.23,0c-.68,0-1.2,0-1.2-.63,0-.33.07-.93.07-1.4v-.56c0-.71,0-1.48,0-1.71,0-.89.93-.92,1.59-.92.89,0,1.8.05,2.69.05h3.18c.43,0,.75-.16.75-.63s-.09-1-.09-1.12c0-.31.26-.33.51-.33.64,0,1.95.09,2.6.14a1.62,1.62,0,0,0,.31,0c.44,0,.77.07.77.35,0,.12-.12.21-.26.33a.88.88,0,0,0-.21.63c0,.49.45.61.84.61h3.12c.89,0,1.8-.05,2.69-.05.65,0,1.61,0,1.61.92,0,.16-.07,1-.07,1.71v.63c0,.51.07,1.07.07,1.4,0,.56-.35.63-1.05.63h-.44a.68.68,0,0,0-.75.64v.09c0,.56-.07.8-.64.8-.84,0-1.66-.08-2.5-.08h-2.69a.32.32,0,0,0-.31.31v.14a.31.31,0,0,0,.31.3h2c.84,0,1.69,0,2.53,0,.56,0,.61.23.61.89v.91c0,.68,0,.91-.61.91-.84,0-1.69,0-2.53,0h-2c-.4,0-.47.25-.47.37,0,.33.3.33.47.33h5.07c.92,0,1.83-.05,2.74-.05.57,0,.61.24.61,1v1c0,.61,0,.85-.61.85-.91,0-1.82-.05-2.74-.05h-2.71c-.31,0-.52,0-.52.23s1,.75,1.32.89a15.64,15.64,0,0,0,4.44,1.41c.49.07.91.07.91.61a3.31,3.31,0,0,1-.58,1.73c-.44.63-.66.94-1.15.94a3.69,3.69,0,0,1-.84-.17,18.37,18.37,0,0,1-4.42-1.64A11.29,11.29,0,0,1,170,23.87a1.12,1.12,0,0,0-.68-.4,1,1,0,0,0-.66.42,14.4,14.4,0,0,1-6.93,3.56,10.48,10.48,0,0,1-1.42.23c-.89,0-1.48-2-1.48-2.48s.49-.56,1.31-.7A13.1,13.1,0,0,0,164.7,23c.17-.09.71-.44.71-.61s-.21-.23-.52-.23h-2.67c-.91,0-1.85.05-2.76.05-.54,0-.58-.21-.58-.92v-.93c0-.73,0-.94.6-.94.92,0,1.83.05,2.74.05H167c.32,0,.44-.19.44-.38s-.16-.32-.38-.32h-1.77c-.85,0-1.67,0-2.51,0-.58,0-.63-.26-.63-1v-.86c0-.66.07-.89.63-.89.84,0,1.69,0,2.51,0h2.1a.31.31,0,0,0,.31-.3v-.14a.32.32,0,0,0-.31-.31Zm2.72-2.66c.23,0,.44-.1.44-.35,0-.54,0-.73-.54-.73h-3.9c-.26,0-.47.07-.47.37,0,.5.07.68.58.68h.05l1.12,0Zm6.81,0c.47,0,.94,0,1.4,0s.52-.23.52-.65-.21-.4-.49-.4H172c-.19,0-.3,0-.3.14v.12c0,.16-.14.26-.28.33s-.17.09-.17.21.1.28.4.28Z" style="fill:#ed6c00"/><path d="M193.27,20.07a.37.37,0,0,1-.37.26c-.3,0-.37-.28-.59-1.33-.09-.4-.18-.85-.35-1.55a.82.82,0,0,1,0-.23c0-.28.33-.28.54-.28.61,0,.79-.12,1.05-.45a2.07,2.07,0,0,0,.54-1.12c0-.42-.4-.75-.7-1A16.67,16.67,0,0,0,192,13.1c-.14-.12-.3-.24-.3-.42,0-.61.77-2.58,1.31-2.58.12,0,.19.14.35.14s.26-.28.38-.61l.07-.21c.28-.79.53-1.61.79-2.41.07-.23.12-.42.33-.42s1,.38,1.57.59l.4.16c.37.14.74.26.74.51a.24.24,0,0,1-.25.24.44.44,0,0,0-.35.26c-.31.79-.94,2.24-1.31,3a2.19,2.19,0,0,0-.29.77c0,.14.1.33.26.33s.35-.33.47-.59a.53.53,0,0,0,.09-.16c.31-.61.59-1.22.87-1.85.09-.26.14-.49.42-.49a10.71,10.71,0,0,1,1.64.63l.47.21c.47.19.86.3.86.65a.34.34,0,0,1-.35.33.64.64,0,0,0-.47.35c-.18.31-1.61,2.62-1.61,2.74s.07.1.14.1.37-.1.49-.12a3.94,3.94,0,0,1,.87-.21c.23,0,.3.16.37.35.14.37.56,1.82.68,2.25a16.09,16.09,0,0,1,.45,2.45c0,.47-.4.54-.85.71a6.87,6.87,0,0,1-1.17.28c-.28,0-.3-.31-.32-.52s-.1-.26-.26-.26-.28.31-.28.47v3.77c0,1.22.07,2.44.07,3.65,0,.63-.24.68-1,.68h-1.07c-1,0-1.13-.09-1.13-.65,0-1.22,0-2.46,0-3.68v-1.5c0-.14,0-.42-.21-.42s-.19.28-.21.54a36.3,36.3,0,0,1-.45,4.12c-.11.68-.18.87-.53.87a7.76,7.76,0,0,1-1.53-.45c-.18-.07-.39-.21-.39-.42,0,0,.21-1.26.23-1.43.19-1.36.26-2.32.4-3.67,0-.31,0-.66.26-.66s1.45.26,1.73.31a1.86,1.86,0,0,0,.33,0c.25,0,.37-.09.37-.35v-.42c0-.26-.14-.33-.37-.33s-.94.1-1.22.12S193.35,20,193.27,20.07Zm3.59-3.48c.09,0,.39-.05.51-.05s.56-.05.56-.28a2.91,2.91,0,0,0-.21-.7c0-.12-.09-.33-.23-.33s-.63.77-.75,1a.54.54,0,0,0-.09.26C196.65,16.56,196.76,16.59,196.86,16.59ZM200,20.21c.35,0,.4.1.82,2.39,0,.33.28,1.52.28,1.78,0,.54-1.52.77-2,.77-.28,0-.3-.16-.35-.47a32,32,0,0,0-.42-3.39,2.11,2.11,0,0,1-.05-.35C198.35,20.45,199.66,20.21,200,20.21Zm5.85,3.87c-.14,0-.33.07-.33.23a1.4,1.4,0,0,0,.24.49,1.31,1.31,0,0,1,.09.17,3.07,3.07,0,0,1,.49,1,.25.25,0,0,1-.23.24H206a1.32,1.32,0,0,0-.26-.05.9.9,0,0,0-.37.12,21.1,21.1,0,0,1-4.19,1.45c-.75,0-1.31-1.59-1.31-2.11,0-.28.16-.28.49-.35s3.23-.68,3.23-1c0-.1-.21-.12-.28-.12-.24,0-.57,0-.87,0-.7,0-1.1-.21-1.1-1.06,0-.58.05-1.17.05-1.78V18c0-.6-.05-1.19-.05-1.78,0-.77.33-1.05,1.08-1.05s1.24.07,1.85.07H209c.61,0,1.22-.07,1.83-.07s1.1.19,1.1,1.05c0,.59,0,1.2,0,1.78v3.3c0,.61,0,1.2,0,1.78,0,.85-.38,1.06-1.08,1.06l-.63,0c-.1,0-.33,0-.33.12,0,.33,2.83.94,3.28,1,.28,0,.44.11.44.42s-.56,2.1-1.22,2.1a13.58,13.58,0,0,1-2.41-.7A17,17,0,0,1,207.53,26a.31.31,0,0,1-.21-.33,3.08,3.08,0,0,1,.42-1.15.39.39,0,0,0,.09-.23c0-.19-.25-.21-.39-.21Zm3.77-16,2.48,0c.52,0,.54.14.54.68v.49c0,.58-.05.73-.52.73-.84,0-1.66-.05-2.5-.05h-1.17a.26.26,0,0,0-.26.25v.08a.26.26,0,0,0,.26.25h.58c.85,0,1.67,0,2.49,0,.49,0,.53.11.53.58v.49c0,.66,0,.75-.53.75-.82,0-1.64,0-2.49,0h-.58a.26.26,0,0,0-.26.25v.07a.26.26,0,0,0,.26.26h1.57c.82,0,1.64,0,2.43,0,.52,0,.56.12.56.59v.58c0,.64-.07.68-.53.68l-2.46,0h-6.7l-2.48,0c-.44,0-.54,0-.54-.65v-.61c0-.47,0-.59.57-.59.82,0,1.63,0,2.45,0h1.43a.26.26,0,0,0,.26-.26v-.07a.26.26,0,0,0-.26-.25h-.63c-.82,0-1.64,0-2.46,0-.49,0-.54-.09-.54-.63V11c0-.47.05-.58.54-.58.82,0,1.64,0,2.46,0h.63a.26.26,0,0,0,.26-.25v-.08a.26.26,0,0,0-.26-.25H203.6c-.85,0-1.69.05-2.51.05-.37,0-.51-.08-.51-.59V8.72c0-.56,0-.7.54-.7l2.48,0h1c.3,0,.44-.16.44-.47s0-.42,0-.6.17-.36.42-.36,2.11.1,2.55.14.85,0,.85.31a.39.39,0,0,1-.21.33c-.12.09-.31.23-.31.4s.17.25.33.25Zm-.91,9.25a.31.31,0,0,0-.31-.31h-3.58a.31.31,0,0,0-.3.31v0a.31.31,0,0,0,.3.31h3.58c.17,0,.28-.12.31-.31Zm0,2.22a.33.33,0,0,0-.31-.3h-3.58a.31.31,0,0,0-.3.3v.07a.31.31,0,0,0,.3.31h3.58a.31.31,0,0,0,.31-.31Zm0,2.3a.33.33,0,0,0-.31-.31h-3.58a.31.31,0,0,0-.3.31v.07a.31.31,0,0,0,.3.3h3.58a.31.31,0,0,0,.31-.3Z" style="fill:#ed6c00"/><path d="M231,7.92a18.22,18.22,0,0,1,1.9-.18c.63,0,.68,0,.84,1.8a18.29,18.29,0,0,0,.4,2.83c.07.28.19.61.54.61a16.42,16.42,0,0,0,3-1.54,8.73,8.73,0,0,1,1.85-.94c.26,0,.75.73,1.08,1.26a6.89,6.89,0,0,1,1,2c0,.25-.26.35-.75.51-.09.05-.21.07-.33.12a39.69,39.69,0,0,0-7.37,3.7c-1.13.7-2.74,1.75-2.74,3,0,1.57,3,1.57,4,1.57a29.65,29.65,0,0,0,3.56-.19c.49-.07,2.1-.33,2.48-.44l.23,0c.24,0,.31.4.33.59.07.68.09,1.45.09,2.13s0,.91-.63,1.08a47.17,47.17,0,0,1-6.41.39,9.6,9.6,0,0,1-5.11-1.05,4.59,4.59,0,0,1-2.34-4c0-2.32,1.67-4.26,3.52-5.46.35-.21.56-.33.56-.72a1.91,1.91,0,0,0-.14-.56c-.19-.64-.35-1.29-.52-2a34,34,0,0,0-1-3.58,1,1,0,0,1-.07-.28C229.08,8.28,229.36,8.14,231,7.92Z" style="fill:#ed6c00"/><path d="M256.36,10.94c0-.82-.05-1.63-.05-2.45,0-1,.43-1.29,1.34-1.29s1.61,0,2.43,0h12.27c1,0,1.94,0,2.92,0,.64,0,.64.21.64,1.45s0,1.55-.66,1.55-1.17,0-1.75,0c-.1,0-.22,0-.22.12a1.06,1.06,0,0,1,0,.14c0,.14-.12.18-.31.3a.61.61,0,0,0-.23.47c0,.26.16.56.68.56s1.12-.05,1.71-.05.75.1.75.71v1c0,.8-.1.92-.75.92-.35,0-.7-.05-1.06-.05-.11,0-.28.07-.28.21a14.43,14.43,0,0,0,2.25,2.11c.21.16.42.3.42.49,0,.54-1.36,2-1.89,2-.33,0-1.32-1.42-1.53-1.73,0-.07-.14-.21-.21-.21s-.11.09-.11.19c0,.58,0,1.17,0,1.75s-.23.59-.79.59h-1.15c-.61,0-.84-.05-.84-.59s.05-1.19.05-1.78c0-.07,0-.23-.12-.23s-.17.12-.21.19c-.21.35-1.15,1.75-1.55,1.75s-1.17-.68-1.5-1a.32.32,0,0,0-.23-.16c-.14,0-.23.12-.42.12s-.75-.71-.91-.92-.12-.16-.19-.16-.14.19-.14.52c0,.63,0,1.24,0,1.87,0,.35-.18.4-.7.4H262.8c-.54,0-.7-.05-.7-.4s0-.89,0-1.34c0-.07,0-.23-.14-.23s-.23.26-.28.35c-.47.89-.65,1.26-.91,1.26a1,1,0,0,1-.63-.25.77.77,0,0,0-.38-.14c-.21,0-.25.16-.28.37A33.37,33.37,0,0,1,259,24a18.12,18.12,0,0,1-1.1,3.58c-.09.26-.23.47-.54.47-.72,0-2.59-1-2.59-1.68a3.32,3.32,0,0,1,.18-.59,31.69,31.69,0,0,0,1.43-10.39Zm4.43,11.8a10.62,10.62,0,0,0-.07-1.52.79.79,0,0,1,0-.21c0-.3.19-.35.45-.35s2,.16,2.38.21c.78.09,1,.09,1,.4,0,.14-.12.23-.26.35a2,2,0,0,0-.21,1.17V24c0,.56.26.77.8.77h.42a.66.66,0,0,0,.66-.66V21.64c0-.63,0-1.31-.08-1.78,0-.07,0-.14,0-.21,0-.3.21-.35.45-.35s1.21.09,1.52.12c1.5.14,1.94.16,1.94.49,0,.14-.07.19-.16.28a.35.35,0,0,0-.1.26c0,.35.4.35.45.35h1.26c.82,0,1.66-.05,2.48-.05.45,0,.49.21.49.82v1.05c0,.61,0,.82-.46.82-.85,0-1.69,0-2.51,0h-1.33a.54.54,0,0,0-.56.56v.26a.54.54,0,0,0,.56.56h2.71c.92,0,1.83-.05,2.74-.05.56,0,.61.24.61,1v1c0,.57-.05.85-.56.85-.94,0-1.85-.05-2.79-.05H262.45c-.92,0-1.83.05-2.74.05-.56,0-.61-.21-.61-.92v-.84c0-.79,0-1,.63-1l.4,0c.33,0,.66-.25.66-.81Zm-.5-12.59a.65.65,0,0,0-.65.65v5.55c0,.1,0,.24.14.24a5.82,5.82,0,0,0,1.38-2.09c0-.18-.19-.25-.35-.25l-.42,0c-.33,0-.38-.21-.38-.61v-1.5c0-.4.1-.54.38-.54s.68.05,1.12.05.63-.21.63-.66-.07-.86-.68-.86Zm5.29,0c-.3,0-.3,0-.3.19s-.09.16-.19.21c-.26.14-.28.18-.28.49,0,.51.28.63.73.63s.79-.05,1-.05.38.21.38.78v1.12c0,.56,0,.75-.36.75l-.6,0c-.12,0-.24,0-.24.16s.82.82,1.31,1.17l.33.23a.45.45,0,0,0,.3.14c.38,0,1.27-1.19,1.27-1.4s-.24-.23-.42-.23h-.33c-.75,0-.8-.15-.8-.89v-.87c0-.68.07-.87.75-.87.4,0,.82.05,1.22.05a.58.58,0,0,0,.63-.61c0-.68,0-1-.65-1Z" style="fill:#ed6c00"/><path d="M293.41,18.48a.63.63,0,0,0-.59.28c-.19.28-.33.28-1.45.28h-.94c-.89,0-1.14,0-1.14-.54,0-.3.07-1.28.07-2V12c0-.61-.05-1.1-.05-1.62,0-1,1-1,1.8-1s1.48,0,2.23,0h3c.59,0,.82-.24.82-.82s-.07-1.17-.07-1.52.28-.47.61-.47,3.09.14,3.37.19a.3.3,0,0,1,.3.3c0,.16-.11.26-.28.35-.35.19-.37.42-.37.89v.37c0,.68.47.71.82.71h2.71c.75,0,1.48,0,2.23,0,1.14,0,1.78.12,1.78,1,0,.54,0,1.08,0,1.62v4.47c0,.82.07,1.73.07,2,0,.52-.26.56-1.12.56h-.91c-1.15,0-1.34,0-1.48-.32s-.35-.24-.58-.24h-2.51c-.82,0-1,.17-1.22,1.1a10.87,10.87,0,0,1-.51,1.94,1.3,1.3,0,0,0-.12.4c0,.38.42.54.73.66a25.79,25.79,0,0,0,7.25,1.8c.5.07,1.48.09,1.48.68a4.73,4.73,0,0,1-.38,1.5c-.42,1-.74,1.28-1.19,1.28a18.88,18.88,0,0,1-3-.39,25.49,25.49,0,0,1-6.51-2.3,1.46,1.46,0,0,0-.61-.16,1.87,1.87,0,0,0-.86.35s-.1.07-.14.09a17,17,0,0,1-6.14,2.23,5.8,5.8,0,0,1-.79.09c-1.1,0-1.52-2.22-1.52-2.83s.32-.54.77-.56c2.43-.07,5.45-1,5.45-1.59,0-.22-.21-.38-.37-.52-.31-.28-1.71-1.64-1.71-2s1-1,1.31-1.14a2.09,2.09,0,0,1,1.17-.52.71.71,0,0,1,.59.33c.18.23.88,1.08,1.16,1.08s.43-.94.43-1.08c0-.45-.38-.47-.64-.47Zm3.74-5.19c0-.54-.28-.78-.82-.78h-2.88a.66.66,0,0,0-.65.66v1.66a.66.66,0,0,0,.65.66h2.88c.82,0,.82-.36.82-1.69Zm7.05,2.2a.67.67,0,0,0,.65-.66V13.17a.67.67,0,0,0-.65-.66h-2.74a.69.69,0,0,0-.75.78v.56c0,1.31,0,1.64.82,1.64Z" style="fill:#ed6c00"/><path d="M17.32,13.53c0,.16.11.24.58.39a6.16,6.16,0,0,1,4.33,6.2c0,4.33-3.35,9.25-12.87,9.25A19.94,19.94,0,0,1,.82,27.65c-.59-.27-.82-.5-.82-.9a1.92,1.92,0,0,1,.16-.7L1.4,22.5c.2-.54.35-.82.63-.82a1.5,1.5,0,0,1,.74.36,13.12,13.12,0,0,0,6.71,1.71c3.66,0,6-1.6,6-3.78,0-2.46-2.14-3.24-6.74-3.24-1.1,0-2.62.08-3.12.08-.82,0-.94-.23-.94-1.17V12.48c0-.94.12-1.17.94-1.17.5,0,1.75.08,2.69.08,4.17,0,6-.9,6-2.93,0-1.6-1.67-2.57-4.4-2.57a11,11,0,0,0-5.7,1.6,1.6,1.6,0,0,1-.78.35c-.27,0-.47-.23-.7-.78L1.09,3.71a2.22,2.22,0,0,1-.23-.79c0-.35.23-.54.78-.81a19.18,19.18,0,0,1,9-2.11C18,0,20.94,3.55,20.94,7.14a6.93,6.93,0,0,1-3.12,6C17.51,13.3,17.32,13.42,17.32,13.53Z" style="fill:#f4891e"/></g></g></svg>