<?xml version="1.0" encoding="UTF-8"?>
<svg id="_レイヤー_1" data-name="レイヤー_1" xmlns="http://www.w3.org/2000/svg" version="1.1" viewBox="0 0 264.7 54">
  <!-- Generator: Adobe Illustrator 29.4.0, SVG Export Plug-In . SVG Version: 2.1.0 Build 152)  -->
  <defs>
    <style>
      .st0 {
        fill: #3b241a;
      }
    </style>
  </defs>
  <path class="st0" d="M21.1,19.9c-.8,2.2-2.1,5-3.8,7.6,2.5,2,4.8,4.2,6.7,6.2l-2.9,3.2c-2-2.3-4-4.3-6.2-6.2-2.5,3-5.7,6.1-10.4,8.7l-3.1-2.8c4.6-2.2,7.9-4.9,10.6-8.3-2-1.6-4.7-3.6-7.6-5.3l2.4-2.9c2.2,1.4,5.2,3.4,7.4,5.1,1.4-2.2,2.4-4.5,3.1-6.7.3-.7.6-1.8.7-2.6l4.2,1.5c-.4.6-.9,1.9-1.2,2.5Z"/>
  <path class="st0" d="M37.8,24.2h18.3c.6,0,1.8,0,2.5-.2v3.6c-.7,0-1.8,0-2.5,0h-6.7c-.2,2.9-.8,5.2-1.8,7.2-1,2-3.1,4.1-5.6,5.4l-3.3-2.4c2-.8,3.9-2.4,5.1-4,1.1-1.7,1.6-3.8,1.7-6.2h-7.7c-.8,0-1.9,0-2.7.1v-3.7c.8.1,1.8.2,2.7.2ZM41.3,17h9.2c1,0,2.1,0,3-.2v3.6c-1,0-2,0-3,0h-9.2c-1,0-2.2,0-3,0v-3.6c.9.1,2,.2,3,.2ZM57.4,18.7l-2.2,1c-.6-1.1-1.5-2.8-2.2-3.9l2.2-.9c.7,1,1.7,2.8,2.2,3.8ZM60.8,17.4l-2.2,1c-.6-1.2-1.5-2.8-2.2-3.9l2.2-.9c.7,1.1,1.8,2.8,2.3,3.8Z"/>
  <path class="st0" d="M78.7,26c2.7-1.7,5.5-4.2,7-6l2.8,2.7c-1.3,1.5-3.8,3.4-6.3,5.1v9.6c0,1,0,2.5.2,3h-4.1c0-.6.1-2,.1-3v-7.4c-2.5,1.2-5.6,2.5-8,3.3l-1.7-3.3c3.6-.8,7.8-2.7,10-4Z"/>
  <path class="st0" d="M124.8,20.5c-1.3,2.2-4,5.7-6.7,7.7l-2.9-2.3c2.2-1.4,4.4-3.8,5.2-5.2h-14.6c-1.2,0-2.1,0-3.4.2v-3.9c1.1.2,2.2.3,3.4.3h15.1c.8,0,2.3,0,2.9-.3l2.2,2.1c-.3.4-.8,1-1.1,1.5ZM106.7,39.5l-3.3-2.7c.9-.3,1.9-.8,2.9-1.5,3.6-2.5,4.2-5.4,4.2-10s0-1.6-.2-2.5h4.1c0,6.9-.1,12.7-7.8,16.7Z"/>
  <path class="st0" d="M145.4,29.3c-.8.3-1.7.5-2.5.7v6.7c0,1.7-.3,2.5-1.2,3.1-.9.6-2.2.7-4.2.7,0-.9-.5-2.3-.9-3.2,1.1,0,2.2,0,2.6,0,.3,0,.5-.1.5-.5v-5.7l-3.1.8-.7-3.2c1.1-.2,2.4-.5,3.8-.9v-5h-3.2v-3.1h3.2v-5.3h3.2v5.3h2.3v3.1h-2.3v4.3l2.1-.6.4,3ZM161.8,26.6s0,.9,0,1.3c-.4,7.4-.8,10.3-1.7,11.3-.6.8-1.3,1-2.2,1.1-.8,0-2.2,0-3.6,0,0-.7-.3-1.7-.7-2.4h-3.1c-2.8,0-3.4-.8-3.4-3.3v-2.3c-.4.3-.7.7-1.1,1-.5-.6-1.6-1.8-2.3-2.3,2.1-1.4,3.8-3.6,5-6h-1.8v-9.9h13.8v9.9h-8.6c-.2.5-.4,1.1-.7,1.6h10.6ZM153.4,35.4c.6,0,.8-.2.9-1.6.6.4,1.7.8,2.5,1-.2,1.7-.6,2.5-1.6,2.9.5,0,.9,0,1.2,0,.5,0,.7,0,1-.4.6-.6,1-2.8,1.3-8h-9c-.2.2-.3.4-.5.6h.7v1.5c1.5-.4,3-.9,4-1.4l1.9,2c-1.7.7-4,1.3-5.9,1.7v.7c0,.7.1.8,1,.8h2.5ZM149.8,19h7.6v-1.5h-7.6v1.5ZM149.8,22.6h7.6v-1.5h-7.6v1.5Z"/>
  <path class="st0" d="M194.1,25c-1.1,3.5-2.6,6.6-4.5,9.2.6,1.8,1.3,2.9,2.2,2.9s.8-1.3,1-4.6c.7.8,1.8,1.5,2.6,1.8-.4,4.9-1.5,6.1-3.9,6.1s-3.2-1.2-4.2-3.3c-1.2,1.3-2.6,2.4-4.1,3.4-.5-.8-1.4-1.8-2.2-2.5h-2.6v2.5h-2.9v-2.5h-5.5v-2.4h5.5v-1.1h-4.6v-6.9h4.5v-1.1h-5v-2.3h5v-1.2h-5.8v-2.7h5.7v-1.5h-4.5v-2.5h4.5v-1.9h3.2v1.9h4.5v2.5h-4.5v1.5h5.9c0-1.9-.1-3.9-.1-5.9h3.4c0,2,0,4,0,5.9h7.3v2.7h-7.1c.2,2.7.4,5.1.8,7.2,1-1.8,1.9-3.8,2.5-6l3,.9ZM173.1,30.2h2.5v-1h-2.5v1ZM173.1,32.8h2.5v-1h-2.5v1ZM180.6,30.2v-1h-2.6v1h2.6ZM180.6,32.8v-1h-2.6v1h2.6ZM183.4,36.1c.9-.7,1.8-1.5,2.5-2.5-.8-2.9-1.3-6.7-1.5-10.8h-6.2v1.2h5.1v2.3h-5.1v1.1h4.7v6.9h-4.8v1.1h5.1v.6ZM191.9,20c-.6-1.1-2.2-2.8-3.4-4l2.4-1.6c1.2,1.1,2.8,2.7,3.5,3.8l-2.6,1.8Z"/>
  <path class="st0" d="M219,33.5c2,2.2,5.1,3.5,9.5,4-.7.7-1.5,2-2,2.9-5.3-.8-8.7-2.8-10.9-6.3-1.7,2.5-4.8,4.7-10.5,6.2-.4-.7-1.3-2-2.1-2.7,4.7-1.1,7.4-2.5,8.9-4.2h-8.4v-2.9h10.1c.1-.6.2-1.2.3-1.8h-7.2v-2.7h7.2v-1.7h-7.6v-1.8h-2.5v-6h10.2v-2.4h3.4v2.4h10.2v6h-2.2v1.8h-8.2v1.7h7.6v2.7h-7.6c0,.6,0,1.2-.2,1.8h11.1v2.9h-9.2ZM214,21.8v-1.6h3.3v1.6h7v-2.2h-17.1v2.2h6.8Z"/>
  <path class="st0" d="M240.9,31.1c-.3,2.7-.9,5.4-1.7,7.2-.6-.4-1.8-.9-2.4-1.2.8-1.7,1.2-4.1,1.4-6.5l2.7.4ZM244.1,28.8v11.6h-2.9v-11.3l-4,.3-.2-2.9h2c.4-.6.8-1.2,1.3-1.8-.8-1.3-2.1-2.8-3.2-3.9l1.6-2.2c.2.2.4.4.6.6.8-1.5,1.6-3.4,2-4.8l2.9,1c-1,1.9-2.1,4.1-3.2,5.7.3.4.6.8.9,1.1,1-1.6,1.9-3.2,2.5-4.5l2.7,1.3c-1.5,2.4-3.4,5.1-5.2,7.4l2.6-.2c-.3-.6-.6-1.3-.9-1.8l2.4-1c1,1.9,2.1,4.3,2.4,5.9l-2.5,1.1c0-.4-.2-1-.4-1.5h-1.5ZM246.8,30.4c.7,1.6,1.3,3.6,1.4,4.9l-2.5.8c-.1-1.4-.7-3.4-1.3-5l2.3-.7ZM258.9,35.9c1.7,1,3.6,2.2,4.8,3l-2.9,1.6c-1-.9-3-2.2-4.6-3.3l1.7-1.3h-5.1l1.9,1.2c-1.7,1.3-4.5,2.7-6.7,3.4-.5-.6-1.4-1.5-2-2.1,1.9-.6,4.1-1.6,5.5-2.5h-2.4v-11.5h12.9v11.5h-3ZM253.6,17.6h-5.6v-2h5.6v-1.3h3.3v1.3h5.8v2h-5.8v1h5.2v1.9h-5.2v1h6.4v2.1h-16v-2.1h6.3v-1h-5v-1.9h5v-1ZM251.9,27.6h6.8v-1.2h-6.8v1.2ZM251.9,30.7h6.8v-1.2h-6.8v1.2ZM251.9,33.8h6.8v-1.2h-6.8v1.2Z"/>
</svg>