<?xml version="1.0" encoding="UTF-8"?>
<svg xmlns="http://www.w3.org/2000/svg" version="1.1" viewBox="0 0 314.9 80.5">
  <defs>
    <style>
      .cls-1 {
        fill: #ed6c00;
        font-family: mplus-1m-bold, 'M+ 1m';
        font-size: 28.5px;
        font-weight: 700;
        stroke: #ed6c00;
        stroke-miterlimit: 10;
      }

      .cls-2 {
        fill: #3b241a;
      }
    </style>
  </defs>
  <!-- Generator: Adobe Illustrator 28.6.0, SVG Export Plug-In . SVG Version: 1.2.0 Build 709)  -->
  <g>
    <g id="_レイヤー_1" data-name="レイヤー_1">
      <g id="_レイヤー_2" data-name="レイヤー_2">
        <g id="contents">
          <path class="cls-2" d="M4.7.7c.1,0,2.4.6,2.8.7.8.2,1.6.3,1.6.7s-.4.4-.5.4c-.3,0-.5.2-.7.5,0,0-.1.2-.2.4-.4.7-.7,1.4-1,2.1,0,.3.3.4.6.4.7,0,1.7,0,1.7-.5,0-.3-.2-.6-.3-.9,0-.1-.2-.3-.2-.4,0-.6,2.5-1.3,2.8-1.3s.4.2.6.4c.3.4,1.2,2.1,1.4,2.6.5,1,.9,2.1,1.3,3.2,0,.8-2.3,1.6-2.9,1.6s-.4-.2-.6-.6-.3-.6-.8-.6c-1.2.1-4.8.5-7.9.8-.2,0-.3.2-.4.4-.1.2-.2.4-.5.4s-.5-.4-.9-1.9c-.2-.7-.4-1.5-.5-2.2,0-.4.4-.4,1-.4h.5c.8,0,1-.3,1.3-1,.6-1.4,1.1-2.8,1.6-4.2,0-.3.1-.4.3-.4ZM5.1,24.7c0,1,0,2,0,2.6s-.3.6-1.1.6h-1.9c-.8,0-1,0-1-.6s0-1.7,0-2.7v-9.9c0-.9,0-1.7,0-2.5,0-1.1.7-1.3,1.6-1.3s1.7,0,2.5,0h3.4c.8,0,1.6,0,2.4,0s1.8,0,1.8,1.3,0,1.6,0,2.5v8.3c0,4.2,0,4.8-4.8,4.8s-1.8-.3-1.8-2.6v-.2c0-.5,0-1,.8-1,.2,0,.3,0,.5,0,.2,0,.5,0,.7,0,.5,0,.7-.1.7-.7s-.1-.4-.4-.4h-2.7c-.4,0-.8.3-.8.7,0,0,0,0,0,0v.8ZM5.1,15.1c0,.3.2.5.5.5,0,0,0,0,0,0h2.9c.3,0,.5-.2.5-.5,0,0,0,0,0,0h0c0-.3-.2-.6-.5-.6,0,0,0,0,0,0h-2.9c-.3,0-.5.2-.5.5,0,0,0,0,0,0v.2ZM5.1,19.4c0,.3.2.6.6.6,0,0,0,0,0,0h2.7c.3,0,.6-.3.6-.6,0,0,0,0,0,0h0c0-.4-.2-.6-.5-.7,0,0,0,0,0,0h-2.7c-.3,0-.6.3-.6.6,0,0,0,0,0,0h0ZM20.3,21c-.6.2-1.4.4-1.4,1.2v.3c0,.8,0,1.2.9,1.2h1.9c.8,0,1.4-.1,1.7-2.1,0-.6,0-1,.8-1,.7,0,1.4.3,2,.7.5.3,1,.6,1,1.2-.2,1.4-.6,2.7-1.2,3.9-.6,1.1-1.9,1.3-3.1,1.3h-5.6c-1.8,0-2.8-.8-2.8-2.7v-7.8c0-1,0-1.7,0-1.9s.2-.4.6-.4c.5,0,3.4.2,4,.3.3,0,.7.1.7.5s-.2.4-.5.5c-.3.1-.3.5-.3.8s0,.7.5.7c.7,0,3.2-1.6,3.8-2.1.1-.1.3-.3.5-.3s.5.3,1.1.9c.2.3.5.6.8,1s1.3,1.3,1.3,1.6,0,.4-.5.4c-.2,0-.3,0-.5-.1h-.1c-.1,0-.3,0-.4.1-1.6.8-3.4,1.5-5.1,2ZM19.6,7.4c-.4.1-.7.3-.7.8v.2c0,.8,0,1.2.9,1.2h2c.9,0,1.3-.3,1.4-1,0-.4.2-.8.2-1.2,0-.5.1-.8.9-.8.7,0,1.4.2,2,.5.6.2.9.7.9,1.3-.1,1.4-.6,2.7-1.3,3.9-.7,1.2-1.7,1.3-3,1.3h-4.5c-2.6,0-3.8-.2-3.8-2.9v-5.6c0-1.4,0-3.1,0-3.4s.2-.5.5-.5,3.5.2,4,.3c.3,0,.6.2.6.5s-.2.4-.5.5-.3.5-.3.8.1.6.5.6c1.4-.5,2.7-1.3,3.8-2.2.1,0,.4-.3.5-.3s.7.5,1.1,1c.2.3.4.5.7.8,0,.1.2.2.3.3.4.5,1,1.1,1,1.4,0,.2-.2.4-.5.4-.1,0-.2,0-.3,0-.1,0-.3-.1-.4-.1-.1,0-.3,0-.4.2-1.9.9-3.8,1.6-5.7,2.3Z"/>
          <path class="cls-2" d="M54.1,19.3c0,1.6.2,1.9,2,1.9,2.6,0,5.2-.2,7.8-.5.2,0,.4,0,.5,0,.7,0,.8,1.1.8,2v.9c0,.7,0,1.3-.6,1.6-.2.1-.4.2-.7.2-1,0-5.3.3-5.9.3-1.3,0-2.6,0-4,0-1.3,0-2.5-.4-3.5-1.2-.9-1-1-2.9-1-4.5v-4c0-.4-.3-.7-.7-.7,0,0,0,0,0,0h-.3c0,0-.5.2-.5.2-.6.1-4.1.9-4.3.9-.6,0-.7-.5-.8-1.1-.2-.9-.4-1.9-.5-2.8,0-.5.7-.7,2.5-1,.6,0,1.4-.2,2.4-.4l1.5-.3c.4,0,.8-.5.8-.9v-2.1c0-1.1,0-2.2,0-3.3,0-.5,0-1,0-1.5s0-.4.4-.4l4.4.5c.2,0,.7.1.7.4s0,.2-.2.3c-.4.3-.5.8-.5,1.3v3.8c0,.4.3.7.7.7h.5c0,0,5-1.1,5-1.1,1-.2,2.1-.4,3.1-.7.2,0,.4,0,.6,0,.7,0,3,2.2,3,3s-.2.4-.4.6-1,1.3-1.3,1.7c-1.4,1.8-2.9,3.5-4.5,5.2-.3.4-.7.8-1.2.8s-3.2-1.6-3.2-2.5.8-.9,1-1.1,2-1.8,2-2,0-.2-.2-.2c-.3,0-.5,0-.8.1l-3.4.7c-.4,0-.8.5-.8.9v4.6Z"/>
          <path class="cls-2" d="M107.1,9.9c0,0,0,.2.2.3.2.4.4.9.5,1.4,0,.7-2.4,3-3.1,3.6-4.8,4.7-9.7,7.4-15.7,10.3-.4.1-.7.4-.8.8,0,.1-.1.2-.2.2-.2,0-.4-.3-.5-.5-.5-.7-1-1.5-1.4-2.3-.4-.6-.7-1.2-.9-1.8,0-.3.3-.4.6-.5,2.7-.8,5.3-1.9,7.7-3.3,4.1-2.5,7.8-5.6,10.8-9.4,0,0,.1-.1.2-.2.3-.4.5-.7.8-.7.6,0,1.5,1.6,1.8,2.1ZM89.1,3.8c1.9,1.1,3.6,2.4,5.3,3.8.2.1.3.3.3.5,0,.9-2.1,3.3-2.8,3.3-.3,0-.6-.2-.8-.4-1.5-1.3-3.2-2.5-5-3.5-.2-.2-.5-.3-.5-.6,0-.6,1.8-3.5,2.7-3.5.3,0,.6.2.9.4Z"/>
          <path class="cls-2" d="M131.9,3.1c0-.3,0-.6.4-.6s3.7.8,4.3,1c.2,0,.8.2.8.5s-.2.3-.5.4c-.5.2-.6,1-.7,1.9v.4c0,.2-.1.5-.1.6,0,.7.6.7,1,.7.9,0,1.7.2,2.5.7,2.1,1.2,2.5,3,2.5,5.1s-.6,7-1.9,9.3c-1.3,2.2-3.7,3.5-6.3,3.4-.9,0-1.3-.1-1.6-.8-.3-1-.6-2-.7-3,0-.4.1-.7.6-.7h1.3c1.8,0,2.2-.1,2.9-1.3.9-2.1,1.4-4.4,1.4-6.7,0-1.4-.2-1.8-1.4-1.8s-1.3.1-1.5,1.1c-1.1,3.5-2.6,6.9-4.6,10-.6,1-1.3,2-2.1,2.9-.1.1-.3.2-.5.2-.7,0-3.5-1.6-3.5-2.5s.3-.6.8-1.1c2.3-2.4,4.1-5.2,5.2-8.2,0-.2.1-.3.2-.5,0-.2-.2-.4-.4-.5,0,0,0,0,0,0-.9.2-1.7.5-2.6.8-.2.1-.4.2-.6.2-.5,0-.8-1.2-1.1-2.3-.2-.7-.3-1.4-.4-2.1,0-.4.2-.5,1.1-.6,1.5-.1,3.1-.4,4.6-.8.8-.1,1-.4,1.1-1.2.2-1.4.2-2.8.2-4.1v-.4ZM144.1,6.1c.9.9,1.7,1.9,2.4,3,.4.6,2.5,3.6,2.5,4.1,0,1-2.7,2.6-3.6,2.6s-.5-.3-.8-.8c-1-2.4-2.4-4.7-4.2-6.7-.2-.1-.3-.3-.3-.5,0-.6,2.3-2.2,3-2.2.4,0,.7.2.9.5h0ZM147,3.6c.8.8,1.4,1.4,1.4,1.7,0,.6-1.4,1.7-1.8,1.7s-.3-.2-.4-.4c-.7-.8-1.4-1.6-2.2-2.3-.2-.2-.3-.3-.3-.5,0-.4,1.5-1.6,1.9-1.6s.9.8,1.5,1.3ZM149.2.6c.4.4,2.2,2,2.2,2.4s-1.4,1.7-1.8,1.7-.4-.2-.4-.4c-.7-.8-1.4-1.6-2.2-2.3-.1-.1-.3-.3-.3-.5,0-.4,1.5-1.5,1.9-1.5s.6.4.7.5h0Z"/>
          <path class="cls-2" d="M167.7,27.5c0,.1-.2.4-.4.4-.4,0-.5-.5-1.1-1.8-.1-.4-.3-.9-.6-1.4-.2-.4-.3-.7-.3-1.1,0-.3.2-.6.5-.8.2,0,.4-.2.6-.3,1.1-.7,1.6-.8,1.6-2v-3.8c0-.5-.3-.8-.8-.9,0,0,0,0,0,0-.2,0-.5,0-.8,0-.7,0-.8-.4-.8-1.2v-1.6c0-.8,0-1.2.7-1.2s1.2,0,1.7,0h.4c.7,0,1.3,0,2,0,1,0,1.6.3,1.6,1.4s0,1.7,0,2.6v3.5c0,2.6,1.4,3.5,1.8,3.5,0,0,.1,0,.1,0,0,0,0,0,0,0,0-.1,0-.2-.2-.3-.3-.4-.6-.9-.7-1.4,0-.3.4-.3.6-.4.6,0,4.1-.9,4.1-1.3s-.3-.2-.4-.2h-.9c-1,0-2,0-3,0s-.6-.3-.6-1v-1c0-.6,0-1,.6-1,1,0,2,0,3,0h.5c.2,0,.4-.1.4-.3,0,0,0,0,0,0v-.2c0-.3-.2-.3-.4-.3-.7,0-1.4,0-2.2,0s-.6-.3-.6-1v-.8c0-1,0-1.3.7-1.3s1.4,0,2.1,0,.4,0,.4-.4c0-.9-.2-.9-.8-.9-1.5,0-2.8-.2-2.8-2s0-1.1,0-1.3v-.6c0-.6,0-1,0-1.4,0-.9.5-1,1.1-1h2.5c.2,0,.4-.1.4-.3,0,0,0,0,0,0h0c0-.2-.2-.4-.4-.4h-.4c-.8,0-1.7,0-2.5,0s-.8-.2-.8-.9v-1c0-.7,0-.9.8-.9h6c.6,0,1.1.3,1.1,1.1s0,1,0,1.7v.8c0,1.8.2,1.8.8,2,.4.1.7.3.7.8,0,1.2-.6,2.2-1.4,3.1,0,0-.1.1-.1.2s.2.2.3.2.5.1.5.4-.1.3-.2.4c0,0-.1.2-.1.3,0,.1,0,.2.2.2h1.3c.4,0,.5-.2.5-.5,0-.1,0-.2,0-.4v-.3c0,0,0-.2,0-.2,0,0,0-.2,0-.3,0-.2,0-.4-.2-.5-.1-.3-.2-.7-.2-1.1v-3.4c0-.9.5-1,1-1h2.9c.2,0,.4-.1.4-.3,0,0,0,0,0,0h0c0-.3-.1-.5-.3-.5,0,0,0,0,0,0h-1c-.8,0-1.7,0-2.5,0s-.8-.2-.8-.9v-1c0-.7,0-.9.8-.9h6.4c.6,0,1.1.3,1.1,1.1v2.4c0,.5,0,1,0,1.5s.1.5.5.6.8.3.8.8-.4,2.8-1.7,3.2c-.7.2-1.5.2-2.2.2-.1,0-.2,0-.2.2,0,0,0,0,0,0v.2c0,0-.1.3-.2.4-.1,0-.2.2-.2.3,0,.1.2.2.3.2.8,0,1.6,0,2.3,0s.7.3.7,1.2v.8c0,.7,0,1-.7,1s-1.6,0-2.3,0-.5,0-.5.3v.2c0,.2.2.4.4.4h.7c1,0,2,0,2.9,0s.7.3.7,1v1.1c0,.6,0,.9-.6.9-1,0-2,0-3,0h-1.1c-.1,0-.4,0-.4.2,0,.5,3.9,1.2,4.5,1.3s.7,0,.7.4c0,.6-.3,1.2-.6,1.6,0,0-.1.2-.1.3,0,.2.1.2.3.3.5.1.5.5.5,1,0,.9-.2,1.8-.7,2.5-.3.3-.6.4-1,.5-.8,0-3.1,0-4.1,0h-7.1c-2.5,0-5.6,0-7.4-.9-.5-.3-1-.6-1.4-1-.2-.2-.5-.3-.8-.4-.4,0-1,.5-1.5,1l-.4.4c-.3.2-.4.5-.5.8ZM171,4.3c.6.8,1.1,1.7,1.4,2.7,0,.5-2.4,1.9-2.9,1.9s-.4-.4-.6-.6c-.8-1.5-1.7-3-2.8-4.3-.1-.2-.4-.5-.4-.7,0-.6,2.1-2.1,2.7-2.1s2.2,2.6,2.5,3.1ZM180.9,19.4c-.2,0-.5,0-.5.3s.4.6.7.8c.4.4.8.8.8,1s-.2.3-.4.3h-.2c0,0-.2,0-.3,0,0,0-.2,0-.3,0-1.1.5-2.3.9-3.4,1.3-.1,0-.5.1-.5.3s.7.2,2.5.2h8.3c.1,0,.4,0,.4-.2s-.4-.3-.5-.3c-1.2-.4-2.5-.9-3.6-1.5-.2-.1-.3-.2-.3-.4s.6-1,.9-1.3c0,0,.3-.3.3-.4s-.1-.1-.2-.1h-3.6ZM177.7,7.7c-.2,0-.4.2-.4.4,0,0,0,0,0,0,0,.5.2.5.7.5h.3c.4,0,.6-.1.6-.6,0-.2-.1-.3-.3-.4,0,0,0,0,0,0h-.9ZM183.3,16.5c.2,0,.4-.2.4-.4h0c0-.4-.2-.5-.4-.5h-1.5c-.2,0-.4.2-.4.4,0,0,0,0,0,0h0c0,.4.2.5.4.5h1.5ZM187.1,7.6c-.2,0-.4.2-.4.4,0,.5.2.5.7.5h.7c.2,0,.6,0,.6-.6s-.2-.3-.4-.3h-1.2Z"/>
          <path class="cls-2" d="M217,4.9c.7.3.8.5.8.7s-.1.2-.3.3c-.5.2-1,.7-1.2,1.2-1.2,2.8-1.8,5.9-1.8,9,0,.8,0,1.6.4,1.6s.3-.2.5-.7c0-.1.1-.2.2-.4s.2-.5.4-.5,2,.9,2,1.4-1.6,3.9-1.6,5.8,0,1,0,1.3c0,.2,0,.4,0,.6,0,1.2-2.5,1.9-3.1,1.9s-.9-.7-1.1-1.1c-1.5-3.2-2.1-6.7-2-10.2,0-2.9.4-5.7,1-8.5.2-1.1.7-2.2.9-3.6,0-.2.1-.6.4-.6,1.4.5,2.9,1,4.3,1.7ZM227.1,3.8c1.1.1,1.2.2,1.2.4-.2,1-.3,2-.3,3v.3c0,.4,0,.9.6.9.8-.1,1.5-.3,2.2-.6.3,0,.5-.1.8-.2.3,0,.4.3.5.6.3,1,.5,2,.5,3,0,.7-.4.9-3.5,1.4-.6,0-1,.2-1,.9s.2,3.8.3,4.4.1.9.5,1.1,1,.5,1.5.8c1.5.9,3.1,2.1,3.1,3s-1.4,2.8-2.3,2.8-1.1-.6-1.6-1-.6-.6-.9-.6-.4.2-.6.5c-.9,1.6-3.1,2.1-4.8,2.1-2.7,0-5.4-1.4-5.4-4.4,0-2.1,1.6-3.9,3.7-4.2.7-.1,1.3-.2,2-.1.8,0,.9-.4.9-.8s-.2-2.3-.2-2.8c0-.4,0-1-.8-1s-3.1.2-4.7.2-1.2,0-1.3-.6c0-.3-.2-2.7-.2-3.1s0-.8.5-.8,3,.2,4.6.2h.3c.4,0,1.1,0,1.1-.7s-.3-3.6-.4-4.1c0-.2,0-.4,0-.5,0-.4.2-.5.5-.5.4,0,2.4.2,3.1.3h0ZM221.8,22.2c0,.6,1,.9,1.6.9s1.4-.2,1.4-1-.9-.6-1.3-.6-1.6.1-1.6.8ZM231.1,2.3c.4.4,2.2,2.4,2.2,2.9s-1.6,1.6-1.9,1.6-.3-.2-.6-.6l-.2-.3c-.5-.8-1-1.3-1.6-2,0-.1-.3-.3-.3-.5,0-.4,1.6-1.4,2-1.4,0,0,.3.2.4.3h0ZM236.5,3.2c0,.6-1.5,1.6-1.9,1.6s-.3-.2-.4-.4c-.6-.9-1.4-1.8-2.1-2.6-.1-.2-.2-.3-.2-.4C231.9.9,233.6,0,233.8,0c1.1.9,2,2,2.6,3.2Z"/>
          <path class="cls-2" d="M262.4,2c.3,0,.5.2.5.4s-.1.3-.3.5c-.4.3-.4.4-.5,1.4,0,.2-.2,2.1-.2,2.4,0,.3.1.6.4.8.5.4.8.9.9,1.5,0,.1,0,.3,0,.4s.1.2.1.2.5-.3.7-.6c1.3-1.2,2.9-2.5,4.7-2.5,1.2,0,2.4.5,3.2,1.5.6,1.1.8,2.3.7,3.4,0,1.6,0,3.2-.1,4.8,0,1-.1,2-.1,2.9s0,1.1.5,1.1,1.6-1.3,2-1.7c.2-.2.4-.4.7-.4.4,0,.9,1,1,1.3.4.8.8,1.6,1,2.5,0,.3-.3.6-1,1.2-1.5,1.2-3.4,2.5-5.4,2.5-1,0-2-.6-2.5-1.5-.6-1.3-.9-2.8-.8-4.3,0-2.9.4-5.9.4-7.5s-.1-.8-.6-.8c-1.1,0-4.6,3.4-5.4,4.3-.4.4-.7,1-.6,1.6,0,2.5,0,6.2.3,8.6,0,.1,0,.3,0,.4,0,.3-.2.4-.5.4-.9,0-1.8.1-2.7.1-1.3,0-1.7,0-1.7-.6s.2-2.1.2-3.1,0-.5-.3-.5-.8,1-1.1,1.6c0,.1-.1.3-.1.3s-.2.5-.5.5c-.6,0-3.1-2.1-3.1-2.7.1-.4.4-.8.6-1.1,1.5-2.3,3.1-4.9,4.5-7.2.2-.2.2-.5.2-.8,0-.3,0-.6-.4-.6-.4,0-.9.2-1.3.4-.7.3-1.5.6-2.2.7-.6,0-1-.6-1.2-1.1-.4-.9-.7-1.9-.9-2.9,0-.5.4-.7,1.3-.7s4.1-.7,4.6-1.3c.2-.3.3-.6.2-1v-.2c0-1.2,0-2.4,0-3.6v-.9c0-.3.2-.5.6-.5.6,0,3.6.3,4.2.4Z"/>
          <path class="cls-2" d="M310.8,6.2c0,.2-.2.3-.3.4-1.3.9-2.6,1.9-3.7,3-.2.1-.3.3-.3.5,0,.4.3.6.7.6h.3c.7,0,1.4.2,2.1.4,3.2.8,5.3,3.7,5.2,7,0,5.7-5,8.6-10.2,8.6s-6.6-1.1-6.6-4.6c.1-2.4,2.1-4.2,4.5-4.2,1.6,0,3.1.7,4,1.9.4.5.6,1,.8,1.5.1.3.4.5.7.6.7,0,2.2-1.5,2.2-3.5s-2.1-3.7-4.4-3.7c-2.2,0-4.2.8-5.8,2.3-1.3,1.2-2.5,2.4-3.7,3.8-.4.5-.7.8-.8.8-.7,0-3-2.5-3-3s.3-.6.9-1.1,5.7-5.6,6.8-6.6c.6-.6,1-1.1,1.5-1.7.2-.2.4-.4.4-.7s-.5-.4-.6-.4-3.4.6-4.1.7c-.1,0-.2,0-.4,0-.7,0-.9-3.4-.9-4v-.3c0-.4,0-.4,1-.4h.7c2,0,6.2-.4,8-1.1.4-.2.8-.4,1.3-.5,1.2,0,3.5,3,3.5,3.6ZM302.6,21.3c-.5,0-.9.2-1,.7,0,0,0,0,0,.1,0,.8,1,1.2,1.7,1.2.4,0,.7-.3.8-.7,0-.8-.7-1.3-1.5-1.4Z"/>
          <path class="cls-2" d="M125,60.9c1.4,1.5,2.2,3.5,2.2,5.6,0,4.9-3.6,8.2-7.9,9.9-1.9.8-3.9,1.3-6,1.5-.7,0-1-.5-1.3-1.1-.5-.9-.8-1.9-1-2.9,0-.6.7-.7,1.1-.8,2,0,4-.5,5.9-1.4,2.2-1,4.4-2.7,4.4-5.4s-1.7-3.4-3.8-3.4c-4,0-8.3,2.2-11.8,4.1-.3.2-.6.3-.9.3-1.3,0-3.1-3.1-3.1-4.3s.4-.6.8-.7c2.7-.8,5.3-1.7,7.9-2.6,2.2-.9,4.6-1.3,7-1.4,2.4-.1,4.8.7,6.5,2.4Z"/>
          <path class="cls-2" d="M165.2,59.8c2.1,2,3.2,4.8,3.2,7.7,0,4.2-2.3,8-6,10-1.1.6-2.3,1.1-3.6,1.3-1,0-2.6-2.8-2.6-3.6s.3-.4,1.1-.6c3.5-.9,6.3-3.1,6.3-6.9s-3.6-6.6-4.5-6.6-.6.5-.6,1.1c-.3,4.2-1.5,9.3-4.3,12.6-1,1.4-2.6,2.4-4.4,2.5-2-.1-3.7-1.3-4.6-3.1-.7-1.4-1-2.9-1-4.5-.1-7,5.5-12.8,12.5-12.9,0,0,.2,0,.3,0,3-.1,5.9,1,8.1,3ZM148.8,69.6c0,.7.2,2.9,1.2,2.9s1.7-2,2-2.6c1-2.5,1.7-5,1.9-7.7,0-.2-.1-.5-.4-.5-.9,0-4.8,2.8-4.8,7.8Z"/>
          <path class="cls-2" d="M191.9,69.2c0,.4,0,1,.6,1,.3,0,.6,0,.9-.2.1,0,.3,0,.4,0,.4,0,.7.3.7,2.1s0,1.5-.7,1.7c-2.1.9-4.2,1.6-6.4,2.2-.7.2-.8.2-.9.7,0,.2-.2.4-.5.4s-.4-.4-.8-1.7c-.1-.4-.3-1-.4-1.6-.2-.4-.3-.8-.3-1.2,0-.3.1-.4.7-.5l1.3-.2c.9-.2,1.3-.4,1.3-1.4v-2.9c0-.4-.3-.8-.7-.8,0,0,0,0-.1,0h-.9c-.6,0-.7-.3-.7-1v-1.9c0-.9,0-1.2.6-1.2h1.1c.4,0,.7-.4.8-.8v-2.1c0-.5-.4-.8-.8-.8-.4,0-.9,0-1.4,0s-.7-.3-.7-1v-1.9c0-.9,0-1.2.7-1.2s1.7,0,2.8,0h2.7c1,0,2.2,0,2.7,0s.7.3.7,1.3v1.6c0,1,0,1.3-.7,1.3h-.9c-.4,0-.8.3-.8.7,0,0,0,0,0,0v2.2c0,.4.3.8.7.8,0,0,0,0,0,0,.2,0,.4,0,.6,0,.8,0,.9.1.9,1.3v1.6c0,1,0,1.2-.7,1.2h-.7c-.5,0-.9.4-.9.9v1.4ZM199.5,68.7c-.2,0-.4.1-.4.3,0,.4-.6.4-1.2.4h-1.4c-1.1,0-1.4,0-1.4-.7s0-1.8,0-2.8v-8.3c0-.7,0-1.4,0-2.1,0-1.1.9-1.2,1.8-1.2s1.8,0,2.6,0h6.5c.9,0,1.8,0,2.7,0s1.8,0,1.8,1.2,0,1.4,0,2.1v8.3c0,1,0,2.2,0,2.8s-.3.7-1.3.7h-1.7c-.9,0-1,0-1.1-.5,0-.1-.2-.2-.4-.2h-.4c-.4,0-.7.3-.7.7v.6c0,.4.3.7.7.7h1.2c1.1,0,2.1,0,3.2,0s.8.4.8,1.4v1.1c0,.9,0,1.3-.8,1.3-1.1,0-2.1,0-3.2,0h-1.2c-.4,0-.7.3-.7.7v.2c0,.4.3.7.7.7,0,0,0,0,0,0h1.7c1.1,0,2.2,0,3.4,0s.8.4.8,1.4v1.4c0,1,0,1.3-.9,1.3s-2.2,0-3.4,0h-10.5c-1.1,0-2.2,0-3.4,0s-.9-.4-.9-1.3v-1.4c0-1,0-1.4.8-1.4,1.1,0,2.2,0,3.4,0h3.2c.4,0,.7-.3.7-.7,0,0,0,0,0,0v-.2c0-.4-.3-.7-.7-.7h-1c-1.1,0-2.2,0-3.2,0s-.8-.3-.8-1.2v-1.4c0-1,0-1.3.8-1.3s2.1,0,3.2,0h1c.4,0,.7-.3.7-.7v-.6c0-.4-.3-.7-.7-.7,0,0,0,0,0,0h-.5ZM199.9,60c.4,0,.7-.3.7-.7,0,0,0,0,0,0v-.4c0-.4-.3-.7-.7-.7,0,0,0,0,0,0h-.2c-.4,0-.7.3-.7.7,0,0,0,0,0,0v.4c0,.4.3.7.7.7h.2ZM199.7,63.3c-.4,0-.7.3-.7.7v.4c0,.4.3.7.7.7,0,0,0,0,0,0h.2c.4,0,.7-.3.7-.7,0,0,0,0,0,0v-.4c0-.4-.3-.7-.7-.7,0,0,0,0,0,0h-.2ZM205.7,60c.4,0,.7-.3.7-.7,0,0,0,0,0,0v-.4c0-.4-.3-.7-.7-.7,0,0,0,0,0,0h-.2c-.4,0-.7.3-.7.7,0,0,0,0,0,0v.4c0,.4.3.7.7.7,0,0,0,0,0,0h.2ZM205.6,63.3c-.4,0-.7.3-.7.7,0,0,0,0,0,0v.4c0,.4.3.7.7.7,0,0,0,0,0,0h.2c.4,0,.7-.3.7-.7,0,0,0,0,0,0v-.4c0-.4-.3-.7-.7-.7,0,0,0,0,0,0h-.2Z"/>
          <path class="cls-2" d="M237.1,59.4c.4,0,.8-.4.8-.8v-2.2c0-.6,0-1.2,0-1.8,0-.2,0-.6,0-.7,0-.4.3-.4.6-.4s2.7.2,3.2.2c.8,0,1.4.1,1.4.5s-.1.3-.3.5c-.2.2-.3.5-.3.8v3.1c0,.4.3.8.8.9h4.4c1,0,2,0,3,0s1.5.4,1.5,1.4,0,1.9,0,2.9v12.6c0,1.1,0,2.3,0,3.4s-.4.8-1,.8h-2.3c-1.2,0-1.4,0-1.4-.8,0-.4-.3-.7-.7-.8h-13.2c-.6,0-.7.5-.7,1s-.7.6-1.1.6h-2.3c-.7,0-1.1,0-1.1-.8,0-1.1,0-2.3,0-3.4v-12.6c0-1,0-1.9,0-2.8s.5-1.4,1.5-1.4,2,0,3,0h4.4ZM237.9,64.3c0-.5-.4-.8-.8-.8h-3.6c-.5,0-.8.4-.8.8v1.9c0,.5.4.8.8.8h3.6c.5,0,.8-.3.8-.8,0,0,0,0,0,0v-1.9ZM237.9,71.9c0-.5-.4-.8-.8-.8h-3.6c-.5,0-.8.4-.8.8v2.1c0,.5.4.8.8.8h3.6c.4,0,.8-.3.8-.8,0,0,0,0,0,0v-2.1ZM242.3,66.3c0,.5.3.8.8.8,0,0,0,0,0,0h3.5c.5,0,.8-.4.8-.8v-1.9c0-.5-.4-.8-.8-.8h-3.5c-.5,0-.8.4-.8.8v1.9ZM242.3,74c0,.5.4.8.8.8h3.5c.5,0,.8-.4.8-.8v-2.1c0-.5-.4-.8-.8-.8h-3.5c-.4,0-.8.3-.8.8,0,0,0,0,0,0v2.1Z"/>
        </g>
      </g>
      <text class="cls-1" transform="translate(60.6 77.9)"><tspan x="0" y="0">３</tspan></text>
    </g>
  </g>
</svg>