<?xml version="1.0" encoding="UTF-8"?>
<svg id="_レイヤー_1" data-name=" レイヤー 1" xmlns="http://www.w3.org/2000/svg" viewBox="0 0 264.83 28.48">
  <defs>
    <style>
      .cls-1 {
        fill: #3b241a;
      }
    </style>
  </defs>
  <path class="cls-1" d="M23.85,2.75c-.74,4.49-2.31,8.63-4.7,12.41,2.36,1.69,4.77,3.6,7.22,5.74l-3.24,3.52c-1.43-1.56-3.63-3.46-6.61-5.68-3.91,4.52-8.79,7.63-14.66,9.32l-1.86-3.63c2.28-.65,4.56-1.74,6.85-3.25s4.29-3.23,5.98-5.14c-1.64-1.13-4.7-2.96-9.18-5.49l2.59-3.12c3.52,1.83,6.55,3.55,9.1,5.17,2.05-3.38,3.35-6.83,3.91-10.34l4.6.51Z"/>
  <path class="cls-1" d="M61.25,15h-10.55v.86c.01,3.15-1.06,5.8-3.21,7.92s-5.23,3.6-9.26,4.41l-1.32-3.66c2.99-.62,5.29-1.7,6.89-3.21s2.41-3.41,2.41-5.66v-.66h-11.82v-3.78h26.85v3.78ZM56.59,7.38h-20.58v-3.72h20.58v3.72ZM59.65,5.01l-2.09.81c-.38-1.23-1.03-2.73-1.95-4.5l1.98-.83c.79,1.55,1.48,3.06,2.07,4.53ZM63.77,4.47l-2.05.78c-.68-1.71-1.35-3.21-2.01-4.5l1.95-.75c.8,1.53,1.5,3.02,2.11,4.47Z"/>
  <path class="cls-1" d="M82.51,28.31h-3.65v-10.97c-2.95,1.51-6.33,2.72-10.13,3.65l-1.07-3.12c3.92-.91,7.53-2.36,10.82-4.35,3.29-1.98,5.77-4.32,7.44-7l3.42,1.39c-1.51,2.57-3.78,4.95-6.83,7.12v13.29Z"/>
  <path class="cls-1" d="M129.11,4.44c-.13.81-.64,2.11-1.53,3.9-.89,1.79-2.25,3.56-4.06,5.3s-3.56,3.08-5.25,4.02l-2.27-3.03c1.47-.84,2.88-1.96,4.2-3.35s2.36-2.79,3.11-4.17h-21.15v-3.78h25.62l1.33,1.11ZM116.09,8.48v.72c0,2-.04,3.66-.11,4.99-.07,1.32-.34,2.73-.81,4.22s-1.2,2.88-2.21,4.17c-1.01,1.29-2.27,2.4-3.77,3.32s-3.26,1.66-5.26,2.22l-1.58-3.54c3.62-1.12,6.08-2.72,7.37-4.79s1.93-4.9,1.93-8.48l-.03-2.81h4.47Z"/>
  <path class="cls-1" d="M144.74,16.14c-.49.21-1.24.48-2.24.82v8.14c0,.94-.33,1.66-.97,2.18s-1.47.77-2.45.77h-3.41l-.45-3.43h2.4c.65,0,.98-.29.98-.86v-5.58c-1.46.43-2.56.73-3.3.91l-.75-3.43c.82-.11,2.17-.39,4.04-.83v-5.13h-3.44v-3.03h3.44V1.66h3.91v5.01h2.33v3.03h-2.33v4.1c.87-.25,1.51-.45,1.92-.6l.32,2.94ZM154.12,24.84c-.52.02-1.06.03-1.63.03-1.6,0-2.78-.04-3.54-.11s-1.32-.34-1.68-.79-.54-1.05-.54-1.79v-3.49c-.68.62-1.32,1.13-1.92,1.55l-2.01-2.36c2.17-1.61,3.91-3.55,5.23-5.83h-2.08V2.23h15.23v9.83h-9.04c-.24.48-.52.95-.82,1.42h11.06c0,3.79-.01,6.04-.04,6.77-.09,2.02-.27,3.64-.56,4.85-.17.7-.39,1.21-.67,1.52-.33.36-.78.66-1.33.91-.64.29-1.31.44-2.01.44h-3.24l-.41-3.12ZM149.69,6.18h7.78v-1.49h-7.78v1.49ZM157.47,8.13h-7.78v1.49h7.78v-1.49ZM157.31,19.83v2.81c0,1.04-.67,1.74-2.02,2.08h1.51c.5,0,.91-.14,1.23-.42s.54-1.03.66-2.23.18-2.74.18-4.63c0-.51,0-1.04-.01-1.61h-8.95v1.79c2.24-.47,4.15-1.04,5.73-1.7l1.33,2.43c-1.74.7-4.09,1.29-7.06,1.77v1.2c0,.35.16.58.48.67s.91.15,1.77.15c1.29,0,2.03-.11,2.21-.32s.28-.97.28-2.27l2.67.28Z"/>
  <path class="cls-1" d="M194.88,12.96c-.91,3.1-2.27,6.12-4.07,9.05.22.36.48.72.76,1.06s.48.56.59.63.21.11.32.11c.23,0,.37-.18.41-.54.11-.39.24-1.6.4-3.62l2.97.44c-.05,1.64-.13,2.98-.23,4.02s-.24,1.8-.4,2.28c-.16.48-.47.87-.92,1.19s-.99.47-1.63.47c-.78,0-1.48-.21-2.11-.64s-1.4-1.19-2.33-2.31c-1,1.26-2.04,2.38-3.12,3.37l-2.4-2.02c.28-.27.54-.54.78-.81h-5.67v2.43h-3.57v-2.43h-6.24v-2.12h6.24v-1.26h-4.95v-7.53h4.95v-1.2h-5.55v-1.77h5.55v-1.29h-6.18v-2.7h6.04v-1.68h-5.19v-2.64h5.19v-1.77h3.96v1.77h4.51v2.64h-4.51v1.68h5.73c-.04-1.46-.06-3.54-.06-6.24h3.94l-.03,5.51v.73h7.62v2.7h-7.53c.16,2.83.47,5.25.95,7.27.81-1.65,1.52-3.55,2.14-5.71l3.66.94ZM172.53,17.72h2.12v-1.41h-2.12v1.41ZM174.65,19.2h-2.12v1.44h2.12v-1.44ZM184.22,25.28c.82-.94,1.64-2.04,2.45-3.3-1.3-2.69-2.09-6.52-2.37-11.51h-6.06v1.29h5.55v1.77h-5.55v1.2h4.92v7.53h-4.92v1.26h5.99v1.76ZM178.22,17.72h2.07v-1.41h-2.07v1.41ZM180.29,19.2h-2.07v1.44h2.07v-1.44ZM194.85,6.24l-3.15,1.2c-.29-.81-1.19-2.35-2.68-4.61l2.97-1.11c.85,1.21,1.8,2.72,2.86,4.53Z"/>
  <path class="cls-1" d="M215.84,21.97c-1.23,1.55-3.01,2.89-5.33,4.01s-4.83,1.84-7.54,2.16l-1.26-3.27c2.78-.53,4.94-1.14,6.48-1.85,1.54-.71,2.79-1.51,3.74-2.41h-9.42v-3.09h11.1v-1.58h-8.99v-2.97h8.99v-1.63h-9.08v-1.89h-1.92V3.6h11V1.35h4.12v2.26h11.4v5.84h-2.04v1.89h-9.18v1.63h10.11v2.97h-10.11v1.58h11.65v3.09h-10.11c1.26,1.02,2.63,1.82,4.11,2.4,1.48.59,3.67,1.07,6.57,1.46l-1.66,3.54c-2.47-.23-4.85-.89-7.13-1.98s-4.12-2.44-5.51-4.07ZM213.63,8.47v-1.11h4.29v1.11h7.9v-2.05h-19.83v2.05h7.65Z"/>
  <path class="cls-1" d="M239.75,17.83c-.13,1.37-.36,2.93-.7,4.68-.34,1.75-.67,3.06-.99,3.92l-2.55-.63c.78-3.09,1.22-5.81,1.32-8.16l2.92.19ZM243.73,28.2h-3.49v-11.66c-1.75.18-3.12.28-4.1.32l-.37-2.89c.53,0,1.23-.01,2.09-.04.51-.66,1.08-1.46,1.73-2.39-1.34-1.6-2.65-3.08-3.94-4.44l2.01-2.15.45.47c1.01-1.58,1.79-3.05,2.34-4.39l3.03,1.2c-.96,1.83-2.09,3.61-3.41,5.35l1.26,1.41c1.3-1.99,2.22-3.59,2.75-4.8l3.02,1.41c-1.48,2.57-3.34,5.29-5.58,8.17,1.07-.07,2.01-.14,2.81-.22-.34-1.08-.59-1.77-.73-2.05l2.64-.78c.48,1.32,1.07,3.18,1.77,5.58l-2.74.72c-.02-.18-.1-.54-.25-1.08-.36.07-.8.14-1.3.21v12.07ZM247.88,23.41l-2.8.53c-.24-1.7-.51-3.73-.81-6.08l2.67-.42.94,5.98ZM254.62,25.36c-.74.49-1.86,1-3.34,1.55s-2.79.92-3.91,1.12l-1.08-2.77c2.15-.45,3.98-1.04,5.51-1.76h-3.41v-10.96h14.68v10.96h-3.3c1.44.62,3.12,1.17,5.07,1.67l-1.44,2.92c-2.75-.74-5.02-1.65-6.81-2.72l1.29-1.86h-4.5l1.25,1.86ZM264.2,11.43h-16.77v-2.36h6.39v-.97h-5.33v-2.01h5.33v-1.05h-5.9v-2.29h5.9v-1.38h3.9v1.38h6.06v2.29h-6.06v1.05h5.29v2.01h-5.29v.97h6.49v2.36ZM259.33,15.83v-1.23h-7.38v1.23h7.38ZM251.95,18.6h7.38v-1.26h-7.38v1.26ZM259.33,20.16h-7.38v1.35h7.38v-1.35Z"/>
</svg>