<svg xmlns="http://www.w3.org/2000/svg" width="15.1" height="107.7" viewBox="0 0 15.1 107.7"><defs><style>.cls-1{fill:#3b241a;}.cls-2{fill:none;stroke:#3b241a;stroke-miterlimit:10;stroke-width:3px;}</style></defs><g id="レイヤー_2" data-name="レイヤー 2"><g id="contents"><path class="cls-1" d="M8.05,6c1.18-.28,1.78-.92,1.78-1.93S9.29,2.28,8.42,2.28,7,2.7,6.6,4.27l-.17.58C5.76,7.33,4.82,8,3.22,8,1.32,8,0,6.71,0,4.1,0,2,.92.52,2.82,0l.57,1.81a2.23,2.23,0,0,0-2,2.25C1.43,5.49,2,6.13,3,6.13S4.36,5.8,4.86,4L5,3.46c.68-2.31,1.6-3,3.26-3s3,1.28,3,3.62a3.68,3.68,0,0,1-2.7,3.83Z"/><path class="cls-1" d="M5.22,15.67c1.07-.17,1.56-.65,1.56-1.36,0-1.14-1-1.72-2.73-1.72s-2.75.58-2.75,1.72c0,.83.55,1.3,1.61,1.47l-.44,1.64A3,3,0,0,1,0,14.27c0-2.19,1.5-3.49,4-3.49s4.05,1.34,4.05,3.49a2.94,2.94,0,0,1-2.45,3.11Z"/><path class="cls-1" d="M6.42,24.29c0-.92-.61-1.69-1.95-2.18H.21V20.37H7.9V22H6c1.51.55,2.06,1.35,2.06,2.38Z"/><path class="cls-1" d="M4.06,33.76c-2.49,0-4-1.39-4-3.49S1.53,26.8,4,26.8s4.05,1.4,4.05,3.48S6.56,33.76,4.06,33.76Zm0-5.16c-1.78,0-2.76.53-2.76,1.67S2.26,32,4.05,32s2.74-.53,2.74-1.67S5.81,28.6,4.05,28.6Z"/><path class="cls-1" d="M.21,38.72V37H11.28v1.76Z"/><path class="cls-1" d="M.21,44.16V42.39H11.28v1.77Z"/></g><g id="guide"><polyline class="cls-2" points="4.74 53.35 4.74 105.07 14.34 99.4"/></g></g></svg>