<svg xmlns="http://www.w3.org/2000/svg" viewBox="0 0 330.33 20.88"><defs><style>.cls-1{fill:#ed6c00;}</style></defs><g id="レイヤー_2" data-name="レイヤー 2"><g id="contents"><path class="cls-1" d="M5.1,15.56A3.47,3.47,0,0,0,7,17.38a12.81,12.81,0,0,0,4.14.46,81.75,81.75,0,0,0,9.55-.55A4.18,4.18,0,0,0,20.07,19c-.11.71-.11.71-.82.73-2.81.17-5.5.24-7.81.24a15.34,15.34,0,0,1-5.17-.62,4.75,4.75,0,0,1-2.22-2c-.68.66-1.41,1.32-2.09,2a4.34,4.34,0,0,0-.44.44c-.09.15-.18.22-.31.22S1,19.89.9,19.71A19.06,19.06,0,0,1,0,17.65a11.3,11.3,0,0,0,1.28-.71A10.5,10.5,0,0,0,3,15.58V10.67H2.05c-1.15,0-1.43,0-1.54,0s-.27,0-.27-.26V8.78c0-.22,0-.24.27-.24s.39,0,1.54,0H3.32c1.15,0,1.48,0,1.59,0s.24,0,.24.24-.05.75-.05,2.09ZM2,1.06A.58.58,0,0,1,2.24,1a.31.31,0,0,1,.22.13A15.85,15.85,0,0,1,5.17,4.31c.13.2.13.24-.13.44l-1.23,1c-.14.09-.22.15-.29.15s-.11-.06-.18-.17A16.43,16.43,0,0,0,.7,2.24C.53,2.09.55,2,.79,1.87Zm17,10.45c0,1.34,0,2.37,0,3.12a2.09,2.09,0,0,1-.55,1.74c-.35.29-.84.51-2.25.53-.66,0-.63,0-.74-.51a3.42,3.42,0,0,0-.58-1.52c.53.05,1,.07,1.39.07s.59-.15.59-.64V13.25H13.69v.59c0,1.67,0,2.42,0,2.55s0,.27-.22.27H11.88c-.22,0-.24,0-.24-.27s0-.88,0-2.55v-.59H8.82v.83c0,1.67,0,2.47,0,2.6s0,.24-.25.24H7c-.24,0-.27,0-.27-.24s0-.88,0-2.58V7.92c0-1.72,0-2.46,0-2.62s0-.24.27-.24.86,0,2.93,0h1.18A18.29,18.29,0,0,0,9.24,3.83c-.09-.07-.13-.11-.13-.18s.06-.13.18-.22l1.07-.72H9.55c-2.07,0-2.75,0-2.88,0s-.25,0-.25-.22V1.06c0-.25,0-.27.25-.27s.81,0,2.88,0h6.53a1.78,1.78,0,0,0,.58-.07A.68.68,0,0,1,17,.68c.17,0,.37.16.9.64s.68.73.68,1-.13.33-.37.41a2.38,2.38,0,0,0-.84.55A29.8,29.8,0,0,1,15,5.1h.82c2.09,0,2.81,0,3,0s.24,0,.24.24,0,1,0,2.82ZM11.68,8.36V6.8H8.82V8.36Zm0,3.21V10H8.82v1.56Zm-.9-8.86A16.85,16.85,0,0,1,13,4.44a18.11,18.11,0,0,0,2.2-1.73ZM13.69,6.8V8.36h3.16V6.8Zm3.16,4.77V10H13.69v1.56Z"/><path class="cls-1" d="M27.54,14.61c-1.95,0-2.61,0-2.75,0s-.24,0-.24-.24V12.72c0-.22,0-.24.24-.24s.8,0,2.75,0h5.79a15.11,15.11,0,0,0-.13-1.87l1.28.13a14.31,14.31,0,0,0,2-1.58H31.72c-2,0-2.72,0-2.83,0s-.25,0-.25-.22V7.48c0-.22,0-.24.25-.24s.81,0,2.83,0h6a1.53,1.53,0,0,0,.53,0,.61.61,0,0,1,.28-.09c.18,0,.4.18,1,.7s.61.75.61,1a.33.33,0,0,1-.26.35,5.39,5.39,0,0,0-1.06.73,26,26,0,0,1-3.08,2.29v.35h5.5c2,0,2.62,0,2.76,0s.24,0,.24.24v1.69c0,.22,0,.24-.24.24s-.8,0-2.76,0h-5.5V16c0,.53.05,1.34.05,1.91,0,.95-.18,1.43-.71,1.81s-1.25.48-3.36.48c-.68,0-.68,0-.86-.64a7,7,0,0,0-.66-1.6,21,21,0,0,0,2.35.13c.62,0,.86-.15.86-.77V14.61ZM28.91.53c.28-.11.35-.07.48.11a16.28,16.28,0,0,1,1.48,2.29c.11.22.11.24-.2.35l-1.45.53h4.57a16.53,16.53,0,0,0-1.25-2.75c-.13-.22-.07-.25.2-.33L34.19.29c.26-.09.33,0,.44.13A17.78,17.78,0,0,1,35.84,3c.07.2.07.22-.24.33l-1.43.51h3.39a18.49,18.49,0,0,0,1.07-2.23A6.94,6.94,0,0,0,39,.42a10.19,10.19,0,0,1,2.18.66c.2.09.31.2.31.33a.42.42,0,0,1-.22.33,1.79,1.79,0,0,0-.42.5c-.31.58-.57,1-.9,1.57h.57c2.05,0,2.77-.05,2.91-.05s.26,0,.26.24,0,.55,0,1.19v1c0,2,0,2.34,0,2.47s0,.26-.26.26H41.65c-.22,0-.24,0-.24-.26V5.76H27.32V8.67c0,.22,0,.24-.24.24H25.34c-.24,0-.26,0-.26-.24s0-.51,0-2.49V5.37c0-.82,0-1.21,0-1.37s0-.24.26-.24.86.05,2.91.05h.59a12.56,12.56,0,0,0-1.41-2.47c-.13-.2-.11-.24.16-.33Z"/><path class="cls-1" d="M55.66,9.68v-6H57v6h6V11H57v6H55.66V11h-6V9.68Z"/><path class="cls-1" d="M78.17,9.81a18.48,18.48,0,0,1-3.1,3.39,25,25,0,0,1-4.16,3.08,1,1,0,0,1-.51.2.47.47,0,0,1-.37-.22A4.92,4.92,0,0,0,68.22,15a25.81,25.81,0,0,0,5.13-3.47,21.27,21.27,0,0,0,3.23-3.41l-3.85,0c-1.14,0-2.37,0-3.52.11-.2,0-.28-.13-.31-.38a20.83,20.83,0,0,1-.17-2.13c1.32.09,2.62.11,3.94.11H77.9l-.08-2a11.28,11.28,0,0,0-.36-2.6,19,19,0,0,1,2.78.25c.22,0,.28.13.28.26a1,1,0,0,1-.09.33,6.45,6.45,0,0,0-.08,2l.06,1.68h1.92c1.54,0,2.64,0,4.26-.11.23,0,.33.11.33.26,0,.62,0,1.3,0,1.91a.27.27,0,0,1-.3.31c-1.61-.06-2.86-.11-4.23-.11H80.61l.4,8.28A2.32,2.32,0,0,1,80,18.66a6.74,6.74,0,0,1-3,.77c-.41,0-.57-.09-.68-.38a4.37,4.37,0,0,0-1.54-1.95,16.7,16.7,0,0,0,3.1-.22c.51-.11.69-.33.64-1.3Z"/><path class="cls-1" d="M93.24,3.28a.39.39,0,0,1,.3-.18.66.66,0,0,1,.29.11A23.11,23.11,0,0,1,98,6.34c.14.13.2.22.2.3a.46.46,0,0,1-.13.29c-.33.44-1.06,1.32-1.36,1.65-.12.11-.18.18-.27.18s-.18-.07-.28-.18A23.68,23.68,0,0,0,91.7,5C92.18,4.4,92.82,3.72,93.24,3.28Zm1.91,11.59a32.51,32.51,0,0,0,6.34-4.09,33.5,33.5,0,0,0,6-6,10,10,0,0,0,.61,2.57,1,1,0,0,1,.11.42c0,.2-.11.37-.35.66a36.54,36.54,0,0,1-5.06,4.66,47.42,47.42,0,0,1-6.64,4.32,7.56,7.56,0,0,0-1.48,1,.6.6,0,0,1-.4.22.59.59,0,0,1-.37-.24A15.37,15.37,0,0,1,92.18,16,12.7,12.7,0,0,0,95.15,14.87Z"/><path class="cls-1" d="M117.28,9q-1.65,0-3.3.09c-.19,0-.28-.13-.33-.42a17.71,17.71,0,0,1-.24-2.22,39.59,39.59,0,0,0,4,.18H125a2.39,2.39,0,0,0,1.16-.25.52.52,0,0,1,.29-.13.57.57,0,0,1,.33.16,12.41,12.41,0,0,1,1.47,1.36.62.62,0,0,1,.22.46.51.51,0,0,1-.24.42,2.67,2.67,0,0,0-.75,1,19.25,19.25,0,0,1-9,9.73,1,1,0,0,1-.44.15.7.7,0,0,1-.49-.26,6.3,6.3,0,0,0-2-1.14c4.07-1.9,7.65-4.93,9.24-9.18Zm1.48-4.73c-1,0-2.09,0-3,.09-.22,0-.28-.13-.3-.48a18.38,18.38,0,0,1-.11-2.12,28.54,28.54,0,0,0,3.6.16h4c1.43,0,2.6-.07,3.46-.11.2,0,.26.11.26.35a9.88,9.88,0,0,1,0,1.72c0,.37-.06.46-.39.44-.73,0-1.76-.05-3.11-.05Z"/><path class="cls-1" d="M144.94,14.59c0,1.52,0,2.81.06,4.57,0,.29-.08.38-.33.38a20.18,20.18,0,0,1-2.2,0c-.24,0-.33-.09-.3-.35,0-1.59.08-3,.08-4.51V9.55a37.37,37.37,0,0,1-6.05,4.22.61.61,0,0,1-.79-.13,8.79,8.79,0,0,0-1.89-1.3,35.68,35.68,0,0,0,6.93-4.51,35.86,35.86,0,0,0,4.69-4.6A6.48,6.48,0,0,0,146.52,1,18.78,18.78,0,0,1,149,2.51a.38.38,0,0,1,.18.33.62.62,0,0,1-.31.48,7.43,7.43,0,0,0-1.32,1.21,34.47,34.47,0,0,1-2.57,2.77Z"/><path class="cls-1" d="M156.46,3.28a.42.42,0,0,1,.31-.18.66.66,0,0,1,.29.11,23.11,23.11,0,0,1,4.2,3.13c.13.13.2.22.2.3a.46.46,0,0,1-.13.29c-.33.44-1.06,1.32-1.37,1.65-.11.11-.17.18-.26.18s-.18-.07-.29-.18A23.37,23.37,0,0,0,154.92,5C155.41,4.4,156.05,3.72,156.46,3.28Zm1.92,11.59a32.81,32.81,0,0,0,6.34-4.09,33.5,33.5,0,0,0,6-6,10,10,0,0,0,.61,2.57,1,1,0,0,1,.11.42c0,.2-.11.37-.35.66a36.54,36.54,0,0,1-5.06,4.66,47.6,47.6,0,0,1-6.65,4.32,7.32,7.32,0,0,0-1.47,1,.6.6,0,0,1-.4.22.57.57,0,0,1-.37-.24A15.37,15.37,0,0,1,155.41,16,12.7,12.7,0,0,0,158.38,14.87Z"/><path class="cls-1" d="M186.61,5.5c-2.69.51-5,1-7.4,1.45-.83.2-1.05.24-1.38.35a1.26,1.26,0,0,1-.49.18.52.52,0,0,1-.42-.33,16.1,16.1,0,0,1-.81-2.38,29.9,29.9,0,0,0,3.5-.37c2.71-.4,7.55-1.12,13.22-1.87.33,0,.44.09.47.24a12.39,12.39,0,0,1,.24,1.94c0,.26-.13.33-.42.33a9.55,9.55,0,0,0-2.69.48c-3.74,1.28-5.61,3.85-5.61,6.49,0,2.84,2,4.38,5.86,4.62.35,0,.48.09.48.33a8,8,0,0,1-.24,1.9c-.07.33-.16.46-.42.46-3.87,0-8.12-2.22-8.12-6.8,0-3.12,1.56-5.24,4.23-7ZM191,7.88c.11-.09.2-.07.33,0a9.82,9.82,0,0,1,2.09,2.36.22.22,0,0,1-.06.35l-.93.68c-.15.11-.26.09-.37-.07a11,11,0,0,0-2.22-2.55Zm2-1.43c.13-.09.2-.07.33,0a9.08,9.08,0,0,1,2.09,2.27.25.25,0,0,1-.06.39l-.88.68a.23.23,0,0,1-.38-.06,10.33,10.33,0,0,0-2.2-2.53Z"/><path class="cls-1" d="M200.6,14.87a.46.46,0,0,1,.33-.17.43.43,0,0,1,.28.13,16.27,16.27,0,0,1,4.38,4c.13.17.16.24.16.33s-.05.19-.22.35l-1.35,1.14c-.15.13-.24.2-.3.2s-.2,0-.31-.22a16.46,16.46,0,0,0-4.16-4.2c-.13-.09-.2-.16-.2-.22s0-.13.15-.27Z"/><path class="cls-1" d="M237.91,5.21a.18.18,0,0,1,.26.14,14.58,14.58,0,0,1,.53,1.87c.05.24,0,.28-.17.33a33.92,33.92,0,0,1-5.57,1c0,1.78.15,3,.37,5.08a25.45,25.45,0,0,1,6.38,2.84c.16.09.18.2.09.37a10.13,10.13,0,0,1-1.16,1.85c-.14.13-.2.2-.38.07A20.67,20.67,0,0,0,233.38,16a4.7,4.7,0,0,1,0,.51c-.09,1.89-1.5,3.3-4.45,3.3-2.7,0-4.69-1.21-4.69-3.23s2.1-3.37,4.82-3.37a14.42,14.42,0,0,1,1.85.07c-.26-2.89-.33-5-.37-7.07,0-.79-.05-1.91-.07-3a6.46,6.46,0,0,0-.31-2,20.37,20.37,0,0,1,2.82.4c.24.07.35.2.35.37a.62.62,0,0,1-.11.33,2.76,2.76,0,0,0-.26,1.19c-.05.66-.05,1.63-.05,2.77A20.88,20.88,0,0,0,237.91,5.21Zm-7,10.17a10.68,10.68,0,0,0-2-.22c-1.54,0-2.53.51-2.53,1.3s.88,1.12,2.27,1.12c1.65,0,2.37-1,2.31-1.89Z"/><path class="cls-1" d="M249.75,1.78c.28.11.42.24.42.44a.51.51,0,0,1-.16.35,2.79,2.79,0,0,0-.4,1c-.3,1.49-.48,3.06-.61,4.2a21.73,21.73,0,0,0-.07,2.42c.49-.86.95-1.69,1.54-2.81a4.36,4.36,0,0,0,.69,1.42.59.59,0,0,1,.13.36,1.08,1.08,0,0,1-.22.55,17.77,17.77,0,0,0-1.3,2.81,2.52,2.52,0,0,0-.11.66.32.32,0,0,1-.29.36c-.26.06-1.21.19-1.76.26-.15,0-.26-.13-.31-.29a14.09,14.09,0,0,1-.66-4.46,47.8,47.8,0,0,1,.53-5.48,20,20,0,0,0,.18-2.51A12.11,12.11,0,0,1,249.75,1.78Zm7.15-.37c.44.11.48.22.44.59a6.9,6.9,0,0,0,0,1c.16,2.09.31,4.1.31,5.68,0,3.13-.5,5.83-1.67,7.64a12.14,12.14,0,0,1-3.63,3.54.77.77,0,0,1-.44.15.61.61,0,0,1-.46-.24,5.18,5.18,0,0,0-1.87-1,10.86,10.86,0,0,0,3.74-2.95c1.27-1.74,1.85-3.54,1.85-7,0-1.56-.11-3.85-.27-5.26a10.66,10.66,0,0,0-.46-2.4A12.83,12.83,0,0,1,256.9,1.41Z"/><path class="cls-1" d="M267.28,4c-2,0-2.64,0-2.77,0s-.27,0-.27-.24V2c0-.22,0-.24.27-.24s.81,0,2.77,0h13.25c2,0,2.66,0,2.79,0s.22,0,.22.24v1.8c0,.22,0,.24-.22.24s-.82,0-2.79,0h-7.64c0,1.3-.09,2.46-.2,3.54h5.72c1.87,0,2.51,0,2.64,0s.24,0,.24.24c0,.64,0,1.59,0,2.16a39.24,39.24,0,0,1-.75,7c-.46,2.18-1.52,3-3.69,3-.84,0-1.43,0-2.07-.08s-.68-.09-.84-.82a6.83,6.83,0,0,0-.57-1.74,18.43,18.43,0,0,0,3.19.29c.81,0,1.41-.31,1.65-1.47a35.47,35.47,0,0,0,.64-6.41h-6.43a18.56,18.56,0,0,1-1.07,3.74,13.9,13.9,0,0,1-5.11,6.38c-.24.18-.37.27-.48.27s-.25-.16-.49-.46a5,5,0,0,0-1.43-1.17,11.68,11.68,0,0,0,5.26-6A23.75,23.75,0,0,0,270.45,4Z"/><path class="cls-1" d="M299.22,1.3a19.41,19.41,0,0,0,9.42,6.55,5.69,5.69,0,0,0-.94,1.68c-.16.39-.22.57-.4.57a2.17,2.17,0,0,1-.53-.2,25.09,25.09,0,0,1-3-1.56V10c0,.22,0,.24-.22.24s-.84,0-2.86,0h-1.57v2.47h2.51c2.14,0,2.86,0,3,0s.26,0,.26.25v1.67c0,.22,0,.24-.26.24s-.86,0-3,0h-2.51v2.68h5.24c2,0,2.71,0,2.84,0s.24,0,.24.24v1.71c0,.22,0,.25-.24.25s-.84-.05-2.84-.05H291.79c-2,0-2.73.05-2.86.05s-.25,0-.25-.25V17.56c0-.22,0-.24.25-.24s.83,0,2.86,0h5V14.68h-2.22c-2.14,0-2.86,0-3,0s-.24,0-.24-.24V12.81c0-.22,0-.25.24-.25s.86,0,3,0h2.22V10.14h-1.41c-2,0-2.7,0-2.84,0s-.24,0-.24-.24V8.51A25,25,0,0,1,289.59,10a2,2,0,0,1-.55.2c-.16,0-.25-.15-.42-.55a4.77,4.77,0,0,0-1-1.45c4.11-1.87,6.64-3.9,8.51-6.65A6.77,6.77,0,0,0,297,0a15.21,15.21,0,0,1,2.31.46c.28.07.39.18.39.33s-.06.22-.22.33Zm1.46,6.78c1.52,0,2.26,0,2.61,0a19.36,19.36,0,0,1-5.28-5,20.51,20.51,0,0,1-5.06,5c.4,0,1.13,0,2.4,0Z"/><path class="cls-1" d="M317.18,2.75c.37.2.5.33.5.53s0,.22-.33.66a5.14,5.14,0,0,0-.53,1.56,36.12,36.12,0,0,0-.92,7.11,20.77,20.77,0,0,0,.13,2.57c.46-1,.86-1.74,1.5-3.28a5.41,5.41,0,0,0,.77,1.39,1,1,0,0,1,.15.33.58.58,0,0,1-.11.35,22.43,22.43,0,0,0-1.25,3.32A2.33,2.33,0,0,0,317,18c0,.26.05.44.05.61s-.09.24-.29.29a12,12,0,0,1-1.8.35c-.16,0-.25-.09-.29-.24a20.55,20.55,0,0,1-1-6.56,41.69,41.69,0,0,1,.75-7.22,18.06,18.06,0,0,0,.39-3.27A9.8,9.8,0,0,1,317.18,2.75Zm4.7,10.36c.18,0,.23.09.23.33.13,1.52,1.18,2.07,3.58,2.07a32.53,32.53,0,0,0,4.2-.28c.22,0,.27,0,.31.28a15.45,15.45,0,0,1,.13,1.89c0,.27,0,.29-.37.33a29,29,0,0,1-3.59.25c-3.25,0-4.77-.53-5.72-1.83a4.85,4.85,0,0,1-.77-2.86Zm-1.23-8.23c0-.26.09-.33.31-.37a35.5,35.5,0,0,1,4.78-.4c1.32,0,2.33,0,3.25.14.46,0,.51.06.51.28,0,.66,0,1.26-.05,1.87,0,.2-.08.29-.28.27-1.32-.09-2.47-.14-3.59-.14a27.29,27.29,0,0,0-5,.51C320.61,5.81,320.61,5.26,320.65,4.88Z"/></g></g></svg>