<svg xmlns="http://www.w3.org/2000/svg" viewBox="0 0 194.28 20.49"><defs><style>.cls-1{fill:#ed6c00;}.cls-2{fill:#fff;}.cls-3{fill:#f4891e;}</style></defs><g id="レイヤー_2" data-name="レイヤー 2"><g id="contents"><path class="cls-1" d="M52.44,9.68a18.48,18.48,0,0,1-3.1,3.39,25.16,25.16,0,0,1-4.16,3.08,1,1,0,0,1-.51.2.47.47,0,0,1-.37-.22,4.92,4.92,0,0,0-1.81-1.3,25.53,25.53,0,0,0,5.13-3.48,21,21,0,0,0,3.24-3.41L47,8c-1.15,0-2.38,0-3.53.11-.19,0-.28-.14-.3-.38A18.11,18.11,0,0,1,43,5.57c1.32.08,2.62.11,3.94.11h5.24l-.09-2a11.93,11.93,0,0,0-.35-2.6,20.63,20.63,0,0,1,2.77.24c.22,0,.28.14.28.27a1.3,1.3,0,0,1-.08.33,5.9,5.9,0,0,0-.09,2l.06,1.67H56.6c1.54,0,2.64,0,4.27-.11.22,0,.33.11.33.27,0,.62,0,1.3,0,1.91a.28.28,0,0,1-.31.31C59.28,8,58,7.92,56.67,7.92H54.88l.4,8.27a2.33,2.33,0,0,1-1.06,2.34,6.73,6.73,0,0,1-3,.77c-.42,0-.58-.09-.69-.38A4.44,4.44,0,0,0,49,17a15.26,15.26,0,0,0,3.11-.22c.5-.11.68-.33.63-1.29Z"/><path class="cls-1" d="M67.51,3.15A.42.42,0,0,1,67.82,3a.53.53,0,0,1,.28.11,22.69,22.69,0,0,1,4.21,3.13c.13.13.19.22.19.3a.46.46,0,0,1-.13.29C72,7.24,71.32,8.12,71,8.45c-.11.11-.18.18-.27.18s-.17-.07-.28-.18A23.29,23.29,0,0,0,66,4.86C66.45,4.27,67.09,3.59,67.51,3.15Zm1.91,11.59a32.21,32.21,0,0,0,6.34-4.09,33.22,33.22,0,0,0,6-6,9.57,9.57,0,0,0,.62,2.58,1.19,1.19,0,0,1,.11.42c0,.2-.11.37-.36.66A36,36,0,0,1,77.1,13a46.89,46.89,0,0,1-6.64,4.31,7.87,7.87,0,0,0-1.48,1,.61.61,0,0,1-.39.22.59.59,0,0,1-.38-.25,14.81,14.81,0,0,1-1.76-2.44A12.82,12.82,0,0,0,69.42,14.74Z"/><path class="cls-1" d="M91.56,8.91c-1.1,0-2.2,0-3.3.09-.2,0-.29-.13-.33-.42a15.82,15.82,0,0,1-.25-2.22,39.59,39.59,0,0,0,4,.18h7.55a2.45,2.45,0,0,0,1.17-.25.5.5,0,0,1,.28-.13.61.61,0,0,1,.33.15,13.43,13.43,0,0,1,1.48,1.37.66.66,0,0,1,.22.46.53.53,0,0,1-.25.42,2.56,2.56,0,0,0-.74,1,19.31,19.31,0,0,1-9,9.73,1,1,0,0,1-.44.15.74.74,0,0,1-.49-.26,6.41,6.41,0,0,0-2-1.15c4.07-1.89,7.65-4.92,9.24-9.17ZM93,4.18c-1,0-2.09,0-3,.09-.22,0-.29-.13-.31-.49a18.2,18.2,0,0,1-.11-2.11,30.62,30.62,0,0,0,3.61.16h4c1.43,0,2.59-.07,3.45-.11.2,0,.26.11.26.35a9.77,9.77,0,0,1,0,1.71c0,.38-.06.47-.39.44-.73,0-1.76,0-3.1,0Z"/><path class="cls-1" d="M119.21,14.46c0,1.51,0,2.81.07,4.57,0,.29-.09.38-.33.38a20.18,20.18,0,0,1-2.2,0c-.25,0-.33-.09-.31-.36,0-1.58.09-3,.09-4.51V9.42a37.81,37.81,0,0,1-6,4.22.59.59,0,0,1-.33.09.65.65,0,0,1-.47-.22,7.92,7.92,0,0,0-1.89-1.3,35.08,35.08,0,0,0,6.93-4.51,35.86,35.86,0,0,0,4.69-4.6A6.51,6.51,0,0,0,120.8.84a19.51,19.51,0,0,1,2.44,1.54.38.38,0,0,1,.17.33.64.64,0,0,1-.3.48,6.8,6.8,0,0,0-1.32,1.21,34.55,34.55,0,0,1-2.58,2.77Z"/><path class="cls-1" d="M130.74,3.15a.42.42,0,0,1,.31-.18.56.56,0,0,1,.28.11,22.65,22.65,0,0,1,4.2,3.13c.14.13.2.22.2.3a.46.46,0,0,1-.13.29c-.33.44-1.06,1.32-1.36,1.65-.11.11-.18.18-.27.18s-.17-.07-.28-.18a23.29,23.29,0,0,0-4.49-3.59C129.68,4.27,130.32,3.59,130.74,3.15Zm1.91,11.59A32.21,32.21,0,0,0,139,10.65a33.22,33.22,0,0,0,6-6,10,10,0,0,0,.61,2.58,1,1,0,0,1,.11.42c0,.2-.11.37-.35.66A36,36,0,0,1,140.33,13a47.48,47.48,0,0,1-6.64,4.31,7.87,7.87,0,0,0-1.48,1,.61.61,0,0,1-.39.22.57.57,0,0,1-.38-.25,14.81,14.81,0,0,1-1.76-2.44A13,13,0,0,0,132.65,14.74Z"/><path class="cls-1" d="M154.87,4c1.67,0,2.22-.05,2.33-.05s.25,0,.25.24V5.79c0,.24,0,.26-.25.26s-.66,0-2.33,0h-2c-1.67,0-2.22,0-2.33,0s-.25,0-.25-.26V4.22c0-.22,0-.24.25-.24s.66.05,2.33.05Zm2,12.49c0,2.56,0,3,0,3.17s0,.25-.24.25h-1.5c-.22,0-.24,0-.24-.25v-.61H153v1c0,.22,0,.24-.24.24h-1.47c-.25,0-.27,0-.27-.24s0-.64,0-3.3V15.38c0-1.39,0-1.91,0-2.07s0-.24.27-.24.59,0,2,0h1.36c1.41,0,1.87,0,2,0s.24,0,.24.24,0,.66,0,1.7ZM154.76,1c1.41,0,1.85,0,2,0s.27,0,.27.24V2.66c0,.22,0,.24-.27.24s-.57,0-2,0h-1.47c-1.43,0-1.87,0-2,0s-.25,0-.25-.24V1.21c0-.22,0-.24.25-.24s.57,0,2,0Zm-.2,6.14c1.32,0,1.72,0,1.85,0s.27,0,.27.24V8.78c0,.22,0,.24-.27.24s-.53,0-1.85,0h-1.18c-1.35,0-1.74,0-1.87,0s-.25,0-.25-.24V7.35c0-.22,0-.24.25-.24s.52,0,1.87,0Zm0,3c1.32,0,1.72,0,1.85,0s.27,0,.27.24v1.41c0,.22,0,.24-.27.24s-.53,0-1.85,0h-1.18c-1.35,0-1.74,0-1.87,0s-.25,0-.25-.24V10.32c0-.22,0-.24.25-.24s.52,0,1.87,0ZM153,14.94v2.31h1.94V14.94Zm17.49,1.47c0,.25,0,.27-.24.27-.06,0-.44,0-1.21,0,0,.48.05.94.05,1.32,0,.92-.11,1.32-.51,1.69s-.92.44-2.6.46c-.66,0-.66,0-.81-.68a5.72,5.72,0,0,0-.48-1.28c.61,0,1.14.07,1.67.07s.72-.15.72-.59v-1h-6.53v1c0,1.57,0,2.32,0,2.45s0,.22-.24.22h-1.54c-.22,0-.24,0-.24-.22s0-.82,0-2.38v-1c-.64,0-.92,0-1,0-.22,0-.24,0-.24-.27V15.2c0-.22,0-.24.24-.24l1,0V12.45c0-1.54,0-2.24,0-2.39s0-.25.24-.25.79,0,2.73,0h1.17v-1h-2c-2.11,0-2.84,0-3,0s-.24,0-.24-.27V7.46c0-.22,0-.24.24-.24s.86,0,3,0V6.16c-1.3,0-1.78,0-1.89,0s-.24,0-.24-.25v-1c0-.2,0-.22.24-.22s.59,0,1.89,0V3.67l-2.44.05c-.22,0-.24,0-.24-.27V2.4c0-.22,0-.24.24-.24s.75,0,2.44,0V1.85A6.53,6.53,0,0,0,160.55.2c.73,0,1.41.09,2,.15.22,0,.33.11.33.18a.68.68,0,0,1-.11.35,2.09,2.09,0,0,0-.13,1V2.2h2.18V1.85A6.53,6.53,0,0,0,164.69.2c.72,0,1.4.09,2,.15.22,0,.33.11.33.18a1,1,0,0,1-.13.39c-.11.2-.11.38-.11,1V2.2c2,0,2.7,0,2.86,0s.24,0,.24.24V3.45c0,.25,0,.27-.24.27s-.86-.05-2.86-.05V4.75c1.56,0,2.17,0,2.31,0s.24,0,.24.22V6c0,.22,0,.25-.24.25s-.75,0-2.31,0v1.1h.33c2.13,0,2.86,0,3,0s.22,0,.22.24V8.6c0,.25,0,.27-.22.27s-.86,0-3,0h-2.49v1h1.45c1.94,0,2.62,0,2.75,0s.24,0,.24.25,0,1,0,2.59V15l1.23,0c.22,0,.24,0,.24.24Zm-7.76-3.89V11.38h-2.18v1.14Zm0,2.49V13.84h-2.18V15Zm2.09-10.26V3.67h-2.18V4.75Zm0,2.51V6.16h-2.18v1.1Zm-.22,4.12v1.14h2.48V11.38ZM167.08,15V13.84H164.6V15Z"/><path class="cls-1" d="M178.48,7.28c0,1.61,0,3-.09,4.12A10.65,10.65,0,0,0,180.79,7,7.5,7.5,0,0,0,181,5.54c.59.14,1.34.27,1.85.42.26.09.37.18.37.31a.49.49,0,0,1-.13.31,1.93,1.93,0,0,0-.35.75c-.11.35-.2.68-.31,1a10.1,10.1,0,0,0,2.27,2.55,6.18,6.18,0,0,0-.93,1c-.17.31-.28.47-.39.47s-.24-.14-.44-.38a9.56,9.56,0,0,1-1.32-1.69,11.26,11.26,0,0,1-1.23,1.91c-.25.33-.36.46-.47.46s-.17-.08-.28-.19a6.77,6.77,0,0,0-1.3-1c-.07,1.1-.18,2.05-.31,3a16.25,16.25,0,0,1-1.65,5.13c-.15.28-.24.44-.35.44s-.24-.13-.44-.36a7.64,7.64,0,0,0-1.43-1.29,12.28,12.28,0,0,0,1.71-4.87,45,45,0,0,0,.36-6.71c0-2.92,0-4.24,0-4.38s0-.22.24-.22.86,0,3,0h4.38V1.78A9,9,0,0,0,183.65,0c.86,0,1.6.07,2.33.13.22,0,.35.13.35.22a.94.94,0,0,1-.13.42,2.27,2.27,0,0,0-.15,1v.55h5c2.09,0,2.8,0,2.93,0s.22,0,.22.22V4.05c0,.22,0,.24-.22.24s-.84,0-2.93,0H178.48Zm2.79,12.28c-2.15,0-2.88,0-3,0s-.24,0-.24-.26V17.78c0-.22,0-.24.24-.24s.86,0,3,0h3.48V15.36h-2c-2.11,0-2.86,0-3,0s-.27,0-.27-.26v-1.5c0-.22,0-.24.27-.24s.88,0,3,0h2V7.26a14.66,14.66,0,0,0-.13-2.4,21.87,21.87,0,0,1,2.2.16c.22,0,.35.13.35.26a1,1,0,0,1-.13.49,4,4,0,0,0-.13,1.54v4A11,11,0,0,0,189.39,7a5.91,5.91,0,0,0,.27-1.41,15.64,15.64,0,0,1,1.82.44c.24.07.38.18.38.29a.43.43,0,0,1-.16.31,1.66,1.66,0,0,0-.35.75l-.24.75A11.15,11.15,0,0,0,193.9,11a4.32,4.32,0,0,0-1,1.12c-.17.29-.28.44-.39.44s-.25-.11-.47-.33A13,13,0,0,1,190.29,10a12.24,12.24,0,0,1-1.4,2.18c-.2.26-.31.4-.42.4s-.27-.14-.51-.38a4.2,4.2,0,0,0-1.05-.75v2h2.66c2.11,0,2.84,0,3,0s.26,0,.26.24v1.5c0,.24,0,.26-.26.26s-.86,0-3,0h-2.66v2.22H191c2.13,0,2.88,0,3,0s.25,0,.25.24v1.56c0,.24,0,.26-.25.26s-.88,0-3,0Z"/><rect class="cls-2" x="1" y="2.58" width="17.13" height="10.05"/><path class="cls-3" d="M17.12,3.58v8.06H2V3.58H17.12m1-2H1a1,1,0,0,0-1,1V12.64a1,1,0,0,0,1,1H18.13a1,1,0,0,0,1-1V2.58a1,1,0,0,0-1-1Z"/><path class="cls-3" d="M.92,15.4H18.19a2.8,2.8,0,0,1,1.68.56l4.37,3.29a.69.69,0,0,1-.41,1.24H6.77a3,3,0,0,1-2-.77L.68,16A.36.36,0,0,1,.92,15.4Z"/></g></g></svg>