<svg xmlns="http://www.w3.org/2000/svg" viewBox="0 0 134.59 22.21"><defs><style>.cls-1{fill:#ed6c00;}.cls-2{fill:#f4891e;}</style></defs><g id="レイヤー_2" data-name="レイヤー 2"><g id="contents"><path class="cls-1" d="M47.16,17.3A3.45,3.45,0,0,0,49,19.13a13,13,0,0,0,4.13.46A84,84,0,0,0,62.71,19a4.27,4.27,0,0,0-.59,1.74c-.11.7-.11.7-.82.72-2.81.18-5.5.25-7.81.25a15.61,15.61,0,0,1-5.17-.62,4.81,4.81,0,0,1-2.22-2c-.68.66-1.41,1.32-2.09,1.95a5.77,5.77,0,0,0-.44.44c-.09.16-.18.23-.31.23s-.22-.12-.31-.29a19.29,19.29,0,0,1-.9-2.07,11.35,11.35,0,0,0,1.28-.7A11.15,11.15,0,0,0,45,17.32v-4.9H44.1c-1.15,0-1.43,0-1.54,0s-.27,0-.27-.26V10.52c0-.22,0-.24.27-.24s.39.05,1.54.05h1.27c1.15,0,1.48-.05,1.59-.05s.24,0,.24.24,0,.75,0,2.09ZM44,2.8a.58.58,0,0,1,.26-.11.31.31,0,0,1,.22.13,15.91,15.91,0,0,1,2.71,3.24c.13.19.13.24-.13.44l-1.23.94c-.13.09-.22.16-.29.16s-.11-.07-.17-.18A16.72,16.72,0,0,0,42.75,4c-.17-.16-.15-.22.09-.38ZM61,13.25c0,1.34,0,2.38,0,3.13a2.07,2.07,0,0,1-.55,1.73c-.35.29-.84.51-2.25.53-.65,0-.63,0-.74-.5a3.42,3.42,0,0,0-.58-1.52c.53,0,1,.06,1.39.06s.59-.15.59-.63V15H55.74v.59c0,1.68,0,2.42,0,2.56s0,.26-.22.26H53.93c-.22,0-.24,0-.24-.26s0-.88,0-2.56V15H50.87v.84c0,1.67.05,2.46.05,2.59s0,.24-.24.24H49.07c-.24,0-.26,0-.26-.24s0-.88,0-2.57V9.67c0-1.72,0-2.47,0-2.62s0-.25.26-.25.86,0,2.93,0h1.18a18.33,18.33,0,0,0-1.89-1.28c-.09-.06-.13-.11-.13-.17s.07-.14.18-.22l1.07-.73H51.6c-2.07,0-2.75,0-2.88,0s-.24,0-.24-.22V2.8c0-.24,0-.26.24-.26s.81,0,2.88,0h6.53a1.53,1.53,0,0,0,.58-.07A.78.78,0,0,1,59,2.43c.17,0,.37.15.9.63s.68.73.68.95-.13.33-.37.42a2.24,2.24,0,0,0-.84.55c-.77.66-1.5,1.23-2.4,1.87h.82c2.09,0,2.81,0,3,0s.24,0,.24.25,0,1,0,2.81Zm-7.27-3.14V8.54H50.87v1.57Zm0,3.21V11.76H50.87v1.56Zm-.9-8.87a17.83,17.83,0,0,1,2.22,1.74,19.27,19.27,0,0,0,2.2-1.74Zm2.91,4.09v1.57H58.9V8.54Zm3.16,4.78V11.76H55.74v1.56Z"/><path class="cls-1" d="M69.6,16.35c-2,0-2.62,0-2.76,0s-.24,0-.24-.24v-1.7c0-.22,0-.24.24-.24s.8,0,2.76,0h5.78a15.25,15.25,0,0,0-.13-1.87l1.28.14a14.39,14.39,0,0,0,2-1.59H73.78c-2,0-2.73.05-2.84.05s-.24,0-.24-.22V9.23c0-.22,0-.25.24-.25s.81,0,2.84,0h6a1.23,1.23,0,0,0,.53,0,.74.74,0,0,1,.28-.08c.18,0,.4.17,1,.7s.61.75.61,1a.35.35,0,0,1-.26.35,5.19,5.19,0,0,0-1.06.72,26,26,0,0,1-3.08,2.29v.35h5.5c2,0,2.62,0,2.75,0s.25,0,.25.24v1.7c0,.22,0,.24-.25.24s-.79,0-2.75,0h-5.5v1.43c0,.53.05,1.35.05,1.92,0,.95-.18,1.43-.71,1.8S75.8,22,73.69,22c-.68,0-.68,0-.86-.64a6.7,6.7,0,0,0-.66-1.61,21,21,0,0,0,2.35.13c.62,0,.86-.15.86-.77V16.35ZM71,2.27c.29-.11.35-.06.48.11a16.87,16.87,0,0,1,1.48,2.29c.11.22.11.24-.2.35l-1.45.53h4.57A16.53,16.53,0,0,0,74.59,2.8c-.13-.22-.07-.24.2-.33L76.24,2c.26-.09.33,0,.44.13a18.3,18.3,0,0,1,1.21,2.55c.07.2.07.22-.24.33l-1.43.51h3.39a18.33,18.33,0,0,0,1.07-2.22A7.42,7.42,0,0,0,81,2.16a11.47,11.47,0,0,1,2.18.66c.2.09.31.2.31.33a.42.42,0,0,1-.22.33,1.71,1.71,0,0,0-.42.51c-.31.57-.57,1-.9,1.56h.57c2,0,2.78,0,2.91,0s.26,0,.26.24,0,.55,0,1.19V8c0,2,0,2.33,0,2.46s0,.27-.26.27H83.7c-.22,0-.24,0-.24-.27V7.51H69.38v2.9c0,.22,0,.25-.25.25H67.4c-.25,0-.27,0-.27-.25s0-.5,0-2.48V7.11c0-.81,0-1.21,0-1.36s0-.24.27-.24.85,0,2.9,0h.59a12.46,12.46,0,0,0-1.4-2.46c-.14-.2-.11-.25.15-.33Z"/><path class="cls-1" d="M95.18,5.9c1.67,0,2.22,0,2.33,0s.24,0,.24.24V7.66c0,.24,0,.27-.24.27s-.66,0-2.33,0h-2c-1.68,0-2.23,0-2.34,0s-.24,0-.24-.27V6.1c0-.22,0-.24.24-.24s.66,0,2.34,0Zm2,12.5c0,2.55,0,3,0,3.17s0,.24-.24.24h-1.5c-.22,0-.24,0-.24-.24V21H93.31v1c0,.23,0,.25-.24.25H91.59c-.24,0-.26,0-.26-.25s0-.63,0-3.3v-1.4c0-1.39,0-1.92,0-2.07s0-.24.26-.24.6,0,2,0H95c1.41,0,1.87,0,2,0s.24,0,.24.24,0,.66,0,1.69ZM95.07,2.89c1.41,0,1.85-.05,2-.05s.27,0,.27.25V4.54c0,.22,0,.24-.27.24s-.57,0-2,0H93.6c-1.43,0-1.87,0-2,0s-.24,0-.24-.24V3.09c0-.22,0-.25.24-.25s.58.05,2,.05ZM94.87,9c1.32,0,1.72,0,1.85,0S97,9,97,9.23v1.43c0,.22,0,.24-.27.24s-.53-.05-1.85-.05H93.68c-1.34,0-1.73.05-1.87.05s-.24,0-.24-.24V9.23c0-.22,0-.25.24-.25s.53,0,1.87,0Zm0,3c1.32,0,1.72-.05,1.85-.05s.27,0,.27.25v1.4c0,.22,0,.25-.27.25s-.53,0-1.85,0H93.68c-1.34,0-1.73,0-1.87,0s-.24,0-.24-.25V12.2c0-.22,0-.25.24-.25s.53.05,1.87.05Zm-1.56,4.82v2.31h1.94V16.82Zm17.49,1.47c0,.24,0,.26-.24.26-.06,0-.44,0-1.21,0,0,.49,0,.95,0,1.32,0,.93-.1,1.32-.5,1.7s-.93.44-2.6.46c-.66,0-.66,0-.81-.68a5.11,5.11,0,0,0-.49-1.28c.62,0,1.15.07,1.68.07s.72-.16.72-.6v-1h-6.53v1c0,1.56,0,2.31,0,2.44s0,.22-.24.22H99.12c-.22,0-.24,0-.24-.22s0-.81,0-2.37v-1c-.64,0-.92,0-1,0-.22,0-.24,0-.24-.26V17.08c0-.22,0-.24.24-.24l1,0V14.33c0-1.54,0-2.24,0-2.4s0-.24.24-.24.79,0,2.73,0H103v-1h-2c-2.11,0-2.84,0-3,0s-.24,0-.24-.26V9.33c0-.21,0-.24.24-.24s.86.05,3,.05V8l-1.89,0c-.22,0-.24,0-.24-.24v-1c0-.19,0-.22.24-.22s.59,0,1.89,0V5.55l-2.44,0c-.22,0-.24,0-.24-.26V4.27c0-.22,0-.24.24-.24s.75,0,2.44,0V3.72a6.53,6.53,0,0,0-.13-1.65c.72.05,1.41.09,2,.16.22,0,.33.11.33.17a.72.72,0,0,1-.11.36,2,2,0,0,0-.13,1v.29h2.18V3.72A6.44,6.44,0,0,0,105,2.07c.73.05,1.41.09,2,.16.22,0,.33.11.33.17a.88.88,0,0,1-.14.4,2.14,2.14,0,0,0-.1,1v.29c2,0,2.7,0,2.86,0s.24,0,.24.24V5.33c0,.24,0,.26-.24.26s-.86,0-2.86,0V6.63c1.56,0,2.17,0,2.3,0s.25,0,.25.22v1c0,.22,0,.24-.25.24l-2.3,0v1.1h.33c2.13,0,2.86-.05,3-.05s.22,0,.22.24v1.15c0,.24,0,.26-.22.26s-.86,0-3,0h-2.49v1h1.45c1.94,0,2.62,0,2.75,0s.24,0,.24.24,0,1,0,2.6v2.35l1.23,0c.22,0,.24,0,.24.24ZM103,14.4V13.25h-2.18V14.4Zm0,2.48V15.72h-2.18v1.16Zm2.09-10.25V5.55H103V6.63Zm0,2.51V8H103v1.1Zm-.22,4.11V14.4h2.48V13.25Zm2.48,3.63V15.72h-2.48v1.16Z"/><path class="cls-1" d="M118.79,9.16c0,1.61,0,2.95-.09,4.11a10.61,10.61,0,0,0,2.4-4.37,8.47,8.47,0,0,0,.24-1.48c.59.13,1.34.27,1.85.42.26.09.37.18.37.31a.49.49,0,0,1-.13.31,1.94,1.94,0,0,0-.35.74c-.11.36-.2.69-.31,1A10.13,10.13,0,0,0,125,12.75a5.48,5.48,0,0,0-.93,1c-.17.31-.28.46-.39.46s-.25-.13-.44-.37a10,10,0,0,1-1.32-1.7,11.18,11.18,0,0,1-1.24,1.92c-.24.33-.35.46-.46.46s-.17-.09-.28-.2a6.69,6.69,0,0,0-1.3-.94c-.07,1.1-.18,2-.31,3a16.54,16.54,0,0,1-1.65,5.12c-.16.29-.24.44-.35.44s-.24-.13-.44-.35a7.7,7.7,0,0,0-1.43-1.3,12.39,12.39,0,0,0,1.71-4.86,45.33,45.33,0,0,0,.35-6.71c0-2.93,0-4.25,0-4.38s0-.22.24-.22.86,0,2.95,0h4.38v-.5A9,9,0,0,0,124,1.88c.86,0,1.6.06,2.33.13.22,0,.35.13.35.22a1,1,0,0,1-.13.42,2.21,2.21,0,0,0-.15,1v.55h5c2.09,0,2.8,0,2.93,0s.22,0,.22.22V5.92c0,.22,0,.25-.22.25s-.84,0-2.93,0H118.79Zm2.79,12.28c-2.16,0-2.88,0-3,0s-.24,0-.24-.26V19.65c0-.22,0-.24.24-.24s.85.05,3,.05h3.48V17.23h-2c-2.12,0-2.86.05-3,.05s-.27,0-.27-.27V15.52c0-.22,0-.24.27-.24s.87,0,3,0h2V9.14a14.59,14.59,0,0,0-.13-2.4,21.93,21.93,0,0,1,2.2.15c.22,0,.35.13.35.27a1.08,1.08,0,0,1-.13.48,3.71,3.71,0,0,0-.14,1.54v4.05a11,11,0,0,0,2.49-4.4A6,6,0,0,0,130,7.42a15.33,15.33,0,0,1,1.83.44c.24.07.38.18.38.29a.43.43,0,0,1-.16.31,1.6,1.6,0,0,0-.35.74l-.24.75a10.84,10.84,0,0,0,2.79,2.88,4.55,4.55,0,0,0-1,1.13c-.18.28-.29.44-.39.44s-.25-.11-.47-.33a13,13,0,0,1-1.76-2.18,12.67,12.67,0,0,1-1.41,2.18c-.19.26-.3.39-.41.39s-.27-.13-.51-.37a3.84,3.84,0,0,0-1.06-.75v2h2.67c2.11,0,2.83,0,3,0s.26,0,.26.24V17c0,.25,0,.27-.26.27s-.86-.05-3-.05h-2.67v2.23h4.12c2.13,0,2.88-.05,3-.05s.25,0,.25.24v1.57c0,.24,0,.26-.25.26s-.88,0-3,0Z"/><rect class="cls-2" y="14" width="24" height="7.61"/><path class="cls-2" d="M18,6.5V3.44A3.44,3.44,0,0,0,14.56,0H9.44A3.44,3.44,0,0,0,6,3.44V6.5H0V12H24V6.5ZM8,3.44A1.45,1.45,0,0,1,9.44,2h5.12A1.45,1.45,0,0,1,16,3.44V6.5H8Z"/></g></g></svg>