<svg xmlns="http://www.w3.org/2000/svg" xmlns:xlink="http://www.w3.org/1999/xlink" viewBox="0 0 321 21" width="321px" height="21px">

<!-- 
<defs><clipPath id="clip-path"><rect x="785.28" y="423.8" width="1366" height="889" style="fill:none"/></clipPath><clipPath id="clip-path-2"><rect x="-638.72" y="303.8" width="1366" height="1009" style="fill:none"/></clipPath><image id="image" width="2500" height="1669" xlink:href="ongoing_project/%E8%83%BD%E5%8A%9B%E9%96%8B%E7%99%BA%E3%82%BB%E3%83%B3%E3%82%BF%E3%83%BC/%E3%83%86%E3%82%99%E3%82%B5%E3%82%99%E3%82%A4%E3%83%B3/%E6%92%AE%E5%BD%B1%E3%83%86%E3%82%99%E3%83%BC%E3%82%BF/1111/jpg/1111_K7D9714.jpg"/></defs><title>03_spアートボード 32</title><g id="photo"><g style="opacity:0.14"><g style="clip-path:url(#clip-path)"><use transform="translate(190.17 -10.91) scale(0.86)" xlink:href="#image"/></g></g><g style="opacity:0.18"><g style="clip-path:url(#clip-path-2)"><use transform="translate(-1215.96 -29.25) scale(0.86)" xlink:href="#image"/></g></g></g> -->


<!-- <g id="header"> -->

<path d="M19.2,2,17,1.37a1.32,1.32,0,0,0-1.59.73l-1,2.33a1,1,0,0,0,.51,1.29l2.27,1a.54.54,0,0,1,.19.67,25.05,25.05,0,0,1-3.08,7,.53.53,0,0,1-.61.31L12,13.84a1.6,1.6,0,0,0-2.13.81l-.82,1.86A1.18,1.18,0,0,0,9.52,18l2,1.16a3.58,3.58,0,0,0,1.14.43h0a3.86,3.86,0,0,0,4.2-2.23A58.45,58.45,0,0,0,21.29,7.28,4,4,0,0,0,20.08,2.5h0A2.85,2.85,0,0,0,19.2,2Z" style="fill:#3b241a"/><path d="M50,7.61c0,5.69-2.76,12.58-8.49,12.58-3.8,0-5.29-2.9-5.29-6.55,0-5.74,2.94-12.27,8.54-12.27C48.63,1.37,50,4.38,50,7.61Zm-9.8,6.16c0,1.36.21,3.22,1.8,3.22,2.77,0,4-6.93,4-9.34,0-1.21-.18-3.07-1.72-3.07C41.57,4.58,40.17,11.11,40.17,13.77Z" style="fill:#f4891e"/><path d="M51.68,15.79a8.73,8.73,0,0,0,4,1c2.26,0,3.6-1.14,3.6-2.59,0-1.64-1.34-2.43-3.71-2.43h-.72l.59-3.07h.64c1.89,0,4-.76,4-2.39,0-.9-.68-1.57-2.23-1.57a7.94,7.94,0,0,0-3.76.89l-.55-3a11.12,11.12,0,0,1,5.11-1.25c3.05,0,5.7,1.41,5.7,4.28,0,2.25-1.78,3.91-4.06,4.48l0,0a3.92,3.92,0,0,1,3.18,4c0,3.83-3.9,6-7.88,6-2.32,0-4.35-.56-5.15-1.24Z" style="fill:#f4891e"/><path d="M73.88,11.1l-.55,2.84H66.07l.55-2.84Z" style="fill:#f4891e"/><path d="M88.63,5.13H82.21L81.36,8a4.85,4.85,0,0,1,.76,0A6.6,6.6,0,0,1,85.9,9a4.77,4.77,0,0,1,2,4.06c0,4.55-3.84,7.12-8.41,7.12a8.61,8.61,0,0,1-4.73-1.08l1-3.2a8,8,0,0,0,3.73.89c2,0,4.17-1.07,4.17-3,0-1.61-1-2.79-4.52-2.79-.88,0-1.5.06-2.25.12l2.63-9.42h9.76Z" style="fill:#f4891e"/><path d="M103.3,4.73a8.09,8.09,0,0,0-1.53,0A7.39,7.39,0,0,0,95.36,9l0,0a5.48,5.48,0,0,1,3.74-1.41c2.67,0,4.63,2.08,4.63,5.1a7.29,7.29,0,0,1-7.28,7.42c-4.06,0-6-2.8-6-6.39A12.5,12.5,0,0,1,95,4.09a12.89,12.89,0,0,1,7.43-2.65,8.27,8.27,0,0,1,1.51,0Zm-3.68,8.46a2.22,2.22,0,0,0-2.25-2.51,3.14,3.14,0,0,0-2.62,1.68,2.28,2.28,0,0,0-.29.92,7,7,0,0,0-.07,1c0,1.57.82,2.83,2.25,2.83C98.58,17.09,99.62,14.91,99.62,13.19Z" style="fill:#f4891e"/><path d="M106.14,15.79a8.69,8.69,0,0,0,4,1c2.26,0,3.6-1.14,3.6-2.59,0-1.64-1.35-2.43-3.72-2.43h-.71l.59-3.07h.64c1.89,0,4-.76,4-2.39,0-.9-.68-1.57-2.23-1.57a7.91,7.91,0,0,0-3.76.89l-.56-3a11.15,11.15,0,0,1,5.11-1.25c3.06,0,5.71,1.41,5.71,4.28,0,2.25-1.79,3.91-4.06,4.48l0,0a3.92,3.92,0,0,1,3.18,4c0,3.83-3.9,6-7.88,6A9.14,9.14,0,0,1,104.91,19Z" style="fill:#f4891e"/><path d="M119.75,19.88l.48-2.59,3.93-3c3.64-3,6-5.1,6-7.3a2.2,2.2,0,0,0-2.5-2.2,7.11,7.11,0,0,0-3.85,1.08L123,2.94a11.27,11.27,0,0,1,5.65-1.57c3.68,0,5.68,2.15,5.68,5,0,3.71-3,6.29-6.18,8.74l-1.81,1.31v.05h6.53l-.64,3.44Z" style="fill:#f4891e"/><path d="M143.48,11.1l-.54,2.84h-7.26l.54-2.84Z" style="fill:#f4891e"/><path d="M157.75,4.73a8,8,0,0,0-1.52,0A7.37,7.37,0,0,0,149.82,9l.05,0a5.48,5.48,0,0,1,3.74-1.41c2.67,0,4.63,2.08,4.63,5.1A7.3,7.3,0,0,1,151,20.19c-4.06,0-6.05-2.8-6.05-6.39a12.5,12.5,0,0,1,4.51-9.71,12.89,12.89,0,0,1,7.42-2.65,8.37,8.37,0,0,1,1.52,0Zm-3.67,8.46a2.22,2.22,0,0,0-2.25-2.51,3.14,3.14,0,0,0-2.62,1.68,2.14,2.14,0,0,0-.29.92,7,7,0,0,0-.07,1c0,1.57.81,2.83,2.24,2.83C153,17.09,154.08,14.91,154.08,13.19Z" style="fill:#f4891e"/><path d="M174,7.61c0,5.69-2.76,12.58-8.49,12.58-3.79,0-5.28-2.9-5.28-6.55,0-5.74,2.93-12.27,8.53-12.27C172.69,1.37,174,4.38,174,7.61Zm-9.8,6.16c0,1.36.21,3.22,1.8,3.22,2.77,0,4-6.93,4-9.34,0-1.21-.19-3.07-1.73-3.07C165.63,4.58,164.23,11.11,164.23,13.77Z" style="fill:#f4891e"/><path d="M182.14,5.47h0l-3.58,1.58-.13-3.16,5.06-2.21h3.3l-3.44,18.2h-3.88Z" style="fill:#f4891e"/><path d="M197.29,5.47h-.06l-3.58,1.58-.12-3.16,5.06-2.21h3.3l-3.44,18.2h-3.88Z" style="fill:#f4891e"/><path d="M218.14,5.59a8.61,8.61,0,0,0-2.24,6,8.62,8.62,0,0,0,2.24,6l-.38.31A8.4,8.4,0,0,1,215,11.61a8.39,8.39,0,0,1,2.72-6.33Z" style="fill:#f4891e"/><path d="M234,12.75c0,.09,0,.11-.1.11s-.48,0-1.71,0h-3.52V16c0,.93,0,1.32,0,1.38s0,.11-.11.11h-.69c-.09,0-.1,0-.1-.11s0-.45,0-1.38V12.83h-3.42c-1.21,0-1.63,0-1.69,0s-.11,0-.11-.11v-.61c0-.09,0-.1.11-.1s.48,0,1.69,0h3.42V7.31h-2.69c-1.3,0-1.73,0-1.8,0s-.1,0-.1-.1v-.6c0-.09,0-.11.1-.11s.5,0,1.8,0h6.43c1.29,0,1.72,0,1.78,0s.11,0,.11.11v.6c0,.09,0,.1-.11.1s-.49,0-1.78,0h-2.9v4.75h3.52c1.23,0,1.63,0,1.71,0s.1,0,.1.1Zm-9.41-4.7c.12-.07.13-.06.18,0A12.53,12.53,0,0,1,226.26,11c0,.07,0,.1-.1.15l-.44.18c-.19.08-.2.08-.24,0a12.35,12.35,0,0,0-1.4-2.82c-.07-.07,0-.1.12-.18Zm7.92.49a1,1,0,0,0-.24.35,15.54,15.54,0,0,1-1.41,2.37c-.1.11-.13.17-.19.17s-.09,0-.19-.11a1.68,1.68,0,0,0-.47-.22,11.54,11.54,0,0,0,1.53-2.53,2.76,2.76,0,0,0,.2-.65,7.17,7.17,0,0,1,.77.32c.07,0,.11.08.11.14S232.55,8.48,232.48,8.54Z" style="fill:#f4891e"/><path d="M244.84,12.49c0,3.72,0,4.37,0,4.44s0,.1-.11.1h-.62c-.09,0-.11,0-.11-.1v-.8h-6V17c0,.09,0,.11-.09.11h-.63c-.09,0-.11,0-.11-.11s0-.73,0-4.46V10c0-2.52,0-3.19,0-3.27s0-.11.11-.11.52,0,1.8,0H243c1.29,0,1.73,0,1.81,0s.11,0,.11.11,0,.75,0,3ZM244,7.37h-6v3.52h6Zm0,4.25h-6v3.77h6Z" style="fill:#f4891e"/><path d="M252.57,14.72a1.26,1.26,0,0,0,1.21.89c1.26,0,2-1,2.08-4A2.27,2.27,0,0,1,253.78,13c-1.4,0-2.49-1.17-2.49-3s1.12-3.24,2.69-3.24c1.75,0,2.91,1.37,2.91,4.44,0,3.75-1.14,5.31-3.11,5.31a2.25,2.25,0,0,1-2.25-1.28ZM254,7.6c-1,0-1.64.9-1.64,2.36s.66,2.12,1.58,2.12a2.06,2.06,0,0,0,1.85-1.41C255.78,8.7,255.17,7.6,254,7.6Z" style="fill:#f4891e"/><path d="M260.3,11.09h-1.42V9.67h1.42Zm0,5.22h-1.42V14.9h1.42Z" style="fill:#f4891e"/><path d="M267.89,11.56c0,3.44-1,4.92-2.86,4.92s-2.85-1.45-2.85-4.9,1.05-4.85,2.87-4.85S267.89,8.12,267.89,11.56Zm-4.6,0c0,2.91.57,4,1.74,4s1.75-1.11,1.75-4-.56-3.94-1.73-3.94S263.29,8.64,263.29,11.57Z" style="fill:#f4891e"/><path d="M275.1,11.56c0,3.44-1,4.92-2.86,4.92s-2.84-1.45-2.84-4.9,1.05-4.85,2.87-4.85S275.1,8.12,275.1,11.56Zm-4.6,0c0,2.91.57,4,1.74,4s1.76-1.11,1.76-4-.56-3.94-1.73-3.94S270.5,8.64,270.5,11.57Z" style="fill:#f4891e"/><path d="M284.05,12.05c-.6,1.16-1.17,1.56-1.94,1.56a4.24,4.24,0,0,1-1.86-.56,3.66,3.66,0,0,0-1.59-.52,1.72,1.72,0,0,0-1.39,1l-.45-.26c.48-1.07,1.12-1.59,1.9-1.59a4.27,4.27,0,0,1,1.74.52,4.25,4.25,0,0,0,1.68.56,1.73,1.73,0,0,0,1.48-1Z" style="fill:#f4891e"/><path d="M289.31,15.44h1.77v.87h-4.69v-.87h1.88V7.93a9,9,0,0,1-1.87.94l-.18-.95a9.19,9.19,0,0,0,2.21-1.12h.88Z" style="fill:#f4891e"/><path d="M298.76,13.9c0,1.61-1.18,2.58-2.93,2.58s-2.93-1-2.93-2.54c0-1.12.61-1.81,2-2.47-1.28-.64-1.75-1.36-1.75-2.4a2.71,2.71,0,0,1,5.37,0c0,1-.51,1.69-1.78,2.25C298.26,12,298.76,12.73,298.76,13.9Zm-3.08-2.06c-1.25.59-1.74,1.17-1.74,2a1.71,1.71,0,0,0,1.89,1.76,1.67,1.67,0,0,0,1.89-1.72c0-.83-.4-1.38-1.77-2Zm.31-.92c1.17-.51,1.51-1.05,1.51-1.86a1.51,1.51,0,0,0-1.67-1.48,1.48,1.48,0,0,0-1.64,1.49c0,.73.35,1.2,1.54,1.73Z" style="fill:#f4891e"/><path d="M302,11.09h-1.42V9.67H302Zm0,5.22h-1.42V14.9H302Z" style="fill:#f4891e"/><path d="M309.58,11.56c0,3.44-1,4.92-2.86,4.92s-2.85-1.45-2.85-4.9,1.05-4.85,2.87-4.85S309.58,8.12,309.58,11.56Zm-4.6,0c0,2.91.57,4,1.74,4s1.75-1.11,1.75-4-.56-3.94-1.73-3.94S305,8.64,305,11.57Z" style="fill:#f4891e"/><path d="M316.79,11.56c0,3.44-1,4.92-2.86,4.92s-2.84-1.45-2.84-4.9,1.05-4.85,2.87-4.85S316.79,8.12,316.79,11.56Zm-4.6,0c0,2.91.57,4,1.74,4s1.76-1.11,1.76-4-.56-3.94-1.73-3.94S312.19,8.64,312.19,11.57Z" style="fill:#f4891e"/><path d="M318.31,5.28A8.39,8.39,0,0,1,321,11.61a8.4,8.4,0,0,1-2.72,6.33l-.37-.31a8.66,8.66,0,0,0,2.23-6,8.64,8.64,0,0,0-2.23-6Z" style="fill:#f4891e"/><path d="M.45,11.88A9.46,9.46,0,0,1,6.55,0l.61,1.9a7.46,7.46,0,0,0-4.8,9.37Z" style="fill:#3b241a"/><path d="M3.7,10.84a6,6,0,0,1,3.9-7.6l.61,1.91A4,4,0,0,0,5.6,10.23Z" style="fill:#3b241a"/><path d="M6.79,9.84a2.78,2.78,0,0,1,1.8-3.51L9.2,8.24a.77.77,0,0,0-.46.39.78.78,0,0,0-.05.6Z" style="fill:#3b241a"/><path d="M3.7,10.84a6,6,0,0,1,3.9-7.6l.61,1.91A4,4,0,0,0,5.6,10.23Z" style="fill:#3b241a"/>
<!-- </g> -->

</svg>