<?xml version="1.0" encoding="UTF-8"?>
<svg id="_レイヤー_1" data-name="レイヤー_1" xmlns="http://www.w3.org/2000/svg" version="1.1" viewBox="0 0 120 21">
  <!-- Generator: Adobe Illustrator 29.4.0, SVG Export Plug-In . SVG Version: 2.1.0 Build 152)  -->
  <defs>
    <style>
      .st0 {
        isolation: isolate;
      }

      .st1 {
        fill: #ff4500;
      }

      .st2 {
        fill: #3b241a;
      }
    </style>
  </defs>
  <g id="surface1">
    <path class="st2" d="M14.3,5.7H.3c0,0-.1,0-.1.1,0,0,0,0,0,.1l7,6.6c0,0,.1,0,.2,0l7-6.6c0,0,0-.2,0-.2,0,0,0,0,0,0Z"/>
    <path class="st2" d="M7.3,15.1L.2,8.5s-.1,0-.2,0c0,0,0,0,0,0v6.7c0,.9.8,1.7,1.7,1.7h11.2c1,0,1.8-.8,1.8-1.8v-6.6c0,0,0-.1-.1-.1,0,0,0,0,0,0l-7.1,6.6s-.1,0-.2,0Z"/>
    <g class="st0">
      <path class="st1" d="M30.7,5.1c0,.4,0,.7,0,1.1,1.1-.1,2.1-.3,2.9-.6v2c-.9.2-2,.4-3,.5,0,.5,0,1,0,1.4v.6c1.1-.3,2.2-.4,3.1-.4,2.5,0,4.4,1.3,4.4,3.5s-1,3.3-3.5,4c-.7.2-1.4.2-2.1.3l-.7-2.1c.7,0,1.4,0,2-.1,1.3-.2,2.3-.9,2.3-2s-1-1.7-2.4-1.7-2,.2-3,.4c0,1.3,0,2.5,0,3.1,0,2-.7,2.5-1.8,2.5-1.6,0-3.7-1.3-3.7-3s1.6-2.8,3.6-3.7c0-.4,0-.8,0-1.1v-1.3c-.3,0-.6,0-.8,0-1.1,0-1.7,0-2.2,0v-1.9c.9.1,1.6.1,2.2.1s.6,0,.9,0c0-.6,0-1,0-1.3s0-1.1-.1-1.4h2.2c0,.3-.1,1-.1,1.4ZM28.3,15.3c.3,0,.5-.1.5-.7s0-1.1,0-2c-1,.5-1.6,1.2-1.6,1.7s.8.9,1.2.9ZM39.3,7.6l-1,1.6c-.8-.7-2.9-1.9-3.9-2.3l.9-1.6c1.2.6,3.1,1.6,3.9,2.3Z"/>
      <path class="st1" d="M42.7,9.7v8.4h-1.9V3.7h6.1v6h-4.2ZM42.7,5.2v.9h2.4v-.9h-2.4ZM45.2,8.2v-.9h-2.4v.9h2.4ZM46.1,15.8v.9h-1.8v-5.9h6.2v5h-4.4ZM46.1,12.3v1.9h2.6v-1.9h-2.6ZM54.3,15.8c0,1.1-.2,1.6-.9,1.9-.7.3-1.7.4-3.1.4,0-.5-.4-1.4-.6-2,.9,0,2,0,2.3,0,.3,0,.4,0,.4-.4v-6.1h-4.3V3.7h6.3v12.1ZM49.9,5.2v.9h2.5v-.9h-2.5ZM52.4,8.2v-.9h-2.5v.9h2.5Z"/>
      <path class="st1" d="M59.4,7.2c0,1,0,2.2,0,3.4.2,2.3.7,3.9,1.7,3.9s1.4-1.9,1.7-3.2l1.6,2c-1.1,2.8-2.1,3.8-3.3,3.8s-3.3-1.6-3.7-5.9c-.2-1.5-.2-3.3-.2-4.3s0-1.1-.1-1.6h2.5c-.1.6-.2,1.5-.2,2ZM70.5,13.9l-2.1.8c-.3-2.6-1.1-6.5-2.8-8.5l2-.7c1.5,1.8,2.7,5.8,2.9,8.3Z"/>
      <path class="st1" d="M80.2,3.1c1.7,2.4,4.3,4.5,6.9,5.5-.5.5-.9,1.1-1.2,1.7-.8-.4-1.6-.9-2.4-1.5v1.1h-8v-1.1c-.8.6-1.6,1.1-2.5,1.6-.3-.5-.8-1.2-1.2-1.6,2.8-1.3,5.3-3.7,6.5-5.7h2ZM74.3,11.5h10.1v6.6h-2v-.6h-6.3v.6h-1.9v-6.6ZM82.5,8.2c-1.3-1-2.5-2.2-3.3-3.2-.8,1.1-1.9,2.2-3.2,3.2h6.5ZM76.2,13.2v2.6h6.3v-2.6h-6.3Z"/>
      <path class="st1" d="M91.7,3.7h2.3c0,.5-.2,1.3-.4,2.4l.6.8c-.2.3-.5.8-.8,1.2,0,.1,0,.3,0,.4,1.6-1.2,3.3-1.6,4.7-1.6,2.5,0,4.4,1.7,4.4,4.3,0,3.2-2,5.2-6,6l-1-1.9c2.8-.4,4.8-1.6,4.8-4.1,0-1.2-1-2.4-2.6-2.4s-3.2.8-4.5,2c0,.5,0,.9,0,1.3,0,1.3,0,2.7,0,4.2,0,.3,0,.9.1,1.2h-2.2c0-.4,0-.9,0-1.2,0-1.2,0-2.2,0-3.5-.7,1-1.5,2.2-2,2.9l-1.3-1.7c.9-1.1,2.5-3.2,3.4-4.6,0-.4,0-.8,0-1.1-.8,0-2,.3-2.9.4l-.2-2c.5,0,.8,0,1.4,0,.5,0,1.2-.1,1.9-.2,0-.6,0-1.1,0-1.2,0-.5,0-.9,0-1.4Z"/>
      <path class="st1" d="M115.3,5.5c0,.6,0,1.2,0,1.7.4,0,.8,0,1.2,0,.4,0,1.1,0,1.5-.1v2c-.3,0-1.1,0-1.5,0-.4,0-.8,0-1.2,0,0,1.2-.1,2.5-.2,3.2-.2.8-.6,1.1-1.4,1.1s-1.9-.2-2.4-.2v-1.8c.5.1,1.2.2,1.5.2s.5,0,.5-.4c0-.4.1-1.2.1-1.9-1.4.1-3,.3-4.4.4,0,1.5,0,2.9,0,3.6,0,1.6.2,1.9,2.6,1.9s3.6-.2,4.8-.4v2.2c-1.2.1-3.1.3-4.6.3-4.1,0-4.6-.9-4.7-3.6,0-.7,0-2.2,0-3.7-.4,0-.8,0-1.1.1-.5,0-1.5.2-1.9.3l-.2-2c.5,0,1.2,0,2-.1.3,0,.7,0,1.2-.1v-1.6c0-.7,0-1.2-.1-1.8h2.3c0,.5,0,1,0,1.7s0,.9,0,1.5c1.4-.1,2.9-.3,4.4-.4v-1.8c0-.4,0-1.2-.1-1.5h2.1c0,.3,0,1,0,1.4Z"/>
    </g>
  </g>
</svg>