<?xml version="1.0" encoding="UTF-8"?>
<svg xmlns="http://www.w3.org/2000/svg" xmlns:xlink="http://www.w3.org/1999/xlink" width="120px" height="21px" viewBox="0 0 120 21" version="1.1">
<g id="surface1">
<path style=" stroke:none;fill-rule:nonzero;fill:rgb(23.137255%,14.117647%,10.196078%);fill-opacity:1;" d="M 16.132812 2.011719 L 2.503906 2.011719 C 2.4375 2.011719 2.378906 2.09375 2.367188 2.214844 C 2.367188 2.28125 2.386719 2.347656 2.417969 2.398438 L 9.230469 13.5 C 9.28125 13.582031 9.359375 13.582031 9.40625 13.5 L 16.222656 2.398438 C 16.269531 2.296875 16.261719 2.144531 16.203125 2.0625 C 16.183594 2.027344 16.152344 2.011719 16.132812 2.011719 Z M 16.132812 2.011719 "/>
<path style=" stroke:none;fill-rule:nonzero;fill:rgb(23.137255%,14.117647%,10.196078%);fill-opacity:1;" d="M 9.25 17.859375 L 2.367188 6.707031 C 2.367188 6.707031 2.261719 6.621094 2.210938 6.707031 C 2.191406 6.742188 2.171875 6.792969 2.183594 6.84375 L 2.183594 18.128906 C 2.183594 19.714844 2.921875 21 3.835938 21 L 14.703125 21 C 15.675781 21 16.464844 19.632812 16.464844 17.941406 L 16.464844 6.84375 C 16.464844 6.722656 16.40625 6.640625 16.335938 6.65625 C 16.316406 6.65625 16.296875 6.65625 16.277344 6.691406 L 9.398438 17.859375 C 9.398438 17.859375 9.289062 17.925781 9.25 17.859375 Z M 9.25 17.859375 "/>
<path style=" stroke:none;fill-rule:nonzero;fill:rgb(92.941176%,42.352941%,0%);fill-opacity:1;" d="M 32.324219 19.648438 L 32.769531 16.960938 C 33.414062 17.484375 34.015625 17.738281 34.601562 17.738281 C 35.242188 17.738281 35.757812 17.46875 36.128906 16.945312 C 36.5 16.421875 36.695312 15.660156 36.695312 14.699219 C 36.695312 13.566406 36.421875 12.703125 35.886719 12.113281 C 35.351562 11.523438 34.601562 11.234375 33.648438 11.234375 C 33.054688 11.234375 32.429688 11.335938 31.769531 11.539062 L 31.769531 17.910156 C 31.769531 18.820312 31.554688 19.53125 31.125 20.035156 C 30.695312 20.5625 30.160156 20.8125 29.519531 20.8125 C 28.644531 20.8125 27.902344 20.375 27.289062 19.480469 C 26.675781 18.601562 26.375 17.453125 26.375 16.050781 C 26.375 14.648438 26.6875 13.429688 27.300781 12.300781 C 27.921875 11.183594 28.761719 10.289062 29.832031 9.613281 L 29.832031 6.707031 L 26.695312 6.707031 L 26.695312 3.988281 L 29.832031 3.988281 L 29.832031 0.320312 L 31.769531 0.320312 L 31.769531 3.988281 L 35.011719 3.988281 L 35.011719 6.707031 L 31.769531 6.707031 L 31.769531 8.769531 C 32.382812 8.597656 32.996094 8.515625 33.628906 8.515625 C 35.117188 8.515625 36.324219 9.039062 37.257812 10.085938 C 38.191406 11.132812 38.652344 12.636719 38.652344 14.578125 C 38.652344 16.523438 38.300781 17.957031 37.597656 19.058594 C 36.898438 20.15625 35.964844 20.695312 34.804688 20.695312 C 33.878906 20.695312 33.054688 20.339844 32.3125 19.632812 Z M 29.839844 12.570312 C 28.691406 13.53125 28.128906 14.664062 28.128906 15.964844 C 28.128906 16.523438 28.261719 16.980469 28.527344 17.351562 C 28.789062 17.722656 29.101562 17.910156 29.449219 17.910156 C 29.714844 17.910156 29.839844 17.6875 29.839844 17.25 Z M 39.1875 6.421875 L 37.753906 8.363281 C 37.433594 7.671875 36.859375 6.640625 36.03125 5.289062 C 35.203125 3.9375 34.582031 2.992188 34.152344 2.484375 L 35.320312 0.457031 C 35.90625 1.046875 36.566406 1.925781 37.316406 3.089844 C 38.066406 4.257812 38.691406 5.371094 39.1875 6.4375 Z M 39.1875 6.421875 "/>
<path style=" stroke:none;fill-rule:nonzero;fill:rgb(92.941176%,42.352941%,0%);fill-opacity:1;" d="M 47.800781 8.632812 L 44.347656 8.632812 L 44.347656 20.914062 L 42.554688 20.914062 L 42.554688 0.320312 L 47.800781 0.320312 Z M 46.128906 3.734375 L 46.128906 2.246094 L 44.347656 2.246094 L 44.347656 3.734375 Z M 46.128906 6.742188 L 46.128906 5.304688 L 44.347656 5.304688 L 44.347656 6.742188 Z M 47.089844 17.621094 L 47.089844 18.246094 L 45.359375 18.246094 L 45.359375 10.152344 L 51.285156 10.152344 L 51.285156 17.621094 Z M 47.089844 15.289062 L 49.582031 15.289062 L 49.582031 12.351562 L 47.089844 12.351562 Z M 54.21875 18.601562 C 54.21875 19.210938 54.070312 19.699219 53.777344 20.105469 C 53.488281 20.511719 53.136719 20.710938 52.726562 20.710938 L 51.191406 20.710938 L 51.015625 18.144531 L 52.015625 18.144531 C 52.125 18.144531 52.222656 18.078125 52.308594 17.957031 C 52.398438 17.839844 52.4375 17.671875 52.4375 17.484375 L 52.4375 8.632812 L 48.871094 8.632812 L 48.871094 0.320312 L 54.226562 0.320312 L 54.226562 18.585938 Z M 50.566406 3.75 L 52.425781 3.75 L 52.425781 2.265625 L 50.566406 2.265625 Z M 52.425781 5.304688 L 50.566406 5.304688 L 50.566406 6.742188 L 52.425781 6.742188 Z M 52.425781 5.304688 "/>
<path style=" stroke:none;fill-rule:nonzero;fill:rgb(92.941176%,42.352941%,0%);fill-opacity:1;" d="M 64.925781 12.957031 C 64.722656 14.023438 64.429688 15.222656 64.058594 16.539062 C 63.691406 17.859375 63.347656 18.835938 63.027344 19.460938 C 62.714844 20.085938 62.328125 20.410156 61.859375 20.410156 C 60.90625 20.410156 60.078125 19.378906 59.386719 17.332031 C 58.695312 15.289062 58.355469 12.925781 58.355469 10.253906 C 58.355469 9.375 58.402344 8.09375 58.5 6.386719 C 58.597656 4.664062 58.636719 3.378906 58.636719 2.535156 L 60.671875 2.535156 C 60.660156 3.3125 60.59375 4.578125 60.46875 6.351562 C 60.351562 7.992188 60.292969 9.273438 60.292969 10.1875 C 60.292969 11.960938 60.46875 13.515625 60.808594 14.851562 C 61.148438 16.183594 61.441406 16.859375 61.683594 16.859375 C 62.035156 16.859375 62.578125 15.105469 63.320312 11.589844 L 64.90625 12.957031 Z M 70.417969 17.234375 L 68.410156 17.453125 C 68.410156 15.070312 68.167969 12.671875 67.691406 10.238281 C 67.214844 7.804688 66.5625 5.746094 65.734375 4.019531 L 67.339844 2.617188 C 69.382812 6.570312 70.40625 11.4375 70.40625 17.234375 Z M 70.417969 17.234375 "/>
<path style=" stroke:none;fill-rule:nonzero;fill:rgb(92.941176%,42.352941%,0%);fill-opacity:1;" d="M 83.558594 9.324219 L 76.472656 9.324219 L 76.472656 7.957031 C 75.585938 8.9375 74.769531 9.699219 74.019531 10.238281 L 73.199219 7.804688 C 74.183594 7.113281 75.207031 6.066406 76.277344 4.664062 C 77.347656 3.261719 78.222656 1.707031 78.925781 0 L 80.910156 0 C 81.328125 1.0625 82.058594 2.296875 83.09375 3.667969 C 84.125 5.035156 85.351562 6.234375 86.773438 7.265625 L 85.796875 10.136719 C 85.117188 9.664062 84.367188 8.972656 83.558594 8.09375 L 83.558594 9.34375 Z M 83.128906 19.5625 L 76.765625 19.5625 L 76.765625 20.660156 L 74.855469 20.660156 L 74.855469 11.117188 L 85.027344 11.117188 L 85.027344 20.59375 L 83.128906 20.59375 L 83.128906 19.546875 Z M 76.765625 17.011719 L 83.128906 17.011719 L 83.128906 13.667969 L 76.765625 13.667969 Z M 77.523438 6.707031 L 82.390625 6.707031 C 81.339844 5.355469 80.523438 4.003906 79.929688 2.6875 C 79.316406 4.105469 78.515625 5.441406 77.523438 6.707031 Z M 77.523438 6.707031 "/>
<path style=" stroke:none;fill-rule:nonzero;fill:rgb(92.941176%,42.352941%,0%);fill-opacity:1;" d="M 91.835938 14.257812 C 91.152344 16 90.570312 17.382812 90.082031 18.414062 L 89.058594 15.882812 C 89.722656 14.546875 90.644531 12.265625 91.84375 9.074219 L 91.84375 6.453125 L 89.554688 6.453125 L 89.554688 3.851562 L 91.84375 3.851562 L 91.84375 0.0664062 L 93.722656 0.0664062 L 93.722656 6.554688 C 95.074219 4.542969 96.46875 3.546875 97.917969 3.546875 C 99.164062 3.546875 100.175781 4.242188 100.945312 5.644531 C 101.714844 7.046875 102.105469 8.835938 102.105469 11.066406 C 102.105469 12.570312 101.910156 14.054688 101.519531 15.492188 C 101.132812 16.929688 100.460938 18.128906 99.496094 19.074219 C 98.542969 20.019531 97.296875 20.527344 95.777344 20.628906 L 95.367188 17.910156 C 96.390625 17.738281 97.167969 17.484375 97.714844 17.199219 C 98.25 16.894531 98.707031 16.472656 99.097656 15.898438 C 99.484375 15.324219 99.769531 14.664062 99.953125 13.902344 C 100.136719 13.144531 100.234375 12.28125 100.246094 11.320312 L 100.246094 11.050781 C 100.246094 9.664062 100.039062 8.515625 99.640625 7.585938 C 99.242188 6.65625 98.699219 6.199219 98.007812 6.199219 C 96.46875 6.199219 95.046875 7.585938 93.742188 10.375 L 93.742188 20.796875 L 91.863281 20.796875 L 91.863281 14.242188 Z M 91.835938 14.257812 "/>
<path style=" stroke:none;fill-rule:nonzero;fill:rgb(92.941176%,42.352941%,0%);fill-opacity:1;" d="M 116.503906 20.460938 C 115.140625 20.542969 113.972656 20.59375 113 20.59375 C 111.351562 20.59375 110.183594 20.492188 109.484375 20.273438 C 108.78125 20.054688 108.226562 19.546875 107.820312 18.769531 C 107.410156 17.992188 107.195312 16.828125 107.195312 15.289062 L 107.195312 8.429688 L 105.25 8.429688 L 105.25 5.609375 L 107.195312 5.609375 L 107.195312 1.046875 L 109.171875 1.046875 L 109.171875 5.59375 L 113.746094 5.59375 C 113.738281 4.121094 113.691406 2.585938 113.613281 0.945312 L 115.558594 0.742188 C 115.636719 2.214844 115.675781 3.835938 115.675781 5.609375 L 117.816406 5.609375 L 117.816406 8.429688 L 115.644531 8.429688 C 115.570312 10.914062 115.472656 12.503906 115.355469 13.179688 C 115.238281 13.871094 115.042969 14.410156 114.761719 14.816406 C 114.476562 15.222656 114.089844 15.425781 113.601562 15.425781 C 113.152344 15.425781 112.648438 15.171875 112.074219 14.664062 C 111.5 14.15625 110.964844 13.515625 110.46875 12.722656 L 111.285156 10.355469 C 111.695312 10.898438 112.09375 11.320312 112.480469 11.640625 C 112.882812 11.960938 113.132812 12.113281 113.25 12.113281 C 113.347656 12.113281 113.417969 12.0625 113.476562 11.976562 C 113.535156 11.894531 113.5625 11.777344 113.582031 11.640625 C 113.601562 11.503906 113.621094 11.101562 113.660156 10.441406 C 113.699219 9.78125 113.71875 9.089844 113.738281 8.414062 L 109.183594 8.414062 L 109.183594 15.355469 C 109.183594 16.726562 109.6875 17.453125 110.699219 17.554688 L 110.90625 17.554688 C 111.597656 17.621094 112.347656 17.65625 113.171875 17.65625 C 114.398438 17.65625 115.511719 17.570312 116.503906 17.417969 Z M 116.503906 20.460938 "/>
</g>
</svg>
