<svg xmlns="http://www.w3.org/2000/svg" xmlns:xlink="http://www.w3.org/1999/xlink" viewBox="0 0 120 21" width="120px" height="21px">


<!-- <defs><clipPath id="clip-path"><rect x="357.2" y="351.29" width="1366" height="889" style="fill:none"/></clipPath><clipPath id="clip-path-2"><rect x="-1066.8" y="231.29" width="1366" height="1009" style="fill:none"/></clipPath><image id="image" width="2500" height="1669" xlink:href="ongoing_project/%E8%83%BD%E5%8A%9B%E9%96%8B%E7%99%BA%E3%82%BB%E3%83%B3%E3%82%BF%E3%83%BC/%E3%83%86%E3%82%99%E3%82%B5%E3%82%99%E3%82%A4%E3%83%B3/%E6%92%AE%E5%BD%B1%E3%83%86%E3%82%99%E3%83%BC%E3%82%BF/1111/jpg/1111_K7D9714.jpg"/></defs><title>03_spアートボード 30</title><g id="photo"><g style="opacity:0.14"><g style="clip-path:url(#clip-path)"><use transform="translate(-237.92 -83.42) scale(0.86)" xlink:href="#image"/></g></g><g style="opacity:0.18"><g style="clip-path:url(#clip-path-2)"><use transform="translate(-1644.04 -101.76) scale(0.86)" xlink:href="#image"/></g></g></g> -->



<g id="header"><path d="M28.1,9c-.75.06-1.51.13-2.52.13-.25,0-.33-.09-.36-.32s-.1-.78-.16-1.3a9.18,9.18,0,0,0,1.17.07c.63,0,1.27-.06,1.9-.12,0-.49,0-1.06,0-1.71A5.51,5.51,0,0,0,28,4.55a8.29,8.29,0,0,1,1.79.27c.18,0,.3.15.3.28a.51.51,0,0,1-.09.24,1.75,1.75,0,0,0-.21.59c0,.39-.06.76-.08,1.24a13.14,13.14,0,0,0,1.92-.56c.14,0,.24,0,.26.14A7.59,7.59,0,0,1,32,7.92c0,.15-.05.19-.2.24a14.58,14.58,0,0,1-2.14.57c0,.72,0,1.45,0,2.18a9.4,9.4,0,0,1,3.69-.83,3,3,0,0,1,3.19,3c0,1.92-1.23,3-3.25,3A6.11,6.11,0,0,1,32.05,16a.4.4,0,0,1-.33-.45,2.71,2.71,0,0,0-.45-1.28,5.58,5.58,0,0,0,1.87.27A1.49,1.49,0,0,0,34.76,13c0-1-.6-1.52-1.65-1.52a7.46,7.46,0,0,0-3.43,1c0,.63,0,1.15.06,1.8s.12,1.61.12,1.95,0,.44-.23.5a6.56,6.56,0,0,1-1.11.18c-.16,0-.22-.11-.36-.3A8.81,8.81,0,0,0,26,14.7a3.14,3.14,0,0,0-.48.33.4.4,0,0,1-.25.11.44.44,0,0,1-.33-.25,15,15,0,0,1-.69-1.39A5.65,5.65,0,0,0,25.66,13l2.44-1.39Zm-1.39,5.17a15.38,15.38,0,0,0,1.41.67c.12,0,.16,0,.15-.12,0-.39-.06-1.08-.09-1.57C27.76,13.44,27.25,13.78,26.71,14.18ZM33.88,6.3c.1-.16.15-.21.25-.18A7.22,7.22,0,0,1,37.31,8c.06.06.09.1.09.15a.36.36,0,0,1-.06.15c-.19.3-.58.76-.81,1.07a.26.26,0,0,1-.3,0,6.89,6.89,0,0,0-3-1.85A8.74,8.74,0,0,1,33.88,6.3Z" style="fill:#ed6c00"/><path d="M45.07,4.23c1,0,1.41,0,1.5,0s.15,0,.15.17,0,.54,0,1.48v2c0,.93,0,1.38,0,1.47s0,.17-.15.17-.53,0-1.5,0h-2.4v4.67c0,2.08,0,3.09,0,3.2s0,.16-.17.16H41.26c-.15,0-.17,0-.17-.16s0-1.12,0-3.2V7.59c0-2.07,0-3.12,0-3.22s0-.17.17-.17.66,0,1.75,0Zm-2.4,1.14v.89h2.55V5.37Zm2.55,1.92H42.67v1h2.55ZM44.68,16c-.15,0-.17,0-.17-.15s0-.46,0-2.44V12.34c0-1.09,0-1.48,0-1.58s0-.17.17-.17.46,0,1.59,0h2c1.13,0,1.49,0,1.59,0s.17,0,.17.17,0,.48,0,1.3v1.16c0,1.88,0,2.24,0,2.33s0,.18-.17.18H48.73c-.17,0-.18,0-.18-.18v-.49H46v.81c0,.15,0,.15-.18.15ZM46,13.78h2.6V11.89H46Zm7.56-1.27c0,1.05.06,2.25.06,3s-.09,1.07-.43,1.38-.75.41-2.09.41c-.48,0-.48,0-.57-.47a4.14,4.14,0,0,0-.34-1.11,8.76,8.76,0,0,0,1.21.08c.5,0,.62-.14.62-.58V9.41h-2.4c-1.17,0-1.56,0-1.65,0s-.18,0-.18-.17,0-.45,0-1.35V5.73c0-.9,0-1.26,0-1.36s0-.17.18-.17.48,0,1.65,0h2.16c1.15,0,1.56,0,1.65,0s.16,0,.16.17,0,.72,0,2ZM49.24,5.37v.89H52V5.37ZM52,8.31v-1H49.24v1Z" style="fill:#ed6c00"/><path d="M59.84,6.36a.35.35,0,0,1,.24.27,1.19,1.19,0,0,1-.12.42,6.88,6.88,0,0,0-.13,1.47,18.89,18.89,0,0,0,.27,3.42c.21,1.18.6,2.2,1.23,2.2s.85-.52,1.44-2.08a6.08,6.08,0,0,0,1,1.16.44.44,0,0,1,.1.55c-.57,1.53-1.5,2.34-2.55,2.34s-2.4-1.38-2.8-3.91a27.3,27.3,0,0,1-.36-4.37,8.15,8.15,0,0,0-.18-2A7,7,0,0,1,59.84,6.36Zm7,.94a.64.64,0,0,1,.17,0c.06,0,.1,0,.16.09a9.81,9.81,0,0,1,2.94,5.13c.05.19,0,.25-.16.33a5.14,5.14,0,0,1-1.17.59c-.18.06-.29,0-.32-.16A10.1,10.1,0,0,0,65.62,8C66.19,7.64,66.56,7.43,66.8,7.3Z" style="fill:#ed6c00"/><path d="M77.11,8.67a18.69,18.69,0,0,1-2.78,1.77,1.13,1.13,0,0,1-.34.15c-.11,0-.17-.1-.29-.37a3.48,3.48,0,0,0-.7-1,13.27,13.27,0,0,0,5.77-4.59,4.69,4.69,0,0,0,.59-1.06c.58.09,1.14.18,1.57.28.18.06.27.11.27.24s0,.15-.15.23a.58.58,0,0,0-.12.1A13.56,13.56,0,0,0,87.34,9a3.69,3.69,0,0,0-.63,1.14c-.09.28-.15.38-.27.38a.82.82,0,0,1-.36-.13A16.69,16.69,0,0,1,83.15,8.7V9.75c0,.15,0,.17-.16.17s-.5,0-1.7,0H79c-1.2,0-1.59,0-1.7,0s-.16,0-.16-.17Zm-1.43,8.74c-.15,0-.16,0-.16-.16s0-.5,0-2.67V13.29c0-1.29,0-1.72,0-1.82s0-.16.16-.16.62,0,2.06,0h4.8c1.44,0,2,0,2,0s.18,0,.18.16,0,.53,0,1.59v1.47c0,2.16,0,2.57,0,2.64s0,.17-.18.17H83.32c-.15,0-.17,0-.17-.17v-.49h-6v.57c0,.15,0,.16-.18.16Zm1.46-2.1h6V12.7h-6Zm4.15-6.82h1.55a13.53,13.53,0,0,1-2.76-2.85,14.66,14.66,0,0,1-2.73,2.83c.18,0,.6,0,1.62,0Z" style="fill:#ed6c00"/><path d="M95,9.54a6.68,6.68,0,0,1,4.3-1.76A3.57,3.57,0,0,1,103,11.59c0,2.32-1.41,3.9-4,4.83a.52.52,0,0,1-.26.06.49.49,0,0,1-.39-.21,4.58,4.58,0,0,0-1.18-1,6.94,6.94,0,0,0,3-1.48,2.91,2.91,0,0,0,1-2.27A2.1,2.1,0,0,0,99,9.21c-1.38,0-2.55.66-4,1.92,0,1.92.06,3.73.09,5.76,0,.12-.08.18-.2.18s-.84.06-1.33.06c-.14,0-.18-.06-.17-.21,0-1.53.05-3.11.08-4.64-.72,1.08-1.47,2.18-2,3-.07.09-.13.16-.21.16a.29.29,0,0,1-.16-.1,9.82,9.82,0,0,1-.92-.9.19.19,0,0,1-.09-.16.26.26,0,0,1,.09-.18c1.32-1.6,2.18-2.67,3.3-4.21,0-.38,0-.79,0-1.07-.44.14-1.14.35-1.71.55-.26.11-.41.26-.5.26s-.21-.09-.3-.27A13.36,13.36,0,0,1,90.32,8a7.19,7.19,0,0,0,1-.15c.39-.09,1-.22,2.13-.54,0-.64,0-1.3,0-1.95a5.4,5.4,0,0,0-.15-1.3,12.17,12.17,0,0,1,1.74.25c.32.09.38.26.27.53a2.74,2.74,0,0,0-.15.64c0,.36,0,.71-.07,1.35l.12,0a.19.19,0,0,1,.1,0c.11,0,.27.15.41.34s.24.36.24.46,0,.17-.26.43-.43.55-.79,1.07Z" style="fill:#ed6c00"/><path d="M109.9,7a6,6,0,0,0-.21-1.59,13.37,13.37,0,0,1,1.8.25.38.38,0,0,1,.31.32.73.73,0,0,1-.09.31,2.18,2.18,0,0,0-.15.66c0,.36,0,.93,0,1.44,1-.14,2.63-.3,3.71-.42,0-.75,0-1.56,0-2.12a6.62,6.62,0,0,0-.19-1.7,9.92,9.92,0,0,1,1.81.3c.21.06.29.13.29.28a.71.71,0,0,1-.09.3,2.24,2.24,0,0,0-.15.68c0,.81,0,1.39-.06,2.1,1.21-.09,2.11-.14,2.92-.17.12,0,.18,0,.18.15A10.1,10.1,0,0,1,120,9c0,.19,0,.21-.19.21-1,0-2,0-3,.12a21.54,21.54,0,0,1-.18,2.31,1.74,1.74,0,0,1-2,1.66,7.55,7.55,0,0,1-.93,0c-.24,0-.3-.12-.3-.39a3.66,3.66,0,0,0-.33-1.35,4.89,4.89,0,0,0,1.27.18c.41,0,.63-.12.71-.64a14.89,14.89,0,0,0,.1-1.6c-1.2.1-2.5.25-3.66.43,0,1.63,0,2.53,0,3.38.09,1.23.42,1.47,2.25,1.47a27.1,27.1,0,0,0,3.89-.3c.22,0,.27,0,.3.2a9.11,9.11,0,0,1,.09,1.26c0,.18-.06.25-.2.27a36,36,0,0,1-3.76.22c-3,0-3.92-.63-4.1-2.59-.07-.81-.1-2.07-.1-3.66-.77.11-1.25.19-1.82.32a3.91,3.91,0,0,0-.67.22c-.2.09-.3,0-.39-.16a5.86,5.86,0,0,1-.42-1.5,14.29,14.29,0,0,0,1.6-.15c.42-.06,1.14-.2,1.7-.29Z" style="fill:#ed6c00"/><path d="M14.33,5.62H.33a.13.13,0,0,0-.09.23l7,6.57a.13.13,0,0,0,.18,0l7-6.57A.14.14,0,0,0,14.33,5.62Z" style="fill:#3b241a"/><path d="M7.26,15,.19,8.4A.11.11,0,0,0,0,8.48v6.68a1.7,1.7,0,0,0,1.7,1.7H12.86a1.81,1.81,0,0,0,1.81-1.81V8.48a.12.12,0,0,0-.19-.09L7.41,15A.11.11,0,0,1,7.26,15Z" style="fill:#3b241a"/></g></svg>