<?xml version="1.0" encoding="UTF-8"?>
<svg xmlns="http://www.w3.org/2000/svg" xmlns:xlink="http://www.w3.org/1999/xlink" width="120px" height="21px" viewBox="0 0 121 21" version="1.1">
<g id="surface1">
<path style=" stroke:none;fill-rule:nonzero;fill:rgb(23.137255%,14.117647%,10.196078%);fill-opacity:1;" d="M 14.449219 5.675781 L 0.332031 5.675781 C 0.261719 5.675781 0.203125 5.726562 0.191406 5.796875 C 0.191406 5.839844 0.210938 5.878906 0.242188 5.910156 L 7.300781 12.542969 C 7.351562 12.59375 7.429688 12.59375 7.480469 12.542969 L 14.539062 5.910156 C 14.589844 5.847656 14.578125 5.757812 14.519531 5.707031 C 14.5 5.6875 14.46875 5.675781 14.449219 5.675781 Z M 14.449219 5.675781 "/>
<path style=" stroke:none;fill-rule:nonzero;fill:rgb(23.137255%,14.117647%,10.196078%);fill-opacity:1;" d="M 7.320312 15.144531 L 0.191406 8.484375 C 0.191406 8.484375 0.0820312 8.433594 0.03125 8.484375 C 0.0117188 8.503906 -0.0117188 8.535156 0 8.5625 L 0 15.308594 C 0 16.257812 0.765625 17.023438 1.714844 17.023438 L 12.964844 17.023438 C 13.972656 17.023438 14.792969 16.207031 14.792969 15.195312 L 14.792969 8.5625 C 14.792969 8.492188 14.730469 8.441406 14.660156 8.453125 C 14.640625 8.453125 14.621094 8.453125 14.597656 8.472656 L 7.472656 15.144531 C 7.472656 15.144531 7.359375 15.1875 7.320312 15.144531 Z M 7.320312 15.144531 "/>
<path style=" stroke:none;fill-rule:nonzero;fill:rgb(92.941176%,42.352941%,0%);fill-opacity:1;" d="M 31.710938 16.144531 L 32.171875 14.539062 C 32.839844 14.851562 33.464844 15.003906 34.070312 15.003906 C 34.734375 15.003906 35.269531 14.84375 35.652344 14.53125 C 36.035156 14.21875 36.238281 13.761719 36.238281 13.1875 C 36.238281 12.511719 35.953125 11.996094 35.398438 11.644531 C 34.84375 11.289062 34.070312 11.117188 33.082031 11.117188 C 32.464844 11.117188 31.820312 11.179688 31.136719 11.300781 L 31.136719 15.105469 C 31.136719 15.652344 30.914062 16.074219 30.46875 16.378906 C 30.027344 16.691406 29.472656 16.84375 28.804688 16.84375 C 27.898438 16.84375 27.132812 16.578125 26.496094 16.042969 C 25.863281 15.519531 25.550781 14.832031 25.550781 13.996094 C 25.550781 13.15625 25.871094 12.429688 26.507812 11.753906 C 27.140625 11.078125 28.019531 10.554688 29.128906 10.148438 L 29.128906 8.414062 L 25.882812 8.414062 L 25.882812 6.789062 L 29.128906 6.789062 L 29.128906 4.597656 L 31.136719 4.597656 L 31.136719 6.789062 L 34.492188 6.789062 L 34.492188 8.414062 L 31.136719 8.414062 L 31.136719 9.644531 C 31.769531 9.542969 32.40625 9.492188 33.0625 9.492188 C 34.601562 9.492188 35.851562 9.804688 36.820312 10.433594 C 37.789062 11.058594 38.261719 11.957031 38.261719 13.117188 C 38.261719 14.277344 37.898438 15.136719 37.175781 15.792969 C 36.449219 16.449219 35.480469 16.773438 34.28125 16.773438 C 33.324219 16.773438 32.464844 16.558594 31.699219 16.136719 Z M 29.136719 11.914062 C 27.949219 12.480469 27.363281 13.15625 27.363281 13.945312 C 27.363281 14.277344 27.503906 14.550781 27.777344 14.773438 C 28.050781 14.996094 28.371094 15.105469 28.734375 15.105469 C 29.007812 15.105469 29.136719 14.976562 29.136719 14.710938 Z M 38.816406 8.242188 L 37.335938 9.402344 C 37.003906 8.988281 36.40625 8.371094 35.550781 7.566406 C 34.695312 6.757812 34.046875 6.191406 33.605469 5.890625 L 34.816406 4.675781 C 35.421875 5.03125 36.105469 5.554688 36.882812 6.253906 C 37.660156 6.949219 38.304688 7.613281 38.816406 8.25 Z M 38.816406 8.242188 "/>
<path style=" stroke:none;fill-rule:nonzero;fill:rgb(92.941176%,42.352941%,0%);fill-opacity:1;" d="M 47.480469 9.5625 L 43.898438 9.5625 L 43.898438 16.902344 L 42.042969 16.902344 L 42.042969 4.597656 L 47.480469 4.597656 Z M 45.746094 6.636719 L 45.746094 5.746094 L 43.898438 5.746094 L 43.898438 6.636719 Z M 45.746094 8.433594 L 45.746094 7.574219 L 43.898438 7.574219 L 43.898438 8.433594 Z M 46.742188 14.933594 L 46.742188 15.308594 L 44.949219 15.308594 L 44.949219 10.472656 L 51.089844 10.472656 L 51.089844 14.933594 Z M 46.742188 13.542969 L 49.324219 13.542969 L 49.324219 11.785156 L 46.742188 11.785156 Z M 54.125 15.519531 C 54.125 15.882812 53.972656 16.175781 53.667969 16.417969 C 53.367188 16.660156 53.003906 16.78125 52.582031 16.78125 L 50.988281 16.78125 L 50.804688 15.246094 L 51.84375 15.246094 C 51.957031 15.246094 52.054688 15.207031 52.148438 15.136719 C 52.238281 15.066406 52.277344 14.964844 52.277344 14.851562 L 52.277344 9.5625 L 48.585938 9.5625 L 48.585938 4.597656 L 54.132812 4.597656 L 54.132812 15.507812 Z M 50.34375 6.644531 L 52.269531 6.644531 L 52.269531 5.757812 L 50.34375 5.757812 Z M 52.269531 7.574219 L 50.34375 7.574219 L 50.34375 8.433594 L 52.269531 8.433594 Z M 52.269531 7.574219 "/>
<path style=" stroke:none;fill-rule:nonzero;fill:rgb(92.941176%,42.352941%,0%);fill-opacity:1;" d="M 64.941406 12.148438 C 64.730469 12.785156 64.425781 13.5 64.042969 14.289062 C 63.660156 15.074219 63.308594 15.660156 62.976562 16.035156 C 62.652344 16.40625 62.25 16.601562 61.765625 16.601562 C 60.777344 16.601562 59.921875 15.984375 59.203125 14.761719 C 58.488281 13.542969 58.136719 12.128906 58.136719 10.53125 C 58.136719 10.007812 58.1875 9.242188 58.289062 8.222656 C 58.386719 7.191406 58.429688 6.425781 58.429688 5.917969 L 60.535156 5.917969 C 60.527344 6.382812 60.453125 7.140625 60.324219 8.199219 C 60.203125 9.179688 60.140625 9.945312 60.140625 10.492188 C 60.140625 11.550781 60.324219 12.480469 60.675781 13.277344 C 61.03125 14.074219 61.332031 14.480469 61.585938 14.480469 C 61.945312 14.480469 62.511719 13.429688 63.277344 11.332031 L 64.921875 12.148438 Z M 70.628906 14.703125 L 68.550781 14.832031 C 68.550781 13.410156 68.300781 11.976562 67.804688 10.523438 C 67.3125 9.070312 66.636719 7.835938 65.777344 6.808594 L 67.441406 5.96875 C 69.558594 8.332031 70.617188 11.238281 70.617188 14.703125 Z M 70.628906 14.703125 "/>
<path style=" stroke:none;fill-rule:nonzero;fill:rgb(92.941176%,42.352941%,0%);fill-opacity:1;" d="M 83.96875 9.976562 L 76.628906 9.976562 L 76.628906 9.160156 C 75.710938 9.746094 74.863281 10.199219 74.085938 10.523438 L 73.238281 9.070312 C 74.257812 8.65625 75.316406 8.027344 76.425781 7.191406 C 77.535156 6.351562 78.441406 5.425781 79.167969 4.40625 L 81.226562 4.40625 C 81.660156 5.039062 82.414062 5.777344 83.484375 6.59375 C 84.550781 7.414062 85.824219 8.128906 87.292969 8.746094 L 86.285156 10.460938 C 85.582031 10.179688 84.804688 9.765625 83.96875 9.242188 L 83.96875 9.988281 Z M 83.523438 16.09375 L 76.929688 16.09375 L 76.929688 16.75 L 74.953125 16.75 L 74.953125 11.046875 L 85.488281 11.046875 L 85.488281 16.710938 L 83.523438 16.710938 L 83.523438 16.085938 Z M 76.929688 14.570312 L 83.523438 14.570312 L 83.523438 12.570312 L 76.929688 12.570312 Z M 77.714844 8.414062 L 82.757812 8.414062 C 81.667969 7.605469 80.820312 6.796875 80.207031 6.011719 C 79.570312 6.859375 78.746094 7.65625 77.714844 8.414062 Z M 77.714844 8.414062 "/>
<path style=" stroke:none;fill-rule:nonzero;fill:rgb(92.941176%,42.352941%,0%);fill-opacity:1;" d="M 92.277344 12.925781 C 91.570312 13.964844 90.964844 14.792969 90.460938 15.410156 L 89.402344 13.894531 C 90.085938 13.097656 91.046875 11.734375 92.285156 9.824219 L 92.285156 8.261719 L 89.917969 8.261719 L 89.917969 6.707031 L 92.285156 6.707031 L 92.285156 4.445312 L 94.230469 4.445312 L 94.230469 8.320312 C 95.632812 7.121094 97.074219 6.523438 98.578125 6.523438 C 99.867188 6.523438 100.917969 6.9375 101.710938 7.777344 C 102.507812 8.605469 102.914062 9.683594 102.914062 11.015625 C 102.914062 11.914062 102.710938 12.804688 102.308594 13.664062 C 101.902344 14.519531 101.207031 15.238281 100.210938 15.800781 C 99.222656 16.367188 97.933594 16.671875 96.359375 16.730469 L 95.933594 15.105469 C 96.992188 15.003906 97.800781 14.851562 98.367188 14.683594 C 98.929688 14.511719 99.394531 14.246094 99.796875 13.90625 C 100.191406 13.570312 100.492188 13.167969 100.683594 12.714844 C 100.875 12.257812 100.976562 11.742188 100.988281 11.167969 L 100.988281 11.007812 C 100.988281 10.179688 100.773438 9.492188 100.363281 8.9375 C 99.949219 8.382812 99.382812 8.109375 98.667969 8.109375 C 97.074219 8.109375 95.601562 8.9375 94.25 10.601562 L 94.25 16.832031 L 92.304688 16.832031 L 92.304688 12.914062 Z M 92.277344 12.925781 "/>
<path style=" stroke:none;fill-rule:nonzero;fill:rgb(92.941176%,42.352941%,0%);fill-opacity:1;" d="M 117.5625 16.628906 C 116.152344 16.679688 114.941406 16.710938 113.933594 16.710938 C 112.230469 16.710938 111.019531 16.652344 110.292969 16.519531 C 109.566406 16.386719 108.992188 16.085938 108.570312 15.621094 C 108.144531 15.15625 107.921875 14.460938 107.921875 13.542969 L 107.921875 9.441406 L 105.90625 9.441406 L 105.90625 7.757812 L 107.921875 7.757812 L 107.921875 5.039062 L 109.96875 5.039062 L 109.96875 7.757812 L 114.710938 7.757812 C 114.699219 6.878906 114.648438 5.960938 114.566406 4.980469 L 116.585938 4.859375 C 116.664062 5.738281 116.707031 6.707031 116.707031 7.765625 L 118.914062 7.765625 L 118.914062 9.453125 L 116.664062 9.453125 C 116.585938 10.9375 116.484375 11.886719 116.363281 12.289062 C 116.242188 12.703125 116.039062 13.027344 115.746094 13.269531 C 115.457031 13.511719 115.050781 13.632812 114.546875 13.632812 C 114.082031 13.632812 113.558594 13.480469 112.964844 13.175781 C 112.371094 12.875 111.816406 12.492188 111.300781 12.015625 L 112.148438 10.601562 C 112.570312 10.925781 112.984375 11.179688 113.386719 11.371094 C 113.792969 11.5625 114.0625 11.652344 114.183594 11.652344 C 114.285156 11.652344 114.355469 11.621094 114.417969 11.574219 C 114.476562 11.523438 114.507812 11.453125 114.527344 11.371094 C 114.546875 11.289062 114.566406 11.046875 114.609375 10.652344 C 114.648438 10.25 114.679688 9.847656 114.6875 9.441406 L 109.96875 9.441406 L 109.96875 13.589844 C 109.96875 14.410156 110.496094 14.84375 111.554688 14.902344 L 111.765625 14.902344 C 112.480469 14.945312 113.257812 14.964844 114.113281 14.964844 C 115.382812 14.964844 116.535156 14.914062 117.5625 14.824219 L 117.5625 16.640625 Z M 117.5625 16.628906 "/>
</g>
</svg>
