<?xml version="1.0" encoding="UTF-8"?>
<svg id="_レイヤー_1" data-name="レイヤー_1" xmlns="http://www.w3.org/2000/svg" version="1.1" viewBox="0 0 120 21">
  <!-- Generator: Adobe Illustrator 29.4.0, SVG Export Plug-In . SVG Version: 2.1.0 Build 152)  -->
  <defs>
    <style>
      .st0 {
        fill: #ff4500;
        font-family: NotoSansJP-Bold-83pv-RKSJ-H, 'Noto Sans JP';
        font-size: 16px;
        font-weight: 700;
      }

      .st1 {
        fill: #3b241a;
      }
    </style>
  </defs>
  <g id="surface1">
    <path class="st1" d="M14.3,5.7H.3c0,0-.1,0-.1.1,0,0,0,0,0,.1l7,6.6c0,0,.1,0,.2,0l7-6.6c0,0,0-.2,0-.2,0,0,0,0,0,0Z"/>
    <path class="st1" d="M7.3,15.1L.2,8.5s-.1,0-.2,0c0,0,0,0,0,0v6.7c0,.9.8,1.7,1.7,1.7h11.2c1,0,1.8-.8,1.8-1.8v-6.6c0,0,0-.1-.1-.1,0,0,0,0,0,0l-7.1,6.6s-.1,0-.2,0Z"/>
  </g>
  <text class="st0" transform="translate(24.3 16.3)"><tspan x="0" y="0">お問い合わせ</tspan></text>
</svg>