<?xml version="1.0" encoding="UTF-8"?>
<svg id="_レイヤー_2" data-name=" レイヤー 2" xmlns="http://www.w3.org/2000/svg" viewBox="0 0 116.71 12.63">
  <defs>
    <style>
      .cls-1 {
        fill: #ff4500;
      }

      .cls-2 {
        fill: #3b241a;
      }
    </style>
  </defs>
  <g id="_レイヤー_1-2" data-name=" レイヤー 1-2">
    <path class="cls-2" d="M14.33,1.38H.33c-.07,0-.13.05-.14.12,0,.04.02.08.05.11l7,6.58c.05.05.13.05.18,0L14.42,1.61c.05-.06.04-.15-.02-.2-.02-.02-.05-.03-.07-.03Z"/>
    <path class="cls-2" d="M7.26,10.77L.19,4.16s-.11-.05-.16,0c-.02.02-.04.05-.03.08v6.69c0,.94.76,1.7,1.7,1.7h11.16c1,0,1.81-.81,1.81-1.81v-6.58c0-.07-.06-.12-.13-.11-.02,0-.04,0-.06.02l-7.07,6.62s-.11.04-.15,0Z"/>
  </g>
  <g>
    <path class="cls-1" d="M31.02,11.63l.46-1.59c.66.31,1.28.46,1.88.46.66,0,1.19-.16,1.57-.47s.58-.76.58-1.33c0-.67-.28-1.18-.83-1.53s-1.32-.52-2.3-.52c-.61,0-1.25.06-1.93.18v3.77c0,.54-.22.96-.66,1.26-.44.31-.99.46-1.65.46-.9,0-1.66-.26-2.29-.79-.63-.52-.94-1.2-.94-2.03s.32-1.55.95-2.22,1.5-1.19,2.6-1.59v-1.72h-3.22v-1.61h3.22V.19h1.99v2.17h3.33v1.61h-3.33v1.22c.63-.1,1.26-.15,1.91-.15,1.53,0,2.77.31,3.73.93s1.43,1.51,1.43,2.66-.36,2-1.08,2.65-1.68.97-2.87.97c-.95,0-1.8-.21-2.56-.63ZM28.47,7.44c-1.18.56-1.76,1.23-1.76,2.01,0,.33.14.6.41.82s.59.33.95.33c.27,0,.4-.13.4-.39v-2.77ZM38.07,3.8l-1.47,1.15c-.33-.41-.92-1.02-1.77-1.82s-1.49-1.36-1.93-1.66l1.2-1.2c.6.35,1.28.87,2.05,1.56s1.41,1.35,1.92,1.98Z"/>
    <path class="cls-1" d="M46.7,5.11h-3.55v7.27h-1.84V.19h5.39v4.92ZM44.97,2.21v-.88h-1.83v.88h1.83ZM44.97,3.99v-.85h-1.83v.85h1.83ZM45.97,10.42v.37h-1.78v-4.79h6.09v4.42h-4.31ZM45.97,9.04h2.56v-1.74h-2.56v1.74ZM53.29,11c0,.36-.15.65-.45.89-.3.24-.66.36-1.08.36h-1.58l-.18-1.52h1.03c.11,0,.21-.04.3-.11.09-.08.13-.17.13-.28v-5.24h-3.66V.19h5.5v10.81ZM49.54,2.21h1.91v-.88h-1.91v.88ZM51.46,3.13h-1.91v.85h1.91v-.85Z"/>
    <path class="cls-1" d="M64.06,7.67c-.21.63-.51,1.34-.89,2.12-.38.78-.73,1.36-1.06,1.73-.32.37-.72.56-1.2.56-.98,0-1.83-.61-2.54-1.82-.71-1.21-1.06-2.61-1.06-4.19,0-.52.05-1.28.15-2.29.1-1.02.14-1.78.14-2.28h2.09c-.01.46-.08,1.21-.21,2.26-.12.97-.18,1.73-.18,2.27,0,1.05.18,1.97.53,2.76.35.79.65,1.19.9,1.19.36,0,.92-1.04,1.68-3.12l1.63.81ZM69.7,10.2l-2.06.13c0-1.41-.25-2.83-.74-4.27s-1.16-2.66-2.01-3.68l1.65-.83c2.1,2.34,3.15,5.22,3.15,8.65Z"/>
    <path class="cls-1" d="M82.97,5.52h-7.28v-.81c-.91.58-1.75,1.03-2.52,1.35l-.84-1.44c1.01-.41,2.06-1.03,3.16-1.86s2-1.75,2.72-2.76h2.04c.43.63,1.18,1.36,2.24,2.17s2.32,1.52,3.78,2.13l-1,1.7c-.7-.28-1.47-.69-2.3-1.21v.74ZM82.53,11.57h-6.54v.65h-1.96v-5.65h10.45v5.61h-1.95v-.62ZM76,10.06h6.54v-1.98h-6.54v1.98ZM76.78,3.96h5c-1.08-.8-1.92-1.6-2.53-2.38-.63.84-1.45,1.63-2.47,2.38Z"/>
    <path class="cls-1" d="M91.25,8.44c-.7,1.03-1.3,1.85-1.8,2.46l-1.05-1.5c.68-.79,1.63-2.14,2.86-4.03v-1.55h-2.35v-1.54h2.35V.04h1.93v3.84c1.39-1.19,2.82-1.78,4.31-1.78,1.28,0,2.32.41,3.11,1.24.79.82,1.19,1.89,1.19,3.21,0,.89-.2,1.77-.6,2.62s-1.09,1.56-2.08,2.12c-.98.56-2.26.86-3.82.92l-.42-1.61c1.05-.1,1.85-.25,2.41-.42s1.02-.43,1.42-.77c.39-.33.69-.73.88-1.18.19-.45.29-.96.3-1.53v-.16c0-.82-.21-1.5-.62-2.05s-.97-.82-1.68-.82c-1.58,0-3.04.82-4.38,2.47v6.17h-1.93v-3.88Z"/>
    <path class="cls-1" d="M115.36,12.11c-1.4.05-2.6.08-3.6.08-1.69,0-2.89-.06-3.61-.19-.72-.13-1.29-.43-1.71-.89s-.64-1.15-.64-2.06v-4.06h-2v-1.67h2V.62h2.03v2.69h4.7c-.01-.87-.06-1.78-.14-2.75l2-.12c.08.87.12,1.83.12,2.88h2.19v1.67h-2.23c-.08,1.47-.18,2.41-.3,2.81-.12.41-.32.73-.61.97-.29.24-.69.36-1.19.36-.46,0-.98-.15-1.57-.45-.59-.3-1.14-.68-1.65-1.15l.84-1.4c.42.32.83.57,1.23.76s.67.28.79.28c.1,0,.17-.03.23-.08.06-.05.09-.12.11-.2s.04-.32.08-.71c.04-.4.07-.8.08-1.2h-4.68v4.11c0,.81.52,1.24,1.57,1.3h.21c.71.04,1.48.06,2.33.06,1.26,0,2.4-.05,3.42-.14v1.8Z"/>
  </g>
</svg>