<?xml version="1.0" encoding="utf-8"?>
<!-- Generator: Adobe Illustrator 26.3.1, SVG Export Plug-In . SVG Version: 6.00 Build 0)  -->
<svg version="1.1" id="b" xmlns="http://www.w3.org/2000/svg" xmlns:xlink="http://www.w3.org/1999/xlink" x="0px" y="0px"
	 viewBox="0 0 534.1 92" style="enable-background:new 0 0 534.1 92;" xml:space="preserve">
<style type="text/css">
	.st0{fill:url(#SVGID_1_);}
	.st1{fill:#FFFFFF;}
	.st2{fill:#ED6C00;}
	.st3{fill:#231815;}
</style>
<g>
	<g>
		
			<linearGradient id="SVGID_1_" gradientUnits="userSpaceOnUse" x1="-87.3271" y1="170.5716" x2="480.3339" y2="-6.8224" gradientTransform="matrix(1 0 0 -1 0 93)">
			<stop  offset="0" style="stop-color:#E9331E"/>
			<stop  offset="1" style="stop-color:#ED6C00"/>
		</linearGradient>
		<path class="st0" d="M99.1,3h418.1c7.7,0,14,6.2,14,14V75c0,7.7-6.2,14-14,14H99.1c-7.7,0-14-6.2-14-14V17C85.1,9.2,91.3,3,99.1,3
			z"/>
		<path class="st1" d="M517.2,6c6,0,11,4.9,11,11V75c0,6-4.9,11-11,11H99.1c-6,0-11-4.9-11-11V17c0-6,4.9-11,11-11H517.2 M517.2,0
			H99.1c-9.3,0-17,7.6-17,17V75c0,9.3,7.6,17,17,17h418.1c9.3,0,17-7.6,17-17V17C534.1,7.6,526.5,0,517.2,0L517.2,0z"/>
	</g>
	<path class="st1" d="M494.1,52h34v23.4c0,5.8-4.7,10.6-10.6,10.6h-23.4L494.1,52L494.1,52L494.1,52z"/>
	<g>
		<path class="st2" d="M507.7,78.2c-0.3,0-0.7-0.1-0.9-0.4c-0.4-0.5-0.4-1.3,0.2-1.7l6.1-5.1l-6.1-5.1c-0.5-0.4-0.6-1.2-0.2-1.7
			c0.4-0.5,1.2-0.6,1.7-0.2l8.3,6.9l-8.3,6.9C508.3,78.1,508,78.2,507.7,78.2z"/>
		<path class="st2" d="M514.9,78.2c-0.3,0-0.7-0.1-0.9-0.4c-0.4-0.5-0.4-1.3,0.2-1.7l6.1-5.1l-6.1-5.1c-0.5-0.4-0.6-1.2-0.2-1.7
			c0.4-0.5,1.2-0.6,1.7-0.2L524,71l-8.3,6.9C515.5,78.1,515.2,78.2,514.9,78.2z"/>
	</g>
	<g>
		<g>
			<path class="st1" d="M10.2,46.8c0.1,0.1,0.1,0.1,0.1,0.2c0.4,0.6,0.5,1.4,0.2,2c-1.2,2.6-1,5.7,0.5,8.1c2.5,4.1,7.9,5.3,11.9,2.8
				c4.1-2.5,5.3-7.9,2.8-11.9c-2.2-3.5-6.5-5-10.4-3.5c-0.9,0.3-1.9,0-2.4-0.8l-5.3-8.5C7.1,34.2,5.9,34,5,34.5s-1.2,1.8-0.6,2.8
				L10.2,46.8L10.2,46.8z"/>
			<path class="st3" d="M25.1,63.3c-5.9,3.7-13.8,1.9-17.4-4.1C5.6,56,5.2,52,6.5,48.4l-5.6-9c-1.8-2.8-0.9-6.5,1.9-8.3
				c2.8-1.8,6.5-0.9,8.3,1.9l4.4,7.1c5.2-1.2,10.7,1,13.6,5.6C32.9,51.8,31.1,59.6,25.1,63.3L25.1,63.3z M10.2,46.8
				c0.1,0.1,0.1,0.1,0.1,0.2c0.4,0.6,0.5,1.4,0.2,2c-1.2,2.6-1,5.7,0.5,8.1c2.5,4.1,7.9,5.3,11.9,2.8c4.1-2.5,5.3-7.9,2.8-11.9
				c-2.2-3.5-6.5-5-10.4-3.5c-0.9,0.3-1.9,0-2.4-0.8l-5.3-8.5C7.1,34.2,5.9,34,5,34.5s-1.2,1.8-0.6,2.8L10.2,46.8L10.2,46.8z"/>
			<path class="st3" d="M20.1,59.1l-3.3,2c-3,1.8-6.9,0.9-8.7-2c-1.8-3-0.9-6.9,2-8.7l3.3-2c3-1.8,6.9-0.9,8.7,2
				C24,53.3,23.1,57.3,20.1,59.1L20.1,59.1z M12.2,53.8c-1.1,0.7-1.4,2.1-0.7,3.2s2.1,1.4,3.2,0.7l3.3-2c1.1-0.7,1.4-2.1,0.7-3.2
				s-2.1-1.4-3.2-0.7L12.2,53.8L12.2,53.8z"/>
		</g>
		<g>
			<polygon class="st2" points="74.4,46.4 74.5,47 74.4,47.7 74.2,48.4 74.4,49.1 74.2,49.8 74,50.4 74.2,51.2 73.8,51.7 73.3,52.3 
				73.7,53.2 72.9,53.6 72.7,54.2 72.7,55 72.7,55.8 71.7,56 71.5,56.7 71.5,57.5 70.7,57.8 70.3,58.3 70,59 69.5,59.3 69.2,60 
				68.6,60.4 68.4,61.1 67.9,61.7 67,61.6 66.7,62.4 66,62.6 65.6,63.2 65.1,63.6 64.6,64.1 63.6,63.9 63.1,64.3 62.6,64.8 
				61.8,64.7 61.3,65.2 60.6,65.3 60,65.8 59.3,65.8 58.6,65.7 58,66.2 57.3,66.5 56.6,65.9 55.9,66.3 55.3,66.6 54.6,66.6 
				53.9,66.4 53.2,66.2 52.5,66.4 51.9,66.1 51.2,65.9 50.5,65.9 49.8,65.7 49.2,65.7 48.6,65.3 47.9,65.2 47.3,64.9 46.7,64.5 
				46.1,64.2 45.2,64.5 44.6,64 44.4,63.2 43.7,62.9 42.9,62.9 42.6,62.2 42.1,61.7 41.4,61.5 41,60.9 40.4,60.5 40,59.9 39.2,59.7 
				39.3,58.8 38.7,58.4 38.2,57.9 37.7,57.4 37.7,56.6 36.9,56.3 36.7,55.6 36.4,55 36.5,54.2 35.8,53.8 35.7,53.1 35.2,52.5 
				35.7,51.7 35,51.1 34.7,50.5 34.8,49.8 34.8,49.1 34.4,48.4 34.9,47.7 34.4,47.1 34.4,46.4 34.5,45.7 34.9,45 34.9,44.3 
				34.9,43.7 35.1,43 34.7,42.2 35.4,41.7 35.3,41 35.7,40.4 35.7,39.6 35.9,39 36,38.3 36.1,37.6 37.1,37.3 37.4,36.7 37.2,35.8 
				38,35.5 38.1,34.7 38.9,34.5 39.1,33.8 39.5,33.2 40,32.8 40.7,32.4 40.8,31.6 41.7,31.6 41.7,30.6 42.4,30.3 42.9,29.9 
				43.7,29.8 44.1,29.2 44.9,29.2 45.5,28.9 45.9,28.2 46.7,28.3 47.4,28.1 47.9,27.6 48.5,27.3 49.1,26.8 49.8,26.6 50.5,26.9 
				51.1,26.5 51.9,26.9 52.5,26.4 53.2,26 53.9,26.2 54.6,26 55.3,26.1 56,26.3 56.6,26.2 57.3,26.3 57.9,27 58.6,27.1 59.3,26.9 
				59.9,27.4 60.6,27.5 61.2,27.8 61.8,28 62.6,27.9 63,28.6 63.8,28.5 64.3,29 65,29.2 65.5,29.7 66.2,29.9 66.9,30.2 67.2,30.9 
				67.6,31.5 68.4,31.5 68.7,32.3 69,32.9 69.6,33.3 70.3,33.6 70.6,34.2 70.8,34.9 71.2,35.4 71.5,36.1 72,36.5 72.4,37.1 73,37.6 
				73.3,38.2 73.4,38.9 73.3,39.7 73.7,40.3 74.1,40.9 74.3,41.6 74.4,42.2 74.2,43 74.5,43.6 74.7,44.3 74.2,45 74.5,45.7 			"/>
			<g>
				<circle class="st1" cx="46.7" cy="38.9" r="2.4"/>
				<circle class="st1" cx="61.1" cy="38.9" r="2.4"/>
				<path class="st1" d="M54.3,50.8h-4.3c-0.9,0-1.6-1-1.2-1.8l3.7-9.4c0.1-0.3,0.4-0.4,0.7-0.3l1,0.4c0.3,0.1,0.4,0.4,0.3,0.7
					l-2.7,6.7c-0.3,0.7,0.2,1.5,1,1.5h1.5c0.3,0,0.5,0.2,0.5,0.5v1.1C54.8,50.5,54.6,50.8,54.3,50.8L54.3,50.8z"/>
				<path class="st1" d="M51.7,59c-0.6,0-1.1,0-1.7-0.1c-0.3,0-0.5-0.3-0.5-0.6l0.1-1.5c0-0.3,0.3-0.5,0.6-0.5
					c4.1,0.3,7.4-0.6,9.6-2.5c2.1-1.8,3.2-4.6,3.4-8.1c0-0.3,0.3-0.5,0.5-0.5l1.5,0c0.3,0,0.5,0.3,0.5,0.6c-0.2,4.3-1.7,7.7-4.3,10
					C59.1,57.9,55.7,59,51.7,59z"/>
			</g>
		</g>
	</g>
	<g>
		<path class="st1" d="M169,40.2h-8.7v-2.7h8.7V40.2z M168.4,57h-4.8v1h-2.9v-9.2h7.7V57z M168.4,36.3h-7.3V34h7.3V36.3z
			 M168.2,43.8h-7.1v-2.3h7.1V43.8z M168.2,47.5h-7.1v-2.4h7.1V47.5z M165.5,54.6v-3.4h-1.8v3.4H165.5z M185.8,53.6h-1.1v1.9
			c0,0.7-0.3,1.2-0.8,1.7s-1.2,0.7-1.9,0.7h-3.3l-0.4-2.9h2.1c0.5,0,0.8-0.2,0.8-0.7v-0.7H174V58h-3.6v-4.5h-1.2v-2.2h1.2v-6.5h5.6
			v-1.1h-6.7v-2.1h3.2v-1.3h-2.2v-2h2.2v-1.2h-2.7V35h2.7v-1.4h3.5V35h3v-1.4h3.5V35h2.7v2.1h-2.7v1.2h2v2h-2v1.3h3v2.1h-6.5v1.1
			h5.6v6.5h1.1V53.6z M176,46.8h-2v1.3h2V46.8z M174,51.4h2v-1.4h-2V51.4z M176,37.1v1.2h3v-1.2H176z M176,41.6h3v-1.3h-3V41.6z
			 M181.1,48.2v-1.3H179v1.3H181.1z M179,51.4h2.1v-1.4H179V51.4z"/>
		<path class="st1" d="M216.8,37.9h-20.9v4c0,2.2-0.1,4-0.2,5.5c0.8-0.6,1.5-1.3,1.9-2c0.5-0.8,0.8-1.6,1-2.4c0.2-0.8,0.3-2.1,0.3-4
			h2.9c0,1.1,0,2-0.1,2.7c0.1,1.8,1,3.4,2.6,4.9l0-8l3.4,0l0,8.6c0.7-0.6,1.3-1.2,1.8-1.9c0.4-0.7,0.7-1.5,0.9-2.2
			c0.2-0.7,0.3-2,0.3-4h2.9c0,0.7,0,1.4,0,2.1l0,0c0,1.4,0.4,2.6,1.2,3.8s1.5,1.9,2.2,2.4l-1.8,1.9c-1.2-0.9-2.2-2-2.9-3.5
			c-0.8,1.4-1.9,2.7-3.3,3.6l-1.2-1.8v2.4h8v2.7h-8v1.9h8.9v2.9l-20.8,0v-2.9h8.5v-1.9h-7.7v-2.7h7.8v-2.7l-1.2,1.5
			c-1.1-1-2-2-2.6-3.1c-0.9,1.4-2,2.6-3.3,3.6l-1.4-1.7c-0.2,1.9-0.6,3.8-1.1,5.8c-0.5,2-1.2,3.5-2,4.5l-2.7-1.6
			c0.4-0.9,0.9-2.1,1.3-3.6c0.4-1.5,0.7-3,0.9-4.5c0.2-1.5,0.3-3.4,0.3-5.7v-7.3h10.9v-1.9h3.7v1.9h9.8V37.9z"/>
		<path class="st1" d="M233.9,56.7l0.9-3.2c1.3,0.6,2.6,0.9,3.8,0.9c1.3,0,2.4-0.3,3.1-0.9s1.2-1.5,1.2-2.7c0-1.3-0.6-2.4-1.7-3.1
			s-2.6-1-4.6-1c-1.2,0-2.5,0.1-3.9,0.4v7.5c0,1.1-0.4,1.9-1.3,2.5s-2,0.9-3.3,0.9c-1.8,0-3.3-0.5-4.6-1.6s-1.9-2.4-1.9-4.1
			c0-1.6,0.6-3.1,1.9-4.4s3-2.4,5.2-3.2v-3.4h-6.4v-3.2h6.4v-4.3h4v4.3h6.7v3.2h-6.7v2.4c1.3-0.2,2.5-0.3,3.8-0.3
			c3.1,0,5.5,0.6,7.5,1.9s2.9,3,2.9,5.3c0,2.2-0.7,4-2.2,5.3s-3.4,1.9-5.7,1.9C237.2,58,235.5,57.6,233.9,56.7z M228.8,48.3
			c-2.4,1.1-3.5,2.5-3.5,4c0,0.7,0.3,1.2,0.8,1.6s1.2,0.7,1.9,0.7c0.5,0,0.8-0.3,0.8-0.8V48.3z M248.1,41.1l-2.9,2.3
			c-0.7-0.8-1.8-2-3.5-3.6c-1.7-1.6-3-2.7-3.9-3.3l2.4-2.4c1.2,0.7,2.6,1.7,4.1,3.1S247,39.8,248.1,41.1z"/>
		<path class="st1" d="M267.3,58.3h-3.9v-6.6h-6.2v0.9h-3.9V35.8h10.1v-2.5h3.9v2.5h10.2v16.8h-3.9v-0.9h-6.3V58.3z M263.4,38.8
			h-6.2v3.3h6.2V38.8z M263.4,45.1h-6.2v3.5h6.2V45.1z M273.5,42.2v-3.3h-6.3v3.3H273.5z M273.5,48.6v-3.5h-6.3v3.5H273.5z"/>
		<path class="st1" d="M309.7,54.7l-0.6,3.1c-0.1,0-0.3,0-0.6,0l-8.5,0.1c-4,0-6.9-0.2-8.7-0.6c-1.4-0.5-2.5-1.2-3.2-2.2
			c-1.4,1.4-2.9,2.4-4.4,3.2l-1.3-3.3c1.3-0.5,2.5-1.2,3.6-2.2v-6.9h-3v-3h6.5v9.1c0,0.6,0.3,1.1,0.8,1.6s1.1,0.7,1.8,0.9
			s1.5,0.3,2.5,0.3s2.6,0.1,5.1,0.1C304.9,54.9,308.2,54.8,309.7,54.7z M290.3,39l-3.4,1.8c-0.2-0.5-0.8-1.4-1.7-2.8s-1.5-2.3-2-2.8
			l3.1-1.7C287.5,34.9,288.9,36.7,290.3,39z M299.9,45.3c-1.4,3.5-3.9,6.3-7.6,8.3l-1.9-2.7c2.3-1.3,4.1-3,5.4-5.2
			c1.3-2.2,2-4.6,2.2-7.3c-0.1-0.5-0.1-0.9-0.1-1.2h-5.2v-3h9.2v0.4c0,3,0.1,5,0.3,6.2s0.7,2.4,1.3,3.7s1.5,2.5,2.4,3.5
			s2.1,2,3.4,2.9l-2.7,3c-1.3-0.9-2.5-2.1-3.8-3.7S300.6,47,299.9,45.3z"/>
		<path class="st1" d="M340.8,46.9l-1.1,3.6l-3.1-1.2c-1.1,4.1-3.6,7.2-7.3,9.2l-2.3-2.5c1.8-1.3,3.1-2.5,4-3.8s1.5-2.7,1.9-4.3
			c-2.2-0.7-4.1-1.1-5.9-1.4c-2.9,6.6-5.9,9.9-9.1,9.9c-1.2,0-2.2-0.4-2.9-1.3s-1.1-1.9-1.1-3.2c0-2.2,0.9-4.2,2.8-6.1
			c1.9-1.9,4.3-2.9,7.3-2.9h0.2c0.4-1.4,0.7-2.9,0.9-4.7h-8v-3.3h11.8l0.5,0.6c-0.1,2.5-0.5,5.1-1.2,7.7c1.6,0.2,3.4,0.6,5.3,1.1
			c0-0.7,0.1-1.6,0.1-2.9c0-0.5,0-1,0-1.6h4l0,2.3c0,1.3,0,2.4-0.1,3.4L340.8,46.9z M322.9,46.4c-1.2,0.1-2.3,0.5-3.2,1.2
			s-1.5,1.5-1.8,2.3s-0.5,1.5-0.5,2.1c0,0.6,0.2,0.9,0.5,0.9C319.4,52.9,321.1,50.7,322.9,46.4z"/>
		<path class="st1" d="M351.3,34.9c-1.1,4.1-1.7,7.6-1.7,10.5c0,3.9,0.5,7.7,1.6,11.5l-3.8,0.8c-1-3.9-1.5-7.6-1.5-11.3
			c0-3.8,0.5-7.8,1.6-12L351.3,34.9z M371.6,53.6l-2.2,3.1c-1.3-1.2-2.7-2.3-4-3.1c-0.1,1.3-0.6,2.4-1.4,3.1
			c-0.9,0.7-2.5,1.1-4.8,1.1c-1.7,0-3.1-0.4-4.3-1.2c-1.2-0.8-1.8-1.9-1.8-3.4s0.6-2.6,1.8-3.5s2.6-1.3,4.2-1.3
			c0.7,0,1.6,0.1,2.5,0.2v-6.1h-8.9v-3.4h8.9v-5h3.9v5h5.1v3.4h-5.1v7.3C367.5,50.6,369.5,51.9,371.6,53.6z M361.6,52.8v-1
			c-0.7-0.3-1.6-0.4-2.5-0.4c-0.6,0-1.1,0.1-1.6,0.4s-0.7,0.7-0.7,1.2s0.2,0.8,0.7,1.1s1,0.4,1.7,0.4
			C360.8,54.6,361.6,54,361.6,52.8z"/>
		<path class="st1" d="M398.8,57H377v-3.7h17.5V39.9l-17.3,0v-3.6h21.6V57z"/>
		<path class="st1" d="M422.4,46.7c0,2.9-1,5.4-2.9,7.4s-4.8,3.4-8.4,4.1l-1.4-3.4c2.6-0.5,4.7-1.5,6.3-2.8s2.4-3.1,2.4-5.3h-11.5
			v-3.5h11.5v-3.7c-2.3,0.2-5.2,0.4-8.6,0.5l-0.7-3.4c8.2-0.2,14.5-1.1,18.9-2.7l2.5,2.9c-2.1,0.9-4.7,1.6-8,2.2v4.3h10v3.5H422.4z"
			/>
		<path class="st1" d="M461.5,41.6c0,2.5-0.5,4.9-1.3,7.1c-0.8,2.2-2.2,4-4.1,5.5s-4,2.5-6.4,3c-2.4,0.5-4.9,0.8-7.5,0.9l-0.8-3.6
			c5.1-0.3,8.8-1.1,11.1-2.6s3.8-3.7,4.5-6.8h-18.2v-3.6H461.5z M460.4,38.6h-20.8v-3.4h20.8V38.6z"/>
	</g>
</g>
</svg>
