<?xml version="1.0" encoding="UTF-8"?><svg id="b" xmlns="http://www.w3.org/2000/svg" xmlns:xlink="http://www.w3.org/1999/xlink" viewBox="0 0 534.102 92"><defs><linearGradient id="d" x1="-87.327" y1="-77.572" x2="480.334" y2="99.822" gradientUnits="userSpaceOnUse"><stop offset="0" stop-color="#e9331e"/><stop offset="1" stop-color="#ed6c00"/></linearGradient></defs><g id="c"><g><g><rect x="85.102" y="3" width="446" height="86" rx="13.951" ry="13.951" style="fill:url(#d);"/><path d="M517.151,6c6.048,0,10.951,4.903,10.951,10.951v58.098c0,6.048-4.903,10.951-10.951,10.951H99.053c-6.048,0-10.951-4.903-10.951-10.951V16.951c0-6.048,4.903-10.951,10.951-10.951h418.098m0-6H99.053c-9.347,0-16.951,7.604-16.951,16.951v58.098c0,9.347,7.604,16.951,16.951,16.951h418.098c9.347,0,16.951-7.604,16.951-16.951V16.951c0-9.347-7.604-16.951-16.951-16.951h0Z" style="fill:#fff;"/></g><path d="M494.102,52h34v23.405c0,5.848-4.748,10.595-10.595,10.595h-23.405V52h0Z" style="fill:#fff;"/><g><polyline points="507.746 65 514.946 71 507.746 77" style="fill:none; stroke:#ed6c00; stroke-linecap:round; stroke-miterlimit:10; stroke-width:2.4px;"/><polyline points="514.946 65 522.146 71 514.946 77" style="fill:none; stroke:#ed6c00; stroke-linecap:round; stroke-miterlimit:10; stroke-width:2.4px;"/></g><g><g><path d="M169.044,36.314c2.128,0,2.828-.056,2.968-.056,.28,0,.308,.028,.308,.308v1.988c0,.308-.027,.336-.308,.336-.14,0-.84-.056-2.968-.056h-2.576c-2.128,0-2.828,.056-2.968,.056-.28,0-.309-.028-.309-.336v-1.988c0-.28,.028-.308,.309-.308,.14,0,.84,.056,2.968,.056h2.576Zm2.548,15.904c0,3.248,.056,3.864,.056,4.032,0,.28-.028,.308-.308,.308h-1.904c-.28,0-.308-.028-.308-.308v-.784h-2.464v1.288c0,.28-.028,.308-.309,.308h-1.876c-.308,0-.336-.028-.336-.308,0-.168,.056-.812,.056-4.2v-1.792c0-1.764-.056-2.436-.056-2.632,0-.28,.028-.308,.336-.308,.168,0,.756,.056,2.548,.056h1.736c1.792,0,2.38-.056,2.576-.056,.279,0,.308,.028,.308,.308,0,.168-.056,.84-.056,2.156v1.932Zm-2.688-19.74c1.792,0,2.353-.056,2.521-.056,.308,0,.336,.028,.336,.308v1.848c0,.28-.028,.308-.336,.308-.168,0-.729-.056-2.521-.056h-1.876c-1.819,0-2.38,.056-2.548,.056-.28,0-.308-.028-.308-.308v-1.848c0-.28,.027-.308,.308-.308,.168,0,.729,.056,2.548,.056h1.876Zm-.252,7.812c1.681,0,2.185-.056,2.353-.056,.308,0,.336,.028,.336,.308v1.82c0,.28-.028,.308-.336,.308-.168,0-.672-.056-2.353-.056h-1.512c-1.708,0-2.212,.056-2.38,.056-.28,0-.309-.028-.309-.308v-1.82c0-.28,.028-.308,.309-.308,.168,0,.672,.056,2.38,.056h1.512Zm0,3.78c1.681,0,2.185-.056,2.353-.056,.308,0,.336,.028,.336,.308v1.792c0,.28-.028,.308-.336,.308-.168,0-.672-.056-2.353-.056h-1.512c-1.708,0-2.212,.056-2.38,.056-.28,0-.309-.028-.309-.308v-1.792c0-.28,.028-.308,.309-.308,.168,0,.672,.056,2.38,.056h1.512Zm-1.987,6.132v2.94h2.464v-2.94h-2.464Zm22.26,1.876c0,.308-.028,.336-.309,.336-.084,0-.56-.028-1.54-.028,.028,.616,.057,1.204,.057,1.68,0,1.176-.141,1.68-.645,2.156s-1.176,.56-3.304,.588q-.84,0-1.036-.868c-.14-.588-.392-1.232-.616-1.624,.784,.056,1.456,.084,2.128,.084,.757,0,.925-.196,.925-.756v-1.288h-8.316v1.26c0,1.988,.056,2.94,.056,3.108,0,.252-.027,.28-.308,.28h-1.96c-.28,0-.308-.028-.308-.28,0-.196,.056-1.036,.056-3.024v-1.316c-.812,0-1.176,.028-1.26,.028-.28,0-.309-.028-.309-.336v-1.54c0-.28,.028-.308,.309-.308,.084,0,.447,.028,1.26,.056v-3.248c0-1.96-.056-2.856-.056-3.052,0-.28,.027-.308,.308-.308,.168,0,1.008,.056,3.472,.056h1.484v-1.316h-2.576c-2.688,0-3.612,.056-3.78,.056-.279,0-.308-.028-.308-.336v-1.456c0-.28,.028-.308,.308-.308,.168,0,1.093,.056,3.78,.056v-1.4c-1.652,.028-2.268,.056-2.408,.056-.279,0-.308-.028-.308-.308v-1.316c0-.252,.028-.28,.308-.28,.141,0,.756,.056,2.408,.056v-1.372c-2.156,.028-2.968,.056-3.108,.056-.279,0-.308-.028-.308-.336v-1.344c0-.28,.028-.308,.308-.308,.141,0,.952,.056,3.108,.056v-.448c0-.98-.028-1.568-.168-2.1,.924,.056,1.792,.112,2.548,.196,.28,.028,.42,.14,.42,.224,0,.168-.056,.28-.14,.448-.14,.252-.168,.532-.168,1.316v.364h2.771v-.448c0-.98-.027-1.568-.168-2.1,.924,.056,1.792,.112,2.548,.196,.28,.028,.421,.14,.421,.224,0,.168-.084,.336-.169,.504-.14,.252-.14,.476-.14,1.26v.364c2.548,0,3.444-.056,3.64-.056,.28,0,.309,.028,.309,.308v1.344c0,.308-.028,.336-.309,.336-.195,0-1.092-.056-3.64-.056v1.372c1.988,0,2.772-.056,2.94-.056,.279,0,.308,.028,.308,.28v1.316c0,.28-.028,.308-.308,.308-.168,0-.952-.028-2.94-.056v1.4h.42c2.716,0,3.641-.056,3.809-.056,.252,0,.279,.028,.279,.308v1.456c0,.308-.027,.336-.279,.336-.168,0-1.093-.056-3.809-.056h-3.164v1.316h1.849c2.464,0,3.332-.056,3.5-.056,.279,0,.308,.028,.308,.308,0,.168-.056,1.26-.056,3.304v2.996c1.008-.028,1.483-.056,1.567-.056,.28,0,.309,.028,.309,.308v1.54Zm-9.884-4.956v-1.456h-2.772v1.456h2.772Zm0,3.164v-1.484h-2.772v1.484h2.772Zm2.659-13.048v-1.372h-2.771v1.372h2.771Zm0,3.192v-1.4h-2.771v1.4h2.771Zm-.279,5.236v1.456h3.164v-1.456h-3.164Zm3.164,4.62v-1.484h-3.164v1.484h3.164Z" style="fill:#fff;"/><path d="M206.479,45.246c.084-.168,.14-.336,.224-.56,.196-.476,.336-.896,.448-1.568-.42,.336-1.204,.56-3.304,.588q-.784,.028-.98-.812c-.14-.56-.28-1.036-.476-1.428-1.26,.644-2.437,1.176-3.612,1.652-.42,.168-.728,.308-.868,.448-.14,.112-.308,.196-.42,.196-.14,0-.28-.084-.364-.336-.252-.672-.476-1.54-.699-2.408,.896-.14,1.54-.336,2.155-.532,1.484-.476,3.389-1.26,5.433-2.324-.028,.392-.028,1.092-.028,1.68,.028,.896,.028,.812-.784,1.232l-.252,.14c.477,.028,.868,.028,1.26,.028,.757,0,.952-.224,.952-.784v-5.796h-5.151c-2.24,0-2.969,.056-3.137,.056-.279,0-.308-.028-.308-.336v-1.904c0-.308,.028-.336,.308-.336,.168,0,.896,.056,3.137,.056h4.367c2.269,0,3.024-.056,3.192-.056,.28,0,.308,.028,.308,.336,0,.168-.056,.728-.056,2.072v3.668c0,1.008,.084,2.184,.084,2.884,0,.868-.14,1.456-.616,1.904,.925,.14,1.988,.308,2.744,.532,.225,.084,.364,.196,.364,.364,0,.224-.112,.336-.308,.476-.196,.14-.337,.336-.448,.56l-.196,.308h4.032c2.744,0,3.696-.056,3.892-.056,.28,0,.309,.028,.309,.336,0,.168-.057,.952-.057,3.136v2.884c0,4.144,.057,4.928,.057,5.096,0,.28-.028,.308-.309,.308h-2.24c-.308,0-.336-.028-.336-.308v-.728h-11.983v.868c0,.28-.028,.308-.309,.308h-2.296c-.279,0-.308-.028-.308-.308,0-.196,.056-.952,.056-5.18v-2.548c0-2.576-.056-3.36-.056-3.528,0-.308,.028-.336,.308-.336,.196,0,1.148,.056,3.893,.056h2.38Zm-7.729-10.08c.225-.196,.309-.224,.561-.112,1.092,.448,2.184,1.064,3.22,1.82,.112,.084,.196,.168,.196,.252,0,.056-.057,.14-.196,.28l-1.288,1.148c-.308,.28-.336,.336-.588,.14-.952-.784-2.016-1.428-3.08-1.96-.252-.112-.224-.196,.028-.448l1.147-1.12Zm4.061,14.224h11.983v-1.848h-11.983v1.848Zm11.983,4.228v-2.072h-11.983v2.072h11.983Zm5.376-15.4c0,1.008,.057,2.184,.057,2.884,0,.924-.141,1.512-.7,1.988-.476,.364-1.288,.56-3.36,.616q-.783,.028-.952-.728c-.14-.672-.336-1.176-.56-1.624-1.063,.504-2.072,.924-3.136,1.372-.477,.196-.756,.28-.924,.392-.196,.084-.336,.224-.477,.224-.168,0-.28-.112-.364-.308-.224-.728-.42-1.4-.644-2.38,.924-.14,1.512-.252,2.24-.476,1.456-.476,2.912-1.12,4.983-2.184-.027,.392-.056,1.148-.027,1.708,.027,.896,0,.84-.812,1.232l-.504,.252c.561,.056,1.064,.056,1.484,.056,.812,0,1.036-.224,1.036-.784v-5.796h-5.124c-2.269,0-2.969,.056-3.137,.056-.279,0-.308-.028-.308-.336v-1.904c0-.308,.028-.336,.308-.336,.168,0,.868,.056,3.137,.056h4.312c2.269,0,3.052-.056,3.22-.056,.28,0,.309,.028,.309,.336,0,.168-.057,.728-.057,2.072v3.668Zm-9.268-3.024c.252-.224,.364-.224,.616-.14,1.063,.476,2.212,1.176,3.191,1.932,.112,.084,.196,.168,.196,.224,0,.084-.056,.168-.196,.28l-1.372,1.176c-.308,.252-.336,.28-.56,.112-.924-.84-1.904-1.484-3.052-2.1-.252-.14-.28-.196,0-.476l1.176-1.008Z" style="fill:#fff;"/><path d="M239.799,34.774c0-1.54-.056-2.408-.224-3.416,1.063,.028,2.128,.084,3.08,.196,.252,.028,.448,.14,.448,.28,0,.224-.057,.392-.141,.588-.14,.364-.195,.98-.195,2.296v.924h4.928c2.716,0,3.668-.056,3.836-.056,.28,0,.308,.028,.308,.308,0,.168-.056,1.204-.056,4.312v4.088c0,5.208,.056,6.188,.056,6.356,0,.28-.027,.308-.308,.308h-2.353c-.279,0-.308-.028-.308-.308v-.952h-6.104v1.82c0,3.332,.027,5.04,.027,5.18,0,.28-.027,.308-.28,.308h-2.491c-.252,0-.28-.028-.28-.308,0-.168,.056-1.848,.056-5.152v-1.848h-5.907v1.064c0,.28-.028,.308-.309,.308h-2.352c-.28,0-.309-.028-.309-.308,0-.168,.057-1.148,.057-6.384v-3.64c0-3.64-.057-4.648-.057-4.844,0-.28,.028-.308,.309-.308,.195,0,1.147,.056,3.836,.056h4.731v-.868Zm-5.907,6.552h5.907v-3.136h-5.907v3.136Zm5.907,5.824v-3.332h-5.907v3.332h5.907Zm2.969-8.96v3.136h6.104v-3.136h-6.104Zm6.104,8.96v-3.332h-6.104v3.332h6.104Z" style="fill:#fff;"/><path d="M268.08,50.79c.588,1.148,1.147,1.848,2.296,2.324,.979,.392,2.744,.56,5.18,.56,3.612,0,7.868-.196,12.04-.616-.392,.588-.644,1.344-.756,2.184q-.14,.896-1.036,.952c-3.556,.196-6.888,.28-9.8,.28-2.884,0-5.208-.252-6.552-.812-1.288-.532-2.044-1.316-2.744-2.492-.868,.84-1.848,1.68-2.884,2.464-.28,.224-.448,.392-.561,.56-.14,.196-.252,.28-.42,.28-.112,0-.28-.14-.392-.364-.393-.728-.756-1.624-1.148-2.632,.729-.336,1.12-.532,1.652-.868,.812-.504,1.624-1.148,2.352-1.792v-6.188h-1.372c-1.512,0-1.903,.056-2.044,.056-.308,0-.336-.028-.336-.336v-2.156c0-.28,.028-.308,.336-.308,.141,0,.532,.056,2.044,.056h1.792c1.484,0,1.933-.056,2.101-.056,.279,0,.308,.028,.308,.308,0,.168-.056,.952-.056,2.66v5.936Zm-1.736-12.544c-.196,.14-.28,.196-.364,.196s-.14-.056-.224-.196c-1.036-1.68-2.184-3.192-3.444-4.368-.224-.196-.168-.28,.141-.476l1.567-1.036c.309-.196,.364-.224,.588-.028,1.288,1.204,2.492,2.576,3.5,4.172,.169,.252,.169,.308-.14,.532l-1.624,1.204Zm9.912-5.376c1.288,0,2.184-.056,2.548-.056,.196,0,.28,.14,.28,.308,0,.644-.028,2.212,.336,4.116,.812,4.648,3.556,9.072,7.868,11.816-.477,.532-1.092,1.372-1.484,2.184-.224,.42-.336,.616-.504,.616-.14,0-.336-.112-.616-.364-3.416-2.744-5.712-6.44-6.804-10.64-1.064,4.256-3.136,7.588-6.384,10.416-.309,.252-.477,.392-.616,.392s-.28-.168-.588-.532c-.588-.784-1.176-1.288-1.736-1.652,4.48-3.136,7-7.504,7.645-13.888h-2.437c-1.735,0-2.24,.056-2.408,.056-.308,0-.336-.028-.336-.336v-2.184c0-.28,.028-.308,.336-.308,.168,0,.673,.056,2.408,.056h2.492Z" style="fill:#fff;"/><path d="M312.683,40.766c.056-.616,.056-1.148-.028-1.904,1.456,.364,2.576,.784,3.248,1.204,.252,.14,.392,.504,.196,.756-.168,.364-.364,.672-.448,1.092-.225,1.176-.504,2.408-.784,3.612,1.596,.812,3.332,1.904,4.368,2.688,.28,.168,.252,.308,.168,.588-.28,.672-.868,1.848-1.204,2.408-.084,.14-.168,.196-.252,.196-.112,0-.224-.084-.336-.196-1.232-1.064-2.353-1.876-3.668-2.632-1.428,3.22-2.94,5.264-5.656,7.364-.252,.196-.392,.308-.56,.308-.112,0-.225-.056-.42-.196-.756-.616-1.456-.896-2.437-1.148,3.5-2.436,5.208-4.76,6.272-7.588-1.54-.784-3.528-1.4-5.544-1.708-1.484,3.08-2.296,4.48-3.416,5.6-1.036,1.092-2.156,1.54-3.584,1.54-1.624,0-3.332-1.12-3.332-3.836,0-3.472,3.584-6.188,8.26-6.188,.924-2.324,1.624-4.284,2.324-6.636-1.54,.168-2.94,.336-3.864,.448-.392,.056-.812,.14-1.26,.308-.141,.056-.336,.112-.504,.112-.225,0-.364-.112-.448-.308-.252-.56-.532-1.652-.812-3.052,.841,.168,1.624,.196,2.465,.168,1.344,0,2.743-.14,4.34-.364,.699-.112,1.008-.252,1.372-.476,.111-.084,.252-.112,.363-.112,.141,0,.28,.028,.393,.112,.7,.42,1.372,.98,1.903,1.54,.168,.168,.252,.308,.252,.476s-.111,.308-.279,.476c-.42,.392-.532,.924-.756,1.456-.729,1.904-1.513,4.088-2.353,6.104,1.765,.224,3.416,.644,5.433,1.4,.279-1.288,.476-2.352,.588-3.612Zm-14.784,7.812c0,.896,.308,1.288,.979,1.288,.532,0,1.064-.364,1.624-1.064,.645-.812,1.316-1.932,2.044-3.416-2.855,.112-4.647,1.596-4.647,3.192Z" style="fill:#fff;"/><path d="M333.068,33.962c.308,.168,.42,.336,.42,.56,0,.196-.084,.392-.196,.616-.196,.336-.308,.728-.504,1.54-.924,4.228-1.4,8.148-1.4,10.192,0,1.12,0,2.408,.084,3.584,.561-1.288,1.148-2.492,1.736-3.892,.392,.896,.616,1.288,.979,1.764,.112,.14,.168,.252,.168,.392s-.056,.28-.168,.448c-.979,2.212-1.315,3.444-1.428,4.256-.112,.784-.056,1.204-.028,1.484,.028,.196-.084,.28-.336,.364-.531,.196-1.344,.364-2.1,.476-.308,.084-.42,.056-.56-.336-.784-1.988-1.204-5.32-1.204-8.54,0-2.688,.224-4.928,1.147-10.612,.141-.98,.309-2.184,.196-3.304,1.12,.28,2.632,.728,3.192,1.008Zm9.632,7.476c-1.904,.056-3.864,.112-5.769-.028-.363,0-.476-.084-.504-.364-.112-.672-.196-1.68-.196-2.548,2.101,.196,4.284,.224,6.385,.084,0-1.008-.028-1.904-.028-2.94-.028-1.008-.112-1.736-.364-2.744,1.624,.14,2.464,.252,3.389,.532,.308,.084,.504,.224,.504,.476,0,.14-.057,.224-.168,.476-.112,.252-.196,.616-.225,.98-.056,.952-.056,1.68-.056,2.968,1.315-.112,2.771-.308,3.976-.504,.336-.084,.393,.028,.448,.336,.112,.504,.168,1.4,.168,1.988,0,.252-.112,.392-.308,.42-1.009,.252-2.856,.476-4.312,.588,0,3.136,.057,5.096,.196,7.504,1.652,.672,3.08,1.456,4.647,2.688,.252,.168,.28,.252,.141,.56-.364,.728-.812,1.512-1.288,2.156-.084,.112-.168,.168-.252,.168s-.168-.056-.252-.14c-.868-.812-1.792-1.512-3.024-2.24-.224,2.352-1.819,3.64-5.124,3.64-3.22,0-5.012-1.512-5.012-3.92,0-2.296,2.072-3.948,4.9-3.948,.728,0,1.567,.084,2.239,.224-.056-2.156-.084-4.2-.111-6.412Zm-2.269,8.708c-1.315,0-2.1,.476-2.1,1.344s.616,1.4,2.268,1.4c1.4,0,2.296-.812,2.296-1.82,0-.196,0-.336-.027-.56-.896-.28-1.652-.364-2.437-.364Z" style="fill:#fff;"/><path d="M374.676,39.59h-9.772c-1.903,0-3.22,.056-4.199,.168-.309,0-.42-.14-.42-.476-.084-.756-.141-2.072-.141-2.996,1.681,.168,2.66,.196,4.676,.196h8.316c1.456,0,2.94-.056,4.424-.112,.448,0,.588,.112,.561,.476,0,1.484-.057,2.94-.057,4.424v6.692c0,2.044,.084,4.284,.112,5.068,0,.28-.112,.364-.504,.392-.784,.056-1.68,.056-2.464,0-.448-.028-.532-.056-.532-.476v-1.12h-9.632c-1.764,0-3.248,.084-4.592,.112-.252,0-.364-.112-.393-.42-.084-.728-.14-1.736-.14-2.912,1.315,.084,2.939,.14,5.151,.14h9.604v-9.156Z" style="fill:#fff;"/><path d="M398.701,41.97c0-.896-.028-2.016-.056-2.828-.028-.364-.057-.728-.141-1.288-1.848,.336-4.479,.756-6.636,.896-.42,.056-.588-.308-.7-.616-.279-.56-.672-1.148-1.428-1.932,3.5-.168,5.684-.532,8.316-1.036,1.932-.42,3.332-.728,4.619-1.204,1.316-.504,1.792-.784,2.408-1.26,.952,.7,1.849,1.4,2.296,1.96,.225,.224,.364,.476,.364,.784s-.28,.364-.728,.392c-.589,.084-1.177,.336-1.765,.476-1.708,.476-3.416,.896-5.067,1.232,.728,.084,1.372,.196,1.819,.364,.225,.056,.364,.196,.364,.392,0,.14-.084,.28-.168,.476-.112,.252-.168,.532-.196,.952-.027,.616-.027,1.26-.027,2.212h3.472c1.764,0,4.144-.14,5.404-.196,.279,0,.279,.14,.308,.448,.056,.728,.028,1.596,0,2.24-.028,.392-.028,.504-.364,.504-1.764-.056-3.388-.084-5.432-.084h-3.444c-.224,2.38-.615,4.06-1.399,5.628-.98,2.072-2.632,4.032-4.452,5.236-.168,.112-.308,.196-.477,.196-.14,0-.308-.056-.504-.168-1.008-.532-2.044-.868-2.968-1.064,2.8-1.652,4.088-3.08,5.236-5.18,.728-1.428,1.12-2.912,1.231-4.648h-4.983c-1.008,0-3.08,0-4.452,.112-.364,.028-.448-.196-.532-.644-.14-.532-.28-1.68-.28-2.548,1.988,.168,4.061,.196,5.433,.196h4.928Z" style="fill:#fff;"/><path d="M424.599,42.53c-1.4,0-2.8,.028-4.2,.112-.252,0-.364-.168-.42-.532-.168-.7-.224-1.736-.309-2.828,1.597,.168,3.305,.224,5.152,.224h9.604c.476,0,1.035-.056,1.483-.308,.141-.112,.252-.168,.364-.168,.14,0,.28,.084,.42,.196,.672,.532,1.428,1.232,1.876,1.736,.196,.196,.28,.392,.28,.588,0,.168-.084,.364-.309,.532-.447,.364-.644,.672-.952,1.316-2.8,5.964-6.02,9.464-11.424,12.376-.224,.112-.392,.196-.56,.196-.196,0-.392-.112-.616-.336-.756-.672-1.651-1.092-2.604-1.456,5.18-2.408,9.743-6.272,11.76-11.676l-9.548,.028Zm1.876-6.02c-1.26,0-2.66,.028-3.836,.112-.28,0-.364-.168-.393-.616-.084-.588-.14-1.82-.14-2.688,1.708,.168,2.548,.196,4.592,.196h5.04c1.82,0,3.304-.084,4.396-.14,.252,0,.336,.14,.336,.448,.056,.7,.056,1.484,0,2.184,0,.476-.084,.588-.504,.56-.925,0-2.24-.056-3.948-.056h-5.544Z" style="fill:#fff;"/></g><g><path d="M169.044,36.314c2.128,0,2.828-.056,2.968-.056,.28,0,.308,.028,.308,.308v1.988c0,.308-.027,.336-.308,.336-.14,0-.84-.056-2.968-.056h-2.576c-2.128,0-2.828,.056-2.968,.056-.28,0-.309-.028-.309-.336v-1.988c0-.28,.028-.308,.309-.308,.14,0,.84,.056,2.968,.056h2.576Zm2.548,15.904c0,3.248,.056,3.864,.056,4.032,0,.28-.028,.308-.308,.308h-1.904c-.28,0-.308-.028-.308-.308v-.784h-2.464v1.288c0,.28-.028,.308-.309,.308h-1.876c-.308,0-.336-.028-.336-.308,0-.168,.056-.812,.056-4.2v-1.792c0-1.764-.056-2.436-.056-2.632,0-.28,.028-.308,.336-.308,.168,0,.756,.056,2.548,.056h1.736c1.792,0,2.38-.056,2.576-.056,.279,0,.308,.028,.308,.308,0,.168-.056,.84-.056,2.156v1.932Zm-2.688-19.74c1.792,0,2.353-.056,2.521-.056,.308,0,.336,.028,.336,.308v1.848c0,.28-.028,.308-.336,.308-.168,0-.729-.056-2.521-.056h-1.876c-1.819,0-2.38,.056-2.548,.056-.28,0-.308-.028-.308-.308v-1.848c0-.28,.027-.308,.308-.308,.168,0,.729,.056,2.548,.056h1.876Zm-.252,7.812c1.681,0,2.185-.056,2.353-.056,.308,0,.336,.028,.336,.308v1.82c0,.28-.028,.308-.336,.308-.168,0-.672-.056-2.353-.056h-1.512c-1.708,0-2.212,.056-2.38,.056-.28,0-.309-.028-.309-.308v-1.82c0-.28,.028-.308,.309-.308,.168,0,.672,.056,2.38,.056h1.512Zm0,3.78c1.681,0,2.185-.056,2.353-.056,.308,0,.336,.028,.336,.308v1.792c0,.28-.028,.308-.336,.308-.168,0-.672-.056-2.353-.056h-1.512c-1.708,0-2.212,.056-2.38,.056-.28,0-.309-.028-.309-.308v-1.792c0-.28,.028-.308,.309-.308,.168,0,.672,.056,2.38,.056h1.512Zm-1.987,6.132v2.94h2.464v-2.94h-2.464Zm22.26,1.876c0,.308-.028,.336-.309,.336-.084,0-.56-.028-1.54-.028,.028,.616,.057,1.204,.057,1.68,0,1.176-.141,1.68-.645,2.156s-1.176,.56-3.304,.588q-.84,0-1.036-.868c-.14-.588-.392-1.232-.616-1.624,.784,.056,1.456,.084,2.128,.084,.757,0,.925-.196,.925-.756v-1.288h-8.316v1.26c0,1.988,.056,2.94,.056,3.108,0,.252-.027,.28-.308,.28h-1.96c-.28,0-.308-.028-.308-.28,0-.196,.056-1.036,.056-3.024v-1.316c-.812,0-1.176,.028-1.26,.028-.28,0-.309-.028-.309-.336v-1.54c0-.28,.028-.308,.309-.308,.084,0,.447,.028,1.26,.056v-3.248c0-1.96-.056-2.856-.056-3.052,0-.28,.027-.308,.308-.308,.168,0,1.008,.056,3.472,.056h1.484v-1.316h-2.576c-2.688,0-3.612,.056-3.78,.056-.279,0-.308-.028-.308-.336v-1.456c0-.28,.028-.308,.308-.308,.168,0,1.093,.056,3.78,.056v-1.4c-1.652,.028-2.268,.056-2.408,.056-.279,0-.308-.028-.308-.308v-1.316c0-.252,.028-.28,.308-.28,.141,0,.756,.056,2.408,.056v-1.372c-2.156,.028-2.968,.056-3.108,.056-.279,0-.308-.028-.308-.336v-1.344c0-.28,.028-.308,.308-.308,.141,0,.952,.056,3.108,.056v-.448c0-.98-.028-1.568-.168-2.1,.924,.056,1.792,.112,2.548,.196,.28,.028,.42,.14,.42,.224,0,.168-.056,.28-.14,.448-.14,.252-.168,.532-.168,1.316v.364h2.771v-.448c0-.98-.027-1.568-.168-2.1,.924,.056,1.792,.112,2.548,.196,.28,.028,.421,.14,.421,.224,0,.168-.084,.336-.169,.504-.14,.252-.14,.476-.14,1.26v.364c2.548,0,3.444-.056,3.64-.056,.28,0,.309,.028,.309,.308v1.344c0,.308-.028,.336-.309,.336-.195,0-1.092-.056-3.64-.056v1.372c1.988,0,2.772-.056,2.94-.056,.279,0,.308,.028,.308,.28v1.316c0,.28-.028,.308-.308,.308-.168,0-.952-.028-2.94-.056v1.4h.42c2.716,0,3.641-.056,3.809-.056,.252,0,.279,.028,.279,.308v1.456c0,.308-.027,.336-.279,.336-.168,0-1.093-.056-3.809-.056h-3.164v1.316h1.849c2.464,0,3.332-.056,3.5-.056,.279,0,.308,.028,.308,.308,0,.168-.056,1.26-.056,3.304v2.996c1.008-.028,1.483-.056,1.567-.056,.28,0,.309,.028,.309,.308v1.54Zm-9.884-4.956v-1.456h-2.772v1.456h2.772Zm0,3.164v-1.484h-2.772v1.484h2.772Zm2.659-13.048v-1.372h-2.771v1.372h2.771Zm0,3.192v-1.4h-2.771v1.4h2.771Zm-.279,5.236v1.456h3.164v-1.456h-3.164Zm3.164,4.62v-1.484h-3.164v1.484h3.164Z" style="fill:none; stroke:#fff; stroke-miterlimit:10; stroke-width:.5px;"/><path d="M206.479,45.246c.084-.168,.14-.336,.224-.56,.196-.476,.336-.896,.448-1.568-.42,.336-1.204,.56-3.304,.588q-.784,.028-.98-.812c-.14-.56-.28-1.036-.476-1.428-1.26,.644-2.437,1.176-3.612,1.652-.42,.168-.728,.308-.868,.448-.14,.112-.308,.196-.42,.196-.14,0-.28-.084-.364-.336-.252-.672-.476-1.54-.699-2.408,.896-.14,1.54-.336,2.155-.532,1.484-.476,3.389-1.26,5.433-2.324-.028,.392-.028,1.092-.028,1.68,.028,.896,.028,.812-.784,1.232l-.252,.14c.477,.028,.868,.028,1.26,.028,.757,0,.952-.224,.952-.784v-5.796h-5.151c-2.24,0-2.969,.056-3.137,.056-.279,0-.308-.028-.308-.336v-1.904c0-.308,.028-.336,.308-.336,.168,0,.896,.056,3.137,.056h4.367c2.269,0,3.024-.056,3.192-.056,.28,0,.308,.028,.308,.336,0,.168-.056,.728-.056,2.072v3.668c0,1.008,.084,2.184,.084,2.884,0,.868-.14,1.456-.616,1.904,.925,.14,1.988,.308,2.744,.532,.225,.084,.364,.196,.364,.364,0,.224-.112,.336-.308,.476-.196,.14-.337,.336-.448,.56l-.196,.308h4.032c2.744,0,3.696-.056,3.892-.056,.28,0,.309,.028,.309,.336,0,.168-.057,.952-.057,3.136v2.884c0,4.144,.057,4.928,.057,5.096,0,.28-.028,.308-.309,.308h-2.24c-.308,0-.336-.028-.336-.308v-.728h-11.983v.868c0,.28-.028,.308-.309,.308h-2.296c-.279,0-.308-.028-.308-.308,0-.196,.056-.952,.056-5.18v-2.548c0-2.576-.056-3.36-.056-3.528,0-.308,.028-.336,.308-.336,.196,0,1.148,.056,3.893,.056h2.38Zm-7.729-10.08c.225-.196,.309-.224,.561-.112,1.092,.448,2.184,1.064,3.22,1.82,.112,.084,.196,.168,.196,.252,0,.056-.057,.14-.196,.28l-1.288,1.148c-.308,.28-.336,.336-.588,.14-.952-.784-2.016-1.428-3.08-1.96-.252-.112-.224-.196,.028-.448l1.147-1.12Zm4.061,14.224h11.983v-1.848h-11.983v1.848Zm11.983,4.228v-2.072h-11.983v2.072h11.983Zm5.376-15.4c0,1.008,.057,2.184,.057,2.884,0,.924-.141,1.512-.7,1.988-.476,.364-1.288,.56-3.36,.616q-.783,.028-.952-.728c-.14-.672-.336-1.176-.56-1.624-1.063,.504-2.072,.924-3.136,1.372-.477,.196-.756,.28-.924,.392-.196,.084-.336,.224-.477,.224-.168,0-.28-.112-.364-.308-.224-.728-.42-1.4-.644-2.38,.924-.14,1.512-.252,2.24-.476,1.456-.476,2.912-1.12,4.983-2.184-.027,.392-.056,1.148-.027,1.708,.027,.896,0,.84-.812,1.232l-.504,.252c.561,.056,1.064,.056,1.484,.056,.812,0,1.036-.224,1.036-.784v-5.796h-5.124c-2.269,0-2.969,.056-3.137,.056-.279,0-.308-.028-.308-.336v-1.904c0-.308,.028-.336,.308-.336,.168,0,.868,.056,3.137,.056h4.312c2.269,0,3.052-.056,3.22-.056,.28,0,.309,.028,.309,.336,0,.168-.057,.728-.057,2.072v3.668Zm-9.268-3.024c.252-.224,.364-.224,.616-.14,1.063,.476,2.212,1.176,3.191,1.932,.112,.084,.196,.168,.196,.224,0,.084-.056,.168-.196,.28l-1.372,1.176c-.308,.252-.336,.28-.56,.112-.924-.84-1.904-1.484-3.052-2.1-.252-.14-.28-.196,0-.476l1.176-1.008Z" style="fill:none; stroke:#fff; stroke-miterlimit:10; stroke-width:.5px;"/><path d="M239.799,34.774c0-1.54-.056-2.408-.224-3.416,1.063,.028,2.128,.084,3.08,.196,.252,.028,.448,.14,.448,.28,0,.224-.057,.392-.141,.588-.14,.364-.195,.98-.195,2.296v.924h4.928c2.716,0,3.668-.056,3.836-.056,.28,0,.308,.028,.308,.308,0,.168-.056,1.204-.056,4.312v4.088c0,5.208,.056,6.188,.056,6.356,0,.28-.027,.308-.308,.308h-2.353c-.279,0-.308-.028-.308-.308v-.952h-6.104v1.82c0,3.332,.027,5.04,.027,5.18,0,.28-.027,.308-.28,.308h-2.491c-.252,0-.28-.028-.28-.308,0-.168,.056-1.848,.056-5.152v-1.848h-5.907v1.064c0,.28-.028,.308-.309,.308h-2.352c-.28,0-.309-.028-.309-.308,0-.168,.057-1.148,.057-6.384v-3.64c0-3.64-.057-4.648-.057-4.844,0-.28,.028-.308,.309-.308,.195,0,1.147,.056,3.836,.056h4.731v-.868Zm-5.907,6.552h5.907v-3.136h-5.907v3.136Zm5.907,5.824v-3.332h-5.907v3.332h5.907Zm2.969-8.96v3.136h6.104v-3.136h-6.104Zm6.104,8.96v-3.332h-6.104v3.332h6.104Z" style="fill:none; stroke:#fff; stroke-miterlimit:10; stroke-width:.5px;"/><path d="M268.08,50.79c.588,1.148,1.147,1.848,2.296,2.324,.979,.392,2.744,.56,5.18,.56,3.612,0,7.868-.196,12.04-.616-.392,.588-.644,1.344-.756,2.184q-.14,.896-1.036,.952c-3.556,.196-6.888,.28-9.8,.28-2.884,0-5.208-.252-6.552-.812-1.288-.532-2.044-1.316-2.744-2.492-.868,.84-1.848,1.68-2.884,2.464-.28,.224-.448,.392-.561,.56-.14,.196-.252,.28-.42,.28-.112,0-.28-.14-.392-.364-.393-.728-.756-1.624-1.148-2.632,.729-.336,1.12-.532,1.652-.868,.812-.504,1.624-1.148,2.352-1.792v-6.188h-1.372c-1.512,0-1.903,.056-2.044,.056-.308,0-.336-.028-.336-.336v-2.156c0-.28,.028-.308,.336-.308,.141,0,.532,.056,2.044,.056h1.792c1.484,0,1.933-.056,2.101-.056,.279,0,.308,.028,.308,.308,0,.168-.056,.952-.056,2.66v5.936Zm-1.736-12.544c-.196,.14-.28,.196-.364,.196s-.14-.056-.224-.196c-1.036-1.68-2.184-3.192-3.444-4.368-.224-.196-.168-.28,.141-.476l1.567-1.036c.309-.196,.364-.224,.588-.028,1.288,1.204,2.492,2.576,3.5,4.172,.169,.252,.169,.308-.14,.532l-1.624,1.204Zm9.912-5.376c1.288,0,2.184-.056,2.548-.056,.196,0,.28,.14,.28,.308,0,.644-.028,2.212,.336,4.116,.812,4.648,3.556,9.072,7.868,11.816-.477,.532-1.092,1.372-1.484,2.184-.224,.42-.336,.616-.504,.616-.14,0-.336-.112-.616-.364-3.416-2.744-5.712-6.44-6.804-10.64-1.064,4.256-3.136,7.588-6.384,10.416-.309,.252-.477,.392-.616,.392s-.28-.168-.588-.532c-.588-.784-1.176-1.288-1.736-1.652,4.48-3.136,7-7.504,7.645-13.888h-2.437c-1.735,0-2.24,.056-2.408,.056-.308,0-.336-.028-.336-.336v-2.184c0-.28,.028-.308,.336-.308,.168,0,.673,.056,2.408,.056h2.492Z" style="fill:none; stroke:#fff; stroke-miterlimit:10; stroke-width:.5px;"/><path d="M312.683,40.766c.056-.616,.056-1.148-.028-1.904,1.456,.364,2.576,.784,3.248,1.204,.252,.14,.392,.504,.196,.756-.168,.364-.364,.672-.448,1.092-.225,1.176-.504,2.408-.784,3.612,1.596,.812,3.332,1.904,4.368,2.688,.28,.168,.252,.308,.168,.588-.28,.672-.868,1.848-1.204,2.408-.084,.14-.168,.196-.252,.196-.112,0-.224-.084-.336-.196-1.232-1.064-2.353-1.876-3.668-2.632-1.428,3.22-2.94,5.264-5.656,7.364-.252,.196-.392,.308-.56,.308-.112,0-.225-.056-.42-.196-.756-.616-1.456-.896-2.437-1.148,3.5-2.436,5.208-4.76,6.272-7.588-1.54-.784-3.528-1.4-5.544-1.708-1.484,3.08-2.296,4.48-3.416,5.6-1.036,1.092-2.156,1.54-3.584,1.54-1.624,0-3.332-1.12-3.332-3.836,0-3.472,3.584-6.188,8.26-6.188,.924-2.324,1.624-4.284,2.324-6.636-1.54,.168-2.94,.336-3.864,.448-.392,.056-.812,.14-1.26,.308-.141,.056-.336,.112-.504,.112-.225,0-.364-.112-.448-.308-.252-.56-.532-1.652-.812-3.052,.841,.168,1.624,.196,2.465,.168,1.344,0,2.743-.14,4.34-.364,.699-.112,1.008-.252,1.372-.476,.111-.084,.252-.112,.363-.112,.141,0,.28,.028,.393,.112,.7,.42,1.372,.98,1.903,1.54,.168,.168,.252,.308,.252,.476s-.111,.308-.279,.476c-.42,.392-.532,.924-.756,1.456-.729,1.904-1.513,4.088-2.353,6.104,1.765,.224,3.416,.644,5.433,1.4,.279-1.288,.476-2.352,.588-3.612Zm-14.784,7.812c0,.896,.308,1.288,.979,1.288,.532,0,1.064-.364,1.624-1.064,.645-.812,1.316-1.932,2.044-3.416-2.855,.112-4.647,1.596-4.647,3.192Z" style="fill:none; stroke:#fff; stroke-miterlimit:10; stroke-width:.5px;"/><path d="M333.068,33.962c.308,.168,.42,.336,.42,.56,0,.196-.084,.392-.196,.616-.196,.336-.308,.728-.504,1.54-.924,4.228-1.4,8.148-1.4,10.192,0,1.12,0,2.408,.084,3.584,.561-1.288,1.148-2.492,1.736-3.892,.392,.896,.616,1.288,.979,1.764,.112,.14,.168,.252,.168,.392s-.056,.28-.168,.448c-.979,2.212-1.315,3.444-1.428,4.256-.112,.784-.056,1.204-.028,1.484,.028,.196-.084,.28-.336,.364-.531,.196-1.344,.364-2.1,.476-.308,.084-.42,.056-.56-.336-.784-1.988-1.204-5.32-1.204-8.54,0-2.688,.224-4.928,1.147-10.612,.141-.98,.309-2.184,.196-3.304,1.12,.28,2.632,.728,3.192,1.008Zm9.632,7.476c-1.904,.056-3.864,.112-5.769-.028-.363,0-.476-.084-.504-.364-.112-.672-.196-1.68-.196-2.548,2.101,.196,4.284,.224,6.385,.084,0-1.008-.028-1.904-.028-2.94-.028-1.008-.112-1.736-.364-2.744,1.624,.14,2.464,.252,3.389,.532,.308,.084,.504,.224,.504,.476,0,.14-.057,.224-.168,.476-.112,.252-.196,.616-.225,.98-.056,.952-.056,1.68-.056,2.968,1.315-.112,2.771-.308,3.976-.504,.336-.084,.393,.028,.448,.336,.112,.504,.168,1.4,.168,1.988,0,.252-.112,.392-.308,.42-1.009,.252-2.856,.476-4.312,.588,0,3.136,.057,5.096,.196,7.504,1.652,.672,3.08,1.456,4.647,2.688,.252,.168,.28,.252,.141,.56-.364,.728-.812,1.512-1.288,2.156-.084,.112-.168,.168-.252,.168s-.168-.056-.252-.14c-.868-.812-1.792-1.512-3.024-2.24-.224,2.352-1.819,3.64-5.124,3.64-3.22,0-5.012-1.512-5.012-3.92,0-2.296,2.072-3.948,4.9-3.948,.728,0,1.567,.084,2.239,.224-.056-2.156-.084-4.2-.111-6.412Zm-2.269,8.708c-1.315,0-2.1,.476-2.1,1.344s.616,1.4,2.268,1.4c1.4,0,2.296-.812,2.296-1.82,0-.196,0-.336-.027-.56-.896-.28-1.652-.364-2.437-.364Z" style="fill:none; stroke:#fff; stroke-miterlimit:10; stroke-width:.5px;"/><path d="M374.676,39.59h-9.772c-1.903,0-3.22,.056-4.199,.168-.309,0-.42-.14-.42-.476-.084-.756-.141-2.072-.141-2.996,1.681,.168,2.66,.196,4.676,.196h8.316c1.456,0,2.94-.056,4.424-.112,.448,0,.588,.112,.561,.476,0,1.484-.057,2.94-.057,4.424v6.692c0,2.044,.084,4.284,.112,5.068,0,.28-.112,.364-.504,.392-.784,.056-1.68,.056-2.464,0-.448-.028-.532-.056-.532-.476v-1.12h-9.632c-1.764,0-3.248,.084-4.592,.112-.252,0-.364-.112-.393-.42-.084-.728-.14-1.736-.14-2.912,1.315,.084,2.939,.14,5.151,.14h9.604v-9.156Z" style="fill:none; stroke:#fff; stroke-miterlimit:10; stroke-width:.5px;"/><path d="M398.701,41.97c0-.896-.028-2.016-.056-2.828-.028-.364-.057-.728-.141-1.288-1.848,.336-4.479,.756-6.636,.896-.42,.056-.588-.308-.7-.616-.279-.56-.672-1.148-1.428-1.932,3.5-.168,5.684-.532,8.316-1.036,1.932-.42,3.332-.728,4.619-1.204,1.316-.504,1.792-.784,2.408-1.26,.952,.7,1.849,1.4,2.296,1.96,.225,.224,.364,.476,.364,.784s-.28,.364-.728,.392c-.589,.084-1.177,.336-1.765,.476-1.708,.476-3.416,.896-5.067,1.232,.728,.084,1.372,.196,1.819,.364,.225,.056,.364,.196,.364,.392,0,.14-.084,.28-.168,.476-.112,.252-.168,.532-.196,.952-.027,.616-.027,1.26-.027,2.212h3.472c1.764,0,4.144-.14,5.404-.196,.279,0,.279,.14,.308,.448,.056,.728,.028,1.596,0,2.24-.028,.392-.028,.504-.364,.504-1.764-.056-3.388-.084-5.432-.084h-3.444c-.224,2.38-.615,4.06-1.399,5.628-.98,2.072-2.632,4.032-4.452,5.236-.168,.112-.308,.196-.477,.196-.14,0-.308-.056-.504-.168-1.008-.532-2.044-.868-2.968-1.064,2.8-1.652,4.088-3.08,5.236-5.18,.728-1.428,1.12-2.912,1.231-4.648h-4.983c-1.008,0-3.08,0-4.452,.112-.364,.028-.448-.196-.532-.644-.14-.532-.28-1.68-.28-2.548,1.988,.168,4.061,.196,5.433,.196h4.928Z" style="fill:none; stroke:#fff; stroke-miterlimit:10; stroke-width:.5px;"/><path d="M424.599,42.53c-1.4,0-2.8,.028-4.2,.112-.252,0-.364-.168-.42-.532-.168-.7-.224-1.736-.309-2.828,1.597,.168,3.305,.224,5.152,.224h9.604c.476,0,1.035-.056,1.483-.308,.141-.112,.252-.168,.364-.168,.14,0,.28,.084,.42,.196,.672,.532,1.428,1.232,1.876,1.736,.196,.196,.28,.392,.28,.588,0,.168-.084,.364-.309,.532-.447,.364-.644,.672-.952,1.316-2.8,5.964-6.02,9.464-11.424,12.376-.224,.112-.392,.196-.56,.196-.196,0-.392-.112-.616-.336-.756-.672-1.651-1.092-2.604-1.456,5.18-2.408,9.743-6.272,11.76-11.676l-9.548,.028Zm1.876-6.02c-1.26,0-2.66,.028-3.836,.112-.28,0-.364-.168-.393-.616-.084-.588-.14-1.82-.14-2.688,1.708,.168,2.548,.196,4.592,.196h5.04c1.82,0,3.304-.084,4.396-.14,.252,0,.336,.14,.336,.448,.056,.7,.056,1.484,0,2.184,0,.476-.084,.588-.504,.56-.925,0-2.24-.056-3.948-.056h-5.544Z" style="fill:none; stroke:#fff; stroke-miterlimit:10; stroke-width:.5px;"/></g></g><g><g><path d="M10.214,46.787c.054,.066,.097,.12,.138,.176,.426,.584,.505,1.352,.208,2.01-1.198,2.648-1.003,5.695,.524,8.15,2.521,4.052,7.868,5.298,11.92,2.777,4.051-2.52,5.297-7.867,2.776-11.919-2.172-3.492-6.543-4.976-10.392-3.528-.895,.337-1.904-.006-2.41-.818l-5.257-8.451c-.584-.939-1.823-1.228-2.762-.643s-1.228,1.824-.644,2.763l5.9,9.484Z" style="fill:#fff;"/><path d="M25.123,63.307c-5.93,3.689-13.757,1.866-17.447-4.064-2.035-3.27-2.457-7.254-1.198-10.863L.907,39.423c-1.753-2.818-.886-6.537,1.932-8.29,2.818-1.753,6.536-.887,8.289,1.931l4.448,7.149c5.204-1.203,10.729,1.015,13.611,5.647,3.689,5.93,1.867,13.757-4.063,17.446Zm-14.909-16.52c.054,.066,.097,.12,.138,.176,.426,.584,.505,1.352,.208,2.01-1.198,2.648-1.003,5.695,.524,8.15,2.521,4.052,7.868,5.298,11.92,2.777,4.051-2.52,5.297-7.867,2.776-11.919-2.172-3.492-6.543-4.976-10.392-3.528-.895,.337-1.904-.006-2.41-.818l-5.257-8.451c-.584-.939-1.823-1.228-2.762-.643s-1.228,1.824-.644,2.763l5.9,9.484Z" style="fill:#231815;"/><path d="M20.087,59.097l-3.278,2.039c-2.968,1.847-6.886,.934-8.733-2.035-1.847-2.968-.934-6.886,2.034-8.732l3.278-2.039c2.968-1.847,6.886-.934,8.732,2.034,1.847,2.969,.935,6.886-2.034,8.733Zm-7.857-5.321c-1.089,.678-1.424,2.116-.747,3.205s2.116,1.425,3.206,.747l3.278-2.039c1.089-.678,1.424-2.116,.746-3.206s-2.116-1.424-3.205-.747l-3.278,2.039Z" style="fill:#231815;"/></g><g><polygon points="74.433 46.363 74.51 47.045 74.443 47.724 74.229 48.387 74.365 49.087 74.228 49.756 74.044 50.414 74.212 51.153 73.768 51.746 73.309 52.314 73.732 53.177 72.913 53.6 72.691 54.237 72.655 54.966 72.691 55.755 71.745 56.021 71.505 56.662 71.527 57.486 70.729 57.77 70.284 58.28 70.042 58.951 69.457 59.344 69.206 60.032 68.646 60.439 68.366 61.134 67.924 61.676 66.986 61.623 66.745 62.416 66.015 62.574 65.592 63.164 65.079 63.64 64.565 64.134 63.644 63.868 63.094 64.279 62.575 64.78 61.792 64.664 61.258 65.164 60.588 65.304 60.01 65.754 59.308 65.779 58.604 65.743 57.995 66.18 57.341 66.463 56.589 65.92 55.944 66.329 55.27 66.64 54.576 66.605 53.89 66.41 53.219 66.165 52.51 66.427 51.857 66.113 51.198 65.931 50.515 65.881 49.85 65.736 49.153 65.698 48.572 65.263 47.877 65.198 47.278 64.855 46.696 64.493 46.093 64.19 45.195 64.456 44.632 64.038 44.352 63.169 43.734 62.886 42.883 62.921 42.577 62.18 42.12 61.667 41.415 61.451 40.99 60.904 40.389 60.544 40.032 59.941 39.236 59.734 39.295 58.79 38.675 58.417 38.236 57.893 37.669 57.449 37.687 56.629 36.944 56.274 36.705 55.62 36.418 54.996 36.537 54.197 35.776 53.776 35.722 53.064 35.207 52.51 35.667 51.662 35.043 51.123 34.672 50.499 34.776 49.778 34.837 49.078 34.418 48.436 34.936 47.709 34.413 47.053 34.356 46.363 34.473 45.675 34.864 45.012 34.91 44.337 34.898 43.654 35.087 42.998 34.655 42.218 35.351 41.672 35.337 40.966 35.709 40.369 35.66 39.634 35.865 38.978 35.993 38.285 36.136 37.587 37.135 37.32 37.445 36.725 37.213 35.798 37.977 35.47 38.102 34.728 38.939 34.5 39.105 33.77 39.459 33.175 40.034 32.776 40.664 32.444 40.825 31.633 41.682 31.568 41.749 30.59 42.432 30.342 42.934 29.863 43.709 29.788 44.142 29.198 44.904 29.154 45.533 28.904 45.923 28.163 46.739 28.314 47.379 28.108 47.896 27.566 48.526 27.298 49.101 26.822 49.757 26.586 50.537 26.929 51.149 26.49 51.895 26.869 52.521 26.384 53.182 26 53.887 26.22 54.576 26.026 55.27 26.105 55.953 26.267 56.649 26.237 57.335 26.32 57.923 26.986 58.595 27.053 59.33 26.878 59.89 27.42 60.558 27.534 61.187 27.78 61.82 28.01 62.619 27.86 63.042 28.573 63.826 28.523 64.338 29.011 65.043 29.161 65.517 29.691 66.175 29.939 66.873 30.155 67.156 30.908 67.559 31.481 68.43 31.536 68.679 32.267 68.956 32.94 69.605 33.264 70.328 33.553 70.596 34.22 70.802 34.915 71.232 35.443 71.507 36.071 72.049 36.542 72.442 37.109 72.994 37.607 73.293 38.235 73.412 38.936 73.32 39.702 73.697 40.294 74.148 40.879 74.313 41.553 74.432 42.237 74.249 42.97 74.485 43.625 74.71 44.292 74.189 45.019 74.496 45.681 74.433 46.363" style="fill:#ed6c00;"/><g><circle cx="46.699" cy="38.916" r="2.376" style="fill:#fff;"/><circle cx="61.092" cy="38.916" r="2.376" style="fill:#fff;"/><path d="M54.278,50.787h-4.344c-.944,0-1.591-.951-1.244-1.829l3.705-9.378c.109-.275,.419-.41,.694-.301l1.049,.415c.275,.109,.41,.419,.301,.694l-2.662,6.738c-.277,.702,.24,1.463,.995,1.463h1.504c.295,0,.535,.24,.535,.535v1.128c0,.295-.24,.535-.535,.535Z" style="fill:#fff;"/><path d="M51.702,59.013c-.567,0-1.147-.022-1.741-.065-.299-.022-.527-.292-.498-.591l.142-1.491c.028-.289,.286-.497,.575-.476,4.091,.297,7.408-.572,9.621-2.518,2.067-1.817,3.221-4.554,3.436-8.139,.017-.29,.256-.519,.547-.509l1.496,.05c.3,.01,.54,.271,.523,.571-.248,4.313-1.695,7.659-4.305,9.954-2.41,2.12-5.767,3.214-9.796,3.214Z" style="fill:#fff;"/></g></g></g></g></g></svg>