<?xml version="1.0" encoding="utf-8"?><svg id="loading" image-rendering="auto" baseProfile="basic" version="1.1" x="0px" y="0px" width="120" height="140" xmlns="http://www.w3.org/2000/svg" xmlns:xlink="http://www.w3.org/1999/xlink"><g id=".__E3.__82.__B7.__E3.__83.__BC.__E3.__83.__B3-1" overflow="visible"><g display="none"><g id="1.ai" transform="translate(34.85 44.95)"><animateTransform attributeName="transform" additive="replace" type="translate" repeatCount="indefinite" dur="6.633s" keyTimes="0;.799;.804;.809;.814;.819;.824;.829;.834;.839;.844;.849;.854;.859;.864;.869;.874;.879;.884;.889;.895;.9;.905;.91;.915;.92;.925;.93;.935;.94;.945;.95;1" values="60,70.05;60,70.05;60.052,70.101;60.055,70.102;60.004,70.104;60.005,70.105;60.064,70.099;60.067,70.108;60.07,70.049;60.011,70.049;60.013,70.113;60.079,70.164;60.054,70.14;60.079,70.115;60.053,70.14;60.028,70.178;60.053,70.08;60.028,70.117;60.042,70.082;60.018,70.058;60.102,70.093;60.019,70.06;60.044,70.036;60.02,70.062;60.045,70.095;60.02,70.07;60.051,70.096;60.076,70.071;60.05,70.042;60.075,70.122;59.997,70.147;60.075,70.123;60.075,70.123"/><animateTransform attributeName="transform" additive="sum" type="scale" repeatCount="indefinite" dur="6.633s" keyTimes="0;.799;.804;.809;.814;.819;.824;.829;.834;.839;.844;.849;.854;.859;.864;.869;.874;.879;.884;.889;.895;.9;.905;.91;.915;.92;.925;.93;.935;.94;.945;.95;1" values="1,1;1,1;1.03,1.03;1.06,1.06;1.089,1.089;1.119,1.119;1.149,1.149;1.179,1.179;1.209,1.209;1.239,1.239;1.268,1.268;1.298,1.298;1.285,1.285;1.272,1.272;1.26,1.26;1.247,1.247;1.234,1.234;1.221,1.221;1.208,1.208;1.195,1.195;1.182,1.182;1.169,1.169;1.157,1.157;1.144,1.144;1.131,1.131;1.118,1.118;1.105,1.105;1.092,1.092;1.079,1.079;1.066,1.066;1.053,1.053;1.041,1.041;1.041,1.041"/><animateTransform attributeName="transform" additive="sum" type="translate" repeatCount="indefinite" dur="6.633s" keyTimes="0;.799;.804;.809;.814;.819;.824;.829;.834;.839;.844;.849;.864;.869;.874;.879;.884;.889;.895;.9;.91;.915;.92;.925;.93;.935;.94;.945;.95;1" values="-25.15,-25.1;-25.15,-25.1;-25.25,-25.2;-25.25,-25.2;-25.2,-25.2;-25.2,-25.2;-25.25,-25.15;-25.25,-25.2;-25.25,-25.15;-25.2,-25.15;-25.2,-25.2;-25.25,-25.2;-25.25,-25.2;-25.25,-25.25;-25.25,-25.15;-25.25,-25.2;-25.2,-25.15;-25.2,-25.15;-25.25,-25.2;-25.2,-25.15;-25.2,-25.15;-25.2,-25.2;-25.2,-25.2;-25.25,-25.2;-25.25,-25.2;-25.25,-25.15;-25.25,-25.2;-25.2,-25.2;-25.25,-25.2;-25.25,-25.2"/><path fill="#D42D40" stroke="none" d="M41.8 6.15L41.05 5.7 40.2 5.45 39.4 5.1 38.7 4.6 38.1 4 37.15 3.95 36.75 2.95 35.1 2.5 34.35 2.1 33.65 1.55 32.65 1.85 32.05 .8 31.2 .75 30.25 1 29.45 .85 28.65 .2 27.8 .4 26.9 .8 26.1 .15 25.25 0 24.4 .4 23.55 .25 22.75 .85 21.8 .2 21.05 .9 20.2 .85 18.65 1.55 17.7 1.3 16.25 2.4 15.35 2.35 14.45 2.45 13.75 2.95 12.5 4.15 11.5 4.15 11 4.95 10 5.05 9.65 6 9 6.5 8.4 7.1 7.7 7.6 7.2 8.3 6.85 9.1 5.85 9.35 5.15 9.9 4.75 10.7 4.7 11.7 4.4 12.5 4 13.2 3.4 13.8 2.6 14.4 2.6 15.3 2.4 16.15 1.45 16.7 1.15 17.5 1.8 18.55 .85 19.2 .6 20 .7 20.9 .95 21.8 .85 22.65 .1 23.45 0 24.3 .45 25.15 .15 26 .1 26.85 .85 27.65 .55 28.55 .45 29.45 .65 30.25 1.55 30.95 1.5 31.8 2.15 33.35 2.6 34.05 2.6 35 2.8 36.75 4 37.1 4.45 37.8 5.05 39.4 5.6 40.05 6.35 40.5 6.9 41.1 7.55 42.85 8.25 43.3 8.65 44.15 9.5 44.45 10.45 44.65 11.2 45.05 12.55 46 13.1 46.7 14 46.85 14.6 47.55 15.5 47.6 16.25 47.95 16.8 48.95 17.8 48.55 18.65 48.65 19.35 49.35 20.1 49.8 21.05 49.55 21.85 49.8 22.65 50.2 23.55 49.5 24.4 49.95 25.25 50.25 26.1 50 29.5 49.9 30.2 49.05 31.1 49.1 32.6 48.4 33.65 48.75 34.35 48.2 35.3 48.3 36.75 47.35 37.6 47.15 38.1 46.3 38.9 45.95 39.45 45.25 40.2 44.9 40.85 44.35 41.85 44.2 42.1 43.2 42.55 42.45 43.55 42.25 44.3 41.75 44.2 40.6 45.2 40.3 45.5 39.45 45.9 38.7 46.65 38.2 47.15 37.5 47.45 36.65 48.1 36 47.85 34.95 48.55 34.35 48.6 33.45 48.4 32.5 49.2 31 49.45 30.2 49.6 29.35 49.55 28.5 50.35 27.75 49.65 26.8 50 26 49.85 25.15 50.2 24.3 50.1 23.45 50.25 22.6 49.4 21.8 49.9 20.9 49.25 20.15 48.9 19.4 48.9 17.65 48.25 16.95 48.2 16.1 47.9 15.3 47.25 14.7 46.6 13.15 46.1 12.5 46.1 11.45 45.35 10.95 45.35 9.9 44.2 9.75 43.75 9.05 43.4 8.2 42.55 7.85 42 7.2 41.8 6.15M23.55 16.75Q23.7 16.15 24.4 16.35L25.7 16.9Q25.95 17 26.05 17.25 26.15 17.5 26.05 17.75L22.75 26.1Q22.5 26.75 22.9 27.3 23.3 27.9 24 27.9L25.85 27.9Q26.55 27.9 26.55 28.55L26.55 29.95Q26.55 30.65 25.85 30.65L20.5 30.65Q19.6 30.65 19.1 29.9 18.6 29.2 18.95 28.35L23.55 16.75M38.4 15.6L35.45 17.1Q35.25 17.2 35.25 17.4 35.25 17.6 35.45 17.65L38.4 19.15Q38.9 19.4 38.65 20L38.15 20.95Q37.9 21.5 37.3 21.25L30.75 17.9Q30.4 17.75 30.4 17.35 30.4 17 30.75 16.8L37.3 13.5Q37.85 13.2 38.15 13.75L38.65 14.75Q38.95 15.35 38.4 15.6M19 17.35Q19 17.75 18.65 17.9L12.1 21.25Q11.5 21.55 11.25 20.95L10.75 20Q10.5 19.4 11.05 19.15L14 17.65Q14.15 17.6 14.15 17.4 14.15 17.2 14 17.1L11.05 15.6Q10.45 15.35 10.75 14.75L11.25 13.75Q11.35 13.5 11.6 13.45 11.9 13.35 12.1 13.5L18.65 16.8Q19 17 19 17.35M16 31.85Q16.4 33.65 19 35.05 21.75 36.6 25.25 36.6 28.75 36.6 31.5 35.05 34.1 33.65 34.5 31.85 34.6 31.15 35.35 31.15L36.55 31.15Q36.9 31.15 37.25 31.5 37.55 31.85 37.45 32.25 37.1 34.45 34.95 36.25 32.9 38 29.85 38.9L29.85 40.25Q29.85 42.15 28.5 43.45 27.2 44.8 25.3 44.8 23.45 44.8 22.1 43.45 20.75 42.15 20.75 40.25L20.75 38.95Q17.65 38.05 15.55 36.3 13.4 34.45 13.05 32.25 12.95 31.8 13.25 31.5 13.6 31.15 13.95 31.15L15.15 31.15Q15.85 31.15 16 31.85Z"/></g><animate attributeName="display" repeatCount="indefinite" dur="6.633s" keyTimes="0;.799;1" values="none;inline;inline"/></g><g display="none"><g id="2.ai" transform="translate(34.8 21.6)"><animateTransform attributeName="transform" additive="replace" type="translate" repeatCount="indefinite" dur="6.633s" keyTimes="0;.598;.603;.608;.613;.618;.623;.628;.633;.638;.643;.648;.653;.658;.663;.668;.673;.678;.683;.688;.694;.699;.704;.709;.714;.719;.724;.729;.734;.739;.744;.749;1" values="60,58;60,58;59,58.1;60.103,57;60,57;60.054,58.106;60.105,57;60.001,58.054;60.113,58.055;60.001,57;60.06,58.057;60.052,58.049;60.083,58.043;60.056,58.046;60.078,57.981;59.994,57.976;60.131,58.027;60.046,58.021;60.019,58.066;60.091,58.116;60.008,58.053;60.086,58.048;60.059,57.986;60.081,58.035;60.108,58.029;60.026,58.073;60.049,58.067;60.021,58.061;60.094,58.055;60.066,58.049;59.987,58.043;60.061,58.037;60.061,58.037"/><animateTransform attributeName="transform" additive="sum" type="scale" repeatCount="indefinite" dur="6.633s" keyTimes="0;.598;.603;.608;.613;.618;.623;.628;.633;.638;.643;.648;.653;.658;.663;.668;.673;.678;.683;.688;.694;.699;.704;.709;.714;.719;.724;.729;.734;.739;.744;.749;1" values="1,1;1,1;1.018,1.018;1.036,1.036;1.053,1.053;1.071,1.071;1.089,1.089;1.107,1.107;1.125,1.125;1.143,1.143;1.16,1.16;1.178,1.178;1.171,1.171;1.164,1.164;1.157,1.157;1.15,1.15;1.143,1.143;1.136,1.136;1.129,1.129;1.122,1.122;1.115,1.115;1.108,1.108;1.101,1.101;1.094,1.094;1.087,1.087;1.08,1.08;1.073,1.073;1.066,1.066;1.059,1.059;1.052,1.052;1.045,1.045;1.038,1.038;1.038,1.038"/><animateTransform attributeName="transform" additive="sum" type="translate" repeatCount="indefinite" dur="6.633s" keyTimes="0;.598;.603;.608;.613;.618;.623;.628;.633;.638;.643;.648;.653;.658;.663;.668;.673;.678;.683;.688;.694;.699;.704;.709;.714;.719;.739;.744;.749;1" values="-25.2,-36.4;-25.2,-36.4;-25.25,-36.55;-25.35,-36.45;-25.25,-36.45;-25.3,-36.55;-25.3,-36.45;-25.25,-36.5;-25.35,-36.5;-25.25,-36.45;-25.3,-36.5;-25.25,-36.45;-25.3,-36.45;-25.3,-36.5;-25.3,-36.45;-25.25,-36.45;-25.35,-36.5;-25.3,-36.5;-25.3,-36.5;-25.3,-36.55;-25.25,-36.5;-25.3,-36.5;-25.3,-36.45;-25.3,-36.5;-25.35,-36.5;-25.3,-36.5;-25.3,-36.5;-25.25,-36.5;-25.3,-36.5;-25.3,-36.5"/><path fill="#4AA34A" stroke="none" d="M34.15 34.65Q32.45 34.65 31.25 35.85 30.05 37.1 30.05 38.8 30.05 40.5 31.25 41.7 32.45 42.9 34.15 42.9 35.85 42.9 37.1 41.7 38.3 40.5 38.3 38.8 38.3 37.1 37.1 35.85 35.9 34.65 34.15 34.65M34.15 40.5Q33.5 40.5 32.95 40 32.45 39.5 32.45 38.8 32.45 38.1 32.95 37.6 33.45 37.1 34.15 37.1 34.85 37.1 35.35 37.6 35.85 38.1 35.85 38.8 35.85 39.5 35.35 40 34.85 40.5 34.15 40.5Z"/><path fill="#4AA34A" stroke="none" d="M46.25 2.5Q44.75 1.45 42.5 .75 38 -.65 33.4 .6 28.5 1.85 25.2 6.25 21.9 1.85 16.95 .6 12.35 -.65 7.9 .75 5.65 1.45 4.15 2.5L2.95 3.35 3.45 4.75Q4.15 6.75 5.65 8.8 8.65 12.95 13.2 14.5 15.45 15.15 17.5 15.15 20.25 15.15 22.7 14.1L22.7 23.25 21.8 22.9 20.9 22.75 20.15 23.45 19.35 23.65 18.5 23.7 17.75 24.1 16.75 23.85 15.2 24.6 14.55 25.25 13.85 25.75 12.35 26.4 10.9 27.3 9.75 28.6 8.95 28.95 7.95 29.15 8 30.4 6.9 30.5 6.85 31.55 5.75 31.8 5.65 32.75 4.65 33.05 4.4 33.95 4.05 34.75 3.9 35.6 2.75 35.95 3.15 37.1 2.4 37.65 2.1 38.5 1.65 39.2 1.8 40.15 1.5 40.95 .7 41.6 1 44.25 .5 45.05 .25 45.9 .25 46.75 .4 47.6 .85 48.4 0 49.3 .55 50.1 .75 50.95 1.15 51.75 .8 52.65 .6 53.6 1.75 55.05 2.1 55.8 1.95 56.75 2.25 57.55 3.15 58.05 3.05 59.05 4.15 60.4 4.15 61.4 4.6 62.1 5.65 62.4 6.2 63.05 6.55 63.8 7.2 64.4 7.95 64.85 8.05 65.95 9 66.15 9.25 67.2 10.3 67.2 11.05 67.65 11.45 68.55 12.4 68.6 12.8 69.6 13.95 69.3 14.6 69.8 15.25 70.45 16 70.8 16.7 71.4 17.75 71 18.5 71.35 19.4 71.3 20.95 72.05 21.8 72.2 22.6 72.6 24.35 71.95 25.2 72.85 26 71.9 26.9 72.7 27.75 72.55 28.5 71.75 29.5 72.45 30.15 71.45 31.05 71.6 31.75 71.05 32.85 71.7 33.65 71.4 34.2 70.4 35.1 70.45 36.4 69.25 37.4 69.3 38.3 69.15 39.45 67.8 40.2 67.4 40.65 66.6 41.45 66.25 41.9 65.45 43 65.4 43.3 64.5 44.75 63.5 45.15 62.7 45.75 62.1 46.25 61.4 46.3 60.4 46.6 59.65 46.8 58.8 47.6 58.25 48 56.6 48.8 56 48.6 54.15 49.1 53.4 49.2 52.6 49.5 51.8 49.65 50.95 50.3 50.15 50.2 49.3 50.4 48.45 49.95 47.6 50.2 46.75 50.05 45.9 49.4 44.25 49.6 43.4 49.05 41.8 49.4 40.8 48.75 40.1 48.8 39.2 48.45 38.45 48.2 37.6 46.8 36.4 46.8 35.45 46.25 34.8 46.35 33.75 45.35 33.35 43.9 31.3 43.7 30.35 42.7 30.05 42.25 29.35 41.65 28.75 41.15 28 40.3 27.65 39.3 27.6 38.75 26.95 38.25 26.15 35.95 24.95 35.25 24.45 34.2 24.7 33.35 24.65 32.65 24.15 31.85 23.95 31 23.9 30.2 23.6 29.45 23.05 28.5 23.4 27.75 22.65 27.7 22.65 27.7 14.1Q30.25 15.1 32.9 15.1 35.25 15.1 37.25 14.45 41.75 12.95 44.75 8.8 46.3 6.75 46.95 4.75L47.4 3.35 46.25 2.5M36.05 10.7Q31.45 12.05 27.7 9.65 30.15 5.55 34.45 4.4 38.65 3.25 42.5 4.95 40.15 9.3 36.05 10.7M14.4 10.7Q10.25 9.3 7.9 4.95 11.75 3.25 15.95 4.4 20.25 5.55 22.7 9.65 18.95 12.05 14.4 10.7M15.45 35.4Q16.65 35.4 17.55 36.3 18.4 37.15 18.4 38.35 18.4 39.6 17.55 40.45 16.65 41.3 15.45 41.3 14.2 41.3 13.35 40.45 12.5 39.6 12.5 38.35 12.5 37.15 13.35 36.3 14.2 35.4 15.45 35.4M34.1 32.7Q36.65 32.7 38.45 34.5 40.2 36.25 40.2 38.8 40.2 41.3 38.45 43.1 36.65 44.9 34.1 44.9 31.6 44.9 29.8 43.1 28 41.3 28 38.8 28 36.25 29.8 34.5 31.6 32.7 34.1 32.7M22.5 39.2Q22.75 38.65 23.35 38.8L24.65 39.35Q24.9 39.45 25 39.7 25.1 39.95 25 40.2L21.75 48.55Q21.5 49.2 21.85 49.75 22.25 50.35 22.95 50.35L24.8 50.35Q25.5 50.35 25.5 51L25.5 52.4Q25.5 53.05 24.8 53.05L19.45 53.05Q18.55 53.05 18.05 52.35 17.55 51.65 17.9 50.8L22.5 39.2M22.4 58.6Q23.55 57.2 25.15 57.2 26.75 57.2 27.9 58.6 29.05 60 29.05 61.95 29.05 63.95 27.9 65.3 26.75 66.7 25.15 66.7 23.55 66.7 22.4 65.3 21.25 63.95 21.25 61.95 21.25 60 22.4 58.6Z"/></g><animate attributeName="display" repeatCount="indefinite" dur="6.633s" keyTimes="0;.598;.799;1" values="none;inline;none;none"/></g><g display="none"><g id="3.ai" transform="translate(12.85 19.1)"><animateTransform attributeName="transform" additive="replace" type="translate" repeatCount="indefinite" dur="6.633s" keyTimes="0;.397;.402;.407;.412;.417;.422;.427;.432;.437;.442;.447;.452;.457;.462;.467;.472;.477;.482;.487;.492;.498;.503;.508;.513;.518;.523;.528;.533;.538;.543;.548;1" values="49,57.05;49,57.05;48.997,57.1;49.047,57.102;49.047,57.103;48.99,57.104;49.095,57.106;49.045,57.049;49.094,57.109;49.093,57.048;48.979,57.048;49.092,57.113;49.083,57.129;49.013,57.096;49.067,57.112;49.059,57.067;49.101,57.096;49.042,57.112;49.024,57.069;49.076,57.095;49.018,57.112;49.06,57.071;49.051,57.095;49.093,57.111;49.035,57.078;49.026,57.094;49.068,57.056;49.06,57.077;48,57.094;49.044,57.058;49.086,57.077;49.077,57.093;49.077,57.093"/><animateTransform attributeName="transform" additive="sum" type="scale" repeatCount="indefinite" dur="6.633s" keyTimes="0;.397;.402;.407;.412;.417;.422;.427;.432;.437;.442;.447;.452;.457;.462;.467;.472;.477;.482;.487;.492;.498;.503;.508;.513;.518;.523;.528;.533;.538;.543;.548;1" values="1,1;1,1;1.029,1.029;1.058,1.058;1.087,1.087;1.116,1.116;1.145,1.145;1.174,1.174;1.203,1.203;1.232,1.232;1.26,1.26;1.289,1.289;1.275,1.275;1.261,1.261;1.247,1.247;1.233,1.233;1.219,1.219;1.205,1.205;1.191,1.191;1.177,1.177;1.163,1.163;1.149,1.149;1.135,1.135;1.121,1.121;1.107,1.107;1.093,1.093;1.079,1.079;1.065,1.065;1.051,1.051;1.037,1.037;1.023,1.023;1.009,1.009;1.009,1.009"/><animateTransform attributeName="transform" additive="sum" type="translate" repeatCount="indefinite" dur="6.633s" keyTimes="0;.397;.402;.407;.412;.417;.422;.427;.432;.437;.442;.447;.452;.457;.462;.467;.472;.477;.482;.487;.492;.498;.503;.518;.523;.528;.533;.538;.543;.548;1" values="-36.15,-37.95;-36.15,-37.95;-36.2,-38.05;-36.25,-38.05;-36.25,-38.05;-36.2,-38.05;-36.25,-38.05;-36.25,-38;-36.25,-38.05;-36.25,-38;-36.2,-38;-36.25,-38.05;-36.25,-38.05;-36.2,-38.05;-36.25,-38.05;-36.25,-38;-36.25,-38.05;-36.25,-38.05;-36.2,-38;-36.25,-38.05;-36.25,-38.05;-36.25,-38;-36.25,-38.05;-36.25,-38.05;-36.25,-38;-36.25,-38.05;-36.2,-38.05;-36.25,-38;-36.3,-38.05;-36.25,-38.05;-36.25,-38.05"/><path fill="#A7267E" stroke="none" d="M21.45 18Q22.7 16.75 22.7 14.95L22.7 0 5.3 4.5 5.3 14.45 4.3 14.35Q2.55 14.35 1.25 15.6 0 16.85 0 18.6 0 20.4 1.25 21.65 2.55 22.9 4.3 22.9 6.1 22.9 7.35 21.65 8.6 20.4 8.6 18.6L8.6 7.05 19.35 4.25 19.35 10.8 18.4 10.7Q16.6 10.7 15.35 11.95 14.1 13.2 14.1 14.95 14.1 16.75 15.35 18 16.6 19.25 18.4 19.25 20.15 19.25 21.45 18Z"/><path fill="#A7267E" stroke="none" d="M15.55 29.95Q16.3 32.3 17.15 33.5 18.55 35.45 21.35 36.45L22.45 33.3Q20.65 32.7 19.85 31.55 19.3 30.8 18.75 28.95 17.95 26.5 17.15 25.4 15.7 23.4 12.95 22.45L11.85 25.55Q13.65 26.2 14.45 27.35 15 28.1 15.55 29.95Z"/><path fill="#A7267E" stroke="none" d="M57.05 28.1L56.4 27.55 55.45 27.7 54.65 27.45 54 26.5 53.05 26.85 52.15 26.95 51.45 26.15 50.6 26.15 49.7 26.4 48.9 26.05 48.05 25.95 47.2 26.4 46.35 26 44.7 26.6 43.9 26.65 42.9 26.05 42.2 26.7 41.35 26.75 40.4 26.65 39.6 26.95 39.05 27.85 38 27.55 37.2 27.8 36.7 28.75 34.95 29.05 34.5 29.95 33.5 29.9 32.9 30.6 32.45 31.4 31.45 31.45 30.6 31.75 30.2 32.6 29.3 32.95 29 33.85 28.25 34.3 27.7 34.95 27.45 35.85 26.9 36.5 26.85 37.45 25.75 37.75 25.3 38.5 25.05 39.3 24.6 40.05 24.05 40.75 24.4 41.8 23.85 42.5 23.65 43.35 23.65 44.2 23.3 45 23.15 45.8 22.25 46.5 23.1 47.5 22.9 48.3 22.8 49.15 22.45 49.95 22.1 51.65 22.4 52.5 22.9 53.3 23.15 54.95 22.75 56.75 23.2 57.55 24.15 59.9 24.65 60.6 24.55 61.6 24.75 62.45 25.6 62.95 26 63.7 27.55 65.7 28.8 66.85 28.8 68 30.4 68.75 30.9 69.5 31.8 69.75 32.4 70.35 32.8 71.2 33.6 71.55 34.2 72.15 35.1 72.3 35.6 73.2 36.6 73.05 37.5 73.15 38.95 74.05 39.6 74.7 41.4 74.5 42.05 75.45 42.9 75.75 43.9 74.9 45.45 75.95 46.35 75.35 47.2 75.85 48.05 75.9 48.9 75.8 49.7 75.1 50.65 75.85 51.5 75.75 52.95 74.45 54.55 74.05 55.4 73.95 56.25 73.7 57 73.35 57.65 72.85 58.4 72.5 59.4 72.5 60.25 72.25 60.8 71.6 61.65 71.3 62.35 70.85 63.45 69.5 64.45 69.3 65 68.65 65.65 66.95 66.65 66.65 67.15 65.95 67.75 65.3 67.6 64.2 68.55 63.8 68.95 63.05 69.6 62.4 69.4 61.35 70.15 60.8 70 59.8 70.85 59.25 70.8 58.3 71.25 57.55 71.15 56.65 71.8 55.95 71.4 55 71.8 54.2 72 53.35 71.85 52.5 72.2 51.65 71.6 50.8 72.35 49.95 71.7 49.15 72.35 48.25 72.05 47.4 71.95 46.55 71.15 45.85 71.05 45 71.35 44.05 71.2 43.2 70.6 42.5 69.85 41 69.55 40.2 69.4 39.3 68.9 38.6 68.8 37.7 67.85 37.3 67.1 36.75 66.55 36.15 65.75 34.65 65.2 34 64.4 33.65 64.4 32.4 62.75 31.7 61.5 30.55 61.05 29.75 60.05 29.75 59.35 29.25 58.45 29.15 58.05 28.05 57.05 28.1M40.75 39.4Q41.1 39.4 41.3 39.6 41.55 39.8 41.5 40.05 41.25 41.55 40 42.55 38.75 43.55 37.05 43.55 35.35 43.55 34.1 42.55 32.85 41.55 32.6 40.05 32.55 39.8 32.75 39.6 33 39.4 33.35 39.4L34.5 39.4Q35.1 39.4 35.2 39.85 35.35 40.55 35.85 41.05 36.4 41.5 37.05 41.5 37.7 41.5 38.2 41.05 38.7 40.55 38.85 39.85 39.05 39.4 39.6 39.4L40.75 39.4M43.4 47.7Q43.55 48.45 44.05 49 44.85 49.95 46.15 50.35 46.7 50.5 46.6 51.1L46.4 52.05Q46.2 52.8 45.5 52.55 43.55 51.9 42.35 50.35 41.55 49.35 41.35 48.15 41.1 46.7 41.7 45.55 42.45 44.35 43.8 43.95 45 43.65 46.25 44 47.8 44.5 49.25 46.75 49.5 47.1 49.25 47.2L48.55 47.55Q48.15 47.8 47.85 47.3 46.9 45.9 45.75 45.65 45.1 45.5 44.35 45.75 43.6 46 43.45 46.5 43.2 47 43.4 47.7M59.1 39.4L60.25 39.4Q60.6 39.4 60.8 39.6 61.05 39.8 61 40.05 60.75 41.55 59.45 42.55 58.2 43.55 56.5 43.55 54.85 43.55 53.6 42.55 52.3 41.55 52.05 40.05 52 39.8 52.25 39.6 52.45 39.4 52.8 39.4L53.95 39.4Q54.6 39.4 54.7 39.85 54.85 40.55 55.35 41.05 55.85 41.5 56.5 41.5 57.15 41.5 57.7 41.05 58.2 40.55 58.35 39.85 58.45 39.4 59.1 39.4M47.05 54.8Q48.5 54.9 49.6 55.5 50.35 55.85 50.1 56.65L49.9 57.15Q49.75 57.55 49.35 57.7 49 57.85 48.6 57.7 47.95 57.4 47.5 57.4 46.35 57.25 46.25 58.2 46.2 58.55 46.4 58.85 46.9 59.45 48 59.45 48.4 59.5 48.5 59.7 48.65 59.85 48.65 60.05 48.65 60.2 48.6 60.2L48.55 61Q48.55 61.3 48.35 61.5 48.1 61.7 47.5 61.7 45.65 61.6 45.5 62.9 45.5 63.4 45.8 63.75 46.2 64.25 47 64.25 47.55 64.3 48.4 64.15 48.75 64 49.15 64.25 49.5 64.5 49.55 64.85L49.7 65.5Q49.8 66.4 49 66.55 48.15 66.8 47.2 66.8L46.55 66.75Q44.25 66.6 43.1 65.2 42.2 64.15 42.35 62.8 42.5 60.75 44.45 60.15 43 59.15 43.1 57.5 43.25 56.25 44.2 55.5 45.25 54.65 47.05 54.8Z"/></g><animate attributeName="display" repeatCount="indefinite" dur="6.633s" keyTimes="0;.397;.598;1" values="none;inline;none;none"/></g><g display="none"><g id="4.ai" transform="translate(31.5 44.85)"><animateTransform attributeName="transform" additive="replace" type="translate" repeatCount="indefinite" dur="6.633s" keyTimes="0;.196;.201;.206;.211;.216;.221;.226;.231;.236;.241;.246;.251;.256;.261;.266;.271;.276;.281;.286;.291;.296;.302;.307;.312;.317;.322;.327;.332;.337;.342;.347;1" values="59,70;59,70;59.057,69;59.013,70.051;59.021,70.103;59.028,69;58.973,70.055;59.042,70.106;59.049,69;59.056,70.059;59.124,70.11;59.059,70.061;59.06,70.086;59.039,70.06;59.039,70.085;59.079,70.06;59.011,70.034;59.059,70.059;59.049,70.027;59.089,70.115;59.029,70.033;59.068,70.004;59.008,70.033;59.048,70.058;59.035,70.082;59.028,70.007;59.067,70.032;59.058,70.057;59.047,70.081;59.037,70.056;59.077,70.081;59.017,70.006;59.017,70.006"/><animateTransform attributeName="transform" additive="sum" type="scale" repeatCount="indefinite" dur="6.633s" keyTimes="0;.196;.201;.206;.211;.216;.221;.226;.231;.236;.241;.246;.251;.256;.261;.266;.271;.276;.281;.286;.291;.296;.302;.307;.312;.317;.322;.327;.332;.337;.342;.347;1" values="1,1;1,1;1.024,1.024;1.048,1.048;1.071,1.071;1.095,1.095;1.119,1.119;1.143,1.143;1.167,1.167;1.19,1.19;1.214,1.214;1.238,1.238;1.223,1.223;1.208,1.208;1.193,1.193;1.179,1.179;1.164,1.164;1.149,1.149;1.134,1.134;1.119,1.119;1.104,1.104;1.089,1.089;1.075,1.075;1.06,1.06;1.045,1.045;1.03,1.03;1.015,1.015;1,1;.985,.985;.971,.971;.956,.956;.941,.941;.941,.941"/><animateTransform attributeName="transform" additive="sum" type="translate" repeatCount="indefinite" dur="6.633s" keyTimes="0;.196;.201;.206;.211;.216;.221;.226;.231;.236;.241;.246;.251;.256;.261;.266;.271;.276;.281;.286;.291;.296;.302;.307;.312;.317;.327;.332;.337;1" values="-27.5,-25.15;-27.5,-25.15;-27.65,-25.2;-27.6,-25.25;-27.6,-25.25;-27.6,-25.2;-27.5,-25.25;-27.6,-25.25;-27.6,-25.2;-27.6,-25.25;-27.65,-25.25;-27.55,-25.25;-27.6,-25.25;-27.55,-25.25;-27.6,-25.25;-27.6,-25.25;-27.55,-25.25;-27.6,-25.25;-27.6,-25.2;-27.6,-25.3;-27.6,-25.25;-27.6,-25.2;-27.6,-25.25;-27.6,-25.25;-27.55,-25.25;-27.6,-25.25;-27.6,-25.25;-27.6,-25.3;-27.6,-25.25;-27.6,-25.25"/><path fill="#4CADC8" stroke="none" d="M51 12.25L51.15 11.15 50.25 10.75 49.8 10 49.5 9.15 48.9 8.55 47.85 8.4 47.2 6.65 46.35 6.35 45.55 5.95 44.35 4.8 43.8 4.05 42.85 4 42.45 3.05 41.7 2.65 40.8 2.55 40.1 2 39.1 2.15 38.4 1.6 37.5 1.65 36.8 1.1 36 .9 35.1 .85 34.3 .7 33.45 .65 32.6 .8 31.8 .15 30.95 .65 30.1 .4 29.25 -.05 28.45 .5 27.55 .05 26.7 .35 25.85 .25 25 .5 24.3 1.1 23.4 1.2 22.5 1.05 21.85 1.75 20.95 1.8 20.15 2.15 19.5 2.75 18.1 3.7 16.55 4.35 15.9 4.9 15.4 5.65 14.8 6.2 14 6.55 13.45 7.2 12.95 7.5 12.85 7.35 12.55 7.65 11.8 7.9 11.75 8.7 11.65 8.85 11.4 9 10.55 9.1 10.55 9.55 10.2 9.85 9.75 10.65 9.1 11.2 8.25 11.55 7.75 12.25 7 12.75 6.75 13.75 5.8 13.95 5.3 14.7 4.2 16 3.4 16.45 3 17.3 .75 18.65 .5 19.65 0 20.05 .6 20.35 1.25 20.9 2.15 20.95 2.65 21.75 3.6 21.65 4.15 22.3 5 22.45 5.55 23.2 5.85 23.15 5.1 24.65 5.15 25.5 5.9 26.25 6.1 27 6.45 27.75 7.8 28.85 8.65 29.05 9.4 29.45 10.05 30.2 11.05 29.95 11.85 30.2 12.6 30.8 13.55 30.4 14.35 30.5 15.15 30.9 15.95 30.65 16.8 30.7 17.6 30.6 19.25 30.75 20.05 30.45 20.85 29.95 21.7 30.2 23.4 30.3 23.9 31.2 24.85 31.35 25.1 33.05 25.45 33.85 25.25 34.7 24.4 35.15 24.25 36.15 23.35 36.4 22.95 37.4 22.1 37.7 21.05 37.45 20.45 38.4 19.45 38 18.6 38 17.75 38.25 16.9 38.2 16.1 38.25 15.2 39 14.35 38.3 13.5 38.35 12.75 37.75 11.75 38 11 38.5 10.4 39.2 10.35 40.2 11.4 40.55 12.05 42.25 12.5 43 13.3 43.4 13.75 44.15 14.55 44.55 15.5 44.75 16.05 45.4 17.4 46.45 18.35 46.45 18.95 47.2 19.65 47.65 20.6 47.6 21.45 47.75 22 48.7 22.75 49.2 24.6 48.8 25.3 49.5 26.25 49.15 27 49.65 27.9 49.35 28.65 50.3 29.55 49.95 30.35 49.4 31.2 49.85 32.05 49.35 32.95 49.95 33.8 50 34.5 49.1 36.35 49.5 37.1 49 37.7 48.2 38.55 48.15 39.3 47.7 40.15 47.5 40.85 47.1 41.8 47.05 42.25 46.2 43.1 45.95 44.15 46 44.55 45.1 45.3 44.75 46.6 43.65 47.4 43.25 47.55 42.2 48.1 41.55 49.05 41.3 49.2 40.35 49.8 39.75 50.6 39.25 51.25 38.65 51 37.55 52 37.15 52.35 36.35 52.85 35.65 52.8 34.7 53.55 34.1 53.25 33.1 54 32.45 53.65 31.45 54.05 30.7 54.75 30 54.65 28.25 54.9 27.45 54.5 26.55 54.45 25.75 55.05 24.9 54.85 24.05 54.45 23.25 54.85 21.5 54.4 20.7 54.7 19.8 54.35 19 54.3 18.15 53.95 17.35 53.05 16.8 53.35 15.75 52.65 15.15 52.4 14.35 52.25 13.45 51.3 13 51 12.25M23.7 19L22.75 18.55Q22.25 18.3 22.35 17.8 22.65 16.85 22.3 15.95 22 15.1 21.2 14.7 20.4 14.35 19.55 14.65 18.65 14.95 18.1 15.8 17.8 16.25 17.3 16L16.35 15.55Q16.05 15.45 15.95 15.15 15.85 14.8 16.05 14.55 17.05 12.95 18.8 12.4 20.55 11.85 22.2 12.6 23.8 13.35 24.5 15.1 25.2 16.8 24.65 18.6 24.55 18.85 24.25 19 23.95 19.1 23.7 19Z"/></g><animate attributeName="display" repeatCount="indefinite" dur="6.633s" keyTimes="0;.196;.397;1" values="none;inline;none;none"/></g><g><g id="5.ai" transform="translate(35.05 44.85)"><animateTransform attributeName="transform" additive="replace" type="translate" repeatCount="indefinite" dur="6.633s" keyTimes="0;.005;.01;.015;.02;.025;.03;.035;.04;.045;.05;.055;.06;.065;.07;.075;.08;.085;.09;.095;.101;.106;.111;.116;.121;.126;.131;.136;.141;.146;1" values="60,70;60.022,70.028;59.992,70.058;60.018,70.032;60.041,70.066;60.064,70.045;60.037,70.015;60.061,69.993;60.022,70.084;59.993,70.048;60.046,70.048;60,70.11;60.053,70.047;60.127,70.047;60.069,70.056;60.07,70.054;60.015,70.054;60.075,70.109;60.028,70.051;60.08,70.105;60.032,70.103;60.084,70.1;60.037,70.046;60.039,70.045;60.092,70.094;60.044,70.092;60.046,69.992;60.001,69.992;60.051,69.992;60.007,69.991;60.007,69.991"/><animateTransform attributeName="transform" additive="sum" type="scale" repeatCount="indefinite" dur="6.633s" keyTimes="0;.005;.01;.015;.02;.025;.03;.035;.04;.045;.05;.055;.06;.065;.07;.075;.08;.085;.09;.095;.101;.106;.111;.116;.121;.126;.131;.136;.141;.146;1" values="1,1;1.031,1.031;1.062,1.062;1.093,1.093;1.123,1.123;1.154,1.154;1.185,1.185;1.216,1.216;1.247,1.247;1.278,1.278;1.26,1.26;1.242,1.242;1.224,1.224;1.206,1.206;1.188,1.188;1.17,1.17;1.153,1.153;1.135,1.135;1.117,1.117;1.099,1.099;1.081,1.081;1.063,1.063;1.045,1.045;1.028,1.028;1.01,1.01;.992,.992;.974,.974;.956,.956;.938,.938;.92,.92;.92,.92"/><animateTransform attributeName="transform" additive="sum" type="translate" repeatCount="indefinite" dur="6.633s" keyTimes="0;.005;.01;.015;.02;.025;.03;.035;.04;.045;.05;.055;.06;.065;.07;.075;.08;.085;.09;.095;.106;.111;.116;.121;.126;.131;.136;.141;.146;1" values="-24.95,-25.15;-25.05,-25.25;-25,-25.25;-25.05,-25.2;-25.05,-25.25;-25.05,-25.25;-25.05,-25.2;-25.05,-25.2;-25,-25.25;-25,-25.2;-25,-25.2;-25,-25.25;-25,-25.2;-25.1,-25.2;-25.05,-25.25;-25.05,-25.25;-25,-25.25;-25.05,-25.3;-25.05,-25.25;-25.05,-25.3;-25.05,-25.3;-25.05,-25.25;-25.05,-25.25;-25.1,-25.3;-25.05,-25.3;-25.05,-25.2;-25,-25.2;-25.05,-25.2;-25,-25.2;-25,-25.2"/><path fill="#DE722C" stroke="none" d="M45.65 11.7L45.15 11.05 44.55 9.35 42.85 8.6 42.2 6.85 41.1 6.8 40.6 6.1 40.25 5.15 38.6 4.6 38 3.9 37.1 3.75 36.5 3.15 35.5 3.2 35 2.3 34 2.5 32.45 1.9 31.6 1.75 30.9 1.1 30 1.3 29.15 1.25 28.45 .4 27.6 .3 26.75 .35 25.05 .05 24.15 .3 23.3 0 21.7 1.1 20.8 .6 20.05 1.15 19.05 .75 18.25 1 17.55 1.6 16.75 1.95 16.1 2.6 15.3 2.85 14.3 2.7 13.85 3.6 13.05 3.9 12.1 3.95 11.55 4.7 10.6 4.8 10 5.4 9.15 5.7 9.05 6.9 8 7 7.8 8 7 8.4 6.3 8.9 5.85 9.65 5.65 10.55 4.6 10.8 4.45 11.75 3.5 12.15 3.8 13.3 3.4 14.05 2.2 14.35 1.85 16.1 1.6 16.9 1.65 17.8 1.2 18.55 1.2 19.4 .35 20.1 .9 21.05 .65 21.85 .6 23.55 .15 24.4 0 25.25 .05 26.1 .7 26.9 .05 27.8 .6 28.6 .35 30.35 .85 31.1 1.6 31.8 1.05 32.85 1.65 33.55 1.75 34.4 2.7 34.95 2.55 35.9 3.2 37.5 4.1 37.95 4.1 38.95 4.8 39.5 5.35 40.15 6.1 40.6 6.05 41.8 7 42.05 7.45 42.8 8.2 43.25 8.75 43.9 9.6 44.2 10.15 44.8 10.55 45.75 11.6 45.7 12.35 46.05 12.7 47.1 13.4 47.65 14.5 47.3 16.75 48.55 17.6 48.65 18.3 49.2 19.15 49.2 20 49.4 20.85 49.45 21.65 49.7 22.45 50.1 23.35 49.75 25.05 50.3 25.9 50.35 27.5 49.45 28.45 50.15 30 49.25 31.75 49.25 32.45 48.7 33.3 48.5 33.95 47.9 34.95 48.05 35.6 47.4 36.25 46.9 37.4 47.25 38.65 46.05 39.2 45.3 40.1 45.1 40.4 44.15 41.55 44.2 42.1 43.5 42.45 42.65 43.15 42.15 43.45 41.3 44.2 40.8 44.5 40 45.05 39.35 46 39 46 38 46.3 37.2 47.45 36.85 47.45 35 47.75 34.2 48.75 33.65 48.25 32.6 49.35 31.15 49.15 30.25 49.55 28.6 49.35 27.75 49.65 26.9 49.7 26.05 49.6 25.25 49.7 24.4 49.3 23.55 49.95 22.65 49.4 21 49.6 20.1 49.5 19.25 49.25 18.45 48.25 17 48.35 16.05 48.2 15.15 47.85 14.4 47.15 13.75 46.65 13.05 46 12.5 45.65 11.7M22.35 16.85Q22.45 16.6 22.7 16.45 22.95 16.35 23.2 16.45L24.5 16.95Q25.1 17.2 24.85 17.85L21.55 26.15Q21.3 26.85 21.7 27.4 22.1 28 22.8 28L24.65 28Q25.3 28 25.3 28.65L25.3 30.05Q25.3 30.7 24.65 30.7L19.3 30.7Q18.4 30.7 17.9 30 17.4 29.3 17.75 28.45L22.35 16.85M33.1 13.05Q34.35 13.05 35.2 13.95 36.05 14.8 36.05 16 36.05 17.25 35.2 18.1 34.35 18.95 33.1 18.95 31.85 18.95 31 18.1 30.15 17.25 30.15 16 30.15 14.8 31 13.95 31.85 13.05 33.1 13.05M35.75 24.45Q35.85 23.8 36.45 23.8L38.3 23.9Q38.95 23.9 38.95 24.6 38.5 32.6 33.6 36.9 29.05 40.9 21.45 40.9L19.3 40.8Q19.05 40.8 18.85 40.6 18.65 40.35 18.7 40.1L18.85 38.25Q18.95 37.55 19.6 37.65 27.35 38.2 31.5 34.55 35.4 31.15 35.75 24.45M15.25 18.95Q14.05 18.95 13.2 18.1 12.35 17.25 12.35 16 12.35 14.8 13.2 13.95 14.05 13.05 15.25 13.05 16.5 13.05 17.35 13.95 18.2 14.8 18.2 16 18.2 17.25 17.35 18.1 16.5 18.95 15.25 18.95Z"/></g><animate attributeName="display" repeatCount="indefinite" dur="6.633s" keyTimes="0;.196;1" values="inline;none;none"/></g></g></svg>