<svg xmlns="http://www.w3.org/2000/svg" viewBox="0 0 262.39 138.54"><title>アセット 342x@f</title><g id="レイヤー_2" data-name="レイヤー 2"><g id="header"><path d="M147.17,68l17.15-18.67a2.52,2.52,0,0,0,.38-2.87l-1.37-2.65a2.52,2.52,0,0,0-2.56-1.34l-36.08,4.6a1.75,1.75,0,0,1-2-1.75V25.48a1.26,1.26,0,0,0-1.26-1.26h-4.54a1.25,1.25,0,0,0-1.26,1.26V46.65a1.76,1.76,0,0,1-1.55,1.75L92.77,51.13a1.26,1.26,0,0,0-1.09,1.41l.56,4.37A1.27,1.27,0,0,0,93.65,58l20-2.56a1.77,1.77,0,0,1,2,1.75V79.56a13.86,13.86,0,0,0,13.86,13.87h27.81a1.26,1.26,0,0,0,1.25-1.08l.65-4.54A1.26,1.26,0,0,0,158,86.37h-28.2a7.06,7.06,0,0,1-7.06-7.06V55.85a1.76,1.76,0,0,1,1.54-1.75l26.32-3.36a1.26,1.26,0,0,1,1.09,2.1l-9.59,10.45a1.26,1.26,0,0,0,.07,1.78l3.25,3A1.26,1.26,0,0,0,147.17,68Z" style="fill:#231815"/><path d="M5.35,93.43h4a1.26,1.26,0,0,0,1.26-1.26V81.42a1.76,1.76,0,0,1,1.76-1.76H25.08a1.76,1.76,0,0,1,1.76,1.76v3.19a3,3,0,0,1-3,3H20.47a1.26,1.26,0,0,0-1.24,1.48l.57,3.28a1.26,1.26,0,0,0,1.24,1h4.8a7.56,7.56,0,0,0,7.56-7.56V52.49a3.78,3.78,0,0,0-3.78-3.78H7.88a3.79,3.79,0,0,0-3.79,3.78V92.17A1.26,1.26,0,0,0,5.35,93.43Zm5.3-22.09V69.23a1.76,1.76,0,0,1,1.76-1.76H25.08a1.76,1.76,0,0,1,1.76,1.76v2.11a1.76,1.76,0,0,1-1.76,1.76H12.41A1.76,1.76,0,0,1,10.65,71.34ZM26.84,57v2.12a1.76,1.76,0,0,1-1.76,1.76H12.41a1.76,1.76,0,0,1-1.76-1.76V57a1.76,1.76,0,0,1,1.76-1.76H25.08A1.76,1.76,0,0,1,26.84,57Z" style="fill:#231815"/><path d="M24.84,31.91l.71,1.37a1.76,1.76,0,0,1-1.35,2.56l-8.88,1.07a1.76,1.76,0,0,1-1.78-2.56l6.7-12.91a1.26,1.26,0,0,0-.53-1.7l-3.58-1.86a1.26,1.26,0,0,0-1.7.54L4.73,37.08A2.5,2.5,0,0,1,2.8,38.42l-1.69.2A1.28,1.28,0,0,0,0,40l.48,4a1.27,1.27,0,0,0,1.41,1.1l26.55-3.2a2.21,2.21,0,0,1,2.21,1.17l1.7,3.27a1.26,1.26,0,0,0,1.7.54l3.58-1.86a1.26,1.26,0,0,0,.53-1.7L30.66,28.89a1.26,1.26,0,0,0-1.7-.54l-3.58,1.86A1.26,1.26,0,0,0,24.84,31.91Z" style="fill:#231815"/><path d="M66.89,44.43a3.79,3.79,0,0,1-3.79,3.78H51.46a3.78,3.78,0,0,1-3.78-3.78V39.76A1.75,1.75,0,0,1,49.13,38,53.53,53.53,0,0,0,67.8,31a1.25,1.25,0,0,0,.3-1.81L65.66,26A1.25,1.25,0,0,0,64,25.71a48.82,48.82,0,0,1-14.16,5.51,1.76,1.76,0,0,1-2.13-1.73v-8.9a1.26,1.26,0,0,0-1.26-1.26h-4a1.26,1.26,0,0,0-1.26,1.26v26a8.19,8.19,0,0,0,8.2,8.19H65.25a8.19,8.19,0,0,0,8.19-8.19V42.3A1.26,1.26,0,0,0,72.18,41h-4a1.26,1.26,0,0,0-1.26,1.26Z" style="fill:#231815"/><path d="M246.51,34.9c-.22,18.21-6.3,31.95-18.06,40.84s-25.62,10.47-33.66,10.62a1.26,1.26,0,0,0-1.23,1.26v4.54a1.27,1.27,0,0,0,1.28,1.26c8.95-.16,24.64-2,37.86-12C246.3,71.1,253.32,55.5,253.57,35Z" style="fill:#231815"/><path d="M66.89,83.09a3.79,3.79,0,0,1-3.79,3.79H51.46a3.79,3.79,0,0,1-3.78-3.79V78.42a1.75,1.75,0,0,1,1.45-1.73,53.53,53.53,0,0,0,18.67-7,1.27,1.27,0,0,0,.3-1.82l-2.44-3.22A1.25,1.25,0,0,0,64,64.38a48.82,48.82,0,0,1-14.16,5.51,1.76,1.76,0,0,1-2.13-1.73V59.25A1.27,1.27,0,0,0,46.42,58h-4a1.27,1.27,0,0,0-1.26,1.26v26a8.2,8.2,0,0,0,8.2,8.19H65.25a8.19,8.19,0,0,0,8.19-8.19V81a1.25,1.25,0,0,0-1.26-1.26h-4A1.25,1.25,0,0,0,66.89,81Z" style="fill:#231815"/><path d="M249.55,36.84a11.93,11.93,0,0,1-7.49-21.23V5.67a5.68,5.68,0,0,1,11.35,0v7.94a11.93,11.93,0,0,1-3.86,23.23Zm-3.7-20.64c0,.08,0,.14,0,.21a1.89,1.89,0,0,1-.84,1.71,8.16,8.16,0,1,0,6.12-1.21,1.89,1.89,0,0,1-1.52-1.86V5.67a1.89,1.89,0,1,0-3.78,0Z" style="fill:#231815"/><path d="M247.62,31H244a6,6,0,1,1,0-12h3.64a6,6,0,0,1,0,12ZM244,22.8a2.19,2.19,0,1,0,0,4.38h3.64a2.19,2.19,0,0,0,0-4.38Z" style="fill:#231815"/><path d="M72.55,113.36c-.34,0-1.35.7-1.35.93a.32.32,0,0,0,.12.22A12.07,12.07,0,0,1,73,116.7c.53.87.53.87.67.87a3.55,3.55,0,0,0,1.2-.7c.2-.17.29-.31.29-.42a6.88,6.88,0,0,0-1.66-2.3C73,113.56,72.75,113.36,72.55,113.36Z"/><path d="M70.05,118.8c.28.48.34.53.48.53a2.23,2.23,0,0,0,1-.56c.42-.33.53-.47.53-.64a9.26,9.26,0,0,0-2.1-2.78c-.34-.33-.42-.39-.59-.39a2.52,2.52,0,0,0-1.35,1c0,.11,0,.14.42.59A14.6,14.6,0,0,1,70.05,118.8Z"/><path d="M68,123.26a18.46,18.46,0,0,1-2.49-6.16c-.06-.45-.06-.45-.11-.54a.53.53,0,0,0-.48-.28,13.34,13.34,0,0,0-1.91.4c-.78.22-1,.36-1,.64a1.09,1.09,0,0,0,.06.28,19.2,19.2,0,0,1,1.2,6.53,18.32,18.32,0,0,1-1.09,7,5.89,5.89,0,0,1-5.69,4c-3,0-4.85-2-4.85-5.24,0-4.15,2.69-8.16,6.92-10.24.65-.33.82-.47.82-.72a4.17,4.17,0,0,0-1-1.86c-.31-.42-.51-.56-.73-.56a.83.83,0,0,0-.31.09,16.09,16.09,0,0,1-6.08.78c-.49,0-1,0-1.48-.05a.77.77,0,0,0-.82.85c.16,1.48.45,2.2.87,2.2a2.73,2.73,0,0,0,.39-.05l.42-.09c1.71-.25,1.74-.25,3.2-.53a14,14,0,0,0-3.93,5,12.07,12.07,0,0,0-1.32,5.47,8.4,8.4,0,0,0,2.25,6.08,8,8,0,0,0,5.83,2.11,8.23,8.23,0,0,0,6.53-2.75,12.12,12.12,0,0,0,2.52-8,20.81,20.81,0,0,0-.53-5A28.34,28.34,0,0,0,68,129c1,1.34,1.07,1.4,1.32,1.4a5,5,0,0,0,2.16-2.44.65.65,0,0,0-.2-.42A26.71,26.71,0,0,1,68,123.26Z"/><path d="M160.46,123c-.16.1-1.47.82-3.91,2.15a.52.52,0,0,1-.73-.22,2.58,2.58,0,0,0-2.46-1.79,6.93,6.93,0,0,0-2,.29.38.38,0,0,1-.43-.57,19.69,19.69,0,0,0,1.09-1.73,1.29,1.29,0,0,1,1-.64,53,53,0,0,0,5.89-.91c.37-.08.48-.22.48-.53a17.29,17.29,0,0,0-.28-2.19c-.05-.17-.17-.25-.39-.25a4.1,4.1,0,0,0-.9.19c-.74.17-2.65.51-3.53.66a.25.25,0,0,1-.26-.35c.21-.47.55-1.21.68-1.45a.73.73,0,0,0,.11-.34c0-.44-1-.83-3.06-1.22a.53.53,0,0,0-.61.47,10.49,10.49,0,0,1-.6,2.84.82.82,0,0,1-.74.54c-1.06,0-2.07.06-3,.06a19.64,19.64,0,0,1-2.26-.09.51.51,0,0,0-.56.54,17.54,17.54,0,0,0,.22,2c.14.48.22.56.64.56.94,0,1.84,0,3.35-.12a.4.4,0,0,1,.37.61,17.79,17.79,0,0,1-4.95,4.86c-.67.42-.73.48-.73.73a2.79,2.79,0,0,0,.45,1c.59,1,1.18,1.63,1.46,1.63s.3-.06,1.15-.93a18.23,18.23,0,0,1,2.35-1.93,6.76,6.76,0,0,1,3.67-1.32,1.32,1.32,0,0,1,1.42,1,.43.43,0,0,1-.2.5,21.89,21.89,0,0,0-3.77,2.43,5.34,5.34,0,0,0-2.27,4.46,4,4,0,0,0,2.51,3.54c1.34.53,3.16.75,6.52.75A51.86,51.86,0,0,0,162,138c.36-.08.5-.25.5-.67a9.18,9.18,0,0,0-.28-2.44.46.46,0,0,0-.42-.34h-.14a15.72,15.72,0,0,1-2,.45,41.71,41.71,0,0,1-5.05.34,8.86,8.86,0,0,1-3.76-.56,1.16,1.16,0,0,1-.61-1.09c0-1.14.67-1.92,3-3.32a.38.38,0,0,1,.58.33c0,.62,0,1.51-.07,2v.12c0,.44.17.53,1.12.53a4.38,4.38,0,0,0,1.74-.22c.14-.09.2-.26.2-.59v-1.35c0-.68,0-1.58-.06-2.2a.76.76,0,0,1,.43-.71A54.38,54.38,0,0,1,164.8,125c.36-.09.48-.2.48-.37a9.18,9.18,0,0,0-2-3,.52.52,0,0,0-.75,0A9.76,9.76,0,0,1,160.46,123Z"/><path d="M256.79,123c.49.83.49.83.66.84a4.1,4.1,0,0,0,1.44-.92.57.57,0,0,0,.21-.33,8.76,8.76,0,0,0-2.66-3.23,3,3,0,0,0-1.54,1.06c0,.06,0,.11.11.2A12.8,12.8,0,0,1,256.79,123Z"/><path d="M248.93,127.72c-1.06-1-1.48-1.68-1.48-2.44a2.4,2.4,0,0,1,.72-1.65c.23-.25.28-.34.28-.53s-.08-.31-.47-.59a6,6,0,0,0-1.74-.84c-.25,0-.45.14-.87.61a4.65,4.65,0,0,0-1.15,3c0,1.79.73,3.08,2.94,5.27,1.21,1.15,1.57,1.71,1.57,2.38s-.67,1.18-2,1.18a7.52,7.52,0,0,1-2.43-.37.51.51,0,0,0-.62.66,8.6,8.6,0,0,1,.39,1.78c0,.45.11.65.37.73a8.22,8.22,0,0,0,2.55.28,7,7,0,0,0,3.47-.67,3.65,3.65,0,0,0,1.77-3.25,5.08,5.08,0,0,0-.39-2C251.37,130.16,251,129.66,248.93,127.72Z"/><path d="M250.65,117.37a16.41,16.41,0,0,0-4.86-2.54c-.24,0-.44.1-.89.66A5.35,5.35,0,0,0,244,117c0,.18.08.28.48.4a15.41,15.41,0,0,1,5.28,3.43.67.67,0,0,0,.31.21c.17,0,.34-.09.66-.48a5.74,5.74,0,0,0,1.09-1.88C251.86,118.37,251.61,118.09,250.65,117.37Z"/><path d="M259.82,118c-.36,0-1.49.72-1.5,1,0,.06.05.12.13.2a16.55,16.55,0,0,1,2,2.73c.13.26.18.29.35.29a2,2,0,0,0,.86-.43c.58-.4.7-.54.7-.73A7.9,7.9,0,0,0,259.82,118Z"/><path d="M256.24,127.36a3.93,3.93,0,0,0-2,1.64c0,.1.07.2.23.36a11.38,11.38,0,0,1,2,2.11,10.39,10.39,0,0,1,1.33,2.37c.16.34.26.44.48.44a4.08,4.08,0,0,0,1.63-.87c.5-.41.69-.61.69-.87C260.7,131.36,257.29,127.36,256.24,127.36Z"/><path d="M241.45,131.38a.5.5,0,0,0-.82-.29,3.13,3.13,0,0,1-2.07,1c-.53-.06-1.11-.9-1.42-2-.18-.64-.18-.64-.4-.67a4.6,4.6,0,0,0-1.78.91c-.37.27-.51.45-.53.67a4.27,4.27,0,0,0,.44,1.66c.74,1.76,1.76,2.71,3,2.86a4,4,0,0,0,2.87-.86c.71-.45,1.17-.95,1.2-1.26a1.24,1.24,0,0,0-.17-.7A6,6,0,0,1,241.45,131.38Z"/><path d="M23.47,122.59V120.1c0-.58,0-1,0-1.38a.76.76,0,0,0-.81-.8c-.54,0-1.14,0-2.25,0h-.06c-.89,0-1.07-.28-.71-.89h0c.36-.55.74-1.15,1.09-1.75a.51.51,0,0,0-.31-.75l-1.84-.52a.51.51,0,0,0-.61.3,18,18,0,0,1-1.9,3.42.48.48,0,0,1-.4.2H14.05a.53.53,0,0,1-.49-.35A18.13,18.13,0,0,0,12,114.15a.49.49,0,0,0-.58-.25l-1.77.49a.51.51,0,0,0-.3.75,13.64,13.64,0,0,1,1.1,2.31.39.39,0,0,1-.36.52H8.28a.8.8,0,0,1-.68-.42,17.47,17.47,0,0,0-2-3.16.51.51,0,0,0-.54-.17l-1.65.5a.52.52,0,0,0-.25.81,13.71,13.71,0,0,1,1.29,2c.2.36-.11.47-.36.47H3.42c-1.27,0-1.73,0-2.31,0a.76.76,0,0,0-.8.81c0,.39,0,.82,0,1.36v2.46c0,.48,0,.89,0,1.27a.75.75,0,0,0,.76.81H2.38a.76.76,0,0,0,.76-.77V121a.51.51,0,0,1,.51-.51h16.5a.51.51,0,0,1,.51.51v2.9a.76.76,0,0,0,.77.77h1.33a.77.77,0,0,0,.76-.82A12.15,12.15,0,0,1,23.47,122.59Z"/><path d="M20.55,128.62H14.89a.38.38,0,0,1-.2-.7,41.35,41.35,0,0,0,4.23-3.25l.58-.47.2-.17c.18-.17.09-.29,0-.39l-.21-.23-.9-1a.5.5,0,0,0-.43-.16,15.49,15.49,0,0,1-1.8.07H7.49c-.89,0-1.58,0-2.21-.06a.5.5,0,0,0-.54.5v1.55a.51.51,0,0,0,.54.51c.63,0,1.31-.06,2.18-.06h6.33a.38.38,0,0,1,.24.68A26.83,26.83,0,0,1,11.69,127h-.81a.51.51,0,0,0-.5.61l.15.73a.25.25,0,0,1-.24.31h-7c-1,0-1.89,0-2.69-.11A.5.5,0,0,0,0,129v1.84a.5.5,0,0,0,.55.51c.74-.07,1.62-.11,2.73-.11H9.83a.77.77,0,0,1,.77.77v3.22c0,.53-.2.61-1.4.61-.63,0-1.49,0-2.45-.15a.51.51,0,0,0-.53.69,8.56,8.56,0,0,1,.46,1.67.53.53,0,0,0,.48.42l2.26.06a9,9,0,0,0,3.11-.33c.76-.28,1-.87,1-2.25V132a.77.77,0,0,1,.76-.77h6.19c1.12,0,2.07,0,2.79.11a.5.5,0,0,0,.55-.51V129a.51.51,0,0,0-.55-.51C22.55,128.58,21.57,128.62,20.55,128.62Z"/><path d="M118.43,117.68a26.79,26.79,0,0,1-2.83.12h-6.67a.76.76,0,0,1-.76-.77v-.89a13,13,0,0,1,.08-1.65.51.51,0,0,0-.51-.56h-2.27a.5.5,0,0,0-.5.56,13.55,13.55,0,0,1,.09,1.65V117a.77.77,0,0,1-.77.77H98.13a24.6,24.6,0,0,1-2.8-.13.51.51,0,0,0-.56.51v2.14a.5.5,0,0,0,.56.5c.81-.07,1.74-.11,2.83-.11h3.61a.77.77,0,0,1,.76.8c-.2,5-1.12,7.92-3.33,10.59A16.07,16.07,0,0,1,95,135.68a.51.51,0,0,0-.06.81,7.05,7.05,0,0,1,1.36,1.68.51.51,0,0,0,.73.15c4.63-3.14,6.91-6.36,8.07-11.29a.77.77,0,0,1,.74-.6h6a.77.77,0,0,1,.77.8,34.17,34.17,0,0,1-.56,6c-.37,1.85-.62,2.16-1.8,2.16a21.69,21.69,0,0,1-3.17-.24.51.51,0,0,0-.56.67,10.18,10.18,0,0,1,.41,1.91.5.5,0,0,0,.47.46c1.74.12,2.33.14,3.22.14,2.69,0,3.58-.67,4.2-3.22a52.38,52.38,0,0,0,.93-9.45c0-.49,0-.93.07-1.27a.76.76,0,0,0-.8-.81c-.52,0-1.22.06-1.94.06h-6.61a.77.77,0,0,1-.76-.84c0-.31,0-.62.08-1h0c0-.36.08-1.07,1.15-1.07h8.75a26.87,26.87,0,0,1,2.75.11.51.51,0,0,0,.56-.51v-2.13A.5.5,0,0,0,118.43,117.68Z"/><path d="M212.43,122.59V120.1c0-.58,0-1,0-1.38a.76.76,0,0,0-.8-.8c-.54,0-1.14,0-2.26,0h-.05c-.89,0-1.07-.28-.71-.89h0c.37-.55.75-1.15,1.09-1.75a.51.51,0,0,0-.3-.75l-1.85-.52a.51.51,0,0,0-.61.3,18.51,18.51,0,0,1-1.89,3.42.51.51,0,0,1-.41.2H203a.52.52,0,0,1-.48-.35,19.47,19.47,0,0,0-1.54-3.47.51.51,0,0,0-.59-.25l-1.76.49a.51.51,0,0,0-.3.75,12.88,12.88,0,0,1,1.09,2.31.38.38,0,0,1-.35.52h-1.83a.79.79,0,0,1-.68-.42,18,18,0,0,0-2-3.16.52.52,0,0,0-.55-.17l-1.64.5a.52.52,0,0,0-.26.81,13.82,13.82,0,0,1,1.3,2c.19.36-.11.47-.36.47,0,0,0,0,0,0h-.63c-1.28,0-1.73,0-2.31,0a.77.77,0,0,0-.81.81c0,.39,0,.82,0,1.36v2.46c0,.48,0,.89,0,1.27a.77.77,0,0,0,.77.81h1.31a.77.77,0,0,0,.77-.77V121a.51.51,0,0,1,.51-.51h16.5a.51.51,0,0,1,.51.51v2.9a.76.76,0,0,0,.76.77h1.33a.76.76,0,0,0,.76-.82C212.45,123.43,212.43,123,212.43,122.59Z"/><path d="M209.52,128.62h-5.66a.38.38,0,0,1-.21-.7,41.43,41.43,0,0,0,4.24-3.25l.57-.47.21-.17c.18-.17.09-.29,0-.39l-.21-.23-.9-1a.51.51,0,0,0-.44-.16,15.41,15.41,0,0,1-1.79.07h-8.89c-.89,0-1.57,0-2.2-.06a.5.5,0,0,0-.55.5v1.55a.51.51,0,0,0,.55.51c.63,0,1.31-.06,2.17-.06h6.34a.38.38,0,0,1,.23.68,27.24,27.24,0,0,1-2.33,1.51h-.81a.51.51,0,0,0-.5.61l.15.73a.26.26,0,0,1-.25.31h-7c-1,0-1.89,0-2.7-.11a.5.5,0,0,0-.55.5v1.84a.5.5,0,0,0,.55.51c.73-.07,1.62-.11,2.73-.11h6.55a.77.77,0,0,1,.76.77v3.22c0,.53-.19.61-1.4.61-.62,0-1.48,0-2.44-.15a.51.51,0,0,0-.53.69,9.44,9.44,0,0,1,.45,1.67.53.53,0,0,0,.49.42l2.26.06a9.07,9.07,0,0,0,3.11-.33c.76-.28,1-.87,1-2.25V132a.77.77,0,0,1,.76-.77h6.19c1.12,0,2.06,0,2.79.11a.5.5,0,0,0,.54-.51V129a.51.51,0,0,0-.55-.51C211.52,128.58,210.53,128.62,209.52,128.62Z"/><polygon points="224.19 38.3 224.26 38.94 224.2 39.58 224 40.2 224.13 40.86 224 41.49 223.82 42.11 223.98 42.81 223.57 43.37 223.13 43.9 223.53 44.72 222.76 45.12 222.55 45.72 222.52 46.4 222.55 47.15 221.66 47.4 221.43 48 221.45 48.78 220.7 49.05 220.28 49.53 220.05 50.16 219.5 50.53 219.27 51.18 218.74 51.56 218.47 52.22 218.06 52.73 217.17 52.68 216.95 53.42 216.26 53.57 215.86 54.13 215.38 54.58 214.89 55.04 214.02 54.79 213.5 55.18 213.01 55.65 212.28 55.54 211.78 56.02 211.14 56.15 210.6 56.57 209.94 56.59 209.27 56.56 208.7 56.97 208.08 57.24 207.37 56.73 206.77 57.11 206.13 57.41 205.48 57.37 204.83 57.19 204.2 56.96 203.53 57.2 202.91 56.91 202.29 56.74 201.65 56.69 201.02 56.55 200.37 56.52 199.82 56.11 199.16 56.05 198.6 55.72 198.05 55.38 197.48 55.1 196.64 55.35 196.1 54.95 195.84 54.13 195.26 53.87 194.46 53.9 194.17 53.2 193.74 52.72 193.07 52.52 192.67 52 192.11 51.66 191.77 51.09 191.02 50.9 191.07 50.01 190.49 49.66 190.08 49.16 189.54 48.74 189.56 47.97 188.86 47.64 188.63 47.02 188.36 46.43 188.47 45.68 187.76 45.28 187.71 44.61 187.22 44.09 187.66 43.29 187.07 42.78 186.72 42.19 186.81 41.51 186.87 40.85 186.48 40.25 186.97 39.56 186.47 38.95 186.42 38.3 186.53 37.65 186.9 37.02 186.94 36.39 186.93 35.74 187.11 35.12 186.7 34.39 187.36 33.87 187.34 33.21 187.69 32.65 187.65 31.95 187.84 31.34 187.96 30.68 188.1 30.02 189.04 29.77 189.33 29.21 189.11 28.34 189.83 28.03 189.95 27.33 190.74 27.11 190.9 26.43 191.23 25.86 191.77 25.49 192.37 25.18 192.52 24.41 193.32 24.35 193.39 23.43 194.03 23.2 194.5 22.74 195.24 22.67 195.64 22.12 196.36 22.08 196.95 21.84 197.32 21.14 198.09 21.29 198.69 21.09 199.18 20.58 199.77 20.33 200.32 19.88 200.94 19.66 201.67 19.98 202.25 19.57 202.95 19.92 203.54 19.46 204.16 19.1 204.83 19.31 205.48 19.13 206.13 19.2 206.78 19.36 207.43 19.33 208.08 19.41 208.63 20.03 209.26 20.1 209.96 19.93 210.49 20.44 211.12 20.55 211.71 20.78 212.3 21 213.06 20.86 213.46 21.53 214.19 21.48 214.68 21.94 215.34 22.08 215.79 22.58 216.41 22.82 217.07 23.02 217.33 23.73 217.71 24.27 218.53 24.32 218.77 25.01 219.03 25.64 219.64 25.95 220.32 26.22 220.58 26.85 220.77 27.5 221.18 28 221.44 28.59 221.94 29.04 222.31 29.57 222.84 30.04 223.12 30.64 223.23 31.3 223.14 32.02 223.5 32.58 223.92 33.13 224.08 33.76 224.19 34.41 224.02 35.1 224.24 35.72 224.45 36.34 223.96 37.03 224.25 37.65 224.19 38.3" style="fill:#ed6c00"/><circle cx="198.05" cy="31.28" r="2.24" style="fill:#fff"/><circle cx="211.62" cy="31.28" r="2.24" style="fill:#fff"/><path d="M205.2,42.46h-4.1a1.25,1.25,0,0,1-1.17-1.72l3.49-8.84a.51.51,0,0,1,.66-.28l1,.39a.51.51,0,0,1,.28.65L202.84,39a1,1,0,0,0,.94,1.38h1.42a.51.51,0,0,1,.5.51V42A.5.5,0,0,1,205.2,42.46Z" style="fill:#fff"/><path d="M202.77,50.22c-.54,0-1.08,0-1.64-.06a.52.52,0,0,1-.47-.56l.13-1.41a.5.5,0,0,1,.54-.44c3.86.27,7-.54,9.07-2.38s3-4.29,3.24-7.67a.51.51,0,0,1,.52-.48l1.41.05a.52.52,0,0,1,.49.54c-.24,4.06-1.6,7.22-4.06,9.38A13.63,13.63,0,0,1,202.77,50.22Z" style="fill:#fff"/></g></g></svg>