<?xml version="1.0" encoding="UTF-8"?><svg id="uuid-67533d7a-bbf3-4619-843d-a5c4e31478d8" xmlns="http://www.w3.org/2000/svg" viewBox="0 0 173.555 93.419"><defs><style>.uuid-716ac27d-cbcf-40cb-93ca-35a646065b3f{fill:#ed6c00;}</style></defs><g id="uuid-52e89ebe-ad5e-460a-800d-7f28c29e3845"><path class="uuid-716ac27d-cbcf-40cb-93ca-35a646065b3f" d="m148.839,24.991l-.192-.414.326-.455-.141-.417-.148-.41.115-.459-.075-.427-.103-.422-.283-.366-.236-.37.058-.479-.075-.439-.187-.393-.345-.311-.245-.355-.339-.295-.173-.393-.269-.33-.129-.435-.168-.417-.452-.181-.406-.203-.173-.421-.156-.457-.545-.035-.252-.358-.177-.471-.437-.135-.412-.155-.296-.332-.441-.093-.321-.306-.49.031-.264-.447-.5.094-.396-.144-.393-.153-.418-.072-.35-.339-.46.11-.42-.042-.367-.417-.43-.052-.435.019-.428-.101-.434-.049-.431.121-.441-.138-.413.24-.392.304-.467-.237-.383.275-.488-.214-.41.148-.36.298-.394.167-.324.339-.4.129-.51-.095-.244.464-.394.156-.477.028-.271.369-.485.047-.314.3-.427.155-.042.611-.536.041-.101.508-.394.207-.36.25-.221.373-.104.456-.524.143-.078.464-.478.205.145.58-.194.372-.625.167-.089.437-.08.434-.128.41.031.459-.233.374.009.441-.435.342.27.487-.118.41.008.428-.029.422-.245.415-.073.431.035.431.327.41-.324.455.262.401-.038.438-.065.451.232.39.39.337-.288.531.322.346.034.446.476.263-.074.5.18.39.149.409.465.222-.012.513.355.278.274.328.388.234-.037.59.498.129.224.377.376.225.266.342.441.135.286.321.191.464.532-.022.387.177.176.544.352.261.561-.166.377.19.365.226.374.214.435.041.364.272.436.024.416.091.427.031.413.114.408.196.443-.164.42.153.429.122.434.022.422-.195.403-.256.47.34.409-.177.382-.274.44.023.439-.016.362-.282.419-.087.334-.313.489.073.325-.313.344-.257.577.166.322-.309.321-.298.264-.369.457-.099.151-.496.586.033.277-.339.175-.435.351-.255.157-.43.366-.246.151-.42.279-.319.499-.178-.014-.515.15-.401.592-.167-.022-.494.022-.456.139-.398.512-.265-.265-.54.288-.355.277-.371-.105-.463.115-.411.086-.419-.085-.438.134-.415.042-.425-.048-.427.04-.427Zm-8.385-5.719c.821,0,1.487.666,1.487,1.487s-.665,1.487-1.487,1.487-1.487-.666-1.487-1.487.666-1.487,1.487-1.487Zm-9.004,2.973c-.821,0-1.487-.666-1.487-1.487s.665-1.487,1.487-1.487,1.487.666,1.487,1.487-.666,1.487-1.487,1.487Zm1.245,4.795l2.318-5.866c.068-.172.262-.256.434-.189l.656.259c.172.068.256.262.188.434l-1.665,4.215c-.174.439.15.915.623.915h.941c.185,0,.335.15.335.335v.705c0,.185-.15.335-.335.335h-2.717c-.591,0-.995-.595-.778-1.144Zm8.012,4.28c-1.508,1.326-3.607,2.01-6.128,2.01-.355,0-.718-.014-1.089-.041-.187-.014-.329-.183-.312-.37l.089-.933c.017-.181.179-.311.36-.298,2.559.186,4.634-.358,6.019-1.575,1.293-1.137,2.015-2.849,2.149-5.091.011-.182.16-.325.342-.319l.936.032c.188.006.338.169.327.357-.155,2.698-1.061,4.791-2.693,6.227Z"/><path d="m108.404,29.065c-.323-.624-1.001-.98-1.698-.891l-23.945,3.056c-.7.089-1.32-.456-1.32-1.162v-13.157c0-.462-.375-.837-.837-.837h-3.013c-.462,0-.837.374-.837.837v14.054c0,.59-.438,1.087-1.023,1.162l-14.158,1.807c-.458.059-.783.478-.724.936l.371,2.905c.059.458.478.783.936.724l13.279-1.695c.7-.089,1.32.456,1.32,1.162v14.842c0,5.083,4.121,9.204,9.204,9.204h18.457c.416,0,.769-.306.828-.718l.43-3.013c.072-.504-.319-.955-.828-.955h-18.72c-2.588,0-4.686-2.098-4.686-4.686v-15.572c0-.59.438-1.087,1.023-1.162l17.47-2.23c.774-.099,1.25.822.722,1.396l-6.366,6.931c-.313.34-.29.87.05,1.182l2.157,1.981c.34.313.87.29,1.182-.05l11.38-12.391c.475-.517.577-1.277.254-1.901l-.911-1.761Z"/><path d="m19.656,32.331H5.226c-1.386,0-2.51,1.124-2.51,2.51v26.335c0,.462.375.837.837.837h2.677c.462,0,.837-.375.837-.837v-7.134c0-.647.524-1.172,1.171-1.172h8.407c.647,0,1.171.524,1.171,1.172v2.114c0,1.109-.899,2.008-2.008,2.008h-2.223c-.519,0-.913.468-.824.98l.378,2.175c.07.401.418.694.824.694h3.183c2.773,0,5.02-2.248,5.02-5.02v-22.151c0-1.387-1.124-2.51-2.51-2.51Zm-1.84,15.018c0,.647-.524,1.172-1.171,1.172h-8.407c-.647,0-1.171-.525-1.171-1.172v-1.398c0-.647.524-1.172,1.171-1.172h8.407c.647,0,1.171.524,1.171,1.172v1.398Zm0-8.092c0,.647-.524,1.172-1.171,1.172h-8.407c-.647,0-1.171-.525-1.171-1.172v-1.404c0-.647.524-1.172,1.171-1.172h8.407c.647,0,1.171.524,1.171,1.172v1.404Z"/><path d="m20.349,19.172c-.213-.41-.718-.57-1.128-.357l-2.376,1.234c-.41.213-.57.718-.357,1.128l.472.908c.377.726-.087,1.605-.899,1.703l-5.893.711c-.935.113-1.614-.867-1.18-1.703l4.449-8.564c.213-.41.053-.915-.357-1.128l-2.376-1.234c-.41-.213-.915-.053-1.128.357l-6.433,12.385c-.255.491-.736.824-1.285.89l-1.119.135c-.459.055-.786.472-.731.931l.321,2.658c.055.459.472.786.931.73l17.621-2.125c.602-.073,1.187.236,1.466.774l1.129,2.173c.213.41.718.57,1.128.357l2.376-1.234c.41-.213.57-.718.357-1.128l-4.986-9.601Z"/><path d="m47.906,27.24h-2.677c-.462,0-.837.374-.837.837v1.411c0,1.386-1.124,2.51-2.51,2.51h-7.729c-1.386,0-2.51-1.124-2.51-2.51v-3.1c0-.567.404-1.057.963-1.152,4.535-.763,9.501-2.721,12.394-4.635.402-.266.49-.818.199-1.202l-1.621-2.14c-.266-.351-.753-.431-1.124-.195-2.031,1.293-5.787,2.868-9.397,3.657-.728.159-1.414-.404-1.414-1.149v-5.909c0-.462-.375-.837-.837-.837h-2.677c-.462,0-.837.374-.837.837v17.247c0,3.003,2.435,5.438,5.438,5.438h10.575c3.003,0,5.438-2.435,5.438-5.438v-2.834c0-.462-.375-.837-.837-.837Z"/><path d="m47.906,52.904h-2.677c-.462,0-.837.374-.837.837v1.411c0,1.386-1.124,2.51-2.51,2.51h-7.729c-1.386,0-2.51-1.124-2.51-2.51v-3.1c0-.567.404-1.057.963-1.152,4.535-.763,9.501-2.721,12.394-4.635.402-.266.491-.818.199-1.202l-1.621-2.14c-.266-.351-.753-.431-1.124-.195-2.031,1.293-5.787,2.868-9.397,3.657-.728.159-1.414-.404-1.414-1.149v-5.909c0-.462-.375-.837-.837-.837h-2.677c-.462,0-.837.374-.837.837v17.247c0,3.003,2.435,5.438,5.438,5.438h10.575c3.003,0,5.438-2.435,5.438-5.438v-2.834c0-.462-.375-.837-.837-.837Z"/><path d="m173.555,16.529c0-3.413-2.202-6.417-5.363-7.497V3.765c0-2.076-1.689-3.765-3.765-3.765s-3.765,1.689-3.765,3.765v6.598c-1.862,1.501-2.954,3.757-2.954,6.166,0,3.658,2.496,6.737,5.871,7.644-.357,11.583-4.369,20.366-11.955,26.099-7.711,5.828-17,6.948-22.337,7.046-.456.008-.816.38-.816.835v3.013c0,.469.381.846.849.838,5.936-.104,16.353-1.361,25.129-7.994,8.849-6.688,13.49-16.791,13.821-30.02,3.073-1.091,5.284-4.02,5.284-7.462Zm-13.077.057c0-.803.653-1.456,1.456-1.456h2.415c.803,0,1.456.653,1.456,1.456s-.653,1.456-1.456,1.456h-2.415c-.803,0-1.456-.653-1.456-1.456Zm5.154,5.357c-1.387,0-2.65-.529-3.609-1.39h2.326c2.187,0,3.966-1.779,3.966-3.967s-1.779-3.966-3.966-3.966h-2.415c-.01,0-.019.001-.028.001.225-.215.463-.418.727-.595.376-.251.587-.685.554-1.136-.003-.043-.008-.086-.015-.139V3.765c0-.692.563-1.255,1.255-1.255s1.255.563,1.255,1.255v6.226c0,.598.423,1.114,1.01,1.231,2.523.503,4.354,2.735,4.354,5.308,0,2.985-2.428,5.414-5.413,5.414Z"/><path d="m14.905,86.036h0v-.002c.003-.068.005-.112.005-.135,0-.39-.222-.605-.626-.605l-.123.003c-.254.009-.929.033-2.407.033h-5.177c-1.411,0-2.118-.023-2.404-.033l-.148-.004c-.384,0-.605.22-.605.608l.004.122c.009.201.033.735.033,1.946v1.497c0,2.229-.026,2.89-.034,3.108l-.003.109c0,.137.044.586.605.586h.888c.561,0,.605-.449.605-.586v-.393h7.295v.301c0,.384.22.605.605.605h.869c.402,0,.624-.215.624-.608l-.003-.092c-.009-.208-.034-.841-.034-3.085v-1.701c0-.975.023-1.466.033-1.675Zm-2.342,4.342h-6.796c-.137,0-.25-.112-.25-.249v-2.636c0-.137.112-.25.25-.25h6.796c.137,0,.249.112.249.25v2.636c0,.137-.112.249-.249.249Z"/><path d="m18.106,82.715h0c-3.182-1.177-5.817-3.129-7.833-5.802.096-.124.145-.266.145-.424,0-.467-.457-.602-.612-.648-.31-.073-.694-.147-1.176-.228-.219-.033-.439.095-.51.308-.112.336-.202.543-.469.951-1.597,2.517-4.218,4.675-7.379,6.076-.145.065-.246.198-.267.355-.022.157.038.313.16.415.205.17.349.34.497.586.118.198.265.443.609.443.161,0,.282-.06.489-.162,1.03-.535,1.966-1.102,2.858-1.734.01-.002.019-.007.028-.013.096-.07.225-.129.249-.115,0,0,.006.009.006.038v.512c0,.384.22.605.608.605l.143-.005c.236-.01.789-.032,2.017-.032h2.958c1.209,0,1.798.023,2.037.033l.127.004c.384,0,.605-.22.605-.605v-.512c0-.023.004-.035.002-.035.038-.015.156.046.249.116.01.007.021.011.031.013.964.639,1.973,1.182,2.99,1.609.155.089.326.171.523.171.401,0,.56-.351.655-.56.103-.22.254-.436.427-.609.111-.111.156-.269.123-.421-.034-.152-.141-.276-.287-.331Zm-7.48-.805h-2.958c-.527,0-.983-.004-1.356-.012-.069-.002-.124-.04-.147-.104-.019-.053-.016-.13.05-.188,1.019-.886,1.912-1.846,2.73-2.936.031-.042.078-.066.129-.066h0c.05,0,.097.023.128.065.819,1.079,1.759,2.067,2.793,2.936.069.058.073.135.053.189-.023.064-.078.104-.149.105-.314.006-.731.01-1.274.01Z"/><path d="m49.184,85.296c-1.563-.484-3.041-1.206-4.275-2.089-.056-.04-.091-.1-.099-.169-.007-.073.017-.146.066-.201.782-.862,1.455-1.819,2.054-2.923.131-.23.183-.278.227-.309.245-.164.369-.379.369-.639,0-.269-.13-.444-.43-.786-.302-.301-.542-.43-.804-.43-.15,0-.275.047-.358.09-.029.002-.101.002-.141.002h-2.746c-.09,0-.342-.029-.429-.162-.046-.069-.042-.165.009-.285.056-.127.093-.192.124-.219.212-.17.319-.364.319-.578,0-.403-.344-.547-.515-.619-.287-.096-.643-.173-1.019-.254l-.083-.018c-.131-.027-.266.002-.372.081-.106.08-.172.202-.181.336-.013.206-.082.46-.214.781-.444,1.228-1.229,2.507-2.219,3.622v-.103c0-.402-.215-.624-.605-.624-.03,0-.075.002-.144.005-.136.007-.454.024-1.123.03h-.003c-.066,0-.129-.026-.176-.073-.048-.047-.074-.11-.074-.176v-1.122c0-.899.015-1.259.056-1.375.057-.134.128-.301.128-.53,0-.314-.247-.569-.601-.62-.452-.058-.749-.078-1.208-.096h-.007c-.139,0-.268.058-.356.16-.092.107-.128.247-.101.386.103.518.121,1.064.121,2.092v1.101c0,.068-.026.132-.074.179-.046.045-.107.07-.172.07h-.004c-1.328-.017-1.687-.024-1.755-.028-.062-.003-.102-.005-.126-.005-.39,0-.605.222-.605.624v.721c0,.384.22.605.605.605.024,0,.064-.002.126-.005.124-.006.905-.019,1.36-.026.074-.003.15.034.198.097.049.065.064.146.041.223-.688,2.295-1.519,4.076-2.614,5.606-.137.191-.107.452.069.609.109.096.237.299.319.502.161.428.412.518.594.518.316,0,.475-.253.592-.439.505-.814.963-1.718,1.361-2.687.023-.057.076-.049.091-.048.011.002.069.018.069.085-.037,2.615-.088,4.759-.112,5.789l-.003.123c-.009.387-.014.622-.014.676,0,.384.22.605.605.605h.869c.385,0,.605-.22.605-.605,0-.049-.005-.249-.014-.578-.027-1.042-.1-3.809-.135-7.267,0-.338.068-.375.068-.375.013-.001.079.026.181.168,0,0,.001,0,.002.001.132.191.263.368.403.542.08.096.179.215.318.281-.089.037-.178.072-.269.104-.151.054-.264.186-.294.344-.031.159.025.323.145.429.124.111.249.282.325.443.077.188.239.578.681.578.144,0,.274-.051.455-.129.218-.092.432-.186.642-.281.011.392.017.844.017,1.376v1.368c0,2.036-.025,2.693-.034,2.92l-.003.112c0,.137.044.586.605.586h.813c.561,0,.605-.449.605-.586,0-.415.409-.43.456-.43h3.368c.019,0,.456.005.456.43,0,.006,0,.013.002.019h-.001c0,.137.044.586.605.586h.814c.561,0,.605-.449.605-.589l-.003-.092c-.009-.202-.034-.816-.034-2.974v-1.553c0-.741.015-1.199.026-1.439.255.113.523.227.803.34.584.185.826.072,1.038-.477.103-.241.194-.417.355-.606.099-.117.133-.275.09-.423s-.156-.263-.304-.309Zm-11.164-.185c.09-.195.211-.379.35-.534.081-.09.124-.212.116-.335-.009-.123-.066-.238-.158-.317-.601-.517-1.089-1.16-1.531-2.012-.014-.041-.019-.102.009-.142.029-.04.089-.049.136-.049h.004c.129.002.241.005.338.007-.05.086-.072.188-.058.29.019.15.112.281.251.351.099.05.33.166.432.279.155.178.33.378.602.378.263,0,.426-.162.596-.332.415-.403.781-.796,1.119-1.2.052-.061.129-.09.203-.09.078.005.149.046.194.114.295.446.629.884.994,1.302.048.055.07.128.063.199-.007.067-.04.126-.093.166-1.061.798-2.283,1.492-3.64,2.063.027-.047.051-.094.073-.139Zm2.889,2.937c0-.137.112-.25.25-.25h3.782c.137,0,.249.112.249.25v2.211c0,.137-.112.249-.249.249h-3.782c-.137,0-.25-.112-.25-.249v-2.211Zm3.631-7.974c-.335.513-.722,1.013-1.151,1.483-.047.052-.115.081-.187.081h0c-.072,0-.14-.029-.186-.08-.443-.479-.817-.966-1.145-1.487-.051-.081-.054-.18-.009-.262.044-.08.125-.127.216-.127h2.256c.093,0,.174.049.218.129.045.084.041.182-.012.262Zm.489,5.846c-.172.001-.355.002-.565.002h-2.829c-.129,0-.218-.034-.234-.089-.014-.05.029-.141.159-.223.014-.009.024-.021.031-.034.603-.385,1.082-.724,1.505-1.065.089-.073.21-.074.301-.001.447.355.958.704,1.603,1.097.007.015.018.028.033.037.097.057.132.145.117.203-.016.061-.083.072-.121.073Z"/><path d="m80.412,87.242c-1.669-.897-2.937-1.732-4.436-2.783-1.311-.959-2.473-1.895-3.703-2.886l-1.009-.811c-.584-.476-.994-.765-1.769-.765-.636,0-1.156.252-1.786.861-1.266,1.153-2.565,2.293-3.656,3.21,0,0-.001.001-.003.002-.497.424-.904.673-1.452.888-.117.046-.207.144-.244.265-.037.121-.016.252.057.355.307.44.789,1.045,1.106,1.34.218.217.431.253.575.235.142-.012.348-.08.52-.326.14-.192.304-.358.621-.676,1-.938,2.488-2.344,3.69-3.486.308-.289.469-.397.594-.397.176,0,.397.135.775.475l.645.54c1.279,1.072,2.601,2.18,3.918,3.163,1.458,1.093,3.255,2.275,4.33,2.941.13.093.266.138.398.138.198,0,.386-.103.53-.306.242-.363.491-.834.632-1.198.045-.113.154-.503-.331-.78Z"/><path d="m103.201,78.189c-2.4,0-4.506.782-6.092,2.26-1.488,1.388-2.376,3.375-2.376,5.315,0,3.15,1.623,4.799,3.227,4.799,1.315,0,2.299-.677,3.188-2.186,1.132-1.833,2.049-4.681,2.481-7.615l.006.003c.061-.446.456-.648.866-.624.062.009.126.015.187.027.005,0,.01.001.014.002,2.14.408,3.658,2.176,3.658,4.429,0,3.769-3.122,5.175-5.74,5.69-.159.031-.283.158-.311.318-.028.16.046.32.185.404.315.188.527.425.62.579.168.289.392.431.679.431.082,0,.169-.011.262-.035,4.172-1.057,6.469-3.598,6.469-7.155,0-4.036-2.874-6.643-7.323-6.643Zm-3.797,8.973c-.621,1.092-1.133,1.218-1.464,1.218-.49,0-1.18-.818-1.18-2.636,0-1.373.653-2.836,1.746-3.913,0,0,.002-.001.002-.002.676-.676,1.555-1.18,2.541-1.464.246-.071.491.13.453.384-.379,2.531-1.287,4.979-2.099,6.413Z"/><path d="m141.828,90.528c-1.232.125-2.447.218-3.643.286.131-.102.209-.26.209-.478,0-.027-.002-.08-.005-.163-.01-.257-.032-.86-.032-1.964v-4.477c0-.124.025-.207.078-.26.077-.077.229-.112.492-.112h.007c1.239.002,1.821.025,2.041.033l.124.003c.384,0,.605-.22.605-.605v-.795c0-.385-.22-.605-.608-.605l-.146.005c-.261.009-.874.032-2.199.032h-5.118c-.137,0-.249-.112-.249-.249v-1.159c0-.12.088-.222.209-.244,2.215-.398,3.908-.93,5.772-1.608.168-.068.315-.078.471-.09l.117-.01c.409-.05.623-.36.623-.639,0-.251-.1-.393-.222-.539-.208-.24-.538-.588-.927-.884-.161-.124-.393-.116-.564.019-.253.196-.513.35-.82.481-1.573.636-3.31,1.123-5.165,1.446-.364-.162-.706-.268-1.107-.344-.149-.027-.296.02-.399.119-.107.101-.158.249-.138.394.09.647.125,1.293.125,2.303v1.59c0,1.816-.085,3.079-.268,3.976-.21,1.03-.526,1.891-1.455,2.995-.09.108-.126.249-.098.387.029.138.117.253.243.316.128.064.329.196.51.377.162.161.341.318.6.318.317,0,.492-.233.607-.387.753-1.01,1.202-1.959,1.501-3.176.207-.83.324-1.852.367-3.215.005-.136.116-.246.249-.246h2.467c.137,0,.25.112.25.249v4.599c0,1.135-.023,1.737-.033,1.964-.003.082-.005.135-.005.162,0,.274.117.46.321.547-.829.029-1.65.05-2.452.05-2.167,0-3.091-.228-3.486-.42-.569-.265-.899-.577-1.174-1.111-.111-.214-.17-.462-.17-.716v-3.378c0-.887.022-1.37.031-1.577.003-.072.005-.118.005-.142,0-.384-.22-.605-.605-.605-.027,0-.066.002-.133.006-.138.009-.463.031-1.198.031h-.998c-.73,0-1.035-.022-1.171-.031-.058-.003-.096-.006-.124-.006-.384,0-.605.22-.605.605v.813c0,.385.22.605.605.605.029,0,.069-.002.137-.007.147-.01.452-.03,1.157-.03h.661c.137,0,.25.112.25.249v3.373c0,.2-.077.391-.213.523-.387.38-.847.762-1.329,1.105-.328.229-.608.409-1.075.652-.215.112-.308.37-.211.588.17.379.369.743.575,1.052.194.291.434.352.602.352.147,0,.422-.05.602-.373.022-.026.058-.056.103-.095l.199-.176c.543-.457.992-.856,1.373-1.22.05-.048.108-.069.184-.065.076.007.147.048.195.112.401.545.892.954,1.498,1.249,1.066.546,3.175.66,4.756.66,1.899,0,4.151-.077,6.512-.222.616-.03.765-.242.875-.828.029-.243.113-.464.251-.658.104-.145.113-.34.023-.495-.09-.153-.265-.25-.442-.225Z"/><path d="m125.632,78.067c.91.854,1.724,2.017,2.248,2.843.056.088.17.27.407.313.033.006.065.009.096.009.204,0,.361-.12.513-.237l.472-.359c.159-.128.53-.426.223-.887-.734-1.101-1.554-2.082-2.511-3.002-.363-.3-.663-.144-.881.024l-.42.311c-.167.121-.375.273-.374.556.001.243.163.39.226.43Z"/><path d="m173.414,90.742h0c-.082-.146-.237-.233-.411-.233-.011,0-.023,0-.035.001-2.608.265-5.278.404-7.718.404-2.168,0-3.091-.228-3.486-.42-.64-.298-.989-.667-1.286-1.359-.038-.089-.058-.191-.058-.295v-3.533c0-.875.022-1.363.032-1.577.003-.073.005-.118.005-.143,0-.384-.221-.605-.605-.605-.028,0-.068.002-.133.006-.139.009-.464.031-1.198.031h-.998c-.749,0-1.052-.023-1.165-.031-.053-.003-.087-.005-.11-.005-.402,0-.624.215-.624.605v.813c0,.391.222.605.624.605.023,0,.057-.002.117-.006.129-.009.434-.031,1.159-.031h.661c.138,0,.25.112.25.249v3.372c0,.202-.079.394-.215.526-.471.456-.99.853-1.34,1.113-.364.273-.7.466-1.057.606-.117.046-.211.139-.258.257-.047.118-.042.251.012.364.19.402.427.806.655,1.116.078.093.26.31.571.31.162,0,.399-.064.603-.37.044-.066.11-.134.284-.292.423-.357.913-.774,1.377-1.217.053-.05.124-.074.19-.067.074.006.143.045.188.108.407.55.896.96,1.495,1.252.833.426,2.433.642,4.756.642,1.935,0,4.207-.077,6.567-.222.587-.029.758-.187.876-.81.03-.258.12-.505.241-.663.111-.144.125-.341.037-.501Z"/><path d="m156.558,77.984c.628.613,1.361,1.568,1.963,2.557.046.073.168.268.41.312.034.007.067.01.1.01.211,0,.377-.125.514-.227l.462-.37c.159-.127.533-.426.227-.883-.65-1.002-1.36-1.873-2.169-2.664-.379-.377-.719-.139-.884-.025l-.009.007s-.006.003-.009.005l-.425.302c-.147.094-.369.236-.388.518-.017.253.15.411.208.457Z"/><path d="m160.96,80.218h.002l.125-.003c.262-.009.957-.034,2.517-.034h1.14c.082,0,.14.022.173.066.038.051.039.127.026.172-.011.028-.021.055-.031.083-.011.031-.022.062-.034.092-.05.123-.174.204-.309.204h-.005c-.455-.006-1.84-.022-2.034-.03l-.129-.004c-.384,0-.605.221-.605.608l.004.129c.009.206.033.752.033,1.92v4.252c0,1.167-.024,1.702-.033,1.905l-.004.129c0,.385.221.605.608.605l.144-.005c.244-.008.892-.032,2.183-.032h3.457c1.346,0,1.968.024,2.203.033l.127.003c.384,0,.605-.22.605-.608l-.004-.127c-.01-.229-.033-.764-.033-1.903v-4.252c0-1.139.023-1.685.033-1.921l.004-.131c0-.384-.221-.605-.608-.605l-.125.004c-.234.009-.858.033-2.202.033h-1.036c-.101,0-.172-.023-.201-.066-.031-.046-.011-.114.003-.15.001-.003.002-.006.003-.01l.069-.171c.054-.136.183-.224.329-.224h2.128c1.486,0,2.181.024,2.443.033l.145.004c.391,0,.605-.222.605-.624v-.702c0-.402-.215-.624-.608-.624l-.144.004c-.195.007-.79.029-2.045.033-.183,0-.365-.078-.422-.182-.033-.061-.025-.129.025-.208.002-.003.003-.006.005-.009.076-.124.133-.221.162-.271.092-.15.154-.238.184-.262.114-.092.328-.263.328-.589,0-.286-.188-.533-.475-.63-.359-.14-.724-.218-1.13-.299-.117-.026-.246.001-.35.071-.101.071-.171.18-.191.301-.047.278-.121.475-.227.706-.143.326-.29.622-.463.929-.153.273-.44.443-.751.443h-.914c.007-.016.013-.033.018-.05.046-.153.025-.313-.06-.461-.322-.624-.782-1.293-1.174-1.704-.292-.292-.586-.194-.796-.124l-.486.179c-.1.034-.405.135-.492.439-.037.13-.043.33.137.547.17.204.328.419.47.637.069.105.073.233.011.345-.063.115-.178.183-.308.183h-.004c-.51-.005-1.716-.019-1.896-.026l-.122-.003c-.39,0-.605.222-.605.624v.702c0,.402.215.624.605.624Zm8.158,7.92c0,.137-.112.249-.25.249h-4.817c-.138,0-.249-.112-.249-.249v-.397c0-.137.112-.249.249-.249h4.817c.138,0,.25.112.25.249v.397Zm0-2.461c0,.138-.112.249-.25.249h-4.817c-.138,0-.249-.112-.249-.249v-.397c0-.138.112-.249.249-.249h4.817c.138,0,.25.112.25.249v.397Zm-.25-3.107c.138,0,.25.112.25.249v.397c0,.138-.112.249-.25.249h-4.817c-.138,0-.249-.112-.249-.249v-.397c0-.138.112-.249.249-.249h4.817Z"/></g></svg>