<?xml version="1.0" encoding="UTF-8"?>
<svg xmlns="http://www.w3.org/2000/svg" xmlns:xlink="http://www.w3.org/1999/xlink" width="139px" height="17px" viewBox="0 0 139 17" version="1.1">
<g id="surface1">
<path style=" stroke:none;fill-rule:nonzero;fill:rgb(23.137255%,14.117647%,10.196078%);fill-opacity:1;" d="M 9.503906 6.839844 L 12.0625 0.257812 C 12.160156 0.160156 12.257812 0.0585938 12.453125 0.0585938 L 14.8125 0.945312 C 14.910156 1.042969 15.007812 1.140625 15.007812 1.335938 L 12.453125 7.921875 C 12.355469 8.019531 12.257812 8.117188 12.0625 8.117188 L 9.703125 7.234375 C 9.503906 7.136719 9.40625 6.9375 9.503906 6.839844 Z M 9.503906 6.839844 "/>
<path style=" stroke:none;fill-rule:nonzero;fill:rgb(23.137255%,14.117647%,10.196078%);fill-opacity:1;" d="M 8.816406 8.609375 L 11.765625 9.691406 L 9.503906 12.046875 C 9.40625 12.148438 9.210938 12.148438 9.113281 11.949219 C 9.113281 11.949219 9.015625 11.851562 9.015625 11.753906 Z M 8.816406 8.609375 "/>
<path style="fill:none;stroke-width:1.511;stroke-linecap:round;stroke-linejoin:miter;stroke:rgb(23.137255%,14.117647%,10.196078%);stroke-opacity:1;stroke-miterlimit:10;" d="M -786.500194 -526.901441 L -783.399551 -522.898431 C -783.101412 -522.500913 -783.200791 -521.90066 -783.59831 -521.598546 C -783.701665 -521.499166 -783.801044 -521.499166 -783.801044 -521.499166 L -792.598126 -518.299143 C -792.999619 -518.199764 -793.401113 -518.299143 -793.699252 -518.601257 L -799.300286 -526.499948 C -799.598425 -526.901441 -799.499045 -527.501694 -799.101527 -527.799833 C -798.998172 -527.799833 -798.998172 -527.899212 -798.898792 -527.899212 L -794.100745 -529.699971 " transform="matrix(0.982659,0,0,0.982659,787.771618,525.389422)"/>
<path style=" stroke:none;fill-rule:nonzero;fill:rgb(92.941176%,42.352941%,0%);fill-opacity:1;" d="M 32.597656 5.367188 L 28.273438 5.367188 L 28.273438 4.089844 L 32.597656 4.089844 Z M 32.304688 13.71875 L 29.945312 13.71875 L 29.945312 14.210938 L 28.472656 14.210938 L 28.472656 9.589844 L 32.304688 9.589844 Z M 32.207031 3.5 L 28.570312 3.5 L 28.570312 2.320312 L 32.207031 2.320312 Z M 32.207031 7.136719 L 28.667969 7.136719 L 28.667969 5.957031 L 32.207031 5.957031 Z M 32.207031 9.003906 L 28.667969 9.003906 L 28.667969 7.824219 L 32.207031 7.824219 Z M 30.828125 12.539062 L 30.828125 10.871094 L 29.945312 10.871094 L 29.945312 12.539062 Z M 40.851562 12.046875 L 40.261719 12.046875 L 40.261719 13.03125 C 40.261719 13.324219 40.066406 13.621094 39.871094 13.914062 C 39.574219 14.113281 39.28125 14.308594 38.984375 14.308594 L 37.414062 14.308594 L 37.214844 12.835938 L 38.199219 12.835938 C 38.394531 12.835938 38.59375 12.734375 38.59375 12.539062 L 38.59375 12.148438 L 35.054688 12.148438 L 35.054688 14.308594 L 33.285156 14.308594 L 33.285156 12.148438 L 32.695312 12.148438 L 32.695312 11.066406 L 33.285156 11.066406 L 33.285156 7.824219 L 36.039062 7.824219 L 36.039062 7.234375 L 32.792969 7.234375 L 32.792969 6.152344 L 34.367188 6.152344 L 34.367188 5.464844 L 33.285156 5.464844 L 33.285156 4.480469 L 34.367188 4.480469 L 34.367188 3.890625 L 32.992188 3.890625 L 32.992188 2.8125 L 34.367188 2.8125 L 34.367188 2.125 L 36.136719 2.125 L 36.136719 2.8125 L 37.609375 2.8125 L 37.609375 2.125 L 39.378906 2.125 L 39.378906 2.8125 L 40.753906 2.8125 L 40.753906 3.792969 L 39.378906 3.792969 L 39.378906 4.382812 L 40.359375 4.382812 L 40.359375 5.367188 L 39.378906 5.367188 L 39.378906 6.054688 L 40.851562 6.054688 L 40.851562 7.136719 L 37.609375 7.136719 L 37.609375 7.726562 L 40.359375 7.726562 L 40.359375 10.96875 L 40.949219 10.96875 L 40.949219 12.046875 Z M 36.039062 8.707031 L 35.054688 8.707031 L 35.054688 9.394531 L 36.039062 9.394531 Z M 35.054688 10.96875 L 36.039062 10.96875 L 36.039062 10.28125 L 35.054688 10.28125 Z M 36.039062 3.792969 L 36.039062 4.382812 L 37.511719 4.382812 L 37.511719 3.792969 Z M 36.039062 6.054688 L 37.511719 6.054688 L 37.511719 5.367188 L 36.039062 5.367188 Z M 38.59375 9.296875 L 38.59375 8.609375 L 37.511719 8.609375 L 37.511719 9.296875 Z M 37.511719 10.96875 L 38.59375 10.96875 L 38.59375 10.28125 L 37.511719 10.28125 Z M 37.511719 10.96875 "/>
<path style=" stroke:none;fill-rule:nonzero;fill:rgb(92.941176%,42.352941%,0%);fill-opacity:1;" d="M 66.207031 13.226562 L 66.695312 11.65625 C 67.285156 11.949219 67.875 12.148438 68.5625 12.148438 C 69.152344 12.148438 69.644531 12.046875 70.136719 11.65625 C 70.527344 11.359375 70.726562 10.871094 70.726562 10.378906 C 70.726562 9.789062 70.429688 9.199219 69.9375 8.902344 C 69.25 8.511719 68.464844 8.3125 67.679688 8.414062 C 67.089844 8.414062 66.402344 8.511719 65.8125 8.609375 L 65.8125 12.34375 C 65.8125 12.835938 65.617188 13.324219 65.125 13.621094 C 64.632812 13.914062 64.042969 14.113281 63.453125 14.113281 C 62.667969 14.113281 61.78125 13.816406 61.195312 13.324219 C 60.605469 12.835938 60.210938 12.046875 60.308594 11.359375 C 60.308594 10.574219 60.703125 9.691406 61.292969 9.199219 C 61.980469 8.511719 62.863281 7.921875 63.847656 7.625 L 63.847656 5.957031 L 60.703125 5.957031 L 60.703125 4.382812 L 63.847656 4.382812 L 63.847656 2.222656 L 65.8125 2.222656 L 65.8125 4.382812 L 69.054688 4.382812 L 69.054688 5.957031 L 65.8125 5.957031 L 65.8125 7.136719 C 66.402344 7.035156 67.089844 6.9375 67.679688 6.9375 C 68.957031 6.839844 70.234375 7.234375 71.414062 7.824219 C 72.296875 8.414062 72.886719 9.394531 72.789062 10.476562 C 72.886719 11.457031 72.496094 12.441406 71.707031 13.128906 C 70.921875 13.816406 69.9375 14.113281 68.859375 14.113281 C 67.875 13.816406 66.992188 13.621094 66.207031 13.226562 Z M 63.75 9.003906 C 62.570312 9.589844 61.980469 10.179688 61.980469 10.96875 C 61.980469 11.261719 62.175781 11.558594 62.371094 11.753906 C 62.667969 11.949219 62.960938 12.046875 63.355469 12.046875 C 63.550781 12.046875 63.75 11.949219 63.75 11.753906 C 63.75 11.753906 63.75 11.65625 63.75 11.65625 Z M 73.183594 5.464844 L 71.707031 6.644531 C 71.117188 6.054688 70.628906 5.367188 69.9375 4.875 C 69.351562 4.285156 68.660156 3.695312 68.070312 3.203125 L 69.25 2.023438 C 69.9375 2.515625 70.628906 3.007812 71.316406 3.597656 C 72.003906 4.089844 72.59375 4.777344 73.183594 5.464844 Z M 73.183594 5.464844 "/>
<path style=" stroke:none;fill-rule:nonzero;fill:rgb(92.941176%,42.352941%,0%);fill-opacity:1;" d="M 83.105469 14.015625 L 81.140625 14.015625 L 81.140625 10.671875 L 78.09375 10.671875 L 78.09375 11.066406 L 76.128906 11.066406 L 76.128906 2.8125 L 81.140625 2.8125 L 81.140625 1.632812 L 83.105469 1.632812 L 83.105469 2.8125 L 88.117188 2.8125 L 88.117188 11.164062 L 86.152344 11.164062 L 86.152344 10.769531 L 83.007812 10.769531 L 83.007812 14.015625 Z M 81.140625 4.285156 L 78.09375 4.285156 L 78.09375 5.957031 L 81.140625 5.957031 Z M 81.140625 7.429688 L 78.09375 7.429688 L 78.09375 9.199219 L 81.140625 9.199219 Z M 86.152344 5.957031 L 86.152344 4.285156 L 83.007812 4.285156 L 83.007812 5.957031 Z M 86.152344 9.101562 L 86.152344 7.332031 L 83.007812 7.332031 L 83.007812 9.101562 Z M 86.152344 9.101562 "/>
<path style=" stroke:none;fill-rule:nonzero;fill:rgb(92.941176%,42.352941%,0%);fill-opacity:1;" d="M 104.824219 12.148438 L 104.527344 13.71875 L 100.007812 13.71875 C 98.535156 13.71875 97.160156 13.621094 95.683594 13.425781 C 95.09375 13.226562 94.503906 12.835938 94.113281 12.34375 C 93.425781 12.933594 92.738281 13.523438 91.949219 13.914062 L 91.359375 12.34375 C 92.050781 12.046875 92.636719 11.753906 93.128906 11.261719 L 93.128906 7.824219 L 91.65625 7.824219 L 91.65625 6.347656 L 94.898438 6.347656 L 94.898438 10.871094 C 94.898438 11.164062 94.996094 11.457031 95.292969 11.65625 C 95.585938 11.851562 95.882812 12.046875 96.175781 12.148438 C 96.570312 12.246094 96.960938 12.34375 97.453125 12.34375 C 97.945312 12.34375 98.730469 12.34375 100.007812 12.34375 C 102.464844 12.34375 104.039062 12.246094 104.824219 12.148438 Z M 95.195312 4.382812 L 93.523438 5.269531 C 93.226562 4.777344 93.03125 4.382812 92.738281 3.890625 C 92.34375 3.203125 91.949219 2.8125 91.753906 2.515625 L 93.328125 1.632812 C 94.015625 2.515625 94.605469 3.5 95.195312 4.382812 Z M 99.910156 7.527344 C 99.222656 9.296875 97.847656 10.769531 96.175781 11.65625 L 95.195312 10.378906 C 96.273438 9.789062 97.257812 8.902344 97.847656 7.824219 C 98.535156 6.742188 98.828125 5.464844 98.925781 4.1875 C 98.925781 3.992188 98.925781 3.792969 98.828125 3.597656 L 96.273438 3.597656 L 96.273438 2.125 L 100.792969 2.125 L 100.792969 2.320312 C 100.792969 3.300781 100.792969 4.382812 100.992188 5.367188 C 101.089844 5.957031 101.382812 6.644531 101.679688 7.234375 C 101.972656 7.824219 102.367188 8.414062 102.859375 9.003906 C 103.351562 9.589844 103.9375 10.082031 104.527344 10.476562 L 103.152344 11.949219 C 102.464844 11.457031 101.777344 10.769531 101.285156 10.082031 C 100.792969 9.199219 100.304688 8.414062 99.910156 7.527344 Z M 99.910156 7.527344 "/>
<path style=" stroke:none;fill-rule:nonzero;fill:rgb(92.941176%,42.352941%,0%);fill-opacity:1;" d="M 121.136719 8.3125 L 120.546875 10.082031 L 118.972656 9.492188 C 118.484375 11.457031 117.105469 13.128906 115.339844 14.113281 L 114.160156 12.835938 C 114.945312 12.34375 115.632812 11.65625 116.125 10.96875 C 116.617188 10.378906 116.910156 9.589844 117.007812 8.804688 C 116.027344 8.511719 115.042969 8.3125 114.0625 8.117188 C 112.683594 11.359375 111.113281 13.03125 109.539062 13.03125 C 108.949219 13.03125 108.460938 12.835938 108.066406 12.34375 C 107.671875 11.949219 107.476562 11.359375 107.476562 10.769531 C 107.476562 9.589844 107.96875 8.511719 108.851562 7.726562 C 109.835938 6.742188 111.113281 6.25 112.488281 6.347656 L 112.585938 6.347656 C 112.78125 5.5625 112.980469 4.777344 113.078125 3.992188 L 109.148438 3.992188 L 109.148438 2.417969 L 114.945312 2.417969 L 115.238281 2.714844 C 115.140625 3.992188 114.945312 5.269531 114.648438 6.546875 C 115.535156 6.644531 116.417969 6.839844 117.304688 7.136719 C 117.304688 6.839844 117.304688 6.347656 117.304688 5.660156 L 117.304688 4.875 L 119.269531 4.875 L 119.269531 6.054688 C 119.269531 6.644531 119.269531 7.136719 119.171875 7.726562 Z M 112.292969 8.117188 C 111.703125 8.117188 111.210938 8.3125 110.71875 8.707031 C 110.328125 9.003906 110.03125 9.394531 109.835938 9.886719 C 109.636719 10.179688 109.636719 10.574219 109.539062 10.96875 C 109.539062 11.261719 109.636719 11.359375 109.835938 11.359375 C 110.621094 11.261719 111.40625 10.179688 112.292969 8.117188 Z M 112.292969 8.117188 "/>
<path style="fill-rule:nonzero;fill:rgb(92.941176%,42.352941%,0%);fill-opacity:1;stroke-width:0.65;stroke-linecap:butt;stroke-linejoin:miter;stroke:rgb(92.941176%,42.352941%,0%);stroke-opacity:1;stroke-miterlimit:10;" d="M 55.899655 4.098415 L 45.798713 4.098415 L 45.798713 7.000299 C 45.798713 8.999816 45.599954 12.00108 44.598208 14.000597 C 44.399449 13.801838 44.10131 13.599104 43.898575 13.499724 C 44.900322 11.599586 44.999701 8.900437 44.999701 7.000299 L 44.999701 3.299403 L 50.000483 3.299403 L 50.000483 1.800758 L 50.998254 1.900138 C 50.998254 1.999517 50.998254 2.098897 50.799494 2.098897 L 50.799494 3.299403 L 55.899655 3.299403 Z M 51.300368 10.701195 L 51.300368 12.800092 L 55.899655 12.800092 L 55.899655 13.599104 L 45.798713 13.599104 L 45.798713 12.800092 L 50.401976 12.800092 L 50.401976 10.701195 L 46.70108 10.701195 L 46.70108 9.898208 L 50.401976 9.898208 L 50.401976 4.698667 L 51.499127 4.798047 C 51.499127 4.901402 51.399747 5.000781 51.300368 5.000781 L 51.300368 10.001563 L 55.100643 10.001563 L 55.100643 10.800574 L 51.300368 10.800574 Z M 49.598989 8.999816 C 49.30085 8.598323 48.700597 7.99807 48.199724 7.401792 C 47.798231 8.200804 47.301333 8.900437 46.70108 9.40131 C 46.6017 9.198575 46.299586 8.999816 46.100827 8.900437 C 47.201953 8.101425 47.901585 6.698185 48.100345 5.000781 L 49.098116 5.19954 C 49.098116 5.29892 48.998736 5.29892 48.899357 5.3983 C 48.799977 5.899173 48.700597 6.400046 48.501838 6.80154 C 49.098116 7.401792 49.901103 8.101425 50.199242 8.498943 Z M 55.398782 9.30193 C 55.001264 8.801057 54.198277 7.99807 53.399265 7.401792 C 53.001746 8.101425 52.500873 8.801057 51.90062 9.198575 C 51.801241 9.099196 51.499127 8.801057 51.300368 8.701677 C 52.401494 7.99807 53.101126 6.598805 53.299885 5.000781 L 54.301631 5.19954 C 54.301631 5.29892 54.198277 5.29892 54.098897 5.3983 C 53.999517 5.899173 53.900138 6.300666 53.701379 6.80154 C 54.500391 7.401792 55.398782 8.300184 55.899655 8.801057 Z M 55.398782 9.30193 " transform="matrix(0.982659,0,0,0.982659,1.401734,0)"/>
</g>
</svg>
