<?xml version="1.0" encoding="UTF-8"?>
<svg id="_レイヤー_1" data-name="レイヤー_1" xmlns="http://www.w3.org/2000/svg" version="1.1" viewBox="0 0 139 17">
  <!-- Generator: Adobe Illustrator 29.4.0, SVG Export Plug-In . SVG Version: 2.1.0 Build 152)  -->
  <defs>
    <style>
      .st0 {
        stroke: #ff4500;
        stroke-width: .6px;
      }

      .st0, .st1 {
        fill: #ff4500;
      }

      .st0, .st2 {
        stroke-miterlimit: 9.8;
      }

      .st2 {
        fill: none;
        stroke: #3b241a;
        stroke-linecap: round;
        stroke-width: 1.5px;
      }

      .st3 {
        fill: #3b241a;
      }
    </style>
  </defs>
  <g id="surface1">
    <path class="st3" d="M9.5,6.8L12.1.3c0,0,.2-.2.4-.2l2.4.9c0,0,.2.2.2.4l-2.6,6.6c0,0-.2.2-.4.2l-2.4-.9c-.2,0-.3-.3-.2-.4Z"/>
    <path class="st3" d="M8.8,8.6l2.9,1.1-2.3,2.4c0,.1-.3.1-.4,0,0,0,0,0,0-.2l-.2-3.1Z"/>
    <path class="st2" d="M14.9,7.6l3,3.9c.3.4.2,1-.2,1.3-.1,0-.2,0-.2,0l-8.6,3.1c-.4,0-.8,0-1.1-.3l-5.5-7.8c-.3-.4-.2-1,.2-1.3.1,0,.1,0,.2,0l4.7-1.8"/>
    <path class="st1" d="M32.6,5.4h-4.3v-1.3h4.3v1.3ZM32.3,13.7h-2.4v.5h-1.5v-4.6h3.8v4.1ZM32.2,3.5h-3.6v-1.2h3.6v1.2ZM32.2,7.1h-3.5v-1.2h3.5v1.2ZM32.2,9h-3.5v-1.2h3.5v1.2ZM30.8,12.5v-1.7h-.9v1.7h.9ZM40.9,12h-.6v1c0,.3-.2.6-.4.9-.3.2-.6.4-.9.4h-1.6l-.2-1.5h1c.2,0,.4-.1.4-.3v-.4h-3.5v2.2h-1.8v-2.2h-.6v-1.1h.6v-3.2h2.8v-.6h-3.2v-1.1h1.6v-.7h-1.1v-1h1.1v-.6h-1.4v-1.1h1.4v-.7h1.8v.7h1.5v-.7h1.8v.7h1.4v1h-1.4v.6h1v1h-1v.7h1.5v1.1h-3.2v.6h2.8v3.2h.6v1.1h0ZM36,8.7h-1v.7h1v-.7ZM35.1,11h1v-.7h-1v.7ZM36,3.8v.6h1.5v-.6h-1.5ZM36,6.1h1.5v-.7h-1.5v.7ZM38.6,9.3v-.7h-1.1v.7h1.1ZM37.5,11h1.1v-.7h-1.1v.7Z"/>
    <path class="st1" d="M66.2,13.2l.5-1.6c.6.3,1.2.5,1.9.5s1.1-.1,1.6-.5c.4-.3.6-.8.6-1.3s-.3-1.2-.8-1.5c-.7-.4-1.5-.6-2.3-.5-.6,0-1.3,0-1.9.2v3.7c0,.5-.2,1-.7,1.3-.5.3-1.1.5-1.7.5s-1.7-.3-2.3-.8c-.6-.5-1-1.3-.9-2,0-.8.4-1.7,1-2.2.7-.7,1.6-1.3,2.6-1.6v-1.7h-3.1v-1.6h3.1v-2.2h2v2.2h3.2v1.6h-3.2v1.2c.6-.1,1.3-.2,1.9-.2,1.3,0,2.6.3,3.7.9.9.6,1.5,1.6,1.4,2.7,0,1-.3,2-1.1,2.7-.8.7-1.8,1-2.8,1-1-.3-1.9-.5-2.7-.9ZM63.8,9c-1.2.6-1.8,1.2-1.8,2s.2.6.4.8c.3.2.6.3,1,.3s.4,0,.4-.3h0v-2.8ZM73.2,5.5l-1.5,1.2c-.6-.6-1.1-1.3-1.8-1.8-.6-.6-1.3-1.2-1.9-1.7l1.2-1.2c.7.5,1.4,1,2.1,1.6.7.5,1.3,1.2,1.9,1.9Z"/>
    <path class="st1" d="M83.1,14h-2v-3.3h-3v.4h-2V2.8h5v-1.2h2v1.2h5v8.4h-2v-.4h-3.1v3.2h0ZM81.1,4.3h-3v1.7h3v-1.7ZM81.1,7.4h-3v1.8h3v-1.8ZM86.2,6v-1.7h-3.1v1.7h3.1ZM86.2,9.1v-1.8h-3.1v1.8h3.1Z"/>
    <path class="st1" d="M104.8,12.1l-.3,1.6h-4.5c-1.5,0-2.8,0-4.3-.3-.6-.2-1.2-.6-1.6-1.1-.7.6-1.4,1.2-2.2,1.6l-.6-1.6c.7-.3,1.3-.6,1.8-1.1v-3.4h-1.5v-1.5h3.2v4.5c0,.3,0,.6.4.8.3.2.6.4.9.5.4,0,.8.2,1.3.2h2.6c2.5,0,4,0,4.8-.2ZM95.2,4.4l-1.7.9c-.3-.5-.5-.9-.8-1.4-.4-.7-.8-1.1-1-1.4l1.6-.9c.7.9,1.3,1.9,1.9,2.8ZM99.9,7.5c-.7,1.8-2.1,3.2-3.7,4.1l-1-1.3c1.1-.6,2.1-1.5,2.7-2.6.7-1.1,1-2.4,1.1-3.6,0-.2,0-.4,0-.6h-2.6v-1.5h4.5v.2c0,1,0,2.1.2,3,0,.6.4,1.3.7,1.9.3.6.7,1.2,1.2,1.8.5.6,1.1,1.1,1.7,1.5l-1.4,1.5c-.7-.5-1.4-1.2-1.9-1.9-.5-.9-1-1.7-1.4-2.6Z"/>
    <path class="st1" d="M121.1,8.3l-.6,1.8-1.6-.6c-.5,2-1.9,3.6-3.6,4.6l-1.2-1.3c.8-.5,1.5-1.2,2-1.9.5-.6.8-1.4.9-2.2-1-.3-2-.5-2.9-.7-1.4,3.2-2.9,4.9-4.5,4.9s-1.1-.2-1.5-.7c-.4-.4-.6-1-.6-1.6,0-1.2.5-2.3,1.4-3,1-1,2.3-1.5,3.6-1.4h0c.2-.8.4-1.6.5-2.4h-3.9v-1.6h5.8l.3.3c0,1.3-.3,2.6-.6,3.8.9,0,1.8.3,2.7.6v-2.3h2v1.2c0,.6,0,1.1,0,1.7l2,.6ZM112.3,8.1c-.6,0-1.1.2-1.6.6-.4.3-.7.7-.9,1.2-.2.3-.2.7-.3,1.1,0,.3,0,.4.3.4.8,0,1.6-1.2,2.5-3.2Z"/>
    <path class="st0" d="M56.3,4h-9.9v2.9c0,2-.2,4.9-1.2,6.9-.2-.2-.5-.4-.7-.5,1-1.9,1.1-4.5,1.1-6.4v-3.6h4.9v-1.5h1c0,.2,0,.3-.2.3v1.2h5v.8ZM51.8,10.5v2.1h4.5v.8h-9.9v-.8h4.5v-2.1h-3.6v-.8h3.6v-5.1h1.1c0,.2,0,.3-.2.3v4.9h3.7v.8h-3.7ZM50.1,8.8c-.3-.4-.9-1-1.4-1.6-.4.8-.9,1.5-1.5,2,0-.2-.4-.4-.6-.5,1.1-.8,1.8-2.2,2-3.8l1,.2c0,0,0,0-.2.2,0,.5-.2,1-.4,1.4.6.6,1.4,1.3,1.7,1.7l-.6.5ZM55.8,9.1c-.4-.5-1.2-1.3-2-1.9-.4.7-.9,1.4-1.5,1.8,0,0-.4-.4-.6-.5,1.1-.7,1.8-2.1,2-3.6l1,.2c0,0-.1,0-.2.2,0,.5-.2.9-.4,1.4.8.6,1.7,1.5,2.2,2l-.5.5Z"/>
  </g>
</svg>