<?xml version="1.0" encoding="UTF-8"?>
<svg xmlns="http://www.w3.org/2000/svg" xmlns:xlink="http://www.w3.org/1999/xlink" width="155px" height="21px" viewBox="0 0 156 21" version="1.1">
<g id="surface1">
<path style=" stroke:none;fill-rule:nonzero;fill:rgb(23.137255%,14.117647%,10.196078%);fill-opacity:1;" d="M 8.132812 9.253906 L 10.746094 2.519531 C 10.800781 2.375 10.964844 2.300781 11.109375 2.359375 L 13.535156 3.304688 C 13.679688 3.363281 13.75 3.527344 13.695312 3.671875 L 11.085938 10.410156 C 11.027344 10.554688 10.863281 10.625 10.71875 10.570312 L 8.292969 9.621094 C 8.148438 9.5625 8.078125 9.402344 8.132812 9.253906 Z M 8.132812 9.253906 "/>
<path style=" stroke:none;fill-rule:nonzero;fill:rgb(23.137255%,14.117647%,10.196078%);fill-opacity:1;" d="M 7.429688 11.109375 L 10.382812 12.257812 L 8.042969 14.683594 C 7.910156 14.792969 7.710938 14.761719 7.597656 14.632812 C 7.570312 14.589844 7.539062 14.53125 7.539062 14.480469 Z M 7.429688 11.109375 "/>
<path style="fill:none;stroke-width:1.5;stroke-linecap:round;stroke-linejoin:miter;stroke:rgb(23.137255%,14.117647%,10.196078%);stroke-opacity:1;stroke-miterlimit:10;" d="M 13.578583 9.999121 L 16.699248 13.999757 C 17.010149 14.398273 16.940196 14.978636 16.539912 15.288163 C 16.4583 15.350068 16.380575 15.400366 16.291191 15.431319 L 7.531567 18.631054 C 7.139055 18.770341 6.711567 18.631054 6.470619 18.298312 L 0.921043 10.451804 C 0.629574 10.041681 0.718958 9.469056 1.119242 9.178874 C 1.189195 9.128576 1.270806 9.089885 1.348531 9.058933 L 6.159718 7.279153 " transform="matrix(1.005144,0,0,1.009605,0,0.00249262)"/>
<path style=" stroke:none;fill-rule:nonzero;fill:rgb(92.941176%,42.352941%,0%);fill-opacity:1;" d="M 34.839844 7.847656 L 30.445312 7.847656 L 30.445312 6.496094 L 34.839844 6.496094 Z M 34.566406 16.296875 L 32.164062 16.296875 L 32.164062 16.8125 L 30.695312 16.8125 L 30.695312 12.148438 L 34.566406 12.148438 L 34.566406 16.308594 Z M 34.535156 5.878906 L 30.878906 5.878906 L 30.878906 4.675781 L 34.535156 4.675781 Z M 34.464844 9.644531 L 30.898438 9.644531 L 30.898438 8.472656 L 34.464844 8.472656 Z M 34.464844 11.5 L 30.898438 11.5 L 30.898438 10.3125 L 34.464844 10.3125 Z M 33.109375 15.074219 L 33.109375 13.359375 L 32.203125 13.359375 L 32.203125 15.074219 Z M 43.300781 14.582031 L 42.738281 14.582031 L 42.738281 15.539062 C 42.738281 15.875 42.597656 16.167969 42.328125 16.398438 C 42.054688 16.628906 41.742188 16.75 41.390625 16.75 L 39.742188 16.75 L 39.542969 15.277344 L 40.578125 15.277344 C 40.828125 15.277344 40.960938 15.167969 40.960938 14.933594 L 40.960938 14.582031 L 37.390625 14.582031 L 37.390625 16.832031 L 35.5625 16.832031 L 35.5625 14.582031 L 34.96875 14.582031 L 34.96875 13.460938 L 35.5625 13.460938 L 35.5625 10.167969 L 38.355469 10.167969 L 38.355469 9.605469 L 35.007812 9.605469 L 35.007812 8.523438 L 36.628906 8.523438 L 36.628906 7.867188 L 35.5 7.867188 L 35.5 6.867188 L 36.628906 6.867188 L 36.628906 6.242188 L 35.25 6.242188 L 35.25 5.191406 L 36.628906 5.191406 L 36.628906 4.464844 L 38.398438 4.464844 L 38.398438 5.191406 L 39.925781 5.191406 L 39.925781 4.464844 L 41.695312 4.464844 L 41.695312 5.191406 L 43.050781 5.191406 L 43.050781 6.242188 L 41.695312 6.242188 L 41.695312 6.867188 L 42.699219 6.867188 L 42.699219 7.867188 L 41.695312 7.867188 L 41.695312 8.523438 L 43.210938 8.523438 L 43.210938 9.605469 L 39.945312 9.605469 L 39.945312 10.167969 L 42.738281 10.167969 L 42.738281 13.460938 L 43.300781 13.460938 Z M 38.386719 11.179688 L 37.382812 11.179688 L 37.382812 11.84375 L 38.386719 11.84375 Z M 37.382812 13.460938 L 38.386719 13.460938 L 38.386719 12.742188 L 37.382812 12.742188 Z M 38.386719 6.242188 L 38.386719 6.867188 L 39.914062 6.867188 L 39.914062 6.242188 Z M 38.386719 8.523438 L 39.914062 8.523438 L 39.914062 7.867188 L 38.386719 7.867188 Z M 40.949219 11.84375 L 40.949219 11.179688 L 39.894531 11.179688 L 39.894531 11.84375 Z M 39.894531 13.46875 L 40.949219 13.46875 L 40.949219 12.753906 L 39.894531 12.753906 Z M 39.894531 13.46875 "/>
<path style=" stroke:none;fill-rule:nonzero;fill:rgb(92.941176%,42.352941%,0%);fill-opacity:1;" d="M 51.300781 8.351562 C 51.070312 8.503906 50.527344 8.746094 49.664062 9.046875 C 48.800781 9.351562 48.066406 9.582031 47.464844 9.726562 L 47.050781 8.402344 C 47.632812 8.269531 48.347656 8.078125 49.171875 7.816406 C 49.996094 7.554688 50.628906 7.320312 51.0625 7.121094 Z M 50.226562 6.90625 L 49.101562 7.796875 L 47.652344 6.433594 L 48.226562 6.007812 L 47.222656 6.007812 L 47.222656 4.808594 L 53.070312 4.808594 L 53.070312 9.21875 C 53.070312 9.5625 52.929688 9.835938 52.648438 10.046875 C 52.367188 10.261719 52.054688 10.351562 51.714844 10.351562 L 50.207031 10.351562 L 49.976562 8.96875 L 51.113281 8.96875 C 51.324219 8.96875 51.421875 8.875 51.421875 8.683594 L 51.421875 6.007812 L 49.222656 6.007812 L 50.21875 6.898438 Z M 56.832031 16.105469 L 49.914062 16.105469 L 49.914062 16.53125 L 48.035156 16.53125 L 48.035156 10.824219 L 52.417969 10.824219 C 52.667969 10.351562 52.839844 9.996094 52.941406 9.765625 L 54.691406 10.039062 L 54.207031 10.824219 L 58.730469 10.824219 L 58.730469 16.53125 L 56.832031 16.53125 Z M 56.832031 12.855469 L 56.832031 12.066406 L 49.914062 12.066406 L 49.914062 12.855469 Z M 49.914062 14.78125 L 56.832031 14.78125 L 56.832031 13.964844 L 49.914062 13.964844 Z M 57.613281 8.363281 C 57.382812 8.511719 56.839844 8.753906 55.976562 9.058594 C 55.113281 9.363281 54.378906 9.59375 53.773438 9.734375 L 53.375 8.414062 C 53.9375 8.292969 54.640625 8.097656 55.484375 7.835938 C 56.328125 7.574219 56.953125 7.332031 57.382812 7.128906 L 57.625 8.363281 Z M 56.550781 6.90625 L 55.421875 7.796875 L 53.976562 6.433594 L 54.550781 6.007812 L 53.472656 6.007812 L 53.472656 4.808594 L 59.472656 4.808594 L 59.472656 9.160156 C 59.472656 9.523438 59.34375 9.804688 59.074219 10.019531 C 58.800781 10.230469 58.488281 10.339844 58.117188 10.339844 L 56.53125 10.339844 L 56.296875 8.957031 L 57.464844 8.957031 C 57.675781 8.957031 57.777344 8.867188 57.777344 8.675781 L 57.777344 6 L 55.554688 6 L 56.550781 6.886719 Z M 56.550781 6.90625 "/>
<path style=" stroke:none;fill-rule:nonzero;fill:rgb(92.941176%,42.352941%,0%);fill-opacity:1;" d="M 73.898438 10.066406 L 66.269531 10.066406 L 66.269531 9.28125 C 65.425781 9.816406 64.652344 10.21875 63.957031 10.492188 L 63.050781 9.019531 C 64.039062 8.625 65.164062 7.957031 66.421875 7.019531 C 67.675781 6.082031 68.539062 5.210938 69.003906 4.414062 L 70.863281 4.414062 C 72.351562 6.292969 74.390625 7.757812 76.984375 8.796875 L 75.980469 10.421875 C 75.324219 10.160156 74.632812 9.804688 73.886719 9.363281 L 73.886719 10.066406 Z M 73.617188 16.167969 C 71.445312 16.410156 68.359375 16.628906 64.390625 16.832031 L 64.097656 15.136719 L 65.886719 15.074219 C 66.371094 14.339844 66.820312 13.570312 67.246094 12.773438 L 63.925781 12.773438 L 63.925781 11.117188 L 76.140625 11.117188 L 76.140625 12.773438 L 73.304688 12.773438 C 74.472656 13.964844 75.425781 15.097656 76.160156 16.1875 L 74.109375 16.964844 C 74.007812 16.75 73.839844 16.488281 73.617188 16.167969 Z M 67.464844 8.464844 L 72.5625 8.464844 C 71.507812 7.6875 70.660156 6.90625 70.007812 6.101562 C 69.394531 6.867188 68.550781 7.65625 67.457031 8.464844 Z M 68.148438 14.976562 C 69.957031 14.875 71.394531 14.78125 72.460938 14.683594 C 72.007812 14.125 71.605469 13.664062 71.253906 13.277344 L 72.167969 12.785156 L 69.445312 12.785156 C 69.042969 13.53125 68.609375 14.269531 68.140625 14.976562 Z M 68.148438 14.976562 "/>
<path style=" stroke:none;fill-rule:nonzero;fill:rgb(92.941176%,42.352941%,0%);fill-opacity:1;" d="M 85.234375 16.175781 L 85.699219 14.570312 C 86.363281 14.882812 86.984375 15.035156 87.589844 15.035156 C 88.25 15.035156 88.773438 14.875 89.167969 14.5625 C 89.558594 14.246094 89.75 13.792969 89.75 13.21875 C 89.75 12.542969 89.46875 12.015625 88.914062 11.671875 C 88.363281 11.320312 87.589844 11.148438 86.601562 11.148438 C 85.988281 11.148438 85.347656 11.210938 84.664062 11.332031 L 84.664062 15.136719 C 84.664062 15.683594 84.441406 16.105469 84 16.410156 C 83.558594 16.710938 83.003906 16.871094 82.339844 16.871094 C 81.4375 16.871094 80.671875 16.609375 80.039062 16.074219 C 79.40625 15.550781 79.09375 14.863281 79.09375 14.027344 C 79.09375 13.1875 79.417969 12.449219 80.050781 11.785156 C 80.691406 11.117188 81.558594 10.582031 82.664062 10.179688 L 82.664062 8.441406 L 79.425781 8.441406 L 79.425781 6.816406 L 82.664062 6.816406 L 82.664062 4.625 L 84.664062 4.625 L 84.664062 6.816406 L 88.011719 6.816406 L 88.011719 8.441406 L 84.664062 8.441406 L 84.664062 9.675781 C 85.296875 9.574219 85.929688 9.523438 86.582031 9.523438 C 88.121094 9.523438 89.367188 9.835938 90.332031 10.460938 C 91.296875 11.089844 91.769531 11.988281 91.769531 13.148438 C 91.769531 14.308594 91.40625 15.167969 90.683594 15.824219 C 89.960938 16.480469 88.996094 16.800781 87.800781 16.800781 C 86.84375 16.800781 85.988281 16.589844 85.226562 16.167969 Z M 82.671875 11.945312 C 81.488281 12.511719 80.902344 13.1875 80.902344 13.976562 C 80.902344 14.308594 81.042969 14.582031 81.316406 14.804688 C 81.585938 15.027344 81.910156 15.136719 82.269531 15.136719 C 82.542969 15.136719 82.671875 15.003906 82.671875 14.742188 Z M 92.324219 8.269531 L 90.84375 9.433594 C 90.511719 9.019531 89.921875 8.402344 89.066406 7.59375 C 88.210938 6.785156 87.566406 6.222656 87.125 5.917969 L 88.332031 4.707031 C 88.933594 5.0625 89.617188 5.585938 90.394531 6.28125 C 91.167969 6.980469 91.808594 7.644531 92.324219 8.28125 Z M 92.324219 8.269531 "/>
<path style=" stroke:none;fill-rule:nonzero;fill:rgb(92.941176%,42.352941%,0%);fill-opacity:1;" d="M 101.972656 16.964844 L 100 16.964844 L 100 13.613281 L 96.886719 13.613281 L 96.886719 14.054688 L 94.914062 14.054688 L 94.914062 5.605469 L 100 5.605469 L 100 4.355469 L 101.972656 4.355469 L 101.972656 5.605469 L 107.089844 5.605469 L 107.089844 14.066406 L 105.128906 14.066406 L 105.128906 13.621094 L 101.972656 13.621094 L 101.972656 16.972656 Z M 100 7.140625 L 96.886719 7.140625 L 96.886719 8.828125 L 100 8.828125 Z M 100 10.28125 L 96.886719 10.28125 L 96.886719 12.046875 L 100 12.046875 Z M 105.117188 8.828125 L 105.117188 7.140625 L 101.960938 7.140625 L 101.960938 8.828125 Z M 105.117188 12.046875 L 105.117188 10.28125 L 101.960938 10.28125 L 101.960938 12.046875 Z M 105.117188 12.046875 "/>
<path style=" stroke:none;fill-rule:nonzero;fill:rgb(92.941176%,42.352941%,0%);fill-opacity:1;" d="M 122.648438 10.9375 C 122.054688 13.035156 121.230469 14.550781 120.175781 15.480469 C 119.121094 16.410156 117.773438 16.871094 116.113281 16.871094 C 115.402344 16.871094 114.777344 16.78125 114.234375 16.589844 C 113.691406 16.398438 113.257812 16.15625 112.917969 15.832031 C 112.578125 15.511719 112.316406 15.167969 112.132812 14.792969 C 111.953125 14.417969 111.832031 14.015625 111.773438 13.601562 C 111.710938 13.1875 111.691406 12.53125 111.691406 11.644531 C 111.691406 10.675781 111.792969 8.414062 111.984375 4.847656 L 114.035156 4.847656 C 113.84375 8.027344 113.753906 10.238281 113.753906 11.480469 C 113.753906 12.492188 113.78125 13.136719 113.832031 13.410156 C 113.882812 13.683594 114.003906 13.945312 114.183594 14.199219 C 114.367188 14.449219 114.636719 14.640625 114.976562 14.773438 C 115.320312 14.902344 115.742188 14.976562 116.246094 14.976562 C 117.351562 14.976562 118.273438 14.589844 119.019531 13.835938 C 119.761719 13.078125 120.347656 11.875 120.789062 10.230469 L 122.628906 10.925781 Z M 122.648438 10.9375 "/>
<path style=" stroke:none;fill-rule:nonzero;fill:rgb(92.941176%,42.352941%,0%);fill-opacity:1;" d="M 138.800781 15.15625 L 138.488281 16.722656 C 138.417969 16.722656 138.316406 16.722656 138.199219 16.722656 L 133.90625 16.761719 C 131.886719 16.761719 130.417969 16.660156 129.53125 16.46875 C 128.808594 16.226562 128.277344 15.863281 127.933594 15.378906 C 127.210938 16.066406 126.476562 16.601562 125.734375 16.972656 L 125.101562 15.328125 C 125.761719 15.074219 126.375 14.710938 126.929688 14.238281 L 126.929688 10.746094 L 125.441406 10.746094 L 125.441406 9.25 L 128.71875 9.25 L 128.71875 13.835938 C 128.71875 14.148438 128.839844 14.410156 129.101562 14.621094 C 129.351562 14.832031 129.652344 14.984375 130.015625 15.074219 C 130.367188 15.167969 130.789062 15.226562 131.273438 15.246094 C 131.753906 15.269531 132.597656 15.277344 133.824219 15.277344 C 136.386719 15.277344 138.054688 15.246094 138.820312 15.175781 Z M 129.039062 7.242188 L 127.3125 8.128906 C 127.191406 7.867188 126.910156 7.414062 126.46875 6.738281 C 126.035156 6.070312 125.703125 5.597656 125.480469 5.324219 L 127.039062 4.464844 C 127.644531 5.160156 128.308594 6.089844 129.039062 7.242188 Z M 133.855469 10.410156 C 133.171875 12.1875 131.886719 13.582031 130.027344 14.613281 L 129.058594 13.269531 C 130.207031 12.632812 131.101562 11.753906 131.753906 10.632812 C 132.40625 9.511719 132.769531 8.292969 132.839844 6.96875 C 132.808594 6.726562 132.789062 6.523438 132.789062 6.363281 L 130.175781 6.363281 L 130.175781 4.847656 L 134.78125 4.847656 L 134.78125 5.0625 C 134.78125 6.554688 134.828125 7.59375 134.941406 8.171875 C 135.050781 8.746094 135.273438 9.371094 135.613281 10.027344 C 135.957031 10.683594 136.359375 11.269531 136.832031 11.792969 C 137.300781 12.320312 137.875 12.804688 138.550781 13.269531 L 137.191406 14.761719 C 136.550781 14.308594 135.914062 13.683594 135.300781 12.894531 C 134.6875 12.109375 134.21875 11.28125 133.875 10.421875 Z M 133.855469 10.410156 "/>
<path style=" stroke:none;fill-rule:nonzero;fill:rgb(92.941176%,42.352941%,0%);fill-opacity:1;" d="M 154.429688 11.210938 L 153.859375 13.007812 L 152.300781 12.421875 C 151.726562 14.5 150.488281 16.054688 148.609375 17.085938 L 147.445312 15.832031 C 148.347656 15.195312 149.023438 14.570312 149.476562 13.933594 C 149.925781 13.300781 150.238281 12.582031 150.417969 11.773438 C 149.335938 11.429688 148.339844 11.210938 147.433594 11.089844 C 145.996094 14.429688 144.46875 16.105469 142.859375 16.105469 C 142.257812 16.105469 141.765625 15.882812 141.382812 15.449219 C 141 15.015625 140.8125 14.46875 140.8125 13.835938 C 140.8125 12.734375 141.28125 11.703125 142.238281 10.746094 C 143.191406 9.785156 144.410156 9.300781 145.898438 9.300781 L 146.007812 9.300781 C 146.199219 8.613281 146.347656 7.828125 146.46875 6.929688 L 142.429688 6.929688 L 142.429688 5.28125 L 148.347656 5.28125 L 148.621094 5.574219 C 148.558594 6.835938 148.347656 8.128906 147.996094 9.453125 C 148.800781 9.5625 149.695312 9.753906 150.679688 10.027344 C 150.703125 9.695312 150.710938 9.199219 150.710938 8.554688 C 150.710938 8.300781 150.710938 8.027344 150.710938 7.734375 L 152.710938 7.734375 L 152.710938 8.90625 C 152.722656 9.554688 152.710938 10.128906 152.660156 10.625 L 154.460938 11.21875 Z M 145.402344 10.96875 C 144.78125 11.015625 144.257812 11.21875 143.816406 11.574219 C 143.375 11.925781 143.070312 12.320312 142.890625 12.742188 C 142.710938 13.167969 142.628906 13.519531 142.628906 13.792969 C 142.628906 14.085938 142.71875 14.226562 142.890625 14.226562 C 143.65625 14.226562 144.488281 13.136719 145.402344 10.96875 Z M 145.402344 10.96875 "/>
</g>
</svg>
