<?xml version="1.0" encoding="utf-8"?>
<!-- Generator: Adobe Illustrator 28.2.0, SVG Export Plug-In . SVG Version: 6.00 Build 0)  -->
<svg version="1.1" id="レイヤー_1" xmlns="http://www.w3.org/2000/svg" xmlns:xlink="http://www.w3.org/1999/xlink" x="0px"
	 y="0px" viewBox="0 0 138.6 17.3" style="enable-background:new 0 0 138.6 17.3;" xml:space="preserve">
<style type="text/css">
	.st0{fill:#3B241A;}
	.st1{fill:none;stroke:#3B241A;stroke-width:1.511;stroke-linecap:round;stroke-miterlimit:10;}
	.st2{fill:#ED6C00;}
	.st3{fill:#ED6C00;stroke:#ED6C00;stroke-width:0.65;stroke-miterlimit:10;}
</style>
<g id="surface1" transform="translate(800.247 534.661)">
	<path id="パス_1" class="st0" d="M-792-527.7l2.6-6.7c0.1-0.1,0.2-0.2,0.4-0.2c0,0,0,0,0,0l2.4,0.9c0.1,0.1,0.2,0.2,0.2,0.4
		l-2.6,6.7c-0.1,0.1-0.2,0.2-0.4,0.2l-2.4-0.9C-792-527.4-792.1-527.6-792-527.7z"/>
	<path id="パス_2" class="st0" d="M-792.7-525.9l3,1.1l-2.3,2.4c-0.1,0.1-0.3,0.1-0.4-0.1c0,0-0.1-0.1-0.1-0.2L-792.7-525.9z"/>
	<path id="パス_3" class="st1" d="M-786.5-526.9l3.1,4c0.3,0.4,0.2,1-0.2,1.3c-0.1,0.1-0.2,0.1-0.2,0.1l-8.8,3.2
		c-0.4,0.1-0.8,0-1.1-0.3l-5.6-7.9c-0.3-0.4-0.2-1,0.2-1.3c0.1,0,0.1-0.1,0.2-0.1l4.8-1.8"/>
	<path id="パス_4" class="st2" d="M-768.5-529.2h-4.4v-1.3h4.4V-529.2z M-768.8-520.7h-2.4v0.5h-1.5v-4.7h3.9L-768.8-520.7
		L-768.8-520.7z M-768.9-531.1h-3.7v-1.2h3.7V-531.1z M-768.9-527.4h-3.6v-1.2h3.6L-768.9-527.4z M-768.9-525.5h-3.6v-1.2h3.6
		L-768.9-525.5z M-770.3-521.9v-1.7h-0.9v1.7H-770.3z M-760.1-522.4h-0.6v1c0,0.3-0.2,0.6-0.4,0.9c-0.3,0.2-0.6,0.4-0.9,0.4h-1.6
		l-0.2-1.5h1c0.2,0,0.4-0.1,0.4-0.3v-0.4h-3.6v2.2h-1.8v-2.2h-0.6v-1.1h0.6v-3.3h2.8v-0.6h-3.3v-1.1h1.6v-0.7h-1.1v-1h1.1v-0.6h-1.4
		v-1.1h1.4v-0.7h1.8v0.7h1.5v-0.7h1.8v0.7h1.4v1h-1.4v0.6h1v1h-1v0.7h1.5v1.1h-3.3v0.6h2.8v3.3h0.6V-522.4z M-765-525.8h-1v0.7h1
		V-525.8z M-766-523.5h1v-0.7h-1V-523.5z M-765-530.8v0.6h1.5v-0.6L-765-530.8z M-765-528.5h1.5v-0.7h-1.5L-765-528.5z
		 M-762.4-525.2v-0.7h-1.1v0.7L-762.4-525.2z M-763.5-523.5h1.1v-0.7h-1.1L-763.5-523.5z"/>
	<g>
		<path id="パス_7" class="st2" d="M-734.3-521.2l0.5-1.6c0.6,0.3,1.2,0.5,1.9,0.5c0.6,0,1.1-0.1,1.6-0.5c0.4-0.3,0.6-0.8,0.6-1.3
			c0-0.6-0.3-1.2-0.8-1.5c-0.7-0.4-1.5-0.6-2.3-0.5c-0.6,0-1.3,0.1-1.9,0.2v3.8c0,0.5-0.2,1-0.7,1.3c-0.5,0.3-1.1,0.5-1.7,0.5
			c-0.8,0-1.7-0.3-2.3-0.8c-0.6-0.5-1-1.3-0.9-2c0-0.8,0.4-1.7,1-2.2c0.7-0.7,1.6-1.3,2.6-1.6v-1.7h-3.2v-1.6h3.2v-2.2h2v2.2h3.3
			v1.6h-3.3v1.2c0.6-0.1,1.3-0.2,1.9-0.2c1.3-0.1,2.6,0.3,3.8,0.9c0.9,0.6,1.5,1.6,1.4,2.7c0.1,1-0.3,2-1.1,2.7
			c-0.8,0.7-1.8,1-2.9,1C-732.6-520.6-733.5-520.8-734.3-521.2L-734.3-521.2z M-736.8-525.5c-1.2,0.6-1.8,1.2-1.8,2
			c0,0.3,0.2,0.6,0.4,0.8c0.3,0.2,0.6,0.3,1,0.3c0.2,0,0.4-0.1,0.4-0.3c0,0,0-0.1,0-0.1L-736.8-525.5z M-727.2-529.1l-1.5,1.2
			c-0.6-0.6-1.1-1.3-1.8-1.8c-0.6-0.6-1.3-1.2-1.9-1.7l1.2-1.2c0.7,0.5,1.4,1,2.1,1.6C-728.4-530.5-727.8-529.8-727.2-529.1
			L-727.2-529.1z"/>
		<path id="パス_8" class="st2" d="M-717.1-520.4h-2v-3.4h-3.1v0.4h-2v-8.4h5.1v-1.2h2v1.2h5.1v8.5h-2v-0.4h-3.2V-520.4
			L-717.1-520.4z M-719.1-530.3h-3.1v1.7h3.1V-530.3z M-719.1-527.1h-3.1v1.8h3.1V-527.1z M-714-528.6v-1.7h-3.2v1.7L-714-528.6z
			 M-714-525.4v-1.8h-3.2v1.8L-714-525.4z"/>
		<path id="パス_10" class="st2" d="M-695-522.3l-0.3,1.6h-0.3l-4.3,0c-1.5,0-2.9-0.1-4.4-0.3c-0.6-0.2-1.2-0.6-1.6-1.1
			c-0.7,0.6-1.4,1.2-2.2,1.6l-0.6-1.6c0.7-0.3,1.3-0.6,1.8-1.1v-3.5h-1.5v-1.5h3.3v4.6c0,0.3,0.1,0.6,0.4,0.8
			c0.3,0.2,0.6,0.4,0.9,0.5c0.4,0.1,0.8,0.2,1.3,0.2c0.5,0,1.3,0,2.6,0C-697.4-522.1-695.8-522.2-695-522.3L-695-522.3z
			 M-704.8-530.2l-1.7,0.9c-0.3-0.5-0.5-0.9-0.8-1.4c-0.4-0.7-0.8-1.1-1-1.4l1.6-0.9C-706-532.1-705.4-531.1-704.8-530.2
			L-704.8-530.2z M-700-527c-0.7,1.8-2.1,3.3-3.8,4.2l-1-1.3c1.1-0.6,2.1-1.5,2.7-2.6c0.7-1.1,1-2.4,1.1-3.7c0-0.2,0-0.4-0.1-0.6
			h-2.6v-1.5h4.6v0.2c0,1,0,2.1,0.2,3.1c0.1,0.6,0.4,1.3,0.7,1.9c0.3,0.6,0.7,1.2,1.2,1.8c0.5,0.6,1.1,1.1,1.7,1.5l-1.4,1.5
			c-0.7-0.5-1.4-1.2-1.9-1.9C-699.1-525.3-699.6-526.1-700-527L-700-527z"/>
		<path id="パス_11" class="st2" d="M-678.4-526.2l-0.6,1.8l-1.6-0.6c-0.5,2-1.9,3.7-3.7,4.7l-1.2-1.3c0.8-0.5,1.5-1.2,2-1.9
			c0.5-0.6,0.8-1.4,0.9-2.2c-1-0.3-2-0.5-3-0.7c-1.4,3.3-3,5-4.6,5c-0.6,0-1.1-0.2-1.5-0.7c-0.4-0.4-0.6-1-0.6-1.6
			c0-1.2,0.5-2.3,1.4-3.1c1-1,2.3-1.5,3.7-1.4h0.1c0.2-0.8,0.4-1.6,0.5-2.4h-4v-1.6h5.9l0.3,0.3c-0.1,1.3-0.3,2.6-0.6,3.9
			c0.9,0.1,1.8,0.3,2.7,0.6c0-0.3,0-0.8,0-1.5v-0.8h2v1.2c0,0.6,0,1.1-0.1,1.7L-678.4-526.2L-678.4-526.2z M-687.4-526.4
			c-0.6,0-1.1,0.2-1.6,0.6c-0.4,0.3-0.7,0.7-0.9,1.2c-0.2,0.3-0.2,0.7-0.3,1.1c0,0.3,0.1,0.4,0.3,0.4
			C-689.1-523.2-688.3-524.3-687.4-526.4L-687.4-526.4z"/>
	</g>
</g>
<g>
	<path class="st3" d="M55.9,4.1H45.8V7c0,2-0.2,5-1.2,7c-0.2-0.2-0.5-0.4-0.7-0.5c1-1.9,1.1-4.6,1.1-6.5V3.3h5V1.8L51,1.9
		C51,2,51,2.1,50.8,2.1v1.2h5.1V4.1z M51.3,10.7v2.1h4.6v0.8H45.8v-0.8h4.6v-2.1h-3.7V9.9h3.7V4.7l1.1,0.1c0,0.1-0.1,0.2-0.2,0.2v5
		h3.8v0.8H51.3z M49.6,9c-0.3-0.4-0.9-1-1.4-1.6c-0.4,0.8-0.9,1.5-1.5,2c-0.1-0.2-0.4-0.4-0.6-0.5c1.1-0.8,1.8-2.2,2-3.9l1,0.2
		c0,0.1-0.1,0.1-0.2,0.2c-0.1,0.5-0.2,1-0.4,1.4c0.6,0.6,1.4,1.3,1.7,1.7L49.6,9z M55.4,9.3c-0.4-0.5-1.2-1.3-2-1.9
		c-0.4,0.7-0.9,1.4-1.5,1.8c-0.1-0.1-0.4-0.4-0.6-0.5c1.1-0.7,1.8-2.1,2-3.7l1,0.2c0,0.1-0.1,0.1-0.2,0.2c-0.1,0.5-0.2,0.9-0.4,1.4
		c0.8,0.6,1.7,1.5,2.2,2L55.4,9.3z"/>
</g>
</svg>
