<?xml version="1.0" encoding="UTF-8"?>
<svg id="_レイヤー_2" data-name="レイヤー 2" xmlns="http://www.w3.org/2000/svg" viewBox="0 0 118.58 16.8">
  <defs>
    <style>
      .cls-1 {
        fill: #ff4500;
      }

      .cls-2 {
        fill: #3b241a;
      }

      .cls-3 {
        fill: none;
        stroke: #3b241a;
        stroke-linecap: round;
        stroke-miterlimit: 9.83;
        stroke-width: 1.48px;
      }
    </style>
  </defs>
  <g id="_レイヤー_1-2" data-name="レイヤー 1">
    <g>
      <path class="cls-2" d="m8.08,6.78L10.64.2c.1-.1.2-.2.39-.2l2.36.89c.1.1.2.2.2.39l-2.55,6.59c-.1.1-.2.2-.39.2l-2.36-.88c-.2-.1-.3-.3-.2-.39Z"/>
      <path class="cls-2" d="m7.4,8.55l2.95,1.08-2.26,2.36c-.1.1-.29.1-.39-.1,0,0-.1-.1-.1-.2l-.2-3.14Z"/>
      <path class="cls-3" d="m13.49,7.57l3.05,3.93c.29.39.2.98-.2,1.28-.1.1-.2.1-.2.1l-8.64,3.14c-.39.1-.79,0-1.08-.3L.91,7.96c-.29-.39-.2-.98.2-1.28.1,0,.1-.1.2-.1l4.71-1.77"/>
      <g>
        <path class="cls-1" d="m30.75,5.56h-4.98v-1.32h4.98v1.32Zm-.37,8.85h-2.62v.55h-1.41v-4.78h4.03v4.24Zm-.04-6.91h-3.95v-1.25h3.95v1.25Zm-3.95.7h3.95v1.26h-3.95v-1.26Zm3.9-4.63h-3.82v-1.26h3.82v1.26Zm-2.54,7.92v1.6h1.2v-1.6h-1.2Zm11.52,1.43h-.72v.58c0,.7-.14,1.04-.63,1.25-.48.21-1.18.22-2.15.22-.04-.39-.22-.92-.39-1.29.56.03,1.2.03,1.37.03.19-.01.25-.06.25-.22v-.56h-4.11v2.05h-1.44v-2.05h-.72v-1.32h.72v-3.49h2.79v-.5h-3.49v-1.26h1.87v-.6h-1.24v-1.15h1.24v-.56h-1.5v-1.18h1.5v-.98h1.53v.98h1.67v-.98h1.54v.98h1.61v1.18h-1.61v.56h1.31v1.15h-1.31v.6h1.87v1.26h-3.59v.5h2.9v3.49h.72v1.32Zm-6.38-3.66v.66h1.35v-.66h-1.35Zm0,2.34h1.35v-.66h-1.35v.66Zm1.27-7.01h1.67v-.56h-1.67v.56Zm0,1.75h1.67v-.6h-1.67v.6Zm1.5,2.92v.66h1.34v-.66h-1.34Zm1.34,2.34v-.66h-1.34v.66h1.34Z"/>
        <path class="cls-1" d="m50.51,13.21h4.61v1.43h-10.79v-1.43h4.52v-1.39h-3.62v-1.44h3.62v-1.63l-.82.95c-.23-.34-.66-.79-1.09-1.22-.35.59-.78,1.09-1.3,1.5-.26-.27-.89-.76-1.24-.98-.13,1.99-.49,4.26-1.38,5.86-.3-.28-1.05-.76-1.46-.92,1.12-2.01,1.21-4.94,1.21-6.98v-3.8h5.26v-1.26h1.79v1.26h5.2v1.53h-10.56v2.29c0,.6-.01,1.29-.06,2.03,1.18-.77,1.73-2.05,1.9-3.67l1.56.11c-.07.6-.19,1.18-.35,1.68.49.43,1.01.91,1.34,1.29v-3.27h1.66v3.42c.88-.76,1.37-1.88,1.56-3.24l1.53.17c-.09.58-.22,1.12-.39,1.61.73.58,1.54,1.23,1.99,1.68l-.99,1.15c-.38-.41-.99-.97-1.63-1.5-.35.56-.78,1.05-1.3,1.44-.16-.18-.46-.45-.76-.69v1.18h3.83v1.44h-3.83v1.39Z"/>
        <path class="cls-1" d="m63.25,3.59c-.01.31-.03.65-.04,1,.95-.11,1.9-.29,2.65-.5l.04,1.74c-.82.18-1.81.32-2.75.43-.01.42-.01.86-.01,1.26v.52c.98-.24,1.97-.36,2.77-.36,2.22,0,3.96,1.12,3.96,3.06,0,1.66-.89,2.9-3.18,3.46-.66.14-1.3.18-1.89.22l-.66-1.81c.65,0,1.27-.01,1.77-.1,1.17-.21,2.09-.77,2.09-1.79,0-.95-.86-1.51-2.12-1.51-.89,0-1.83.14-2.71.39.03,1.11.06,2.2.06,2.68,0,1.74-.63,2.2-1.58,2.2-1.4,0-3.37-1.18-3.37-2.66,0-1.22,1.44-2.5,3.21-3.24-.01-.34-.01-.67-.01-1v-1.18c-.27.01-.53.03-.76.03-.97,0-1.53-.01-2.02-.07l-.03-1.7c.85.1,1.47.11,1.99.11.26,0,.55-.01.84-.03.01-.49.01-.9.01-1.14,0-.29-.06-.98-.1-1.23h1.99c-.04.25-.1.86-.13,1.22Zm-2.16,8.96c.26,0,.46-.11.46-.59,0-.35-.01-1-.04-1.75-.88.46-1.47,1.04-1.47,1.53,0,.43.68.81,1.05.81Zm9.94-6.69l-.86,1.43c-.69-.58-2.58-1.63-3.47-2.05l.79-1.36c1.11.52,2.78,1.44,3.54,1.98Z"/>
        <path class="cls-1" d="m85.83,3.74v8.3h-1.79v-.67h-3.2v3.59h-1.8v-3.59h-3.13v.74h-1.71V3.74h4.84v-1.88h1.8v1.88h4.98Zm-9.91,1.6v1.42h3.13v-1.42h-3.13Zm3.13,4.43v-1.49h-3.13v1.49h3.13Zm1.8-4.43v1.42h3.2v-1.42h-3.2Zm3.2,4.43v-1.49h-3.2v1.49h3.2Z"/>
        <path class="cls-1" d="m92.77,11.72c.59.94,1.67,1.32,3.17,1.37,1.69.07,4.93.03,6.84-.11-.19.39-.45,1.21-.53,1.68-1.73.08-4.62.11-6.34.04-1.77-.07-2.95-.46-3.89-1.56-.63.55-1.27,1.09-2.06,1.68l-.83-1.74c.62-.35,1.34-.81,1.97-1.29v-2.96h-1.66v-1.53h3.33v4.4Zm-.99-6.3c-.45-.67-1.47-1.6-2.32-2.21l1.27-1.01c.86.59,1.92,1.46,2.41,2.12l-1.35,1.11Zm5.49.03c-.06-.46-.12-.94-.16-1.42h-2.51v-1.57h3.96c.22,3.97,1.08,7.35,4.08,8.81-.4.28-1.02.87-1.34,1.28-1.77-1.02-2.82-2.64-3.46-4.6-.72,2-1.82,3.55-3.39,4.61-.26-.32-.92-.97-1.33-1.26,2.02-1.16,3.13-3.25,3.57-5.93l.56.08Z"/>
        <path class="cls-1" d="m109.03,3.21c.82,0,2.35-.07,3.02-.13.36-.01.73-.1.98-.2l1.15.87c-.2.21-.37.39-.49.59-.38.6-.92,1.82-1.44,3.01,1.12.17,2.19.5,3.13.9.01-.17.03-.32.04-.48.04-.55.04-1.11,0-1.53l1.89.21c-.06.94-.13,1.81-.27,2.59.6.34,1.12.66,1.54.94l-.84,1.95c-.37-.34-.79-.66-1.24-.98-.63,1.58-1.73,2.82-3.66,3.8l-1.53-1.22c2.17-.91,3.18-2.24,3.66-3.52-1.02-.55-2.17-.97-3.41-1.14-.52,1.19-1.12,2.59-1.63,3.37-.58.84-1.27,1.23-2.25,1.23-1.27,0-2.22-.86-2.22-2.27,0-2.17,2.03-3.83,4.93-3.96.4-.92.82-1.88,1.15-2.54-.58.03-1.81.07-2.48.11-.29.01-.79.06-1.17.11l-.07-1.81c.39.04.88.07,1.2.07Zm-1.27,8.44c.29,0,.49-.14.75-.49.37-.52.76-1.4,1.17-2.29-1.61.24-2.52,1.19-2.52,2.08,0,.46.27.7.61.7Z"/>
      </g>
    </g>
  </g>
</svg>