<svg xmlns="http://www.w3.org/2000/svg" xmlns:xlink="http://www.w3.org/1999/xlink" viewBox="0 0 155 21" width="155px" height="21px">


<!-- <defs><clipPath id="clip-path"><rect x="521.64" y="351.75" width="1366" height="889" style="fill:none"/></clipPath><clipPath id="clip-path-2"><rect x="-902.36" y="231.75" width="1366" height="1009" style="fill:none"/></clipPath><image id="image" width="2500" height="1669" xlink:href="ongoing_project/%E8%83%BD%E5%8A%9B%E9%96%8B%E7%99%BA%E3%82%BB%E3%83%B3%E3%82%BF%E3%83%BC/%E3%83%86%E3%82%99%E3%82%B5%E3%82%99%E3%82%A4%E3%83%B3/%E6%92%AE%E5%BD%B1%E3%83%86%E3%82%99%E3%83%BC%E3%82%BF/1111/jpg/1111_K7D9714.jpg"/></defs><title>03_spアートボード 29</title><g id="photo"><g style="opacity:0.14"><g style="clip-path:url(#clip-path)"><use transform="translate(-73.47 -82.96) scale(0.86)" xlink:href="#image"/></g></g><g style="opacity:0.18"><g style="clip-path:url(#clip-path-2)"><use transform="translate(-1479.6 -101.29) scale(0.86)" xlink:href="#image"/></g></g></g> -->




<g id="header"><path d="M32.76,5.58c1.14,0,1.52,0,1.59,0s.17,0,.17.17V6.78c0,.17,0,.18-.17.18s-.45,0-1.59,0H31.38c-1.14,0-1.51,0-1.59,0s-.16,0-.16-.18V5.72c0-.15,0-.17.16-.17s.45,0,1.59,0Zm1.37,8.52c0,1.74,0,2.07,0,2.16s0,.17-.17.17H33c-.15,0-.16,0-.16-.17v-.42H31.49v.69c0,.15,0,.17-.17.17h-1c-.17,0-.18,0-.18-.17s0-.43,0-2.25v-1c0-.94,0-1.3,0-1.41s0-.16.18-.16.4,0,1.36,0h.93c1,0,1.28,0,1.38,0s.17,0,.17.16,0,.45,0,1.16ZM32.69,3.53c1,0,1.26,0,1.35,0s.18,0,.18.16v1c0,.15,0,.17-.18.17s-.39,0-1.35,0h-1c-1,0-1.27,0-1.36,0s-.17,0-.17-.17v-1c0-.15,0-.16.17-.16s.39,0,1.36,0Zm-.14,4.18c.9,0,1.17,0,1.26,0s.18,0,.18.17v1C34,9,34,9,33.81,9s-.36,0-1.26,0h-.81c-.91,0-1.18,0-1.27,0s-.17,0-.17-.17v-1c0-.15,0-.17.17-.17s.36,0,1.27,0Zm0,2c.9,0,1.17,0,1.26,0s.18,0,.18.16v1c0,.15,0,.17-.18.17s-.36,0-1.26,0h-.81c-.91,0-1.18,0-1.27,0s-.17,0-.17-.17v-1c0-.15,0-.16.17-.16s.36,0,1.27,0ZM31.49,13V14.6h1.32V13Zm11.92,1c0,.16,0,.18-.16.18s-.3,0-.83,0c0,.33,0,.65,0,.9,0,.63-.07.9-.34,1.16s-.63.3-1.77.31c-.45,0-.45,0-.56-.46a3.37,3.37,0,0,0-.33-.87c.42,0,.78,0,1.14,0s.5-.1.5-.4v-.69H36.63v.67c0,1.07,0,1.58,0,1.67s0,.15-.16.15h-1c-.15,0-.17,0-.17-.15s0-.56,0-1.62v-.71c-.43,0-.63,0-.67,0s-.17,0-.17-.18V13.2c0-.15,0-.16.17-.16l.67,0V11.33c0-1.05,0-1.53,0-1.64s0-.16.17-.16.54,0,1.86,0h.79V8.85H36.72c-1.44,0-1.93,0-2,0s-.17,0-.17-.18V7.92c0-.15,0-.16.17-.16s.58,0,2,0V7c-.88,0-1.21,0-1.29,0s-.16,0-.16-.17V6.2c0-.14,0-.15.16-.15s.41,0,1.29,0V5.34l-1.66,0c-.15,0-.17,0-.17-.18V4.47c0-.15,0-.16.17-.16s.51,0,1.66,0V4.1A4.25,4.25,0,0,0,36.63,3c.5,0,1,.06,1.37.11.15,0,.22.07.22.12a.55.55,0,0,1-.07.24c-.08.13-.09.28-.09.7v.2h1.48V4.1A4.25,4.25,0,0,0,39.45,3c.5,0,1,.06,1.37.11.15,0,.22.07.22.12a.58.58,0,0,1-.09.27c-.07.13-.07.25-.07.67v.2c1.36,0,1.84,0,1.95,0s.16,0,.16.16v.72c0,.17,0,.18-.16.18s-.59,0-1.95,0v.74c1.06,0,1.48,0,1.57,0s.17,0,.17.15v.7c0,.15,0,.17-.17.17s-.51,0-1.57,0v.75h.22c1.46,0,1.95,0,2,0s.15,0,.15.16V8.7c0,.17,0,.18-.15.18s-.58,0-2,0H39.41v.71h1c1.32,0,1.78,0,1.87,0s.17,0,.17.16,0,.68,0,1.77v1.61l.84,0c.15,0,.16,0,.16.16Zm-5.29-2.66v-.78H36.63v.78Zm0,1.7v-.8H36.63v.8Zm1.42-7V5.34H38.06v.74Zm0,1.71V7H38.06v.75Zm-.15,2.8v.78h1.7v-.78Zm1.7,2.48v-.8h-1.7v.8Z" style="fill:#ed6c00"/><path d="M51.77,10.37l.12-.3a3.85,3.85,0,0,0,.24-.84c-.23.18-.65.3-1.77.31-.42,0-.42,0-.53-.43a3.87,3.87,0,0,0-.25-.77c-.68.35-1.31.63-1.94.89a1.44,1.44,0,0,0-.46.24.45.45,0,0,1-.23.1c-.07,0-.15,0-.19-.18a12,12,0,0,1-.38-1.29,7.33,7.33,0,0,0,1.16-.28,20.42,20.42,0,0,0,2.91-1.25c0,.21,0,.59,0,.9,0,.48,0,.44-.42.66l-.13.08h.67c.41,0,.51-.12.51-.42V4.7H48.3c-1.2,0-1.59,0-1.68,0s-.16,0-.16-.18v-1c0-.17,0-.18.16-.18s.48,0,1.68,0h2.34c1.22,0,1.62,0,1.71,0s.17,0,.17.18,0,.39,0,1.11v2c0,.54,0,1.17,0,1.55a1.27,1.27,0,0,1-.33,1,11,11,0,0,1,1.47.28c.12.05.2.11.2.2s-.06.18-.17.25a.89.89,0,0,0-.24.3l-.1.17h2.16c1.47,0,2,0,2.08,0s.17,0,.17.18,0,.51,0,1.68v1.54c0,2.22,0,2.64,0,2.73s0,.17-.17.17H56.4c-.16,0-.18,0-.18-.17v-.39H49.8v.47c0,.15,0,.16-.16.16H48.41c-.15,0-.17,0-.17-.16s0-.51,0-2.78V12.41c0-1.38,0-1.8,0-1.89s0-.18.17-.18.61,0,2.08,0ZM47.63,5c.12-.11.16-.12.3-.06a8.46,8.46,0,0,1,1.72,1c.06,0,.11.09.11.14s0,.07-.11.15L49,6.78c-.16.15-.18.18-.31.08A8.51,8.51,0,0,0,47,5.81c-.14-.06-.12-.11,0-.24Zm2.17,7.62h6.42v-1H49.8Zm6.42,2.26V13.74H49.8v1.11ZM59.1,6.6c0,.54,0,1.17,0,1.55a1.22,1.22,0,0,1-.37,1.06c-.26.2-.69.3-1.8.33-.42,0-.42,0-.51-.39a3.66,3.66,0,0,0-.3-.87c-.57.27-1.11.5-1.68.74a3.2,3.2,0,0,0-.5.21c-.1,0-.18.12-.25.12s-.15-.06-.2-.17c-.12-.39-.22-.75-.34-1.27a8.32,8.32,0,0,0,1.2-.26,17.45,17.45,0,0,0,2.67-1.17,8.79,8.79,0,0,0,0,.92c0,.48,0,.45-.43.66l-.27.13a7.69,7.69,0,0,0,.79,0c.44,0,.56-.12.56-.42V4.7H54.93c-1.21,0-1.59,0-1.68,0s-.16,0-.16-.18v-1c0-.17,0-.18.16-.18s.47,0,1.68,0h2.31c1.22,0,1.64,0,1.73,0s.16,0,.16.18,0,.39,0,1.11ZM54.14,5a.26.26,0,0,1,.33-.07,8.93,8.93,0,0,1,1.71,1c.06,0,.1.09.1.12s0,.09-.1.15l-.74.63c-.16.14-.18.15-.3.06a7.84,7.84,0,0,0-1.63-1.12c-.14-.08-.15-.11,0-.26Z" style="fill:#ed6c00"/><path d="M66.47,7.7a18.42,18.42,0,0,1-2.72,1.62.92.92,0,0,1-.36.13c-.1,0-.15-.1-.27-.37a3.46,3.46,0,0,0-.67-1,12.56,12.56,0,0,0,5.76-4.37,4.41,4.41,0,0,0,.52-1,11.38,11.38,0,0,1,1.62.31c.18,0,.27.11.27.21a.25.25,0,0,1-.15.24,1.27,1.27,0,0,0-.21.14,13.56,13.56,0,0,0,6.35,4.29A4.53,4.53,0,0,0,76,9.06c-.1.27-.15.38-.25.38a1.18,1.18,0,0,1-.35-.12A16.82,16.82,0,0,1,72.5,7.73V8.84c0,.15,0,.16-.17.16s-.49,0-1.69,0H68.33c-1.2,0-1.61,0-1.7,0s-.16,0-.16-.16Zm-1,4.06c-1.41,0-1.89,0-2,0s-.18,0-.18-.16V10.5c0-.15,0-.16.18-.16s.57,0,2,0h8c1.41,0,1.89,0,2,0s.18,0,.18.16v1.13c0,.15,0,.16-.18.16s-.57,0-2,0H68.87a28.74,28.74,0,0,1-1.34,2.82c1.56-.09,3.2-.22,4.62-.37-.34-.42-.69-.84-1.09-1.28-.11-.12-.09-.18.09-.27l1-.49c.16-.09.21-.08.31,0a25.44,25.44,0,0,1,2.79,3.48c.08.12.08.18-.07.28l-1,.68c-.09.06-.13.09-.18.09s-.07,0-.12-.11c-.25-.42-.51-.81-.75-1.17-2.49.32-5.55.57-8.1.77a1.29,1.29,0,0,0-.54.13.37.37,0,0,1-.25.09q-.16,0-.21-.21a15,15,0,0,1-.32-1.54,12.82,12.82,0,0,0,1.64,0l.48,0a25,25,0,0,0,1.32-2.91Zm5.13-4.18c1,0,1.45,0,1.62,0A13.72,13.72,0,0,1,69.42,4.8a14,14,0,0,1-2.74,2.75c.13,0,.55,0,1.65,0Z" style="fill:#ed6c00"/><path d="M83.39,8.22c-.75.06-1.52.12-2.52.12-.26,0-.33-.09-.36-.31s-.11-.78-.17-1.31a7.67,7.67,0,0,0,1.17.08c.63,0,1.28-.06,1.91-.12,0-.5,0-1.07,0-1.71a5.58,5.58,0,0,0-.1-1.22A8.73,8.73,0,0,1,85.11,4c.18.05.3.15.3.29a.55.55,0,0,1-.09.24,1.94,1.94,0,0,0-.21.58c0,.39-.06.77-.07,1.25A15,15,0,0,0,87,5.82c.13,0,.24,0,.25.14a7.49,7.49,0,0,1,.09,1.17c0,.15,0,.19-.19.24A16.07,16.07,0,0,1,85,7.94c0,.72,0,1.45,0,2.17a9.36,9.36,0,0,1,3.69-.82,3,3,0,0,1,3.2,3c0,1.92-1.23,3-3.26,3a6.27,6.27,0,0,1-1.23-.13.4.4,0,0,1-.33-.45,2.6,2.6,0,0,0-.45-1.28,5.61,5.61,0,0,0,1.88.27,1.49,1.49,0,0,0,1.62-1.54c0-1-.6-1.52-1.65-1.52a7.5,7.5,0,0,0-3.44,1c0,.63,0,1.14.06,1.8s.12,1.61.12,1.95,0,.44-.22.5a6.56,6.56,0,0,1-1.11.18c-.17,0-.23-.11-.36-.3a9.21,9.21,0,0,0-2.13-1.92,2.39,2.39,0,0,0-.48.33.41.41,0,0,1-.26.1.42.42,0,0,1-.33-.24c-.16-.27-.46-.9-.69-1.39a5.5,5.5,0,0,0,1.38-.53l2.45-1.39ZM82,13.38a15.39,15.39,0,0,0,1.41.68c.12,0,.17,0,.15-.12,0-.39-.06-1.08-.09-1.58C83,12.65,82.53,13,82,13.38Zm7.17-7.87c.11-.17.15-.21.26-.18A7,7,0,0,1,92.6,7.16c.06.06.09.1.09.15a.42.42,0,0,1-.06.15c-.2.3-.59.76-.81,1.06,0,.06-.26.08-.3,0a7,7,0,0,0-3-1.84A9.71,9.71,0,0,1,89.16,5.51Z" style="fill:#ed6c00"/><path d="M101.69,4.76a10.19,10.19,0,0,0-.12-1.83c.57,0,1.14,0,1.65.1.13,0,.24.08.24.15a.72.72,0,0,1-.08.32,4.12,4.12,0,0,0-.1,1.23v.49h2.64c1.45,0,2,0,2,0s.17,0,.17.17,0,.64,0,2.31V9.86c0,2.79,0,3.31,0,3.4s0,.17-.17.17h-1.26c-.15,0-.16,0-.16-.17v-.51h-3.27v1c0,1.78,0,2.7,0,2.77s0,.17-.15.17h-1.33c-.14,0-.15,0-.15-.17s0-1,0-2.76v-1H98.52v.57c0,.15,0,.17-.16.17H97.1c-.15,0-.16,0-.16-.17s0-.61,0-3.42V8c0-1.95,0-2.49,0-2.59s0-.17.16-.17.61,0,2.05,0h2.54ZM98.52,8.27h3.17V6.59H98.52Zm3.17,3.12V9.6H98.52v1.79Zm1.59-4.8V8.27h3.27V6.59Zm3.27,4.8V9.6h-3.27v1.79Z" style="fill:#ed6c00"/><path d="M115.58,3.93c.25.06.36.14.36.29a1.46,1.46,0,0,1-.15.49,8.29,8.29,0,0,0-.21,1.83c-.15,2.31-.23,3.84-.23,5.81,0,1.51.18,1.86,1.38,1.86A7.9,7.9,0,0,0,122,11.45a5.16,5.16,0,0,0,.35,1.42,1.13,1.13,0,0,1,.12.36c0,.14-.06.26-.3.47A8.61,8.61,0,0,1,116.46,16c-1.92,0-2.82-.77-2.82-3.06,0-2.52.14-4.68.21-6.48a9.81,9.81,0,0,0-.15-2.75A16.86,16.86,0,0,1,115.58,3.93Z" style="fill:#ed6c00"/><path d="M128.79,13.34A2.3,2.3,0,0,0,130,14.58a8.61,8.61,0,0,0,2.78.3c1.93,0,4.21-.1,6.45-.33a2.81,2.81,0,0,0-.41,1.17c-.07.48-.07.48-.55.51-1.91.11-3.69.15-5.25.15a10.24,10.24,0,0,1-3.51-.43,2.91,2.91,0,0,1-1.47-1.34,17,17,0,0,1-1.55,1.32,1.39,1.39,0,0,0-.3.3c-.07.11-.13.15-.22.15s-.15-.07-.21-.19a13.05,13.05,0,0,1-.62-1.41,7.21,7.21,0,0,0,.89-.47,9.53,9.53,0,0,0,1.26-1V10h-.74c-.81,0-1,0-1.09,0s-.18,0-.18-.18V8.73c0-.15,0-.16.18-.16s.28,0,1.09,0h1c.8,0,1,0,1.13,0s.16,0,.16.16,0,.51,0,1.43Zm-.93-6.72c-.1.07-.15.1-.19.1s-.08,0-.12-.1a11.37,11.37,0,0,0-1.85-2.34c-.12-.11-.09-.15.08-.26l.84-.55c.16-.11.19-.12.31,0a11.45,11.45,0,0,1,1.88,2.24c.09.13.09.16-.08.28Zm5.31-2.88c.69,0,1.17,0,1.37,0a.14.14,0,0,1,.15.16,10.73,10.73,0,0,0,.18,2.21,9.44,9.44,0,0,0,4.21,6.33,5.42,5.42,0,0,0-.79,1.17c-.12.22-.18.33-.27.33s-.18-.06-.33-.2A10.7,10.7,0,0,1,134,8a10.46,10.46,0,0,1-3.42,5.58c-.16.14-.25.21-.33.21s-.15-.09-.31-.28a3.8,3.8,0,0,0-.93-.89,9.57,9.57,0,0,0,4.09-7.44h-1.3c-.93,0-1.2,0-1.29,0s-.18,0-.18-.18V3.87c0-.15,0-.16.18-.16s.36,0,1.29,0Z" style="fill:#ed6c00"/><path d="M151.64,8a4.42,4.42,0,0,0,0-1,6.49,6.49,0,0,1,1.74.64.29.29,0,0,1,.11.41,2.29,2.29,0,0,0-.24.58c-.12.63-.27,1.29-.42,1.94A17.48,17.48,0,0,1,155.15,12c.15.09.13.16.09.31a12.94,12.94,0,0,1-.65,1.29c0,.08-.09.11-.13.11a.3.3,0,0,1-.18-.11,12.31,12.31,0,0,0-2-1.41,9.15,9.15,0,0,1-3,4c-.13.1-.21.16-.3.16a.41.41,0,0,1-.22-.1,3.18,3.18,0,0,0-1.31-.62,8.24,8.24,0,0,0,3.36-4.06,10.25,10.25,0,0,0-3-.92,10.3,10.3,0,0,1-1.83,3,2.44,2.44,0,0,1-1.92.83,1.82,1.82,0,0,1-1.78-2.06c0-1.86,1.92-3.31,4.42-3.31.5-1.25.87-2.3,1.25-3.56l-2.07.24a3.22,3.22,0,0,0-.68.17.76.76,0,0,1-.27.06.23.23,0,0,1-.23-.17,8.52,8.52,0,0,1-.44-1.63,5.87,5.87,0,0,0,1.32.09,16.66,16.66,0,0,0,2.32-.2,1.76,1.76,0,0,0,.74-.25.29.29,0,0,1,.19-.06.31.31,0,0,1,.21.06,4.59,4.59,0,0,1,1,.82.38.38,0,0,1,.14.26c0,.09-.06.16-.15.25a2,2,0,0,0-.41.78c-.39,1-.81,2.19-1.26,3.27a12.63,12.63,0,0,1,2.91.75A14.93,14.93,0,0,0,151.64,8Zm-7.92,4.18c0,.48.16.69.52.69a1.19,1.19,0,0,0,.87-.57,9.61,9.61,0,0,0,1.1-1.83C144.68,10.5,143.72,11.3,143.72,12.15Z" style="fill:#ed6c00"/><rect x="9.29" y="2.54" width="3.15" height="7.72" rx="0.28" transform="translate(3.06 -3.51) rotate(21.27)" style="fill:#3b241a"/><path d="M7.39,11l2.94,1.14L8,14.54a.31.31,0,0,1-.5-.2Z" style="fill:#3b241a"/><path d="M13.58,10,16.7,14a.92.92,0,0,1-.41,1.43L7.53,18.63a.91.91,0,0,1-1.06-.33L.92,10.45a.91.91,0,0,1,.43-1.39L6.16,7.28" style="fill:none;stroke:#3b241a;stroke-linecap:round;stroke-miterlimit:10;stroke-width:1.5px"/></g></svg>