<svg xmlns="http://www.w3.org/2000/svg" width="110.634" height="14.258" viewBox="0 0 110.634 14.258">
  <g id="グループ_1" data-name="グループ 1" transform="translate(-659.305 -421)">
    <g id="surface1" transform="translate(659.303 420.999)">
      <path id="パス_1" data-name="パス 1" d="M6.77,5.7,8.918.148A.244.244,0,0,1,9.039.02a.259.259,0,0,1,.18,0l2,.781a.232.232,0,0,1,.129.3L9.2,6.648a.235.235,0,0,1-.3.129L6.9,6A.231.231,0,0,1,6.77,5.7Zm0,0" fill="#3b241a"/>
      <path id="パス_2" data-name="パス 2" d="M6.191,7.223l2.43.945-1.926,2a.268.268,0,0,1-.367-.039A.259.259,0,0,1,6.281,10Zm0,0" fill="#3b241a"/>
      <path id="パス_3" data-name="パス 3" d="M11.226,8.319l2.582,3.324a.784.784,0,0,1-.336,1.191L6.23,15.495a.764.764,0,0,1-.883-.281L.762,8.69A.767.767,0,0,1,.926,7.632a.99.99,0,0,1,.191-.1L5.094,6.05" transform="translate(0.078 -1.925)" fill="none" stroke="#3b241a" stroke-linecap="round" stroke-miterlimit="10" stroke-width="1.244"/>
      <path id="パス_4" data-name="パス 4" d="M28.742,4.535H25.125V3.426h3.617ZM28.516,11.5H26.539v.426h-1.2V8.078H28.52V11.5Zm-.027-8.582H25.48V1.926h3.008Zm-.055,3.1H25.5V5.051h2.934Zm0,1.527H25.5V6.566h2.934Zm-1.117,2.945V9.074H26.57v1.414Zm8.383-.406h-.461v.789a.916.916,0,0,1-.336.707,1.172,1.172,0,0,1-.773.289H32.773l-.164-1.211h.852c.207,0,.316-.09.316-.285v-.289H30.84v1.852h-1.5V10.082h-.488V9.16h.488V6.449h2.3V5.984H28.879V5.094h1.332V4.551h-.926V3.73h.926V3.215H29.078V2.348h1.133v-.6h1.457v.6h1.258v-.6h1.457v.6H35.5v.867H34.383V3.73h.824v.82h-.824v.543h1.25v.891H32.941v.465h2.3V9.16H35.7Zm-4.043-2.8h-.82v.547h.82Zm-.82,1.879h.82V8.57h-.82Zm.82-5.945V3.73h1.258V3.215Zm0,1.879h1.258V4.551H31.66Zm2.109,2.734V7.281H32.9v.547ZM32.9,9.168h.867v-.59H32.9Zm0,0" transform="translate(-5)" fill="#ed6c00"/>
      <path id="パス_5" data-name="パス 5" d="M42.281,4.953a7.284,7.284,0,0,1-1.344.574c-.711.25-1.316.441-1.812.563l-.34-1.1c.48-.109,1.07-.27,1.746-.484a13.457,13.457,0,0,0,1.555-.574ZM41.4,3.762l-.926.734L39.281,3.371l.473-.348H38.93V2.035h4.809V5.664a.816.816,0,0,1-.348.684,1.209,1.209,0,0,1-.77.246H41.383L41.2,5.453h.934c.176,0,.254-.074.254-.234v-2.2H40.574l.82.73Zm5.434,7.574H41.141v.352H39.6v-4.7H43.2c.2-.391.348-.684.43-.871l1.438.223-.395.648h3.719v4.7H46.832Zm0-2.676V8.012H41.141V8.66Zm-5.691,1.586h5.691V9.574H41.141Zm6.336-5.285a7.613,7.613,0,0,1-1.348.578,16.968,16.968,0,0,1-1.809.555l-.328-1.086c.461-.1,1.039-.262,1.734-.477a11.731,11.731,0,0,0,1.563-.582l.2,1.016Zm-.875-1.2-.93.734L44.484,3.371l.473-.348H44.07V2.035h4.938V5.617a.85.85,0,0,1-.332.707,1.239,1.239,0,0,1-.785.266h-1.3l-.191-1.141h.961c.176,0,.258-.074.258-.23v-2.2H45.781l.824.73Zm0,0" transform="translate(-5)" fill="#ed6c00"/>
      <path id="パス_6" data-name="パス 6" d="M60.875,6.363H54.6V5.719a11.6,11.6,0,0,1-1.9,1L51.949,5.5a12.746,12.746,0,0,0,2.773-1.648,7.874,7.874,0,0,0,2.121-2.148h1.531A11.911,11.911,0,0,0,63.414,5.32L62.59,6.66a12.3,12.3,0,0,1-1.723-.875v.578Zm-.23,5.023c-1.789.2-4.324.379-7.59.547l-.242-1.4,1.473-.051c.4-.605.766-1.238,1.117-1.895h-2.73V7.23H62.719V8.594H60.383A20.43,20.43,0,0,1,62.73,11.4l-1.687.641a5.186,5.186,0,0,0-.4-.656Zm-5.062-6.34h4.2A11.458,11.458,0,0,1,57.672,3.1a11.138,11.138,0,0,1-2.1,1.945Zm.563,5.363c1.488-.082,2.672-.168,3.551-.242-.375-.461-.7-.84-1-1.16l.754-.4H57.211c-.328.613-.687,1.223-1.07,1.8Zm0,0" transform="translate(-5)" fill="#ed6c00"/>
      <path id="パス_7" data-name="パス 7" d="M70.2,11.395l.383-1.32a3.655,3.655,0,0,0,1.559.383,2.06,2.06,0,0,0,1.3-.391,1.337,1.337,0,0,0,.477-1.105,1.42,1.42,0,0,0-.687-1.277,3.572,3.572,0,0,0-1.9-.43,9.057,9.057,0,0,0-1.59.152v3.129a1.206,1.206,0,0,1-.551,1.051,2.353,2.353,0,0,1-1.363.383,2.821,2.821,0,0,1-1.895-.66,2.086,2.086,0,0,1-.777-1.687,2.6,2.6,0,0,1,.789-1.844,5.528,5.528,0,0,1,2.148-1.324V5.023H65.422V3.688h2.664v-1.8H69.73v1.8h2.754V5.023H69.73v1.02a9.732,9.732,0,0,1,1.578-.125,5.561,5.561,0,0,1,3.086.773A2.485,2.485,0,0,1,75.578,8.9a2.8,2.8,0,0,1-.895,2.2,3.392,3.392,0,0,1-2.371.8,4.28,4.28,0,0,1-2.121-.523ZM68.094,7.91c-.977.469-1.457,1.023-1.457,1.676a.849.849,0,0,0,.34.68,1.2,1.2,0,0,0,.785.273.288.288,0,0,0,.246-.078.3.3,0,0,0,.082-.246Zm7.938-3.027-1.215.961a16.774,16.774,0,0,0-1.465-1.516,15.278,15.278,0,0,0-1.594-1.379l.992-1a11.391,11.391,0,0,1,1.7,1.3,15.1,15.1,0,0,1,1.59,1.648Zm0,0" transform="translate(-5)" fill="#ed6c00"/>
      <path id="パス_8" data-name="パス 8" d="M83.973,12.047H82.348V9.285H79.785v.363H78.164V2.691h4.184V1.66h1.625V2.691H88.18V9.656H86.566V9.293H83.973v2.758ZM82.348,3.953H79.785V5.344h2.563Zm0,2.59H79.785V8h2.563Zm4.211-1.2V3.953h-2.6V5.344Zm0,2.652V6.539h-2.6V8Zm0,0" transform="translate(-5)" fill="#ed6c00"/>
      <path id="パス_9" data-name="パス 9" d="M101.93,10.555l-.258,1.289h-.238l-3.531.031a19.124,19.124,0,0,1-3.6-.238,2.522,2.522,0,0,1-1.316-.9,7.7,7.7,0,0,1-1.812,1.313l-.52-1.355a5.162,5.162,0,0,0,1.5-.9V6.922H90.938V5.691h2.7V9.469a.8.8,0,0,0,.313.645,1.828,1.828,0,0,0,.754.375,4.857,4.857,0,0,0,1.035.141c.395.02,1.09.027,2.1.027q3.164,0,4.113-.082ZM93.9,4.039l-1.422.73a12.3,12.3,0,0,0-.7-1.148c-.355-.547-.629-.937-.812-1.164L92.25,1.75A18.99,18.99,0,0,1,93.9,4.039Zm3.961,2.609a6.687,6.687,0,0,1-3.148,3.457L93.914,9a5.754,5.754,0,0,0,2.219-2.172,6.649,6.649,0,0,0,.895-3.02,4.251,4.251,0,0,1-.043-.5H94.836V2.066h3.789v.176A16.05,16.05,0,0,0,98.754,4.8a5.774,5.774,0,0,0,.555,1.527,6.985,6.985,0,0,0,1,1.453A7.665,7.665,0,0,0,101.727,9l-1.121,1.227a7.54,7.54,0,0,1-1.555-1.539,8.308,8.308,0,0,1-1.172-2.035Zm0,0" transform="translate(-5)" fill="#ed6c00"/>
      <path id="パス_10" data-name="パス 10" d="M115.609,7.3l-.469,1.484L113.859,8.3a6.073,6.073,0,0,1-3.039,3.844l-.957-1.035a6.988,6.988,0,0,0,1.672-1.562,4.873,4.873,0,0,0,.773-1.781,14.684,14.684,0,0,0-2.453-.562q-1.775,4.125-3.766,4.133a1.549,1.549,0,0,1-1.215-.543,1.937,1.937,0,0,1-.469-1.328,3.557,3.557,0,0,1,1.172-2.543,4.047,4.047,0,0,1,3.012-1.191h.09a14.62,14.62,0,0,0,.383-1.953h-3.324V2.422h4.867l.227.242a15.528,15.528,0,0,1-.512,3.2,16.314,16.314,0,0,1,2.207.473c.02-.273.027-.684.027-1.215V4.441H114.2v.965a12.282,12.282,0,0,1-.043,1.418l1.48.488Zm-7.426-.2a2.3,2.3,0,0,0-1.3.5,2.441,2.441,0,0,0-.762.961,2.234,2.234,0,0,0-.215.867c0,.242.074.355.215.355.629,0,1.313-.9,2.063-2.684Zm0,0" transform="translate(-5)" fill="#ed6c00"/>
    </g>
  </g>
</svg>
