<?xml version="1.0" encoding="UTF-8"?>
<svg xmlns="http://www.w3.org/2000/svg" xmlns:xlink="http://www.w3.org/1999/xlink" width="155px" height="21px" viewBox="0 0 155 21" version="1.1">
<g id="surface1">
<path style=" stroke:none;fill-rule:nonzero;fill:rgb(23.137255%,14.117647%,10.196078%);fill-opacity:1;" d="M 8.660156 8.394531 L 11.269531 0.214844 C 11.328125 0.0390625 11.492188 -0.0507812 11.636719 0.0195312 L 14.0625 1.171875 C 14.207031 1.238281 14.277344 1.4375 14.222656 1.613281 L 11.609375 9.792969 C 11.554688 9.972656 11.390625 10.058594 11.246094 9.992188 L 8.820312 8.839844 C 8.675781 8.769531 8.605469 8.570312 8.660156 8.394531 Z M 8.660156 8.394531 "/>
<path style=" stroke:none;fill-rule:nonzero;fill:rgb(23.137255%,14.117647%,10.196078%);fill-opacity:1;" d="M 7.941406 10.652344 L 10.898438 12.050781 L 8.554688 14.992188 C 8.425781 15.128906 8.222656 15.089844 8.113281 14.933594 C 8.082031 14.882812 8.054688 14.808594 8.054688 14.746094 Z M 7.941406 10.652344 "/>
<path style="fill:none;stroke-width:1.5;stroke-linecap:round;stroke-linejoin:miter;stroke:rgb(23.137255%,14.117647%,10.196078%);stroke-opacity:1;stroke-miterlimit:10;" d="M 13.578216 7.688744 L 16.698138 11.690843 C 17.008965 12.089141 16.939029 12.669062 16.53884 12.981328 C 16.461133 13.038683 16.379541 13.089665 16.290178 13.121529 L 7.528753 16.320658 C 7.14022 16.460859 6.708948 16.320658 6.468057 15.989275 L 0.919802 8.141211 C 0.628402 7.730167 0.72165 7.159805 1.12184 6.869844 C 1.191776 6.818862 1.269482 6.780625 1.351074 6.748761 L 6.161116 4.970759 " transform="matrix(1.005384,0,0,1.225919,0.512746,0)"/>
<path style=" stroke:none;fill-rule:nonzero;fill:rgb(92.941176%,42.352941%,0%);fill-opacity:1;" d="M 35.339844 6.730469 L 30.945312 6.730469 L 30.945312 5.085938 L 35.339844 5.085938 Z M 35.066406 16.992188 L 32.664062 16.992188 L 32.664062 17.617188 L 31.195312 17.617188 L 31.195312 11.953125 L 35.066406 11.953125 L 35.066406 17.003906 Z M 35.039062 4.339844 L 31.378906 4.339844 L 31.378906 2.882812 L 35.039062 2.882812 Z M 34.96875 8.914062 L 31.398438 8.914062 L 31.398438 7.492188 L 34.96875 7.492188 Z M 34.96875 11.167969 L 31.398438 11.167969 L 31.398438 9.722656 L 34.96875 9.722656 Z M 33.609375 15.507812 L 33.609375 13.421875 L 32.707031 13.421875 L 32.707031 15.507812 Z M 43.804688 14.90625 L 43.242188 14.90625 L 43.242188 16.070312 C 43.242188 16.476562 43.101562 16.832031 42.828125 17.113281 C 42.558594 17.394531 42.246094 17.542969 41.894531 17.542969 L 40.246094 17.542969 L 40.042969 15.753906 L 41.078125 15.753906 C 41.332031 15.753906 41.460938 15.617188 41.460938 15.335938 L 41.460938 14.90625 L 37.894531 14.90625 L 37.894531 17.640625 L 36.0625 17.640625 L 36.0625 14.90625 L 35.46875 14.90625 L 35.46875 13.546875 L 36.0625 13.546875 L 36.0625 9.550781 L 38.859375 9.550781 L 38.859375 8.863281 L 35.511719 8.863281 L 35.511719 7.550781 L 37.128906 7.550781 L 37.128906 6.753906 L 36.003906 6.753906 L 36.003906 5.542969 L 37.128906 5.542969 L 37.128906 4.78125 L 35.75 4.78125 L 35.75 3.507812 L 37.128906 3.507812 L 37.128906 2.625 L 38.898438 2.625 L 38.898438 3.507812 L 40.425781 3.507812 L 40.425781 2.625 L 42.195312 2.625 L 42.195312 3.507812 L 43.554688 3.507812 L 43.554688 4.78125 L 42.195312 4.78125 L 42.195312 5.542969 L 43.203125 5.542969 L 43.203125 6.753906 L 42.195312 6.753906 L 42.195312 7.550781 L 43.714844 7.550781 L 43.714844 8.863281 L 40.445312 8.863281 L 40.445312 9.550781 L 43.242188 9.550781 L 43.242188 13.546875 L 43.804688 13.546875 Z M 38.886719 10.777344 L 37.882812 10.777344 L 37.882812 11.585938 L 38.886719 11.585938 Z M 37.882812 13.546875 L 38.886719 13.546875 L 38.886719 12.675781 L 37.882812 12.675781 Z M 38.886719 4.78125 L 38.886719 5.542969 L 40.417969 5.542969 L 40.417969 4.78125 Z M 38.886719 7.550781 L 40.417969 7.550781 L 40.417969 6.753906 L 38.886719 6.753906 Z M 41.453125 11.585938 L 41.453125 10.777344 L 40.394531 10.777344 L 40.394531 11.585938 Z M 40.394531 13.558594 L 41.453125 13.558594 L 41.453125 12.6875 L 40.394531 12.6875 Z M 40.394531 13.558594 "/>
<path style=" stroke:none;fill-rule:nonzero;fill:rgb(92.941176%,42.352941%,0%);fill-opacity:1;" d="M 50.941406 7.332031 C 50.710938 7.527344 50.167969 7.796875 49.304688 8.175781 C 48.4375 8.558594 47.707031 8.828125 47.101562 9 L 46.691406 7.390625 C 47.273438 7.234375 47.988281 7 48.8125 6.679688 C 49.636719 6.363281 50.269531 6.082031 50.703125 5.835938 Z M 49.867188 5.578125 L 48.742188 6.65625 L 47.292969 5 L 47.867188 4.488281 L 46.859375 4.488281 L 46.859375 3.027344 L 52.710938 3.027344 L 52.710938 8.386719 C 52.710938 8.800781 52.570312 9.132812 52.289062 9.390625 C 52.007812 9.636719 51.695312 9.757812 51.355469 9.757812 L 49.847656 9.757812 L 49.617188 8.078125 L 50.75 8.078125 C 50.964844 8.078125 51.0625 7.96875 51.0625 7.734375 L 51.0625 4.488281 L 48.863281 4.488281 L 49.855469 5.566406 Z M 56.472656 16.746094 L 49.554688 16.746094 L 49.554688 17.261719 L 47.675781 17.261719 L 47.675781 10.335938 L 52.058594 10.335938 C 52.308594 9.757812 52.480469 9.328125 52.582031 9.046875 L 54.332031 9.378906 L 53.847656 10.335938 L 58.371094 10.335938 L 58.371094 17.261719 L 56.472656 17.261719 Z M 56.472656 12.796875 L 56.472656 11.84375 L 49.554688 11.84375 L 49.554688 12.796875 Z M 49.554688 15.140625 L 56.472656 15.140625 L 56.472656 14.148438 L 49.554688 14.148438 Z M 57.257812 7.34375 C 57.023438 7.539062 56.484375 7.808594 55.617188 8.1875 C 54.753906 8.570312 54.019531 8.839844 53.417969 9.011719 L 53.015625 7.40625 C 53.578125 7.257812 54.28125 7.023438 55.125 6.707031 C 55.96875 6.386719 56.59375 6.09375 57.023438 5.847656 L 57.265625 7.34375 Z M 56.191406 5.578125 L 55.066406 6.65625 L 53.617188 5 L 54.191406 4.488281 L 53.113281 4.488281 L 53.113281 3.027344 L 59.117188 3.027344 L 59.117188 8.3125 C 59.117188 8.753906 58.984375 9.097656 58.714844 9.355469 C 58.441406 9.609375 58.132812 9.746094 57.757812 9.746094 L 56.171875 9.746094 L 55.941406 8.066406 L 57.105469 8.066406 C 57.316406 8.066406 57.417969 7.957031 57.417969 7.722656 L 57.417969 4.472656 L 55.195312 4.472656 L 56.191406 5.554688 Z M 56.191406 5.578125 "/>
<path style=" stroke:none;fill-rule:nonzero;fill:rgb(92.941176%,42.352941%,0%);fill-opacity:1;" d="M 72.667969 9.425781 L 65.039062 9.425781 L 65.039062 8.472656 C 64.195312 9.121094 63.417969 9.609375 62.726562 9.941406 L 61.820312 8.152344 C 62.804688 7.675781 63.933594 6.863281 65.1875 5.726562 C 66.445312 4.585938 67.308594 3.53125 67.773438 2.5625 L 69.632812 2.5625 C 71.121094 4.84375 73.160156 6.621094 75.753906 7.882812 L 74.75 9.855469 C 74.097656 9.550781 73.402344 9.109375 72.660156 8.570312 L 72.660156 9.425781 Z M 72.386719 16.832031 C 70.214844 17.125 67.128906 17.394531 63.15625 17.640625 L 62.867188 15.582031 L 64.65625 15.507812 C 65.140625 14.613281 65.589844 13.679688 66.011719 12.710938 L 62.695312 12.710938 L 62.695312 10.703125 L 74.910156 10.703125 L 74.910156 12.710938 L 72.074219 12.710938 C 73.242188 14.160156 74.199219 15.53125 74.929688 16.855469 L 72.878906 17.800781 C 72.78125 17.542969 72.609375 17.222656 72.386719 16.832031 Z M 66.234375 7.476562 L 71.332031 7.476562 C 70.277344 6.535156 69.433594 5.589844 68.777344 4.609375 C 68.164062 5.542969 67.320312 6.496094 66.226562 7.476562 Z M 66.917969 15.386719 C 68.726562 15.261719 70.164062 15.152344 71.230469 15.03125 C 70.777344 14.355469 70.375 13.792969 70.023438 13.324219 L 70.941406 12.726562 L 68.214844 12.726562 C 67.8125 13.632812 67.378906 14.527344 66.910156 15.386719 Z M 66.917969 15.386719 "/>
<path style=" stroke:none;fill-rule:nonzero;fill:rgb(92.941176%,42.352941%,0%);fill-opacity:1;" d="M 84.25 16.832031 L 84.714844 14.882812 C 85.378906 15.261719 86 15.445312 86.605469 15.445312 C 87.265625 15.445312 87.800781 15.25 88.183594 14.871094 C 88.574219 14.492188 88.765625 13.9375 88.765625 13.238281 C 88.765625 12.417969 88.484375 11.792969 87.929688 11.363281 C 87.378906 10.933594 86.605469 10.726562 85.617188 10.726562 C 85.003906 10.726562 84.363281 10.800781 83.679688 10.949219 L 83.679688 15.570312 C 83.679688 16.230469 83.457031 16.746094 83.015625 17.113281 C 82.570312 17.492188 82.019531 17.679688 81.355469 17.679688 C 80.449219 17.679688 79.6875 17.359375 79.054688 16.710938 C 78.421875 16.058594 78.109375 15.238281 78.109375 14.21875 C 78.109375 13.203125 78.429688 12.308594 79.0625 11.5 C 79.707031 10.691406 80.570312 10.039062 81.675781 9.550781 L 81.675781 7.441406 L 78.441406 7.441406 L 78.441406 5.46875 L 81.675781 5.46875 L 81.675781 2.808594 L 83.679688 2.808594 L 83.679688 5.46875 L 87.027344 5.46875 L 87.027344 7.441406 L 83.679688 7.441406 L 83.679688 8.9375 C 84.3125 8.8125 84.945312 8.753906 85.597656 8.753906 C 87.136719 8.753906 88.382812 9.132812 89.347656 9.894531 C 90.304688 10.652344 90.785156 11.746094 90.785156 13.152344 C 90.785156 14.5625 90.425781 15.605469 89.699219 16.402344 C 88.976562 17.199219 88.011719 17.59375 86.804688 17.59375 C 85.851562 17.59375 84.996094 17.335938 84.230469 16.820312 Z M 81.6875 11.695312 C 80.5 12.394531 79.917969 13.214844 79.917969 14.160156 C 79.917969 14.5625 80.058594 14.894531 80.332031 15.164062 C 80.601562 15.433594 80.921875 15.570312 81.285156 15.570312 C 81.558594 15.570312 81.6875 15.410156 81.6875 15.089844 Z M 91.339844 7.234375 L 89.859375 8.644531 C 89.53125 8.140625 88.9375 7.390625 88.082031 6.410156 C 87.226562 5.429688 86.582031 4.746094 86.140625 4.363281 L 87.347656 2.894531 C 87.949219 3.320312 88.632812 3.960938 89.410156 4.804688 C 90.183594 5.652344 90.828125 6.460938 91.339844 7.234375 Z M 91.339844 7.234375 "/>
<path style=" stroke:none;fill-rule:nonzero;fill:rgb(92.941176%,42.352941%,0%);fill-opacity:1;" d="M 101.253906 17.800781 L 99.28125 17.800781 L 99.28125 13.730469 L 96.164062 13.730469 L 96.164062 14.269531 L 94.195312 14.269531 L 94.195312 4.007812 L 99.28125 4.007812 L 99.28125 2.488281 L 101.253906 2.488281 L 101.253906 4.007812 L 106.371094 4.007812 L 106.371094 14.28125 L 104.410156 14.28125 L 104.410156 13.742188 L 101.253906 13.742188 L 101.253906 17.8125 Z M 99.28125 5.871094 L 96.164062 5.871094 L 96.164062 7.917969 L 99.28125 7.917969 Z M 99.28125 9.683594 L 96.164062 9.683594 L 96.164062 11.832031 L 99.28125 11.832031 Z M 104.398438 7.917969 L 104.398438 5.871094 L 101.242188 5.871094 L 101.242188 7.917969 Z M 104.398438 11.832031 L 104.398438 9.683594 L 101.242188 9.683594 L 101.242188 11.832031 Z M 104.398438 11.832031 "/>
<path style=" stroke:none;fill-rule:nonzero;fill:rgb(92.941176%,42.352941%,0%);fill-opacity:1;" d="M 122.183594 10.46875 C 121.589844 13.019531 120.765625 14.859375 119.710938 15.984375 C 118.65625 17.113281 117.308594 17.679688 115.648438 17.679688 C 114.933594 17.679688 114.3125 17.566406 113.769531 17.335938 C 113.238281 17.101562 112.792969 16.808594 112.453125 16.414062 C 112.109375 16.035156 111.847656 15.605469 111.667969 15.152344 C 111.488281 14.699219 111.367188 14.207031 111.304688 13.707031 C 111.253906 13.191406 111.226562 12.40625 111.226562 11.328125 C 111.226562 10.152344 111.324219 7.40625 111.515625 3.078125 L 113.566406 3.078125 C 113.378906 6.9375 113.285156 9.625 113.285156 11.132812 C 113.285156 12.355469 113.316406 13.140625 113.367188 13.472656 C 113.417969 13.804688 113.539062 14.121094 113.71875 14.429688 C 113.898438 14.734375 114.171875 14.96875 114.511719 15.128906 C 114.855469 15.289062 115.277344 15.371094 115.78125 15.371094 C 116.886719 15.371094 117.8125 14.90625 118.554688 13.988281 C 119.296875 13.066406 119.882812 11.609375 120.324219 9.609375 L 122.164062 10.457031 Z M 122.183594 10.46875 "/>
<path style=" stroke:none;fill-rule:nonzero;fill:rgb(92.941176%,42.352941%,0%);fill-opacity:1;" d="M 138.601562 15.605469 L 138.289062 17.507812 C 138.21875 17.507812 138.121094 17.507812 138 17.507812 L 133.707031 17.554688 C 131.683594 17.554688 130.21875 17.433594 129.332031 17.199219 C 128.609375 16.90625 128.074219 16.464844 127.734375 15.875 C 127.019531 16.710938 126.277344 17.359375 125.53125 17.8125 L 124.898438 15.8125 C 125.5625 15.507812 126.175781 15.066406 126.730469 14.492188 L 126.730469 10.25 L 125.242188 10.25 L 125.242188 8.433594 L 128.519531 8.433594 L 128.519531 14 C 128.519531 14.378906 128.648438 14.699219 128.898438 14.957031 C 129.152344 15.214844 129.453125 15.398438 129.816406 15.507812 C 130.167969 15.617188 130.589844 15.691406 131.070312 15.714844 C 131.554688 15.742188 132.398438 15.753906 133.625 15.753906 C 136.1875 15.753906 137.859375 15.714844 138.621094 15.628906 Z M 128.839844 5.996094 L 127.109375 7.074219 C 126.988281 6.765625 126.707031 6.203125 126.265625 5.382812 C 125.824219 4.574219 125.503906 3.996094 125.28125 3.664062 L 126.839844 2.625 C 127.441406 3.46875 128.105469 4.597656 128.839844 5.996094 Z M 133.65625 9.84375 C 132.972656 12 131.683594 13.695312 129.824219 14.945312 L 128.859375 13.3125 C 130.007812 12.542969 130.902344 11.472656 131.554688 10.113281 C 132.199219 8.753906 132.570312 7.269531 132.640625 5.664062 C 132.609375 5.371094 132.589844 5.125 132.589844 4.929688 L 129.976562 4.929688 L 129.976562 3.089844 L 134.582031 3.089844 L 134.582031 3.347656 C 134.582031 5.160156 134.632812 6.421875 134.742188 7.121094 C 134.851562 7.820312 135.074219 8.582031 135.414062 9.367188 C 135.757812 10.164062 136.160156 10.875 136.632812 11.511719 C 137.105469 12.148438 137.675781 12.738281 138.351562 13.300781 L 136.992188 15.117188 C 136.351562 14.5625 135.714844 13.804688 135.101562 12.847656 C 134.488281 11.890625 134.019531 10.886719 133.664062 9.84375 Z M 133.65625 9.84375 "/>
<path style=" stroke:none;fill-rule:nonzero;fill:rgb(92.941176%,42.352941%,0%);fill-opacity:1;" d="M 154.488281 10.8125 L 153.914062 12.996094 L 152.355469 12.285156 C 151.78125 14.808594 150.546875 16.695312 148.667969 17.949219 L 147.5 16.425781 C 148.40625 15.65625 149.078125 14.894531 149.53125 14.121094 C 149.984375 13.363281 150.292969 12.480469 150.476562 11.5 C 149.390625 11.082031 148.394531 10.800781 147.488281 10.664062 C 146.050781 14.722656 144.523438 16.757812 142.914062 16.757812 C 142.3125 16.757812 141.820312 16.488281 141.4375 15.960938 C 141.054688 15.421875 140.863281 14.773438 140.863281 14 C 140.863281 12.664062 141.335938 11.414062 142.292969 10.25 C 143.246094 9.085938 144.464844 8.496094 145.953125 8.496094 L 146.0625 8.496094 C 146.253906 7.660156 146.402344 6.707031 146.523438 5.613281 L 142.484375 5.613281 L 142.484375 3.617188 L 148.40625 3.617188 L 148.675781 3.972656 C 148.617188 5.503906 148.40625 7.074219 148.054688 8.679688 C 148.855469 8.8125 149.75 9.046875 150.738281 9.378906 C 150.757812 8.972656 150.765625 8.371094 150.765625 7.589844 C 150.765625 7.28125 150.765625 6.949219 150.765625 6.59375 L 152.769531 6.59375 L 152.769531 8.015625 C 152.777344 8.800781 152.769531 9.5 152.71875 10.101562 L 154.515625 10.824219 Z M 145.457031 10.519531 C 144.835938 10.578125 144.3125 10.824219 143.871094 11.253906 C 143.4375 11.683594 143.125 12.160156 142.945312 12.675781 C 142.773438 13.191406 142.683594 13.621094 142.683594 13.949219 C 142.683594 14.304688 142.773438 14.476562 142.945312 14.476562 C 143.710938 14.476562 144.542969 13.152344 145.457031 10.519531 Z M 145.457031 10.519531 "/>
</g>
</svg>
