<?xml version="1.0" encoding="UTF-8"?><svg id="_レイヤー_1" xmlns="http://www.w3.org/2000/svg" viewBox="0 0 153.15 17.13"><defs><style>.cls-1{isolation:isolate;}.cls-1,.cls-2{fill:none;}.cls-3{fill:#ed6c00;}.cls-4{fill:#3b241a;}.cls-2{stroke:#3b241a;stroke-linecap:round;stroke-miterlimit:10;stroke-width:1.5px;}</style></defs><g id="header"><rect class="cls-4" x="7.01" y="2.51" width="7.72" height="3.15" rx=".28" ry=".28" transform="translate(3.12 12.73) rotate(-68.73)"/><path class="cls-4" d="m7.39,8.69l2.94,1.14-2.33,2.4c-.13.11-.33.08-.44-.05-.03-.04-.06-.1-.06-.15l-.11-3.34Z"/><path class="cls-2" d="m13.58,7.69l3.12,4c.31.4.24.98-.16,1.29-.08.06-.16.11-.25.14l-8.76,3.2c-.39.14-.82,0-1.06-.33L.92,8.14c-.29-.41-.2-.98.2-1.27.07-.05.15-.09.23-.12l4.81-1.78"/></g><g class="cls-1"><g class="cls-1"><path class="cls-3" d="m34.64,5.49h-4.37v-1.34h4.37v1.34Zm-.27,8.37h-2.39v.51h-1.46v-4.62h3.85v4.12Zm-.03-10.32h-3.64v-1.19h3.64v1.19Zm-.07,3.73h-3.55v-1.16h3.55v1.16Zm0,1.84h-3.55v-1.18h3.55v1.18Zm-1.35,3.54v-1.7h-.9v1.7h.9Zm10.14-.49h-.56v.95c0,.33-.14.62-.41.85s-.58.35-.93.35h-1.64l-.2-1.46h1.03c.25,0,.38-.11.38-.34v-.35h-3.55v2.23h-1.82v-2.23h-.59v-1.11h.59v-3.26h2.78v-.56h-3.33v-1.07h1.61v-.65h-1.12v-.99h1.12v-.62h-1.37v-1.04h1.37v-.72h1.76v.72h1.52v-.72h1.76v.72h1.35v1.04h-1.35v.62h1v.99h-1v.65h1.51v1.07h-3.25v.56h2.78v3.26h.56v1.11Zm-4.89-3.37h-1v.66h1v-.66Zm-1,2.26h1v-.71h-1v.71Zm1-7.15v.62h1.52v-.62h-1.52Zm0,2.26h1.52v-.65h-1.52v.65Zm2.55,3.29v-.66h-1.05v.66h1.05Zm-1.05,1.61h1.05v-.71h-1.05v.71Z"/><path class="cls-3" d="m50.16,5.98c-.23.16-.77.38-1.63.69s-1.59.53-2.19.67l-.41-1.31c.58-.13,1.29-.32,2.11-.58s1.45-.49,1.88-.69l.24,1.22Zm-1.07-1.43l-1.12.88-1.44-1.35.57-.42h-1v-1.19h5.82v4.37c0,.34-.14.61-.42.82-.28.2-.59.3-.93.3h-1.5l-.23-1.37h1.13c.21,0,.31-.09.31-.28v-2.65h-2.19l.99.88Zm6.57,9.11h-6.88v.42h-1.87v-5.65h4.36c.25-.47.42-.82.52-1.05l1.74.27-.48.78h4.5v5.65h-1.89v-.42Zm0-3.22v-.78h-6.88v.78h6.88Zm-6.88,1.91h6.88v-.81h-6.88v.81Zm7.66-6.36c-.23.16-.77.38-1.63.69s-1.59.53-2.19.67l-.4-1.31c.56-.12,1.26-.31,2.1-.57s1.46-.5,1.89-.7l.24,1.22Zm-1.06-1.44l-1.12.88-1.44-1.35.57-.42h-1.07v-1.19h5.97v4.31c0,.36-.13.64-.4.85s-.58.32-.95.32h-1.58l-.23-1.37h1.16c.21,0,.31-.09.31-.28v-2.65h-2.21l.99.88Z"/><path class="cls-3" d="m71.77,7.69h-7.59v-.78c-.84.53-1.61.93-2.3,1.2l-.9-1.46c.98-.39,2.1-1.05,3.35-1.98s2.11-1.79,2.57-2.58h1.85c1.48,1.86,3.51,3.31,6.09,4.34l-1,1.61c-.65-.25-1.34-.61-2.08-1.05v.7Zm-.28,6.04c-2.16.24-5.23.46-9.18.66l-.29-1.68,1.78-.06c.48-.73.93-1.49,1.35-2.28h-3.3v-1.64h12.15v1.64h-2.82c1.16,1.18,2.11,2.3,2.84,3.38l-2.04.77c-.1-.21-.27-.47-.49-.79Zm-6.12-7.63h5.07c-1.05-.77-1.89-1.54-2.54-2.34-.61.76-1.45,1.54-2.54,2.34Zm.68,6.45c1.8-.1,3.23-.19,4.29-.29-.45-.55-.85-1.01-1.2-1.39l.91-.49h-2.71c-.4.74-.83,1.47-1.3,2.17Z"/><path class="cls-3" d="m83.29,13.73l.46-1.59c.66.31,1.28.46,1.88.46.66,0,1.19-.16,1.57-.47.39-.31.58-.76.58-1.33,0-.67-.28-1.18-.83-1.53-.55-.35-1.32-.52-2.3-.52-.61,0-1.25.06-1.93.18v3.77c0,.54-.22.96-.66,1.26-.44.31-.99.46-1.65.46-.9,0-1.66-.26-2.29-.79s-.94-1.2-.94-2.03.32-1.56.95-2.22c.64-.66,1.5-1.19,2.6-1.59v-1.72h-3.22v-1.61h3.22v-2.17h1.99v2.17h3.33v1.61h-3.33v1.22c.63-.1,1.26-.15,1.91-.15,1.53,0,2.77.31,3.73.93.95.62,1.43,1.51,1.43,2.66s-.36,2-1.08,2.65c-.72.65-1.68.97-2.88.97-.95,0-1.8-.21-2.56-.63Zm-2.55-4.19c-1.18.57-1.76,1.24-1.76,2.01,0,.33.14.6.41.82.27.22.59.33.95.33.27,0,.4-.13.4-.39v-2.77Zm9.6-3.64l-1.47,1.15c-.33-.41-.92-1.02-1.77-1.82-.85-.8-1.49-1.36-1.93-1.67l1.2-1.2c.6.35,1.28.87,2.05,1.56.77.69,1.41,1.35,1.92,1.98Z"/><path class="cls-3" d="m100.2,14.52h-1.96v-3.32h-3.1v.44h-1.96V3.27h5.06v-1.24h1.96v1.24h5.09v8.38h-1.95v-.44h-3.14v3.32Zm-1.96-9.73h-3.1v1.67h3.1v-1.67Zm0,3.11h-3.1v1.75h3.1v-1.75Zm5.09-1.44v-1.67h-3.14v1.67h3.14Zm0,3.19v-1.75h-3.14v1.75h3.14Z"/><path class="cls-3" d="m121.02,8.54c-.59,2.08-1.41,3.58-2.46,4.5-1.05.92-2.39,1.38-4.04,1.38-.71,0-1.33-.09-1.87-.28-.53-.19-.97-.43-1.31-.75-.34-.31-.6-.66-.78-1.03-.18-.37-.3-.77-.36-1.18-.05-.42-.08-1.06-.08-1.94,0-.96.1-3.2.29-6.73h2.04c-.19,3.15-.28,5.34-.28,6.57,0,1,.03,1.64.08,1.91.05.27.17.53.35.78.18.25.45.44.79.57.34.13.76.2,1.26.2,1.1,0,2.02-.38,2.76-1.13s1.32-1.94,1.76-3.57l1.83.69Z"/><path class="cls-3" d="m137.35,12.73l-.31,1.55c-.07,0-.17,0-.29,0l-4.27.04c-2.01,0-3.47-.1-4.35-.29-.72-.24-1.25-.6-1.59-1.08-.71.68-1.45,1.21-2.19,1.58l-.63-1.63c.66-.25,1.27-.61,1.82-1.08v-3.46h-1.48v-1.48h3.26v4.54c0,.31.13.57.38.78.25.21.55.36.91.45.35.09.77.15,1.25.17s1.32.03,2.54.03c2.55,0,4.21-.03,4.97-.1Zm-9.71-7.84l-1.72.88c-.12-.25-.4-.71-.84-1.38-.44-.66-.76-1.13-.98-1.4l1.55-.85c.6.69,1.26,1.61,1.99,2.75Zm4.79,3.14c-.68,1.76-1.96,3.14-3.81,4.16l-.96-1.33c1.14-.63,2.03-1.5,2.68-2.61.64-1.11,1.01-2.32,1.08-3.63-.03-.24-.05-.44-.05-.6h-2.6v-1.5h4.58v.21c0,1.48.05,2.51.16,3.08.11.57.33,1.19.67,1.83.34.65.74,1.23,1.21,1.75.47.52,1.04,1,1.71,1.46l-1.35,1.48c-.64-.45-1.27-1.07-1.88-1.85s-1.08-1.6-1.43-2.45Z"/><path class="cls-3" d="m153.15,8.82l-.57,1.78-1.55-.58c-.57,2.06-1.8,3.6-3.67,4.62l-1.16-1.24c.9-.63,1.57-1.25,2.02-1.88.45-.62.76-1.34.94-2.14-1.08-.34-2.07-.57-2.97-.68-1.43,3.31-2.95,4.97-4.55,4.97-.6,0-1.09-.22-1.47-.65-.38-.44-.57-.97-.57-1.6,0-1.09.47-2.11,1.42-3.06.95-.95,2.16-1.43,3.64-1.43h.11c.19-.68.34-1.46.46-2.35h-4.02v-1.63h5.89l.27.29c-.06,1.25-.27,2.53-.62,3.84.8.11,1.69.3,2.67.57.02-.33.03-.82.03-1.46,0-.25,0-.52,0-.81h1.99v1.16c.01.64,0,1.21-.05,1.7l1.79.59Zm-8.98-.24c-.62.05-1.14.25-1.58.6-.43.35-.74.74-.92,1.16-.17.42-.26.77-.26,1.04,0,.29.09.43.26.43.76,0,1.59-1.08,2.5-3.23Z"/></g></g></svg>