<svg xmlns="http://www.w3.org/2000/svg" width="138.556" height="17.308" viewBox="0 0 138.556 17.308">
  <g id="グループ_1" data-name="グループ 1" transform="translate(-800.152 -537)">
    <g id="surface1" transform="translate(800.247 534.661)">
      <path id="パス_1" data-name="パス 1" d="M8.133,9.254,10.746,2.52a.278.278,0,0,1,.363-.16l2.426.945a.287.287,0,0,1,.16.367L11.086,10.41a.287.287,0,0,1-.367.16L8.293,9.621A.286.286,0,0,1,8.133,9.254Zm0,0" fill="#3b241a"/>
      <path id="パス_2" data-name="パス 2" d="M7.43,11.109l2.953,1.148-2.34,2.426a.325.325,0,0,1-.445-.051.319.319,0,0,1-.059-.152Zm0,0" fill="#3b241a"/>
      <path id="パス_3" data-name="パス 3" d="M13.648,10.1l3.137,4.039a.93.93,0,0,1-.16,1.3.9.9,0,0,1-.25.145l-8.8,3.23A.927.927,0,0,1,6.5,18.474L.926,10.552a.931.931,0,0,1,.2-1.285,1.084,1.084,0,0,1,.23-.121l4.836-1.8" transform="translate(0 0.002)" fill="none" stroke="#3b241a" stroke-linecap="round" stroke-miterlimit="10" stroke-width="1.511"/>
      <path id="パス_4" data-name="パス 4" d="M34.84,7.848H30.445V6.5H34.84ZM34.566,16.3h-2.4v.516H30.7V12.148h3.871v4.16ZM34.535,5.879H30.879v-1.2h3.656Zm-.07,3.766H30.9V8.473h3.566Zm0,1.855H30.9V10.313h3.566Zm-1.355,3.574V13.359H32.2v1.715ZM43.3,14.582h-.562v.957a1.1,1.1,0,0,1-.41.859,1.419,1.419,0,0,1-.937.352H39.742l-.2-1.473h1.035c.25,0,.383-.109.383-.344v-.352h-3.57v2.25H35.563v-2.25h-.594V13.461h.594V10.168h2.793V9.605H35.008V8.523h1.621V7.867H35.5v-1h1.129V6.242H35.25V5.191h1.379V4.465H38.4v.727h1.527V4.465H41.7v.727h1.355V6.242H41.7v.625h1v1h-1v.656h1.516V9.605H39.945v.563h2.793v3.293H43.3Zm-4.914-3.4h-1v.664h1Zm-1,2.281h1v-.719h-1Zm1-7.219v.625h1.527V6.242Zm0,2.281h1.527V7.867H38.387Zm2.563,3.32V11.18H39.895v.664Zm-1.055,1.625h1.055v-.715H39.895Zm0,0" transform="translate(-3.235)" fill="#ed6c00"/>
      <path id="パス_5" data-name="パス 5" d="M51.3,8.352a8.843,8.843,0,0,1-1.637.7c-.863.3-1.6.535-2.2.68L47.051,8.4c.582-.133,1.3-.324,2.121-.586a17.4,17.4,0,0,0,1.891-.7ZM50.227,6.906,49.1,7.8,47.652,6.434l.574-.426h-1v-1.2H53.07v4.41a.984.984,0,0,1-.422.828,1.487,1.487,0,0,1-.934.3H50.207l-.23-1.383h1.137c.211,0,.309-.094.309-.285V6.008h-2.2l1,.891Zm6.605,9.2H49.914v.426H48.035V10.824h4.383c.25-.473.422-.828.523-1.059l1.75.273-.484.785H58.73v5.707h-1.9Zm0-3.25v-.789H49.914v.789Zm-6.918,1.926h6.918v-.816H49.914Zm7.7-6.418a9.446,9.446,0,0,1-1.637.7,21.6,21.6,0,0,1-2.2.676l-.4-1.32c.563-.121,1.266-.316,2.109-.578a14.936,14.936,0,0,0,1.9-.707l.242,1.234ZM56.551,6.906,55.422,7.8,53.977,6.434l.574-.426H53.473v-1.2h6V9.16a1.032,1.032,0,0,1-.4.859,1.512,1.512,0,0,1-.957.32H56.531L56.3,8.957h1.168c.211,0,.313-.09.313-.281V6H55.555l1,.887Zm0,0" transform="translate(-3.703)" fill="#ed6c00"/>
      <path id="パス_6" data-name="パス 6" d="M73.9,10.066H66.27V9.281a13.892,13.892,0,0,1-2.312,1.211L63.051,9.02a15.461,15.461,0,0,0,3.371-2A9.634,9.634,0,0,0,69,4.414h1.859A14.469,14.469,0,0,0,76.984,8.8l-1,1.625a15.3,15.3,0,0,1-2.094-1.059v.7Zm-.281,6.1c-2.172.242-5.258.461-9.227.664l-.293-1.7,1.789-.062c.484-.734.934-1.5,1.359-2.3h-3.32V11.117H76.141v1.656H73.3a24.652,24.652,0,0,1,2.855,3.414l-2.051.777A6.059,6.059,0,0,0,73.617,16.168Zm-6.152-7.7h5.1A13.771,13.771,0,0,1,70.008,6.1a13.625,13.625,0,0,1-2.551,2.363Zm.684,6.512c1.809-.1,3.246-.2,4.313-.293-.453-.559-.855-1.02-1.207-1.406l.914-.492H69.445c-.4.746-.836,1.484-1.3,2.191Zm0,0" transform="translate(-4.149)" fill="#ed6c00"/>
      <path id="パス_7" data-name="パス 7" d="M85.234,16.176,85.7,14.57a4.408,4.408,0,0,0,1.891.465,2.466,2.466,0,0,0,1.578-.473,1.635,1.635,0,0,0,.582-1.344,1.717,1.717,0,0,0-.836-1.547,4.3,4.3,0,0,0-2.312-.523,11.093,11.093,0,0,0-1.937.184v3.8A1.46,1.46,0,0,1,84,16.41a2.889,2.889,0,0,1-1.66.461,3.437,3.437,0,0,1-2.3-.8,2.534,2.534,0,0,1-.945-2.047,3.163,3.163,0,0,1,.957-2.242,6.739,6.739,0,0,1,2.613-1.605V8.441H79.426V6.816h3.238V4.625h2V6.816h3.348V8.441H84.664V9.676a12.023,12.023,0,0,1,1.918-.152,6.78,6.78,0,0,1,3.75.938,3.018,3.018,0,0,1,1.438,2.688,3.389,3.389,0,0,1-1.086,2.676A4.126,4.126,0,0,1,87.8,16.8a5.216,5.216,0,0,1-2.574-.633Zm-2.562-4.23c-1.184.566-1.77,1.242-1.77,2.031a1.028,1.028,0,0,0,.414.828,1.461,1.461,0,0,0,.953.332.351.351,0,0,0,.4-.395ZM92.324,8.27l-1.48,1.164a20.565,20.565,0,0,0-1.777-1.84,19.094,19.094,0,0,0-1.941-1.676l1.207-1.211a13.619,13.619,0,0,1,2.063,1.574,18.074,18.074,0,0,1,1.93,2Zm0,0" transform="translate(-2.683)" fill="#ed6c00"/>
      <path id="パス_8" data-name="パス 8" d="M101.973,16.965H100V13.613H96.887v.441H94.914V5.605H100V4.355h1.973v1.25h5.117v8.461h-1.961v-.445h-3.156v3.352ZM100,7.141H96.887V8.828H100Zm0,3.141H96.887v1.766H100Zm5.117-1.453V7.141h-3.156V8.828Zm0,3.219V10.281h-3.156v1.766Zm0,0" transform="translate(-2.277)" fill="#ed6c00"/>
      <path id="パス_10" data-name="パス 10" d="M138.8,15.156l-.312,1.566H138.2l-4.293.039a23.209,23.209,0,0,1-4.375-.293,3.079,3.079,0,0,1-1.6-1.09,9.217,9.217,0,0,1-2.2,1.594l-.633-1.645a6.287,6.287,0,0,0,1.828-1.09V10.746h-1.488V9.25h3.277v4.586a.961.961,0,0,0,.383.785,2.212,2.212,0,0,0,.914.453,5.857,5.857,0,0,0,1.258.172c.48.023,1.324.031,2.551.031q3.844,0,5-.1Zm-9.762-7.914-1.727.887a14.086,14.086,0,0,0-.844-1.391c-.434-.668-.766-1.141-.988-1.414l1.559-.859A23.381,23.381,0,0,1,129.039,7.242Zm4.816,3.168a8.1,8.1,0,0,1-3.828,4.2l-.969-1.344a6.967,6.967,0,0,0,2.7-2.637,8.021,8.021,0,0,0,1.086-3.664,5.017,5.017,0,0,1-.051-.605h-2.613V4.848h4.605v.215a19.246,19.246,0,0,0,.16,3.109,6.888,6.888,0,0,0,.672,1.855,8.484,8.484,0,0,0,1.219,1.766,9.408,9.408,0,0,0,1.719,1.477l-1.359,1.492a9.129,9.129,0,0,1-1.891-1.867,10.084,10.084,0,0,1-1.426-2.473Zm0,0" transform="translate(-17)" fill="#ed6c00"/>
      <path id="パス_11" data-name="パス 11" d="M154.43,11.211l-.57,1.8-1.559-.586a7.364,7.364,0,0,1-3.691,4.664l-1.164-1.254a8.393,8.393,0,0,0,2.031-1.9,5.891,5.891,0,0,0,.941-2.16,17.557,17.557,0,0,0-2.984-.684q-2.156,5.01-4.574,5.016a1.885,1.885,0,0,1-1.477-.656,2.363,2.363,0,0,1-.57-1.613,4.313,4.313,0,0,1,1.426-3.09A4.935,4.935,0,0,1,145.9,9.3h.109a17.754,17.754,0,0,0,.461-2.371H142.43V5.281h5.918l.273.293A18.725,18.725,0,0,1,148,9.453a20.394,20.394,0,0,1,2.684.574c.023-.332.031-.828.031-1.473v-.82h2V8.906a14.665,14.665,0,0,1-.051,1.719l1.8.594Zm-9.027-.242a2.79,2.79,0,0,0-1.586.605,3.014,3.014,0,0,0-.926,1.168,2.819,2.819,0,0,0-.262,1.051c0,.293.09.434.262.434C143.656,14.227,144.488,13.137,145.4,10.969Zm0,0" transform="translate(-16)" fill="#ed6c00"/>
    </g>
  </g>
</svg>
