<?xml version="1.0" encoding="UTF-8"?>
<svg id="_レイヤー_1" data-name="レイヤー_1" xmlns="http://www.w3.org/2000/svg" version="1.1" viewBox="0 0 139 17">
  <!-- Generator: Adobe Illustrator 29.4.0, SVG Export Plug-In . SVG Version: 2.1.0 Build 152)  -->
  <defs>
    <style>
      .st0 {
        fill: #ff4500;
        font-family: NotoSansJP-Bold-83pv-RKSJ-H, 'Noto Sans JP';
        font-size: 16px;
        font-weight: 700;
      }

      .st1 {
        fill: none;
        stroke: #3b241a;
        stroke-linecap: round;
        stroke-miterlimit: 9.8;
        stroke-width: 1.5px;
      }

      .st2 {
        fill: #3b241a;
      }
    </style>
  </defs>
  <g id="surface1">
    <path class="st2" d="M9.5,6.8L12.1.3c0,0,.2-.2.4-.2l2.4.9c0,0,.2.2.2.4l-2.6,6.6c0,0-.2.2-.4.2l-2.4-.9c-.2,0-.3-.3-.2-.4Z"/>
    <path class="st2" d="M8.8,8.6l2.9,1.1-2.3,2.4c0,.1-.3.1-.4,0,0,0,0,0,0-.2l-.2-3.1Z"/>
    <path class="st1" d="M14.9,7.6l3,3.9c.3.4.2,1-.2,1.3-.1,0-.2,0-.2,0l-8.6,3.1c-.4,0-.8,0-1.1-.3l-5.5-7.8c-.3-.4-.2-1,.2-1.3.1,0,.1,0,.2,0l4.7-1.8"/>
  </g>
  <text class="st0" transform="translate(26.3 14.3)"><tspan x="0" y="0">講座お申込み</tspan></text>
</svg>