<?xml version="1.0" encoding="UTF-8"?>
<svg id="_レイヤー_2" data-name=" レイヤー 2" xmlns="http://www.w3.org/2000/svg" viewBox="0 0 118.72 16.8">
  <defs>
    <style>
      .cls-1 {
        fill: #ff4500;
      }

      .cls-2 {
        fill: none;
        stroke: #3b241a;
        stroke-linecap: round;
        stroke-miterlimit: 9.83;
        stroke-width: 1.48px;
      }

      .cls-3 {
        fill: #3b241a;
      }
    </style>
  </defs>
  <g id="_レイヤー_1-2" data-name=" レイヤー 1-2">
    <g>
      <path class="cls-3" d="M8.08,6.78L10.64.2c.1-.1.2-.2.39-.2l2.36.89c.1.1.2.2.2.39l-2.55,6.59c-.1.1-.2.2-.39.2l-2.36-.88c-.2-.1-.3-.3-.2-.39v-.02Z"/>
      <path class="cls-3" d="M7.4,8.55l2.95,1.08-2.26,2.36c-.1.1-.29.1-.39-.1,0,0-.1-.1-.1-.2,0,0-.2-3.14-.2-3.14Z"/>
      <path class="cls-2" d="M13.49,7.57l3.05,3.93c.29.39.2.98-.2,1.28-.1.1-.2.1-.2.1l-8.64,3.14c-.39.1-.79,0-1.08-.3L.91,7.96c-.29-.39-.2-.98.2-1.28.1,0,.1-.1.2-.1l4.71-1.77"/>
    </g>
  </g>
  <g>
    <path class="cls-1" d="M30.78,5.57h-4.37v-1.34h4.37v1.34ZM30.51,13.95h-2.39v.51h-1.46v-4.62h3.85v4.12ZM30.49,3.63h-3.64v-1.19h3.64v1.19ZM30.42,7.36h-3.55v-1.16h3.55v1.16ZM30.42,9.2h-3.55v-1.18h3.55v1.18ZM29.07,12.74v-1.7h-.9v1.7h.9ZM39.21,12.25h-.56v.95c0,.33-.14.62-.41.85s-.58.35-.93.35h-1.64l-.2-1.46h1.03c.25,0,.38-.11.38-.34v-.35h-3.55v2.23h-1.82v-2.23h-.59v-1.11h.59v-3.26h2.78v-.56h-3.33v-1.07h1.61v-.65h-1.12v-.99h1.12v-.62h-1.37v-1.04h1.37v-.72h1.76v.72h1.52v-.72h1.76v.72h1.35v1.04h-1.35v.62h1v.99h-1v.65h1.51v1.07h-3.25v.56h2.78v3.26h.56v1.11ZM34.32,8.88h-1v.66h1v-.66ZM33.32,11.14h1v-.71h-1v.71ZM34.32,3.99v.62h1.52v-.62h-1.52ZM34.32,6.25h1.52v-.65h-1.52v.65ZM36.87,9.54v-.66h-1.05v.66h1.05ZM35.82,11.14h1.05v-.71h-1.05v.71Z"/>
    <path class="cls-1" d="M55.28,4.4h-10.43v1.99c0,1.08-.04,2-.11,2.76.41-.29.73-.63.96-1.02s.4-.78.49-1.18.14-1.06.14-1.98h1.43c0,.57-.01,1.01-.03,1.33.07.9.5,1.72,1.31,2.45v-4.01s1.73-.01,1.73-.01v4.29c.36-.28.66-.61.88-.97s.37-.73.45-1.09c.08-.36.13-1.02.13-1.99h1.44c0,.36,0,.71-.01,1.06h.01c0,.69.21,1.31.59,1.87s.75.96,1.1,1.2l-.88.96c-.62-.43-1.1-1.01-1.45-1.74-.41.72-.96,1.33-1.67,1.82l-.59-.88v1.22h3.98v1.35h-3.99v.95h4.45v1.46h-10.4s0-1.46,0-1.46h4.23v-.95h-3.87v-1.35h3.88v-1.35l-.62.77c-.57-.5-1.01-1.02-1.31-1.57-.43.73-.99,1.32-1.67,1.78l-.7-.84c-.1.95-.28,1.91-.55,2.89-.26.98-.59,1.73-.99,2.25l-1.35-.8c.22-.44.43-1.04.64-1.8.21-.76.36-1.51.45-2.26.09-.75.14-1.7.14-2.85v-3.65h5.46v-.94h1.86v.94h4.89v1.33Z"/>
    <path class="cls-1" d="M64.48,13.82l.46-1.59c.66.31,1.28.46,1.88.46.66,0,1.18-.16,1.57-.47s.58-.76.58-1.33c0-.67-.28-1.19-.83-1.53-.55-.35-1.32-.52-2.3-.52-.61,0-1.25.06-1.93.19v3.77c0,.54-.22.96-.66,1.26-.44.3-.99.46-1.65.46-.9,0-1.66-.26-2.29-.79-.63-.52-.94-1.2-.94-2.03s.32-1.56.95-2.22c.64-.66,1.5-1.19,2.6-1.59v-1.72h-3.22v-1.61h3.22v-2.17h1.99v2.17h3.33v1.61h-3.33v1.22c.63-.1,1.26-.15,1.91-.15,1.53,0,2.77.31,3.73.93.96.62,1.43,1.51,1.43,2.66s-.36,2-1.08,2.65c-.72.65-1.68.97-2.87.97-.95,0-1.8-.21-2.56-.63ZM61.93,9.62c-1.18.56-1.76,1.23-1.76,2.01,0,.33.14.6.41.82.27.22.59.33.95.33.27,0,.4-.13.4-.39v-2.77ZM71.53,5.99l-1.47,1.15c-.33-.41-.92-1.02-1.77-1.82-.85-.8-1.49-1.36-1.93-1.66l1.2-1.2c.6.35,1.28.87,2.05,1.56.77.69,1.41,1.35,1.92,1.98Z"/>
    <path class="cls-1" d="M80.73,14.6h-1.96v-3.32h-3.1v.44h-1.96V3.35h5.06v-1.24h1.96v1.24h5.09v8.38h-1.95v-.44h-3.14v3.32ZM78.78,4.87h-3.1v1.67h3.1v-1.67ZM78.78,7.98h-3.1v1.75h3.1v-1.75ZM83.87,6.54v-1.67h-3.14v1.67h3.14ZM83.87,9.73v-1.75h-3.14v1.75h3.14Z"/>
    <path class="cls-1" d="M102.57,12.81l-.31,1.55c-.07,0-.17,0-.29,0l-4.27.04c-2.01,0-3.47-.1-4.35-.29-.72-.24-1.25-.6-1.59-1.08-.72.68-1.45,1.21-2.19,1.58l-.63-1.63c.66-.25,1.27-.61,1.82-1.08v-3.46h-1.48v-1.48h3.26v4.54c0,.31.12.57.38.78.25.21.55.36.91.45.35.09.77.15,1.25.17.48.02,1.32.03,2.54.03,2.55,0,4.21-.03,4.97-.1ZM92.86,4.97l-1.72.88c-.12-.26-.4-.71-.84-1.38-.43-.66-.76-1.13-.98-1.4l1.55-.85c.6.69,1.26,1.61,1.99,2.75ZM97.65,8.11c-.68,1.76-1.96,3.15-3.81,4.16l-.96-1.33c1.14-.63,2.03-1.5,2.68-2.62.65-1.11,1.01-2.32,1.08-3.63-.03-.24-.05-.44-.05-.6h-2.6v-1.5h4.58v.21c0,1.48.05,2.51.16,3.08.11.57.33,1.19.67,1.84s.74,1.23,1.21,1.75c.47.52,1.04,1,1.71,1.46l-1.35,1.48c-.64-.45-1.27-1.07-1.88-1.85-.61-.78-1.08-1.6-1.42-2.45Z"/>
    <path class="cls-1" d="M118.72,8.9l-.57,1.78-1.55-.58c-.57,2.06-1.8,3.6-3.67,4.62l-1.16-1.24c.9-.63,1.57-1.25,2.02-1.88s.76-1.34.94-2.14c-1.08-.34-2.07-.57-2.97-.68-1.43,3.31-2.95,4.97-4.55,4.97-.6,0-1.09-.22-1.47-.65-.38-.43-.57-.97-.57-1.6,0-1.09.47-2.11,1.42-3.06s2.16-1.43,3.64-1.43h.11c.19-.68.34-1.46.46-2.35h-4.02v-1.63h5.89l.27.29c-.06,1.25-.27,2.53-.62,3.84.8.11,1.69.3,2.67.57.02-.33.03-.82.03-1.46,0-.25,0-.52,0-.81h1.99v1.16c.01.64,0,1.21-.05,1.7l1.79.59ZM109.74,8.66c-.62.05-1.14.25-1.58.6-.44.35-.74.74-.92,1.16-.18.42-.26.77-.26,1.04,0,.29.09.43.26.43.76,0,1.59-1.08,2.5-3.23Z"/>
  </g>
</svg>