<?xml version="1.0" encoding="UTF-8"?>
<svg id="uuid-fde58dd9-7acb-43b9-a71c-29a90855b518" xmlns="http://www.w3.org/2000/svg" version="1.1" viewBox="0 0 604.1 66.5">
  <!-- Generator: Adobe Illustrator 29.5.1, SVG Export Plug-In . SVG Version: 2.1.0 Build 141)  -->
  <defs>
    <style>
      .st0 {
        fill: none;
      }

      .st1 {
        fill: #f4891e;
      }

      .st2 {
        fill: #3b241a;
      }
    </style>
  </defs>
  <g id="uuid-fbffd6a2-a2c7-4393-9dcc-0e05c4d51cc2">
    <path class="st2" d="M35.9,30.8l-4-1.2c-1.2-.4-2.5.2-3,1.4l-1.9,4.3c-.4.9,0,2,.9,2.4l4.3,1.8c.4.3.6.8.4,1.3-1.1,4.4-3.1,8.7-5.8,13-.2.4-.7.7-1.2.6l-3.2-1.5c-1.5-.7-3.3,0-4,1.5l-1.5,3.5c-.4,1-.1,2.2.9,2.8l3.7,2.2c.7.4,1.4.7,2.1.8h0c3.3.6,6.5-1.1,7.9-4.2,3.6-6.6,6.5-13,8.4-18.9,1.4-3.2.5-6.8-2.3-9h0c-.5-.3-1.1-.6-1.7-.8h0Z"/>
    <path class="st2" d="M.9,49.2c-3-9.2,2.1-19.2,11.4-22.2l1.1,3.6c-7.3,2.4-11.3,10.2-9,17.5l-3.5,1.1h0Z"/>
    <path class="st2" d="M6.9,47.3c-.9-2.9-.7-5.9.7-8.6,1.4-2.7,3.7-4.7,6.6-5.6l1.1,3.6c-4,1.3-6.1,5.5-4.9,9.5l-3.5,1.1h0Z"/>
    <path class="st2" d="M12.7,45.4c-.4-1.3-.3-2.7.3-4,.6-1.2,1.7-2.2,3-2.6l1.1,3.6c-.4,0-.7.4-.9.7-.2.4-.2.8-.1,1.1.2,0-3.4,1.2-3.4,1.2Z"/>
    <path class="st2" d="M6.9,47.3c-.9-2.9-.7-5.9.7-8.6,1.4-2.7,3.7-4.7,6.6-5.6l1.1,3.6c-4,1.3-6.1,5.5-4.9,9.5l-3.5,1.1h0Z"/>
    <polygon class="st0" points="371.1 66.5 49.1 66.5 55.7 28.8 377.7 28.8 371.1 66.5"/>
  </g>
  <g>
    <g>
      <path class="st1" d="M367.5,42.7c-3.2,3.7-4.4,7.2-4.4,11.5s1.1,7.8,4.4,11.5l-.7.7c-4.1-3.6-5.8-7.4-5.8-12.1s1.8-8.5,5.8-12.1l.7.5h0Z"/>
      <path class="st1" d="M375,57h-2.8q-.2,0-.2-.2v-1.8q0-.2.2-.2h8.5v-7.6h-7.5q-.2,0-.2-.3v-1.8c0-.2,0-.3.2-.3h17.8q.2,0,.2.3v1.9c0,.2,0,.3-.2.3h-7.8v7.6h8.8q.2,0,.2.2v1.9q0,.2-.2.2h-8.8v7.3q0,.2-.2.2h-2.1q-.2,0-.2-.2v-7.5h-5.7ZM375.9,48c.2,0,.3,0,.4,0,1,1.4,1.9,3.1,2.5,4.7q.1.2-.2.4l-1.5.7q-.3,0-.4,0c-.6-1.6-1.3-3.1-2.3-4.7q-.1-.2.2-.4l1.3-.7h0ZM387.2,49.2c.2-.4.3-.8.4-1.3.7.2,1.5.6,2.1.9.2,0,.3.2.3.3s0,.2-.2.3-.4.4-.5.7c-.6,1.2-1.3,2.3-2.1,3.5-.2.3-.3.5-.5.5s-.3,0-.5-.3c-.5-.3-.8-.5-1.3-.7.9-1.2,1.7-2.5,2.3-3.9h0Z"/>
      <path class="st1" d="M396.7,64.2q-.2,0-.2-.2v-18.4c0-.2,0-.3.2-.3h14q.2,0,.2.3v18.2q0,.2-.2.2h-2q-.2,0-.2-.2v-1.1h-9.5v1.3q0,.2-.2.2h-2.1ZM398.9,52.8h9.5v-5.2h-9.5v5.2ZM408.4,60.5v-5.5h-9.5v5.5h9.5Z"/>
      <path class="st1" d="M418.2,63.4h-2.8q-.2,0-.2-.2v-1.9q0-.2.2-.2h8.4v-7.7h-6.7q-.2,0-.2-.2v-1.9q0-.2.2-.2h6.7v-3.5c0-1.5,0-2.5-.2-3.6.8,0,1.9,0,2.6.2.2,0,.4,0,.4.3s-.1.3-.1.5c-.1.3-.1.8-.1,2.6v3.6h7.1c.2,0,.3,0,.3.2v1.9q0,.2-.3.2h-7.1v7.7h8.8q.2,0,.2.2v1.9q0,.2-.2.2h-17Z"/>
      <path class="st1" d="M440.3,64.2q-.2,0-.2-.2v-18.4c0-.2,0-.3.2-.3h14q.2,0,.2.3v18.2q0,.2-.2.2h-2q-.2,0-.2-.2v-1.1h-9.5v1.3q0,.2-.2.2h-2.1ZM442.5,52.8h9.5v-5.2h-9.5v5.2ZM452,60.5v-5.5h-9.5v5.5h9.5Z"/>
      <path class="st1" d="M483.2,52.5h-3.5v-3.4h3.5v3.4ZM483.2,62.6h-3.5v-3.4h3.5v3.4Z"/>
      <path class="st1" d="M497.4,54.1c0,6.9-2.1,9.8-5.9,9.8s-5.9-2.8-5.9-9.7,2.1-9.7,5.9-9.7,5.9,2.7,5.9,9.6h0ZM488.8,54.1c0,5.5.8,7.3,2.7,7.3s2.8-1.8,2.8-7.3-.8-7.2-2.7-7.2-2.8,1.7-2.8,7.2h0Z"/>
      <path class="st1" d="M510.7,54.1c0,6.9-2.1,9.8-5.9,9.8s-5.9-2.8-5.9-9.7,2.1-9.7,5.9-9.7,5.9,2.7,5.9,9.6h0ZM502.1,54.1c0,5.5.8,7.3,2.7,7.3s2.8-1.8,2.8-7.3-.8-7.2-2.7-7.2-2.8,1.7-2.8,7.2h0Z"/>
      <path class="st1" d="M527.2,53.9c-1.2,2.5-2.4,3.4-3.9,3.4s-1.8-.2-3.7-1.1c-1.7-.8-2.4-1-3.1-1-1,0-1.8.6-2.6,1.9l-1.2-.7c1-2.3,2.3-3.4,3.8-3.4s1.7.2,3.5,1,2.5,1.1,3.3,1.1,1.9-.5,2.7-1.9l1.2.7h0Z"/>
      <path class="st1" d="M536.8,61.2h3.5v2.4h-10.1v-2.4h3.7v-13.4c-.9.6-2.1,1.2-3.5,1.7l-.5-2.6c1.6-.5,3.1-1.2,4.4-2.2h2.5v16.5h0Z"/>
      <path class="st1" d="M554.5,58.7c0,3.1-2.4,5.2-6,5.2s-6.1-1.9-6.1-5.1,1.1-3.4,3.6-4.7c-2.3-1.2-3.2-2.7-3.2-4.8s2.2-4.8,5.6-4.8,5.7,2,5.7,4.7-1.1,3.4-3.3,4.3c2.7,1.3,3.7,2.8,3.7,5.2h0ZM547.9,55.1c-1.7,1-2.6,2-2.6,3.5s1.2,3,3.1,3,3.1-1.1,3.1-2.9-.7-2.3-3-3.4c0,.1-.6-.2-.6-.2ZM548.9,52.6c1.7-.9,2.2-1.8,2.2-3.3s-1.2-2.6-2.8-2.6-2.7,1-2.7,2.5.6,2.1,2.5,3c0,0,.8.4.8.4Z"/>
      <path class="st1" d="M560.2,53.5h-3.5v-3.4h3.5v3.4ZM560.2,63.5h-3.5v-3.4h3.5v3.4Z"/>
      <path class="st1" d="M575.4,54.1c0,6.9-2.1,9.8-5.9,9.8s-5.9-2.8-5.9-9.7,2.1-9.7,5.9-9.7,5.9,2.7,5.9,9.6ZM566.7,54.1c0,5.5.8,7.3,2.7,7.3s2.8-1.8,2.8-7.3-.8-7.2-2.7-7.2-2.8,1.7-2.8,7.2h0Z"/>
      <path class="st1" d="M588.7,54.1c0,6.9-2.1,9.8-5.9,9.8s-5.9-2.8-5.9-9.7,2.1-9.7,5.9-9.7,5.9,2.7,5.9,9.6ZM580.1,54.1c0,5.5.8,7.3,2.7,7.3s2.8-1.8,2.8-7.3-.8-7.2-2.7-7.2-2.8,1.7-2.8,7.2h0Z"/>
      <path class="st1" d="M596,42c4,3.6,5.8,7.4,5.8,12.1s-1.8,8.5-5.8,12.1l-.8-.7c3.2-3.7,4.3-7.1,4.3-11.5s-1.1-7.8-4.3-11.5l.8-.5h0Z"/>
    </g>
    <g>
      <path d="M367.5,42.7c-3.2,3.7-4.4,7.2-4.4,11.5s1.1,7.8,4.4,11.5l-.7.7c-4.1-3.6-5.8-7.4-5.8-12.1s1.8-8.5,5.8-12.1l.7.5h0Z"/>
      <path d="M375,57h-2.8q-.2,0-.2-.2v-1.8q0-.2.2-.2h8.5v-7.6h-7.5q-.2,0-.2-.3v-1.8c0-.2,0-.3.2-.3h17.8q.2,0,.2.3v1.9c0,.2,0,.3-.2.3h-7.8v7.6h8.8q.2,0,.2.2v1.9q0,.2-.2.2h-8.8v7.3q0,.2-.2.2h-2.1q-.2,0-.2-.2v-7.5h-5.7ZM375.9,48c.2,0,.3,0,.4,0,1,1.4,1.9,3.1,2.5,4.7q.1.2-.2.4l-1.5.7q-.3,0-.4,0c-.6-1.6-1.3-3.1-2.3-4.7q-.1-.2.2-.4l1.3-.7h0ZM387.2,49.2c.2-.4.3-.8.4-1.3.7.2,1.5.6,2.1.9.2,0,.3.2.3.3s0,.2-.2.3-.4.4-.5.7c-.6,1.2-1.3,2.3-2.1,3.5-.2.3-.3.5-.5.5s-.3,0-.5-.3c-.5-.3-.8-.5-1.3-.7.9-1.2,1.7-2.5,2.3-3.9h0Z"/>
      <path d="M396.7,64.2q-.2,0-.2-.2v-18.4c0-.2,0-.3.2-.3h14q.2,0,.2.3v18.2q0,.2-.2.2h-2q-.2,0-.2-.2v-1.1h-9.5v1.3q0,.2-.2.2h-2.1ZM398.9,52.8h9.5v-5.2h-9.5v5.2ZM408.4,60.5v-5.5h-9.5v5.5h9.5Z"/>
      <path d="M418.2,63.4h-2.8q-.2,0-.2-.2v-1.9q0-.2.2-.2h8.4v-7.7h-6.7q-.2,0-.2-.2v-1.9q0-.2.2-.2h6.7v-3.5c0-1.5,0-2.5-.2-3.6.8,0,1.9,0,2.6.2.2,0,.4,0,.4.3s-.1.3-.1.5c-.1.3-.1.8-.1,2.6v3.6h7.1c.2,0,.3,0,.3.2v1.9q0,.2-.3.2h-7.1v7.7h8.8q.2,0,.2.2v1.9q0,.2-.2.2h-17Z"/>
      <path d="M440.3,64.2q-.2,0-.2-.2v-18.4c0-.2,0-.3.2-.3h14q.2,0,.2.3v18.2q0,.2-.2.2h-2q-.2,0-.2-.2v-1.1h-9.5v1.3q0,.2-.2.2h-2.1ZM442.5,52.8h9.5v-5.2h-9.5v5.2ZM452,60.5v-5.5h-9.5v5.5h9.5Z"/>
      <path d="M483.2,52.5h-3.5v-3.4h3.5v3.4ZM483.2,62.6h-3.5v-3.4h3.5v3.4Z"/>
      <path d="M497.4,54.1c0,6.9-2.1,9.8-5.9,9.8s-5.9-2.8-5.9-9.7,2.1-9.7,5.9-9.7,5.9,2.7,5.9,9.6h0ZM488.8,54.1c0,5.5.8,7.3,2.7,7.3s2.8-1.8,2.8-7.3-.8-7.2-2.7-7.2-2.8,1.7-2.8,7.2h0Z"/>
      <path d="M510.7,54.1c0,6.9-2.1,9.8-5.9,9.8s-5.9-2.8-5.9-9.7,2.1-9.7,5.9-9.7,5.9,2.7,5.9,9.6h0ZM502.1,54.1c0,5.5.8,7.3,2.7,7.3s2.8-1.8,2.8-7.3-.8-7.2-2.7-7.2-2.8,1.7-2.8,7.2h0Z"/>
      <path d="M527.2,53.9c-1.2,2.5-2.4,3.4-3.9,3.4s-1.8-.2-3.7-1.1c-1.7-.8-2.4-1-3.1-1-1,0-1.8.6-2.6,1.9l-1.2-.7c1-2.3,2.3-3.4,3.8-3.4s1.7.2,3.5,1,2.5,1.1,3.3,1.1,1.9-.5,2.7-1.9l1.2.7h0Z"/>
      <path d="M536.8,61.2h3.5v2.4h-10.1v-2.4h3.7v-13.4c-.9.6-2.1,1.2-3.5,1.7l-.5-2.6c1.6-.5,3.1-1.2,4.4-2.2h2.5v16.5h0Z"/>
      <path d="M554.5,58.7c0,3.1-2.4,5.2-6,5.2s-6.1-1.9-6.1-5.1,1.1-3.4,3.6-4.7c-2.3-1.2-3.2-2.7-3.2-4.8s2.2-4.8,5.6-4.8,5.7,2,5.7,4.7-1.1,3.4-3.3,4.3c2.7,1.3,3.7,2.8,3.7,5.2h0ZM547.9,55.1c-1.7,1-2.6,2-2.6,3.5s1.2,3,3.1,3,3.1-1.1,3.1-2.9-.7-2.3-3-3.4c0,.1-.6-.2-.6-.2ZM548.9,52.6c1.7-.9,2.2-1.8,2.2-3.3s-1.2-2.6-2.8-2.6-2.7,1-2.7,2.5.6,2.1,2.5,3c0,0,.8.4.8.4Z"/>
      <path d="M560.2,53.5h-3.5v-3.4h3.5v3.4ZM560.2,63.5h-3.5v-3.4h3.5v3.4Z"/>
      <path d="M575.4,54.1c0,6.9-2.1,9.8-5.9,9.8s-5.9-2.8-5.9-9.7,2.1-9.7,5.9-9.7,5.9,2.7,5.9,9.6ZM566.7,54.1c0,5.5.8,7.3,2.7,7.3s2.8-1.8,2.8-7.3-.8-7.2-2.7-7.2-2.8,1.7-2.8,7.2h0Z"/>
      <path d="M588.7,54.1c0,6.9-2.1,9.8-5.9,9.8s-5.9-2.8-5.9-9.7,2.1-9.7,5.9-9.7,5.9,2.7,5.9,9.6ZM580.1,54.1c0,5.5.8,7.3,2.7,7.3s2.8-1.8,2.8-7.3-.8-7.2-2.7-7.2-2.8,1.7-2.8,7.2h0Z"/>
      <path d="M596,42c4,3.6,5.8,7.4,5.8,12.1s-1.8,8.5-5.8,12.1l-.8-.7c3.2-3.7,4.3-7.1,4.3-11.5s-1.1-7.8-4.3-11.5l.8-.5h0Z"/>
      <path d="M476.2,58.7c0,3.1-2.4,5.2-6,5.2s-6.1-1.9-6.1-5.1,1.1-3.4,3.6-4.7c-2.3-1.2-3.2-2.7-3.2-4.8s2.2-4.8,5.6-4.8,5.7,2,5.7,4.7-1.1,3.4-3.3,4.3c2.7,1.3,3.7,2.8,3.7,5.2h0ZM469.6,55.1c-1.7,1-2.6,2-2.6,3.5s1.2,3,3.1,3,3.1-1.1,3.1-2.9-.7-2.3-3-3.4c0,.1-.6-.2-.6-.2ZM470.6,52.6c1.7-.9,2.2-1.8,2.2-3.3s-1.2-2.6-2.8-2.6-2.7,1-2.7,2.5.6,2.1,2.5,3c0,0,.8.4.8.4Z"/>
    </g>
  </g>
  <g>
    <path d="M69.9,42.5c1.6,9.3-.9,20.6-10.3,20.6s-9.5-4.8-10.5-10.7c-1.7-9.4,1.3-20.1,10.4-20.1,6.4,0,9.5,4.9,10.4,10.2ZM55.7,52.6c.4,2.2,1.3,5.3,3.9,5.3,4.5,0,4.6-11.3,3.9-15.3-.4-2-1.2-5-3.7-5-4.5,0-4.9,10.6-4.1,15Z"/>
    <path d="M82.6,39h0l-5.5,2.6-1.1-5.2,7.6-3.6h5.4l-.4,29.8h-6.4l.4-23.6Z"/>
    <path d="M98.5,62.6v-4.2l5.6-5c5.1-4.9,8.3-8.3,7.7-11.9-.4-2.1-2.1-3.6-4.7-3.6s-4.6.8-6,1.8l-2.2-4.7c2.1-1.5,5.4-2.6,8.8-2.6,6,0,9.9,3.5,10.7,8.1,1.1,6.1-3.1,10.3-7.6,14.3l-2.6,2.1h0c0,0,10.8,0,10.8,0v5.6c0,0-20.5,0-20.5,0Z"/>
    <path d="M144.3,42.5c1.6,9.3-.9,20.6-10.3,20.6s-9.5-4.8-10.5-10.7c-1.7-9.4,1.3-20.1,10.4-20.1,6.4,0,9.5,4.9,10.4,10.2ZM130,52.6c.4,2.2,1.3,5.3,3.9,5.3,4.5,0,4.6-11.3,3.9-15.3-.4-2-1.2-5-3.7-5-4.4,0-4.8,10.6-4.1,15Z"/>
    <path d="M159.7,48.2v4.6h-12v-4.6h12Z"/>
    <path d="M182.1,38.4h-10.5l-.6,4.6c.5,0,.8,0,1.2,0,1.9,0,4.4.5,6.5,1.8,2.3,1.4,4,3.8,4.4,6.6,1.3,7.5-4.2,11.7-11.7,11.7s-6.7-.8-8-1.8l.8-5.2c1.3.7,3.8,1.5,6.4,1.5s6.5-1.8,5.9-5c-.5-2.6-2.5-4.6-8.2-4.6s-2.4,0-3.6.2l1.6-15.4h16l-.2,5.7Z"/>
    <path d="M199.6,62.6v-7.2c.1,0-12.6,0-12.6,0v-4.4c.1,0,11.1-18.1,11.1-18.1h8.1l-.2,17.4h3.5v5.1h-3.5v7.2h-6.4ZM199.8,50.3l.2-6.5c.1-1.9.3-3.9.4-5.8h-.2c-1,2-1.8,3.9-2.9,5.9l-3.8,6.3h0c0,0,6.3,0,6.3,0Z"/>
    <path d="M233.1,32.8v4.4c-4,8.5-8,16.9-12,25.4h-7.3c4-8,8-16.1,11.9-24.1h0c0,0-12.9,0-12.9,0v-5.6c.1,0,20.3,0,20.3,0Z"/>
    <path d="M248.8,48.2v4.6h-12v-4.6h12Z"/>
    <path d="M252.1,62.6v-4.2l5.6-5c5.1-4.9,8.3-8.3,7.7-11.9-.4-2.1-2.1-3.6-4.7-3.6s-4.6.8-6,1.8l-2.2-4.7c2.1-1.5,5.4-2.6,8.8-2.6,6,0,9.9,3.5,10.7,8.1,1.1,6.1-3.1,10.3-7.6,14.3l-2.6,2.1h0c0,0,10.7,0,10.7,0v5.6c-.1,0-20.4,0-20.4,0Z"/>
    <path d="M297,39.5c.6,3.2-1.2,5.6-4.1,7.1h0c2.9,1.6,4.8,4.2,5.3,6.7,1.1,6.5-4.5,9.8-10.3,9.8s-10.5-3.2-11.3-7.7c-.7-4.2,1.7-7,4.9-8.5h0c-2.3-1.6-3.6-3.6-4-5.7-1-5.5,3.6-9,9.4-9,4.9.1,9.3,2.6,10.1,7.3ZM291.4,54c-.4-2.4-2.3-3.8-4.7-4.5-2.1.6-3.9,2.4-3.4,5.2.4,2.1,2,3.7,4.4,3.7,2.3-.1,4.2-1.7,3.7-4.4ZM283.8,40.9c.3,1.9,2,3.1,4.1,3.8,1.8-.6,3.3-2.3,2.9-4.4-.3-1.8-1.7-3.2-3.8-3.2s-3.6,1.8-3.2,3.8Z"/>
    <path d="M313.6,62.6v-7.2c.1,0-12.6,0-12.6,0v-4.4c.1,0,11.1-18.1,11.1-18.1h8.1l-.2,17.5h3.5v5.1h-3.5v7.2h-6.4ZM313.8,50.3l.2-6.5c.1-1.9.3-3.9.4-5.8h-.2c-1,2-1.8,3.9-2.9,5.9l-3.8,6.3h0c0,0,6.3,0,6.3,0Z"/>
  </g>
  <g>
    <path d="M56,10.8c-1.3,0-2.4.1-3.3.1s-.3-.1-.4-.4c0-.4,0-1.4-.2-2,.9.1,2,.1,3.8.1h7.1c.6,0,.8,0,1.1-.2,0-.1.2-.1.3-.1s.2,0,.4.1c.5.3,1.1.8,1.5,1.3,0,.1,0,.2,0,.3,0,.2,0,.3-.3.5-.2.2-.3.4-.5.8-1,2.4-2.2,4.6-3.9,6.5-1.7,2-3.7,3.6-5.7,4.8-.2.1-.4.2-.5.2-.2,0-.3-.1-.5-.2-.5-.4-1.1-.8-1.9-1.1,2.9-1.5,4.7-2.9,6.5-5,1.6-1.8,2.6-3.5,3.4-5.7,0,0-7,0-7,0Z"/>
    <path d="M73.4,9.9c0-1.4,0-2.1-.2-2.9.8,0,1.9.2,2.5.4.2,0,.3.2.3.3s0,.2,0,.3c-.2.4-.2.9-.2,1.9v4c0,1,0,1.8,0,2.5,0,.3,0,.4-.4.4h-1.6c-.3,0-.4-.1-.4-.3,0-.7,0-1.9,0-2.7v-3.9h0ZM82.8,13.6c0,3-.4,4.9-1.6,6.5-1,1.3-2.7,2.5-4.4,3.1-.2.1-.3.1-.4.1-.2,0-.3-.1-.5-.2-.5-.5-1-.9-1.7-1.2,2.1-.7,3.8-1.6,4.9-2.9.9-1.1,1.3-2.8,1.3-5.3v-3.8c0-1.7,0-2.4-.2-3.3,1,0,1.9.2,2.6.4.2,0,.3.2.3.3s0,.2,0,.3c-.2.4-.2.9-.2,2.2v3.8h0Z"/>
    <path d="M93.1,16.2c-2,0-2.7.2-2.9.2s-.4-.1-.5-.4c0-.5-.2-1.4-.3-2.4,1.3.2,2.3.2,4.3.2h6.4c1.5,0,3.1,0,4.6-.1.3,0,.4,0,.4.3v1.9c0,.2,0,.3-.4.3h-11.6Z"/>
    <path d="M120.8,9.3c.6,0,.8-.1,1.1-.3,0-.1.2-.1.3-.1s.2.1.4.2c.4.3,1,.8,1.4,1.2,0,.1.2.2.2.4s0,.2-.2.4c-.2.2-.4.4-.6.8-.9,1.7-1.8,3.3-2.9,4.8.8.7,1.6,1.4,2.2,2,0,.1,0,.2,0,.3s0,.2,0,.3c-.3.3-.9,1-1.2,1.3,0,.1-.2.1-.2.1q0,0-.2-.1c-.5-.6-1.3-1.4-1.9-1.9-2,2.2-4.1,3.8-6.4,5-.2.1-.3.2-.5.2s-.2-.1-.4-.2c-.6-.5-1.2-.8-1.9-1,3.1-1.6,5.1-3,7.4-5.4-.8-.6-1.7-1.2-2.9-1.9.4-.5.9-1,1.3-1.4,0-.1.2-.1.3-.1s0,0,.2.1c.7.3,1.6.9,2.6,1.6,1-1.2,1.7-2.5,2.3-4h-5c-1.6,2.2-2.9,3.6-4.3,4.6,0,.1-.3.2-.4.2s-.2,0-.3-.1c-.5-.4-1-.6-1.7-.9,2.8-2.2,4.3-4.1,5.7-6.3.6-1.1.9-1.6,1.1-2.5.7.2,1.7.6,2.3,1,.2,0,.2.2.2.3s0,.3-.2.4c-.2.1-.3.3-.4.4-.2.3-.3.5-.6,1l3.2-.4ZM123.4,6.6c0,0,.2,0,.3,0,.6.5,1.3,1.3,1.9,2.1,0,.1,0,.2,0,.3l-.8.6c0,.1-.2.1-.3-.1-.6-.9-1.2-1.7-2-2.3l1-.6ZM125.2,5.3c0,0,.2,0,.3,0,.7.6,1.5,1.4,1.9,2.1,0,0,0,.2,0,.4l-.8.6c-.2.1-.3.1-.3-.1-.5-.9-1.2-1.6-2-2.3l1-.7Z"/>
    <path d="M139.4,18.7c0,1.4,0,2.6.1,4.2,0,.3-.1.3-.3.3h-2c-.2,0-.3-.1-.3-.3,0-1.4.1-2.7.1-4.1v-4.7c-1.8,1.5-3.9,3-5.5,3.8-.1.1-.2.1-.3.1-.2,0-.3-.1-.4-.2-.5-.5-1.1-.9-1.7-1.2,2.8-1.4,4.5-2.6,6.3-4.1,1.6-1.3,3-2.7,4.3-4.2.7-.8.9-1.2,1.3-2.1.9.5,1.8,1,2.2,1.4.1,0,.2.2.2.3,0,.2-.1.3-.3.4-.3.2-.7.5-1.2,1.1-.8.9-1.5,1.7-2.3,2.5v6.8h-.2Z"/>
    <path d="M153.1,9.3c-.3-1.1-.5-1.7-1-2.5.8,0,1.9-.2,2.7-.2s.4,0,.4.6.1,1.1.3,2l.4,1.7,5.7-1.5c.8-.2,1.1-.4,1.3-.5.1-.1.2-.1.3-.1s.3.1.4.2c.4.2,1.1.9,1.4,1.2.1.1.2.2.2.3s-.1.3-.2.4c-.2.2-.3.3-.4.6-1.1,2.2-2.2,3.8-3,4.7-.1.1-.2.2-.3.2s-.3-.1-.4-.2c-.4-.3-.9-.4-1.7-.6,1.4-1.5,2-2.4,2.9-4l-5.4,1.5,1.2,4.8c.3,1.2.9,3.4,1.2,4.3.1.3,0,.4-.3.5-.6.2-1,.4-1.6.5-.3,0-.4.1-.5-.2-.3-1-.7-2.9-1.1-4.3l-1.3-4.9-1.6.4c-.9.3-2.1.7-2.9,1-.1.1-.2.1-.3.1s-.3-.1-.4-.3c-.3-.5-.6-1.2-.8-2,1.3-.2,2.3-.5,3.8-.8l1.7-.5-.7-2.4Z"/>
    <path d="M175.3,9.7c.3.1.4.3.3.6-.2.4-.2.9-.2,1.4,0,2.5-.4,4.4-1.1,5.9-.5,1.2-1.4,2.5-2.8,3.8-.2.2-.4.3-.5.3s-.2-.1-.4-.2c-.5-.3-1-.6-1.7-.8,1.6-1.2,2.6-2.4,3.3-4,.6-1.4.8-2.5.8-5.7s0-1.1-.2-1.7c1.1.1,2,.3,2.5.4ZM179.7,18.2c1-.5,1.9-1.1,2.8-1.9,1.2-.9,2.4-2,3.5-3.4.1.7.3,1.4.6,2,.1.1.1.2.1.3s-.1.3-.3.5c-1,1-1.9,1.8-3,2.6-1,.8-2.2,1.6-3.6,2.4-.4.2-.4.3-.6.4-.1.1-.3.2-.4.2s-.3-.1-.4-.2c-.4-.3-.9-.8-1.2-1.2-.1-.2-.2-.3-.2-.4s0-.2.1-.3c.1-.3.1-.5.1-1.5v-6.3c0-1.7,0-2.6-.2-3.5.8.1,1.9.2,2.5.4.3.1.4.2.4.3s-.1.3-.2.5c-.2.4-.2.8-.2,2.2v6.9h.2Z"/>
  </g>
</svg>