<?xml version="1.0" encoding="UTF-8"?>
<svg id="uuid-fde58dd9-7acb-43b9-a71c-29a90855b518" xmlns="http://www.w3.org/2000/svg" viewBox="0 0 621.46 54.98">
  <defs>
    <style>
      .cls-1 {
        fill: none;
      }

      .cls-2 {
        font-family: HiraKakuStdN-W8-83pv-RKSJ-H, 'Hiragino Kaku Gothic StdN';
        font-size: 32.68px;
        isolation: isolate;
        letter-spacing: .09em;
      }

      .cls-2, .cls-3 {
        fill: #f4891e;
      }

      .cls-4 {
        fill: #3b241a;
      }
    </style>
  </defs>
  <g id="uuid-fbffd6a2-a2c7-4393-9dcc-0e05c4d51cc2">
    <path class="cls-3" d="m388.26,12.2c-3.2,3.6-4.3,7.1-4.3,11.4s1.1,7.7,4.3,11.4l-.7.7c-4-3.6-5.8-7.3-5.8-12s1.8-8.4,5.8-12c-.1-.1.7.5.7.5Z"/>
    <path class="cls-3" d="m395.66,26.4h-2.8c-.1,0-.2-.1-.2-.2v-1.8c0-.1.1-.2.2-.2h8.4v-7.5h-7.4c-.1,0-.2-.1-.2-.3v-1.8c0-.2,0-.3.2-.3h17.6c.1,0,.2.1.2.3v1.8c0,.2,0,.3-.2.3h-7.7v7.5h8.6c.1,0,.2.1.2.2v1.8c0,.1-.1.2-.2.2h-8.6v7.2c0,.1-.1.2-.2.2h-2c-.1,0-.2-.1-.2-.2v-7.2h-5.7Zm.9-8.9c.2-.1.3-.1.4.1.9,1.3,1.8,3.1,2.4,4.7.1.1,0,.3-.2.4l-1.5.7c-.2.1-.3,0-.4-.1-.6-1.6-1.3-3.1-2.3-4.7-.1-.1,0-.3.2-.4l1.4-.7h0Zm11.2,1.2c.2-.4.3-.8.4-1.3.7.2,1.5.6,2,.9.2.1.3.2.3.3s0,.2-.2.3c-.2.1-.4.4-.5.7-.6,1.2-1.3,2.3-2.1,3.4-.2.3-.3.4-.5.4-.1,0-.3-.1-.5-.3-.5-.3-.8-.5-1.3-.7,1-1.1,1.7-2.4,2.4-3.7h0Z"/>
    <path class="cls-3" d="m417.06,33.5c-.1,0-.2-.1-.2-.2V15.1c0-.2,0-.3.2-.3h13.9c.1,0,.2.1.2.3v18.1c0,.1-.1.2-.2.2h-2c-.1,0-.2-.1-.2-.2v-1.1h-9.4v1.2c0,.1-.1.2-.2.2h-2.1Zm2.3-11.3h9.4v-5.1h-9.4v5.1Zm9.4,7.7v-5.4h-9.4v5.4h9.4Z"/>
    <path class="cls-3" d="m438.46,32.8h-2.8c-.1,0-.2-.1-.2-.2v-1.9c0-.1.1-.2.2-.2h8.3v-7.7h-6.7c-.1,0-.2-.1-.2-.2v-1.9c0-.1.1-.2.2-.2h6.7v-3.5c0-1.5,0-2.5-.2-3.5.8,0,1.8.1,2.6.2.2,0,.4.1.4.3s-.1.3-.1.5c-.1.3-.1.8-.1,2.6v3.5h7.1c.2,0,.3,0,.3.2v1.9c0,.1-.1.2-.3.2h-7.1v7.7h8.7c.1,0,.2.1.2.2v1.9c0,.1-.1.2-.2.2h-2.8l-14-.1h0Z"/>
    <path class="cls-3" d="m460.26,33.5c-.1,0-.2-.1-.2-.2V15.1c0-.2,0-.3.2-.3h13.9c.1,0,.2.1.2.3v18.1c0,.1-.1.2-.2.2h-2c-.1,0-.2-.1-.2-.2v-1.1h-9.4v1.2c0,.1-.1.2-.2.2h-2.1Zm2.2-11.3h9.4v-5.1h-9.4v5.1Zm9.4,7.7v-5.4h-9.4v5.4h9.4Z"/>
    <path class="cls-3" d="m487.46,29.1c.3,1.2.9,1.8,1.9,1.8,2.1,0,3.3-1.8,3.4-6.6-.8,1.5-2.1,2.2-3.8,2.2-2.8,0-4.9-2.3-4.9-6,0-4,2.2-6.5,5.6-6.5,3.7,0,6,2.6,6,8.9,0,7.4-2.3,10.3-6.3,10.3-2.5,0-4.1-1-4.9-3l3-1.1h0Zm2.3-12.8c-1.8,0-2.6,1.6-2.6,4.1s1,3.7,2.6,3.7c1.3,0,2.3-.8,2.9-2.3-.1-3.6-.9-5.5-2.9-5.5h0Z"/>
    <path class="cls-3" d="m502.76,21.9h-3.5v-3.4h3.5v3.4Zm0,10h-3.5v-3.4h3.5v3.4Z"/>
    <path class="cls-3" d="m516.86,23.5c0,6.9-2.1,9.7-5.9,9.7s-5.8-2.7-5.8-9.6,2.1-9.6,5.9-9.6,5.8,2.7,5.8,9.5Zm-8.6.1c0,5.5.8,7.2,2.7,7.2,2,0,2.7-1.8,2.7-7.2s-.8-7.2-2.7-7.2-2.7,1.7-2.7,7.2h0Z"/>
    <path class="cls-3" d="m530.06,23.5c0,6.9-2.1,9.7-5.9,9.7s-5.8-2.7-5.8-9.6,2.1-9.6,5.9-9.6,5.8,2.7,5.8,9.5Zm-8.6.1c0,5.5.8,7.2,2.7,7.2,2,0,2.7-1.8,2.7-7.2s-.8-7.2-2.7-7.2c-1.8,0-2.7,1.7-2.7,7.2Z"/>
    <path class="cls-3" d="m546.36,23.4c-1.2,2.5-2.4,3.4-3.9,3.4-.9,0-1.8-.2-3.6-1.1-1.6-.8-2.3-1-3.1-1-.9,0-1.8.6-2.6,1.8l-1.2-.7c.9-2.3,2.3-3.4,3.8-3.4.8,0,1.7.2,3.4,1,1.8.8,2.5,1.1,3.3,1.1,1.1,0,1.9-.5,2.7-1.9l1.2.8h0Z"/>
    <path class="cls-3" d="m555.86,30.5h3.5v2.4h-10v-2.4h3.6v-13.2c-.9.6-2.1,1.2-3.4,1.7l-.5-2.6c1.6-.5,3-1.2,4.3-2.2h2.5v16.3h0Z"/>
    <path class="cls-3" d="m564.86,29.1c.3,1.2.9,1.8,1.9,1.8,2.1,0,3.3-1.8,3.4-6.6-.8,1.5-2.1,2.2-3.8,2.2-2.8,0-4.9-2.3-4.9-6,0-4,2.2-6.5,5.6-6.5,3.7,0,6,2.6,6,8.9,0,7.4-2.3,10.3-6.3,10.3-2.5,0-4.1-1-4.9-3l3-1.1h0Zm2.3-12.8c-1.8,0-2.6,1.6-2.6,4.1s1,3.7,2.6,3.7c1.3,0,2.3-.8,2.9-2.3,0-3.6-.9-5.5-2.9-5.5Z"/>
    <path class="cls-3" d="m580.26,22.9h-3.5v-3.4h3.5v3.4Zm0,10h-3.5v-3.4h3.5v3.4Z"/>
    <path class="cls-3" d="m595.26,23.5c0,6.9-2.1,9.7-5.9,9.7s-5.8-2.7-5.8-9.6,2.1-9.6,5.9-9.6,5.8,2.7,5.8,9.5Zm-8.6.1c0,5.5.8,7.2,2.7,7.2,2,0,2.7-1.8,2.7-7.2s-.8-7.2-2.7-7.2c-1.8,0-2.7,1.7-2.7,7.2Z"/>
    <path class="cls-3" d="m608.46,23.5c0,6.9-2.1,9.7-5.9,9.7s-5.8-2.7-5.8-9.6,2.1-9.6,5.9-9.6,5.8,2.7,5.8,9.5Zm-8.5.1c0,5.5.8,7.2,2.7,7.2,2,0,2.7-1.8,2.7-7.2s-.8-7.2-2.7-7.2-2.7,1.7-2.7,7.2Z"/>
    <path class="cls-3" d="m615.66,11.6c4,3.6,5.8,7.4,5.8,12s-1.8,8.5-5.8,12l-.8-.7c3.2-3.6,4.3-7.1,4.3-11.4s-1.1-7.7-4.3-11.4l.8-.5Z"/>
    <path class="cls-4" d="m35.86,3.8l-4-1.2c-1.2-.4-2.5.2-3,1.4l-1.9,4.3c-.4.9,0,2,.9,2.4l4.3,1.8c.4.3.6.8.4,1.3-1.1,4.4-3.1,8.7-5.8,13-.2.4-.7.7-1.2.6l-3.2-1.5c-1.5-.7-3.3,0-4,1.5l-1.5,3.5c-.4,1-.1,2.2.9,2.8l3.7,2.2c.7.4,1.4.7,2.1.8h0c3.3.6,6.5-1.1,7.9-4.2,3.6-6.6,6.5-13,8.4-18.9,1.4-3.2.5-6.8-2.3-9h0c-.5-.3-1.1-.6-1.7-.8h0Z"/>
    <path class="cls-4" d="m.86,22.2C-2.14,13,2.96,3,12.26,0l1.1,3.6C6.06,6,2.06,13.8,4.36,21.1l-3.5,1.1h0Z"/>
    <path class="cls-4" d="m6.86,20.3c-.9-2.9-.7-5.9.7-8.6,1.4-2.7,3.7-4.7,6.6-5.6l1.1,3.6c-4,1.3-6.1,5.5-4.9,9.5l-3.5,1.1h0Z"/>
    <path class="cls-4" d="m12.66,18.4c-.4-1.3-.3-2.7.3-4,.6-1.2,1.7-2.2,3-2.6l1.1,3.6c-.4.1-.7.4-.9.7-.2.4-.2.8-.1,1.1.2.1-3.4,1.2-3.4,1.2Z"/>
    <path class="cls-4" d="m6.86,20.3c-.9-2.9-.7-5.9.7-8.6,1.4-2.7,3.7-4.7,6.6-5.6l1.1,3.6c-4,1.3-6.1,5.5-4.9,9.5l-3.5,1.1h0Z"/>
    <polygon class="cls-1" points="371.06 39.5 49.06 39.5 55.66 1.8 377.66 1.8 371.06 39.5"/>
    <text class="cls-2" transform="translate(49.4 37.34) scale(.98) skewX(-10)"><tspan x="0" y="0">03-5946-9417</tspan></text>
  </g>
</svg>