<?xml version="1.0" encoding="UTF-8"?>
<svg id="uuid-fde58dd9-7acb-43b9-a71c-29a90855b518" xmlns="http://www.w3.org/2000/svg" viewBox="0 0 604.07 39.5">
  <defs>
    <style>
      .cls-1 {
        fill: none;
      }

      .cls-2 {
        fill: #f4891e;
      }

      .cls-3 {
        fill: #3b241a;
      }
    </style>
  </defs>
  <g id="uuid-fbffd6a2-a2c7-4393-9dcc-0e05c4d51cc2">
    <path class="cls-3" d="m35.86,3.8l-4-1.2c-1.2-.4-2.5.2-3,1.4l-1.9,4.3c-.4.9,0,2,.9,2.4l4.3,1.8c.4.3.6.8.4,1.3-1.1,4.4-3.1,8.7-5.8,13-.2.4-.7.7-1.2.6l-3.2-1.5c-1.5-.7-3.3,0-4,1.5l-1.5,3.5c-.4,1-.1,2.2.9,2.8l3.7,2.2c.7.4,1.4.7,2.1.8h0c3.3.6,6.5-1.1,7.9-4.2,3.6-6.6,6.5-13,8.4-18.9,1.4-3.2.5-6.8-2.3-9h0c-.5-.3-1.1-.6-1.7-.8h0Z"/>
    <path class="cls-3" d="m.86,22.2C-2.14,13,2.96,3,12.26,0l1.1,3.6C6.06,6,2.06,13.8,4.36,21.1l-3.5,1.1h0Z"/>
    <path class="cls-3" d="m6.86,20.3c-.9-2.9-.7-5.9.7-8.6,1.4-2.7,3.7-4.7,6.6-5.6l1.1,3.6c-4,1.3-6.1,5.5-4.9,9.5l-3.5,1.1h0Z"/>
    <path class="cls-3" d="m12.66,18.4c-.4-1.3-.3-2.7.3-4,.6-1.2,1.7-2.2,3-2.6l1.1,3.6c-.4.1-.7.4-.9.7-.2.4-.2.8-.1,1.1.2.1-3.4,1.2-3.4,1.2Z"/>
    <path class="cls-3" d="m6.86,20.3c-.9-2.9-.7-5.9.7-8.6,1.4-2.7,3.7-4.7,6.6-5.6l1.1,3.6c-4,1.3-6.1,5.5-4.9,9.5l-3.5,1.1h0Z"/>
    <polygon class="cls-1" points="371.06 39.5 49.06 39.5 55.66 1.8 377.66 1.8 371.06 39.5"/>
  </g>
  <path d="m62.34,37.06c-3.6,0-6.24-1.09-7.92-3.28s-2.52-5.69-2.52-10.52.84-8.27,2.53-10.48,4.32-3.3,7.91-3.3,6.22,1.1,7.91,3.3,2.53,5.69,2.53,10.47-.84,8.38-2.51,10.56-4.32,3.26-7.93,3.26h0Zm0-23.49c-1.64,0-2.82.77-3.52,2.31s-1.06,4-1.06,7.39.36,5.84,1.09,7.38c.73,1.54,1.89,2.32,3.5,2.32s2.77-.79,3.5-2.36,1.09-4.03,1.09-7.38-.35-5.83-1.06-7.37-1.88-2.3-3.52-2.3h-.02Z"/>
  <path d="m78.99,35.39v-4.99h.56c2.68,1.54,5.2,2.3,7.54,2.3,1.85,0,3.3-.38,4.34-1.15s1.56-1.89,1.56-3.37c0-1.17-.41-2.08-1.22-2.72s-2.5-.96-5.05-.96h-1.55v-3.99h1.46c3.94,0,5.91-1.2,5.91-3.6,0-1.01-.42-1.77-1.27-2.29s-2.04-.78-3.6-.78c-2.1,0-4.56.75-7.38,2.25h-.53v-4.94c2.98-1.11,5.84-1.67,8.6-1.67,3.26,0,5.72.6,7.39,1.79s2.5,2.78,2.5,4.76c0,1.48-.46,2.77-1.39,3.88s-2.16,1.85-3.71,2.22v.25c1.77.32,3.17,1,4.2,2.07s1.55,2.43,1.55,4.1c0,2.58-.98,4.64-2.95,6.19s-4.63,2.32-8,2.32-6.25-.56-8.96-1.67Z"/>
  <path d="m118.24,27.04h-12.8v-4.54h12.8v4.54Z"/>
  <path d="m125.17,35.48v-5.03h.58c2.57,1.5,4.99,2.25,7.26,2.25,3.94,0,5.91-1.59,5.91-4.76,0-1.35-.54-2.38-1.63-3.11s-2.7-1.09-4.83-1.09c-1.45,0-3.31.26-5.57.79h-.65v-14.52h18v4.31h-12.55v5.43c1.35-.08,2.34-.12,2.97-.12,3.3,0,5.82.72,7.56,2.15s2.6,3.42,2.6,5.95c0,2.79-1,5.04-2.99,6.76s-4.69,2.58-8.1,2.58c-3.13,0-5.98-.53-8.54-1.58h-.02Z"/>
  <path d="m152.99,36.64v-4.52h.54c1.14.52,2.48.77,4.04.77,4.82,0,7.49-2.52,8.03-7.56-2.27,1.39-4.36,2.09-6.26,2.09-2.59,0-4.68-.74-6.28-2.21s-2.39-3.57-2.39-6.28.95-5.05,2.86-6.81,4.37-2.65,7.41-2.65c3.39,0,5.99,1.04,7.82,3.12s2.74,5.13,2.74,9.15c0,4.91-1.21,8.69-3.63,11.34s-5.93,3.97-10.52,3.97c-1.86,0-3.32-.14-4.38-.42h.02Zm12.66-14.12c0-.12,0-.38.04-.79,0-.4.02-.7.02-.9,0-4.92-1.59-7.38-4.78-7.38-1.3,0-2.35.46-3.16,1.38s-1.2,2.19-1.2,3.82c0,3.22,1.7,4.83,5.1,4.83,1.27,0,2.6-.32,3.99-.97h-.01Z"/>
  <path d="m199,29.91h-3.76v6.64h-5.55v-6.64h-12.8v-4.66l12.55-15.24h5.8v15.82h3.76v4.08Zm-9.32-4.08v-10.39l-8.58,10.39h8.58Z"/>
  <path d="m222.89,9.92v4.54h-.51c-1.11-.54-2.46-.81-4.03-.81-4.79,0-7.46,2.51-8.02,7.52,2.32-1.38,4.42-2.07,6.29-2.07,2.59,0,4.68.74,6.27,2.23s2.38,3.57,2.38,6.26-.95,5.07-2.86,6.83-4.35,2.65-7.34,2.65c-3.43,0-6.06-1.06-7.88-3.17s-2.73-5.17-2.73-9.17c0-4.91,1.2-8.68,3.61-11.3s5.9-3.94,10.49-3.94c1.62,0,3.06.15,4.32.44h0Zm-12.57,14.11l-.02.72c0,.39-.02.7-.02.93,0,4.95,1.61,7.42,4.82,7.42,1.29,0,2.33-.46,3.12-1.37s1.19-2.2,1.19-3.85c0-3.22-1.68-4.83-5.04-4.83-1.31,0-2.66.33-4.04.98h-.01Z"/>
  <path d="m243.87,27.04h-12.8v-4.54h12.8v4.54Z"/>
  <path d="m252,36.64v-4.52h.54c1.14.52,2.48.77,4.04.77,4.82,0,7.49-2.52,8.03-7.56-2.27,1.39-4.36,2.09-6.26,2.09-2.59,0-4.68-.74-6.28-2.21s-2.39-3.57-2.39-6.28.95-5.05,2.86-6.81,4.37-2.65,7.41-2.65c3.39,0,5.99,1.04,7.82,3.12s2.74,5.13,2.74,9.15c0,4.91-1.21,8.69-3.63,11.34s-5.93,3.97-10.52,3.97c-1.86,0-3.32-.14-4.38-.42h.02Zm12.66-14.12c0-.12.01-.38.04-.79.01-.4.02-.7.02-.9,0-4.92-1.59-7.38-4.78-7.38-1.3,0-2.35.46-3.16,1.38s-1.2,2.19-1.2,3.82c0,3.22,1.7,4.83,5.1,4.83,1.27,0,2.6-.32,3.99-.97h0Z"/>
  <path d="m298,29.91h-3.76v6.64h-5.55v-6.64h-12.8v-4.66l12.55-15.24h5.8v15.82h3.76v4.08Zm-9.32-4.08v-10.39l-8.58,10.39h8.58Z"/>
  <path d="m322.75,36.5h-16.86v-3.87h5.68v-15.33h-5.68v-3.55c2.25-.02,3.84-.34,4.77-.94.93-.6,1.47-1.56,1.63-2.86h4.9v22.68h5.55v3.87h.01Z"/>
  <path d="m350.47,14.72l-12.02,21.78h-6.33l12.59-22.18h-14.26v-4.31h20.02v4.71Z"/>
  <g>
    <g>
      <path class="cls-2" d="m367.53,15.7c-3.22,3.66-4.35,7.17-4.35,11.47s1.13,7.81,4.35,11.46l-.74.69c-4.08-3.61-5.84-7.39-5.84-12.15s1.79-8.52,5.84-12.15l.74.69Z"/>
      <path class="cls-2" d="m375.05,30.03c-1.99,0-2.7.05-2.83.05-.23,0-.25-.02-.25-.25v-1.86c0-.23.02-.25.25-.25.14,0,.84.04,2.83.04h5.69v-7.57h-4.46c-2.15,0-2.9.05-3.04.05-.23,0-.25-.02-.25-.27v-1.81c0-.25.02-.27.25-.27.14,0,.88.05,3.04.05h11.69c2.15,0,2.9-.05,3.04-.05.23,0,.25.02.25.27v1.81c0,.25-.02.27-.25.27-.14,0-.88-.05-3.04-.05h-4.76v7.57h5.87c2.02,0,2.7-.04,2.86-.04.23,0,.25.02.25.25v1.86c0,.23-.02.25-.25.25-.16,0-.84-.05-2.86-.05h-5.87v4.89c0,1.52.02,2.24.02,2.38,0,.23-.02.25-.23.25h-2.06c-.23,0-.25-.02-.25-.25,0-.16.05-.86.05-2.38v-4.89h-5.69Zm.88-9c.25-.14.29-.09.43.11.95,1.36,1.86,3.08,2.47,4.74.07.2.07.25-.18.39l-1.54.68c-.29.14-.34.14-.43-.11-.59-1.65-1.29-3.13-2.31-4.74-.14-.18-.09-.2.2-.36l1.36-.7Zm11.28,1.16c.18-.36.34-.82.43-1.27.7.23,1.47.57,2.06.91.2.11.27.2.27.32s-.04.2-.2.34c-.18.14-.36.38-.52.72-.61,1.2-1.29,2.33-2.08,3.47-.23.32-.32.45-.48.45-.11,0-.27-.09-.54-.27-.48-.29-.84-.52-1.34-.68,1-1.29,1.75-2.58,2.4-3.99Z"/>
      <path class="cls-2" d="m396.67,37.21c-.23,0-.25-.02-.25-.25,0-.16.04-1.5.04-8.07v-4.37c0-4.4-.04-5.78-.04-5.91,0-.25.02-.27.25-.27.16,0,.93.05,3.13.05h7.77c2.2,0,2.99-.05,3.13-.05.23,0,.25.02.25.27,0,.14-.05,1.52-.05,5.23v5.03c0,6.5.05,7.84.05,7.98,0,.23-.02.25-.25.25h-2.02c-.23,0-.25-.02-.25-.25v-1.11h-9.49v1.22c0,.23-.02.25-.25.25h-2.02Zm2.27-11.42h9.49v-5.17h-9.49v5.17Zm9.49,7.7v-5.48h-9.49v5.48h9.49Z"/>
      <path class="cls-2" d="m418.23,36.44c-2.02,0-2.7.04-2.83.04-.2,0-.23-.02-.23-.25v-1.88c0-.23.02-.25.23-.25.14,0,.82.04,2.83.04h5.6v-7.73h-3.6c-2.22,0-2.97.05-3.1.05-.23,0-.25-.02-.25-.25v-1.88c0-.23.02-.25.25-.25.14,0,.88.05,3.1.05h3.6v-3.51c0-1.54-.02-2.54-.18-3.56.84.02,1.86.07,2.65.16.2.02.36.11.36.27,0,.18-.07.34-.14.5-.11.27-.14.77-.14,2.58v3.56h3.99c2.2,0,2.95-.05,3.08-.05.25,0,.27.02.27.25v1.88c0,.23-.02.25-.27.25-.14,0-.88-.05-3.08-.05h-3.99v7.73h5.96c2.02,0,2.7-.04,2.83-.04.2,0,.23.02.23.25v1.88c0,.23-.02.25-.23.25-.14,0-.82-.04-2.83-.04h-14.12Z"/>
      <path class="cls-2" d="m440.26,37.21c-.23,0-.25-.02-.25-.25,0-.16.04-1.5.04-8.07v-4.37c0-4.4-.04-5.78-.04-5.91,0-.25.02-.27.25-.27.16,0,.93.05,3.13.05h7.77c2.2,0,2.99-.05,3.13-.05.23,0,.25.02.25.27,0,.14-.05,1.52-.05,5.23v5.03c0,6.5.05,7.84.05,7.98,0,.23-.02.25-.25.25h-2.02c-.23,0-.25-.02-.25-.25v-1.11h-9.49v1.22c0,.23-.02.25-.25.25h-2.02Zm2.27-11.42h9.49v-5.17h-9.49v5.17Zm9.49,7.7v-5.48h-9.49v5.48h9.49Z"/>
      <path class="cls-2" d="m467.69,32.74c.34,1.25.93,1.79,1.96,1.79,2.09,0,3.29-1.77,3.41-6.68-.81,1.52-2.11,2.23-3.83,2.23-2.85,0-4.98-2.33-4.98-6.04,0-4.05,2.21-6.56,5.65-6.56,3.71,0,6.09,2.68,6.09,8.99,0,7.49-2.36,10.41-6.38,10.41-2.55,0-4.17-1.01-4.93-3.02l3.02-1.13Zm2.33-12.89c-1.82,0-2.65,1.57-2.65,4.12,0,2.38,1.01,3.76,2.58,3.76,1.35,0,2.31-.83,2.97-2.36-.02-3.66-.88-5.52-2.9-5.52Z"/>
      <path class="cls-2" d="m483.21,25.51h-3.51v-3.39h3.51v3.39Zm0,10.09h-3.51v-3.39h3.51v3.39Z"/>
      <path class="cls-2" d="m497.41,27.12c0,6.95-2.11,9.77-5.94,9.77s-5.87-2.77-5.87-9.72,2.14-9.67,5.92-9.67,5.89,2.7,5.89,9.62Zm-8.64.02c0,5.52.76,7.32,2.7,7.32s2.77-1.82,2.77-7.32-.76-7.22-2.73-7.22-2.75,1.67-2.75,7.22Z"/>
      <path class="cls-2" d="m510.74,27.12c0,6.95-2.11,9.77-5.94,9.77s-5.87-2.77-5.87-9.72,2.14-9.67,5.92-9.67,5.89,2.7,5.89,9.62Zm-8.64.02c0,5.52.76,7.32,2.7,7.32s2.77-1.82,2.77-7.32-.76-7.22-2.73-7.22-2.75,1.67-2.75,7.22Z"/>
      <path class="cls-2" d="m527.19,26.94c-1.2,2.48-2.38,3.39-3.93,3.39-.96,0-1.82-.22-3.66-1.08-1.65-.79-2.36-1.01-3.12-1.01-.96,0-1.79.56-2.58,1.87l-1.2-.71c.96-2.31,2.28-3.41,3.83-3.41.83,0,1.72.22,3.46,1.01,1.82.81,2.53,1.08,3.29,1.08,1.13,0,1.89-.54,2.72-1.89l1.18.76Z"/>
      <path class="cls-2" d="m536.84,34.17h3.51v2.38h-10.12v-2.38h3.68v-13.36c-.93.64-2.11,1.23-3.46,1.67l-.49-2.58c1.62-.47,3.07-1.25,4.37-2.21h2.5v16.47Z"/>
      <path class="cls-2" d="m554.45,31.69c0,3.12-2.38,5.21-6.04,5.21s-6.06-1.94-6.06-5.11c0-2.16,1.13-3.44,3.63-4.67-2.33-1.2-3.19-2.7-3.19-4.79,0-2.7,2.23-4.84,5.6-4.84s5.65,1.96,5.65,4.74c0,2.01-1.08,3.36-3.29,4.27,2.7,1.28,3.71,2.75,3.71,5.18Zm-6.6-3.63c-1.74.96-2.58,1.96-2.58,3.54,0,1.82,1.2,3.04,3.12,3.04s3.14-1.08,3.14-2.85c0-1.47-.71-2.31-2.97-3.39l-.71-.34Zm1.08-2.43c1.65-.86,2.21-1.82,2.21-3.27,0-1.6-1.18-2.6-2.75-2.6s-2.7.96-2.7,2.55c0,1.28.61,2.09,2.55,3l.69.32Z"/>
      <path class="cls-2" d="m560.19,26.46h-3.51v-3.39h3.51v3.39Zm0,10.09h-3.51v-3.39h3.51v3.39Z"/>
      <path class="cls-2" d="m575.37,27.12c0,6.95-2.11,9.77-5.94,9.77s-5.87-2.77-5.87-9.72,2.14-9.67,5.92-9.67,5.89,2.7,5.89,9.62Zm-8.64.02c0,5.52.76,7.32,2.7,7.32s2.77-1.82,2.77-7.32-.76-7.22-2.73-7.22-2.75,1.67-2.75,7.22Z"/>
      <path class="cls-2" d="m588.7,27.12c0,6.95-2.11,9.77-5.94,9.77s-5.87-2.77-5.87-9.72,2.14-9.67,5.92-9.67,5.89,2.7,5.89,9.62Zm-8.64.02c0,5.52.76,7.32,2.7,7.32s2.77-1.82,2.77-7.32-.76-7.22-2.73-7.22-2.75,1.67-2.75,7.22Z"/>
      <path class="cls-2" d="m596,15.02c4.03,3.63,5.82,7.44,5.82,12.15s-1.77,8.54-5.82,12.15l-.76-.69c3.22-3.66,4.35-7.14,4.35-11.46s-1.11-7.81-4.35-11.47l.76-.69Z"/>
    </g>
    <g>
      <path d="m367.53,15.7c-3.22,3.66-4.35,7.17-4.35,11.47s1.13,7.81,4.35,11.46l-.74.69c-4.08-3.61-5.84-7.39-5.84-12.15s1.79-8.52,5.84-12.15l.74.69Z"/>
      <path d="m375.05,30.03c-1.99,0-2.7.05-2.83.05-.23,0-.25-.02-.25-.25v-1.86c0-.23.02-.25.25-.25.14,0,.84.04,2.83.04h5.69v-7.57h-4.46c-2.15,0-2.9.05-3.04.05-.23,0-.25-.02-.25-.27v-1.81c0-.25.02-.27.25-.27.14,0,.88.05,3.04.05h11.69c2.15,0,2.9-.05,3.04-.05.23,0,.25.02.25.27v1.81c0,.25-.02.27-.25.27-.14,0-.88-.05-3.04-.05h-4.76v7.57h5.87c2.02,0,2.7-.04,2.86-.04.23,0,.25.02.25.25v1.86c0,.23-.02.25-.25.25-.16,0-.84-.05-2.86-.05h-5.87v4.89c0,1.52.02,2.24.02,2.38,0,.23-.02.25-.23.25h-2.06c-.23,0-.25-.02-.25-.25,0-.16.05-.86.05-2.38v-4.89h-5.69Zm.88-9c.25-.14.29-.09.43.11.95,1.36,1.86,3.08,2.47,4.74.07.2.07.25-.18.39l-1.54.68c-.29.14-.34.14-.43-.11-.59-1.65-1.29-3.13-2.31-4.74-.14-.18-.09-.2.2-.36l1.36-.7Zm11.28,1.16c.18-.36.34-.82.43-1.27.7.23,1.47.57,2.06.91.2.11.27.2.27.32s-.04.2-.2.34c-.18.14-.36.38-.52.72-.61,1.2-1.29,2.33-2.08,3.47-.23.32-.32.45-.48.45-.11,0-.27-.09-.54-.27-.48-.29-.84-.52-1.34-.68,1-1.29,1.75-2.58,2.4-3.99Z"/>
      <path d="m396.67,37.21c-.23,0-.25-.02-.25-.25,0-.16.04-1.5.04-8.07v-4.37c0-4.4-.04-5.78-.04-5.91,0-.25.02-.27.25-.27.16,0,.93.05,3.13.05h7.77c2.2,0,2.99-.05,3.13-.05.23,0,.25.02.25.27,0,.14-.05,1.52-.05,5.23v5.03c0,6.5.05,7.84.05,7.98,0,.23-.02.25-.25.25h-2.02c-.23,0-.25-.02-.25-.25v-1.11h-9.49v1.22c0,.23-.02.25-.25.25h-2.02Zm2.27-11.42h9.49v-5.17h-9.49v5.17Zm9.49,7.7v-5.48h-9.49v5.48h9.49Z"/>
      <path d="m418.23,36.44c-2.02,0-2.7.04-2.83.04-.2,0-.23-.02-.23-.25v-1.88c0-.23.02-.25.23-.25.14,0,.82.04,2.83.04h5.6v-7.73h-3.6c-2.22,0-2.97.05-3.1.05-.23,0-.25-.02-.25-.25v-1.88c0-.23.02-.25.25-.25.14,0,.88.05,3.1.05h3.6v-3.51c0-1.54-.02-2.54-.18-3.56.84.02,1.86.07,2.65.16.2.02.36.11.36.27,0,.18-.07.34-.14.5-.11.27-.14.77-.14,2.58v3.56h3.99c2.2,0,2.95-.05,3.08-.05.25,0,.27.02.27.25v1.88c0,.23-.02.25-.27.25-.14,0-.88-.05-3.08-.05h-3.99v7.73h5.96c2.02,0,2.7-.04,2.83-.04.2,0,.23.02.23.25v1.88c0,.23-.02.25-.23.25-.14,0-.82-.04-2.83-.04h-14.12Z"/>
      <path d="m440.26,37.21c-.23,0-.25-.02-.25-.25,0-.16.04-1.5.04-8.07v-4.37c0-4.4-.04-5.78-.04-5.91,0-.25.02-.27.25-.27.16,0,.93.05,3.13.05h7.77c2.2,0,2.99-.05,3.13-.05.23,0,.25.02.25.27,0,.14-.05,1.52-.05,5.23v5.03c0,6.5.05,7.84.05,7.98,0,.23-.02.25-.25.25h-2.02c-.23,0-.25-.02-.25-.25v-1.11h-9.49v1.22c0,.23-.02.25-.25.25h-2.02Zm2.27-11.42h9.49v-5.17h-9.49v5.17Zm9.49,7.7v-5.48h-9.49v5.48h9.49Z"/>
      <path d="m467.69,32.74c.34,1.25.93,1.79,1.96,1.79,2.09,0,3.29-1.77,3.41-6.68-.81,1.52-2.11,2.23-3.83,2.23-2.85,0-4.98-2.33-4.98-6.04,0-4.05,2.21-6.56,5.65-6.56,3.71,0,6.09,2.68,6.09,8.99,0,7.49-2.36,10.41-6.38,10.41-2.55,0-4.17-1.01-4.93-3.02l3.02-1.13Zm2.33-12.89c-1.82,0-2.65,1.57-2.65,4.12,0,2.38,1.01,3.76,2.58,3.76,1.35,0,2.31-.83,2.97-2.36-.02-3.66-.88-5.52-2.9-5.52Z"/>
      <path d="m483.21,25.51h-3.51v-3.39h3.51v3.39Zm0,10.09h-3.51v-3.39h3.51v3.39Z"/>
      <path d="m497.41,27.12c0,6.95-2.11,9.77-5.94,9.77s-5.87-2.77-5.87-9.72,2.14-9.67,5.92-9.67,5.89,2.7,5.89,9.62Zm-8.64.02c0,5.52.76,7.32,2.7,7.32s2.77-1.82,2.77-7.32-.76-7.22-2.73-7.22-2.75,1.67-2.75,7.22Z"/>
      <path d="m510.74,27.12c0,6.95-2.11,9.77-5.94,9.77s-5.87-2.77-5.87-9.72,2.14-9.67,5.92-9.67,5.89,2.7,5.89,9.62Zm-8.64.02c0,5.52.76,7.32,2.7,7.32s2.77-1.82,2.77-7.32-.76-7.22-2.73-7.22-2.75,1.67-2.75,7.22Z"/>
      <path d="m527.19,26.94c-1.2,2.48-2.38,3.39-3.93,3.39-.96,0-1.82-.22-3.66-1.08-1.65-.79-2.36-1.01-3.12-1.01-.96,0-1.79.56-2.58,1.87l-1.2-.71c.96-2.31,2.28-3.41,3.83-3.41.83,0,1.72.22,3.46,1.01,1.82.81,2.53,1.08,3.29,1.08,1.13,0,1.89-.54,2.72-1.89l1.18.76Z"/>
      <path d="m536.84,34.17h3.51v2.38h-10.12v-2.38h3.68v-13.36c-.93.64-2.11,1.23-3.46,1.67l-.49-2.58c1.62-.47,3.07-1.25,4.37-2.21h2.5v16.47Z"/>
      <path d="m554.45,31.69c0,3.12-2.38,5.21-6.04,5.21s-6.06-1.94-6.06-5.11c0-2.16,1.13-3.44,3.63-4.67-2.33-1.2-3.19-2.7-3.19-4.79,0-2.7,2.23-4.84,5.6-4.84s5.65,1.96,5.65,4.74c0,2.01-1.08,3.36-3.29,4.27,2.7,1.28,3.71,2.75,3.71,5.18Zm-6.6-3.63c-1.74.96-2.58,1.96-2.58,3.54,0,1.82,1.2,3.04,3.12,3.04s3.14-1.08,3.14-2.85c0-1.47-.71-2.31-2.97-3.39l-.71-.34Zm1.08-2.43c1.65-.86,2.21-1.82,2.21-3.27,0-1.6-1.18-2.6-2.75-2.6s-2.7.96-2.7,2.55c0,1.28.61,2.09,2.55,3l.69.32Z"/>
      <path d="m560.19,26.46h-3.51v-3.39h3.51v3.39Zm0,10.09h-3.51v-3.39h3.51v3.39Z"/>
      <path d="m575.37,27.12c0,6.95-2.11,9.77-5.94,9.77s-5.87-2.77-5.87-9.72,2.14-9.67,5.92-9.67,5.89,2.7,5.89,9.62Zm-8.64.02c0,5.52.76,7.32,2.7,7.32s2.77-1.82,2.77-7.32-.76-7.22-2.73-7.22-2.75,1.67-2.75,7.22Z"/>
      <path d="m588.7,27.12c0,6.95-2.11,9.77-5.94,9.77s-5.87-2.77-5.87-9.72,2.14-9.67,5.92-9.67,5.89,2.7,5.89,9.62Zm-8.64.02c0,5.52.76,7.32,2.7,7.32s2.77-1.82,2.77-7.32-.76-7.22-2.73-7.22-2.75,1.67-2.75,7.22Z"/>
      <path d="m596,15.02c4.03,3.63,5.82,7.44,5.82,12.15s-1.77,8.54-5.82,12.15l-.76-.69c3.22-3.66,4.35-7.14,4.35-11.46s-1.11-7.81-4.35-11.47l.76-.69Z"/>
    </g>
  </g>
</svg>