<?xml version="1.0" encoding="utf-8"?>
<!-- Generator: Adobe Illustrator 27.2.0, SVG Export Plug-In . SVG Version: 6.00 Build 0)  -->
<svg version="1.1" id="uuid-fde58dd9-7acb-43b9-a71c-29a90855b518"
	 xmlns="http://www.w3.org/2000/svg" xmlns:xlink="http://www.w3.org/1999/xlink" x="0px" y="0px" viewBox="0 0 604.1 39.5"
	 style="enable-background:new 0 0 604.1 39.5;" xml:space="preserve">
<style type="text/css">
	.st0{fill:#3B241A;}
	.st1{fill:none;}
	.st2{fill:#F4891E;}
</style>
<g id="uuid-fbffd6a2-a2c7-4393-9dcc-0e05c4d51cc2">
	<path class="st0" d="M35.9,3.8l-4-1.2c-1.2-0.4-2.5,0.2-3,1.4L27,8.3c-0.4,0.9,0,2,0.9,2.4l4.3,1.8c0.4,0.3,0.6,0.8,0.4,1.3
		c-1.1,4.4-3.1,8.7-5.8,13c-0.2,0.4-0.7,0.7-1.2,0.6l-3.2-1.5c-1.5-0.7-3.3,0-4,1.5l-1.5,3.5c-0.4,1-0.1,2.2,0.9,2.8l3.7,2.2
		c0.7,0.4,1.4,0.7,2.1,0.8l0,0c3.3,0.6,6.5-1.1,7.9-4.2c3.6-6.6,6.5-13,8.4-18.9c1.4-3.2,0.5-6.8-2.3-9l0,0
		C37.1,4.3,36.5,4,35.9,3.8C35.9,3.8,35.9,3.8,35.9,3.8z"/>
	<path class="st0" d="M0.9,22.2C-2.1,13,3,3,12.3,0l1.1,3.6C6.1,6,2.1,13.8,4.4,21.1L0.9,22.2C0.9,22.2,0.9,22.2,0.9,22.2z"/>
	<path class="st0" d="M6.9,20.3c-0.9-2.9-0.7-5.9,0.7-8.6s3.7-4.7,6.6-5.6l1.1,3.6c-4,1.3-6.1,5.5-4.9,9.5L6.9,20.3
		C6.9,20.3,6.9,20.3,6.9,20.3z"/>
	<path class="st0" d="M12.7,18.4c-0.4-1.3-0.3-2.7,0.3-4c0.6-1.2,1.7-2.2,3-2.6l1.1,3.6c-0.4,0.1-0.7,0.4-0.9,0.7
		c-0.2,0.4-0.2,0.8-0.1,1.1C16.3,17.3,12.7,18.4,12.7,18.4z"/>
	<path class="st0" d="M6.9,20.3c-0.9-2.9-0.7-5.9,0.7-8.6s3.7-4.7,6.6-5.6l1.1,3.6c-4,1.3-6.1,5.5-4.9,9.5L6.9,20.3
		C6.9,20.3,6.9,20.3,6.9,20.3z"/>
	<polygon class="st1" points="371.1,39.5 49.1,39.5 55.7,1.8 377.7,1.8 	"/>
</g>
<g>
	<g>
		<path class="st2" d="M367.5,15.7c-3.2,3.7-4.4,7.2-4.4,11.5s1.1,7.8,4.4,11.5l-0.7,0.7c-4.1-3.6-5.8-7.4-5.8-12.1
			s1.8-8.5,5.8-12.1L367.5,15.7L367.5,15.7z"/>
		<path class="st2" d="M375,30c-2,0-2.7,0-2.8,0c-0.2,0-0.2,0-0.2-0.2V28c0-0.2,0-0.2,0.2-0.2c0.1,0,0.8,0,2.8,0h5.7v-7.6h-4.5
			c-2.1,0-2.9,0-3,0c-0.2,0-0.2,0-0.2-0.3v-1.8c0-0.2,0-0.3,0.2-0.3c0.1,0,0.9,0,3,0H388c2.1,0,2.9,0,3,0c0.2,0,0.2,0,0.2,0.3V20
			c0,0.2,0,0.3-0.2,0.3c-0.1,0-0.9,0-3,0h-4.8v7.6h5.9c2,0,2.7,0,2.9,0c0.2,0,0.2,0,0.2,0.2v1.9c0,0.2,0,0.2-0.2,0.2
			c-0.2,0-0.8,0-2.9,0h-5.9v4.9c0,1.5,0,2.2,0,2.4c0,0.2,0,0.2-0.2,0.2h-2.1c-0.2,0-0.2,0-0.2-0.2c0-0.2,0-0.9,0-2.4V30L375,30
			L375,30z M375.9,21c0.2-0.1,0.3-0.1,0.4,0.1c1,1.4,1.9,3.1,2.5,4.7c0.1,0.2,0.1,0.2-0.2,0.4l-1.5,0.7c-0.3,0.1-0.3,0.1-0.4-0.1
			c-0.6-1.6-1.3-3.1-2.3-4.7c-0.1-0.2-0.1-0.2,0.2-0.4L375.9,21L375.9,21z M387.2,22.2c0.2-0.4,0.3-0.8,0.4-1.3
			c0.7,0.2,1.5,0.6,2.1,0.9c0.2,0.1,0.3,0.2,0.3,0.3s0,0.2-0.2,0.3c-0.2,0.1-0.4,0.4-0.5,0.7c-0.6,1.2-1.3,2.3-2.1,3.5
			c-0.2,0.3-0.3,0.5-0.5,0.5c-0.1,0-0.3-0.1-0.5-0.3c-0.5-0.3-0.8-0.5-1.3-0.7C385.8,24.9,386.6,23.6,387.2,22.2L387.2,22.2z"/>
		<path class="st2" d="M396.7,37.2c-0.2,0-0.2,0-0.2-0.2c0-0.2,0-1.5,0-8.1v-4.4c0-4.4,0-5.8,0-5.9c0-0.2,0-0.3,0.2-0.3
			c0.2,0,0.9,0,3.1,0h7.8c2.2,0,3,0,3.1,0c0.2,0,0.2,0,0.2,0.3c0,0.1,0,1.5,0,5.2v5c0,6.5,0,7.8,0,8c0,0.2,0,0.2-0.2,0.2h-2
			c-0.2,0-0.2,0-0.2-0.2v-1.1h-9.5V37c0,0.2,0,0.2-0.2,0.2L396.7,37.2L396.7,37.2z M398.9,25.8h9.5v-5.2h-9.5V25.8z M408.4,33.5V28
			h-9.5v5.5H408.4z"/>
		<path class="st2" d="M418.2,36.4c-2,0-2.7,0-2.8,0c-0.2,0-0.2,0-0.2-0.2v-1.9c0-0.2,0-0.2,0.2-0.2c0.1,0,0.8,0,2.8,0h5.6v-7.7
			h-3.6c-2.2,0-3,0-3.1,0c-0.2,0-0.2,0-0.2-0.2v-1.9c0-0.2,0-0.2,0.2-0.2c0.1,0,0.9,0,3.1,0h3.6v-3.5c0-1.5,0-2.5-0.2-3.6
			c0.8,0,1.9,0.1,2.6,0.2c0.2,0,0.4,0.1,0.4,0.3c0,0.2-0.1,0.3-0.1,0.5c-0.1,0.3-0.1,0.8-0.1,2.6v3.6h4c2.2,0,3,0,3.1,0
			c0.2,0,0.3,0,0.3,0.2v1.9c0,0.2,0,0.2-0.3,0.2c-0.1,0-0.9,0-3.1,0h-4v7.7h6c2,0,2.7,0,2.8,0c0.2,0,0.2,0,0.2,0.2v1.9
			c0,0.2,0,0.2-0.2,0.2c-0.1,0-0.8,0-2.8,0H418.2L418.2,36.4z"/>
		<path class="st2" d="M440.3,37.2c-0.2,0-0.2,0-0.2-0.2c0-0.2,0-1.5,0-8.1v-4.4c0-4.4,0-5.8,0-5.9c0-0.2,0-0.3,0.2-0.3
			c0.2,0,0.9,0,3.1,0h7.8c2.2,0,3,0,3.1,0c0.2,0,0.2,0,0.2,0.3c0,0.1,0,1.5,0,5.2v5c0,6.5,0,7.8,0,8c0,0.2,0,0.2-0.2,0.2h-2
			c-0.2,0-0.2,0-0.2-0.2v-1.1h-9.5V37c0,0.2,0,0.2-0.2,0.2L440.3,37.2L440.3,37.2z M442.5,25.8h9.5v-5.2h-9.5V25.8z M452,33.5V28
			h-9.5v5.5H452z"/>
		<path class="st2" d="M467.7,32.7c0.3,1.2,0.9,1.8,2,1.8c2.1,0,3.3-1.8,3.4-6.7c-0.8,1.5-2.1,2.2-3.8,2.2c-2.9,0-5-2.3-5-6
			c0-4,2.2-6.6,5.6-6.6c3.7,0,6.1,2.7,6.1,9c0,7.5-2.4,10.4-6.4,10.4c-2.5,0-4.2-1-4.9-3L467.7,32.7L467.7,32.7z M470,19.9
			c-1.8,0-2.6,1.6-2.6,4.1c0,2.4,1,3.8,2.6,3.8c1.4,0,2.3-0.8,3-2.4C472.9,21.7,472,19.9,470,19.9z"/>
		<path class="st2" d="M483.2,25.5h-3.5v-3.4h3.5V25.5z M483.2,35.6h-3.5v-3.4h3.5V35.6z"/>
		<path class="st2" d="M497.4,27.1c0,6.9-2.1,9.8-5.9,9.8s-5.9-2.8-5.9-9.7s2.1-9.7,5.9-9.7S497.4,20.2,497.4,27.1L497.4,27.1z
			 M488.8,27.1c0,5.5,0.8,7.3,2.7,7.3s2.8-1.8,2.8-7.3s-0.8-7.2-2.7-7.2S488.8,21.6,488.8,27.1L488.8,27.1z"/>
		<path class="st2" d="M510.7,27.1c0,6.9-2.1,9.8-5.9,9.8s-5.9-2.8-5.9-9.7s2.1-9.7,5.9-9.7S510.7,20.2,510.7,27.1L510.7,27.1z
			 M502.1,27.1c0,5.5,0.8,7.3,2.7,7.3s2.8-1.8,2.8-7.3s-0.8-7.2-2.7-7.2S502.1,21.6,502.1,27.1L502.1,27.1z"/>
		<path class="st2" d="M527.2,26.9c-1.2,2.5-2.4,3.4-3.9,3.4c-1,0-1.8-0.2-3.7-1.1c-1.7-0.8-2.4-1-3.1-1c-1,0-1.8,0.6-2.6,1.9
			l-1.2-0.7c1-2.3,2.3-3.4,3.8-3.4c0.8,0,1.7,0.2,3.5,1c1.8,0.8,2.5,1.1,3.3,1.1c1.1,0,1.9-0.5,2.7-1.9L527.2,26.9L527.2,26.9z"/>
		<path class="st2" d="M536.8,34.2h3.5v2.4h-10.1v-2.4h3.7V20.8c-0.9,0.6-2.1,1.2-3.5,1.7l-0.5-2.6c1.6-0.5,3.1-1.2,4.4-2.2h2.5
			L536.8,34.2L536.8,34.2z"/>
		<path class="st2" d="M554.5,31.7c0,3.1-2.4,5.2-6,5.2s-6.1-1.9-6.1-5.1c0-2.2,1.1-3.4,3.6-4.7c-2.3-1.2-3.2-2.7-3.2-4.8
			c0-2.7,2.2-4.8,5.6-4.8s5.7,2,5.7,4.7c0,2-1.1,3.4-3.3,4.3C553.5,27.8,554.5,29.3,554.5,31.7L554.5,31.7z M547.9,28.1
			c-1.7,1-2.6,2-2.6,3.5c0,1.8,1.2,3,3.1,3s3.1-1.1,3.1-2.9c0-1.5-0.7-2.3-3-3.4C548.6,28.4,547.9,28.1,547.9,28.1z M548.9,25.6
			c1.7-0.9,2.2-1.8,2.2-3.3c0-1.6-1.2-2.6-2.8-2.6s-2.7,1-2.7,2.5c0,1.3,0.6,2.1,2.5,3C548.2,25.3,548.9,25.6,548.9,25.6z"/>
		<path class="st2" d="M560.2,26.5h-3.5v-3.4h3.5V26.5z M560.2,36.5h-3.5v-3.4h3.5V36.5z"/>
		<path class="st2" d="M575.4,27.1c0,6.9-2.1,9.8-5.9,9.8s-5.9-2.8-5.9-9.7s2.1-9.7,5.9-9.7S575.4,20.2,575.4,27.1z M566.7,27.1
			c0,5.5,0.8,7.3,2.7,7.3s2.8-1.8,2.8-7.3s-0.8-7.2-2.7-7.2S566.7,21.6,566.7,27.1L566.7,27.1z"/>
		<path class="st2" d="M588.7,27.1c0,6.9-2.1,9.8-5.9,9.8s-5.9-2.8-5.9-9.7s2.1-9.7,5.9-9.7S588.7,20.2,588.7,27.1z M580.1,27.1
			c0,5.5,0.8,7.3,2.7,7.3s2.8-1.8,2.8-7.3s-0.8-7.2-2.7-7.2S580.1,21.6,580.1,27.1L580.1,27.1z"/>
		<path class="st2" d="M596,15c4,3.6,5.8,7.4,5.8,12.1s-1.8,8.5-5.8,12.1l-0.8-0.7c3.2-3.7,4.3-7.1,4.3-11.5s-1.1-7.8-4.3-11.5
			L596,15L596,15z"/>
	</g>
	<g>
		<path d="M367.5,15.7c-3.2,3.7-4.4,7.2-4.4,11.5s1.1,7.8,4.4,11.5l-0.7,0.7c-4.1-3.6-5.8-7.4-5.8-12.1s1.8-8.5,5.8-12.1L367.5,15.7
			L367.5,15.7z"/>
		<path d="M375,30c-2,0-2.7,0-2.8,0c-0.2,0-0.2,0-0.2-0.2V28c0-0.2,0-0.2,0.2-0.2c0.1,0,0.8,0,2.8,0h5.7v-7.6h-4.5c-2.1,0-2.9,0-3,0
			c-0.2,0-0.2,0-0.2-0.3v-1.8c0-0.2,0-0.3,0.2-0.3c0.1,0,0.9,0,3,0H388c2.1,0,2.9,0,3,0c0.2,0,0.2,0,0.2,0.3V20c0,0.2,0,0.3-0.2,0.3
			c-0.1,0-0.9,0-3,0h-4.8v7.6h5.9c2,0,2.7,0,2.9,0c0.2,0,0.2,0,0.2,0.2v1.9c0,0.2,0,0.2-0.2,0.2c-0.2,0-0.8,0-2.9,0h-5.9v4.9
			c0,1.5,0,2.2,0,2.4c0,0.2,0,0.2-0.2,0.2h-2.1c-0.2,0-0.2,0-0.2-0.2c0-0.2,0-0.9,0-2.4V30L375,30L375,30z M375.9,21
			c0.2-0.1,0.3-0.1,0.4,0.1c1,1.4,1.9,3.1,2.5,4.7c0.1,0.2,0.1,0.2-0.2,0.4l-1.5,0.7c-0.3,0.1-0.3,0.1-0.4-0.1
			c-0.6-1.6-1.3-3.1-2.3-4.7c-0.1-0.2-0.1-0.2,0.2-0.4L375.9,21L375.9,21z M387.2,22.2c0.2-0.4,0.3-0.8,0.4-1.3
			c0.7,0.2,1.5,0.6,2.1,0.9c0.2,0.1,0.3,0.2,0.3,0.3s0,0.2-0.2,0.3c-0.2,0.1-0.4,0.4-0.5,0.7c-0.6,1.2-1.3,2.3-2.1,3.5
			c-0.2,0.3-0.3,0.5-0.5,0.5c-0.1,0-0.3-0.1-0.5-0.3c-0.5-0.3-0.8-0.5-1.3-0.7C385.8,24.9,386.6,23.6,387.2,22.2L387.2,22.2z"/>
		<path d="M396.7,37.2c-0.2,0-0.2,0-0.2-0.2c0-0.2,0-1.5,0-8.1v-4.4c0-4.4,0-5.8,0-5.9c0-0.2,0-0.3,0.2-0.3c0.2,0,0.9,0,3.1,0h7.8
			c2.2,0,3,0,3.1,0c0.2,0,0.2,0,0.2,0.3c0,0.1,0,1.5,0,5.2v5c0,6.5,0,7.8,0,8c0,0.2,0,0.2-0.2,0.2h-2c-0.2,0-0.2,0-0.2-0.2v-1.1
			h-9.5V37c0,0.2,0,0.2-0.2,0.2L396.7,37.2L396.7,37.2z M398.9,25.8h9.5v-5.2h-9.5V25.8z M408.4,33.5V28h-9.5v5.5H408.4z"/>
		<path d="M418.2,36.4c-2,0-2.7,0-2.8,0c-0.2,0-0.2,0-0.2-0.2v-1.9c0-0.2,0-0.2,0.2-0.2c0.1,0,0.8,0,2.8,0h5.6v-7.7h-3.6
			c-2.2,0-3,0-3.1,0c-0.2,0-0.2,0-0.2-0.2v-1.9c0-0.2,0-0.2,0.2-0.2c0.1,0,0.9,0,3.1,0h3.6v-3.5c0-1.5,0-2.5-0.2-3.6
			c0.8,0,1.9,0.1,2.6,0.2c0.2,0,0.4,0.1,0.4,0.3c0,0.2-0.1,0.3-0.1,0.5c-0.1,0.3-0.1,0.8-0.1,2.6v3.6h4c2.2,0,3,0,3.1,0
			c0.2,0,0.3,0,0.3,0.2v1.9c0,0.2,0,0.2-0.3,0.2c-0.1,0-0.9,0-3.1,0h-4v7.7h6c2,0,2.7,0,2.8,0c0.2,0,0.2,0,0.2,0.2v1.9
			c0,0.2,0,0.2-0.2,0.2c-0.1,0-0.8,0-2.8,0H418.2L418.2,36.4z"/>
		<path d="M440.3,37.2c-0.2,0-0.2,0-0.2-0.2c0-0.2,0-1.5,0-8.1v-4.4c0-4.4,0-5.8,0-5.9c0-0.2,0-0.3,0.2-0.3c0.2,0,0.9,0,3.1,0h7.8
			c2.2,0,3,0,3.1,0c0.2,0,0.2,0,0.2,0.3c0,0.1,0,1.5,0,5.2v5c0,6.5,0,7.8,0,8c0,0.2,0,0.2-0.2,0.2h-2c-0.2,0-0.2,0-0.2-0.2v-1.1
			h-9.5V37c0,0.2,0,0.2-0.2,0.2L440.3,37.2L440.3,37.2z M442.5,25.8h9.5v-5.2h-9.5V25.8z M452,33.5V28h-9.5v5.5H452z"/>
		<path d="M467.7,32.7c0.3,1.2,0.9,1.8,2,1.8c2.1,0,3.3-1.8,3.4-6.7c-0.8,1.5-2.1,2.2-3.8,2.2c-2.9,0-5-2.3-5-6c0-4,2.2-6.6,5.6-6.6
			c3.7,0,6.1,2.7,6.1,9c0,7.5-2.4,10.4-6.4,10.4c-2.5,0-4.2-1-4.9-3L467.7,32.7L467.7,32.7z M470,19.9c-1.8,0-2.6,1.6-2.6,4.1
			c0,2.4,1,3.8,2.6,3.8c1.4,0,2.3-0.8,3-2.4C472.9,21.7,472,19.9,470,19.9z"/>
		<path d="M483.2,25.5h-3.5v-3.4h3.5V25.5z M483.2,35.6h-3.5v-3.4h3.5V35.6z"/>
		<path d="M497.4,27.1c0,6.9-2.1,9.8-5.9,9.8s-5.9-2.8-5.9-9.7s2.1-9.7,5.9-9.7S497.4,20.2,497.4,27.1L497.4,27.1z M488.8,27.1
			c0,5.5,0.8,7.3,2.7,7.3s2.8-1.8,2.8-7.3s-0.8-7.2-2.7-7.2S488.8,21.6,488.8,27.1L488.8,27.1z"/>
		<path d="M510.7,27.1c0,6.9-2.1,9.8-5.9,9.8s-5.9-2.8-5.9-9.7s2.1-9.7,5.9-9.7S510.7,20.2,510.7,27.1L510.7,27.1z M502.1,27.1
			c0,5.5,0.8,7.3,2.7,7.3s2.8-1.8,2.8-7.3s-0.8-7.2-2.7-7.2S502.1,21.6,502.1,27.1L502.1,27.1z"/>
		<path d="M527.2,26.9c-1.2,2.5-2.4,3.4-3.9,3.4c-1,0-1.8-0.2-3.7-1.1c-1.7-0.8-2.4-1-3.1-1c-1,0-1.8,0.6-2.6,1.9l-1.2-0.7
			c1-2.3,2.3-3.4,3.8-3.4c0.8,0,1.7,0.2,3.5,1c1.8,0.8,2.5,1.1,3.3,1.1c1.1,0,1.9-0.5,2.7-1.9L527.2,26.9L527.2,26.9z"/>
		<path d="M536.8,34.2h3.5v2.4h-10.1v-2.4h3.7V20.8c-0.9,0.6-2.1,1.2-3.5,1.7l-0.5-2.6c1.6-0.5,3.1-1.2,4.4-2.2h2.5L536.8,34.2
			L536.8,34.2z"/>
		<path d="M554.5,31.7c0,3.1-2.4,5.2-6,5.2s-6.1-1.9-6.1-5.1c0-2.2,1.1-3.4,3.6-4.7c-2.3-1.2-3.2-2.7-3.2-4.8c0-2.7,2.2-4.8,5.6-4.8
			s5.7,2,5.7,4.7c0,2-1.1,3.4-3.3,4.3C553.5,27.8,554.5,29.3,554.5,31.7L554.5,31.7z M547.9,28.1c-1.7,1-2.6,2-2.6,3.5
			c0,1.8,1.2,3,3.1,3s3.1-1.1,3.1-2.9c0-1.5-0.7-2.3-3-3.4C548.6,28.4,547.9,28.1,547.9,28.1z M548.9,25.6c1.7-0.9,2.2-1.8,2.2-3.3
			c0-1.6-1.2-2.6-2.8-2.6s-2.7,1-2.7,2.5c0,1.3,0.6,2.1,2.5,3C548.2,25.3,548.9,25.6,548.9,25.6z"/>
		<path d="M560.2,26.5h-3.5v-3.4h3.5V26.5z M560.2,36.5h-3.5v-3.4h3.5V36.5z"/>
		<path d="M575.4,27.1c0,6.9-2.1,9.8-5.9,9.8s-5.9-2.8-5.9-9.7s2.1-9.7,5.9-9.7S575.4,20.2,575.4,27.1z M566.7,27.1
			c0,5.5,0.8,7.3,2.7,7.3s2.8-1.8,2.8-7.3s-0.8-7.2-2.7-7.2S566.7,21.6,566.7,27.1L566.7,27.1z"/>
		<path d="M588.7,27.1c0,6.9-2.1,9.8-5.9,9.8s-5.9-2.8-5.9-9.7s2.1-9.7,5.9-9.7S588.7,20.2,588.7,27.1z M580.1,27.1
			c0,5.5,0.8,7.3,2.7,7.3s2.8-1.8,2.8-7.3s-0.8-7.2-2.7-7.2S580.1,21.6,580.1,27.1L580.1,27.1z"/>
		<path d="M596,15c4,3.6,5.8,7.4,5.8,12.1s-1.8,8.5-5.8,12.1l-0.8-0.7c3.2-3.7,4.3-7.1,4.3-11.5s-1.1-7.8-4.3-11.5L596,15L596,15z"
			/>
	</g>
</g>
<g>
	<g>
		<path d="M76,15.9c0,9.6-4.7,21.2-14.3,21.2c-6.4,0-8.9-4.9-8.9-11c0-9.7,4.9-20.7,14.4-20.7C73.7,5.4,76,10.5,76,15.9z M59.5,26.3
			c0,2.3,0.4,5.4,3,5.4c4.7,0,6.8-11.7,6.8-15.7c0-2-0.3-5.2-2.9-5.2C61.8,10.8,59.5,21.8,59.5,26.3z"/>
		<path d="M89.7,12.3L89.7,12.3L83.5,15l-0.2-5.3l8.5-3.7h5.6l-5.8,30.7h-6.5L89.7,12.3z"/>
		<path d="M101.8,36.6l0.8-4.4l6.6-5.1c6.1-5,10.1-8.6,10.1-12.3c0-2.2-1.5-3.7-4.2-3.7c-2.7,0-4.9,0.8-6.5,1.8l-1.4-4.9
			c2.5-1.5,6-2.6,9.5-2.6c6.2,0,9.6,3.6,9.6,8.4c0,6.2-5,10.6-10.4,14.7l-3,2.2l0,0.1h11l-1.1,5.8H101.8z"/>
		<path d="M152.5,15.9c0,9.6-4.6,21.2-14.3,21.2c-6.4,0-8.9-4.9-8.9-11c0-9.7,4.9-20.7,14.4-20.7C150.3,5.4,152.5,10.5,152.5,15.9z
			 M136,26.3c0,2.3,0.4,5.4,3,5.4c4.7,0,6.8-11.7,6.8-15.7c0-2-0.3-5.2-2.9-5.2C138.4,10.8,136,21.8,136,26.3z"/>
		<path d="M167.3,21.8l-0.9,4.8h-12.2l0.9-4.8H167.3z"/>
		<path d="M192.2,11.7h-10.8l-1.4,4.7c0.5-0.1,0.8-0.1,1.3-0.1c2,0,4.5,0.5,6.4,1.9c2.2,1.5,3.4,4,3.4,6.8c0,7.7-6.5,12-14.2,12
			c-3.7,0-6.8-0.8-8-1.8l1.8-5.4c1.2,0.7,3.7,1.5,6.3,1.5c3.3,0,7-1.8,7-5.1c0-2.7-1.7-4.7-7.6-4.7c-1.5,0-2.5,0.1-3.8,0.2l4.4-15.9
			h16.4L192.2,11.7z"/>
		<path d="M205.8,36.6l1.4-7.4h-13.1l0.9-4.5l14.6-18.7h8.3l-3.4,18h3.6l-1,5.2h-3.6l-1.4,7.4H205.8z M208.2,23.9l1.4-6.6
			c0.4-2,1-4.1,1.5-6l-0.2,0c-1.4,2.1-2.6,4-4,6l-5.1,6.5l0,0.1H208.2z"/>
		<path d="M245.7,5.9l-0.9,4.5c-5.6,8.7-11.2,17.4-16.8,26.1h-7.5c5.6-8.3,11.1-16.5,16.6-24.8l0-0.1h-13.3l1.1-5.8H245.7z"/>
		<path d="M259,21.8l-0.9,4.8h-12.2l0.9-4.8H259z"/>
		<path d="M259.8,36.6l0.8-4.4l6.6-5.1c6.1-5,10.1-8.6,10.1-12.3c0-2.2-1.5-3.7-4.2-3.7c-2.7,0-4.9,0.8-6.5,1.8l-1.4-4.9
			c2.5-1.5,6-2.6,9.5-2.6c6.2,0,9.6,3.6,9.6,8.4c0,6.2-5,10.6-10.4,14.7l-3,2.2l0,0.1h11l-1.1,5.8H259.8z"/>
		<path d="M310.2,12.9c0,3.3-2.2,5.8-5.5,7.3l0,0.1c2.7,1.6,4.2,4.2,4.2,6.8c0,6.7-6.4,10-12.4,10c-6.5,0-10.3-3.3-10.3-7.9
			c0-4.3,3-7.2,6.6-8.7l0-0.1c-2.1-1.6-3.1-3.6-3.1-5.8c0-5.7,5.4-9.2,11.3-9.2C306.2,5.4,310.2,8,310.2,12.9z M301.8,27.7
			c0-2.4-1.7-3.9-4-4.7c-2.3,0.6-4.4,2.5-4.4,5.3c0,2.1,1.4,3.8,3.9,3.8C299.6,32.2,301.8,30.5,301.8,27.7z M296.3,14.3
			c0,1.9,1.5,3.2,3.6,3.9c1.9-0.7,3.8-2.3,3.8-4.6c0-1.8-1.2-3.3-3.3-3.3C298.1,10.4,296.3,12.2,296.3,14.3z"/>
		<path d="M323.1,36.6l1.4-7.4h-13.1l0.9-4.5l14.6-18.7h8.3l-3.4,18h3.6l-1,5.2h-3.6l-1.4,7.4H323.1z M325.5,23.9l1.4-6.6
			c0.4-2,1-4.1,1.5-6l-0.2,0c-1.4,2.1-2.6,4-4,6l-5.1,6.5l0,0.1H325.5z"/>
	</g>
</g>
</svg>
