<?xml version="1.0" encoding="UTF-8"?><svg id="uuid-fde58dd9-7acb-43b9-a71c-29a90855b518" xmlns="http://www.w3.org/2000/svg" viewBox="0 0 621.498 37.712"><defs><style>.uuid-93c94709-6176-4992-95d8-90c419c9015a{fill:#f4891e;}.uuid-a663aba4-e5cf-40fd-aef7-17289adf7a0f{fill:#3b241a;}</style></defs><g id="uuid-fbffd6a2-a2c7-4393-9dcc-0e05c4d51cc2"><path class="uuid-93c94709-6176-4992-95d8-90c419c9015a" d="m83.009,16.706c0,9.495-4.611,21.006-14.179,21.006-6.338,0-8.827-4.848-8.827-10.948,0-9.579,4.896-20.48,14.249-20.48,6.517,0,8.757,5.024,8.757,10.423Zm-16.368,10.277c0,2.281.35,5.378,3.002,5.378,4.627,0,6.71-11.578,6.71-15.59,0-2.031-.31-5.138-2.88-5.138-4.494,0-6.832,10.911-6.832,15.35Z"/><path class="uuid-93c94709-6176-4992-95d8-90c419c9015a" d="m86.52,32.076c.788.086,1.578.043,2.86-.014,2.099-.158,4.219-.793,5.977-1.885,2.24-1.387,3.94-3.33,4.924-5.598l-.09-.055c-1.453,1.492-3.724,2.178-5.739,2.178-4.827,0-8.134-3.307-8.134-8.229,0-6.592,5.481-12.19,12.372-12.19,6.699,0,9.844,4.569,9.835,10.598-.028,7.225-3.674,13.398-7.734,16.635-3.129,2.507-7.452,3.898-11.564,4.11-1.762.068-2.656.035-3.53-.025l.824-5.525Zm6.693-14.432c0,2.474,1.438,4.062,3.541,4.062,1.832,0,3.299-.951,4.07-2.011.267-.352.508-.805.661-1.434.188-.622.268-1.631.268-2.446,0-2.436-1.154-4.35-3.644-4.35-2.717,0-4.896,3.134-4.896,6.178Z"/><path class="uuid-93c94709-6176-4992-95d8-90c419c9015a" d="m133.608,16.706c0,9.495-4.611,21.006-14.179,21.006-6.338,0-8.827-4.848-8.827-10.948,0-9.579,4.896-20.48,14.249-20.48,6.517,0,8.757,5.024,8.757,10.423Zm-16.368,10.277c0,2.281.35,5.378,3.002,5.378,4.627,0,6.71-11.578,6.71-15.59,0-2.031-.31-5.138-2.88-5.138-4.494,0-6.832,10.911-6.832,15.35Z"/><path class="uuid-93c94709-6176-4992-95d8-90c419c9015a" d="m148.239,22.536l-.906,4.736h-12.126l.906-4.736h12.126Z"/><path class="uuid-93c94709-6176-4992-95d8-90c419c9015a" d="m161.145,37.198l1.41-7.375h-12.975l.86-4.511,14.473-18.514h8.279l-3.373,17.854h3.575l-.962,5.171h-3.574l-1.41,7.375h-6.304Zm2.372-12.546l1.397-6.584c.439-1.936,1.005-4.021,1.452-5.924l-.178-.008c-1.35,2.074-2.541,3.957-3.999,5.969l-5.008,6.453-.036.094h6.371Z"/><path class="uuid-93c94709-6176-4992-95d8-90c419c9015a" d="m199.267,16.706c0,9.495-4.611,21.006-14.179,21.006-6.338,0-8.827-4.848-8.827-10.948,0-9.579,4.896-20.48,14.249-20.48,6.517,0,8.757,5.024,8.757,10.423Zm-16.368,10.277c0,2.281.35,5.378,3.002,5.378,4.627,0,6.71-11.578,6.71-15.59,0-2.031-.31-5.138-2.88-5.138-4.494,0-6.832,10.911-6.832,15.35Z"/><path class="uuid-93c94709-6176-4992-95d8-90c419c9015a" d="m223.482,12.561h-10.73l-1.416,4.709c.485-.072.797-.08,1.281-.08,1.971,0,4.413.478,6.305,1.85,2.137,1.448,3.339,3.921,3.339,6.772,0,7.604-6.412,11.9-14.047,11.9-3.662,0-6.699-.844-7.896-1.8l1.746-5.347c1.21.724,3.659,1.486,6.242,1.486,3.31,0,6.956-1.797,6.956-5.069,0-2.685-1.714-4.651-7.542-4.651-1.468,0-2.509.101-3.757.193l4.379-15.727h16.304l-1.163,5.763Z"/><path class="uuid-93c94709-6176-4992-95d8-90c419c9015a" d="m227.429,30.357c1.237.653,3.646,1.686,6.683,1.686,3.765,0,6.016-1.891,6.016-4.322,0-2.729-2.252-4.062-6.211-4.06h-1.196l.987-5.122h1.074c3.158-.005,6.744-1.268,6.744-3.994,0-1.504-1.14-2.628-3.729-2.628s-4.859.695-6.271,1.492l-.934-5.051c2.217-1.235,5.479-2.074,8.533-2.074,5.103,0,9.532,2.356,9.532,7.146,0,3.759-2.982,6.525-6.775,7.474l-.037.094c3.173.683,5.301,3.198,5.301,6.676,0,6.396-6.505,10.039-13.159,10.039-3.872,0-7.259-.941-8.606-2.071l2.049-5.284Z"/><path class="uuid-93c94709-6176-4992-95d8-90c419c9015a" d="m264.497,22.536l-.906,4.736h-12.126l.906-4.736h12.126Z"/><path class="uuid-93c94709-6176-4992-95d8-90c419c9015a" d="m289.947,13.658c0,3.294-2.206,5.738-5.446,7.238l-.037.11c2.725,1.552,4.182,4.164,4.182,6.755,0,6.613-6.341,9.951-12.277,9.951-6.42-.027-10.168-3.312-10.168-7.816,0-4.297,2.979-7.186,6.508-8.625l.037-.107c-2.079-1.551-3.039-3.566-3.039-5.726,0-5.656,5.326-9.154,11.227-9.154,4.977,0,9.015,2.557,9.015,7.374Zm-8.363,14.744c0-2.409-1.679-3.837-3.934-4.641-2.274.619-4.397,2.487-4.397,5.256,0,2.105,1.388,3.795,3.864,3.795,2.289,0,4.467-1.648,4.467-4.41Zm-5.41-13.356c0,1.929,1.522,3.173,3.54,3.869,1.905-.662,3.753-2.308,3.753-4.514,0-1.826-1.157-3.226-3.268-3.226-2.244,0-4.025,1.842-4.025,3.87Z"/><path class="uuid-93c94709-6176-4992-95d8-90c419c9015a" d="m313.637,11.884c-.773-.056-1.535-.029-2.552.066-5.529.529-9.173,3.531-10.709,7.145l.085.055c1.649-1.479,3.798-2.342,6.248-2.342,4.457.01,7.745,3.458,7.745,8.506,0,6.529-4.993,12.398-12.16,12.398-6.789,0-10.11-4.672-10.11-10.668,0-6.911,3.304-12.913,7.526-16.231,3.392-2.701,7.862-4.216,12.406-4.425,1.158-.09,1.884-.049,2.532.006l-1.012,5.49Zm-6.137,14.14c0-2.661-1.513-4.191-3.757-4.191-1.846,0-3.439,1.192-4.374,2.81-.294.48-.463,1.084-.484,1.525-.095.607-.119,1.123-.119,1.643,0,2.627,1.359,4.72,3.748,4.72,3.253,0,4.986-3.634,4.986-6.506Z"/><path class="uuid-93c94709-6176-4992-95d8-90c419c9015a" d="m319.036,32.076c.788.086,1.578.043,2.86-.014,2.099-.158,4.219-.793,5.977-1.885,2.24-1.387,3.94-3.33,4.924-5.598l-.09-.055c-1.453,1.492-3.724,2.178-5.739,2.178-4.827,0-8.134-3.307-8.134-8.229,0-6.592,5.481-12.19,12.372-12.19,6.699,0,9.844,4.569,9.835,10.598-.028,7.225-3.674,13.398-7.734,16.635-3.129,2.507-7.452,3.898-11.564,4.11-1.762.068-2.656.035-3.53-.025l.824-5.525Zm6.693-14.432c0,2.474,1.438,4.062,3.541,4.062,1.832,0,3.299-.951,4.07-2.011.267-.352.508-.805.661-1.434.188-.622.268-1.631.268-2.446,0-2.436-1.154-4.35-3.644-4.35-2.717,0-4.896,3.134-4.896,6.178Z"/><path class="uuid-93c94709-6176-4992-95d8-90c419c9015a" d="m364.236,11.884c-.773-.056-1.535-.029-2.552.066-5.529.529-9.173,3.531-10.709,7.145l.085.055c1.649-1.479,3.798-2.342,6.248-2.342,4.457.01,7.745,3.458,7.745,8.506,0,6.529-4.993,12.398-12.16,12.398-6.789,0-10.11-4.672-10.11-10.668,0-6.911,3.304-12.913,7.526-16.231,3.392-2.701,7.862-4.216,12.406-4.425,1.158-.09,1.884-.049,2.532.006l-1.012,5.49Zm-6.137,14.14c0-2.661-1.513-4.191-3.757-4.191-1.846,0-3.439,1.192-4.374,2.81-.294.48-.463,1.084-.484,1.525-.095.607-.119,1.123-.119,1.643,0,2.627,1.359,4.72,3.748,4.72,3.253,0,4.986-3.634,4.986-6.506Z"/><path class="uuid-93c94709-6176-4992-95d8-90c419c9015a" d="m388.264,12.232c-3.187,3.623-4.305,7.102-4.305,11.357,0,4.281,1.118,7.735,4.305,11.359l-.729.681c-4.037-3.575-5.789-7.321-5.789-12.04,0-4.67,1.775-8.439,5.789-12.039l.729.682Z"/><path class="uuid-93c94709-6176-4992-95d8-90c419c9015a" d="m395.707,26.42c-1.976,0-2.671.045-2.806.045-.225,0-.247-.022-.247-.247v-1.84c0-.225.022-.248.247-.248.135,0,.83.045,2.806.045h5.634v-7.496h-4.422c-2.132,0-2.873.045-3.008.045-.225,0-.247-.022-.247-.27v-1.796c0-.247.022-.27.247-.27.135,0,.876.045,3.008.045h11.582c2.133,0,2.873-.045,3.008-.045.225,0,.247.022.247.27v1.796c0,.247-.022.27-.247.27-.135,0-.875-.045-3.008-.045h-4.714v7.496h5.813c1.998,0,2.671-.045,2.828-.045.225,0,.247.023.247.248v1.84c0,.225-.022.247-.247.247-.157,0-.83-.045-2.828-.045h-5.813v4.849c0,1.504.022,2.222.022,2.356,0,.225-.022.247-.224.247h-2.043c-.225,0-.247-.022-.247-.247,0-.157.045-.853.045-2.356v-4.849h-5.634Zm.875-8.911c.247-.135.292-.09.427.112.942,1.347,1.841,3.053,2.446,4.691.067.202.067.247-.179.382l-1.526.673c-.292.135-.337.135-.427-.112-.584-1.639-1.279-3.098-2.29-4.691-.134-.18-.089-.201.202-.358l1.347-.696Zm11.179,1.145c.18-.359.336-.808.426-1.257.696.225,1.459.562,2.043.897.202.113.27.203.27.314,0,.112-.045.202-.202.337-.18.135-.359.382-.517.719-.605,1.189-1.279,2.312-2.064,3.434-.225.314-.314.449-.472.449-.112,0-.27-.09-.539-.27-.471-.292-.83-.517-1.324-.673.988-1.279,1.729-2.559,2.38-3.951Z"/><path class="uuid-93c94709-6176-4992-95d8-90c419c9015a" d="m417.121,33.535c-.225,0-.247-.022-.247-.247,0-.157.045-1.481.045-7.99v-4.332c0-4.354-.045-5.724-.045-5.858,0-.247.022-.27.247-.27.157,0,.92.045,3.098.045h7.699c2.177,0,2.962-.045,3.097-.045.225,0,.247.022.247.27,0,.135-.045,1.504-.045,5.185v4.983c0,6.441.045,7.766.045,7.9,0,.225-.022.247-.247.247h-1.997c-.225,0-.247-.022-.247-.247v-1.1h-9.405v1.212c0,.225-.022.247-.246.247h-1.998Zm2.244-11.312h9.405v-5.118h-9.405v5.118Zm9.405,7.632v-5.433h-9.405v5.433h9.405Z"/><path class="uuid-93c94709-6176-4992-95d8-90c419c9015a" d="m438.469,32.773c-1.998,0-2.671.045-2.806.045-.202,0-.225-.023-.225-.247v-1.863c0-.225.022-.247.225-.247.135,0,.808.045,2.806.045h5.544v-7.654h-3.568c-2.2,0-2.94.045-3.075.045-.225,0-.247-.021-.247-.246v-1.863c0-.225.022-.247.247-.247.135,0,.875.045,3.075.045h3.568v-3.479c0-1.525-.022-2.514-.18-3.523.831.022,1.841.067,2.626.157.202.022.359.112.359.269,0,.18-.067.338-.135.494-.112.27-.135.764-.135,2.559v3.524h3.951c2.177,0,2.918-.045,3.053-.045.246,0,.269.022.269.247v1.863c0,.225-.022.246-.269.246-.135,0-.876-.045-3.053-.045h-3.951v7.654h5.903c1.998,0,2.671-.045,2.806-.045.202,0,.225.022.225.247v1.863c0,.224-.022.247-.225.247-.135,0-.808-.045-2.806-.045h-13.983Z"/><path class="uuid-93c94709-6176-4992-95d8-90c419c9015a" d="m460.287,33.535c-.225,0-.247-.022-.247-.247,0-.157.045-1.481.045-7.99v-4.332c0-4.354-.045-5.724-.045-5.858,0-.247.022-.27.247-.27.157,0,.92.045,3.098.045h7.699c2.177,0,2.962-.045,3.097-.045.225,0,.247.022.247.27,0,.135-.045,1.504-.045,5.185v4.983c0,6.441.045,7.766.045,7.9,0,.225-.022.247-.247.247h-1.997c-.225,0-.247-.022-.247-.247v-1.1h-9.405v1.212c0,.225-.022.247-.246.247h-1.998Zm2.244-11.312h9.405v-5.118h-9.405v5.118Zm9.405,7.632v-5.433h-9.405v5.433h9.405Z"/><path class="uuid-93c94709-6176-4992-95d8-90c419c9015a" d="m487.455,29.111c.34,1.24.924,1.775,1.945,1.775,2.067,0,3.26-1.751,3.381-6.615-.803,1.508-2.092,2.213-3.794,2.213-2.821,0-4.938-2.311-4.938-5.982,0-4.014,2.188-6.494,5.594-6.494,3.673,0,6.032,2.65,6.032,8.901,0,7.419-2.335,10.313-6.324,10.313-2.529,0-4.135-.998-4.889-2.992l2.992-1.119Zm2.311-12.77c-1.8,0-2.627,1.557-2.627,4.087,0,2.359.997,3.722,2.554,3.722,1.338,0,2.286-.827,2.943-2.336-.024-3.623-.876-5.473-2.87-5.473Z"/><path class="uuid-93c94709-6176-4992-95d8-90c419c9015a" d="m502.824,21.949h-3.479v-3.355h3.479v3.355Zm0,9.997h-3.479v-3.356h3.479v3.356Z"/><path class="uuid-93c94709-6176-4992-95d8-90c419c9015a" d="m516.882,23.541c0,6.883-2.092,9.681-5.887,9.681-3.818,0-5.812-2.749-5.812-9.633s2.116-9.582,5.861-9.582,5.838,2.675,5.838,9.534Zm-8.562.024c0,5.473.754,7.248,2.675,7.248,1.971,0,2.749-1.8,2.749-7.248s-.754-7.151-2.7-7.151c-1.897,0-2.724,1.654-2.724,7.151Z"/><path class="uuid-93c94709-6176-4992-95d8-90c419c9015a" d="m530.087,23.541c0,6.883-2.092,9.681-5.887,9.681-3.818,0-5.812-2.749-5.812-9.633s2.116-9.582,5.861-9.582,5.838,2.675,5.838,9.534Zm-8.562.024c0,5.473.754,7.248,2.675,7.248,1.971,0,2.749-1.8,2.749-7.248s-.754-7.151-2.7-7.151c-1.897,0-2.724,1.654-2.724,7.151Z"/><path class="uuid-93c94709-6176-4992-95d8-90c419c9015a" d="m546.381,23.36c-1.192,2.457-2.359,3.356-3.892,3.356-.949,0-1.8-.219-3.624-1.07-1.63-.778-2.335-.997-3.089-.997-.949,0-1.776.56-2.555,1.849l-1.191-.705c.948-2.287,2.262-3.381,3.794-3.381.827,0,1.703.219,3.43.997,1.8.803,2.506,1.07,3.26,1.07,1.118,0,1.872-.535,2.699-1.873l1.168.754Z"/><path class="uuid-93c94709-6176-4992-95d8-90c419c9015a" d="m555.936,30.522h3.479v2.359h-10.021v-2.359h3.647v-13.231c-.924.633-2.091,1.216-3.429,1.654l-.486-2.555c1.604-.462,3.04-1.24,4.329-2.188h2.48v16.32Z"/><path class="uuid-93c94709-6176-4992-95d8-90c419c9015a" d="m564.909,29.111c.34,1.24.924,1.775,1.945,1.775,2.067,0,3.26-1.751,3.381-6.615-.803,1.508-2.092,2.213-3.794,2.213-2.821,0-4.938-2.311-4.938-5.982,0-4.014,2.188-6.494,5.594-6.494,3.673,0,6.032,2.65,6.032,8.901,0,7.419-2.335,10.313-6.324,10.313-2.529,0-4.135-.998-4.889-2.992l2.992-1.119Zm2.311-12.77c-1.8,0-2.627,1.557-2.627,4.087,0,2.359.997,3.722,2.554,3.722,1.338,0,2.286-.827,2.943-2.336-.024-3.623-.876-5.473-2.87-5.473Z"/><path class="uuid-93c94709-6176-4992-95d8-90c419c9015a" d="m580.278,22.884h-3.479v-3.356h3.479v3.356Zm0,9.997h-3.479v-3.356h3.479v3.356Z"/><path class="uuid-93c94709-6176-4992-95d8-90c419c9015a" d="m595.309,23.541c0,6.883-2.092,9.681-5.887,9.681-3.818,0-5.812-2.749-5.812-9.633s2.116-9.582,5.861-9.582,5.838,2.675,5.838,9.534Zm-8.562.024c0,5.473.754,7.248,2.675,7.248,1.971,0,2.749-1.8,2.749-7.248s-.754-7.151-2.7-7.151c-1.897,0-2.724,1.654-2.724,7.151Z"/><path class="uuid-93c94709-6176-4992-95d8-90c419c9015a" d="m608.514,23.541c0,6.883-2.092,9.681-5.887,9.681-3.818,0-5.812-2.749-5.812-9.633s2.116-9.582,5.861-9.582,5.838,2.675,5.838,9.534Zm-8.562.024c0,5.473.754,7.248,2.675,7.248,1.971,0,2.749-1.8,2.749-7.248s-.754-7.151-2.7-7.151c-1.897,0-2.724,1.654-2.724,7.151Z"/><path class="uuid-93c94709-6176-4992-95d8-90c419c9015a" d="m615.733,11.55c3.989,3.6,5.765,7.369,5.765,12.039,0,4.719-1.751,8.465-5.765,12.04l-.754-.681c3.187-3.624,4.306-7.078,4.306-11.359,0-4.256-1.095-7.734-4.306-11.357l.754-.682Z"/><path class="uuid-a663aba4-e5cf-40fd-aef7-17289adf7a0f" d="m35.907,3.814l-4.048-1.247c-1.195-.368-2.477.217-2.982,1.361l-1.924,4.361c-.408.925.019,2.004.948,2.4l4.263,1.816c.405.285.552.817.351,1.27-1.133,4.414-3.126,8.735-5.759,12.987-.197.445-.681.688-1.155.581l-3.157-1.454c-1.515-.698-3.308-.019-3.981,1.507l-1.542,3.493c-.448,1.016-.067,2.206.887,2.773l3.66,2.174c.662.393,1.389.664,2.146.801h0c3.266.588,6.511-1.133,7.856-4.166,3.59-6.633,6.52-12.98,8.359-18.851,1.397-3.151.459-6.849-2.271-8.954h0c-.495-.381-1.054-.671-1.651-.855Z"/><path class="uuid-a663aba4-e5cf-40fd-aef7-17289adf7a0f" d="m.85,22.225C-2.132,12.953,2.985,2.983,12.256,0l1.145,3.562C6.094,5.912,2.061,13.771,4.412,21.079l-3.562,1.145Z"/><path class="uuid-a663aba4-e5cf-40fd-aef7-17289adf7a0f" d="m6.918,20.273c-.923-2.871-.673-5.93.703-8.612,1.377-2.683,3.717-4.669,6.587-5.593l1.145,3.562c-3.962,1.274-6.149,5.535-4.874,9.497l-3.562,1.145Z"/><path class="uuid-a663aba4-e5cf-40fd-aef7-17289adf7a0f" d="m12.697,18.413c-.427-1.327-.311-2.741.326-3.981.637-1.239,1.718-2.157,3.045-2.585l1.145,3.562c-.376.121-.682.381-.863.732-.18.352-.213.752-.091,1.127l-3.562,1.145Z"/><path class="uuid-a663aba4-e5cf-40fd-aef7-17289adf7a0f" d="m6.918,20.273c-.923-2.871-.673-5.93.703-8.612,1.377-2.683,3.717-4.669,6.587-5.593l1.145,3.562c-3.962,1.274-6.149,5.535-4.874,9.497l-3.562,1.145Z"/></g></svg>