<svg xmlns="http://www.w3.org/2000/svg" xmlns:xlink="http://www.w3.org/1999/xlink" x="0px"
	 y="0px" viewBox="0 0 402 21" style="enable-background:new 0 0 402 21;" xml:space="preserve" width="402px" height="21px">
<style type="text/css">
	.st0{fill:#3B241A;}
	.st1{fill:#F4891E;}
</style>
<path class="st0" d="M19.2,2L17,1.4c-0.6-0.2-1.3,0.1-1.6,0.7l-1,2.3c-0.2,0.5,0,1.1,0.5,1.3l2.3,1c0.2,0.1,0.3,0.4,0.2,0.7
	c-0.7,2.5-1.7,4.8-3.1,7c-0.1,0.2-0.4,0.4-0.6,0.3L12,13.8c-0.8-0.4-1.8,0-2.1,0.8c0,0,0,0,0,0l-0.8,1.9c-0.2,0.5,0,1.2,0.5,1.5
	l2,1.2c0.4,0.2,0.7,0.4,1.1,0.4l0,0c1.7,0.3,3.5-0.6,4.2-2.2c1.8-3.2,3.3-6.6,4.4-10.1c0.7-1.7,0.2-3.7-1.2-4.8l0,0
	C19.8,2.3,19.5,2.1,19.2,2z"/>
<path class="st1" d="M50,7.6c0,5.7-2.8,12.6-8.5,12.6c-3.8,0-5.3-2.9-5.3-6.6c0-5.7,2.9-12.3,8.5-12.3C48.6,1.4,50,4.4,50,7.6z
	 M40.2,13.8c0,1.4,0.2,3.2,1.8,3.2c2.8,0,4-6.9,4-9.3c0-1.2-0.2-3.1-1.7-3.1C41.6,4.6,40.2,11.1,40.2,13.8L40.2,13.8z"/>
<path class="st1" d="M51.7,15.8c1.2,0.6,2.6,1,4,1c2.3,0,3.6-1.1,3.6-2.6c0-1.6-1.3-2.4-3.7-2.4h-0.7l0.6-3.1h0.6c1.9,0,4-0.8,4-2.4
	c0-0.9-0.7-1.6-2.2-1.6c-1.3,0-2.6,0.3-3.8,0.9l-0.5-3c1.6-0.8,3.3-1.2,5.1-1.2c3,0,5.7,1.4,5.7,4.3c0,2.2-1.8,3.9-4.1,4.5l0,0
	c1.9,0.4,3.3,2.1,3.2,4c0,3.8-3.9,6-7.9,6c-2.3,0-4.3-0.6-5.2-1.2L51.7,15.8z"/>
<path class="st1" d="M73.9,11.1l-0.6,2.8h-7.3l0.6-2.8H73.9z"/>
<path class="st1" d="M88.6,5.1h-6.4L81.4,8c0.3,0,0.5,0,0.8,0c1.3-0.1,2.6,0.3,3.8,1c1.3,0.9,2.1,2.5,2,4.1c0,4.6-3.8,7.1-8.4,7.1
	c-1.6,0.1-3.3-0.3-4.7-1.1l1-3.2c1.2,0.6,2.4,0.9,3.7,0.9c2,0,4.2-1.1,4.2-3c0-1.6-1-2.8-4.5-2.8c-0.9,0-1.5,0.1-2.2,0.1l2.6-9.4
	h9.8L88.6,5.1z"/>
<path class="st1" d="M103.3,4.7c-0.5,0-1,0-1.5,0C99,4.8,96.5,6.5,95.4,9l0,0c1-0.9,2.4-1.4,3.7-1.4c2.7,0,4.6,2.1,4.6,5.1
	c0.1,4-3.1,7.3-7.2,7.4c0,0-0.1,0-0.1,0c-4.1,0-6-2.8-6-6.4c0-3.7,1.7-7.3,4.6-9.6c2.1-1.6,4.7-2.6,7.4-2.7c0.5,0,1,0,1.5,0
	L103.3,4.7z M99.6,13.2c0.2-1.2-0.7-2.3-1.9-2.5c-0.1,0-0.2,0-0.3,0c-1.1,0.1-2.1,0.7-2.6,1.7c-0.2,0.3-0.3,0.6-0.3,0.9
	c0,0.3-0.1,0.7-0.1,1c0,1.6,0.8,2.8,2.2,2.8C98.6,17.1,99.6,14.9,99.6,13.2z"/>
<path class="st1" d="M106.1,15.8c1.2,0.6,2.6,1,4,1c2.3,0,3.6-1.1,3.6-2.6c0-1.6-1.3-2.4-3.7-2.4h-0.7l0.6-3.1h0.6
	c1.9,0,4-0.8,4-2.4c0-0.9-0.7-1.6-2.2-1.6c-1.3,0-2.6,0.3-3.8,0.9l-0.6-3c1.6-0.8,3.3-1.2,5.1-1.2c3.1,0,5.7,1.4,5.7,4.3
	c0,2.2-1.8,3.9-4.1,4.5l0,0c1.9,0.4,3.3,2.1,3.2,4c0,3.8-3.9,6-7.9,6c-1.8,0.1-3.6-0.3-5.1-1.1L106.1,15.8z"/>
<path class="st1" d="M119.8,19.9l0.5-2.6l3.9-3c3.6-3,6-5.1,6-7.3c0-1.2-1-2.2-2.2-2.2c-0.1,0-0.2,0-0.3,0c-1.4,0-2.7,0.4-3.8,1.1
	L123,2.9c1.7-1,3.7-1.6,5.6-1.6c3.7,0,5.7,2.2,5.7,5c0,3.7-3,6.3-6.2,8.7l-1.8,1.3v0h6.5l-0.6,3.4L119.8,19.9z"/>
<path class="st1" d="M143.5,11.1l-0.5,2.8h-7.3l0.5-2.8H143.5z"/>
<path class="st1" d="M157.8,4.7c-0.5,0-1,0-1.5,0c-2.8,0.1-5.2,1.8-6.4,4.3h0.1c1-0.9,2.4-1.4,3.7-1.4c2.7,0,4.6,2.1,4.6,5.1
	c0.1,4-3.1,7.4-7.1,7.5c0,0-0.1,0-0.1,0c-4.1,0-6.1-2.8-6.1-6.4c0-3.7,1.6-7.3,4.5-9.7c2.1-1.6,4.7-2.6,7.4-2.7c0.5,0,1,0,1.5,0
	L157.8,4.7z M154.1,13.2c0.2-1.2-0.7-2.3-1.9-2.5c-0.1,0-0.2,0-0.3,0c-1.1,0.1-2.1,0.7-2.6,1.7c-0.2,0.3-0.3,0.6-0.3,0.9
	c0,0.3-0.1,0.7-0.1,1c0,1.6,0.8,2.8,2.2,2.8C153,17.1,154.1,14.9,154.1,13.2z"/>
<path class="st1" d="M174,7.6c0,5.7-2.8,12.6-8.5,12.6c-3.8,0-5.3-2.9-5.3-6.6c0-5.7,2.9-12.3,8.5-12.3C172.7,1.4,174,4.4,174,7.6z
	 M164.2,13.8c0,1.4,0.2,3.2,1.8,3.2c2.8,0,4-6.9,4-9.3c0-1.2-0.2-3.1-1.7-3.1C165.6,4.6,164.2,11.1,164.2,13.8L164.2,13.8z"/>
<path class="st1" d="M182.1,5.5L182.1,5.5L178.6,7l-0.1-3.2l5.1-2.2h3.3l-3.4,18.2h-3.9L182.1,5.5z"/>
<path class="st1" d="M197.3,5.5L197.3,5.5L193.6,7l-0.1-3.2l5.1-2.2h3.3l-3.4,18.2h-3.9L197.3,5.5z"/>
<path class="st1" d="M218.1,5.6c-1.5,1.6-2.3,3.8-2.2,6c-0.1,2.2,0.8,4.4,2.2,6l-0.4,0.3c-1.8-1.6-2.8-3.9-2.8-6.3
	c0-2.4,0.9-4.7,2.7-6.3L218.1,5.6z"/>
<path class="st1" d="M333.6,14.7c0.2,0.5,0.7,0.9,1.2,0.9c1.3,0,2-1,2.1-4c-0.4,0.8-1.2,1.4-2.1,1.4c-1.4,0-2.5-1.2-2.5-3
	s1.1-3.2,2.7-3.2c1.8,0,2.9,1.4,2.9,4.4c0,3.8-1.1,5.3-3.1,5.3c-0.9,0.1-1.8-0.4-2.2-1.3L333.6,14.7z M335,7.6c-1,0-1.6,0.9-1.6,2.4
	s0.7,2.1,1.6,2.1c0.8,0,1.6-0.6,1.9-1.4C336.8,8.7,336.2,7.6,335,7.6z"/>
<path class="st1" d="M341.3,11.1h-1.4V9.7h1.4V11.1z M341.3,16.3h-1.4v-1.4h1.4V16.3z"/>
<path class="st1" d="M348.9,11.6c0,3.4-1,4.9-2.9,4.9s-2.9-1.4-2.9-4.9s1-4.8,2.9-4.8S348.9,8.1,348.9,11.6z M344.3,11.6
	c0,2.9,0.6,4,1.7,4s1.8-1.1,1.8-4s-0.6-3.9-1.7-3.9S344.3,8.6,344.3,11.6L344.3,11.6z"/>
<path class="st1" d="M356.1,11.6c0,3.4-1,4.9-2.9,4.9s-2.8-1.4-2.8-4.9s1-4.8,2.9-4.8S356.1,8.1,356.1,11.6z M351.5,11.6
	c0,2.9,0.6,4,1.7,4s1.8-1.1,1.8-4s-0.6-3.9-1.7-3.9S351.5,8.6,351.5,11.6L351.5,11.6z"/>
<path class="st1" d="M365,12.1c-0.6,1.2-1.2,1.6-1.9,1.6c-0.7,0-1.3-0.2-1.9-0.6c-0.5-0.3-1-0.5-1.6-0.5c-0.6,0.1-1.1,0.4-1.4,1
	l-0.5-0.3c0.5-1.1,1.1-1.6,1.9-1.6c0.6,0,1.2,0.2,1.7,0.5c0.5,0.3,1.1,0.5,1.7,0.6c0.6,0,1.2-0.4,1.5-1L365,12.1z"/>
<path class="st1" d="M370.3,15.4h1.8v0.9h-4.7v-0.9h1.9V7.9c-0.6,0.4-1.2,0.7-1.9,0.9l-0.2-0.9c0.8-0.3,1.5-0.6,2.2-1.1h0.9V15.4z"
	/>
<path class="st1" d="M379.8,13.9c0,1.6-1.2,2.6-2.9,2.6s-2.9-1-2.9-2.5c0-1.1,0.6-1.8,2-2.5c-1.3-0.6-1.8-1.4-1.8-2.4
	c0.2-1.5,1.6-2.5,3.1-2.3c1.2,0.2,2.2,1.1,2.3,2.3c0,1-0.5,1.7-1.8,2.2C379.3,12,379.8,12.7,379.8,13.9z M376.7,11.8
	c-1.2,0.6-1.7,1.2-1.7,2c0,0.9,0.7,1.7,1.6,1.8c0.1,0,0.2,0,0.2,0c0.9,0.1,1.8-0.5,1.9-1.4c0-0.1,0-0.2,0-0.3c0-0.8-0.4-1.4-1.8-2
	L376.7,11.8z M377,10.9c1.2-0.5,1.5-1.1,1.5-1.9c0-0.8-0.7-1.5-1.5-1.5c0,0-0.1,0-0.1,0c-0.8-0.1-1.5,0.5-1.6,1.3c0,0.1,0,0.1,0,0.2
	c0,0.7,0.4,1.2,1.5,1.7L377,10.9z"/>
<path class="st1" d="M383,11.1h-1.4V9.7h1.4V11.1z M383,16.3h-1.4v-1.4h1.4V16.3z"/>
<path class="st1" d="M390.6,11.6c0,3.4-1,4.9-2.9,4.9s-2.9-1.4-2.9-4.9s1-4.8,2.9-4.8S390.6,8.1,390.6,11.6z M386,11.6
	c0,2.9,0.6,4,1.7,4s1.8-1.1,1.8-4s-0.6-3.9-1.7-3.9S386,8.6,386,11.6L386,11.6z"/>
<path class="st1" d="M397.8,11.6c0,3.4-1,4.9-2.9,4.9s-2.8-1.4-2.8-4.9s1-4.8,2.9-4.8S397.8,8.1,397.8,11.6z M393.2,11.6
	c0,2.9,0.6,4,1.7,4s1.8-1.1,1.8-4s-0.6-3.9-1.7-3.9S393.2,8.6,393.2,11.6L393.2,11.6z"/>
<path class="st1" d="M399.3,5.3c1.8,1.6,2.7,3.9,2.7,6.3c0,2.4-0.9,4.7-2.7,6.3l-0.4-0.3c1.5-1.6,2.3-3.8,2.2-6
	c0.1-2.2-0.7-4.4-2.2-6L399.3,5.3z"/>
<path class="st0" d="M0.4,11.9C-1.1,6.9,1.6,1.6,6.6,0l0.6,1.9c-3.9,1.3-6.1,5.5-4.8,9.4L0.4,11.9z"/>
<path class="st0" d="M3.7,10.8c-1-3.1,0.7-6.5,3.8-7.6c0,0,0.1,0,0.1,0l0.6,1.9c-2.1,0.7-3.3,2.9-2.6,5c0,0,0,0,0,0.1L3.7,10.8z"/>
<path class="st0" d="M6.8,9.8c-0.5-1.5,0.3-3,1.8-3.5c0,0,0,0,0,0l0.6,1.9C9,8.3,8.8,8.4,8.7,8.6C8.6,8.8,8.6,9,8.7,9.2L6.8,9.8z"/>
<path class="st0" d="M3.7,10.8c-1-3.1,0.7-6.5,3.8-7.6c0,0,0.1,0,0.1,0l0.6,1.9c-2.1,0.7-3.3,2.9-2.6,5c0,0,0,0,0,0.1L3.7,10.8z"/>
<g>
	<path class="st1" d="M228,12.4c-0.1,0.1-0.3,0.3-0.4,0.5c0,0.1-0.1,0.1-0.1,0.1c0,0-0.1,0-0.2-0.1c-0.6-0.5-1-0.9-1.3-1.4v3.8
		l0,1.6c0,0.1,0,0.1-0.1,0.1h-0.6c-0.1,0-0.1,0-0.1-0.1l0-1.6V12c-0.4,0.5-1,0.9-1.6,1.4c-0.1,0.1-0.1,0.1-0.2,0.1
		c0,0-0.1,0-0.1-0.1c-0.1-0.2-0.2-0.4-0.3-0.5c1.5-1,2.7-2.4,3.6-4.3H225l-1.3,0c-0.1,0-0.1,0-0.1-0.1V8c0-0.1,0-0.1,0.1-0.1l1.3,0
		h0.3V7.2c0-0.7,0-1.1-0.1-1.4c0.3,0,0.6,0,0.8,0.1c0.1,0,0.2,0,0.2,0.1c0,0,0,0.1-0.1,0.2c0,0.1-0.1,0.4-0.1,1v0.7h0.8
		c0.1,0,0.2,0,0.2,0c0,0,0.1,0,0.1,0c0.1,0,0.2,0.1,0.3,0.2c0.1,0.1,0.2,0.2,0.2,0.3c0,0.1,0,0.1-0.1,0.2c-0.1,0.1-0.2,0.2-0.2,0.3
		c-0.4,0.7-0.7,1.4-1.1,2C226.7,11.5,227.3,12,228,12.4z M234.8,14.9c0,0.5-0.1,0.8-0.2,1.1c-0.1,0.2-0.2,0.3-0.3,0.4
		c-0.2,0.2-0.6,0.3-1.3,0.3c-0.6,0-1-0.1-1.2-0.2c-0.2-0.2-0.3-0.5-0.3-1v-4.3h-1.2c0,1.6-0.2,2.8-0.7,3.7c-0.4,0.8-1.1,1.4-2.1,1.9
		c-0.1,0-0.1,0.1-0.2,0.1c0,0-0.1-0.1-0.2-0.2c-0.1-0.1-0.3-0.3-0.4-0.4c1.2-0.5,1.9-1.1,2.3-2c0.4-0.7,0.5-1.8,0.5-3.1
		c-0.3,0-0.6,0-0.9,0c0,0-0.1,0-0.2,0c0,0-0.1,0-0.1,0c-0.1,0-0.1,0-0.1-0.1l0-1.2V8l0-1.2c0-0.1,0-0.1,0.1-0.1l1.5,0h2.3l1.5,0
		c0.1,0,0.1,0,0.1,0.1l0,1.2v2l0,1.2c0,0.1,0,0.1-0.1,0.1l-1.5,0v4.1c0,0.3,0,0.5,0.1,0.6c0.1,0.1,0.3,0.1,0.7,0.1
		c0.5,0,0.7-0.1,0.8-0.2c0.1-0.2,0.2-0.7,0.2-1.4c0.2,0.1,0.3,0.2,0.5,0.2C234.8,14.6,234.8,14.7,234.8,14.9
		C234.8,14.8,234.8,14.8,234.8,14.9z M233.1,10.6V7.4h-4v3.2H233.1z"/>
	<path class="st1" d="M245,16.5C245,16.6,244.9,16.6,245,16.5l-0.7,0.1c-0.1,0-0.1,0-0.1-0.1v-0.8h-5.8v0.8c0,0.1,0,0.1-0.1,0.1
		h-0.6c-0.1,0-0.1,0-0.1-0.1l0-4.3V9.8l0-3.1c0-0.1,0-0.1,0.1-0.1l1.7,0h3.7l1.7,0c0.1,0,0.1,0,0.1,0.1l0,2.8v2.7L245,16.5z
		 M244.2,10.7V7.3h-5.8v3.4H244.2z M244.2,15v-3.6h-5.8V15H244.2z"/>
	<path class="st1" d="M252.3,6.1c0.4,0.1,0.7,0.2,0.9,0.3c0.1,0,0.1,0.1,0.1,0.1c0,0,0,0.1-0.1,0.1c-0.1,0.1-0.1,0.2-0.2,0.4
		c-0.1,0.2-0.2,0.5-0.4,0.9c0.9-0.1,1.8-0.2,2.6-0.4c0,0,0.1,0,0.1,0c0,0,0.1,0,0.1,0.1c0,0.3,0.1,0.5,0.1,0.5
		c0,0.1-0.1,0.1-0.2,0.2c-0.9,0.2-1.9,0.3-3,0.4c-0.4,0.7-0.8,1.4-1.3,1.9l0,0c0.5-0.4,1-0.5,1.6-0.5c0.9,0,1.5,0.5,1.6,1.5
		c0.8-0.3,1.4-0.6,1.9-0.9c0.4-0.2,0.7-0.4,1-0.6c0.3,0.3,0.5,0.5,0.6,0.7c0,0.1,0,0.1,0,0.1c0,0.1-0.1,0.1-0.2,0.2
		c-0.2,0-0.4,0.1-0.7,0.2c-0.3,0.1-0.8,0.3-1.4,0.6c-0.5,0.2-0.9,0.4-1.2,0.5v2.1c0,0.1,0,0.1-0.1,0.2c-0.2,0-0.3,0-0.5,0
		c-0.1,0-0.1-0.1-0.1-0.2c0-0.8,0-1.4,0-1.8c-1.4,0.7-2.1,1.4-2.1,2.1c0,0.4,0.2,0.7,0.6,0.8c0.3,0.1,0.9,0.2,1.5,0.2
		c0.8,0,1.8-0.1,3-0.2c0,0,0,0,0,0c0,0,0.1,0,0.1,0.1c0,0.2,0.1,0.5,0.1,0.6c0,0.1,0,0.2-0.1,0.2c-0.9,0.1-2,0.2-3.1,0.2
		c-1.9,0-2.9-0.6-2.9-1.8c0-0.6,0.2-1.1,0.7-1.6c0.4-0.4,1.1-0.9,2.1-1.3c0-0.5-0.1-0.8-0.3-1c-0.2-0.2-0.4-0.2-0.8-0.2
		c-0.6,0-1.3,0.4-2.1,1c-0.2,0.2-0.6,0.6-1.2,1.2c0,0-0.1,0.1-0.1,0.1c0,0-0.1,0-0.1,0c-0.2-0.1-0.3-0.3-0.4-0.5c0,0,0-0.1,0-0.1
		c0,0,0-0.1,0.1-0.1c1.2-1.1,2.2-2.2,2.9-3.5c-0.4,0-0.9,0-1.4,0c-0.3,0-0.6,0-1,0c-0.1,0-0.1,0-0.1-0.1c0-0.2-0.1-0.4-0.1-0.6
		c0.4,0,0.9,0,1.3,0c0.5,0,1,0,1.6,0c0.2-0.6,0.4-1,0.4-1.3C252.3,6.5,252.3,6.3,252.3,6.1C252.3,6.2,252.3,6.1,252.3,6.1z"/>
	<path class="st1" d="M263.4,6.7c0,0.1,0,0.1-0.1,0.2c-0.1,0.1-0.2,0.2-0.2,0.4c-0.4,1-0.8,1.9-1.2,2.6c0.5,0.7,0.9,1.2,1.1,1.7
		c0.1,0.4,0.2,0.7,0.2,1.1c0,1-0.5,1.6-1.6,1.6c-0.1,0-0.2,0-0.2,0c0,0,0-0.1-0.1-0.2c0-0.2-0.1-0.3-0.2-0.4c0.1,0,0.2,0,0.2,0
		c0.8,0,1.2-0.3,1.2-1c0-0.4-0.1-0.8-0.3-1.2c-0.2-0.4-0.5-0.9-1-1.5c0.5-1,1-2,1.3-3.1h-1.7v7.4l0,2.6c0,0.1,0,0.1-0.1,0.1h-0.6
		c-0.1,0-0.1,0-0.1-0.1l0-2.6V8.9l0-2.6c0-0.1,0-0.1,0.1-0.1l0.9,0h1.5c0.2,0,0.2,0,0.3,0c0.1,0,0.1,0,0.1,0c0.1,0,0.2,0.1,0.3,0.2
		C263.4,6.6,263.4,6.7,263.4,6.7z M265.2,13.8c0,0,0,0.1-0.1,0.2c0,0-0.1,0.1-0.1,0.2c-0.1,0.1-0.1,0.2-0.1,0.2
		c-0.4,0.7-0.9,1.3-1.4,1.8c-0.1,0.1-0.2,0.2-0.2,0.2c0,0-0.1,0-0.2-0.1c-0.1-0.1-0.3-0.2-0.4-0.2c0.6-0.5,1.1-1.1,1.5-1.7
		c0.2-0.3,0.3-0.6,0.3-0.8c0.2,0.1,0.4,0.1,0.6,0.3C265.2,13.7,265.2,13.7,265.2,13.8z M270.8,9.7c-0.1,0.1-0.2,0.2-0.4,0.4
		c-0.1,0.1-0.1,0.2-0.2,0.2c0,0-0.1,0-0.2-0.1c-1.4-1-2.5-2.1-3.3-3.3c-0.8,1.3-2,2.4-3.3,3.4c-0.1,0.1-0.2,0.1-0.2,0.1
		c0,0-0.1-0.1-0.2-0.2c-0.1-0.2-0.2-0.3-0.4-0.4c1.5-0.9,2.6-2,3.5-3.3c0.1-0.2,0.2-0.4,0.3-0.7c0.3,0,0.5,0.1,0.7,0.1
		c0.1,0,0.2,0.1,0.2,0.1c0,0,0,0.1-0.1,0.1c0,0-0.1,0.1-0.1,0.1C268,7.8,269.2,8.9,270.8,9.7z M270.4,12.5c0,0.1,0,0.1-0.1,0.1
		l-1.7,0h-1.5v1.7l0,1.6c0,0.5-0.1,0.8-0.3,0.9c-0.2,0.1-0.7,0.2-1.4,0.2c0,0-0.1,0-0.1,0c-0.1,0-0.1,0-0.1-0.1c0,0,0-0.1-0.1-0.2
		c0-0.2-0.1-0.4-0.2-0.5c0.3,0,0.6,0,1,0c0.2,0,0.4,0,0.5-0.1c0.1-0.1,0.1-0.2,0.1-0.4v-3.2h-1l-1.7,0c-0.1,0-0.1,0-0.1-0.1v-0.5
		c0-0.1,0-0.1,0.1-0.1l1.7,0h1v-1.5H266l-1.3,0c-0.1,0-0.1,0-0.1-0.1V9.8c0-0.1,0-0.1,0.1-0.1l1.3,0h1.6l1.3,0c0.1,0,0.1,0,0.1,0.1
		v0.5c0,0.1,0,0.1-0.1,0.1l-1.3,0h-0.5v1.5h1.5l1.7,0c0.1,0,0.1,0,0.1,0.1V12.5z M270.6,15.7c-0.2,0.1-0.3,0.2-0.4,0.3
		c-0.1,0.1-0.2,0.1-0.2,0.1c0,0-0.1,0-0.2-0.1c-0.6-0.7-1.2-1.5-1.6-2.3c0,0,0-0.1,0-0.1c0,0,0-0.1,0.1-0.1l0.3-0.2c0,0,0.1,0,0.1,0
		c0,0,0.1,0,0.1,0.1C269.3,14.2,269.9,15,270.6,15.7z"/>
	<path class="st1" d="M277.5,6.2c0.4,0.2,0.7,0.4,0.8,0.6c0.1,0.1,0.1,0.1,0.1,0.2c0,0.1,0,0.1-0.1,0.2c-0.1,0.1-0.3,0.2-0.5,0.3
		c-1.7,1.6-3,2.8-3.7,3.6c-0.1,0.1-0.2,0.2-0.2,0.3c0,0.1,0.1,0.2,0.2,0.2c1.9,1.4,3.5,2.8,4.8,4.2c0.1,0.1,0.1,0.1,0.1,0.1
		c0,0,0,0.1-0.1,0.1c-0.1,0.1-0.3,0.3-0.5,0.5c-0.1,0-0.1,0.1-0.1,0.1c0,0-0.1,0-0.1-0.1c-1.3-1.5-2.9-2.9-4.7-4.3
		c-0.3-0.3-0.5-0.5-0.5-0.8c0-0.2,0.1-0.5,0.4-0.8c0.4-0.4,1-1.1,1.8-1.9c1-1,1.5-1.6,1.7-1.7C277.2,6.8,277.4,6.5,277.5,6.2z"/>
	<path class="st1" d="M292.3,12.5c0,0.1,0,0.1-0.1,0.1l-1.6,0h-3.4v3l0,1.3c0,0.1,0,0.1-0.1,0.1h-0.7c-0.1,0-0.1,0-0.1-0.1l0-1.3v-3
		H283l-1.6,0c-0.1,0-0.1,0-0.1-0.1v-0.6c0-0.1,0-0.1,0.1-0.1l1.6,0h3.3V7.3h-2.6l-1.7,0c-0.1,0-0.1,0-0.1-0.1V6.6
		c0-0.1,0-0.1,0.1-0.1l1.7,0h6.2l1.7,0c0.1,0,0.1,0,0.1,0.1v0.6c0,0.1,0,0.1-0.1,0.1l-1.7,0h-2.8v4.6h3.4l1.6,0c0.1,0,0.1,0,0.1,0.1
		V12.5z M284.8,10.8C284.9,10.8,284.9,10.8,284.8,10.8c0,0.1,0,0.1-0.1,0.2l-0.4,0.2c-0.1,0-0.1,0-0.2,0s0,0-0.1-0.1
		c-0.4-1-0.8-1.9-1.4-2.7c0,0,0,0,0-0.1c0,0,0-0.1,0.1-0.1l0.3-0.2c0,0,0.1,0,0.1,0c0,0,0,0,0.1,0.1C284,8.9,284.5,9.8,284.8,10.8z
		 M290.9,8.3c0,0,0,0.1-0.1,0.1c-0.1,0.1-0.2,0.2-0.2,0.3c-0.4,0.8-0.8,1.6-1.4,2.3c-0.1,0.1-0.1,0.2-0.2,0.2c0,0-0.1,0-0.2-0.1
		c-0.1-0.1-0.3-0.2-0.5-0.2c0.6-0.8,1.1-1.6,1.5-2.4c0.1-0.2,0.1-0.4,0.2-0.6c0.3,0.1,0.5,0.2,0.7,0.3
		C290.9,8.2,290.9,8.2,290.9,8.3z"/>
	<path class="st1" d="M302.7,16.5C302.7,16.6,302.7,16.6,302.7,16.5l-0.7,0.1c-0.1,0-0.1,0-0.1-0.1v-0.8h-5.8v0.8
		c0,0.1,0,0.1-0.1,0.1h-0.6c-0.1,0-0.1,0-0.1-0.1l0-4.3V9.8l0-3.1c0-0.1,0-0.1,0.1-0.1l1.7,0h3.7l1.7,0c0.1,0,0.1,0,0.1,0.1l0,2.8
		v2.7L302.7,16.5z M301.9,10.7V7.3h-5.8v3.4H301.9z M301.9,15v-3.6h-5.8V15H301.9z"/>
	<path class="st1" d="M316.8,16.3C316.8,16.3,316.8,16.4,316.8,16.3l-1.7,0.1h-7.5l-1.6,0c-0.1,0-0.1,0-0.1-0.1v-0.6
		c0-0.1,0-0.1,0.1-0.1l1.6,0h3.2v-4.7h-2.1l-1.8,0c-0.1,0-0.1,0-0.1-0.1v-0.6c0-0.1,0-0.1,0.1-0.1l1.8,0h2.1V7.7
		c0-0.8,0-1.4-0.1-1.7c0.3,0,0.6,0,0.9,0.1c0.1,0,0.2,0.1,0.2,0.1c0,0,0,0.1-0.1,0.2c-0.1,0.1-0.1,0.6-0.1,1.3v2.4h2.4l1.8,0
		c0.1,0,0.1,0,0.1,0.1v0.6c0,0.1,0,0.1-0.1,0.1l-1.8,0h-2.4v4.7h3.5l1.6,0c0.1,0,0.1,0,0.1,0.1V16.3z"/>
	<path class="st1" d="M327.2,16.5C327.2,16.6,327.2,16.6,327.2,16.5l-0.7,0.1c-0.1,0-0.1,0-0.1-0.1v-0.8h-5.8v0.8
		c0,0.1,0,0.1-0.1,0.1H320c-0.1,0-0.1,0-0.1-0.1l0-4.3V9.8l0-3.1c0-0.1,0-0.1,0.1-0.1l1.7,0h3.7l1.7,0c0.1,0,0.1,0,0.1,0.1l0,2.8
		v2.7L327.2,16.5z M326.4,10.7V7.3h-5.8v3.4H326.4z M326.4,15v-3.6h-5.8V15H326.4z"/>
</g>
</svg>
