<?xml version="1.0" encoding="utf-8"?>
<!-- Generator: Adobe Illustrator 27.7.0, SVG Export Plug-In . SVG Version: 6.00 Build 0)  -->
<svg version="1.1" id="uuid-fde58dd9-7acb-43b9-a71c-29a90855b518"
	 xmlns="http://www.w3.org/2000/svg" xmlns:xlink="http://www.w3.org/1999/xlink" x="0px" y="0px" viewBox="0 0 621.5 55"
	 style="enable-background:new 0 0 621.5 55;" xml:space="preserve">
<style type="text/css">
	.st0{fill:#3B241A;}
	.st1{font-family:'HiraKakuStdN-W8-83pv-RKSJ-H';}
	.st2{font-size:32.5205px;}
</style>
<g id="uuid-fbffd6a2-a2c7-4393-9dcc-0e05c4d51cc2">
	<path d="M342.3,12.2c-3.2,3.6-4.3,7.1-4.3,11.4s1.1,7.7,4.3,11.4l-0.7,0.7c-4-3.6-5.8-7.3-5.8-12s1.8-8.4,5.8-12
		C341.5,11.6,342.3,12.2,342.3,12.2z"/>
	<path d="M349.7,26.4h-2.8c-0.1,0-0.2-0.1-0.2-0.2v-1.8c0-0.1,0.1-0.2,0.2-0.2h8.4v-7.5h-7.4c-0.1,0-0.2-0.1-0.2-0.3v-1.8
		c0-0.2,0-0.3,0.2-0.3h17.6c0.1,0,0.2,0.1,0.2,0.3v1.8c0,0.2,0,0.3-0.2,0.3h-7.7v7.5h8.6c0.1,0,0.2,0.1,0.2,0.2v1.8
		c0,0.1-0.1,0.2-0.2,0.2h-8.6v7.2c0,0.1-0.1,0.2-0.2,0.2h-2c-0.1,0-0.2-0.1-0.2-0.2v-7.2L349.7,26.4L349.7,26.4z M350.6,17.5
		c0.2-0.1,0.3-0.1,0.4,0.1c0.9,1.3,1.8,3.1,2.4,4.7c0.1,0.1,0,0.3-0.2,0.4l-1.5,0.7c-0.2,0.1-0.3,0-0.4-0.1
		c-0.6-1.6-1.3-3.1-2.3-4.7c-0.1-0.1,0-0.3,0.2-0.4L350.6,17.5L350.6,17.5z M361.8,18.7c0.2-0.4,0.3-0.8,0.4-1.3
		c0.7,0.2,1.5,0.6,2,0.9c0.2,0.1,0.3,0.2,0.3,0.3s0,0.2-0.2,0.3c-0.2,0.1-0.4,0.4-0.5,0.7c-0.6,1.2-1.3,2.3-2.1,3.4
		c-0.2,0.3-0.3,0.4-0.5,0.4c-0.1,0-0.3-0.1-0.5-0.3c-0.5-0.3-0.8-0.5-1.3-0.7C360.4,21.3,361.1,20,361.8,18.7L361.8,18.7L361.8,18.7
		z"/>
	<path d="M371.1,33.5c-0.1,0-0.2-0.1-0.2-0.2V15.1c0-0.2,0-0.3,0.2-0.3H385c0.1,0,0.2,0.1,0.2,0.3v18.1c0,0.1-0.1,0.2-0.2,0.2h-2
		c-0.1,0-0.2-0.1-0.2-0.2v-1.1h-9.4v1.2c0,0.1-0.1,0.2-0.2,0.2L371.1,33.5L371.1,33.5z M373.4,22.2h9.4v-5.1h-9.4V22.2z M382.8,29.9
		v-5.4h-9.4v5.4H382.8z"/>
	<path d="M392.5,32.8h-2.8c-0.1,0-0.2-0.1-0.2-0.2v-1.9c0-0.1,0.1-0.2,0.2-0.2h8.3v-7.7h-6.7c-0.1,0-0.2-0.1-0.2-0.2v-1.9
		c0-0.1,0.1-0.2,0.2-0.2h6.7V17c0-1.5,0-2.5-0.2-3.5c0.8,0,1.8,0.1,2.6,0.2c0.2,0,0.4,0.1,0.4,0.3s-0.1,0.3-0.1,0.5
		c-0.1,0.3-0.1,0.8-0.1,2.6v3.5h7.1c0.2,0,0.3,0,0.3,0.2v1.9c0,0.1-0.1,0.2-0.3,0.2h-7.1v7.7h8.7c0.1,0,0.2,0.1,0.2,0.2v1.9
		c0,0.1-0.1,0.2-0.2,0.2h-2.8L392.5,32.8L392.5,32.8z"/>
	<path d="M414.3,33.5c-0.1,0-0.2-0.1-0.2-0.2V15.1c0-0.2,0-0.3,0.2-0.3h13.9c0.1,0,0.2,0.1,0.2,0.3v18.1c0,0.1-0.1,0.2-0.2,0.2h-2
		c-0.1,0-0.2-0.1-0.2-0.2v-1.1h-9.4v1.2c0,0.1-0.1,0.2-0.2,0.2L414.3,33.5L414.3,33.5z M416.5,22.2h9.4v-5.1h-9.4V22.2z M425.9,29.9
		v-5.4h-9.4v5.4H425.9z"/>
	<path d="M441.5,29.1c0.3,1.2,0.9,1.8,1.9,1.8c2.1,0,3.3-1.8,3.4-6.6c-0.8,1.5-2.1,2.2-3.8,2.2c-2.8,0-4.9-2.3-4.9-6
		c0-4,2.2-6.5,5.6-6.5c3.7,0,6,2.6,6,8.9c0,7.4-2.3,10.3-6.3,10.3c-2.5,0-4.1-1-4.9-3L441.5,29.1L441.5,29.1L441.5,29.1z
		 M443.8,16.3c-1.8,0-2.6,1.6-2.6,4.1s1,3.7,2.6,3.7c1.3,0,2.3-0.8,2.9-2.3C446.6,18.2,445.8,16.3,443.8,16.3L443.8,16.3z"/>
	<path d="M456.8,21.9h-3.5v-3.4h3.5V21.9z M456.8,31.9h-3.5v-3.4h3.5V31.9z"/>
	<path d="M470.9,23.5c0,6.9-2.1,9.7-5.9,9.7s-5.8-2.7-5.8-9.6s2.1-9.6,5.9-9.6S470.9,16.7,470.9,23.5z M462.3,23.6
		c0,5.5,0.8,7.2,2.7,7.2c2,0,2.7-1.8,2.7-7.2s-0.8-7.2-2.7-7.2S462.3,18.1,462.3,23.6L462.3,23.6L462.3,23.6z"/>
	<path d="M484.1,23.5c0,6.9-2.1,9.7-5.9,9.7s-5.8-2.7-5.8-9.6s2.1-9.6,5.9-9.6S484.1,16.7,484.1,23.5z M475.5,23.6
		c0,5.5,0.8,7.2,2.7,7.2c2,0,2.7-1.8,2.7-7.2s-0.8-7.2-2.7-7.2C476.4,16.4,475.5,18.1,475.5,23.6z"/>
	<path d="M500.4,23.4c-1.2,2.5-2.4,3.4-3.9,3.4c-0.9,0-1.8-0.2-3.6-1.1c-1.6-0.8-2.3-1-3.1-1c-0.9,0-1.8,0.6-2.6,1.8l-1.2-0.7
		c0.9-2.3,2.3-3.4,3.8-3.4c0.8,0,1.7,0.2,3.4,1c1.8,0.8,2.5,1.1,3.3,1.1c1.1,0,1.9-0.5,2.7-1.9L500.4,23.4L500.4,23.4L500.4,23.4z"
		/>
	<path d="M509.9,30.5h3.5v2.4h-10v-2.4h3.6V17.3c-0.9,0.6-2.1,1.2-3.4,1.7l-0.5-2.6c1.6-0.5,3-1.2,4.3-2.2h2.5L509.9,30.5
		L509.9,30.5L509.9,30.5z"/>
	<path d="M518.9,29.1c0.3,1.2,0.9,1.8,1.9,1.8c2.1,0,3.3-1.8,3.4-6.6c-0.8,1.5-2.1,2.2-3.8,2.2c-2.8,0-4.9-2.3-4.9-6
		c0-4,2.2-6.5,5.6-6.5c3.7,0,6,2.6,6,8.9c0,7.4-2.3,10.3-6.3,10.3c-2.5,0-4.1-1-4.9-3L518.9,29.1L518.9,29.1z M521.2,16.3
		c-1.8,0-2.6,1.6-2.6,4.1s1,3.7,2.6,3.7c1.3,0,2.3-0.8,2.9-2.3C524.1,18.2,523.2,16.3,521.2,16.3z"/>
	<path d="M534.3,22.9h-3.5v-3.4h3.5V22.9z M534.3,32.9h-3.5v-3.4h3.5V32.9z"/>
	<path d="M549.3,23.5c0,6.9-2.1,9.7-5.9,9.7s-5.8-2.7-5.8-9.6s2.1-9.6,5.9-9.6S549.3,16.7,549.3,23.5z M540.7,23.6
		c0,5.5,0.8,7.2,2.7,7.2c2,0,2.7-1.8,2.7-7.2s-0.8-7.2-2.7-7.2C541.6,16.4,540.7,18.1,540.7,23.6z"/>
	<path d="M562.5,23.5c0,6.9-2.1,9.7-5.9,9.7s-5.8-2.7-5.8-9.6s2.1-9.6,5.9-9.6S562.5,16.7,562.5,23.5z M554,23.6
		c0,5.5,0.8,7.2,2.7,7.2c2,0,2.7-1.8,2.7-7.2s-0.8-7.2-2.7-7.2S554,18.1,554,23.6z"/>
	<path d="M569.7,11.6c4,3.6,5.8,7.4,5.8,12s-1.8,8.5-5.8,12l-0.8-0.7c3.2-3.6,4.3-7.1,4.3-11.4s-1.1-7.7-4.3-11.4
		C568.9,12.1,569.7,11.6,569.7,11.6z"/>
	<path class="st0" d="M35.9,3.8l-4-1.2c-1.2-0.4-2.5,0.2-3,1.4L27,8.3c-0.4,0.9,0,2,0.9,2.4l4.3,1.8c0.4,0.3,0.6,0.8,0.4,1.3
		c-1.1,4.4-3.1,8.7-5.8,13c-0.2,0.4-0.7,0.7-1.2,0.6l-3.2-1.5c-1.5-0.7-3.3,0-4,1.5l-1.5,3.5c-0.4,1-0.1,2.2,0.9,2.8l3.7,2.2
		c0.7,0.4,1.4,0.7,2.1,0.8l0,0c3.3,0.6,6.5-1.1,7.9-4.2c3.6-6.6,6.5-13,8.4-18.9c1.4-3.2,0.5-6.8-2.3-9l0,0
		C37.1,4.3,36.5,4,35.9,3.8L35.9,3.8z"/>
	<path class="st0" d="M0.9,22.2C-2.1,13,3,3,12.3,0l1.1,3.6C6.1,6,2.1,13.8,4.4,21.1L0.9,22.2L0.9,22.2z"/>
	<path class="st0" d="M6.9,20.3c-0.9-2.9-0.7-5.9,0.7-8.6s3.7-4.7,6.6-5.6l1.1,3.6c-4,1.3-6.1,5.5-4.9,9.5L6.9,20.3L6.9,20.3z"/>
	<path class="st0" d="M12.7,18.4c-0.4-1.3-0.3-2.7,0.3-4c0.6-1.2,1.7-2.2,3-2.6l1.1,3.6c-0.4,0.1-0.7,0.4-0.9,0.7
		c-0.2,0.4-0.2,0.8-0.1,1.1C16.3,17.3,12.7,18.4,12.7,18.4z"/>
	<path class="st0" d="M6.9,20.3c-0.9-2.9-0.7-5.9,0.7-8.6s3.7-4.7,6.6-5.6l1.1,3.6c-4,1.3-6.1,5.5-4.9,9.5L6.9,20.3L6.9,20.3z"/>
	<text transform="matrix(0.9848 0 0 1 49.0605 36.8193)" class="st1 st2">03-5946-9417</text>
</g>
</svg>
