<?xml version="1.0" encoding="utf-8"?>
<!-- Generator: Adobe Illustrator 27.2.0, SVG Export Plug-In . SVG Version: 6.00 Build 0)  -->
<svg version="1.1" id="uuid-fde58dd9-7acb-43b9-a71c-29a90855b518"
	 xmlns="http://www.w3.org/2000/svg" xmlns:xlink="http://www.w3.org/1999/xlink" x="0px" y="0px" viewBox="0 0 604.1 66.5"
	 style="enable-background:new 0 0 604.1 66.5;" xml:space="preserve">
<style type="text/css">
	.st0{fill:#3B241A;}
	.st1{fill:none;}
	.st2{fill:#F4891E;}
</style>
<g id="uuid-fbffd6a2-a2c7-4393-9dcc-0e05c4d51cc2">
	<path class="st0" d="M35.9,30.8l-4-1.2c-1.2-0.4-2.5,0.2-3,1.4L27,35.3c-0.4,0.9,0,2,0.9,2.4l4.3,1.8c0.4,0.3,0.6,0.8,0.4,1.3
		c-1.1,4.4-3.1,8.7-5.8,13c-0.2,0.4-0.7,0.7-1.2,0.6l-3.2-1.5c-1.5-0.7-3.3,0-4,1.5l-1.5,3.5c-0.4,1-0.1,2.2,0.9,2.8l3.7,2.2
		c0.7,0.4,1.4,0.7,2.1,0.8l0,0c3.3,0.6,6.5-1.1,7.9-4.2c3.6-6.6,6.5-13,8.4-18.9c1.4-3.2,0.5-6.8-2.3-9l0,0
		C37.1,31.3,36.5,31,35.9,30.8L35.9,30.8z"/>
	<path class="st0" d="M0.9,49.2C-2.1,40,3,30,12.3,27l1.1,3.6C6.1,33,2.1,40.8,4.4,48.1L0.9,49.2L0.9,49.2z"/>
	<path class="st0" d="M6.9,47.3c-0.9-2.9-0.7-5.9,0.7-8.6C9,36,11.3,34,14.2,33.1l1.1,3.6c-4,1.3-6.1,5.5-4.9,9.5L6.9,47.3L6.9,47.3
		z"/>
	<path class="st0" d="M12.7,45.4c-0.4-1.3-0.3-2.7,0.3-4c0.6-1.2,1.7-2.2,3-2.6l1.1,3.6c-0.4,0.1-0.7,0.4-0.9,0.7
		c-0.2,0.4-0.2,0.8-0.1,1.1C16.3,44.3,12.7,45.4,12.7,45.4z"/>
	<path class="st0" d="M6.9,47.3c-0.9-2.9-0.7-5.9,0.7-8.6C9,36,11.3,34,14.2,33.1l1.1,3.6c-4,1.3-6.1,5.5-4.9,9.5L6.9,47.3L6.9,47.3
		z"/>
	<polygon class="st1" points="371.1,66.5 49.1,66.5 55.7,28.8 377.7,28.8 	"/>
</g>
<g>
	<g>
		<path class="st2" d="M367.5,42.7c-3.2,3.7-4.4,7.2-4.4,11.5s1.1,7.8,4.4,11.5l-0.7,0.7c-4.1-3.6-5.8-7.4-5.8-12.1
			s1.8-8.5,5.8-12.1L367.5,42.7L367.5,42.7z"/>
		<path class="st2" d="M375,57c-2,0-2.7,0-2.8,0c-0.2,0-0.2,0-0.2-0.2V55c0-0.2,0-0.2,0.2-0.2c0.1,0,0.8,0,2.8,0h5.7v-7.6h-4.5
			c-2.1,0-2.9,0-3,0c-0.2,0-0.2,0-0.2-0.3v-1.8c0-0.2,0-0.3,0.2-0.3c0.1,0,0.9,0,3,0H388c2.1,0,2.9,0,3,0c0.2,0,0.2,0,0.2,0.3V47
			c0,0.2,0,0.3-0.2,0.3c-0.1,0-0.9,0-3,0h-4.8v7.6h5.9c2,0,2.7,0,2.9,0c0.2,0,0.2,0,0.2,0.2V57c0,0.2,0,0.2-0.2,0.2s-0.8,0-2.9,0
			h-5.9v4.9c0,1.5,0,2.2,0,2.4c0,0.2,0,0.2-0.2,0.2h-2.1c-0.2,0-0.2,0-0.2-0.2c0-0.2,0-0.9,0-2.4V57H375L375,57z M375.9,48
			c0.2-0.1,0.3-0.1,0.4,0.1c1,1.4,1.9,3.1,2.5,4.7c0.1,0.2,0.1,0.2-0.2,0.4l-1.5,0.7c-0.3,0.1-0.3,0.1-0.4-0.1
			c-0.6-1.6-1.3-3.1-2.3-4.7c-0.1-0.2-0.1-0.2,0.2-0.4L375.9,48L375.9,48z M387.2,49.2c0.2-0.4,0.3-0.8,0.4-1.3
			c0.7,0.2,1.5,0.6,2.1,0.9c0.2,0.1,0.3,0.2,0.3,0.3s0,0.2-0.2,0.3s-0.4,0.4-0.5,0.7c-0.6,1.2-1.3,2.3-2.1,3.5
			c-0.2,0.3-0.3,0.5-0.5,0.5c-0.1,0-0.3-0.1-0.5-0.3c-0.5-0.3-0.8-0.5-1.3-0.7C385.8,51.9,386.6,50.6,387.2,49.2L387.2,49.2z"/>
		<path class="st2" d="M396.7,64.2c-0.2,0-0.2,0-0.2-0.2c0-0.2,0-1.5,0-8.1v-4.4c0-4.4,0-5.8,0-5.9c0-0.2,0-0.3,0.2-0.3s0.9,0,3.1,0
			h7.8c2.2,0,3,0,3.1,0c0.2,0,0.2,0,0.2,0.3c0,0.1,0,1.5,0,5.2v5c0,6.5,0,7.8,0,8s0,0.2-0.2,0.2h-2c-0.2,0-0.2,0-0.2-0.2v-1.1H399
			V64c0,0.2,0,0.2-0.2,0.2H396.7L396.7,64.2z M398.9,52.8h9.5v-5.2h-9.5V52.8z M408.4,60.5V55h-9.5v5.5H408.4z"/>
		<path class="st2" d="M418.2,63.4c-2,0-2.7,0-2.8,0c-0.2,0-0.2,0-0.2-0.2v-1.9c0-0.2,0-0.2,0.2-0.2c0.1,0,0.8,0,2.8,0h5.6v-7.7
			h-3.6c-2.2,0-3,0-3.1,0c-0.2,0-0.2,0-0.2-0.2v-1.9c0-0.2,0-0.2,0.2-0.2c0.1,0,0.9,0,3.1,0h3.6v-3.5c0-1.5,0-2.5-0.2-3.6
			c0.8,0,1.9,0.1,2.6,0.2c0.2,0,0.4,0.1,0.4,0.3s-0.1,0.3-0.1,0.5c-0.1,0.3-0.1,0.8-0.1,2.6v3.6h4c2.2,0,3,0,3.1,0
			c0.2,0,0.3,0,0.3,0.2v1.9c0,0.2,0,0.2-0.3,0.2c-0.1,0-0.9,0-3.1,0h-4v7.7h6c2,0,2.7,0,2.8,0c0.2,0,0.2,0,0.2,0.2v1.9
			c0,0.2,0,0.2-0.2,0.2c-0.1,0-0.8,0-2.8,0L418.2,63.4L418.2,63.4z"/>
		<path class="st2" d="M440.3,64.2c-0.2,0-0.2,0-0.2-0.2c0-0.2,0-1.5,0-8.1v-4.4c0-4.4,0-5.8,0-5.9c0-0.2,0-0.3,0.2-0.3s0.9,0,3.1,0
			h7.8c2.2,0,3,0,3.1,0c0.2,0,0.2,0,0.2,0.3c0,0.1,0,1.5,0,5.2v5c0,6.5,0,7.8,0,8s0,0.2-0.2,0.2h-2c-0.2,0-0.2,0-0.2-0.2v-1.1h-9.5
			V64c0,0.2,0,0.2-0.2,0.2H440.3L440.3,64.2z M442.5,52.8h9.5v-5.2h-9.5V52.8z M452,60.5V55h-9.5v5.5H452z"/>
		<path class="st2" d="M467.7,59.7c0.3,1.2,0.9,1.8,2,1.8c2.1,0,3.3-1.8,3.4-6.7c-0.8,1.5-2.1,2.2-3.8,2.2c-2.9,0-5-2.3-5-6
			c0-4,2.2-6.6,5.6-6.6c3.7,0,6.1,2.7,6.1,9c0,7.5-2.4,10.4-6.4,10.4c-2.5,0-4.2-1-4.9-3L467.7,59.7L467.7,59.7z M470,46.9
			c-1.8,0-2.6,1.6-2.6,4.1c0,2.4,1,3.8,2.6,3.8c1.4,0,2.3-0.8,3-2.4C472.9,48.7,472,46.9,470,46.9z"/>
		<path class="st2" d="M483.2,52.5h-3.5v-3.4h3.5V52.5z M483.2,62.6h-3.5v-3.4h3.5V62.6z"/>
		<path class="st2" d="M497.4,54.1c0,6.9-2.1,9.8-5.9,9.8s-5.9-2.8-5.9-9.7s2.1-9.7,5.9-9.7S497.4,47.2,497.4,54.1L497.4,54.1z
			 M488.8,54.1c0,5.5,0.8,7.3,2.7,7.3s2.8-1.8,2.8-7.3s-0.8-7.2-2.7-7.2S488.8,48.6,488.8,54.1L488.8,54.1z"/>
		<path class="st2" d="M510.7,54.1c0,6.9-2.1,9.8-5.9,9.8s-5.9-2.8-5.9-9.7s2.1-9.7,5.9-9.7S510.7,47.2,510.7,54.1L510.7,54.1z
			 M502.1,54.1c0,5.5,0.8,7.3,2.7,7.3s2.8-1.8,2.8-7.3s-0.8-7.2-2.7-7.2S502.1,48.6,502.1,54.1L502.1,54.1z"/>
		<path class="st2" d="M527.2,53.9c-1.2,2.5-2.4,3.4-3.9,3.4c-1,0-1.8-0.2-3.7-1.1c-1.7-0.8-2.4-1-3.1-1c-1,0-1.8,0.6-2.6,1.9
			l-1.2-0.7c1-2.3,2.3-3.4,3.8-3.4c0.8,0,1.7,0.2,3.5,1c1.8,0.8,2.5,1.1,3.3,1.1c1.1,0,1.9-0.5,2.7-1.9L527.2,53.9L527.2,53.9z"/>
		<path class="st2" d="M536.8,61.2h3.5v2.4h-10.1v-2.4h3.7V47.8c-0.9,0.6-2.1,1.2-3.5,1.7l-0.5-2.6c1.6-0.5,3.1-1.2,4.4-2.2h2.5
			L536.8,61.2L536.8,61.2z"/>
		<path class="st2" d="M554.5,58.7c0,3.1-2.4,5.2-6,5.2s-6.1-1.9-6.1-5.1c0-2.2,1.1-3.4,3.6-4.7c-2.3-1.2-3.2-2.7-3.2-4.8
			c0-2.7,2.2-4.8,5.6-4.8s5.7,2,5.7,4.7c0,2-1.1,3.4-3.3,4.3C553.5,54.8,554.5,56.3,554.5,58.7L554.5,58.7z M547.9,55.1
			c-1.7,1-2.6,2-2.6,3.5c0,1.8,1.2,3,3.1,3s3.1-1.1,3.1-2.9c0-1.5-0.7-2.3-3-3.4C548.6,55.4,547.9,55.1,547.9,55.1z M548.9,52.6
			c1.7-0.9,2.2-1.8,2.2-3.3c0-1.6-1.2-2.6-2.8-2.6s-2.7,1-2.7,2.5c0,1.3,0.6,2.1,2.5,3C548.2,52.3,548.9,52.6,548.9,52.6z"/>
		<path class="st2" d="M560.2,53.5h-3.5v-3.4h3.5V53.5z M560.2,63.5h-3.5v-3.4h3.5V63.5z"/>
		<path class="st2" d="M575.4,54.1c0,6.9-2.1,9.8-5.9,9.8s-5.9-2.8-5.9-9.7s2.1-9.7,5.9-9.7S575.4,47.2,575.4,54.1z M566.7,54.1
			c0,5.5,0.8,7.3,2.7,7.3s2.8-1.8,2.8-7.3s-0.8-7.2-2.7-7.2S566.7,48.6,566.7,54.1L566.7,54.1z"/>
		<path class="st2" d="M588.7,54.1c0,6.9-2.1,9.8-5.9,9.8s-5.9-2.8-5.9-9.7s2.1-9.7,5.9-9.7S588.7,47.2,588.7,54.1z M580.1,54.1
			c0,5.5,0.8,7.3,2.7,7.3s2.8-1.8,2.8-7.3s-0.8-7.2-2.7-7.2S580.1,48.6,580.1,54.1L580.1,54.1z"/>
		<path class="st2" d="M596,42c4,3.6,5.8,7.4,5.8,12.1c0,4.7-1.8,8.5-5.8,12.1l-0.8-0.7c3.2-3.7,4.3-7.1,4.3-11.5s-1.1-7.8-4.3-11.5
			L596,42L596,42z"/>
	</g>
	<g>
		<path d="M367.5,42.7c-3.2,3.7-4.4,7.2-4.4,11.5s1.1,7.8,4.4,11.5l-0.7,0.7c-4.1-3.6-5.8-7.4-5.8-12.1s1.8-8.5,5.8-12.1L367.5,42.7
			L367.5,42.7z"/>
		<path d="M375,57c-2,0-2.7,0-2.8,0c-0.2,0-0.2,0-0.2-0.2V55c0-0.2,0-0.2,0.2-0.2c0.1,0,0.8,0,2.8,0h5.7v-7.6h-4.5c-2.1,0-2.9,0-3,0
			c-0.2,0-0.2,0-0.2-0.3v-1.8c0-0.2,0-0.3,0.2-0.3c0.1,0,0.9,0,3,0H388c2.1,0,2.9,0,3,0c0.2,0,0.2,0,0.2,0.3V47c0,0.2,0,0.3-0.2,0.3
			c-0.1,0-0.9,0-3,0h-4.8v7.6h5.9c2,0,2.7,0,2.9,0c0.2,0,0.2,0,0.2,0.2V57c0,0.2,0,0.2-0.2,0.2s-0.8,0-2.9,0h-5.9v4.9
			c0,1.5,0,2.2,0,2.4c0,0.2,0,0.2-0.2,0.2h-2.1c-0.2,0-0.2,0-0.2-0.2c0-0.2,0-0.9,0-2.4V57H375L375,57z M375.9,48
			c0.2-0.1,0.3-0.1,0.4,0.1c1,1.4,1.9,3.1,2.5,4.7c0.1,0.2,0.1,0.2-0.2,0.4l-1.5,0.7c-0.3,0.1-0.3,0.1-0.4-0.1
			c-0.6-1.6-1.3-3.1-2.3-4.7c-0.1-0.2-0.1-0.2,0.2-0.4L375.9,48L375.9,48z M387.2,49.2c0.2-0.4,0.3-0.8,0.4-1.3
			c0.7,0.2,1.5,0.6,2.1,0.9c0.2,0.1,0.3,0.2,0.3,0.3s0,0.2-0.2,0.3s-0.4,0.4-0.5,0.7c-0.6,1.2-1.3,2.3-2.1,3.5
			c-0.2,0.3-0.3,0.5-0.5,0.5c-0.1,0-0.3-0.1-0.5-0.3c-0.5-0.3-0.8-0.5-1.3-0.7C385.8,51.9,386.6,50.6,387.2,49.2L387.2,49.2z"/>
		<path d="M396.7,64.2c-0.2,0-0.2,0-0.2-0.2c0-0.2,0-1.5,0-8.1v-4.4c0-4.4,0-5.8,0-5.9c0-0.2,0-0.3,0.2-0.3s0.9,0,3.1,0h7.8
			c2.2,0,3,0,3.1,0c0.2,0,0.2,0,0.2,0.3c0,0.1,0,1.5,0,5.2v5c0,6.5,0,7.8,0,8s0,0.2-0.2,0.2h-2c-0.2,0-0.2,0-0.2-0.2v-1.1H399V64
			c0,0.2,0,0.2-0.2,0.2H396.7L396.7,64.2z M398.9,52.8h9.5v-5.2h-9.5V52.8z M408.4,60.5V55h-9.5v5.5H408.4z"/>
		<path d="M418.2,63.4c-2,0-2.7,0-2.8,0c-0.2,0-0.2,0-0.2-0.2v-1.9c0-0.2,0-0.2,0.2-0.2c0.1,0,0.8,0,2.8,0h5.6v-7.7h-3.6
			c-2.2,0-3,0-3.1,0c-0.2,0-0.2,0-0.2-0.2v-1.9c0-0.2,0-0.2,0.2-0.2c0.1,0,0.9,0,3.1,0h3.6v-3.5c0-1.5,0-2.5-0.2-3.6
			c0.8,0,1.9,0.1,2.6,0.2c0.2,0,0.4,0.1,0.4,0.3s-0.1,0.3-0.1,0.5c-0.1,0.3-0.1,0.8-0.1,2.6v3.6h4c2.2,0,3,0,3.1,0
			c0.2,0,0.3,0,0.3,0.2v1.9c0,0.2,0,0.2-0.3,0.2c-0.1,0-0.9,0-3.1,0h-4v7.7h6c2,0,2.7,0,2.8,0c0.2,0,0.2,0,0.2,0.2v1.9
			c0,0.2,0,0.2-0.2,0.2c-0.1,0-0.8,0-2.8,0L418.2,63.4L418.2,63.4z"/>
		<path d="M440.3,64.2c-0.2,0-0.2,0-0.2-0.2c0-0.2,0-1.5,0-8.1v-4.4c0-4.4,0-5.8,0-5.9c0-0.2,0-0.3,0.2-0.3s0.9,0,3.1,0h7.8
			c2.2,0,3,0,3.1,0c0.2,0,0.2,0,0.2,0.3c0,0.1,0,1.5,0,5.2v5c0,6.5,0,7.8,0,8s0,0.2-0.2,0.2h-2c-0.2,0-0.2,0-0.2-0.2v-1.1h-9.5V64
			c0,0.2,0,0.2-0.2,0.2H440.3L440.3,64.2z M442.5,52.8h9.5v-5.2h-9.5V52.8z M452,60.5V55h-9.5v5.5H452z"/>
		<path d="M467.7,59.7c0.3,1.2,0.9,1.8,2,1.8c2.1,0,3.3-1.8,3.4-6.7c-0.8,1.5-2.1,2.2-3.8,2.2c-2.9,0-5-2.3-5-6c0-4,2.2-6.6,5.6-6.6
			c3.7,0,6.1,2.7,6.1,9c0,7.5-2.4,10.4-6.4,10.4c-2.5,0-4.2-1-4.9-3L467.7,59.7L467.7,59.7z M470,46.9c-1.8,0-2.6,1.6-2.6,4.1
			c0,2.4,1,3.8,2.6,3.8c1.4,0,2.3-0.8,3-2.4C472.9,48.7,472,46.9,470,46.9z"/>
		<path d="M483.2,52.5h-3.5v-3.4h3.5V52.5z M483.2,62.6h-3.5v-3.4h3.5V62.6z"/>
		<path d="M497.4,54.1c0,6.9-2.1,9.8-5.9,9.8s-5.9-2.8-5.9-9.7s2.1-9.7,5.9-9.7S497.4,47.2,497.4,54.1L497.4,54.1z M488.8,54.1
			c0,5.5,0.8,7.3,2.7,7.3s2.8-1.8,2.8-7.3s-0.8-7.2-2.7-7.2S488.8,48.6,488.8,54.1L488.8,54.1z"/>
		<path d="M510.7,54.1c0,6.9-2.1,9.8-5.9,9.8s-5.9-2.8-5.9-9.7s2.1-9.7,5.9-9.7S510.7,47.2,510.7,54.1L510.7,54.1z M502.1,54.1
			c0,5.5,0.8,7.3,2.7,7.3s2.8-1.8,2.8-7.3s-0.8-7.2-2.7-7.2S502.1,48.6,502.1,54.1L502.1,54.1z"/>
		<path d="M527.2,53.9c-1.2,2.5-2.4,3.4-3.9,3.4c-1,0-1.8-0.2-3.7-1.1c-1.7-0.8-2.4-1-3.1-1c-1,0-1.8,0.6-2.6,1.9l-1.2-0.7
			c1-2.3,2.3-3.4,3.8-3.4c0.8,0,1.7,0.2,3.5,1c1.8,0.8,2.5,1.1,3.3,1.1c1.1,0,1.9-0.5,2.7-1.9L527.2,53.9L527.2,53.9z"/>
		<path d="M536.8,61.2h3.5v2.4h-10.1v-2.4h3.7V47.8c-0.9,0.6-2.1,1.2-3.5,1.7l-0.5-2.6c1.6-0.5,3.1-1.2,4.4-2.2h2.5L536.8,61.2
			L536.8,61.2z"/>
		<path d="M554.5,58.7c0,3.1-2.4,5.2-6,5.2s-6.1-1.9-6.1-5.1c0-2.2,1.1-3.4,3.6-4.7c-2.3-1.2-3.2-2.7-3.2-4.8c0-2.7,2.2-4.8,5.6-4.8
			s5.7,2,5.7,4.7c0,2-1.1,3.4-3.3,4.3C553.5,54.8,554.5,56.3,554.5,58.7L554.5,58.7z M547.9,55.1c-1.7,1-2.6,2-2.6,3.5
			c0,1.8,1.2,3,3.1,3s3.1-1.1,3.1-2.9c0-1.5-0.7-2.3-3-3.4C548.6,55.4,547.9,55.1,547.9,55.1z M548.9,52.6c1.7-0.9,2.2-1.8,2.2-3.3
			c0-1.6-1.2-2.6-2.8-2.6s-2.7,1-2.7,2.5c0,1.3,0.6,2.1,2.5,3C548.2,52.3,548.9,52.6,548.9,52.6z"/>
		<path d="M560.2,53.5h-3.5v-3.4h3.5V53.5z M560.2,63.5h-3.5v-3.4h3.5V63.5z"/>
		<path d="M575.4,54.1c0,6.9-2.1,9.8-5.9,9.8s-5.9-2.8-5.9-9.7s2.1-9.7,5.9-9.7S575.4,47.2,575.4,54.1z M566.7,54.1
			c0,5.5,0.8,7.3,2.7,7.3s2.8-1.8,2.8-7.3s-0.8-7.2-2.7-7.2S566.7,48.6,566.7,54.1L566.7,54.1z"/>
		<path d="M588.7,54.1c0,6.9-2.1,9.8-5.9,9.8s-5.9-2.8-5.9-9.7s2.1-9.7,5.9-9.7S588.7,47.2,588.7,54.1z M580.1,54.1
			c0,5.5,0.8,7.3,2.7,7.3s2.8-1.8,2.8-7.3s-0.8-7.2-2.7-7.2S580.1,48.6,580.1,54.1L580.1,54.1z"/>
		<path d="M596,42c4,3.6,5.8,7.4,5.8,12.1c0,4.7-1.8,8.5-5.8,12.1l-0.8-0.7c3.2-3.7,4.3-7.1,4.3-11.5s-1.1-7.8-4.3-11.5L596,42
			L596,42z"/>
	</g>
</g>
<g>
	<g>
		<path d="M69.9,42.5c1.6,9.3-0.9,20.6-10.3,20.6c-6.2,0-9.5-4.8-10.5-10.7c-1.7-9.4,1.3-20.1,10.4-20.1
			C65.9,32.3,69,37.2,69.9,42.5z M55.7,52.6c0.4,2.2,1.3,5.3,3.9,5.3c4.5,0,4.6-11.3,3.9-15.3c-0.4-2-1.2-5-3.7-5
			C55.3,37.5,54.9,48.2,55.7,52.6z"/>
		<path d="M82.6,39L82.6,39l-5.5,2.6L76,36.4l7.6-3.6H89l-0.4,29.8h-6.4L82.6,39z"/>
		<path d="M98.5,62.6l0-4.2l5.6-5c5.1-4.9,8.3-8.3,7.7-11.9c-0.4-2.1-2.1-3.6-4.7-3.6c-2.7,0-4.6,0.8-6,1.8l-2.2-4.7
			c2.1-1.5,5.4-2.6,8.8-2.6c6,0,9.9,3.5,10.7,8.1c1.1,6.1-3.1,10.3-7.6,14.3l-2.6,2.1l0,0.1H119l-0.1,5.6H98.5z"/>
		<path d="M144.3,42.5c1.6,9.3-0.9,20.6-10.3,20.6c-6.2,0-9.5-4.8-10.5-10.7c-1.7-9.4,1.3-20.1,10.4-20.1
			C140.3,32.3,143.4,37.2,144.3,42.5z M130,52.6c0.4,2.2,1.3,5.3,3.9,5.3c4.5,0,4.6-11.3,3.9-15.3c-0.4-2-1.2-5-3.7-5
			C129.7,37.5,129.3,48.2,130,52.6z"/>
		<path d="M159.7,48.2l-0.1,4.6h-11.9l0.1-4.6H159.7z"/>
		<path d="M182.1,38.4h-10.5l-0.6,4.6c0.5-0.1,0.8-0.1,1.2-0.1c1.9,0,4.4,0.5,6.5,1.8c2.3,1.4,4,3.8,4.4,6.6
			c1.3,7.5-4.2,11.7-11.7,11.7c-3.6,0-6.7-0.8-8-1.8l0.8-5.2c1.3,0.7,3.8,1.5,6.4,1.5c3.2,0,6.5-1.8,5.9-5c-0.5-2.6-2.5-4.6-8.2-4.6
			c-1.4,0-2.4,0.1-3.6,0.2l1.6-15.4h16L182.1,38.4z"/>
		<path d="M199.6,62.6l0.1-7.2H187l0.1-4.4l11-18.1h8.1L206,50.3h3.5l0,5.1h-3.5l-0.1,7.2H199.6z M199.8,50.3l0.2-6.5
			c0.1-1.9,0.3-3.9,0.4-5.8l-0.2,0c-1,2-1.8,3.9-2.9,5.9l-3.8,6.3l0,0.1H199.8z"/>
		<path d="M233.1,32.8l-0.1,4.4c-3.9,8.5-7.9,16.9-11.9,25.4h-7.3c4-8,8-16.1,11.9-24.1l0-0.1h-12.9l0.1-5.6H233.1z"/>
		<path d="M248.8,48.2l-0.1,4.6h-11.9l0.1-4.6H248.8z"/>
		<path d="M252.1,62.6l0-4.2l5.6-5c5.1-4.9,8.3-8.3,7.7-11.9c-0.4-2.1-2.1-3.6-4.7-3.6c-2.7,0-4.6,0.8-6,1.8l-2.2-4.7
			c2.1-1.5,5.4-2.6,8.8-2.6c6,0,9.9,3.5,10.7,8.1c1.1,6.1-3.1,10.3-7.6,14.3l-2.6,2.1l0,0.1h10.7l-0.1,5.6H252.1z"/>
		<path d="M297,39.5c0.6,3.2-1.2,5.6-4.1,7.1l0,0.1c2.9,1.5,4.8,4.1,5.3,6.6c1.1,6.5-4.5,9.8-10.3,9.8c-6.3,0-10.5-3.2-11.3-7.7
			c-0.7-4.2,1.7-7,4.9-8.5l0-0.1c-2.3-1.5-3.6-3.5-4-5.6c-1-5.5,3.6-9,9.4-9C291.8,32.3,296.2,34.8,297,39.5z M291.4,54
			c-0.4-2.4-2.3-3.8-4.7-4.5c-2.1,0.6-3.9,2.4-3.4,5.2c0.4,2.1,2,3.7,4.4,3.7C290,58.3,291.9,56.7,291.4,54z M283.8,40.9
			c0.3,1.9,2,3.1,4.1,3.8c1.8-0.6,3.3-2.3,2.9-4.4c-0.3-1.8-1.7-3.2-3.8-3.2C284.8,37.1,283.4,38.9,283.8,40.9z"/>
		<path d="M313.6,62.6l0.1-7.2H301l0.1-4.4l11-18.1h8.1l-0.2,17.5h3.5l0,5.1h-3.5l-0.1,7.2H313.6z M313.8,50.3l0.2-6.5
			c0.1-1.9,0.3-3.9,0.4-5.8l-0.2,0c-1,2-1.8,3.9-2.9,5.9l-3.8,6.3l0,0.1H313.8z"/>
	</g>
</g>
<g>
	<g>
	</g>
</g>
<g>
	<g>
		<path d="M56,10.8c-1.3,0-2.4,0.1-3.3,0.1c-0.3,0-0.3-0.1-0.4-0.4c-0.1-0.4-0.1-1.4-0.2-2c0.9,0.1,2,0.1,3.8,0.1h7.1
			c0.6,0,0.8,0,1.1-0.2c0.1-0.1,0.2-0.1,0.3-0.1c0.1,0,0.2,0,0.4,0.1c0.5,0.3,1.1,0.8,1.5,1.3c0.1,0.1,0.1,0.2,0.1,0.3
			c0,0.2-0.1,0.3-0.3,0.5c-0.2,0.2-0.3,0.4-0.5,0.8c-1,2.4-2.2,4.6-3.9,6.5c-1.7,2-3.7,3.6-5.7,4.8c-0.2,0.1-0.4,0.2-0.5,0.2
			c-0.2,0-0.3-0.1-0.5-0.2c-0.5-0.4-1.1-0.8-1.9-1.1c2.9-1.5,4.7-2.9,6.5-5c1.6-1.8,2.6-3.5,3.4-5.7H56z"/>
		<path d="M73.4,9.9c0-1.4-0.1-2.1-0.2-2.9c0.8,0.1,1.9,0.2,2.5,0.4C75.9,7.4,76,7.6,76,7.7c0,0.1,0,0.2-0.1,0.3
			c-0.2,0.4-0.2,0.9-0.2,1.9v4c0,1,0,1.8,0.1,2.5c0,0.3-0.1,0.4-0.4,0.4h-1.6c-0.3,0-0.4-0.1-0.4-0.3c0-0.7,0.1-1.9,0.1-2.7V9.9z
			 M82.8,13.6c0,3-0.4,4.9-1.6,6.5c-1,1.3-2.7,2.5-4.4,3.1c-0.2,0.1-0.3,0.1-0.4,0.1c-0.2,0-0.3-0.1-0.5-0.2c-0.5-0.5-1-0.9-1.7-1.2
			c2.1-0.7,3.8-1.6,4.9-2.9c0.9-1.1,1.3-2.8,1.3-5.3V9.9c0-1.7,0-2.4-0.2-3.3c1,0.1,1.9,0.2,2.6,0.4c0.2,0.1,0.3,0.2,0.3,0.3
			c0,0.1,0,0.2-0.1,0.3c-0.2,0.4-0.2,0.9-0.2,2.2V13.6z"/>
		<path d="M93.1,16.2c-2,0-2.7,0.2-2.9,0.2c-0.2,0-0.4-0.1-0.5-0.4c-0.1-0.5-0.2-1.4-0.3-2.4c1.3,0.2,2.3,0.2,4.3,0.2h6.4
			c1.5,0,3.1,0,4.6-0.1c0.3,0,0.4,0,0.4,0.3c0,0.6,0,1.3,0,1.9c0,0.2-0.1,0.3-0.4,0.3c-1.5,0-3,0-4.5,0H93.1z"/>
		<path d="M120.8,9.3c0.6,0,0.8-0.1,1.1-0.3c0.1-0.1,0.2-0.1,0.3-0.1c0.1,0,0.2,0.1,0.4,0.2c0.4,0.3,1,0.8,1.4,1.2
			c0.1,0.1,0.2,0.2,0.2,0.4s-0.1,0.2-0.2,0.4c-0.2,0.2-0.4,0.4-0.6,0.8c-0.9,1.7-1.8,3.3-2.9,4.8c0.8,0.7,1.6,1.4,2.2,2
			c0.1,0.1,0.1,0.2,0.1,0.3c0,0.1,0,0.2-0.1,0.3c-0.3,0.3-0.9,1-1.2,1.3c-0.1,0.1-0.2,0.1-0.2,0.1c-0.1,0-0.1,0-0.2-0.1
			c-0.5-0.6-1.3-1.4-1.9-1.9c-2,2.2-4.1,3.8-6.4,5c-0.2,0.1-0.3,0.2-0.5,0.2c-0.1,0-0.2-0.1-0.4-0.2c-0.6-0.5-1.2-0.8-1.9-1
			c3.1-1.6,5.1-3,7.4-5.4c-0.8-0.6-1.7-1.2-2.9-1.9c0.4-0.5,0.9-1,1.3-1.4c0.1-0.1,0.2-0.1,0.3-0.1c0.1,0,0.1,0,0.2,0.1
			c0.7,0.3,1.6,0.9,2.6,1.6c1-1.2,1.7-2.5,2.3-4l-5,0.1c-1.6,2.1-2.9,3.5-4.3,4.5c-0.1,0.1-0.3,0.2-0.4,0.2c-0.1,0-0.2,0-0.3-0.1
			c-0.5-0.4-1-0.6-1.7-0.9c2.8-2.2,4.3-4.1,5.7-6.3c0.6-1.1,0.9-1.6,1.1-2.5c0.7,0.2,1.7,0.6,2.3,1c0.2,0.1,0.2,0.2,0.2,0.3
			c0,0.1-0.1,0.3-0.2,0.4c-0.2,0.1-0.3,0.3-0.4,0.4c-0.2,0.3-0.3,0.5-0.6,1L120.8,9.3z M123.4,6.6c0.1-0.1,0.2-0.1,0.3,0
			c0.6,0.5,1.3,1.3,1.9,2.1c0.1,0.1,0.1,0.2-0.1,0.3l-0.8,0.6c-0.1,0.1-0.2,0.1-0.3-0.1c-0.6-0.9-1.2-1.7-2-2.3L123.4,6.6z
			 M125.2,5.3c0.1-0.1,0.2-0.1,0.3,0c0.7,0.6,1.5,1.4,1.9,2.1c0.1,0.1,0.1,0.2-0.1,0.4l-0.8,0.6c-0.2,0.1-0.3,0.1-0.3-0.1
			c-0.5-0.9-1.2-1.6-2-2.3L125.2,5.3z"/>
		<path d="M139.4,18.7c0,1.4,0,2.6,0.1,4.2c0,0.3-0.1,0.3-0.3,0.3c-0.6,0-1.4,0-2,0c-0.2,0-0.3-0.1-0.3-0.3c0-1.4,0.1-2.7,0.1-4.1
			v-4.7c-1.8,1.5-3.9,3-5.5,3.8c-0.1,0.1-0.2,0.1-0.3,0.1c-0.2,0-0.3-0.1-0.4-0.2c-0.5-0.5-1.1-0.9-1.7-1.2c2.8-1.4,4.5-2.6,6.3-4.1
			c1.6-1.3,3-2.7,4.3-4.2c0.7-0.8,0.9-1.2,1.3-2.1c0.9,0.5,1.8,1,2.2,1.4c0.1,0.1,0.2,0.2,0.2,0.3c0,0.2-0.1,0.3-0.3,0.4
			c-0.3,0.2-0.7,0.5-1.2,1.1c-0.8,0.9-1.5,1.7-2.3,2.5V18.7z"/>
		<path d="M153.1,9.3c-0.3-1.1-0.5-1.7-1-2.5c0.8-0.1,1.9-0.2,2.7-0.2c0.3,0,0.4,0.1,0.4,0.6c0,0.4,0.1,1.1,0.3,2l0.4,1.7l5.7-1.5
			c0.8-0.2,1.1-0.4,1.3-0.5c0.1-0.1,0.2-0.1,0.3-0.1c0.1,0,0.3,0.1,0.4,0.2c0.4,0.2,1.1,0.9,1.4,1.2c0.1,0.1,0.2,0.2,0.2,0.3
			c0,0.1-0.1,0.3-0.2,0.4c-0.2,0.2-0.3,0.3-0.4,0.6c-1.1,2.2-2.2,3.8-3,4.7c-0.1,0.1-0.2,0.2-0.3,0.2c-0.1,0-0.3-0.1-0.4-0.2
			c-0.4-0.3-0.9-0.4-1.7-0.6c1.4-1.5,2-2.4,2.9-4l-5.4,1.5l1.2,4.8c0.3,1.2,0.9,3.4,1.2,4.3c0.1,0.3,0,0.4-0.3,0.5
			c-0.6,0.2-1,0.4-1.6,0.5c-0.3,0-0.4,0.1-0.5-0.2c-0.3-1-0.7-2.9-1.1-4.3l-1.3-4.9l-1.6,0.4c-0.9,0.3-2.1,0.7-2.9,1
			c-0.1,0.1-0.2,0.1-0.3,0.1c-0.1,0-0.3-0.1-0.4-0.3c-0.3-0.5-0.6-1.2-0.8-2c1.3-0.2,2.3-0.5,3.8-0.8l1.7-0.5L153.1,9.3z"/>
		<path d="M175.3,9.7c0.3,0.1,0.4,0.3,0.3,0.6c-0.2,0.4-0.2,0.9-0.2,1.4c0,2.5-0.4,4.4-1.1,5.9c-0.5,1.2-1.4,2.5-2.8,3.8
			c-0.2,0.2-0.4,0.3-0.5,0.3c-0.1,0-0.2-0.1-0.4-0.2c-0.5-0.3-1-0.6-1.7-0.8c1.6-1.2,2.6-2.4,3.3-4c0.6-1.4,0.8-2.5,0.8-5.7
			c0-0.8,0-1.1-0.2-1.7C173.9,9.4,174.8,9.6,175.3,9.7z M179.7,18.2c1-0.5,1.9-1.1,2.8-1.9c1.2-0.9,2.4-2,3.5-3.4
			c0.1,0.7,0.3,1.4,0.6,2c0.1,0.1,0.1,0.2,0.1,0.3c0,0.1-0.1,0.3-0.3,0.5c-1,1-1.9,1.8-3,2.6c-1,0.8-2.2,1.6-3.6,2.4
			c-0.4,0.2-0.4,0.3-0.6,0.4c-0.1,0.1-0.3,0.2-0.4,0.2c-0.1,0-0.3-0.1-0.4-0.2c-0.4-0.3-0.9-0.8-1.2-1.2c-0.1-0.2-0.2-0.3-0.2-0.4
			c0-0.1,0-0.2,0.1-0.3c0.1-0.3,0.1-0.5,0.1-1.5v-6.3c0-1.7,0-2.6-0.2-3.5c0.8,0.1,1.9,0.2,2.5,0.4c0.3,0.1,0.4,0.2,0.4,0.3
			c0,0.1-0.1,0.3-0.2,0.5c-0.2,0.4-0.2,0.8-0.2,2.2V18.2z"/>
	</g>
</g>
</svg>
