<?xml version="1.0" encoding="utf-8"?>
<!-- Generator: Adobe Illustrator 27.7.0, SVG Export Plug-In . SVG Version: 6.00 Build 0)  -->
<svg version="1.1" id="uuid-fde58dd9-7acb-43b9-a71c-29a90855b518"
	 xmlns="http://www.w3.org/2000/svg" xmlns:xlink="http://www.w3.org/1999/xlink" x="0px" y="0px" viewBox="0 0 621.5 54.9"
	 style="enable-background:new 0 0 621.5 54.9;" xml:space="preserve">
<style type="text/css">
	.st0{fill:#3B241A;}
	.st1{fill:none;}
	.st2{enable-background:new    ;}
</style>
<g id="uuid-fbffd6a2-a2c7-4393-9dcc-0e05c4d51cc2">
	<path d="M369.3,12.2c-3.2,3.6-4.3,7.1-4.3,11.4s1.1,7.7,4.3,11.4l-0.7,0.7c-4-3.6-5.8-7.3-5.8-12s1.8-8.4,5.8-12
		C368.5,11.6,369.3,12.2,369.3,12.2z"/>
	<path d="M376.7,26.4h-2.8c-0.1,0-0.2-0.1-0.2-0.2v-1.8c0-0.1,0.1-0.2,0.2-0.2h8.4v-7.5h-7.4c-0.1,0-0.2-0.1-0.2-0.3v-1.8
		c0-0.2,0-0.3,0.2-0.3h17.6c0.1,0,0.2,0.1,0.2,0.3v1.8c0,0.2,0,0.3-0.2,0.3h-7.7v7.5h8.6c0.1,0,0.2,0.1,0.2,0.2v1.8
		c0,0.1-0.1,0.2-0.2,0.2h-8.6v7.2c0,0.1-0.1,0.2-0.2,0.2h-2c-0.1,0-0.2-0.1-0.2-0.2v-7.2L376.7,26.4L376.7,26.4z M377.6,17.5
		c0.2-0.1,0.3-0.1,0.4,0.1c0.9,1.3,1.8,3.1,2.4,4.7c0.1,0.1,0,0.3-0.2,0.4l-1.5,0.7c-0.2,0.1-0.3,0-0.4-0.1
		c-0.6-1.6-1.3-3.1-2.3-4.7c-0.1-0.1,0-0.3,0.2-0.4L377.6,17.5L377.6,17.5z M388.8,18.7c0.2-0.4,0.3-0.8,0.4-1.3
		c0.7,0.2,1.5,0.6,2,0.9c0.2,0.1,0.3,0.2,0.3,0.3s0,0.2-0.2,0.3c-0.2,0.1-0.4,0.4-0.5,0.7c-0.6,1.2-1.3,2.3-2.1,3.4
		c-0.2,0.3-0.3,0.4-0.5,0.4c-0.1,0-0.3-0.1-0.5-0.3c-0.5-0.3-0.8-0.5-1.3-0.7C387.4,21.3,388.1,20,388.8,18.7L388.8,18.7L388.8,18.7
		z"/>
	<path d="M398.1,33.5c-0.1,0-0.2-0.1-0.2-0.2V15.1c0-0.2,0-0.3,0.2-0.3H412c0.1,0,0.2,0.1,0.2,0.3v18.1c0,0.1-0.1,0.2-0.2,0.2h-2
		c-0.1,0-0.2-0.1-0.2-0.2v-1.1h-9.4v1.2c0,0.1-0.1,0.2-0.2,0.2L398.1,33.5L398.1,33.5z M400.4,22.2h9.4v-5.1h-9.4V22.2z M409.8,29.9
		v-5.4h-9.4v5.4H409.8z"/>
	<path d="M419.5,32.8h-2.8c-0.1,0-0.2-0.1-0.2-0.2v-1.9c0-0.1,0.1-0.2,0.2-0.2h8.3v-7.7h-6.7c-0.1,0-0.2-0.1-0.2-0.2v-1.9
		c0-0.1,0.1-0.2,0.2-0.2h6.7V17c0-1.5,0-2.5-0.2-3.5c0.8,0,1.8,0.1,2.6,0.2c0.2,0,0.4,0.1,0.4,0.3s-0.1,0.3-0.1,0.5
		c-0.1,0.3-0.1,0.8-0.1,2.6v3.5h7.1c0.2,0,0.3,0,0.3,0.2v1.9c0,0.1-0.1,0.2-0.3,0.2h-7.1v7.7h8.7c0.1,0,0.2,0.1,0.2,0.2v1.9
		c0,0.1-0.1,0.2-0.2,0.2h-2.8L419.5,32.8L419.5,32.8z"/>
	<path d="M441.3,33.5c-0.1,0-0.2-0.1-0.2-0.2V15.1c0-0.2,0-0.3,0.2-0.3h13.9c0.1,0,0.2,0.1,0.2,0.3v18.1c0,0.1-0.1,0.2-0.2,0.2h-2
		c-0.1,0-0.2-0.1-0.2-0.2v-1.1h-9.4v1.2c0,0.1-0.1,0.2-0.2,0.2L441.3,33.5L441.3,33.5z M443.5,22.2h9.4v-5.1h-9.4V22.2z M452.9,29.9
		v-5.4h-9.4v5.4H452.9z"/>
	<path d="M468.5,29.1c0.3,1.2,0.9,1.8,1.9,1.8c2.1,0,3.3-1.8,3.4-6.6c-0.8,1.5-2.1,2.2-3.8,2.2c-2.8,0-4.9-2.3-4.9-6
		c0-4,2.2-6.5,5.6-6.5c3.7,0,6,2.6,6,8.9c0,7.4-2.3,10.3-6.3,10.3c-2.5,0-4.1-1-4.9-3L468.5,29.1L468.5,29.1L468.5,29.1z
		 M470.8,16.3c-1.8,0-2.6,1.6-2.6,4.1s1,3.7,2.6,3.7c1.3,0,2.3-0.8,2.9-2.3C473.6,18.2,472.8,16.3,470.8,16.3L470.8,16.3z"/>
	<path d="M483.8,21.9h-3.5v-3.4h3.5V21.9z M483.8,31.9h-3.5v-3.4h3.5V31.9z"/>
	<path d="M497.9,23.5c0,6.9-2.1,9.7-5.9,9.7s-5.8-2.7-5.8-9.6s2.1-9.6,5.9-9.6S497.9,16.7,497.9,23.5z M489.3,23.6
		c0,5.5,0.8,7.2,2.7,7.2c2,0,2.7-1.8,2.7-7.2s-0.8-7.2-2.7-7.2S489.3,18.1,489.3,23.6L489.3,23.6L489.3,23.6z"/>
	<path d="M511.1,23.5c0,6.9-2.1,9.7-5.9,9.7s-5.8-2.7-5.8-9.6s2.1-9.6,5.9-9.6S511.1,16.7,511.1,23.5z M502.5,23.6
		c0,5.5,0.8,7.2,2.7,7.2c2,0,2.7-1.8,2.7-7.2s-0.8-7.2-2.7-7.2C503.4,16.4,502.5,18.1,502.5,23.6z"/>
	<path d="M527.4,23.4c-1.2,2.5-2.4,3.4-3.9,3.4c-0.9,0-1.8-0.2-3.6-1.1c-1.6-0.8-2.3-1-3.1-1c-0.9,0-1.8,0.6-2.6,1.8l-1.2-0.7
		c0.9-2.3,2.3-3.4,3.8-3.4c0.8,0,1.7,0.2,3.4,1c1.8,0.8,2.5,1.1,3.3,1.1c1.1,0,1.9-0.5,2.7-1.9L527.4,23.4L527.4,23.4L527.4,23.4z"
		/>
	<path d="M536.9,30.5h3.5v2.4h-10v-2.4h3.6V17.3c-0.9,0.6-2.1,1.2-3.4,1.7l-0.5-2.6c1.6-0.5,3-1.2,4.3-2.2h2.5L536.9,30.5
		L536.9,30.5L536.9,30.5z"/>
	<path d="M545.9,29.1c0.3,1.2,0.9,1.8,1.9,1.8c2.1,0,3.3-1.8,3.4-6.6c-0.8,1.5-2.1,2.2-3.8,2.2c-2.8,0-4.9-2.3-4.9-6
		c0-4,2.2-6.5,5.6-6.5c3.7,0,6,2.6,6,8.9c0,7.4-2.3,10.3-6.3,10.3c-2.5,0-4.1-1-4.9-3L545.9,29.1L545.9,29.1z M548.2,16.3
		c-1.8,0-2.6,1.6-2.6,4.1s1,3.7,2.6,3.7c1.3,0,2.3-0.8,2.9-2.3C551.1,18.2,550.2,16.3,548.2,16.3z"/>
	<path d="M561.3,22.9h-3.5v-3.4h3.5V22.9z M561.3,32.9h-3.5v-3.4h3.5V32.9z"/>
	<path d="M576.3,23.5c0,6.9-2.1,9.7-5.9,9.7s-5.8-2.7-5.8-9.6s2.1-9.6,5.9-9.6S576.3,16.7,576.3,23.5z M567.7,23.6
		c0,5.5,0.8,7.2,2.7,7.2c2,0,2.7-1.8,2.7-7.2s-0.8-7.2-2.7-7.2C568.6,16.4,567.7,18.1,567.7,23.6z"/>
	<path d="M589.5,23.5c0,6.9-2.1,9.7-5.9,9.7s-5.8-2.7-5.8-9.6s2.1-9.6,5.9-9.6S589.5,16.7,589.5,23.5z M581,23.6
		c0,5.5,0.8,7.2,2.7,7.2c2,0,2.7-1.8,2.7-7.2s-0.8-7.2-2.7-7.2S581,18.1,581,23.6z"/>
	<path d="M596.7,11.6c4,3.6,5.8,7.4,5.8,12s-1.8,8.5-5.8,12l-0.8-0.7c3.2-3.6,4.3-7.1,4.3-11.4s-1.1-7.7-4.3-11.4
		C595.9,12.1,596.7,11.6,596.7,11.6z"/>
	<path class="st0" d="M35.9,3.8l-4-1.2c-1.2-0.4-2.5,0.2-3,1.4L27,8.3c-0.4,0.9,0,2,0.9,2.4l4.3,1.8c0.4,0.3,0.6,0.8,0.4,1.3
		c-1.1,4.4-3.1,8.7-5.8,13c-0.2,0.4-0.7,0.7-1.2,0.6l-3.2-1.5c-1.5-0.7-3.3,0-4,1.5l-1.5,3.5c-0.4,1-0.1,2.2,0.9,2.8l3.7,2.2
		c0.7,0.4,1.4,0.7,2.1,0.8l0,0c3.3,0.6,6.5-1.1,7.9-4.2c3.6-6.6,6.5-13,8.4-18.9c1.4-3.2,0.5-6.8-2.3-9l0,0
		C37.1,4.3,36.5,4,35.9,3.8L35.9,3.8z"/>
	<path class="st0" d="M0.9,22.2C-2.1,13,3,3,12.3,0l1.1,3.6C6.1,6,2.1,13.8,4.4,21.1L0.9,22.2L0.9,22.2z"/>
	<path class="st0" d="M6.9,20.3c-0.9-2.9-0.7-5.9,0.7-8.6s3.7-4.7,6.6-5.6l1.1,3.6c-4,1.3-6.1,5.5-4.9,9.5L6.9,20.3L6.9,20.3z"/>
	<path class="st0" d="M12.7,18.4c-0.4-1.3-0.3-2.7,0.3-4c0.6-1.2,1.7-2.2,3-2.6l1.1,3.6c-0.4,0.1-0.7,0.4-0.9,0.7
		c-0.2,0.4-0.2,0.8-0.1,1.1C16.3,17.3,12.7,18.4,12.7,18.4z"/>
	<path class="st0" d="M6.9,20.3c-0.9-2.9-0.7-5.9,0.7-8.6s3.7-4.7,6.6-5.6l1.1,3.6c-4,1.3-6.1,5.5-4.9,9.5L6.9,20.3L6.9,20.3z"/>
	<polygon class="st1" points="371.1,39.5 49.1,39.5 55.7,1.8 377.7,1.8 	"/>
	<g class="st2">
		<path d="M53.7,32.4c-1.1-1.1-1.9-2.3-2.3-3.6c-0.8-2.3-1.2-4.8-1.2-7.4c0-3.4,0.8-7,2-9c2-3.3,5.3-5.1,9.3-5.1
			c3.1,0,5.8,1.1,7.8,3c1.1,1.1,1.9,2.3,2.3,3.6c0.8,2.3,1.2,4.8,1.2,7.5c0,3.4-0.8,7-2,9c-1.9,3.3-5.3,5.1-9.4,5.1
			C58.3,35.4,55.6,34.4,53.7,32.4z M56.7,21.1c0,5.8,1.6,8.8,4.8,8.8c3.1,0,4.7-2.9,4.7-8.7c0-5.6-1.7-8.5-4.8-8.5
			C58.4,12.7,56.7,15.8,56.7,21.1z"/>
		<path d="M83.7,26.5c0.2,1.1,0.4,1.5,0.9,2.1c0.9,0.9,2.1,1.4,3.7,1.4c2.5,0,4.1-1.3,4.1-3.3c0-1.3-0.6-2.4-1.7-2.8
			c-0.7-0.3-1.7-0.4-3-0.4s-2.7,0.1-3.9,0.2v-5.6c1.1,0.1,2.1,0.2,3.4,0.2c3,0,4.5-1,4.5-3.1c0-1.8-1.2-2.8-3.3-2.8
			c-2.3,0-3.4,0.9-3.9,3l-6.9-1c0.6-2,1.1-3,2.1-4.1c2-2.1,4.9-3.3,8.8-3.3c3.5,0,6.4,1,8.2,2.8c1.2,1.2,1.8,2.8,1.8,4.6
			c0,3.4-1.8,5.6-5.5,6.5c2,0.3,3,0.7,4.1,1.7c1.3,1.2,2.1,2.9,2.1,4.8c0,1.7-0.4,3.2-1.3,4.3c-0.7,1-1.8,1.9-3,2.4
			c-1.7,0.8-4.3,1.3-6.7,1.3c-2.9,0-5.8-0.7-7.5-1.8c-1.5-1-2.6-2.4-3.3-4.2c-0.2-0.5-0.3-0.9-0.5-1.7L83.7,26.5z"/>
		<path d="M103.8,21.4c1,0.2,1.9,0.2,3.1,0.2h6.3c1.2,0,2.1-0.1,3.1-0.2v6.2c-1.1-0.2-1.9-0.2-3.1-0.2h-6.3c-1.2,0-2,0.1-3.1,0.2
			V21.4z"/>
		<path d="M128.4,16.9c0,0.2,0,0.5-0.1,1c1.4-1.1,3.1-1.6,5.2-1.6c2.9,0,5.2,0.9,6.9,2.7c1.6,1.7,2.4,3.8,2.4,6.5
			c0,6.2-4,9.9-10.8,9.9c-4,0-7.2-1.4-9.1-4c-0.7-1-1.1-2-1.6-3.6l6.4-1c0.5,2.1,1.9,3.2,4.2,3.2c2.7,0,4.5-1.7,4.5-4.3
			c0-2.6-1.7-4.3-4.4-4.3c-2,0-3.3,0.8-4,2.4l-6-0.6c0.1-1,0.2-1.8,0.3-2.7l0.9-10.1c0.1-0.7,0.1-1.5,0.1-2.7
			c1.3,0.1,1.7,0.1,3.2,0.1h9.6c2.8,0,4-0.1,5.3-0.2v5.7c-1.7-0.2-3.2-0.2-5.2-0.2h-7.4L128.4,16.9z"/>
		<path d="M154.6,27.6c0.3,0.7,0.4,1,0.8,1.4c0.7,0.8,1.7,1.2,3,1.2c1.8,0,3.2-0.8,4.1-2.3c0.6-1,0.9-2.2,1.1-4.4
			c-1.7,1.7-3.6,2.3-6.4,2.3c-5.8,0-9.5-3.5-9.5-9c0-5.8,4.4-9.7,10.7-9.7c4.1,0,7.3,1.7,9.2,4.8c1.3,2.1,2,5.2,2,8.8
			c0,3.4-0.6,6.6-1.8,9.1c-1.1,2.3-3.2,4.2-5.4,4.9c-1.3,0.4-2.9,0.7-4.3,0.7c-3,0-5.5-0.8-7.4-2.5c-1.1-1-1.6-1.9-2.5-3.9
			L154.6,27.6z M162.9,16.5c0-2.4-1.9-4.1-4.5-4.1s-4.5,1.7-4.5,4.2c0,2.5,1.7,4.2,4.4,4.2C161,20.7,162.9,19,162.9,16.5z"/>
		<path d="M173.7,23.5c1.4-1.6,1.4-1.6,3.1-3.6l7-8.3c1.5-1.8,2.1-2.6,3-3.9h6.6c-0.2,1.9-0.3,3.2-0.3,5.4v10.6h0.9
			c1,0,2-0.1,3.2-0.3v5.9c-1-0.1-2.1-0.2-3.1-0.2h-1v1.6c0,1.8,0.1,2.8,0.3,4h-6.6c0.2-1.1,0.3-2.5,0.3-4.1v-1.6h-9.1
			c-2.1,0-3,0-4.2,0.1V23.5z M186.9,20c0-1.5,0.1-3.3,0.2-4.7c-0.6,0.9-1.1,1.6-2,2.7l-4.7,5.8h6.5V20z"/>
		<path d="M216.3,15c-0.6-1.9-1.7-2.7-3.6-2.7c-2,0-3.4,0.9-4.3,2.8c-0.5,1.1-0.7,2.1-0.9,4c0.8-0.8,1.2-1.1,2-1.5
			c1.2-0.6,2.6-0.8,4.3-0.8c5.8,0,9.4,3.5,9.4,9.1c0,5.6-4.4,9.6-10.7,9.6c-3.3,0-6.1-1.1-8-3.3c-2.1-2.4-3.3-6-3.3-10.5
			c0-4.1,1-7.9,2.7-10.2c2.1-2.9,5-4.4,9-4.4c3.1,0,5.8,1,7.5,2.9c0.9,1,1.5,2,2.1,3.6L216.3,15z M208,26.1c0,2.4,1.9,4.1,4.5,4.1
			c2.7,0,4.5-1.7,4.5-4.2c0-2.5-1.7-4-4.4-4C209.8,22,208,23.6,208,26.1z"/>
		<path d="M227.8,21.4c1,0.2,1.9,0.2,3.1,0.2h6.3c1.2,0,2.1-0.1,3.1-0.2v6.2c-1.1-0.2-1.9-0.2-3.1-0.2h-6.3c-1.2,0-2,0.1-3.1,0.2
			V21.4z"/>
		<path d="M251.8,27.6c0.3,0.7,0.4,1,0.8,1.4c0.7,0.8,1.7,1.2,3,1.2c1.8,0,3.2-0.8,4.1-2.3c0.6-1,0.9-2.2,1.1-4.4
			c-1.7,1.7-3.6,2.3-6.4,2.3c-5.8,0-9.5-3.5-9.5-9c0-5.8,4.4-9.7,10.7-9.7c4.1,0,7.3,1.7,9.2,4.8c1.3,2.1,2,5.2,2,8.8
			c0,3.4-0.6,6.6-1.8,9.1c-1.1,2.3-3.2,4.2-5.4,4.9c-1.3,0.4-2.9,0.7-4.3,0.7c-3,0-5.5-0.8-7.4-2.5c-1.1-1-1.6-1.9-2.5-3.9
			L251.8,27.6z M260.2,16.5c0-2.4-1.9-4.1-4.5-4.1s-4.5,1.7-4.5,4.2c0,2.5,1.7,4.2,4.4,4.2C258.3,20.7,260.2,19,260.2,16.5z"/>
		<path d="M270.9,23.5c1.4-1.6,1.4-1.6,3.1-3.6l7-8.3c1.5-1.8,2.1-2.6,3-3.9h6.6c-0.2,1.9-0.3,3.2-0.3,5.4v10.6h0.9
			c1,0,2-0.1,3.2-0.3v5.9c-1-0.1-2.1-0.2-3.1-0.2h-1v1.6c0,1.8,0.1,2.8,0.3,4h-6.6c0.2-1.1,0.3-2.5,0.3-4.1v-1.6h-9.1
			c-2.1,0-3,0-4.2,0.1V23.5z M284.2,20c0-1.5,0.1-3.3,0.2-4.7c-0.6,0.9-1.1,1.6-2,2.7l-4.7,5.8h6.5V20z"/>
		<path d="M301.6,7.5c1.2,0.2,2,0.2,3.8,0.2h4.1c2.3,0,2.7,0,4-0.1c-0.2,1.7-0.2,3.1-0.2,5.2v17c0,2,0.1,3.3,0.3,4.9h-7
			c0.2-1.5,0.3-3,0.3-4.9V13.3h-1.3c-1.2,0-2.5,0.1-3.9,0.2V7.5z"/>
		<path d="M346.6,13c-1.9,2.1-2.8,3.4-4.4,6.5c-2.6,5-3.7,8.9-4.5,15.2h-7.4c0.9-5.2,2-8.6,3.8-12.6c1.4-2.9,2.6-5,5.3-8.7h-9.1
			c-2.2,0-3.5,0.1-4.8,0.2V7.5c1.3,0.2,3,0.2,5.2,0.2h10.8c2.9,0,3.8,0,5.2-0.1V13z"/>
	</g>
</g>
</svg>
