<?xml version="1.0" encoding="UTF-8"?><svg id="uuid-fde58dd9-7acb-43b9-a71c-29a90855b518" xmlns="http://www.w3.org/2000/svg" viewBox="0 0 604.07 39.5"><defs><style>.cls-1{fill:none;}.cls-2{fill:#3b241a;}</style></defs><g id="uuid-fbffd6a2-a2c7-4393-9dcc-0e05c4d51cc2"><path class="cls-2" d="m35.86,3.8l-4-1.2c-1.2-.4-2.5.2-3,1.4l-1.9,4.3c-.4.9,0,2,.9,2.4l4.3,1.8c.4.3.6.8.4,1.3-1.1,4.4-3.1,8.7-5.8,13-.2.4-.7.7-1.2.6l-3.2-1.5c-1.5-.7-3.3,0-4,1.5l-1.5,3.5c-.4,1-.1,2.2.9,2.8l3.7,2.2c.7.4,1.4.7,2.1.8h0c3.3.6,6.5-1.1,7.9-4.2,3.6-6.6,6.5-13,8.4-18.9,1.4-3.2.5-6.8-2.3-9h0c-.5-.3-1.1-.6-1.7-.8h0Z"/><path class="cls-2" d="m.86,22.2C-2.14,13,2.96,3,12.26,0l1.1,3.6C6.06,6,2.06,13.8,4.36,21.1l-3.5,1.1h0Z"/><path class="cls-2" d="m6.86,20.3c-.9-2.9-.7-5.9.7-8.6,1.4-2.7,3.7-4.7,6.6-5.6l1.1,3.6c-4,1.3-6.1,5.5-4.9,9.5l-3.5,1.1h0Z"/><path class="cls-2" d="m12.66,18.4c-.4-1.3-.3-2.7.3-4,.6-1.2,1.7-2.2,3-2.6l1.1,3.6c-.4.1-.7.4-.9.7-.2.4-.2.8-.1,1.1.2.1-3.4,1.2-3.4,1.2Z"/><path class="cls-2" d="m6.86,20.3c-.9-2.9-.7-5.9.7-8.6,1.4-2.7,3.7-4.7,6.6-5.6l1.1,3.6c-4,1.3-6.1,5.5-4.9,9.5l-3.5,1.1h0Z"/><polygon class="cls-1" points="371.06 39.5 49.06 39.5 55.66 1.8 377.66 1.8 371.06 39.5"/></g><path d="m62.34,37.06c-3.6,0-6.24-1.09-7.92-3.28s-2.52-5.69-2.52-10.52.84-8.27,2.53-10.48,4.32-3.3,7.91-3.3,6.22,1.1,7.91,3.3,2.53,5.69,2.53,10.47-.84,8.38-2.51,10.56-4.32,3.26-7.93,3.26Zm0-23.48c-1.64,0-2.82.77-3.52,2.31s-1.06,4-1.06,7.39.36,5.84,1.09,7.38,1.89,2.32,3.5,2.32,2.77-.79,3.5-2.36,1.09-4.03,1.09-7.38-.35-5.83-1.06-7.37-1.88-2.3-3.52-2.3Z"/><path d="m78.99,35.39v-4.99h.56c2.68,1.54,5.2,2.3,7.54,2.3,1.85,0,3.3-.38,4.34-1.15s1.56-1.89,1.56-3.37c0-1.17-.41-2.08-1.22-2.72s-2.5-.96-5.05-.96h-1.55v-3.99h1.46c3.94,0,5.91-1.2,5.91-3.6,0-1.01-.42-1.77-1.27-2.29s-2.04-.78-3.6-.78c-2.1,0-4.56.75-7.38,2.25h-.53v-4.94c2.98-1.11,5.84-1.67,8.6-1.67,3.26,0,5.72.6,7.39,1.79s2.5,2.78,2.5,4.76c0,1.48-.46,2.77-1.39,3.88s-2.16,1.85-3.71,2.22v.25c1.77.32,3.17,1,4.2,2.07s1.55,2.43,1.55,4.1c0,2.58-.98,4.64-2.95,6.19s-4.63,2.32-8,2.32-6.25-.56-8.96-1.67Z"/><path d="m118.24,27.04h-12.8v-4.54h12.8v4.54Z"/><path d="m125.17,35.48v-5.03h.58c2.57,1.5,4.99,2.25,7.26,2.25,3.94,0,5.91-1.59,5.91-4.76,0-1.35-.54-2.38-1.63-3.11s-2.7-1.09-4.83-1.09c-1.45,0-3.31.26-5.57.79h-.65v-14.52h18v4.31h-12.55v5.43c1.35-.08,2.34-.12,2.97-.12,3.3,0,5.82.72,7.56,2.15s2.6,3.42,2.6,5.95c0,2.79-1,5.04-2.99,6.76s-4.69,2.58-8.1,2.58c-3.13,0-5.98-.53-8.54-1.58Z"/><path d="m152.99,36.64v-4.52h.54c1.14.52,2.48.77,4.04.77,4.82,0,7.49-2.52,8.03-7.56-2.27,1.39-4.36,2.09-6.26,2.09-2.59,0-4.68-.74-6.28-2.21s-2.39-3.57-2.39-6.28.95-5.05,2.86-6.81,4.37-2.65,7.41-2.65c3.39,0,5.99,1.04,7.82,3.12s2.74,5.13,2.74,9.15c0,4.91-1.21,8.69-3.63,11.34s-5.93,3.97-10.52,3.97c-1.86,0-3.32-.14-4.38-.42Zm12.66-14.13c0-.12.01-.38.04-.79.01-.4.02-.7.02-.9,0-4.92-1.59-7.38-4.78-7.38-1.3,0-2.35.46-3.16,1.38s-1.2,2.19-1.2,3.82c0,3.22,1.7,4.83,5.1,4.83,1.27,0,2.6-.32,3.99-.97Z"/><path d="m199,29.91h-3.76v6.64h-5.55v-6.64h-12.8v-4.66l12.55-15.24h5.8v15.82h3.76v4.08Zm-9.32-4.08v-10.39l-8.58,10.39h8.58Z"/><path d="m222.89,9.92v4.54h-.51c-1.11-.54-2.46-.81-4.03-.81-4.79,0-7.46,2.51-8.02,7.52,2.32-1.38,4.42-2.07,6.29-2.07,2.59,0,4.68.74,6.27,2.23s2.38,3.57,2.38,6.26-.95,5.07-2.86,6.83-4.35,2.65-7.34,2.65c-3.43,0-6.06-1.06-7.88-3.17s-2.73-5.17-2.73-9.17c0-4.91,1.2-8.68,3.61-11.3s5.9-3.94,10.49-3.94c1.62,0,3.06.15,4.32.44Zm-12.57,14.12l-.02.72c-.01.39-.02.7-.02.93,0,4.95,1.61,7.42,4.82,7.42,1.29,0,2.33-.46,3.12-1.37s1.19-2.2,1.19-3.85c0-3.22-1.68-4.83-5.04-4.83-1.31,0-2.66.33-4.04.98Z"/><path d="m243.87,27.04h-12.8v-4.54h12.8v4.54Z"/><path d="m252,36.64v-4.52h.54c1.14.52,2.48.77,4.04.77,4.82,0,7.49-2.52,8.03-7.56-2.27,1.39-4.36,2.09-6.26,2.09-2.59,0-4.68-.74-6.28-2.21s-2.39-3.57-2.39-6.28.95-5.05,2.86-6.81,4.37-2.65,7.41-2.65c3.39,0,5.99,1.04,7.82,3.12s2.74,5.13,2.74,9.15c0,4.91-1.21,8.69-3.63,11.34s-5.93,3.97-10.52,3.97c-1.86,0-3.32-.14-4.38-.42Zm12.66-14.13c0-.12.01-.38.04-.79.01-.4.02-.7.02-.9,0-4.92-1.59-7.38-4.78-7.38-1.3,0-2.35.46-3.16,1.38s-1.2,2.19-1.2,3.82c0,3.22,1.7,4.83,5.1,4.83,1.27,0,2.6-.32,3.99-.97Z"/><path d="m298,29.91h-3.76v6.64h-5.55v-6.64h-12.8v-4.66l12.55-15.24h5.8v15.82h3.76v4.08Zm-9.32-4.08v-10.39l-8.58,10.39h8.58Z"/><path d="m322.75,36.5h-16.86v-3.87h5.68v-15.33h-5.68v-3.55c2.25-.02,3.84-.34,4.77-.94.93-.6,1.47-1.56,1.63-2.86h4.9v22.68h5.55v3.87Z"/><path d="m350.47,14.72l-12.02,21.78h-6.33l12.59-22.18h-14.26v-4.31h20.02v4.71Z"/><path d="m370.47,37.06h-2.5c-1.59-1.85-2.75-3.71-3.46-5.58s-1.07-3.9-1.07-6.09c0-4.24,1.51-8.13,4.54-11.66h2.5v.12c-1.55,1.37-2.8,3.07-3.73,5.12s-1.4,4.19-1.4,6.43.46,4.39,1.39,6.43,2.18,3.74,3.74,5.13v.12Z"/><path d="m371.5,26.03v-1.52h9.84v-9.45h-8.91v-1.49h19.7v1.49h-8.88v9.45h9.96v1.52h-9.96v7.64h-1.91v-7.64h-9.84Zm4.99-2.7c-.88-2.35-1.71-4.34-2.5-5.98l1.77-.63c.64,1.27,1.48,3.27,2.52,6l-1.79.61Zm11.64.07l-1.59-.52c.96-1.71,1.87-3.78,2.72-6.21l1.91.56c-1.16,2.7-2.17,4.76-3.04,6.16Z"/><path d="m411.45,32.01h-13.39v1.17h-1.78V13.58h17.02v19.6h-1.84v-1.17Zm0-10.25v-6.71h-13.39v6.71h13.39Zm-13.39,8.77h13.39v-7.35h-13.39v7.35Z"/><path d="m416.38,32.83v-1.55h9.87v-10.75h-8.59v-1.51h8.59v-6.34h1.91v6.34h8.95v1.51h-8.95v10.75h10.18v1.55h-21.96Z"/><path d="m456.33,32.01h-13.39v1.17h-1.78V13.58h17.02v19.6h-1.84v-1.17Zm0-10.25v-6.71h-13.39v6.71h13.39Zm-13.39,8.77h13.39v-7.35h-13.39v7.35Z"/><path d="m469.67,32.24v-2.07h.14c.66.31,1.42.47,2.3.47,3.61,0,5.59-2.09,5.95-6.27-1.56.94-3,1.41-4.31,1.41-1.78,0-3.19-.49-4.22-1.48s-1.55-2.34-1.55-4.06.58-3.22,1.73-4.36,2.59-1.71,4.31-1.71c1.96,0,3.5.67,4.62,2.02s1.68,3.38,1.68,6.09c0,3.25-.74,5.77-2.21,7.56-1.48,1.79-3.59,2.68-6.35,2.68-.81,0-1.51-.09-2.09-.27Zm8.39-9.35l.04-1.04c0-1.91-.35-3.37-1.05-4.39s-1.72-1.53-3.05-1.53c-1.16,0-2.09.37-2.77,1.12s-1.02,1.78-1.02,3.09c0,1.12.32,2.05.95,2.77s1.68,1.08,3.14,1.08c1.2,0,2.45-.37,3.76-1.1Z"/><path d="m486.67,22.13h-2.66v-3.2h2.66v3.2Zm0,10.04h-2.66v-3.2h2.66v3.2Z"/><path d="m496.39,32.54c-2.08,0-3.61-.74-4.58-2.23-.98-1.48-1.46-3.8-1.46-6.95s.49-5.47,1.47-6.96,2.51-2.24,4.58-2.24,3.57.75,4.56,2.24,1.48,3.81,1.48,6.93-.49,5.48-1.46,6.97c-.98,1.49-2.5,2.23-4.57,2.23Zm0-16.58c-1.34,0-2.3.53-2.91,1.59s-.9,3-.9,5.82.3,4.73.9,5.79c.6,1.06,1.57,1.59,2.91,1.59s2.3-.53,2.9-1.59c.6-1.06.9-3,.9-5.81s-.3-4.68-.89-5.76-1.56-1.62-2.91-1.62Z"/><path d="m509.74,32.54c-2.08,0-3.61-.74-4.58-2.23-.98-1.48-1.46-3.8-1.46-6.95s.49-5.47,1.47-6.96,2.51-2.24,4.58-2.24,3.57.75,4.56,2.24,1.48,3.81,1.48,6.93-.49,5.48-1.46,6.97c-.98,1.49-2.5,2.23-4.57,2.23Zm0-16.58c-1.34,0-2.3.53-2.91,1.59s-.9,3-.9,5.82.3,4.73.9,5.79c.6,1.06,1.57,1.59,2.91,1.59s2.3-.53,2.9-1.59c.6-1.06.9-3,.9-5.81s-.3-4.68-.89-5.76-1.56-1.62-2.91-1.62Z"/><path d="m532.89,21.23c-.03,1.84-.42,3.33-1.18,4.49s-1.78,1.73-3.06,1.73c-.73,0-1.36-.15-1.88-.45s-1.15-.87-1.9-1.72l-1.08-1.24c-.35-.41-.68-.69-.98-.84s-.6-.23-.88-.23c-1.53,0-2.36,1.5-2.48,4.49h-1.82c.04-1.87.43-3.37,1.18-4.51s1.76-1.71,3.05-1.71c.75,0,1.39.16,1.93.47s1.15.87,1.86,1.68l1.24,1.44c.23.26.49.47.79.64s.6.25.9.25c1.55,0,2.38-1.5,2.5-4.49h1.82Z"/><path d="m545.86,32.17h-9.4v-1.62h3.68v-12.14h-3.68v-1.43c1.44,0,2.46-.21,3.08-.62s.96-1.04,1.04-1.92h1.66v16.1h3.61v1.62Z"/><path d="m549.54,32.24v-2.07h.14c.66.31,1.42.47,2.3.47,3.61,0,5.59-2.09,5.95-6.27-1.56.94-3,1.41-4.31,1.41-1.78,0-3.19-.49-4.22-1.48s-1.55-2.34-1.55-4.06.58-3.22,1.73-4.36,2.59-1.71,4.31-1.71c1.96,0,3.5.67,4.62,2.02s1.68,3.38,1.68,6.09c0,3.25-.74,5.77-2.21,7.56-1.48,1.79-3.59,2.68-6.35,2.68-.81,0-1.51-.09-2.09-.27Zm8.39-9.35l.04-1.04c0-1.91-.35-3.37-1.05-4.39s-1.72-1.53-3.05-1.53c-1.16,0-2.09.37-2.77,1.12s-1.02,1.78-1.02,3.09c0,1.12.32,2.05.95,2.77s1.68,1.08,3.14,1.08c1.2,0,2.45-.37,3.76-1.1Z"/><path d="m566.53,22.13h-2.66v-3.2h2.66v3.2Zm0,10.04h-2.66v-3.2h2.66v3.2Z"/><path d="m576.26,32.54c-2.08,0-3.61-.74-4.58-2.23-.98-1.48-1.46-3.8-1.46-6.95s.49-5.47,1.47-6.96,2.51-2.24,4.58-2.24,3.57.75,4.56,2.24,1.48,3.81,1.48,6.93-.49,5.48-1.46,6.97c-.98,1.49-2.5,2.23-4.57,2.23Zm0-16.58c-1.34,0-2.3.53-2.91,1.59s-.9,3-.9,5.82.3,4.73.9,5.79c.6,1.06,1.57,1.59,2.91,1.59s2.3-.53,2.9-1.59c.6-1.06.9-3,.9-5.81s-.3-4.68-.89-5.76-1.56-1.62-2.91-1.62Z"/><path d="m589.6,32.54c-2.08,0-3.61-.74-4.58-2.23-.98-1.48-1.46-3.8-1.46-6.95s.49-5.47,1.47-6.96,2.51-2.24,4.58-2.24,3.57.75,4.56,2.24,1.48,3.81,1.48,6.93-.49,5.48-1.46,6.97c-.98,1.49-2.5,2.23-4.57,2.23Zm0-16.58c-1.34,0-2.3.53-2.91,1.59s-.9,3-.9,5.82.3,4.73.9,5.79c.6,1.06,1.57,1.59,2.91,1.59s2.3-.53,2.9-1.59c.6-1.06.9-3,.9-5.81s-.3-4.68-.89-5.76-1.56-1.62-2.91-1.62Z"/><path d="m599.54,37.06h-2.5v-.12c1.57-1.4,2.82-3.11,3.74-5.14s1.39-4.17,1.39-6.42-.46-4.38-1.39-6.42-2.18-3.74-3.74-5.13v-.12h2.5c3.02,3.53,4.54,7.42,4.54,11.66,0,2.19-.35,4.21-1.06,6.07s-1.87,3.73-3.47,5.6Z"/></svg>