<?xml version="1.0" encoding="UTF-8"?><svg id="uuid-9ab1dda5-f60c-4f5c-ada1-4658ae95701f" xmlns="http://www.w3.org/2000/svg" viewBox="0 0 365.108 72.916"><defs><style>.uuid-c8a97377-70d8-49cd-980f-08953722d585{fill:#f4891e;}.uuid-8978c3a2-7254-4773-8895-eefd0ac49b52{fill:#3b241a;}</style></defs><g id="uuid-2e1c16a7-9fa5-4980-8f71-19e72847b2b7"><path class="uuid-c8a97377-70d8-49cd-980f-08953722d585" d="m83.326,12.697c0,9.479-4.604,20.971-14.155,20.971-6.327,0-8.812-4.839-8.812-10.93,0-9.563,4.888-20.447,14.226-20.447,6.506,0,8.742,5.016,8.742,10.406Zm-16.341,10.26c0,2.278.35,5.369,2.996,5.369,4.62,0,6.7-11.559,6.7-15.564,0-2.028-.31-5.129-2.876-5.129-4.486,0-6.82,10.894-6.82,15.324Z"/><path class="uuid-c8a97377-70d8-49cd-980f-08953722d585" d="m86.833,28.041c.787.085,1.575.042,2.855-.014,2.095-.158,4.212-.792,5.967-1.882,2.236-1.384,3.934-3.325,4.916-5.588l-.09-.056c-1.451,1.49-3.718,2.175-5.729,2.175-4.82,0-8.12-3.301-8.12-8.215,0-6.581,5.472-12.171,12.352-12.171,6.688,0,9.827,4.562,9.818,10.58-.028,7.213-3.668,13.377-7.722,16.607-3.123,2.504-7.44,3.893-11.545,4.104-1.76.068-2.652.035-3.524-.024l.822-5.517Zm6.683-14.408c0,2.469,1.437,4.055,3.535,4.055,1.829,0,3.294-.949,4.063-2.007.267-.351.507-.803.66-1.432.187-.62.268-1.628.268-2.441,0-2.432-1.152-4.343-3.638-4.343-2.713,0-4.889,3.129-4.889,6.168Z"/><path class="uuid-c8a97377-70d8-49cd-980f-08953722d585" d="m133.843,12.697c0,9.479-4.604,20.971-14.155,20.971-6.327,0-8.812-4.839-8.812-10.93,0-9.563,4.888-20.447,14.226-20.447,6.506,0,8.742,5.016,8.742,10.406Zm-16.341,10.26c0,2.278.35,5.369,2.996,5.369,4.62,0,6.7-11.559,6.7-15.564,0-2.028-.31-5.129-2.876-5.129-4.486,0-6.82,10.894-6.82,15.324Z"/><path class="uuid-c8a97377-70d8-49cd-980f-08953722d585" d="m148.451,18.516l-.905,4.729h-12.105l.904-4.729h12.106Z"/><path class="uuid-c8a97377-70d8-49cd-980f-08953722d585" d="m161.337,33.154l1.407-7.363h-12.953l.858-4.504,14.449-18.482h8.267l-3.367,17.824h3.568l-.96,5.162h-3.568l-1.407,7.363h-6.294Zm2.368-12.525l1.396-6.573c.438-1.933,1.003-4.015,1.449-5.914l-.177-.008c-1.348,2.071-2.537,3.95-3.993,5.959l-4.999,6.442-.037.094h6.361Z"/><path class="uuid-c8a97377-70d8-49cd-980f-08953722d585" d="m199.395,12.697c0,9.479-4.604,20.971-14.155,20.971-6.327,0-8.812-4.839-8.812-10.93,0-9.563,4.888-20.447,14.226-20.447,6.506,0,8.742,5.016,8.742,10.406Zm-16.341,10.26c0,2.278.35,5.369,2.996,5.369,4.62,0,6.7-11.559,6.7-15.564,0-2.028-.31-5.129-2.876-5.129-4.486,0-6.82,10.894-6.82,15.324Z"/><path class="uuid-c8a97377-70d8-49cd-980f-08953722d585" d="m223.572,8.557h-10.712l-1.414,4.701c.483-.072.795-.08,1.279-.08,1.967,0,4.405.478,6.294,1.847,2.133,1.446,3.334,3.915,3.334,6.762,0,7.592-6.402,11.881-14.025,11.881-3.655,0-6.688-.842-7.883-1.797l1.743-5.338c1.209.723,3.653,1.483,6.232,1.483,3.304,0,6.944-1.793,6.944-5.061,0-2.68-1.711-4.644-7.529-4.644-1.466,0-2.505.1-3.751.193l4.371-15.701h16.277l-1.161,5.753Z"/><path class="uuid-c8a97377-70d8-49cd-980f-08953722d585" d="m227.512,26.325c1.234.651,3.641,1.683,6.671,1.683,3.759,0,6.006-1.888,6.006-4.316,0-2.723-2.248-4.055-6.2-4.053h-1.194l.985-5.113h1.073c3.152-.005,6.733-1.266,6.733-3.987,0-1.502-1.139-2.624-3.724-2.624s-4.852.694-6.261,1.49l-.932-5.043c2.213-1.233,5.47-2.07,8.52-2.07,5.094,0,9.517,2.353,9.517,7.134,0,3.753-2.978,6.516-6.765,7.462l-.037.094c3.167.682,5.292,3.192,5.292,6.665,0,6.386-6.494,10.022-13.138,10.022-3.866,0-7.247-.939-8.592-2.067l2.045-5.275Z"/><path class="uuid-c8a97377-70d8-49cd-980f-08953722d585" d="m264.52,18.516l-.905,4.729h-12.105l.904-4.729h12.106Z"/><path class="uuid-c8a97377-70d8-49cd-980f-08953722d585" d="m289.929,9.652c0,3.289-2.202,5.729-5.438,7.227l-.037.11c2.721,1.549,4.175,4.157,4.175,6.743,0,6.604-6.33,9.936-12.257,9.936-6.41-.027-10.151-3.307-10.151-7.804,0-4.29,2.974-7.174,6.497-8.61l.037-.108c-2.076-1.547-3.034-3.56-3.034-5.716,0-5.646,5.317-9.139,11.208-9.139,4.968,0,9,2.553,9,7.361Zm-8.35,14.72c0-2.404-1.676-3.83-3.928-4.632-2.27.618-4.391,2.483-4.391,5.247,0,2.102,1.387,3.788,3.858,3.788,2.285,0,4.46-1.646,4.46-4.403Zm-5.401-13.334c0,1.925,1.521,3.168,3.534,3.863,1.902-.661,3.747-2.305,3.747-4.507,0-1.823-1.156-3.221-3.263-3.221-2.24,0-4.019,1.84-4.019,3.864Z"/><path class="uuid-c8a97377-70d8-49cd-980f-08953722d585" d="m313.581,7.882c-.772-.055-1.533-.029-2.548.067-5.521.528-9.157,3.525-10.691,7.132l.084.056c1.647-1.479,3.792-2.339,6.238-2.339,4.45.009,7.732,3.452,7.732,8.492,0,6.52-4.985,12.378-12.141,12.378-6.777,0-10.093-4.663-10.093-10.65,0-6.9,3.297-12.892,7.514-16.205,3.386-2.696,7.85-4.208,12.386-4.418,1.156-.089,1.881-.049,2.528.007l-1.01,5.48Zm-6.127,14.117c0-2.657-1.51-4.186-3.751-4.186-1.843,0-3.434,1.191-4.366,2.806-.294.479-.463,1.083-.484,1.522-.094.606-.119,1.122-.119,1.641,0,2.623,1.358,4.712,3.742,4.712,3.248,0,4.979-3.628,4.979-6.495Z"/><path class="uuid-c8a97377-70d8-49cd-980f-08953722d585" d="m318.971,28.041c.787.085,1.575.042,2.855-.014,2.095-.158,4.212-.792,5.967-1.882,2.236-1.384,3.934-3.325,4.916-5.588l-.09-.056c-1.451,1.49-3.718,2.175-5.729,2.175-4.82,0-8.12-3.301-8.12-8.215,0-6.581,5.472-12.171,12.352-12.171,6.688,0,9.827,4.562,9.818,10.58-.028,7.213-3.668,13.377-7.722,16.607-3.123,2.504-7.44,3.893-11.545,4.104-1.76.068-2.652.035-3.524-.024l.822-5.517Zm6.683-14.408c0,2.469,1.437,4.055,3.535,4.055,1.829,0,3.294-.949,4.063-2.007.267-.351.507-.803.66-1.432.187-.62.268-1.628.268-2.441,0-2.432-1.152-4.343-3.638-4.343-2.713,0-4.889,3.129-4.889,6.168Z"/><path class="uuid-c8a97377-70d8-49cd-980f-08953722d585" d="m364.098,7.882c-.772-.055-1.533-.029-2.548.067-5.521.528-9.157,3.525-10.691,7.132l.084.056c1.647-1.479,3.792-2.339,6.238-2.339,4.45.009,7.732,3.452,7.732,8.492,0,6.52-4.985,12.378-12.141,12.378-6.777,0-10.093-4.663-10.093-10.65,0-6.9,3.297-12.892,7.514-16.205,3.386-2.696,7.85-4.208,12.386-4.418,1.156-.089,1.881-.049,2.528.007l-1.01,5.48Zm-6.127,14.117c0-2.657-1.51-4.186-3.751-4.186-1.843,0-3.434,1.191-4.366,2.806-.294.479-.463,1.083-.484,1.522-.094.606-.119,1.122-.119,1.641,0,2.623,1.358,4.712,3.742,4.712,3.248,0,4.979-3.628,4.979-6.495Z"/><path class="uuid-c8a97377-70d8-49cd-980f-08953722d585" d="m66.101,52.317c-2.711,3.273-3.73,6.157-3.73,10.039s1.02,6.765,3.73,10.039l-.629.521c-3.102-3.123-4.531-6.332-4.531-10.56s1.43-7.438,4.531-10.56l.629.521Z"/><path class="uuid-c8a97377-70d8-49cd-980f-08953722d585" d="m92.507,64.265c0,.151-.021.173-.174.173-.129,0-.803-.043-2.84-.043h-5.877v5.226c0,1.539.045,2.189.045,2.298,0,.152-.023.174-.174.174h-1.15c-.15,0-.172-.021-.172-.174,0-.13.043-.759.043-2.298v-5.226h-5.703c-2.016,0-2.711.043-2.818.043-.152,0-.174-.021-.174-.173v-1.02c0-.151.021-.173.174-.173.107,0,.803.043,2.818.043h5.703v-7.936h-4.488c-2.168,0-2.885.043-2.992.043-.152,0-.174-.021-.174-.174v-.997c0-.151.021-.174.174-.174.107,0,.824.044,2.992.044h10.732c2.146,0,2.861-.044,2.971-.044.152,0,.174.022.174.174v.997c0,.152-.021.174-.174.174-.109,0-.824-.043-2.971-.043h-4.836v7.936h5.877c2.037,0,2.711-.043,2.84-.043.152,0,.174.021.174.173v1.02Zm-15.699-7.85c.195-.108.217-.087.305.044,1.02,1.452,1.887,3.035,2.537,4.791.043.131.043.174-.174.261l-.736.304c-.305.13-.326.13-.391-.065-.607-1.691-1.279-3.101-2.342-4.705-.109-.13-.066-.174.195-.304l.605-.325Zm13.205.824c-.129.108-.238.26-.389.585-.652,1.345-1.389,2.603-2.365,3.946-.15.195-.217.282-.303.282-.064,0-.152-.065-.326-.174-.26-.173-.477-.281-.779-.368,1.084-1.388,1.951-2.819,2.559-4.229.129-.281.26-.693.324-1.084.434.152.955.369,1.279.542.131.065.195.13.195.238,0,.087-.064.152-.195.261Z"/><path class="uuid-c8a97377-70d8-49cd-980f-08953722d585" d="m110.629,63.831c0,6.201.043,7.285.043,7.394,0,.151-.021.174-.172.174h-1.041c-.152,0-.174-.022-.174-.174v-1.322h-10.039v1.365c0,.152-.021.174-.152.174h-1.062c-.15,0-.174-.021-.174-.174,0-.13.045-1.214.045-7.437v-4.186c0-4.206-.045-5.334-.045-5.464,0-.151.023-.173.174-.173.131,0,.867.043,3.014.043h6.441c2.146,0,2.883-.043,3.014-.043.15,0,.172.021.172.173,0,.13-.043,1.258-.043,4.922v4.728Zm-1.344-8.543h-10.039v5.876h10.039v-5.876Zm0,7.09h-10.039v6.288h10.039v-6.288Z"/><path class="uuid-c8a97377-70d8-49cd-980f-08953722d585" d="m123.525,67.538c.434,1.02,1.105,1.496,2.016,1.496,2.104,0,3.34-1.734,3.469-6.613-.801,1.475-1.994,2.19-3.469,2.19-2.342,0-4.162-1.951-4.162-4.987,0-3.273,1.863-5.398,4.488-5.398,2.926,0,4.855,2.276,4.855,7.394,0,6.267-1.908,8.868-5.182,8.868-1.82,0-3.078-.694-3.75-2.146l1.734-.803Zm2.406-11.86c-1.713,0-2.732,1.496-2.732,3.925,0,2.212,1.105,3.534,2.646,3.534,1.301,0,2.297-.737,3.078-2.342-.043-3.296-1.062-5.117-2.992-5.117Z"/><path class="uuid-c8a97377-70d8-49cd-980f-08953722d585" d="m136.4,61.489h-2.363v-2.363h2.363v2.363Zm0,8.716h-2.363v-2.363h2.363v2.363Z"/><path class="uuid-c8a97377-70d8-49cd-980f-08953722d585" d="m149.062,62.269c0,5.746-1.691,8.218-4.771,8.218s-4.748-2.429-4.748-8.175,1.756-8.087,4.793-8.087,4.727,2.319,4.727,8.044Zm-7.676.021c0,4.857.953,6.7,2.904,6.7,1.975,0,2.928-1.843,2.928-6.7s-.932-6.569-2.883-6.569c-1.93,0-2.949,1.69-2.949,6.569Z"/><path class="uuid-c8a97377-70d8-49cd-980f-08953722d585" d="m161.093,62.269c0,5.746-1.691,8.218-4.771,8.218s-4.748-2.429-4.748-8.175,1.756-8.087,4.793-8.087,4.727,2.319,4.727,8.044Zm-7.676.021c0,4.857.953,6.7,2.904,6.7,1.975,0,2.928-1.843,2.928-6.7s-.932-6.569-2.883-6.569c-1.93,0-2.949,1.69-2.949,6.569Z"/><path class="uuid-c8a97377-70d8-49cd-980f-08953722d585" d="m176.007,63.094c-.996,1.93-1.951,2.602-3.23,2.602-.781,0-1.539-.195-3.1-.933-1.367-.672-2.018-.867-2.646-.867-.846,0-1.648.564-2.32,1.713l-.758-.434c.803-1.777,1.863-2.646,3.166-2.646.65,0,1.451.195,2.904.868,1.518.693,2.168.932,2.797.932,1.02,0,1.758-.563,2.473-1.713l.715.478Z"/><path class="uuid-c8a97377-70d8-49cd-980f-08953722d585" d="m184.785,68.753h2.949v1.452h-7.826v-1.452h3.143v-12.533c-.824.564-1.908,1.106-3.121,1.562l-.305-1.583c1.322-.434,2.58-1.105,3.686-1.864h1.475v14.419Z"/><path class="uuid-c8a97377-70d8-49cd-980f-08953722d585" d="m193.045,67.538c.434,1.02,1.105,1.496,2.016,1.496,2.104,0,3.34-1.734,3.469-6.613-.801,1.475-1.994,2.19-3.469,2.19-2.342,0-4.162-1.951-4.162-4.987,0-3.273,1.863-5.398,4.488-5.398,2.926,0,4.855,2.276,4.855,7.394,0,6.267-1.908,8.868-5.182,8.868-1.82,0-3.078-.694-3.75-2.146l1.734-.803Zm2.406-11.86c-1.713,0-2.732,1.496-2.732,3.925,0,2.212,1.105,3.534,2.646,3.534,1.301,0,2.297-.737,3.078-2.342-.043-3.296-1.062-5.117-2.992-5.117Z"/><path class="uuid-c8a97377-70d8-49cd-980f-08953722d585" d="m205.922,61.489h-2.363v-2.363h2.363v2.363Zm0,8.716h-2.363v-2.363h2.363v2.363Z"/><path class="uuid-c8a97377-70d8-49cd-980f-08953722d585" d="m218.582,62.269c0,5.746-1.691,8.218-4.77,8.218s-4.748-2.429-4.748-8.175,1.756-8.087,4.791-8.087,4.727,2.319,4.727,8.044Zm-7.676.021c0,4.857.955,6.7,2.906,6.7,1.973,0,2.928-1.843,2.928-6.7s-.934-6.569-2.885-6.569c-1.93,0-2.949,1.69-2.949,6.569Z"/><path class="uuid-c8a97377-70d8-49cd-980f-08953722d585" d="m230.613,62.269c0,5.746-1.691,8.218-4.77,8.218s-4.748-2.429-4.748-8.175,1.756-8.087,4.791-8.087,4.727,2.319,4.727,8.044Zm-7.676.021c0,4.857.955,6.7,2.906,6.7,1.973,0,2.928-1.843,2.928-6.7s-.934-6.569-2.885-6.569c-1.93,0-2.949,1.69-2.949,6.569Z"/><path class="uuid-c8a97377-70d8-49cd-980f-08953722d585" d="m233.148,51.797c3.1,3.122,4.531,6.331,4.531,10.56s-1.432,7.437-4.531,10.56l-.629-.521c2.709-3.274,3.729-6.158,3.729-10.039s-1.02-6.766-3.729-10.039l.629-.521Z"/><path class="uuid-8978c3a2-7254-4773-8895-eefd0ac49b52" d="m32.009,3.4l-3.609-1.111c-1.066-.328-2.208.193-2.658,1.213l-1.715,3.888c-.364.824.017,1.787.845,2.14l3.8,1.619c.361.254.492.728.313,1.132-1.01,3.934-2.787,7.787-5.134,11.577-.176.396-.607.613-1.03.518l-2.814-1.296c-1.351-.622-2.949-.017-3.549,1.343l-1.374,3.114c-.4.906-.06,1.967.791,2.472l3.263,1.938c.59.35,1.238.592,1.913.714h0c2.911.524,5.804-1.01,7.003-3.714,3.2-5.913,5.812-11.571,7.451-16.804,1.246-2.809.409-6.106-2.025-7.981h0c-.441-.34-.94-.598-1.472-.762Z"/><path class="uuid-8978c3a2-7254-4773-8895-eefd0ac49b52" d="m.758,19.812C-1.901,11.547,2.661,2.659,10.926,0l1.021,3.175C5.432,5.27,1.837,12.276,3.933,18.791l-3.175,1.021Z"/><path class="uuid-8978c3a2-7254-4773-8895-eefd0ac49b52" d="m6.167,18.072c-.823-2.559-.6-5.286.627-7.677,1.228-2.391,3.313-4.162,5.872-4.986l1.021,3.175c-3.532,1.136-5.481,4.934-4.345,8.466l-3.175,1.021Z"/><path class="uuid-8978c3a2-7254-4773-8895-eefd0ac49b52" d="m11.318,16.414c-.38-1.183-.278-2.443.291-3.549.568-1.105,1.532-1.923,2.715-2.304l1.021,3.175c-.335.107-.608.34-.769.652-.16.313-.19.67-.081,1.005l-3.175,1.021Z"/><path class="uuid-8978c3a2-7254-4773-8895-eefd0ac49b52" d="m6.167,18.072c-.823-2.559-.6-5.286.627-7.677,1.228-2.391,3.313-4.162,5.872-4.986l1.021,3.175c-3.532,1.136-5.481,4.934-4.345,8.466l-3.175,1.021Z"/></g></svg>