<svg xmlns="http://www.w3.org/2000/svg" viewBox="0 0 36.72 29.85"><path d="M11.55,29.85C25.41,29.85,33,18.36,33,8.41c0-.33,0-.65,0-1a15.12,15.12,0,0,0,3.75-3.9A15,15,0,0,1,32.4,4.72,7.56,7.56,0,0,0,35.71.55a15.29,15.29,0,0,1-4.78,1.83,7.54,7.54,0,0,0-13,5.15,7.43,7.43,0,0,0,.2,1.72A21.34,21.34,0,0,1,2.56,1.38,7.55,7.55,0,0,0,4.89,11.44a7.52,7.52,0,0,1-3.41-.94.28.28,0,0,0,0,.09A7.54,7.54,0,0,0,7.52,18a7.65,7.65,0,0,1-2,.26,7.32,7.32,0,0,1-1.41-.13,7.54,7.54,0,0,0,7,5.23A15.14,15.14,0,0,1,1.8,26.57,15.26,15.26,0,0,1,0,26.46a21.29,21.29,0,0,0,11.55,3.39" style="fill:#1da1f2"/></svg>