<?xml version="1.0" encoding="UTF-8"?><svg id="uuid-f7596b59-9ffe-477d-81eb-58ce17c079f0" xmlns="http://www.w3.org/2000/svg" viewBox="0 0 181.067 47.754"><defs><style>.uuid-c3b4e771-bcf5-4614-a471-5495685c52e8{fill:#1da1f2;}</style></defs><g id="uuid-aa83e5af-6731-4823-8579-b08be980a28f"><path class="uuid-c3b4e771-bcf5-4614-a471-5495685c52e8" d="m88.089,34.747c-.24,0-.264-.024-.264-.264,0-.145.023-.889.048-2.377-1.92.408-4.296.841-6.24,1.129-.384.048-.744.168-.864.239-.096.049-.24.145-.384.145s-.265-.145-.336-.384c-.216-.648-.337-1.225-.48-1.921.841-.023,1.513-.071,2.257-.168.144,0,.287-.023.432-.048v-7.536c-1.633.023-2.256.048-2.377.048-.239,0-.264-.024-.264-.265v-1.512c0-.24.024-.264.264-.264.145,0,.841.048,2.93.048h15.408c2.088,0,2.785-.048,2.929-.048.216,0,.239.023.239.264v1.512c0,.24-.023.265-.239.265-.144,0-.841-.048-2.929-.048h-8.137v8.04c0,1.849.049,2.736.049,2.881,0,.239-.024.264-.265.264h-1.776Zm6.77-21.122c2.375,0,3.216-.048,3.359-.048.24,0,.265.024.265.288,0,.145-.048.672-.048,1.969v2.52c0,1.296.048,1.824.048,1.969,0,.264-.024.288-.265.288-.144,0-.984-.049-3.359-.049h-8.737c-2.376,0-3.192.049-3.36.049-.24,0-.264-.024-.264-.288,0-.145.048-.673.048-1.969v-2.52c0-1.297-.048-1.824-.048-1.969,0-.264.023-.288.264-.288.168,0,.984.048,3.36.048h8.737Zm-6.985,11.209v-1.271h-3.384v1.271h3.384Zm0,2.784v-1.248h-3.384v1.248h3.384Zm0,1.536h-3.384v1.656c1.128-.168,2.304-.336,3.384-.527v-1.129Zm-2.952-12.745h11.137v-1.008h-11.137v1.008Zm11.137,1.44h-11.137v1.032h11.137v-1.032Zm1.633,7.129c.144,0,.312-.048.432-.097.12-.048.24-.096.36-.096.168,0,.288.048.84.552.576.553.647.721.647.889,0,.191-.071.312-.239.432-.192.12-.36.408-.648,1.009-.528,1.056-1.151,2.04-1.944,2.903,1.176.744,2.593,1.272,4.248,1.633-.264.384-.6.912-.84,1.536-.24.647-.287.647-.912.456-1.607-.504-2.951-1.2-4.104-2.064-1.057.816-2.256,1.536-3.625,2.112-.24.096-.384.168-.479.168-.169,0-.265-.168-.433-.552-.264-.576-.552-1.032-.888-1.368,1.536-.456,2.808-1.057,3.864-1.801-.936-1.056-1.729-2.328-2.352-3.84-.385.023-.553.023-.625.023-.24,0-.264-.023-.264-.287v-1.393c0-.24.023-.264.264-.264.145,0,.744.048,2.641.048h4.057Zm-3.889,1.848c.456.96,1.032,1.801,1.752,2.496.672-.72,1.225-1.56,1.656-2.496h-3.408Z"/><path class="uuid-c3b4e771-bcf5-4614-a471-5495685c52e8" d="m109.28,22.794c-2.111,0-2.808.048-2.951.048-.217,0-.24-.023-.24-.264v-1.729c0-.239.023-.264.24-.264.144,0,.84.048,2.951.048h3.097c.384-.744.673-1.536.912-2.28.12-.359.144-.647.168-1.056.792.144,1.392.336,2.089.504.239.072.287.168.287.336,0,.144-.048.24-.191.36-.145.12-.24.264-.36.552-.265.6-.456,1.032-.744,1.584,1.656,0,2.353-.048,2.593-.048s.264.024.264.264v1.729c0,.24-.023.264-.264.264-.145,0-.865-.048-2.953-.048h-1.104c-.049.168-.049.48-.049,1.32v.432h.816c2.041,0,2.736-.048,2.881-.048.24,0,.264.024.264.265v1.704c0,.239-.023.264-.264.264-.145,0-.84-.048-2.881-.048h-.168c.912,1.056,1.944,1.896,3.072,2.521-.264.359-.504.743-.84,1.536-.096.239-.168.384-.288.384-.096,0-.265-.097-.504-.336-.744-.648-1.464-1.465-2.136-2.496.023,3.336.119,5.232.119,6.072,0,.24-.023.264-.287.264h-1.896c-.24,0-.264-.023-.264-.264,0-.792.071-2.544.096-5.545-.864,1.465-1.849,2.616-3.121,3.889-.239.216-.383.336-.504.336-.168,0-.264-.168-.384-.48-.264-.624-.601-1.199-.937-1.607,1.705-1.128,3.121-2.545,4.249-4.272h-.601c-2.063,0-2.76.048-2.904.048-.239,0-.264-.024-.264-.264v-1.704c0-.24.024-.265.264-.265.145,0,.841.048,2.904.048h1.248v-.432c0-.552,0-.96-.023-1.32h-1.393Zm.408-5.761c-1.992,0-2.688.049-2.832.049-.24,0-.264-.024-.264-.265v-1.656c0-.239.023-.264.264-.264.145,0,.84.048,2.832.048h.937v-.647c0-.553-.024-1.081-.144-1.585.863.024,1.631.049,2.496.12.24.024.384.097.384.216,0,.145-.072.265-.144.408-.121.216-.121.408-.121.864v.624h.816c1.992,0,2.664-.048,2.809-.048.264,0,.287.024.287.264v1.656c0,.24-.023.265-.287.265-.145,0-.816-.049-2.809-.049h-4.225Zm-.359,3.409c-.312.096-.408.071-.48-.192-.191-.769-.336-1.44-.672-2.112-.145-.264-.12-.336.216-.408l1.224-.359c.289-.072.336-.024.433.168.384.672.672,1.439.888,2.16.072.239.024.312-.24.384l-1.367.36Zm11.185,2.231c-.024,2.784-.168,5.089-.624,6.937-.384,1.513-.889,2.856-2.064,4.561-.216.288-.336.456-.504.456-.119,0-.264-.12-.527-.336-.504-.432-1.057-.768-1.561-.96,1.368-1.632,2.04-3.072,2.473-4.872.359-1.488.479-3.48.479-6.913v-2.616c0-1.416-.024-2.688-.144-4.104.84.145,1.488.312,2.207.576,1.609-.408,3.049-1.032,4.152-1.656.529-.288.889-.552,1.273-.888.551.456,1.104,1.08,1.56,1.704.12.168.168.312.168.456,0,.144-.144.264-.36.288-.264.023-.527.096-.936.288-1.584.768-3.48,1.488-5.593,1.968v2.929h4.104c2.328,0,3.12-.048,3.264-.048.24,0,.265.023.265.264v1.752c0,.24-.024.264-.265.264-.119,0-.768-.023-2.424-.048v8.449c0,2.256.049,3.192.049,3.312,0,.264-.025.287-.24.287h-1.969c-.24,0-.264-.023-.264-.287,0-.12.048-1.057.048-3.312v-8.449h-2.568Z"/><path class="uuid-c3b4e771-bcf5-4614-a471-5495685c52e8" d="m134.481,17.969c.312.072.36.12.336.384-.096,1.969-.336,3.769-.815,5.257-.072.24-.121.216-.385.096l-1.152-.479c-.312-.12-.336-.24-.264-.48.408-1.296.672-2.952.768-4.872,0-.24.049-.217.385-.145l1.128.24Zm.96-1.656c0-1.704-.023-2.472-.191-3.624.912.023,1.68.072,2.472.168.24.023.384.12.384.24,0,.168-.048.312-.119.479-.121.312-.168.912-.168,2.664v13.945c0,2.713.047,4.081.047,4.2,0,.265-.023.288-.264.288h-1.943c-.24,0-.265-.023-.265-.288,0-.119.048-1.487.048-4.176v-13.897Zm3.625.624c.264-.096.336-.072.432.145.408.936.744,1.872.984,2.855.072.24.048.288-.264.408l-1.009.36c-.312.12-.384.12-.433-.145-.239-1.104-.527-1.992-.888-2.904-.096-.264-.071-.312.24-.407l.937-.312Zm4.393,5.473c-2.329,0-3.121.023-3.266.023-.239,0-.264,0-.264-.264v-1.368c0-.24.024-.264.264-.264.145,0,.937.048,3.266.048h2.016v-1.104h-1.2c-2.16,0-2.856.049-3.024.049-.24,0-.264-.024-.264-.288v-1.2c0-.24.023-.265.264-.265.168,0,.864.048,3.024.048h1.2v-1.08h-1.584c-2.256,0-3.024.049-3.168.049-.24,0-.265-.024-.265-.265v-1.296c0-.264.024-.288.265-.288.144,0,.912.048,3.168.048h1.584c-.023-.84-.072-1.512-.168-2.352.888.023,1.561.071,2.376.168.265.023.384.144.384.239,0,.24-.119.433-.168.624-.072.24-.096.625-.096,1.32h2.305c2.231,0,3-.048,3.144-.048.265,0,.288.024.288.288v1.296c0,.24-.023.265-.288.265-.144,0-.912-.049-3.144-.049h-2.305v1.08h1.633c2.135,0,2.855-.048,3-.048.24,0,.264.024.264.265v1.2c0,.264-.023.288-.264.288-.145,0-.865-.049-3-.049h-1.633v1.104h2.977c2.304,0,3.12-.048,3.24-.048.24,0,.264.023.264.264v1.368c0,.264-.023.264-.264.264-.12,0-.937-.023-3.24-.023h-7.32Zm8.855,6.192c0,1.2.049,2.593.049,3.336,0,.937-.145,1.585-.625,2.017-.407.36-.983.552-2.735.6-.744.024-.769.024-.937-.743-.096-.456-.312-1.08-.552-1.488.552.048,1.2.071,1.632.071.696,0,.84-.239.84-.72v-.96h-6.504v1.104c0,1.68.048,2.472.048,2.592,0,.264-.024.288-.288.288h-1.872c-.265,0-.288-.024-.288-.288,0-.12.048-.84.048-2.544v-5.617c0-1.68-.048-2.448-.048-2.592,0-.264.023-.288.288-.288.144,0,.864.048,2.976.048h4.777c2.111,0,2.809-.048,2.977-.048.239,0,.264.024.264.288,0,.144-.049,1.032-.049,2.809v2.136Zm-8.832-3.36v1.128h6.504v-1.128h-6.504Zm6.504,3.889v-1.177h-6.504v1.177h6.504Z"/><path class="uuid-c3b4e771-bcf5-4614-a471-5495685c52e8" d="m163.257,19.217v-1.896h-.648c-1.848,0-2.447.049-2.592.049-.24,0-.264-.024-.264-.265v-1.512c0-.216.023-.24.264-.24.145,0,.744.048,2.592.048h.648v-.048c0-1.008-.023-1.776-.168-2.641.889.024,1.68.072,2.377.168.264.024.383.12.383.24,0,.168-.071.288-.143.433-.121.216-.145.527-.145,1.199v.648h.527c1.849,0,2.449-.048,2.593-.048.216,0,.239.024.239.24v1.512c0,.24-.023.265-.239.265-.144,0-.744-.049-2.593-.049h-.527v1.896h.816c2.063,0,2.712-.048,2.855-.048.24,0,.264.023.264.288v1.488c0,.239-.023.264-.264.264-.144,0-.792-.048-2.855-.048h-4.32c-2.017,0-2.689.048-2.809.048-.264,0-.288-.024-.288-.264v-1.488c0-.265.024-.288.288-.288.119,0,.792.048,2.809.048h1.199Zm0,9.241v-1.969h-1.224c-2.017,0-2.688.048-2.809.048-.239,0-.264-.023-.264-.288v-1.487c0-.24.024-.265.264-.265.12,0,.792.048,2.809.048h2.832c.288-.695.552-1.416.769-2.112.096-.312.168-.672.24-1.128.672.12,1.392.288,2.016.48.24.072.336.144.336.264s-.072.216-.168.288c-.12.096-.24.288-.312.456-.264.672-.455,1.128-.768,1.752,1.584,0,2.16-.048,2.305-.048.239,0,.264.024.264.265v1.487c0,.265-.024.288-.264.288-.145,0-.793-.048-2.833-.048h-.888v1.969h.648c1.871,0,2.472-.049,2.615-.049.24,0,.265.024.265.265v1.488c0,.239-.024.264-.265.264-.144,0-.744-.048-2.615-.048h-.648v1.56c0,1.608.048,2.377.048,2.497,0,.239-.024.264-.265.264h-1.871c-.24,0-.265-.024-.265-.264,0-.145.048-.889.048-2.497v-1.56h-.792c-1.872,0-2.496.048-2.64.048-.24,0-.264-.024-.264-.264v-1.488c0-.24.023-.265.264-.265.144,0,.768.049,2.64.049h.792Zm-1.32-3.984c-.312.096-.359.071-.432-.168-.24-.792-.504-1.513-.792-2.112-.12-.265-.071-.288.216-.385l1.32-.407c.264-.072.336-.024.432.168.336.672.601,1.344.816,2.088.072.24.072.312-.24.408l-1.32.408Zm15.602-3.072c.385,0,.553-.024.672-.097.121-.071.217-.096.36-.096s.337.072.912.648c.576.6.673.768.673.936,0,.192-.072.288-.168.408-.193.216-.289.384-.408.912-.48,2.112-1.08,3.912-1.945,5.545.961,1.056,2.089,1.943,3.434,2.784-.361.407-.673.96-.938,1.632-.168.36-.264.528-.407.528-.097,0-.24-.097-.479-.265-1.08-.815-2.017-1.656-2.881-2.592-.6.84-1.271,1.632-2.04,2.424-.24.216-.36.336-.479.336-.145,0-.24-.168-.433-.504-.336-.624-.696-1.08-1.032-1.416.023,1.128.048,1.752.048,1.849,0,.216-.024.239-.264.239h-1.849c-.264,0-.287-.023-.287-.239,0-.168.047-1.753.047-5.017v-10.345c0-3.289-.047-4.921-.047-5.089,0-.24.023-.264.287-.264.145,0,1.08.048,2.977.048h3.864c1.921,0,2.568-.048,2.712-.048.24,0,.336.071.312.312-.049.456-.049.816-.072,1.225-.096,1.992-.216,2.952-.527,3.6-.457.937-1.129,1.272-2.617,1.272-.408,0-.84,0-1.271-.024-.553-.048-.576-.048-.672-.624-.121-.695-.265-1.224-.385-1.536.696.097,1.297.145,1.873.145.623,0,.863-.145,1.008-.624.119-.408.168-.937.168-1.488h-5.305v5.425h5.16Zm-5.16,11.112c1.008-.888,1.848-1.775,2.52-2.712-1.055-1.656-1.848-3.648-2.352-6.24h-.168v8.952Zm2.184-8.952c.408,1.607.937,2.952,1.609,4.104.575-1.225.959-2.568,1.295-4.104h-2.904Z"/><path class="uuid-c3b4e771-bcf5-4614-a471-5495685c52e8" d="m18.48,47.754c22.174,0,34.3-18.371,34.3-34.3,0-.522-.01-1.042-.034-1.559,2.354-1.702,4.4-3.825,6.014-6.242-2.16.959-4.485,1.606-6.923,1.898,2.489-1.492,4.4-3.854,5.301-6.669-2.33,1.381-4.909,2.386-7.655,2.926-2.2-2.343-5.333-3.809-8.8-3.809-6.658,0-12.057,5.399-12.057,12.054,0,.946.106,1.866.313,2.749-10.019-.504-18.904-5.301-24.849-12.595-1.036,1.781-1.633,3.851-1.633,6.059,0,4.183,2.129,7.875,5.365,10.035-1.978-.061-3.835-.604-5.46-1.508-.003.05-.003.101-.003.153,0,5.839,4.156,10.714,9.672,11.819-1.012.275-2.078.424-3.178.424-.777,0-1.532-.077-2.266-.218,1.534,4.79,5.985,8.275,11.262,8.373-4.127,3.234-9.325,5.16-14.973,5.16-.973,0-1.932-.056-2.876-.167,5.336,3.419,11.67,5.415,18.48,5.415"/></g></svg>