<svg xmlns="http://www.w3.org/2000/svg" viewBox="0 0 22.48 28.21"><title>アセット 42x@f</title><g id="レイヤー_2" data-name="レイヤー 2"><g id="contents"><path d="M18.69,28.21a64.51,64.51,0,0,1-8.82-3.32,5.77,5.77,0,0,0-1.67-.61C3.61,24,0,20.38,0,14.45A15.72,15.72,0,0,1,4.11,3.62,12.34,12.34,0,0,1,13,0c6.38,0,9.5,4.58,9.5,9.83,0,4-1.43,8.25-4,10.79a10.36,10.36,0,0,1-3.44,2.29V23c1.44.39,3.39.85,5.39,1.22ZM8.33,6c-1.91,1.92-3,5.75-3,8.49,0,3.32,1.53,5.72,4.92,5.72a5.52,5.52,0,0,0,3.93-1.69c1.85-1.87,2.91-5.78,2.92-8.61,0-2.67-1-5.67-4.74-5.67A5.69,5.69,0,0,0,8.33,6Z" style="fill:#00afcc"/></g></g></svg>