<?xml version="1.0" encoding="UTF-8"?>
<svg id="Layer_1" xmlns="http://www.w3.org/2000/svg" version="1.1" viewBox="0 0 176.5 175.9">
  <!-- Generator: Adobe Illustrator 29.5.1, SVG Export Plug-In . SVG Version: 2.1.0 Build 141)  -->
  <defs>
    <style>
      .st0 {
        fill: #050505;
      }

      .st1 {
        fill: #005f99;
      }

      .st2 {
        fill: #fefefe;
      }

      .st3 {
        fill: #fdfdfd;
      }
    </style>
  </defs>
  <path class="st1" d="M173.7,109.9c-4.6,17.5-13.7,31.8-26.8,43.5-14,12.6-30.4,19.5-49.2,21.9-16.5,2-31.9-1-46.6-7.6-16.1-7.3-28.9-18.9-38.2-34.1C4,119-.8,102.9,0,86.1,1.5,53.6,16,28.1,44.3,11.3,55.5,4.6,67.6,1,80.7,0c31.5-2.4,56.8,9,76.8,33.2,10.9,13.3,16.3,28.5,18.5,45.4,1.4,10.6-.3,20.6-2.3,31.2M48.3,122.1c29,0,57.9,0,86.9,0,5.9,0,6.6-.7,6.6-6.7,0-18.6,0-37.3,0-55.9,0-4.7-1.6-6.5-6.4-6.5-31.5.1-62.9.1-94.4,0-4.8,0-6.4,1.8-6.4,6.5.2,16.6,0,33.3,0,49.9,0,13.7-1.1,12.7,13.6,12.7Z"/>
  <path class="st0" d="M47.8,122.1c-14.2,0-13.1,1.1-13.1-12.7,0-16.6.1-33.3,0-49.9,0-4.7,1.6-6.5,6.4-6.5,31.5.1,62.9.1,94.4,0,4.8,0,6.4,1.8,6.4,6.5-.2,18.6,0,37.3,0,55.9,0,6-.7,6.7-6.6,6.7-29,0-57.9,0-87.4,0M88.3,100c15.5-14.4,31-28.7,47.1-43.6H41.4c15.8,14.7,31,29,46.8,43.6M123.2,119.1h12.3c-10.8-10-20.7-19.2-30.7-28.6-4.2,3.9-8.1,7.4-11.9,11.1-4.7,4.5-4.6,4.5-9.5,0-3.8-3.6-7.7-7.2-11.8-11.1-10.1,9.4-20,18.7-30.7,28.6h82.1M37.9,114.7c.6,0,1.4.1,1.7-.2,9.6-8.8,19.2-17.7,29.1-26.9-10.2-9.5-20.2-18.7-30.9-28.6,0,19.3,0,37,0,55.7M138.8,100.6v-41.6c-10.9,10.1-20.7,19.3-30.8,28.6,10.1,9.4,20,18.6,30.8,28.6v-15.6Z"/>
  <path class="st2" d="M88,99.8c-15.5-14.4-30.8-28.7-46.5-43.4h93.9c-16.1,14.9-31.6,29.2-47.4,43.4Z"/>
  <path class="st2" d="M122.7,119.1H41.1c10.6-9.9,20.5-19.1,30.7-28.6,4.1,3.8,8,7.4,11.8,11.1,4.9,4.6,4.8,4.5,9.5,0,3.8-3.7,7.7-7.2,11.9-11.1,10,9.3,19.9,18.5,30.7,28.6h-12.8Z"/>
  <path class="st3" d="M37.8,114.2c0-18.2,0-36,0-55.2,10.7,9.9,20.7,19.1,30.9,28.6-9.9,9.2-19.5,18.1-29.1,26.9-.3.3-1.1.1-1.8-.2Z"/>
  <path class="st3" d="M138.8,101.1v15.1c-10.8-10-20.7-19.2-30.8-28.6,10.1-9.4,19.9-18.5,30.8-28.6v42.1Z"/>
</svg>