<svg version="1.1" id="Layer_1" xmlns="http://www.w3.org/2000/svg" xmlns:xlink="http://www.w3.org/1999/xlink" x="0px" y="0px"
	 width="100%" viewBox="0 0 190 188" enable-background="new 0 0 190 188" xml:space="preserve">
<path fill="#000000" opacity="1.000000" stroke="none" 
	d="
M109.000000,189.000000 
	C72.666672,189.000000 36.833336,189.000000 1.000005,189.000000 
	C1.000003,126.333336 1.000003,63.666679 1.000002,1.000013 
	C64.333321,1.000009 127.666649,1.000009 190.999969,1.000004 
	C190.999985,63.666653 190.999985,126.333305 191.000000,188.999969 
	C163.833328,189.000000 136.666672,189.000000 109.000000,189.000000 
M180.981598,116.362328 
	C182.903000,106.182503 184.599991,96.163017 183.213623,85.550095 
	C181.002716,68.625061 175.627197,53.395237 164.712433,40.118465 
	C144.768753,15.858873 119.454918,4.481741 87.932228,6.906558 
	C74.864433,7.911771 62.749645,11.532943 51.565090,18.181276 
	C23.226013,35.026619 8.676357,60.462444 7.217309,92.960556 
	C6.461095,109.804077 11.246641,125.856827 20.166170,140.389496 
	C29.485353,155.573318 42.256451,167.256805 58.404308,174.513489 
	C73.076149,181.106873 88.548088,184.194427 104.999214,182.149109 
	C123.757683,179.816879 140.150909,172.848831 154.166687,160.297455 
	C167.267670,148.565308 176.361206,134.279236 180.981598,116.362328 
z"/>
<path fill="#005F99" opacity="1.000000" stroke="none" 
	d="
M180.933304,116.778915 
	C176.361206,134.279236 167.267670,148.565308 154.166687,160.297455 
	C140.150909,172.848831 123.757683,179.816879 104.999214,182.149109 
	C88.548088,184.194427 73.076149,181.106873 58.404308,174.513489 
	C42.256451,167.256805 29.485353,155.573318 20.166170,140.389496 
	C11.246641,125.856827 6.461095,109.804077 7.217309,92.960556 
	C8.676357,60.462444 23.226013,35.026619 51.565090,18.181276 
	C62.749645,11.532943 74.864433,7.911771 87.932228,6.906558 
	C119.454918,4.481741 144.768753,15.858873 164.712433,40.118465 
	C175.627197,53.395237 181.002716,68.625061 183.213623,85.550095 
	C184.599991,96.163017 182.903000,106.182503 180.933304,116.778915 
M55.532459,129.015350 
	C84.500809,129.015320 113.469162,129.022186 142.437515,129.009537 
	C148.341370,129.006958 149.005600,128.328598 149.010117,122.352539 
	C149.024200,103.706268 148.920837,85.059166 149.081345,66.414268 
	C149.121674,61.728416 147.497223,59.898640 142.702942,59.918297 
	C111.237869,60.047306 79.771751,60.047058 48.306671,59.918427 
	C43.521595,59.898865 41.870171,61.709293 41.918262,66.404755 
	C42.088772,83.051476 42.004246,99.701042 41.978580,116.349472 
	C41.957428,130.071823 40.856522,129.078751 55.532459,129.015350 
z"/>
<path fill="#050505" opacity="1.000000" stroke="none" 
	d="
M55.039383,129.015350 
	C40.856522,129.078751 41.957428,130.071823 41.978580,116.349472 
	C42.004246,99.701042 42.088772,83.051476 41.918262,66.404755 
	C41.870171,61.709293 43.521595,59.898865 48.306671,59.918427 
	C79.771751,60.047058 111.237869,60.047306 142.702942,59.918297 
	C147.497223,59.898640 149.121674,61.728416 149.081345,66.414268 
	C148.920837,85.059166 149.024200,103.706268 149.010117,122.352539 
	C149.005600,128.328598 148.341370,129.006958 142.437515,129.009537 
	C113.469162,129.022186 84.500809,129.015320 55.039383,129.015350 
M95.499985,106.929039 
	C111.002899,92.574211 126.505814,78.219376 142.582397,63.333366 
	C110.812492,63.333366 80.059380,63.333366 48.654282,63.333366 
	C64.410614,78.060547 79.655685,92.309853 95.499985,106.929039 
M130.460510,125.992958 
	C134.194473,125.992958 137.928421,125.992958 142.806915,125.992958 
	C132.029388,115.969185 122.146614,106.777588 112.107880,97.440941 
	C107.953110,101.308037 104.033569,104.854431 100.230637,108.521744 
	C95.557312,113.028427 95.606453,113.064598 90.755264,108.484879 
	C86.920914,104.865097 83.066452,101.266602 78.967613,97.420998 
	C68.844467,106.856354 58.934254,116.093239 48.312885,125.992958 
	C76.211906,125.992958 102.842667,125.992958 130.460510,125.992958 
M45.100811,121.572548 
	C45.681206,121.526634 46.473465,121.711372 46.811150,121.401207 
	C56.442276,112.555107 66.027725,103.659286 75.918625,94.495399 
	C65.680161,85.025261 55.743256,75.834053 45.011250,65.907410 
	C45.011250,85.183456 45.011250,102.957077 45.100811,121.572548 
M145.994995,107.492302 
	C145.994995,94.008560 145.994995,80.524826 145.994995,65.886307 
	C135.099655,76.019409 125.281578,85.150620 115.208839,94.518677 
	C125.307945,103.904495 135.188721,113.087387 145.994995,123.130417 
	C145.994995,117.342453 145.994995,112.914673 145.994995,107.492302 
z"/>
<path fill="#FEFEFE" opacity="1.000000" stroke="none" 
	d="
M95.200371,106.744102 
	C79.655685,92.309853 64.410614,78.060547 48.654282,63.333366 
	C80.059380,63.333366 110.812492,63.333366 142.582397,63.333366 
	C126.505814,78.219376 111.002899,92.574211 95.200371,106.744102 
z"/>
<path fill="#FEFEFE" opacity="1.000000" stroke="none" 
	d="
M129.966965,125.992958 
	C102.842667,125.992958 76.211906,125.992958 48.312885,125.992958 
	C58.934254,116.093239 68.844467,106.856354 78.967613,97.420998 
	C83.066452,101.266602 86.920914,104.865097 90.755264,108.484879 
	C95.606453,113.064598 95.557312,113.028427 100.230637,108.521744 
	C104.033569,104.854431 107.953110,101.308037 112.107880,97.440941 
	C122.146614,106.777588 132.029388,115.969185 142.806915,125.992958 
	C137.928421,125.992958 134.194473,125.992958 129.966965,125.992958 
z"/>
<path fill="#FDFDFD" opacity="1.000000" stroke="none" 
	d="
M45.056030,121.151627 
	C45.011250,102.957077 45.011250,85.183456 45.011250,65.907410 
	C55.743256,75.834053 65.680161,85.025261 75.918625,94.495399 
	C66.027725,103.659286 56.442276,112.555107 46.811150,121.401207 
	C46.473465,121.711372 45.681206,121.526634 45.056030,121.151627 
z"/>
<path fill="#FDFDFD" opacity="1.000000" stroke="none" 
	d="
M145.994995,107.989594 
	C145.994995,112.914673 145.994995,117.342453 145.994995,123.130417 
	C135.188721,113.087387 125.307945,103.904495 115.208839,94.518677 
	C125.281578,85.150620 135.099655,76.019409 145.994995,65.886307 
	C145.994995,80.524826 145.994995,94.008560 145.994995,107.989594 
z"/>
</svg>