<svg xmlns="http://www.w3.org/2000/svg" viewBox="0 0 80 80"><title>アセット 392x@f</title><g id="レイヤー_2" data-name="レイヤー 2"><g id="contents"><circle cx="40" cy="40" r="40" style="fill:#b60081"/><path d="M55.67,43.33c-.17-5.12.71-10.1.92-14.91l-3-10.67H43.15L40.21,28.42c.21,4.72,1.09,9.65.91,14.77-.21,6-3.26,21.06-3.26,21.06h4.39l3.4-14L47,39.1l2.88,3.24,1.31,7.92,3.39,14h4.4S55.87,49.34,55.67,43.33ZM48.59,32.2l-2.76-2.32,1.43-2.74h2.65l1.31,2.71Z" style="fill:#fff"/><polygon points="27.12 34.06 25.36 34.06 25.36 18.52 26.25 16.25 27.12 18.52 27.12 34.06" style="fill:#fff"/><rect x="24.82" y="34.06" width="2.85" height="9.55" style="fill:#fff"/><path d="M26.25,64.42A3.45,3.45,0,0,0,29.71,61V57.65H22.8V61A3.44,3.44,0,0,0,26.25,64.42Z" style="fill:#fff"/><polygon points="29.71 57.65 22.77 57.65 23.7 43.56 28.47 43.56 29.71 57.65" style="fill:#fff"/></g></g></svg>