<svg xmlns="http://www.w3.org/2000/svg" viewBox="0 0 80 80"><title>アセット 402x@f</title><g id="レイヤー_2" data-name="レイヤー 2"><g id="contents"><circle cx="40" cy="40" r="40" style="fill:#e60039"/><rect x="27.09" y="16.5" width="25.81" height="38.27" style="fill:#fff"/><rect x="59.88" y="33.77" width="2" height="16" style="fill:#fff"/><polygon points="61.38 44.77 60.38 44.77 60.38 28.77 60.88 26.42 61.38 28.77 61.38 44.77" style="fill:#fff"/><rect x="17.38" y="33.77" width="2" height="16" style="fill:#fff"/><polygon points="18.88 44.77 17.88 44.77 17.88 28.77 18.38 26.06 18.88 28.77 18.88 44.77" style="fill:#fff"/><path d="M31.7,64.1a4.46,4.46,0,0,1-.88-.09l-8.09-1.62a5.73,5.73,0,0,1-4.6-5.61V49h.5v7.76a5.23,5.23,0,0,0,4.19,5.12l8.1,1.62a3.93,3.93,0,0,0,4.71-3.86V54.77h.5v4.89A4.45,4.45,0,0,1,31.7,64.1Z" style="fill:#fff"/><path d="M47.56,64.1a4.44,4.44,0,0,1-4.43-4.44V54.77h.5v4.89a3.93,3.93,0,0,0,4.7,3.86l8.1-1.62a5.23,5.23,0,0,0,4.2-5.12V49h.5v7.76a5.74,5.74,0,0,1-4.6,5.61L48.43,64A4.28,4.28,0,0,1,47.56,64.1Z" style="fill:#fff"/><polygon points="50.38 36.7 30.54 36.7 30.54 35.7 49.38 35.7 49.38 19.27 50.38 19.27 50.38 36.7" style="fill:#e60039"/><path d="M43.38,40.36a5.43,5.43,0,0,1,2.43,4,5.91,5.91,0,0,1-6,6.55,5.43,5.43,0,0,1-4.21-2,6.1,6.1,0,0,0,4.19,1.26A5.65,5.65,0,0,0,45,44.4,6.16,6.16,0,0,0,43.38,40.36Z" style="fill:#e60039"/><polygon points="39.22 32.06 34.63 24.77 40.03 31.48 39.22 32.06" style="fill:#e60039"/></g></g></svg>