<?xml version="1.0" encoding="UTF-8"?>
<svg id="_レイヤー_1" data-name="レイヤー 1" xmlns="http://www.w3.org/2000/svg" viewBox="0 0 80 80">
  <defs>
    <style>
      .cls-1 {
        fill: #fff;
      }

      .cls-2 {
        fill: #1262b2;
      }
    </style>
  </defs>
  <g id="_レイヤー_2" data-name="レイヤー 2">
    <g id="contents">
      <circle class="cls-2" cx="40" cy="40" r="40"/>
      <rect class="cls-1" x="27.09" y="16.5" width="25.81" height="38.27"/>
      <rect class="cls-1" x="59.88" y="33.77" width="2" height="16"/>
      <polygon class="cls-1" points="61.38 44.77 60.38 44.77 60.38 28.77 60.88 26.42 61.38 28.77 61.38 44.77"/>
      <rect class="cls-1" x="17.38" y="33.77" width="2" height="16"/>
      <polygon class="cls-1" points="18.88 44.77 17.88 44.77 17.88 28.77 18.38 26.06 18.88 28.77 18.88 44.77"/>
      <path class="cls-1" d="M31.7,64.1c-.3,0-.59-.03-.88-.09l-8.09-1.62c-2.67-.54-4.6-2.88-4.6-5.61v-7.78h.5v7.76c0,2.49,1.75,4.63,4.19,5.12l8.1,1.62c2.13.43,4.2-.94,4.63-3.07.05-.26.08-.52.08-.79v-4.87h.5v4.89c0,2.45-1.98,4.43-4.43,4.44Z"/>
      <path class="cls-1" d="M47.56,64.1c-2.45,0-4.43-1.99-4.43-4.44v-4.89h.5v4.89c0,2.17,1.75,3.93,3.92,3.94.26,0,.52-.03.78-.08l8.1-1.62c2.44-.49,4.2-2.63,4.2-5.12v-7.78h.5v7.76c0,2.72-1.93,5.07-4.6,5.61l-8.1,1.63c-.29.06-.58.1-.87.1Z"/>
      <polygon class="cls-2" points="50.38 36.7 30.54 36.7 30.54 35.7 49.38 35.7 49.38 19.27 50.38 19.27 50.38 36.7"/>
      <path class="cls-2" d="M43.38,40.36c1.37.9,2.27,2.37,2.43,4,.35,3.24-1.99,6.16-5.23,6.52-.25.03-.51.04-.77.03-1.63,0-3.18-.73-4.21-2,1.19.92,2.69,1.37,4.19,1.26,2.99-.23,5.28-2.77,5.21-5.77-.03-1.5-.61-2.94-1.62-4.04Z"/>
      <polygon class="cls-2" points="39.22 32.06 34.63 24.77 40.03 31.48 39.22 32.06"/>
    </g>
  </g>
</svg>