<?xml version="1.0" encoding="UTF-8"?>
<svg xmlns="http://www.w3.org/2000/svg" xmlns:xlink="http://www.w3.org/1999/xlink" width="50px" height="50px" viewBox="0 0 50 50" version="1.1">
<g id="surface1">
<path style=" stroke:none;fill-rule:nonzero;fill:rgb(71.372549%,0%,50.588235%);fill-opacity:1;" d="M 50 25 C 50 38.808594 38.808594 50 25 50 C 11.191406 50 0 38.808594 0 25 C 0 11.191406 11.191406 0 25 0 C 38.808594 0 50 11.191406 50 25 Z M 50 25 "/>
<path style=" stroke:none;fill-rule:nonzero;fill:rgb(100%,100%,100%);fill-opacity:1;" d="M 34.792969 27.082031 C 34.6875 23.882812 35.238281 20.769531 35.367188 17.761719 L 33.492188 11.09375 L 26.96875 11.09375 L 25.132812 17.761719 C 25.261719 20.710938 25.8125 23.792969 25.699219 26.992188 C 25.570312 30.742188 23.664062 40.15625 23.664062 40.15625 L 26.40625 40.15625 L 28.53125 31.40625 L 29.375 24.4375 L 31.175781 26.460938 L 31.992188 31.414062 L 34.113281 40.164062 L 36.863281 40.164062 C 36.863281 40.164062 34.917969 30.835938 34.792969 27.082031 Z M 30.367188 20.125 L 28.644531 18.675781 L 29.539062 16.960938 L 31.195312 16.960938 L 32.011719 18.65625 Z M 30.367188 20.125 "/>
<path style=" stroke:none;fill-rule:nonzero;fill:rgb(100%,100%,100%);fill-opacity:1;" d="M 16.949219 21.289062 L 15.851562 21.289062 L 15.851562 11.574219 L 16.40625 10.15625 L 16.949219 11.574219 Z M 16.949219 21.289062 "/>
<path style=" stroke:none;fill-rule:nonzero;fill:rgb(100%,100%,100%);fill-opacity:1;" d="M 15.511719 21.289062 L 17.292969 21.289062 L 17.292969 27.257812 L 15.511719 27.257812 Z M 15.511719 21.289062 "/>
<path style=" stroke:none;fill-rule:nonzero;fill:rgb(100%,100%,100%);fill-opacity:1;" d="M 16.40625 40.261719 C 17.59375 40.265625 18.558594 39.3125 18.570312 38.125 L 18.570312 36.03125 L 14.25 36.03125 L 14.25 38.125 C 14.257812 39.308594 15.222656 40.265625 16.40625 40.261719 Z M 16.40625 40.261719 "/>
<path style=" stroke:none;fill-rule:nonzero;fill:rgb(100%,100%,100%);fill-opacity:1;" d="M 18.570312 36.03125 L 14.230469 36.03125 L 14.8125 27.226562 L 17.792969 27.226562 Z M 18.570312 36.03125 "/>
</g>
</svg>
