<svg xmlns="http://www.w3.org/2000/svg" viewBox="0 0 80 80"><title>アセット 372x@f</title><g id="レイヤー_2" data-name="レイヤー 2"><g id="contents"><circle cx="40" cy="40" r="40" style="fill:#00a73c"/><path d="M62,46.79l-1.52-1.14L59.4,42c0-9.85-5.95-17.84-14.64-17.84H35.41c-8.69,0-14.64,8-14.64,17.84l-1.09,3.21-1.83,1.61a2.12,2.12,0,0,0,0,3.14l4.92,4.54a5.15,5.15,0,0,0,4.13,1.33,105.78,105.78,0,0,1,26.49,0,4.74,4.74,0,0,0,3.77-1.19l5-4.57A2.13,2.13,0,0,0,62,46.79Z" style="fill:#fff"/><path d="M23.07,51.4a4.8,4.8,0,0,0,2,1.13,5.15,5.15,0,0,0,1.17.16c.38,0,.8-.07,1.24-.11q2.59-.27,5.19-.42a103.28,103.28,0,0,1,10.41-.08c3.46.13,6.93.48,10.34.92a9,9,0,0,0,2.41-.77c.79-.34,1.58-.7,2.35-1.08,1.56-.75,3.1-1.54,4.62-2.35-1.5.85-3,1.68-4.56,2.47-.77.39-1.55.77-2.34,1.13a8.62,8.62,0,0,1-2.49.85c-3.46-.36-6.89-.62-10.35-.67a101.66,101.66,0,0,0-10.33.33c-1.72.13-3.44.32-5.14.54a13.14,13.14,0,0,1-1.34.14,5.46,5.46,0,0,1-1.4-.15,5.81,5.81,0,0,1-2.49-1.31Z" style="fill:#00a73c"/><rect x="35.19" y="38.88" width="9.62" height="2.25" style="fill:#00a73c"/><rect x="38.87" y="35.19" width="2.25" height="9.62" style="fill:#00a73c"/></g></g></svg>