<svg xmlns="http://www.w3.org/2000/svg" xmlns:xlink="http://www.w3.org/1999/xlink" viewBox="0 0 80 80"><defs><clipPath id="clip-path"><circle cx="40" cy="40" r="40" style="fill:none"/></clipPath></defs><title>iアートボード 22</title><g id="contents"><circle cx="40" cy="40" r="40" style="fill:#00a73c"/><g style="clip-path:url(#clip-path)"><path d="M89.33,58.48H44A19.21,19.21,0,0,1,24.83,39.3V-6h6V39.3A13.2,13.2,0,0,0,44,52.48H89.33Z" style="fill:#fff"/><path d="M26.57,25.84H30a0,0,0,0,1,0,0v11a0,0,0,0,1,0,0H26.68a1,1,0,0,1-1-1v-9A.93.93,0,0,1,26.57,25.84Z" transform="translate(-3.51 59.18) rotate(-90)" style="fill:#fff"/><path d="M25.64,19.85h3.16A1.24,1.24,0,0,1,30,21.09v8.5a1.26,1.26,0,0,1-1.26,1.26H25.64a0,0,0,0,1,0,0v-11A0,0,0,0,1,25.64,19.85Z" transform="translate(2.48 53.19) rotate(-90)" style="fill:#fff"/><rect x="22.33" y="27.52" width="11" height="2" style="fill:#00a73c"/><path d="M50.53,50H54a0,0,0,0,1,0,0V61a0,0,0,0,1,0,0H50.49a.88.88,0,0,1-.88-.88V50.9a.92.92,0,0,1,.92-.92Z" style="fill:#fff"/><path d="M55.6,50h3.45a.94.94,0,0,1,.94.94v9a1,1,0,0,1-1,1H55.6a0,0,0,0,1,0,0V50A0,0,0,0,1,55.6,50Z" style="fill:#fff"/><rect x="53.63" y="49.98" width="2" height="11" style="fill:#00a73c"/></g><polygon points="59.88 56.67 73.38 57.17 59.88 57.67 59.88 56.67" style="fill:#00a73c"/><polygon points="26.13 23.03 26.63 4.58 27.13 23.03 26.13 23.03" style="fill:#00a73c"/><path d="M49.61,57.67H44.89A19.21,19.21,0,0,1,25.71,38.48V33.54h1v4.94A18.21,18.21,0,0,0,44.89,56.67h4.72Z" style="fill:#00a73c"/></g></svg>