<svg xmlns="http://www.w3.org/2000/svg" viewBox="0 0 80 80"><title>アセット 352x@f</title><g id="レイヤー_2" data-name="レイヤー 2"><g id="contents"><circle cx="40" cy="40" r="40" style="fill:#00a73c"/><rect x="18.57" y="58.5" width="44.74" height="1" style="fill:#fff"/><polygon points="22.31 58.48 22.31 21.76 34.26 15.45 49.95 23.22 49.95 31.73 59.84 35.17 59.84 58.48 22.31 58.48" style="fill:#fff"/><rect x="33.83" y="14.5" width="1" height="43.98" style="fill:#00a73c"/><polygon points="36.38 18.27 36.38 58.43 38.44 58.43 38.44 19.33 36.38 18.27" style="fill:#00a73c"/><polygon points="40.05 19.87 40.05 58.43 42.11 58.43 42.11 20.92 40.05 19.87" style="fill:#00a73c"/><polygon points="43.54 21.58 43.54 58.43 45.6 58.43 45.6 22.63 43.54 21.58" style="fill:#00a73c"/><polygon points="46.94 23.03 46.94 58.43 49 58.43 49 24.08 46.94 23.03" style="fill:#00a73c"/><polygon points="50.58 33.15 50.58 58.43 52.63 58.43 52.63 33.83 50.58 33.15" style="fill:#00a73c"/><polygon points="53.68 34.29 53.68 58.43 55.74 58.43 55.74 35 53.68 34.29" style="fill:#00a73c"/><polygon points="56.79 35.4 56.79 58.48 58.85 58.48 58.85 36.04 56.79 35.4" style="fill:#00a73c"/></g></g></svg>