<svg xmlns="http://www.w3.org/2000/svg" viewBox="0 0 80 80"><title>アセット 412x@f</title><g id="レイヤー_2" data-name="レイヤー 2"><g id="contents"><circle cx="40" cy="40" r="40" style="fill:#00afcc"/><path d="M52.14,45.5a11.84,11.84,0,0,1-23.67,0C28.47,39,40.3,18.67,40.3,18.67S52.14,39,52.14,45.5Z" style="fill:#fff"/><path d="M46.12,36.19a37.68,37.68,0,0,1,3.21,7,10.35,10.35,0,0,1,.46,1.94,5.8,5.8,0,0,1,0,1,6.63,6.63,0,0,1-.08,1,9.44,9.44,0,0,1-1.38,3.77,9.25,9.25,0,0,1-10.52,3.83,8.75,8.75,0,0,1-3.32-2,9.32,9.32,0,0,0,7.12,1.56,8.9,8.9,0,0,0,5.88-4A8.66,8.66,0,0,0,48.81,47a5.52,5.52,0,0,0,.11-.91,5.29,5.29,0,0,0,0-.89,14.78,14.78,0,0,0-.32-1.82,34.5,34.5,0,0,0-1.15-3.62C47,38.58,46.56,37.39,46.12,36.19Z" style="fill:#00afcc"/></g></g></svg>