<svg version="1.1" id="Layer_1" xmlns="http://www.w3.org/2000/svg" xmlns:xlink="http://www.w3.org/1999/xlink" x="0px" y="0px"
	 width="100%" viewBox="0 0 372 355" enable-background="new 0 0 372 355" xml:space="preserve">
<path fill="#000000" opacity="1.000000" stroke="none" 
	d="
M208.000000,356.000000 
	C138.690338,356.000000 69.880661,356.000000 1.035497,356.000000 
	C1.035497,237.731018 1.035497,119.462036 1.035497,1.096522 
	C124.892960,1.096522 248.786011,1.096522 372.839539,1.096522 
	C372.839539,119.333160 372.839539,237.666565 372.839539,356.000000 
	C318.128754,356.000000 263.314392,356.000000 208.000000,356.000000 
M84.003029,45.496185 
	C77.183830,51.650517 70.114372,57.552101 63.594074,64.008301 
	C46.531570,80.903076 34.871841,101.274536 27.043613,123.779625 
	C19.439556,145.640244 15.896415,168.183075 19.071196,191.331589 
	C20.605309,202.517395 22.084490,213.854996 25.233116,224.643921 
	C31.087008,244.702576 40.598991,263.204712 54.033218,279.299774 
	C61.517231,288.266113 69.531593,297.025360 78.468910,304.485962 
	C90.833199,314.807312 104.658051,323.066895 119.654297,329.439331 
	C138.664093,337.517334 158.408371,342.055115 178.893616,342.817444 
	C189.235214,343.202271 199.660324,341.831970 210.025482,340.984039 
	C226.786026,339.612915 242.415817,334.062683 257.516052,327.089325 
	C277.608032,317.810760 295.035309,304.928864 310.143616,288.573181 
	C325.958893,271.452148 337.334167,251.900131 345.000946,230.110764 
	C352.698517,208.233948 356.076752,185.693329 352.924408,162.551147 
	C351.423157,151.529984 349.881775,140.386032 346.842316,129.730164 
	C341.066589,109.481247 331.476501,90.884171 317.950836,74.682785 
	C310.466125,65.717400 302.444611,56.967056 293.509521,49.503117 
	C281.666931,39.610394 268.461487,31.606979 254.109833,25.408028 
	C234.073517,16.753700 213.287491,11.936148 191.585922,11.096931 
	C184.336258,10.816581 176.933517,10.991757 169.793732,12.149200 
	C157.370682,14.163125 144.865723,16.310612 132.816513,19.840570 
	C115.183426,25.006393 99.199837,33.873734 84.003029,45.496185 
z"/>
<path fill="#005F99" opacity="1.000000" stroke="none" 
	d="
M84.263397,45.243652 
	C99.199837,33.873734 115.183426,25.006393 132.816513,19.840570 
	C144.865723,16.310612 157.370682,14.163125 169.793732,12.149200 
	C176.933517,10.991757 184.336258,10.816581 191.585922,11.096931 
	C213.287491,11.936148 234.073517,16.753700 254.109833,25.408028 
	C268.461487,31.606979 281.666931,39.610394 293.509521,49.503117 
	C302.444611,56.967056 310.466125,65.717400 317.950836,74.682785 
	C331.476501,90.884171 341.066589,109.481247 346.842316,129.730164 
	C349.881775,140.386032 351.423157,151.529984 352.924408,162.551147 
	C356.076752,185.693329 352.698517,208.233948 345.000946,230.110764 
	C337.334167,251.900131 325.958893,271.452148 310.143616,288.573181 
	C295.035309,304.928864 277.608032,317.810760 257.516052,327.089325 
	C242.415817,334.062683 226.786026,339.612915 210.025482,340.984039 
	C199.660324,341.831970 189.235214,343.202271 178.893616,342.817444 
	C158.408371,342.055115 138.664093,337.517334 119.654297,329.439331 
	C104.658051,323.066895 90.833199,314.807312 78.468910,304.485962 
	C69.531593,297.025360 61.517231,288.266113 54.033218,279.299774 
	C40.598991,263.204712 31.087008,244.702576 25.233116,224.643921 
	C22.084490,213.854996 20.605309,202.517395 19.071196,191.331589 
	C15.896415,168.183075 19.439556,145.640244 27.043613,123.779625 
	C34.871841,101.274536 46.531570,80.903076 63.594074,64.008301 
	C70.114372,57.552101 77.183830,51.650517 84.263397,45.243652 
M262.427094,263.679077 
	C262.006134,262.787292 261.585205,261.895508 260.785522,260.329041 
	C258.750397,259.552704 256.723846,258.130707 254.678787,258.103516 
	C240.082687,257.909424 225.481964,258.070343 210.885269,257.899933 
	C209.276306,257.881165 206.619278,256.795746 206.287704,255.665451 
	C205.385345,252.589340 205.469650,249.223801 205.511337,245.789551 
	C205.728485,245.627319 205.882294,245.418442 206.905945,245.038315 
	C236.230469,245.025513 265.555023,245.031769 294.879486,244.987305 
	C302.777344,244.975327 307.975708,239.888962 307.982574,232.084167 
	C308.019226,190.429718 308.016205,148.775208 307.986176,107.120758 
	C307.980164,98.779541 303.102142,94.002357 294.791504,94.001961 
	C222.645950,93.998566 150.500397,93.998650 78.354851,94.001717 
	C69.289520,94.002106 65.002823,98.277504 65.001869,107.319839 
	C64.997589,148.141220 65.285660,188.965927 64.812973,229.781830 
	C64.683670,240.947281 71.165367,245.201813 80.534668,245.115967 
	C109.353714,244.851883 138.177521,245.108322 167.004181,245.811325 
	C167.016586,246.244110 167.028992,246.676910 167.009918,247.972321 
	C166.618973,250.990555 166.228012,254.008804 165.488632,257.210419 
	C165.271500,257.372650 165.117722,257.581543 164.094070,257.961670 
	C148.767899,257.974457 133.440414,257.892517 118.116982,258.103577 
	C115.853218,258.134735 111.957527,259.154144 111.657173,260.400696 
	C110.660141,264.538666 110.153992,269.156281 111.007187,273.268890 
	C111.742729,276.814331 115.709808,277.056976 119.216713,277.046814 
	C147.870056,276.963745 176.523758,277.000000 205.177353,277.000000 
	C221.669830,277.000000 238.162308,277.012634 254.654755,276.992981 
	C260.246033,276.986298 261.969818,275.210419 261.993347,269.541718 
	C262.000946,267.710663 261.930298,265.879272 262.427094,263.679077 
z"/>
<path fill="#000000" opacity="1.000000" stroke="none" 
	d="
M205.162933,245.972961 
	C205.469650,249.223801 205.385345,252.589340 206.287704,255.665451 
	C206.619278,256.795746 209.276306,257.881165 210.885269,257.899933 
	C225.481964,258.070343 240.082687,257.909424 254.678787,258.103516 
	C256.723846,258.130707 258.750397,259.552704 260.913452,261.002930 
	C261.326050,262.467255 261.610718,263.257629 261.895447,264.048035 
	C261.930298,265.879272 262.000946,267.710663 261.993347,269.541718 
	C261.969818,275.210419 260.246033,276.986298 254.654755,276.992981 
	C238.162308,277.012634 221.669830,277.000000 205.177353,277.000000 
	C176.523758,277.000000 147.870056,276.963745 119.216713,277.046814 
	C115.709808,277.056976 111.742729,276.814331 111.007187,273.268890 
	C110.153992,269.156281 110.660141,264.538666 111.657173,260.400696 
	C111.957527,259.154144 115.853218,258.134735 118.116982,258.103577 
	C133.440414,257.892517 148.767899,257.974457 164.797516,257.898773 
	C165.835129,257.658630 165.947174,257.389008 165.837067,257.027039 
	C166.228012,254.008804 166.618973,250.990555 167.282013,247.400604 
	C167.369217,246.273407 167.184357,245.717941 166.999481,245.162476 
	C138.177521,245.108322 109.353714,244.851883 80.534668,245.115967 
	C71.165367,245.201813 64.683670,240.947281 64.812973,229.781830 
	C65.285660,188.965927 64.997589,148.141220 65.001869,107.319839 
	C65.002823,98.277504 69.289520,94.002106 78.354851,94.001717 
	C150.500397,93.998650 222.645950,93.998566 294.791504,94.001961 
	C303.102142,94.002357 307.980164,98.779541 307.986176,107.120758 
	C308.016205,148.775208 308.019226,190.429718 307.982574,232.084167 
	C307.975708,239.888962 302.777344,244.975327 294.879486,244.987305 
	C265.555023,245.031769 236.230469,245.025513 206.202515,245.101196 
	C205.164886,245.341354 205.052841,245.610977 205.162933,245.972961 
M69.000000,199.500000 
	C69.000000,209.161560 69.465576,218.852295 68.862083,228.476013 
	C68.316689,237.173401 72.930260,241.101181 81.520584,241.082962 
	C151.150803,240.935226 220.781464,241.000000 290.411987,240.999954 
	C291.578064,240.999954 292.752289,241.089294 293.908813,240.984131 
	C300.234619,240.408905 303.983856,236.512619 303.987518,230.343140 
	C304.011658,189.697571 304.022400,149.051956 303.978485,108.406441 
	C303.970947,101.439293 300.342529,98.002388 293.368591,98.002060 
	C222.072266,97.998695 150.775940,97.998108 79.479607,98.002983 
	C72.486458,98.003464 69.004181,101.511719 69.002693,108.546684 
	C68.996353,138.531128 69.000000,168.515564 69.000000,199.500000 
M231.500000,273.000000 
	C238.158432,273.000000 244.818130,272.921356 251.474808,273.029480 
	C255.459473,273.094208 258.207184,272.846161 258.204590,267.381042 
	C258.202118,262.159515 255.874908,261.892609 251.845169,261.936310 
	C237.031876,262.096924 222.215485,261.947113 207.401001,262.036957 
	C203.675980,262.059540 202.044479,260.636536 201.924606,256.810120 
	C201.803787,252.953217 201.073181,249.115402 200.603683,245.218964 
	C191.075089,245.218964 181.654037,245.218964 172.135864,245.218964 
	C171.738235,248.808853 171.408524,252.200790 170.977020,255.579742 
	C170.395828,260.130981 168.588272,262.357452 163.172302,262.170227 
	C148.707489,261.670135 134.213165,261.930511 119.733025,262.098541 
	C118.139862,262.116974 115.886108,263.070953 115.098907,264.321381 
	C112.217827,268.897980 114.728844,272.993530 120.136360,272.994934 
	C156.924240,273.004578 193.712128,273.000000 231.500000,273.000000 
z"/>
<path fill="#005F99" opacity="1.000000" stroke="none" 
	d="
M262.161255,263.863556 
	C261.610718,263.257629 261.326050,262.467255 261.102814,261.340271 
	C261.585205,261.895508 262.006134,262.787292 262.161255,263.863556 
z"/>
<path fill="#005F99" opacity="1.000000" stroke="none" 
	d="
M167.001831,245.486908 
	C167.184357,245.717941 167.369217,246.273407 167.297729,246.969284 
	C167.028992,246.676910 167.016586,246.244110 167.001831,245.486908 
z"/>
<path fill="#005F99" opacity="1.000000" stroke="none" 
	d="
M205.337128,245.881256 
	C205.052841,245.610977 205.164886,245.341354 205.735901,245.163483 
	C205.882294,245.418442 205.728485,245.627319 205.337128,245.881256 
z"/>
<path fill="#005F99" opacity="1.000000" stroke="none" 
	d="
M165.662842,257.118713 
	C165.947174,257.389008 165.835129,257.658630 165.264130,257.836487 
	C165.117722,257.581543 165.271500,257.372650 165.662842,257.118713 
z"/>
<path fill="#FFFFFF" opacity="1.000000" stroke="none" 
	d="
M69.000000,199.000000 
	C69.000000,168.515564 68.996353,138.531128 69.002693,108.546684 
	C69.004181,101.511719 72.486458,98.003464 79.479607,98.002983 
	C150.775940,97.998108 222.072266,97.998695 293.368591,98.002060 
	C300.342529,98.002388 303.970947,101.439293 303.978485,108.406441 
	C304.022400,149.051956 304.011658,189.697571 303.987518,230.343140 
	C303.983856,236.512619 300.234619,240.408905 293.908813,240.984131 
	C292.752289,241.089294 291.578064,240.999954 290.411987,240.999954 
	C220.781464,241.000000 151.150803,240.935226 81.520584,241.082962 
	C72.930260,241.101181 68.316689,237.173401 68.862083,228.476013 
	C69.465576,218.852295 69.000000,209.161560 69.000000,199.000000 
M160.338577,132.864319 
	C159.929703,135.047043 159.997482,137.474915 159.024094,139.367279 
	C155.894150,145.452301 156.864594,152.160660 162.673187,155.957336 
	C163.962555,156.800110 165.285522,157.970261 165.960236,159.308670 
	C168.788025,164.918152 172.053940,170.066711 177.724121,173.265366 
	C179.530121,174.284149 181.236404,175.479721 182.988297,176.594391 
	C181.063873,177.834061 179.140884,179.075958 177.213409,180.310837 
	C176.944855,180.482910 176.654175,180.620468 176.286896,180.821548 
	C175.365372,178.266129 174.451614,175.732208 173.207565,172.282364 
	C169.198242,173.873016 165.175232,175.283478 161.310913,177.042618 
	C154.236526,180.263046 146.482208,183.268082 143.120361,190.728210 
	C140.408997,196.744949 139.150833,203.561401 138.155182,210.159958 
	C137.379654,215.299576 138.000000,220.649826 138.000000,225.999939 
	C121.334419,225.999939 105.341995,225.904114 89.352318,226.071442 
	C85.639488,226.110291 84.936371,224.582504 84.946968,221.299469 
	C85.038979,192.800003 85.057381,164.299850 84.929726,135.800674 
	C84.913177,132.106506 85.995491,130.888489 89.752304,130.925568 
	C106.917160,131.095047 124.085159,131.059113 141.250244,130.901611 
	C142.833923,130.887070 145.638550,129.651672 145.759613,128.710815 
	C146.190262,125.363884 143.270081,126.019531 141.230484,126.016235 
	C123.730682,125.987961 106.230766,125.980255 88.730972,126.011032 
	C82.826050,126.021416 81.001060,127.974617 81.000732,134.044571 
	C80.999115,163.710999 80.998871,193.377411 81.000938,223.043839 
	C81.001350,229.034256 82.867958,230.989212 88.819351,230.990601 
	C153.652145,231.005630 218.484955,231.006439 283.317749,230.989014 
	C289.186829,230.987427 291.997681,228.121582 291.998383,222.338989 
	C292.001923,193.172562 292.001282,164.006134 291.998932,134.839706 
	C291.998444,128.781662 289.213898,126.015999 282.996429,126.007401 
	C266.996582,125.985283 250.995834,125.925964 234.998093,126.110008 
	C233.325531,126.129250 231.670532,127.674896 230.007385,128.512329 
	C231.678757,129.341553 233.341904,130.871185 235.022797,130.890945 
	C250.687164,131.075180 266.355286,131.078842 282.020569,130.938904 
	C285.495148,130.907883 287.100342,131.588257 287.079651,135.573471 
	C286.930786,164.239120 286.945526,192.906158 287.068115,221.572067 
	C287.083618,225.196976 285.750244,226.090286 282.375153,226.059433 
	C267.376526,225.922287 252.375946,226.007095 237.376099,225.985092 
	C236.281647,225.983490 235.187485,225.770721 234.000000,225.646362 
	C234.000000,219.844849 234.693878,214.241043 233.820724,208.893066 
	C232.777756,202.504959 231.403412,195.788879 228.371124,190.190659 
	C222.812439,179.928238 211.180649,177.827469 201.612396,173.174393 
	C199.608398,172.199814 196.671204,173.323517 196.972931,176.956573 
	C197.080292,178.249420 196.875839,179.568161 196.754288,182.125580 
	C193.376633,180.074310 190.676407,178.434433 187.371078,176.427094 
	C190.559006,175.137650 193.036728,174.436539 195.208878,173.199051 
	C201.137375,169.821472 204.202667,164.090240 206.982803,158.179459 
	C207.337296,157.425797 207.651169,156.313034 208.262390,156.071518 
	C216.380905,152.863754 216.955154,143.523834 211.640320,138.027908 
	C210.924042,137.287231 210.975876,135.681870 210.901108,134.462860 
	C210.475143,127.519852 212.497818,120.434769 208.505173,113.705795 
	C206.794601,110.822876 206.667801,107.254616 201.994629,109.884926 
	C201.268341,110.293716 199.679260,109.796417 198.810608,109.227394 
	C191.141403,104.203697 182.876526,105.843643 174.628983,106.824287 
	C167.032639,107.727509 162.802597,112.440239 161.127716,119.359467 
	C160.142120,123.431236 160.351318,127.792229 160.338577,132.864319 
z"/>
<path fill="#FFFFFF" opacity="1.000000" stroke="none" 
	d="
M231.000000,273.000000 
	C193.712128,273.000000 156.924240,273.004578 120.136360,272.994934 
	C114.728844,272.993530 112.217827,268.897980 115.098907,264.321381 
	C115.886108,263.070953 118.139862,262.116974 119.733025,262.098541 
	C134.213165,261.930511 148.707489,261.670135 163.172302,262.170227 
	C168.588272,262.357452 170.395828,260.130981 170.977020,255.579742 
	C171.408524,252.200790 171.738235,248.808853 172.135864,245.218964 
	C181.654037,245.218964 191.075089,245.218964 200.603683,245.218964 
	C201.073181,249.115402 201.803787,252.953217 201.924606,256.810120 
	C202.044479,260.636536 203.675980,262.059540 207.401001,262.036957 
	C222.215485,261.947113 237.031876,262.096924 251.845169,261.936310 
	C255.874908,261.892609 258.202118,262.159515 258.204590,267.381042 
	C258.207184,272.846161 255.459473,273.094208 251.474808,273.029480 
	C244.818130,272.921356 238.158432,273.000000 231.000000,273.000000 
z"/>
<path fill="#000000" opacity="1.000000" stroke="none" 
	d="
M160.180847,132.443726 
	C160.351318,127.792229 160.142120,123.431236 161.127716,119.359467 
	C162.802597,112.440239 167.032639,107.727509 174.628983,106.824287 
	C182.876526,105.843643 191.141403,104.203697 198.810608,109.227394 
	C199.679260,109.796417 201.268341,110.293716 201.994629,109.884926 
	C206.667801,107.254616 206.794601,110.822876 208.505173,113.705795 
	C212.497818,120.434769 210.475143,127.519852 210.901108,134.462860 
	C210.975876,135.681870 210.924042,137.287231 211.640320,138.027908 
	C216.955154,143.523834 216.380905,152.863754 208.262390,156.071518 
	C207.651169,156.313034 207.337296,157.425797 206.982803,158.179459 
	C204.202667,164.090240 201.137375,169.821472 195.208878,173.199051 
	C193.036728,174.436539 190.559006,175.137650 187.371078,176.427094 
	C190.676407,178.434433 193.376633,180.074310 196.754288,182.125580 
	C196.875839,179.568161 197.080292,178.249420 196.972931,176.956573 
	C196.671204,173.323517 199.608398,172.199814 201.612396,173.174393 
	C211.180649,177.827469 222.812439,179.928238 228.371124,190.190659 
	C231.403412,195.788879 232.777756,202.504959 233.820724,208.893066 
	C234.693878,214.241043 234.000000,219.844849 234.000000,225.646362 
	C235.187485,225.770721 236.281647,225.983490 237.376099,225.985092 
	C252.375946,226.007095 267.376526,225.922287 282.375153,226.059433 
	C285.750244,226.090286 287.083618,225.196976 287.068115,221.572067 
	C286.945526,192.906158 286.930786,164.239120 287.079651,135.573471 
	C287.100342,131.588257 285.495148,130.907883 282.020569,130.938904 
	C266.355286,131.078842 250.687164,131.075180 235.022797,130.890945 
	C233.341904,130.871185 231.678757,129.341553 230.007385,128.512329 
	C231.670532,127.674896 233.325531,126.129250 234.998093,126.110008 
	C250.995834,125.925964 266.996582,125.985283 282.996429,126.007401 
	C289.213898,126.015999 291.998444,128.781662 291.998932,134.839706 
	C292.001282,164.006134 292.001923,193.172562 291.998383,222.338989 
	C291.997681,228.121582 289.186829,230.987427 283.317749,230.989014 
	C218.484955,231.006439 153.652145,231.005630 88.819351,230.990601 
	C82.867958,230.989212 81.001350,229.034256 81.000938,223.043839 
	C80.998871,193.377411 80.999115,163.710999 81.000732,134.044571 
	C81.001060,127.974617 82.826050,126.021416 88.730972,126.011032 
	C106.230766,125.980255 123.730682,125.987961 141.230484,126.016235 
	C143.270081,126.019531 146.190262,125.363884 145.759613,128.710815 
	C145.638550,129.651672 142.833923,130.887070 141.250244,130.901611 
	C124.085159,131.059113 106.917160,131.095047 89.752304,130.925568 
	C85.995491,130.888489 84.913177,132.106506 84.929726,135.800674 
	C85.057381,164.299850 85.038979,192.800003 84.946968,221.299469 
	C84.936371,224.582504 85.639488,226.110291 89.352318,226.071442 
	C105.341995,225.904114 121.334419,225.999939 138.000000,225.999939 
	C138.000000,220.649826 137.379654,215.299576 138.155182,210.159958 
	C139.150833,203.561401 140.408997,196.744949 143.120361,190.728210 
	C146.482208,183.268082 154.236526,180.263046 161.310913,177.042618 
	C165.175232,175.283478 169.198242,173.873016 173.207565,172.282364 
	C174.451614,175.732208 175.365372,178.266129 176.286896,180.821548 
	C176.654175,180.620468 176.944855,180.482910 177.213409,180.310837 
	C179.140884,179.075958 181.063873,177.834061 182.988297,176.594391 
	C181.236404,175.479721 179.530121,174.284149 177.724121,173.265366 
	C172.053940,170.066711 168.788025,164.918152 165.960236,159.308670 
	C165.285522,157.970261 163.962555,156.800110 162.673187,155.957336 
	C156.864594,152.160660 155.894150,145.452301 159.024094,139.367279 
	C159.997482,137.474915 159.929703,135.047043 160.180847,132.443726 
M179.002274,207.413834 
	C176.151627,197.942307 173.300964,188.470764 170.447220,178.988937 
	C146.302521,187.972107 140.970795,194.443558 143.513016,225.745880 
	C171.912994,225.745880 200.314560,225.745880 228.999557,225.745880 
	C228.999557,219.193771 229.460587,212.849411 228.887543,206.599869 
	C228.100082,198.012054 225.517700,190.130905 216.805054,185.962830 
	C212.031799,183.679352 207.354721,181.194809 202.598999,178.783051 
	C201.984451,180.070389 201.366882,181.041489 201.038010,182.102112 
	C197.004974,195.108047 193.054688,208.139847 188.958496,221.125671 
	C188.476395,222.653961 187.252563,223.948288 186.372589,225.351059 
	C185.884247,225.321930 185.395905,225.292801 184.907562,225.263687 
	C182.949646,219.591522 180.991730,213.919357 179.002274,207.413834 
M169.548264,154.035522 
	C171.289108,157.443771 172.380524,161.458145 174.891022,164.148041 
	C182.818207,172.641602 186.816742,173.259674 194.781509,166.937744 
	C197.078903,165.114227 198.773300,162.446060 200.476990,159.980530 
	C202.731216,156.718292 202.698975,151.798080 207.712173,150.489639 
	C208.360413,150.320450 208.561615,148.438522 209.078552,147.060287 
	C205.500626,147.944183 203.705490,147.032715 204.112778,144.316895 
	C204.762726,139.982849 203.512085,136.879272 201.440704,132.907303 
	C198.643890,127.544220 195.276077,125.721001 190.084152,126.067284 
	C184.425125,126.444725 178.779083,127.216125 173.184555,128.156067 
	C172.301163,128.304489 171.617569,130.196899 171.019180,131.373276 
	C169.711975,133.943115 168.518967,136.571060 167.711670,138.267014 
	C166.718979,142.585068 165.908432,146.110870 164.987747,150.115738 
	C165.755585,150.744629 167.396957,152.088959 169.548264,154.035522 
M167.406876,117.075584 
	C166.342407,120.815437 165.277954,124.555290 164.213486,128.295135 
	C167.171738,126.225075 172.264557,123.514839 175.894608,122.957008 
	C176.353256,122.886520 176.753632,122.455727 177.213684,122.372444 
	C185.075348,120.949432 193.015976,119.095085 200.395737,123.945854 
	C202.543839,125.357826 204.331421,127.318275 206.980087,129.636261 
	C206.980087,126.921600 207.442184,124.848358 206.874924,123.111267 
	C205.957214,120.301064 205.050079,116.507347 202.908279,115.285645 
	C198.742294,112.909348 193.754623,111.921478 189.050949,110.552109 
	C181.877075,108.463600 171.658752,111.440086 167.406876,117.075584 
M186.519821,192.178436 
	C183.178680,198.506363 182.694336,205.004517 185.630692,211.938263 
	C191.126694,205.861755 188.769989,199.334396 186.519821,192.178436 
z"/>
<path fill="#FFFFFF" opacity="1.000000" stroke="none" 
	d="
M179.018051,207.830505 
	C180.991730,213.919357 182.949646,219.591522 184.907562,225.263687 
	C185.395905,225.292801 185.884247,225.321930 186.372589,225.351059 
	C187.252563,223.948288 188.476395,222.653961 188.958496,221.125671 
	C193.054688,208.139847 197.004974,195.108047 201.038010,182.102112 
	C201.366882,181.041489 201.984451,180.070389 202.598999,178.783051 
	C207.354721,181.194809 212.031799,183.679352 216.805054,185.962830 
	C225.517700,190.130905 228.100082,198.012054 228.887543,206.599869 
	C229.460587,212.849411 228.999557,219.193771 228.999557,225.745880 
	C200.314560,225.745880 171.912994,225.745880 143.513016,225.745880 
	C140.970795,194.443558 146.302521,187.972107 170.447220,178.988937 
	C173.300964,188.470764 176.151627,197.942307 179.018051,207.830505 
z"/>
<path fill="#FFFFFF" opacity="1.000000" stroke="none" 
	d="
M169.293304,153.734406 
	C167.396957,152.088959 165.755585,150.744629 164.987747,150.115738 
	C165.908432,146.110870 166.718979,142.585068 167.711670,138.267014 
	C168.518967,136.571060 169.711975,133.943115 171.019180,131.373276 
	C171.617569,130.196899 172.301163,128.304489 173.184555,128.156067 
	C178.779083,127.216125 184.425125,126.444725 190.084152,126.067284 
	C195.276077,125.721001 198.643890,127.544220 201.440704,132.907303 
	C203.512085,136.879272 204.762726,139.982849 204.112778,144.316895 
	C203.705490,147.032715 205.500626,147.944183 209.078552,147.060287 
	C208.561615,148.438522 208.360413,150.320450 207.712173,150.489639 
	C202.698975,151.798080 202.731216,156.718292 200.476990,159.980530 
	C198.773300,162.446060 197.078903,165.114227 194.781509,166.937744 
	C186.816742,173.259674 182.818207,172.641602 174.891022,164.148041 
	C172.380524,161.458145 171.289108,157.443771 169.293304,153.734406 
z"/>
<path fill="#FFFFFF" opacity="1.000000" stroke="none" 
	d="
M167.691772,116.805840 
	C171.658752,111.440086 181.877075,108.463600 189.050949,110.552109 
	C193.754623,111.921478 198.742294,112.909348 202.908279,115.285645 
	C205.050079,116.507347 205.957214,120.301064 206.874924,123.111267 
	C207.442184,124.848358 206.980087,126.921600 206.980087,129.636261 
	C204.331421,127.318275 202.543839,125.357826 200.395737,123.945854 
	C193.015976,119.095085 185.075348,120.949432 177.213684,122.372444 
	C176.753632,122.455727 176.353256,122.886520 175.894608,122.957008 
	C172.264557,123.514839 167.171738,126.225075 164.213486,128.295135 
	C165.277954,124.555290 166.342407,120.815437 167.691772,116.805840 
z"/>
<path fill="#FFFFFF" opacity="1.000000" stroke="none" 
	d="
M186.748535,192.516998 
	C188.769989,199.334396 191.126694,205.861755 185.630692,211.938263 
	C182.694336,205.004517 183.178680,198.506363 186.748535,192.516998 
z"/>
</svg>