<?xml version="1.0" encoding="UTF-8"?>
<svg id="Layer_1" xmlns="http://www.w3.org/2000/svg" version="1.1" viewBox="0 0 336.3 331.6">
  <!-- Generator: Adobe Illustrator 29.5.1, SVG Export Plug-In . SVG Version: 2.1.0 Build 141)  -->
  <defs>
    <style>
      .st0 {
        fill: #005f99;
      }

      .st1 {
        fill: #fff;
      }
    </style>
  </defs>
  <path class="st0" d="M66.5,34.1c14.9-11.4,30.9-20.2,48.6-25.4,12-3.5,24.6-5.7,37-7.7,7.1-1.2,14.5-1.3,21.8-1.1,21.7.8,42.5,5.7,62.5,14.3,14.4,6.2,27.6,14.2,39.4,24.1,8.9,7.5,17,16.2,24.4,25.2,13.5,16.2,23.1,34.8,28.9,55,3,10.7,4.6,21.8,6.1,32.8,3.2,23.1-.2,45.7-7.9,67.6-7.7,21.8-19,41.3-34.9,58.5-15.1,16.4-32.5,29.2-52.6,38.5-15.1,7-30.7,12.5-47.5,13.9-10.4.8-20.8,2.2-31.1,1.8-20.5-.8-40.2-5.3-59.2-13.4-15-6.4-28.8-14.6-41.2-25-8.9-7.5-17-16.2-24.4-25.2-13.4-16.1-22.9-34.6-28.8-54.7-3.1-10.8-4.6-22.1-6.2-33.3-3.2-23.1.4-45.7,8-67.6,7.8-22.5,19.5-42.9,36.6-59.8,6.5-6.5,13.6-12.4,20.7-18.8M244.6,252.6c-.4-.9-.8-1.8-1.6-3.4-2-.8-4.1-2.2-6.1-2.2-14.6-.2-29.2,0-43.8-.2-1.6,0-4.3-1.1-4.6-2.2-.9-3.1-.8-6.4-.8-9.9.2-.2.4-.4,1.4-.8,29.3,0,58.6,0,88,0,7.9,0,13.1-5.1,13.1-12.9,0-41.7,0-83.3,0-125,0-8.3-4.9-13.1-13.2-13.1-72.1,0-144.3,0-216.4,0-9.1,0-13.4,4.3-13.4,13.3,0,40.8.3,81.6-.2,122.5-.1,11.2,6.4,15.4,15.7,15.3,28.8-.3,57.6,0,86.5.7,0,.4,0,.9,0,2.2-.4,3-.8,6-1.5,9.2-.2.2-.4.4-1.4.8-15.3,0-30.7,0-46,.1-2.3,0-6.2,1.1-6.5,2.3-1,4.1-1.5,8.8-.6,12.9.7,3.5,4.7,3.8,8.2,3.8,28.7,0,57.3,0,86,0s33,0,49.5,0c5.6,0,7.3-1.8,7.3-7.5,0-1.8,0-3.7.4-5.9Z"/>
  <path d="M187.4,234.9c.3,3.3.2,6.6,1.1,9.7.3,1.1,3,2.2,4.6,2.2,14.6.2,29.2,0,43.8.2,2,0,4.1,1.4,6.2,2.9.4,1.5.7,2.3,1,3,0,1.8.1,3.7,0,5.5,0,5.7-1.7,7.4-7.3,7.5-16.5,0-33,0-49.5,0-28.7,0-57.3,0-86,0-3.5,0-7.5-.2-8.2-3.8-.9-4.1-.3-8.7.6-12.9.3-1.2,4.2-2.3,6.5-2.3,15.3-.2,30.7-.1,46.7-.2,1-.2,1.1-.5,1-.9.4-3,.8-6,1.4-9.6,0-1.1,0-1.7-.3-2.2-28.8,0-57.6-.3-86.5,0-9.4,0-15.9-4.2-15.7-15.3.5-40.8.2-81.6.2-122.5,0-9,4.3-13.3,13.4-13.3,72.1,0,144.3,0,216.4,0,8.3,0,13.2,4.8,13.2,13.1,0,41.7,0,83.3,0,125,0,7.8-5.2,12.9-13.1,12.9-29.3,0-58.6,0-88.7.1-1,.2-1.1.5-1,.9M51.2,188.4c0,9.7.5,19.4-.1,29-.5,8.7,4.1,12.6,12.7,12.6,69.6-.1,139.3,0,208.9,0,1.2,0,2.3,0,3.5,0,6.3-.6,10.1-4.5,10.1-10.6,0-40.6,0-81.3,0-121.9,0-7-3.6-10.4-10.6-10.4-71.3,0-142.6,0-213.9,0-7,0-10.5,3.5-10.5,10.5,0,30,0,60,0,91M213.7,261.9c6.7,0,13.3,0,20,0,4,0,6.7-.2,6.7-5.6,0-5.2-2.3-5.5-6.4-5.4-14.8.2-29.6,0-44.4.1-3.7,0-5.4-1.4-5.5-5.2-.1-3.9-.9-7.7-1.3-11.6h-28.5c-.4,3.6-.7,7-1.2,10.4-.6,4.6-2.4,6.8-7.8,6.6-14.5-.5-29-.2-43.4,0-1.6,0-3.8,1-4.6,2.2-2.9,4.6-.4,8.7,5,8.7,36.8,0,73.6,0,111.4,0Z"/>
  <path class="st0" d="M244.4,252.8c-.6-.6-.8-1.4-1.1-2.5.5.6.9,1.4,1.1,2.5Z"/>
  <path class="st0" d="M149.2,234.4c.2.2.4.8.3,1.5-.3-.3-.3-.7-.3-1.5Z"/>
  <path class="st0" d="M187.5,234.8c-.3-.3-.2-.5.4-.7.1.3,0,.5-.4.7Z"/>
  <path class="st0" d="M147.9,246c.3.3.2.5-.4.7-.1-.3,0-.5.4-.7Z"/>
  <path class="st1" d="M51.2,187.9c0-30.5,0-60.5,0-90.5,0-7,3.5-10.5,10.5-10.5,71.3,0,142.6,0,213.9,0,7,0,10.6,3.4,10.6,10.4,0,40.6,0,81.3,0,121.9,0,6.2-3.8,10.1-10.1,10.6-1.2.1-2.3,0-3.5,0-69.6,0-139.3,0-208.9,0-8.6,0-13.2-3.9-12.7-12.6.6-9.6.1-19.3.1-29.5M142.5,121.8c-.4,2.2-.3,4.6-1.3,6.5-3.1,6.1-2.2,12.8,3.6,16.6,1.3.8,2.6,2,3.3,3.4,2.8,5.6,6.1,10.8,11.8,14,1.8,1,3.5,2.2,5.3,3.3-1.9,1.2-3.8,2.5-5.8,3.7-.3.2-.6.3-.9.5-.9-2.6-1.8-5.1-3.1-8.5-4,1.6-8,3-11.9,4.8-7.1,3.2-14.8,6.2-18.2,13.7-2.7,6-4,12.8-5,19.4-.8,5.1-.2,10.5-.2,15.8-16.7,0-32.7,0-48.6,0-3.7,0-4.4-1.5-4.4-4.8,0-28.5.1-57,0-85.5,0-3.7,1.1-4.9,4.8-4.9,17.2.2,34.3.1,51.5,0,1.6,0,4.4-1.2,4.5-2.2.4-3.3-2.5-2.7-4.5-2.7-17.5,0-35,0-52.5,0-5.9,0-7.7,2-7.7,8,0,29.7,0,59.3,0,89,0,6,1.9,7.9,7.8,7.9,64.8,0,129.7,0,194.5,0,5.9,0,8.7-2.9,8.7-8.7,0-29.2,0-58.3,0-87.5,0-6.1-2.8-8.8-9-8.8-16,0-32,0-48,.1-1.7,0-3.3,1.6-5,2.4,1.7.8,3.3,2.4,5,2.4,15.7.2,31.3.2,47,0,3.5,0,5.1.6,5.1,4.6-.1,28.7-.1,57.3,0,86,0,3.6-1.3,4.5-4.7,4.5-15-.1-30,0-45,0-1.1,0-2.2-.2-3.4-.3,0-5.8.7-11.4-.2-16.8-1-6.4-2.4-13.1-5.4-18.7-5.6-10.3-17.2-12.4-26.8-17-2-1-4.9.1-4.6,3.8.1,1.3,0,2.6-.2,5.2-3.4-2.1-6.1-3.7-9.4-5.7,3.2-1.3,5.7-2,7.8-3.2,5.9-3.4,9-9.1,11.8-15,.4-.8.7-1.9,1.3-2.1,8.1-3.2,8.7-12.5,3.4-18-.7-.7-.7-2.3-.7-3.6-.4-6.9,1.6-14-2.4-20.8-1.7-2.9-1.8-6.5-6.5-3.8-.7.4-2.3,0-3.2-.7-7.7-5-15.9-3.4-24.2-2.4-7.6.9-11.8,5.6-13.5,12.5-1,4.1-.8,8.4-.8,13.5Z"/>
  <path class="st1" d="M213.2,261.9c-37.3,0-74.1,0-110.9,0-5.4,0-7.9-4.1-5-8.7.8-1.3,3-2.2,4.6-2.2,14.5-.2,29-.4,43.4,0,5.4.2,7.2-2,7.8-6.6.4-3.4.8-6.8,1.2-10.4h28.5c.5,3.9,1.2,7.7,1.3,11.6.1,3.8,1.8,5.2,5.5,5.2,14.8,0,29.6,0,44.4-.1,4,0,6.4.2,6.4,5.4,0,5.5-2.7,5.7-6.7,5.6-6.7-.1-13.3,0-20.5,0Z"/>
  <path d="M142.4,121.3c.2-4.7,0-9,.9-13.1,1.7-6.9,5.9-11.6,13.5-12.5,8.2-1,16.5-2.6,24.2,2.4.9.6,2.5,1.1,3.2.7,4.7-2.6,4.8.9,6.5,3.8,4,6.7,2,13.8,2.4,20.8,0,1.2,0,2.8.7,3.6,5.3,5.5,4.7,14.8-3.4,18-.6.2-.9,1.4-1.3,2.1-2.8,5.9-5.8,11.6-11.8,15-2.2,1.2-4.6,1.9-7.8,3.2,3.3,2,6,3.6,9.4,5.7.1-2.6.3-3.9.2-5.2-.3-3.6,2.6-4.8,4.6-3.8,9.6,4.7,21.2,6.8,26.8,17,3,5.6,4.4,12.3,5.4,18.7.9,5.3.2,11,.2,16.8,1.2.1,2.3.3,3.4.3,15,0,30,0,45,0,3.4,0,4.7-.9,4.7-4.5-.1-28.7-.1-57.3,0-86,0-4-1.6-4.7-5.1-4.6-15.7.1-31.3.1-47,0-1.7,0-3.3-1.5-5-2.4,1.7-.8,3.3-2.4,5-2.4,16-.2,32-.1,48-.1,6.2,0,9,2.8,9,8.8,0,29.2,0,58.3,0,87.5,0,5.8-2.8,8.6-8.7,8.7-64.8,0-129.7,0-194.5,0-6,0-7.8-2-7.8-7.9,0-29.7,0-59.3,0-89,0-6.1,1.8-8,7.7-8,17.5,0,35,0,52.5,0,2,0,5-.7,4.5,2.7-.1.9-2.9,2.2-4.5,2.2-17.2.2-34.3.2-51.5,0-3.8,0-4.8,1.2-4.8,4.9.1,28.5.1,57,0,85.5,0,3.3.7,4.8,4.4,4.8,16-.2,32,0,48.6,0,0-5.4-.6-10.7.2-15.8,1-6.6,2.3-13.4,5-19.4,3.4-7.5,11.1-10.5,18.2-13.7,3.9-1.8,7.9-3.2,11.9-4.8,1.2,3.4,2.2,6,3.1,8.5.4-.2.7-.3.9-.5,1.9-1.2,3.9-2.5,5.8-3.7-1.8-1.1-3.5-2.3-5.3-3.3-5.7-3.2-8.9-8.3-11.8-14-.7-1.3-2-2.5-3.3-3.4-5.8-3.8-6.8-10.5-3.6-16.6,1-1.9.9-4.3,1.2-6.9M161.2,196.3c-2.9-9.5-5.7-18.9-8.6-28.4-24.1,9-29.5,15.5-26.9,46.8h85.5c0-6.6.5-12.9-.1-19.1-.8-8.6-3.4-16.5-12.1-20.6-4.8-2.3-9.5-4.8-14.2-7.2-.6,1.3-1.2,2.3-1.6,3.3-4,13-8,26-12.1,39-.5,1.5-1.7,2.8-2.6,4.2-.5,0-1,0-1.5,0-2-5.7-3.9-11.3-5.9-17.8M151.7,142.9c1.7,3.4,2.8,7.4,5.3,10.1,7.9,8.5,11.9,9.1,19.9,2.8,2.3-1.8,4-4.5,5.7-7,2.3-3.3,2.2-8.2,7.2-9.5.6-.2.8-2.1,1.4-3.4-3.6.9-5.4,0-5-2.7.6-4.3-.6-7.4-2.7-11.4-2.8-5.4-6.2-7.2-11.4-6.8-5.7.4-11.3,1.1-16.9,2.1-.9.1-1.6,2-2.2,3.2-1.3,2.6-2.5,5.2-3.3,6.9-1,4.3-1.8,7.8-2.7,11.8.8.6,2.4,2,4.6,3.9M149.6,106c-1.1,3.7-2.1,7.5-3.2,11.2,3-2.1,8.1-4.8,11.7-5.3.5,0,.9-.5,1.3-.6,7.9-1.4,15.8-3.3,23.2,1.6,2.1,1.4,3.9,3.4,6.6,5.7,0-2.7.5-4.8-.1-6.5-.9-2.8-1.8-6.6-4-7.8-4.2-2.4-9.2-3.4-13.9-4.7-7.2-2.1-17.4.9-21.6,6.5M168.7,181.1c-3.3,6.3-3.8,12.8-.9,19.8,5.5-6.1,3.1-12.6.9-19.8Z"/>
  <path class="st1" d="M161.2,196.7c2,6.1,3.9,11.8,5.9,17.4.5,0,1,0,1.5,0,.9-1.4,2.1-2.7,2.6-4.2,4.1-13,8-26,12.1-39,.3-1.1.9-2,1.6-3.3,4.8,2.4,9.4,4.9,14.2,7.2,8.7,4.2,11.3,12,12.1,20.6.6,6.2.1,12.6.1,19.1h-85.5c-2.5-31.3,2.8-37.8,26.9-46.8,2.9,9.5,5.7,19,8.6,28.8Z"/>
  <path class="st1" d="M151.5,142.6c-1.9-1.6-3.5-3-4.3-3.6.9-4,1.7-7.5,2.7-11.8.8-1.7,2-4.3,3.3-6.9.6-1.2,1.3-3.1,2.2-3.2,5.6-.9,11.2-1.7,16.9-2.1,5.2-.3,8.6,1.5,11.4,6.8,2.1,4,3.3,7.1,2.7,11.4-.4,2.7,1.4,3.6,5,2.7-.5,1.4-.7,3.3-1.4,3.4-5,1.3-5,6.2-7.2,9.5-1.7,2.5-3.4,5.1-5.7,7-8,6.3-12,5.7-19.9-2.8-2.5-2.7-3.6-6.7-5.6-10.4Z"/>
  <path class="st1" d="M149.9,105.7c4-5.4,14.2-8.3,21.4-6.3,4.7,1.4,9.7,2.4,13.9,4.7,2.1,1.2,3,5,4,7.8.6,1.7.1,3.8.1,6.5-2.6-2.3-4.4-4.3-6.6-5.7-7.4-4.9-15.3-3-23.2-1.6-.5,0-.9.5-1.3.6-3.6.6-8.7,3.3-11.7,5.3,1.1-3.7,2.1-7.5,3.5-11.5Z"/>
  <path class="st1" d="M168.9,181.4c2,6.8,4.4,13.3-1.1,19.4-2.9-6.9-2.5-13.4,1.1-19.4Z"/>
</svg>