<?xml version="1.0" encoding="UTF-8"?>
<svg id="_レイヤー_2" data-name="レイヤー 2" xmlns="http://www.w3.org/2000/svg" viewBox="0 0 588.44 143.98">
  <defs>
    <style>
      .cls-1 {
        fill: #3b241a;
      }
    </style>
  </defs>
  <g id="contents">
    <g>
      <path class="cls-1" d="m56.77.14c1.32,0,2.4-.14,3.34-.14,1.13,0,1.22.47,1.22,1.97v2.21c0,1.5-.09,1.97-1.22,1.97-.71,0-1.41-.09-2.07-.09h-6.44c-1.55,0-1.6.8-1.6,2.11v27.45c0,2.4.09,4.75.09,7.14,0,1.5-.19,1.65-1.74,1.65h-2.73c-1.22,0-1.5-.14-1.5-1.5,0-2.44.09-4.84.09-7.28V6.86c0-1.69-.14-3.34-.14-5.03,0-1.55.75-1.79,2.12-1.79.99,0,1.93.09,2.87.09h7.71Z"/>
      <path class="cls-1" d="m99.64,21.29c-1.5,0-3.2.09-4.51.09-.8,0-1.03-.28-1.03-1.97v-.38c0-.33-.09-.85-.56-.85-.28,0-.56.28-.8.42-.89.7-4.7,3.57-5.64,3.57-1.22,0-4.28-3.67-4.28-4.93,0-.56.61-.8,1.27-1.13,6.2-3.2,13.06-9.07,16.5-15.18.23-.42.38-.61.85-.61.56,0,6.34.89,7.14,1.08.38.09.75.28.75.75,0,.19-.09.33-.24.47-.09.14-.28.33-.28.56,0,.33,1.03,1.6,1.32,1.93,4.04,4.98,8.79,8.04,14.48,10.72.94.42,1.03.52,1.03.94,0,1.08-.99,2.82-1.5,3.81-.42.8-1.03,1.83-1.74,1.83-1.08,0-6.34-3.57-7.47-4.37-.14-.09-.33-.24-.47-.24-.56,0-.61.47-.61,1.18v.94c0,1.08-.24,1.46-1.03,1.46-1.27,0-2.58-.09-4.51-.09h-8.65Zm-2.26,19.46c-.42,0-.85.24-.85.71v.38c0,1.46-.38,1.46-3.29,1.46h-1.5c-1.69,0-2.35-.09-2.35-1.32,0-.66.14-2.54.14-4.18v-7.8c0-1.27-.09-2.58-.09-3.85,0-2.35,1.83-2.54,3.71-2.54,1.5,0,3.01.19,4.56.19h12.55c1.5,0,3.06-.19,4.56-.19,1.83,0,3.71.19,3.71,2.49,0,1.13-.09,2.44-.09,3.9v7.8c0,1.74.14,3.62.14,4.14,0,1.27-.66,1.36-2.3,1.36h-2.77c-1.55,0-2.16-.09-2.16-1.32,0-.19.05-.33.05-.47,0-.38-.28-.75-.8-.75h-13.21Zm12.78-5.83c.75,0,1.32-.56,1.32-1.32v-2.3c0-.75-.56-1.32-1.32-1.32h-12.45c-.71,0-1.32.56-1.32,1.32v2.3c0,.75.56,1.32,1.32,1.32h12.45Zm-1.27-19.79c.61,0,1.13-.05,1.13-.52s-.33-.8-.66-1.08c-1.27-1.17-3.24-3.38-4.37-4.75-.23-.28-.56-.7-.99-.7-.38,0-.66.23-.89.56-1.32,1.6-3.1,3.38-4.56,4.84-.28.23-.71.66-.71,1.08,0,.52.14.56,1.79.56h9.26Z"/>
      <path class="cls-1" d="m164.22,29.94c0-.33-.24-.42-.61-.42-1.08,0-2.07-1.55-2.44-2.3-.09-.19-.24-.33-.33-.33-.24,0-.42.52-.89.52-.28,0-.66-.47-1.03-.99-.24-.33-.42-.56-.52-.56-.28,0-.33.28-.33.61v9.12c0,2.16.14,4.32.14,6.49,0,1.08-.42,1.22-1.69,1.22h-2.87c-1.32,0-1.83-.09-1.83-1.13,0-2.16.09-4.37.09-6.58v-1.83c0-.85-.05-.99-.28-.99s-.38.42-.56.89c-.38.94-.75,1.88-1.41,1.88-1.22,0-4.04-3.01-4.04-4.32,0-.52.28-1.08.61-1.65,2.44-4.09,4.65-13.35,4.65-14.33,0-.52-.33-.71-.85-.71-.61,0-1.27.09-1.88.09-.94,0-1.03-.52-1.03-1.6v-3.01c0-1.32.09-1.79,1.03-1.79.85,0,1.69.14,2.49.14.75,0,1.27-.71,1.27-1.41v-3.81c0-.75-.14-1.27-.14-1.5v-.42c0-.56.38-.66.8-.66.61,0,4.23.38,5.08.47.85.09,1.41.14,1.41.71,0,.28-.19.42-.52.71-.42.33-.47,1.22-.47,2.3v2.26c0,.71.56,1.32,1.32,1.32.28,0,.99-.09,1.46-.09.99,0,1.08.52,1.08,1.97v1.22c0,.28,0,.8.38.8s1.08-.94,1.88-1.97c2.11-2.73,3.76-6.02,4.7-8.98.09-.33.19-.75.56-.75.66,0,4.75,1.18,5.73,1.41,1.03.23,1.41.38,1.41.8,0,.28-.19.66-.71.75-.66.09-1.08.42-1.08,1.08,0,.52.42.66.85.66h4.65c1.32,0,2.58-.05,3.9-.05,2.07,0,3.62,2.87,3.62,3.48,0,2.02-4.61,7.61-6.2,9.16-.28.28-.56.66-.56,1.03,0,.47.47.8,1.17,1.27,1.88,1.27,4.28,2.54,6.44,3.52.56.23.94.38.94.94,0,1.27-1.88,5.08-3.01,5.08-.14,0-.33-.05-.52-.14-.19-.09-.38-.14-.47-.14-.24,0-.47.14-.47.75v7.9c0,1.5.14,3.67.14,4.32,0,.94-.52,1.03-1.93,1.03h-3.01c-1.27,0-1.83-.09-1.83-.99v-.28c0-.33-.19-.75-.99-.75h-5.78c-.47,0-.89.28-.89.75v.23c0,.94-.52,1.03-1.79,1.03h-3.05c-1.41,0-1.93-.09-1.93-1.03,0-.85.14-2.11.14-3.62v-8.79Zm-3.57-14.76q-.38-.66-1.83-.66c-.56,0-.75.23-.75.75v.28c0,1.08,2.91,4.18,3.76,5.08.42.47.75.85.75,1.17,0,.14-.05.38-.05.47,0,.24.24.52.56.52.38,0,2.58-1.13,4.56-2.21,1.79-.99,3.2-1.93,3.2-2.4,0-.38-.85-1.36-1.41-2.02-.28-.33-.61-.75-1.03-.75s-1.08.85-1.6,1.5c-.47.56-1.22,1.41-1.83,1.41-1.32,0-3.71-2.02-4.32-3.15Zm16.68,20.35c.71,0,1.32-.61,1.32-1.32v-1.79c0-.75-.61-1.32-1.32-1.32h-5.26c-.75,0-1.32.56-1.32,1.32v1.79c0,.75.52,1.27,1.32,1.32h5.26Zm.66-10.2c.28,0,.52-.05.52-.28,0-.09-.09-.19-.61-.61-.38-.28-.94-.71-1.41-1.08-.19-.14-.42-.33-.66-.33-.19,0-.75.38-1.03.56-.52.38-1.17.85-1.46,1.03-.38.23-.47.33-.47.47,0,.19.19.23.42.23h4.7Zm-3.81-14.47c-.38,0-.94.05-.94.56,0,.42,1.74,2.77,2.4,2.77.71,0,2.35-2.68,2.35-2.96,0-.33-.66-.38-1.41-.38h-2.4Z"/>
      <path class="cls-1" d="m244.59,10.48c3.34,3.34,4.98,7.43,4.98,12.08,0,6.63-3.62,12.45-9.45,15.6-1.17.66-4.28,2.11-5.59,2.11-1.64,0-4.14-4.32-4.14-5.64,0-.42.42-.61,1.79-.94,5.45-1.41,9.92-4.84,9.92-10.86,0-7.38-5.64-10.29-7.05-10.29-.8,0-.89.85-.94,1.69-.52,6.53-2.4,14.52-6.72,19.69-1.74,2.12-4,3.9-6.81,3.9-3.15,0-5.73-2.16-7.14-4.84-1.08-2.07-1.55-4.75-1.55-7.05,0-11.28,8.69-20.26,20.02-20.26,4.79,0,9.31,1.41,12.69,4.79Zm-25.71,15.37c0,1.13.28,4.56,1.93,4.56,1.13,0,2.73-3.1,3.2-4.09,1.64-3.38,2.96-10.34,2.96-12.03,0-.38-.19-.71-.61-.71-1.36,0-7.47,4.32-7.47,12.27Z"/>
      <path class="cls-1" d="m285.19,28.71c5.69,1.32,10.76,2.87,16.17,5.12.8.33,1.03.42,1.03.94,0,1.17-1.46,6.3-2.77,6.3-.33,0-.89-.28-1.17-.42-6.86-3.2-14.29-5.08-21.76-6.11-.8-.09-1.46-.14-1.46-1.08,0-.8.85-3.57,1.13-4.51.28-.89.85-1.5,1.83-1.5,1.17,0,5.64.99,7,1.27Zm2.82-11.33c3.62,1.03,6.11,1.83,9.59,3.2.47.19.8.38.8.94,0,.94-.56,2.58-.94,3.48l-.28.7c-.47,1.18-.8,1.97-1.6,1.97-.33,0-.94-.28-1.27-.42-4.75-2.21-9.87-3.67-14.99-4.61-.8-.14-1.55-.23-1.55-1.08,0-.8.61-2.82.89-3.76.33-1.08.71-2.3,1.74-2.3.8,0,6.44,1.55,7.61,1.88Zm-7.47-10.53c.14-.23.24-.52.38-.75.52-.99.94-1.83,1.65-1.83,1.41,0,8.51,2.49,10.15,3.15.85.28,4.28,1.65,4.84,2.02.28.19.42.47.42.8,0,.94-.85,2.91-1.27,3.81-.38.85-.89,2.12-1.6,2.12-.38,0-1.41-.47-1.83-.66-4.09-1.93-8.37-3.29-12.69-4.56-.47-.14-1.08-.28-1.08-.85,0-.61.75-2.63,1.03-3.24Z"/>
      <path class="cls-1" d="m353.44,14.57c1.22,0,2.49,0,3.1-.09.33-.05.75-.09,1.08-.09.75,0,2.3,1.46,2.96,2.07.56.56,1.41,1.36,1.41,2.11,0,.42-.61,1.88-.75,2.35-2.54,7.14-6.72,12.55-12.59,17.2-1.36,1.13-6.2,4.61-7.8,4.61-1.41,0-4.7-4.14-4.7-5.03,0-.42.61-.71.94-.85,4.89-2.02,9.96-6.34,13.16-10.53.56-.75,2.07-2.87,2.07-3.76,0-.94-.94-1.03-1.5-1.03h-16.03c-2.12,0-4.18.05-6.25.05-1.41,0-1.6-.42-1.6-2.26v-2.68c0-1.88.28-2.16,1.5-2.16,2.16,0,4.32.09,6.49.09h18.52Zm-3.99-10.25c1.46,0,2.96,0,4.46-.05.61,0,1.22-.09,1.83-.09,1.18,0,1.36.66,1.36,2.35v2.21c0,1.93-.05,2.54-1.5,2.54-2.07,0-4.14-.05-6.16-.05h-10.95c-2.02,0-4.09.05-6.16.05-1.41,0-1.5-.61-1.5-2.4v-2.58c0-1.55.28-2.11,1.36-2.11,1.41,0,3.99.14,6.3.14h10.95Z"/>
      <path class="cls-1" d="m407.77,34.59c0,1.27.05,2.54.05,3.81,0,.85.05,1.74.05,2.63,0,1.46-.8,1.5-3.15,1.5h-1.93c-2.21,0-2.54-.28-2.54-1.36,0-2.11.09-4.23.09-6.34v-10.48c0-.7-.24-1.17-.85-1.17-.42,0-1.03.47-1.36.71-1.27.89-7.75,5.22-8.83,5.22s-5.5-4.32-5.5-5.55c0-.52.56-.71.99-.85,2.49-.94,6.86-3.43,9.16-4.89,4.28-2.73,8.65-6.3,11.98-10.15,1.36-1.55,3.24-4.09,4.32-5.87.09-.23.28-.56.61-.56.71,0,4.65,2.87,6.06,3.9.56.42.94.89.94,1.17,0,.33-.33.42-.61.52-.66.14-1.17.28-1.69.8-1.13,1.13-3.2,3.71-6.72,7.28-.75.8-1.08,1.36-1.08,2.4v17.29Z"/>
      <path class="cls-1" d="m464.97,15.93c4.51,5.17,8.98,9.49,15.09,12.6.42.23,1.08.56,1.08,1.17,0,1.17-3.2,6.16-4.65,6.16-1.03,0-4.79-2.77-5.78-3.57-4.65-3.62-7.75-7.14-11.51-11.66-.47-.52-.99-1.13-1.74-1.13-.8,0-1.69.85-2.26,1.36-1.74,1.6-3.43,3.2-5.22,4.7-1.03.89-1.74,1.5-2.63,2.54-.24.28-.66.71-1.03.71-.8,0-2.26-1.93-2.73-2.54-.52-.66-2.63-3.38-2.63-4.04,0-.42.71-.8,1.22-1.03.09-.05.19-.09.24-.14,2.87-1.46,5.69-3.85,8.08-5.92,2.68-2.3,4.61-3.99,7.1-3.99,3.2,0,5.08,2.16,7.38,4.79Z"/>
      <path class="cls-1" d="m506.05,44.32c-1.32,0-2.4.14-3.34.14-1.13,0-1.22-.47-1.22-1.97v-2.21c0-1.5.09-1.97,1.22-1.97.71,0,1.41.09,2.07.09h6.44c1.55,0,1.6-.8,1.6-2.11V8.84c0-2.4-.09-4.75-.09-7.14,0-1.5.19-1.65,1.74-1.65h2.73c1.22,0,1.5.14,1.5,1.5,0,2.44-.09,4.84-.09,7.28v28.76c0,1.69.14,3.34.14,5.03,0,1.55-.75,1.79-2.12,1.79-.99,0-1.93-.09-2.87-.09h-7.71Z"/>
      <path class="cls-1" d="m35.25,115.78c0,.38.38.52.71.52h.94c1.64,0,3.29-.14,4.98-.14.89,0,.99.38.99,1.46v2.44c0,1.03-.09,1.41-.99,1.41-1.65,0-3.34-.09-4.98-.09h-.8c-.33,0-.61.23-.61.56v.52c0,.56.61.56,1.03.56,1.36,0,2.77-.09,4.18-.09.94,0,1.03.38,1.03,1.6v2.07c0,1.22-.09,1.6-1.03,1.6-1.36,0-2.73-.09-4.14-.09-.94,0-1.08.66-1.08.94,0,.56.47.8.99.8,1.41,0,2.82-.09,4.23-.09.94,0,1.03.38,1.03,1.65v2.02c0,1.22-.09,1.6-1.03,1.6-1.46,0-2.91-.09-4.32-.09-.38,0-.89.09-.89.56v.42c0,.42.33.75.75.75h1.27c1.65,0,3.34-.09,4.98-.09.89,0,.99.38.99,1.41v2.16c0,1.17-.09,1.55-.99,1.55-1.69,0-3.34-.09-4.98-.09h-10.62c-.38,0-.52.28-.52.61,0,.09.05.19.05.33,0,1.13-.47,1.22-1.93,1.22h-2.44c-1.5,0-2.07-.09-2.07-1.17,0-1.97.14-3.95.14-5.92v-9.16c0-.23-.05-.66-.38-.66-.19,0-.28.09-.52.33-.19.19-.38.33-.66.33-.66,0-1.46-.75-2.02-1.36-.19-.19-.52-.42-.66-.42-.33,0-.42.33-.42.61v7.1c0,1.5.09,3.01.09,4.51,0,1.13-.38,1.27-1.6,1.27h-1.79c-1.36,0-1.65-.14-1.65-1.32,0-.52-.19-.94-.75-.94-.52,0-.99.28-.99,1.03,0,.38.05.89.05,1.36,0,1.08-.33,1.27-1.32,1.27h-2.35c-1.03,0-1.36-.19-1.36-1.27,0-1.5.09-3.01.09-4.51v-2.44c0-.89-.33-1.5-.99-2.11-.8-.7-2.91-2.77-2.91-3.81,0-.19.05-.33.24-.61,2.16-3.48,4.7-10.95,4.7-15.04,0-.61-.09-1.13-1.22-1.13-.38,0-.75.05-1.13.05-1.03,0-1.13-.42-1.13-1.65v-2.87c0-1.55.09-2.02,1.08-2.02,1.17,0,2.58.14,4.14.14h4.37c1.55,0,2.96-.14,4.14-.14.99,0,1.08.47,1.08,1.74v2.87c0,1.46-.09,1.93-1.08,1.93-.71,0-1.46-.09-2.16-.09-1.83,0-1.93.61-2.16,2.73-.05.56-.09,1.08-.19,1.6-.14.8-.24,1.32-.24,1.69,0,.28.19.61.99.61.71,0,1.55-.05,2.3-.05,1.32,0,1.79.52,1.79,1.83,0,.89-.05,1.74-.05,2.58,0,.28.05.89.47.89.85,0,5.59-5.55,5.59-6.3,0-.23-.28-.33-.71-.33-.71,0-1.65-.05-2.16-.05h-.42c-.94,0-1.5-.19-1.5-1.27,0-.94.09-1.88.09-2.91v-.75c0-1.17-.09-2.35-.09-2.82,0-1.69,1.22-1.93,2.63-1.93s2.96.09,4.42.09h1.17c.75,0,1.36-.33,1.74-1.03.38-.71.56-1.79.75-2.68.05-.28.09-.56.56-.56,1.27,0,4.56.89,5.97,1.17.42.09.8.23.8.61,0,.42-.47.52-.75.56-.52.09-.71.47-.71.94,0,.8.61.99,1.27.99h.61c1.46,0,2.91-.09,4.37-.09,1.36,0,2.68.19,2.68,1.88,0,.56-.09,1.69-.09,2.87v.94c0,1.03.09,2.02.09,2.87,0,1.18-.56,1.32-2.02,1.32h-1.5c-1.6,0-1.83-.05-2.11-.8-.05-.14-.19-.33-.38-.33-.28,0-.47.24-.56.52-.09.33-.42,1.03-.42,1.36Zm-25.52,14.9c.47,0,.89-.38.89-.89v-6.44c0-.47-.42-.89-.89-.89h-.09c-.47,0-.89.42-.89.89v6.44c0,.52.38.89.89.89h.09Zm13.39-20.16c-.52,0-.75.38-.75.89v.28c0,.56.05,1.6.33,1.6.19,0,.33-.28.47-.56.38-.71.8-1.55.8-1.83s-.14-.38-.38-.38h-.47Zm3.9,10.86c-.42,0-.75.33-.75.75v.14c0,.38.33.75.75.75h1.83c.38,0,.75-.38.75-.75v-.14c0-.42-.33-.75-.75-.75h-1.83Zm1.83,8.46c.38,0,.75-.33.75-.75v-.23c0-.42-.38-.75-.75-.75h-1.83c-.42,0-.75.33-.75.75v.23c0,.42.28.71.75.75h1.83Zm-1.83,5.08c-.42,0-.75.33-.75.75v.23c0,.42.33.75.75.75h1.83c.38,0,.75-.33.75-.75v-.23c0-.42-.33-.71-.75-.75h-1.83Zm4.23-23.31c.33,0,3.34.66,3.9.8.19.05.52.09.75.09.71,0,.71-.38.71-1.22,0-.47-.28-.75-.75-.75h-4.14c-.75,0-1.08.42-1.22.71-.52,1.17-1.5,2.96-2.07,3.9-.19.33-.28.61-.28.75,0,.28.33.42.56.42.99,0,1.27-1.17,1.97-4.04.09-.42.14-.66.56-.66Z"/>
      <path class="cls-1" d="m76.42,118.6c-1.69,0-3.38.14-5.08.14-1.17,0-1.22-.61-1.22-1.6v-.14c0-1.03-.66-1.5-1.32-1.5-.14,0-.28.05-.47.05-1.36,0-2.4,0-2.4-1.27,0-.66.14-1.88.14-2.82v-1.13c0-1.41-.09-2.96-.09-3.43,0-1.79,1.88-1.83,3.2-1.83,1.79,0,3.62.09,5.41.09h6.39c.85,0,1.5-.33,1.5-1.27s-.19-1.97-.19-2.26c0-.61.52-.66,1.03-.66,1.27,0,3.9.19,5.22.28.19.05.42.05.61.05.89.09,1.55.14,1.55.71,0,.23-.24.42-.52.66-.33.33-.42.8-.42,1.27,0,.99.89,1.22,1.69,1.22h6.25c1.79,0,3.62-.09,5.41-.09,1.32,0,3.24.05,3.24,1.83,0,.33-.14,1.97-.14,3.43v1.27c0,1.03.14,2.16.14,2.82,0,1.13-.71,1.27-2.11,1.27h-.89c-.99,0-1.5.66-1.5,1.27v.19c0,1.13-.14,1.6-1.27,1.6-1.69,0-3.34-.14-5.03-.14h-5.41c-.33,0-.61.28-.61.61v.28c0,.33.28.61.61.61h4.04c1.69,0,3.38-.09,5.08-.09,1.13,0,1.22.47,1.22,1.79v1.83c0,1.36-.09,1.83-1.22,1.83-1.69,0-3.38-.09-5.08-.09h-4.09c-.8,0-.94.52-.94.75,0,.66.61.66.94.66h10.2c1.83,0,3.67-.09,5.5-.09,1.13,0,1.22.47,1.22,1.97v1.93c0,1.22-.09,1.69-1.22,1.69-1.83,0-3.67-.09-5.5-.09h-5.45c-.61,0-1.03,0-1.03.47,0,.61,2.07,1.5,2.63,1.79,2.91,1.41,5.78,2.3,8.93,2.82.99.14,1.83.14,1.83,1.22s-.52,2.54-1.17,3.48c-.89,1.27-1.32,1.88-2.3,1.88-.52,0-1.17-.19-1.69-.33-2.96-.75-6.2-1.79-8.88-3.29-2.11-1.17-4.09-2.68-5.78-4.51-.28-.33-.89-.8-1.36-.8-.52,0-.99.47-1.32.85-3.43,3.62-9.12,6.06-13.91,7.14-.61.14-2.3.47-2.87.47-1.79,0-2.96-3.95-2.96-4.98,0-1.13.99-1.13,2.63-1.41,3.15-.52,6.58-1.46,9.26-3.1.33-.19,1.41-.89,1.41-1.22,0-.42-.42-.47-1.03-.47h-5.36c-1.83,0-3.71.09-5.54.09-1.08,0-1.17-.42-1.17-1.83v-1.88c0-1.46.09-1.88,1.22-1.88,1.83,0,3.67.09,5.5.09h9.54c.66,0,.89-.38.89-.75,0-.47-.33-.66-.75-.66h-3.57c-1.69,0-3.34.09-5.03.09-1.17,0-1.27-.52-1.27-1.93v-1.74c0-1.32.14-1.79,1.27-1.79,1.69,0,3.38.09,5.03.09h4.23c.33,0,.61-.28.61-.61v-.28c0-.33-.24-.56-.61-.61h-5.78Zm5.45-5.36c.47,0,.89-.19.89-.71,0-1.08-.09-1.46-1.08-1.46h-7.85c-.52,0-.94.14-.94.75,0,.99.14,1.36,1.17,1.36h.09c.75,0,1.5.05,2.26.05h5.45Zm13.68,0c.94,0,1.88-.05,2.82-.05.99,0,1.03-.47,1.03-1.32,0-.66-.42-.8-.99-.8h-7c-.38,0-.61,0-.61.28v.23c0,.33-.28.52-.56.66-.19.09-.33.19-.33.42,0,.28.19.56.8.56h4.84Z"/>
      <path class="cls-1" d="m149.98,103.19c.56.14,1.08.33,1.08.61,0,.24-.33.47-.89.85-.28.19-.66,1.83-.85,2.63-.05.19-.09.28-.09.38,0,.14-.05.33-.05.52,0,.28.24.66.56.66.24,0,.75-.19,1.03-.28.28-.09.52-.19.8-.19.42,0,.56.23.66.7.14.75.47,3.76.47,4.89s-.66,1.27-4.32,1.93c-1.65.28-1.69.61-2.26,2.11-.8,2.16-1.69,4.28-2.63,6.39-1.22,2.77-2.49,5.59-3.95,8.27-.38.66-.85,1.41-1.13,1.97-.23.47-.42.71-1.03.71-1.6,0-6.11-1.97-6.11-3.2,0-.28.66-1.36.99-1.88.94-1.6,6.06-10.95,6.06-12.12,0-.47-.42-.71-.8-.71-.28,0-1.22.09-1.55.14-.52.05-1.5.14-2.07.14-.99,0-1.41-.42-1.74-4.42-.05-.38-.14-1.22-.14-1.65,0-.66.38-.85.94-.85.8,0,1.93.09,2.96.09,4.28,0,4.89-.09,5.36-1.32.61-1.6,1.17-5.83,1.17-7.28,0-.38,0-.75.33-.75.61,0,6.25,1.41,7.19,1.65Zm6.3,14.76c.8.19,1.22.52,1.22,1.36,0,.47-.09,1.32-.09,2.16,0,2.35.19,4.65.33,6.96.05,1.13.28,1.41,1.36,1.83,1.32.52,7.24,3.29,7.24,4.61,0,1.03-2.63,4.89-4.13,4.89-.38,0-1.03-.42-2.07-1.22-.28-.23-.56-.47-.89-.7-.24-.19-.42-.28-.75-.28-.75,0-.94.56-1.03.8-.33.75-1.03,1.65-1.6,2.21-1.46,1.41-3.71,1.79-5.69,1.79-4.46,0-9.12-2.16-9.12-7.24,0-4.7,4.14-6.72,8.32-6.72h.38c.75,0,1.13-.47,1.13-1.13,0-.8-.42-4.98-.56-6.39-.09-.7-.19-1.5-.19-2.21,0-.99.38-1.36,1.41-1.36,1.22,0,3.52.38,4.75.66Zm-8.27,17.15c0,.94.94,1.41,1.74,1.41,1.08,0,1.46-.56,1.46-1.55,0-.61-.05-1.13-1.41-1.13-.8,0-1.79.33-1.79,1.27Zm16.17-22.75c1.08.99,4.04,3.81,4.04,4.79,0,1.46-3.81,4.7-4.98,4.7-.56,0-.99-.7-1.32-1.22-1.6-2.3-3.67-4.28-5.88-6.06-.38-.28-.85-.61-.85-.99,0-.75,3.01-4.61,4.32-4.61.89,0,3.9,2.68,4.65,3.38Z"/>
      <path class="cls-1" d="m231.85,120.86c0,1.18.14,2.11.14,3.01,0,1.22-.61,1.36-2.07,1.36h-2.77c-1.5,0-2.16-.09-2.16-1.36,0-.61.09-1.65.09-2.16,0-.85-.52-1.41-1.32-1.41h-24.11c-.75,0-1.41.52-1.41,1.27,0,1.32,1.13,1.46,3.9,1.46h14.43c1.03,0,3.29-.14,4.23-.14,2.07,0,4.32,2.63,4.32,3.71,0,1.69-4.32,5.45-5.69,6.53-.23.24-.66.61-.66.94,0,1.41,10.62,2.58,12.36,2.73,1.18.09,1.65.05,1.65.85,0,.89-.47,2.21-.8,3.06-.38.85-1.03,2.58-2.12,2.58-.28,0-1.08-.14-1.41-.19-4.79-.71-9.45-1.97-13.91-3.9-.71-.28-1.69-.66-2.49-.66-1.13,0-2.91.85-4,1.27-2.87,1.17-11.28,3.52-14.19,3.52-2.21,0-3.38-3.9-3.38-5.5,0-.66.38-.75,1.13-.8,3.2-.19,8.04-.99,11.14-1.79.66-.19,2.68-.56,2.68-1.32,0-.42-.61-.99-.89-1.27-.47-.42-2.35-2.26-2.35-2.82,0-.38.28-.56.56-.71.05-.09.19-.19.19-.33,0-.19-.42-.19-.52-.19-1.36,0-2.68.09-3.99.09-1.03,0-1.18-.47-1.18-1.41v-.61c0-.71-.05-1.46-1.32-1.46-.19,0-.38.05-.56.05-.75,0-1.5-.05-2.3-.05-1.03,0-1.69-.14-1.69-1.36,0-.75.09-1.93.09-3.01v-.8c0-1.32-.05-2.58-.05-3.52,0-2.02,1.5-2.11,3.1-2.11.94,0,1.88.09,2.82.09.61,0,.99-.09.99-.38,0-.38-.85-1.6-1.32-2.26-.09-.09-.19-.19-.24-.28-.19-.19-.38-.47-.38-.75,0-.38.24-.61.47-.85.09-.09.19-.19.19-.33,0-.33-.33-.33-.89-.33-.85,0-1.32-.14-1.74-.85-.56-.89-1.17-3.1-1.17-4.18s.94-1.08,1.74-1.08c3.01,0,6.02.23,9.07.23,5.55,0,14.76-.56,19.97-2.35.28-.09.56-.19.85-.19.47,0,.89.52,1.17.85.56.75,1.64,2.07,2.26,2.73.47.47,1.6,1.55,1.6,2.21,0,.33-.33.66-.66.66-.19,0-.47-.09-.61-.14-.33-.14-.71-.28-1.03-.28s-1.74.28-2.11.38c-.33.05-.8.19-.8.56,0,.33.52.52.8.61,2.3.75,3.1,1.08,3.1,1.69,0,.38-.38.47-.66.52-.75.14-.75.19-1.22,1.03-.14.23-.33.56-.56.94-.23.33-.47.75-.47,1.13,0,.52.52.71.94.71.8,0,1.6-.09,2.4-.09,1.5,0,2.91.19,2.91,2.07,0,.89-.09,2.11-.09,3.57v.8Zm-23.36-6.34c.33,0,.61-.14.61-.52,0-.56-1.41-3.01-1.79-3.57q-.14-.24-.24-.47c-.23-.52-.61-.61-1.13-.61h-1.32c-.42,0-1.13,0-1.13.52,0,.42.66,1.32.94,1.74.28.42.8,1.08.8,1.6,0,.19-.09.33-.14.52-.09.14-.14.33-.14.47,0,.28.28.33.52.33h3.01Zm1.79,14.1c-.28,0-.75.09-.75.47,0,.47,1.41,1.83,2.49,1.83s2.49-1.65,2.49-1.93c0-.33-.71-.38-1.55-.38h-2.68Zm6.72-14.1c1.13,0,1.41-.89,2.02-2.12.28-.61,1.41-2.96,1.41-3.52,0-.38-.33-.47-.66-.47-.19,0-2.58.23-3.01.28-.23,0-.42.05-.66.05-1.08.09-1.83.14-1.83.75,0,.19.09.38.19.56.28.52,1.22,2.3,1.22,2.82,0,.38-.33.66-.66.85-.14.14-.47.33-.47.56,0,.19.24.24.38.24h2.07Z"/>
      <path class="cls-1" d="m253.05,139.04c0-.28.28-1.65.38-2.02.38-1.88.61-5.03.61-6.44,0-.66,0-1.41.56-1.41.24,0,1.79.42,2.11.52.14.05.28.09.38.09.14,0,.23-.05.38-.14.38-.19.85-.33,1.27-.33.71,0,.85.33,1.22,4.09.05.66.28,3.48.28,4.04,0,1.22-1.55,1.41-1.88,1.41-.66,0-.66-.47-.66-1.69,0-.99-.28-4.89-.38-5.73-.05-.33-.09-.42-.23-.42-.52,0-.56.38-.56.8,0,1.27-.38,5.64-.66,7.28-.09.52-.19.99-.75.99-.61,0-2.07-.28-2.07-1.03Zm42.81-12.5c0,1.08.09,2.16.09,3.24,0,1.79-1.36,1.88-2.77,1.88-.89,0-1.79-.05-2.73-.05-.33,0-.75.09-.75.52,0,1.46,5.41,5.5,6.72,6.3.42.28.89.52.89.85,0,.99-3.01,4.42-4.51,4.42s-5.87-4.61-6.96-5.92c-.33-.42-.8-1.03-1.27-1.03-.56,0-1.36,1.08-1.88,1.69-1.32,1.5-3.01,3.01-4.75,4.18-.56.38-1.79,1.27-2.4,1.27-1.32,0-4.18-3.67-4.18-4.65,0-.66.66-.89,1.27-1.22,3.57-1.83,6.81-5.22,6.81-6.02,0-.33-.33-.38-.56-.38-.75,0-1.5.05-2.26.05-1.41,0-2.73-.09-2.73-1.88,0-1.08.05-2.16.05-3.24v-3.01c0-1.08-.05-2.16-.05-3.24,0-1.74,1.32-1.88,2.73-1.88,1.32,0,2.68.09,3.99.09h.52c.33,0,.47-.14.47-.47v-.42c0-.42-.38-.47-.71-.47-.85,0-1.65.05-2.49.05-.47,0-.85,0-1.17-.38-.09-.09-.19-.19-.38-.19-.23,0-.52.23-.71.33-.38.28-.85.66-1.36.66-.33,0-.75-.28-1.03-.42-.05-.05-.14-.05-.19-.05-.33,0-.33.42-.33.66v.38c0,1.36-.14,1.6-.89,1.6-.47,0-1.17-.09-2.26-.09h-.8c-.33,0-.56.28-.56.61v.38c0,.66.52.66,1.03.66h.99c2.26,0,2.26,1.22,2.26,3.1,0,3.81-.42,12.13-2.02,15.42-1.5,3.1-3.57,3.67-6.81,3.67-1.13,0-2.68,0-2.68-4.14,0-.99,0-2.3.89-2.3.75,0,1.27.09,1.69.09.99,0,1.69-.05,2.02-.71.19-.38.42-1.32.42-1.74,0-.23-.05-.47-.33-.47-.14,0-.33.05-.47.09-.14.05-.28.09-.42.09-.38,0-.42-.61-.52-1.03-.28-1.5-.56-3.05-1.03-4.51-.09-.19-.14-.38-.14-.61,0-.71,1.17-.99,1.55-.99.42,0,.52.14.99,1.36.09.28.42,1.41.56,1.88.05.14.09.28.19.28.19,0,.19-.52.19-.71.05-.89.09-1.74.09-2.26,0-1.13-.52-1.27-1.41-1.27h-4.28c-.28,0-.38.19-.47.42-.24.52-.71.52-2.3.52-.8,0-1.64-.05-2.44-.05s-1.17-.14-1.17-.99c0-1.83.14-3.71.14-5.55v-12.78c0-1.32-.09-2.54-.09-3.52,0-2.07,1.13-2.58,2.96-2.58,1.27,0,2.54.14,3.76.14h8.65c1.03,0,2.02-.14,2.63-.14.94,0,1.03.56,1.03,1.74v2.07c0,1.32-.09,1.83-1.03,1.83-.56,0-1.55-.09-2.63-.09h-1.22c-.33,0-.56.28-.56.61v.38c0,.33.24.61.56.61h.8c.99,0,1.64-.09,2.26-.09.75,0,.8.42.85.75.05.38.09.47.33.47.47,0,5.22-3.67,7.8-8.74.33-.66.47-.89.94-.89.8,0,3.15.94,4.14,1.22,1.27.38,2.35.61,2.35,1.32,0,.23-.19.38-.24.47-.14.09-.19.19-.19.33,0,.28,1.13,1.41,1.36,1.64,2.21,2.3,4.46,4.14,7,6.06.33.28.99.7.99,1.17,0,1.36-2.58,4.42-4.09,4.42-.38,0-.71-.19-.99-.42-.14-.14-.33-.28-.52-.28s-.28.19-.42.33c-.14.19-.75.24-.99.24-.71,0-1.41-.05-2.12-.05-.33,0-.71.09-.71.52v.33c0,.28.24.52.52.52h.8c1.32,0,2.68-.09,4-.09,1.41,0,2.77.09,2.77,1.88,0,1.08-.09,2.16-.09,3.24v3.01Zm-32.57,5.17c.14.71.52,2.63.52,3.29,0,1.22-1.55,1.69-1.97,1.69s-.47-.19-.61-1.74c-.14-1.46-.38-3.62-.7-5.03-.05-.19-.09-.38-.09-.56,0-.7,1.13-.99,1.46-.99.52,0,.75.19,1.41,3.34Zm-.38-22.51c.33-.05.61-.23.61-.61v-.38c0-.33-.28-.61-.61-.61h-1.32c-.38,0-.61.28-.61.61v.38c0,.33.23.61.61.61h1.32Zm-1.32,4.42c-.38,0-.61.28-.61.61v.42c0,.33.23.61.61.61h1.32c.33,0,.61-.28.61-.61v-.42c0-.33-.28-.56-.61-.61h-1.32Zm0,6.06c-.38,0-.61.28-.61.61v.47c0,.38.23.61.61.61h1.32c.33,0,.61-.23.61-.61v-.47c0-.38-.28-.61-.61-.61h-1.32Zm7.71-6.06c-.33,0-.56.28-.56.61v.42c0,.33.24.61.56.61h.8c1.17,0,1.46,0,1.46-.38,0-.05-.09-.47-.38-.8-.24-.28-.52-.47-1.08-.47h-.8Zm11.37,9.96c-.42,0-.75.33-.75.75v1.6c0,.33.24.61.56.61h.42c.56,0,.66-.8.66-2.3,0-.42-.14-.61-.52-.66h-.38Zm5.08-11.28c.28,0,.94-.05.94-.42,0-.33-.33-.66-.85-1.27-.85-.99-1.08-1.22-1.46-1.22-.75,0-2.3,2.26-2.3,2.49,0,.33.28.42.56.42h3.1Zm3.24,14.24c.52,0,.94-.42.94-.94v-1.13c0-.47-.42-.89-.94-.89h-.38c-.7,0-.85.42-.85,2.16,0,.56.19.75.66.8h.56Z"/>
      <path class="cls-1" d="m325.19,115.59c-1.5,0-3.01.09-4.51.09-1.65,0-1.74-.38-1.74-3.38v-1.08c0-1.6.14-2.26,1.64-2.26.89,0,1.79.05,2.68.05.94,0,1.32-.61,1.32-1.46v-1.5c0-.99-.05-2.26-.14-3.24-.05-.14-.05-.28-.05-.42,0-.61.42-.71.94-.71.33,0,.89.05,1.22.09,1.69.14,3.38.28,5.08.47.42.05,1.03.09,1.03.66,0,.33-.19.47-.52.75-.38.33-.42,1.36-.42,2.35v1.55c0,.85.42,1.5,1.32,1.5,1.08,0,2.21-.09,3.29-.09,1.46,0,1.6.66,1.6,2.21v2.26c0,1.6-.14,2.26-1.6,2.26-.94,0-1.83-.09-2.77-.09-.19,0-.71.05-.71.33,0,.33.56.42,1.32.71,1.55.56,2.35.75,2.35,1.32,0,.38-.33.56-.71.71-.61.19-.71.56-.89,1.41-.33,1.6-.7,3.15-1.17,4.7-.14.52-.33,1.08-.33,1.6,0,.89.8,1.65,1.32,2.26.8.89,4.09,4.75,4.09,5.69,0,1.13-3.2,4.23-4.18,4.23-.42,0-.61-.23-.85-.61-.47-.66-2.77-4.09-3.43-4.09-.47,0-.75.52-.94.85-.75,1.41-5.22,7.8-6.67,7.8-1.17,0-4.37-3.24-4.37-4.09,0-.33.24-.66.75-1.17,1.32-1.32,5.88-7,5.88-8.74,0-.66-.52-1.13-.99-1.55-1.55-1.32-3.06-2.49-4.7-3.71-.66-.47-.8-.61-.8-1.03,0-.89,2.73-4.32,3.81-4.32.61,0,3.43,2.26,4.04,2.82.28.24.66.56,1.03.56.56,0,.71-.38,1.13-2.58.09-.38.33-1.69.33-2.02,0-.89-.66-1.03-1.41-1.03h-2.26Zm20.96,8.74c.33.85,1.55,3.9,1.55,4.56,0,.94-.75,1.41-2.11,1.97-.56.24-2.26.94-2.77.94-.66,0-.85-.56-1.03-1.08-1.03-2.73-2.07-5.55-3.38-8.18-.14-.23-.33-.71-.33-.99,0-1.08,4.42-2.58,5.12-2.58.75,0,.99.61,2.96,5.36Zm10.48,10.29c0,1.36.05,2.68.05,4.04,0,1.17-.42,2.73-1.5,3.48-1.55,1.03-5.03,1.27-7.14,1.27-1.79,0-2.63-.09-3.1-1.17-.52-1.13-.75-2.87-.75-4.09,0-.75.09-1.6,1.03-1.6.28,0,.71.05.94.09.52.05,1.13.09,1.65.09,1.74,0,1.74-.28,1.74-2.54v-16.31c0-.71-.61-1.32-1.32-1.32h-3.34c-1.46,0-3.15.14-4.18.14-1.22,0-1.32-.56-1.32-2.02v-2.58c0-1.5.09-2.07,1.32-2.07s2.63.14,4.18.14h3.43c.75,0,1.22-.61,1.22-1.46v-3.52c0-1.08,0-2.16-.14-3.15-.05-.14-.05-.28-.05-.42,0-.61.42-.75.94-.75.33,0,.89.09,1.22.09,1.69.19,3.34.33,5.03.52.42.05,1.03.09,1.03.66,0,.33-.19.42-.52.75-.38.38-.42,1.32-.42,2.35v3.48c0,.75.38,1.36,1.22,1.36.52,0,1.03-.05,1.6-.05,1.17,0,1.32.52,1.32,1.88v2.96c0,1.32-.14,1.83-1.32,1.83-.52,0-1.03-.05-1.55-.05-.71,0-1.27.52-1.27,1.27v16.68Z"/>
      <path class="cls-1" d="m385.78,127.3c0-1.65-.09-3.01-.09-4.04,0-1.65,1.46-1.69,2.73-1.69,1.64,0,3.24.09,4.89.09h5.73c.42,0,.75-.33.75-.75v-.33c0-.42-.33-.75-.75-.75h-9.63c-1.97,0-3.99.09-5.97.09-1.03,0-1.13-.52-1.13-1.88v-2.11c0-1.41.09-1.93,1.18-1.93,1.97,0,3.95.14,5.92.14h9.4c.47,0,.89-.42.89-.89,0-.14-.05-.42-.05-.66,0-.7.52-.7,1.03-.7.85,0,2.35.09,2.58.09.19,0,.28-.09.28-.19,0-.19-.24-.33-.52-.52-.42-.23-.89-.52-.89-1.08,0-.23.19-.47.28-.66,1.17-1.97,2.58-5.45,3.24-7.66.19-.66.23-.89.66-.89.38,0,3.53.47,4.18.56,1.5.19,2.96.28,2.96,1.08,0,.38-.28.42-.52.56-.14.05-.38.19-.38.38,0,.28.33.28.66.28h5.59c1.46,0,2.87-.09,4.14-.09,1.17,0,1.27.42,1.27,1.79v2.44c0,1.27-.09,1.74-1.27,1.74-1.27,0-2.54-.09-3.81-.09-.42,0-.99.05-.99.56,0,.14.14.47.19.61.05.14.24.52.24.66,0,1.18-4.56,1.88-5.59,1.88-.56,0-.71-.23-.8-.75-.38-1.69-.66-2.96-2.02-2.96-.89,0-1.27.99-1.65,1.64-.19.33-.23.42-.52.71-.19.19-.33.47-.38.8-.05.24-.09.33-.33.52-.09.09-.19.28-.19.42,0,.38.56.42.85.42h9.16c1.97,0,3.95-.14,5.92-.14,1.08,0,1.17.47,1.17,1.93v2.11c0,1.36-.09,1.88-1.13,1.88-1.97,0-4-.09-5.97-.09h-9.63c-.42,0-.75.33-.75.75v.33c0,.42.33.75.75.75h5.78c1.6,0,3.24-.09,4.84-.09,1.17,0,2.77.05,2.77,1.65,0,.52-.14,1.5-.14,2.96v1.5c0,.61.05,1.22.05,1.83,0,1.97-.09,3.15-2.02,4.18-.19.09-.38.19-.38.42,0,.42.61.71.94.85,1.27.56,2.49,1.08,3.76,1.55.66.28,1.27.52,1.27.94,0,1.03-2.44,4.84-3.48,4.84-1.22,0-7-3.34-8.27-4.18-1.5-.99-2.91-2.07-4.32-3.24-.19-.19-.66-.56-.94-.56-.42,0-.61.38-.61.75v.99c0,2.16.14,4.32.14,6.44,0,1.22-.52,1.36-2.12,1.36h-3.2c-1.41,0-1.93-.14-1.93-1.32,0-2.16.14-4.32.14-6.49v-.94c0-.33-.19-.75-.61-.75-.28,0-.56.23-.75.42-2.02,1.83-4.65,3.62-7.05,4.94-.94.52-4.79,2.44-5.69,2.44-1.36,0-3.62-3.38-3.62-4.7,0-.61.38-.66,2.35-1.36.47-.19,3.34-1.27,3.34-1.64,0-.33-.52-.33-.8-.33-.94,0-1.22-.24-1.22-1.17,0-1.08.05-2.16.05-3.24v-2.4Zm11.19-23.45c1.46,0,2.87-.09,4.13-.09,1.18,0,1.27.42,1.27,1.79v2.44c0,1.27-.09,1.74-1.22,1.74-.56,0-1.27-.05-1.83-.05-.28,0-.66.19-.66.52s.52,1.03.52,1.32c0,1.03-4.37,1.79-5.22,1.79-.89,0-.94-.28-1.08-.8-.28-1.22-.85-2.82-1.97-2.82-.56,0-.75.47-.99.94-1.27,2.3-1.55,2.82-2.44,2.82-1.08,0-5.36-1.22-5.36-2.58,0-.19.28-.61.52-.94,1.65-2.63,3.06-5.4,4.04-8.37.14-.38.19-.66.71-.66.09,0,3.76.52,4.28.56,1.88.23,3.06.33,3.06,1.13,0,.33-.28.47-.52.56-.14.09-.42.23-.42.42,0,.28.52.28.71.28h2.49Zm-3.53,23.08c-.61,0-1.13.52-1.13,1.13v2.3c0,.61.05,1.17.61,1.17.66,0,4.04-3.01,4.75-3.62.14-.14.38-.33.38-.56,0-.28-.38-.38-.61-.42h-4Zm15.51,0c-.23,0-.66.09-.66.42,0,.42,2.73,2.63,2.91,2.63.33,0,.47-.42.52-.66.09-.23.33-.42.61-.42.24,0,.56.09.94.09.85,0,.85-.42.85-1.08,0-.56-.28-.99-.89-.99h-4.28Z"/>
      <path class="cls-1" d="m456.65,108.87c1.79,0,2.91-.09,3.71-.09,1.17,0,1.46.23,1.46,1.32v2.35c0,1.27-.28,1.5-1.5,1.5-.75,0-1.93-.09-3.67-.09h-4.93c-1.79,0-2.91.09-3.71.09-1.41,0-1.46-.23-1.46-2.58v-.8c0-1.22.09-1.79,1.22-1.79,1.32,0,2.63.09,3.95.09h4.93Zm-9.12,25.43c0-1.27-.09-2.49-.09-3.62,0-2.07.94-2.68,2.87-2.68,1.17,0,2.35.09,3.48.09h.99c1.17,0,2.3-.09,3.43-.09,1.97,0,2.96.61,2.96,2.73,0,1.17-.09,2.35-.09,3.57v3.57c0,1.46.09,2.91.09,4.37,0,1.13-.52,1.22-1.88,1.22h-1.27c-2.12,0-2.58,0-2.63-1.27,0-.56-.42-.75-.94-.75-.85,0-.89.61-.94,1.03-.09.89-.56.99-1.83.99h-2.4c-1.36,0-1.88-.09-1.88-1.22,0-1.32.14-2.91.14-4.37v-3.57Zm8.32-31.91c1.17,0,2.35-.09,3.53-.09,1.03,0,1.13.56,1.13,1.74v1.74c0,1.17-.09,1.79-1.08,1.79-1.22,0-2.4-.09-3.57-.09h-2.91c-1.17,0-2.3.09-3.48.09-1.08,0-1.17-.52-1.17-1.79v-1.74c0-1.13.09-1.74,1.08-1.74,1.22,0,2.4.09,3.57.09h2.91Zm-.47,12.88c1.74,0,2.87-.09,3.62-.09,1.22,0,1.55.23,1.55,1.46v2.16c0,1.32-.28,1.55-1.46,1.55-.8,0-1.93-.09-3.71-.09h-1.93c-1.79,0-2.91.09-3.67.09-1.46,0-1.46-.28-1.46-2.58v-.85c0-1.17.09-1.74,1.17-1.74s2.3.09,3.95.09h1.93Zm-.09,6.49c1.32,0,2.68-.09,3.99-.09,1.13,0,1.32.47,1.32,1.5v2.02c0,1.03-.24,1.46-1.32,1.46-1.36,0-2.68-.09-3.99-.09h-1.65c-1.36,0-2.73.09-4.09.09-1.13,0-1.22-.56-1.22-1.69v-.8c0-2.02,0-2.49,1.27-2.49,1.36,0,2.68.09,4.04.09h1.65Zm-1.88,13.91c0,.47.38.94.89.94h.33c.47,0,.89-.42.89-.94v-1.36c0-.52-.42-.89-.89-.89h-.33c-.47,0-.89.38-.89.89v1.36Zm14.1-15.74c-1.5,0-3.05.09-4.56.09-.94,0-1.08-.38-1.08-1.36v-1.79c0-.89.14-1.27,1.03-1.27,1.03,0,2.02.05,3.05.05.38,0,.75,0,.75-.71,0-.66-.38-.75-.94-.75h-.75c-1.13,0-1.32-.42-1.32-1.32v-1.69c0-.85.24-1.27,1.32-1.27.24,0,.52.05.75.05.47,0,.89-.14.89-.75,0-.42-.24-.7-.66-.7-.75,0-1.55.05-2.3.05-.85,0-1.03-.38-1.03-1.27v-1.83c0-.85.14-1.22.99-1.22.56,0,1.08.05,1.64.05.71,0,1.32-.47,1.32-1.27,0-.28-.05-.71-.05-1.08,0-.56.38-.66.85-.66.75,0,3.9.23,4.79.33,1.08.09,1.97.09,1.97.66,0,.28-.19.42-.38.61-.28.23-.61.56-.61.94,0,.28.24.52.56.52h1.97c.85,0,1.32-.52,1.32-1.36,0-.19,0-.52-.05-.71,0-.09-.05-.28-.05-.42,0-.52.47-.56.94-.56.66,0,4.32.28,5.17.38.89.09,1.74.09,1.74.66,0,.28-.14.38-.33.52-.33.28-.66.56-.66.99,0,.38.33.52.66.52.85,0,1.69-.09,2.58-.09.99,0,.99.42.99,2.07v.85c0,1.03-.09,1.41-1.03,1.41-.8,0-1.64-.05-2.49-.05-.47,0-.8.14-.8.7,0,.42.28.75.71.75.52,0,.99-.05,1.46-.05,1.08,0,1.32.42,1.32,1.27v1.64c0,.94-.14,1.36-1.27,1.36h-1.41c-.52,0-.8.23-.8.8,0,.66.42.71.75.71,1.08,0,2.16-.09,3.24-.09.89,0,.99.38.99,1.36v1.69c0,.94-.09,1.36-.99,1.36-1.55,0-3.1-.09-4.61-.09h-4.46c-.33,0-.56.28-.56.61v.19c0,.56.56.66.99.66,1.27,0,2.54-.09,3.81-.09,1.46,0,2.91.09,2.91,1.97,0,1.17-.09,2.73-.09,4.42v3.24c0,.85.61,1.41,1.46,1.41.19,0,.38-.05.52-.05.94,0,1.03.42,1.03,1.36v.8c0,2.02-.05,2.26-1.03,2.26h-.19c-.85,0-1.74.09-1.74,1.55v.56c0,4.79-3.9,5.12-7.71,5.12-1.13,0-1.69-.14-2.02-1.32-.19-.71-.38-1.69-.38-2.44,0-.99.14-1.97,1.36-1.97.61,0,1.22.05,1.83.05s.85-.19.85-.85c0-.42-.33-.75-.8-.75h-6.86c-1.17,0-1.27,1.08-1.27,2.11,0,1.32.09,2.63.09,3.95,0,1.17-.47,1.27-1.83,1.27h-2.49c-1.32,0-1.83-.09-1.83-1.22,0-1.74.09-3.52.09-5.26,0-.56-.42-.8-.94-.8h-.89c-.8,0-.99-.38-.99-1.22v-1.97c0-.89.19-1.22,1.08-1.22.28,0,.56.05.89.05.47,0,.85-.23.85-.75v-3.9c0-1.5-.09-3.06-.09-4.42,0-1.83,1.46-1.97,2.91-1.97,1.22,0,2.49.09,3.57.09.42,0,.85-.19.85-.66v-.19c0-.38-.28-.61-.61-.61h-3.9Zm4.65,7.14c.33-.05.61-.28.61-.61v-.14c0-.33-.28-.61-.61-.61h-.8c-.33,0-.61.28-.61.61v.14c0,.33.28.61.61.61h.8Zm-.8,3.81c-.33,0-.61.28-.61.61v.28c0,.33.28.61.61.61h.8c.33,0,.61-.28.61-.61v-.28c0-.33-.28-.56-.61-.61h-.8Zm2.35-22.37c-.33,0-.61.23-.61.56v.33c0,.33.28.61.61.61h2.82c.33,0,.61-.28.61-.61v-.33c0-.33-.28-.56-.61-.56h-2.82Zm0,5.64c-.33,0-.61.23-.61.61v.33c0,.33.28.61.61.61h2.82c.33,0,.61-.28.61-.61v-.33c0-.38-.28-.61-.61-.61h-2.82Zm5.4,12.92c.33,0,.61-.28.61-.61v-.14c0-.33-.28-.61-.61-.61h-.85c-.33,0-.61.28-.61.61v.14c0,.33.28.56.61.61h.85Zm-.85,3.81c-.33.05-.61.28-.61.61v.28c0,.33.28.61.61.61h.85c.33,0,.61-.28.61-.61v-.28c0-.33-.28-.61-.61-.61h-.85Z"/>
      <path class="cls-1" d="m538.48,126.92c0,.61.52,1.13,1.13,1.13h3.48c1.69,0,3.38-.14,5.08-.14,1.17,0,1.27.61,1.27,2.07v2.02c0,1.55-.09,2.07-1.32,2.07-1.69,0-3.34-.14-5.03-.14h-3.29c-.7,0-1.32.61-1.32,1.32v.56c0,.7.61,1.32,1.32,1.32h6.3c1.64,0,3.34-.14,5.03-.14,1.17,0,1.27.56,1.27,2.02v2.02c0,1.6-.09,2.12-1.32,2.12-1.69,0-3.34-.14-4.98-.14h-20.87c-1.65,0-3.34.14-4.98.14-1.22,0-1.32-.56-1.32-2.12v-2.02c0-1.5.09-2.02,1.32-2.02,1.65,0,3.34.14,4.98.14h5.87c.71,0,1.32-.61,1.32-1.32v-.56c0-.71-.61-1.32-1.32-1.32h-3.1c-1.69,0-3.34.14-4.98.14-1.22,0-1.32-.56-1.32-2.16v-2.02c0-1.46.09-1.97,1.27-1.97,1.69,0,3.34.14,5.03.14h3.1c.71,0,1.32-.61,1.32-1.32v-1.13c0-.47-.05-.85-.38-.85-.24,0-.42.19-.56.33-.52.52-1.79,1.83-2.54,1.83-.56,0-1.97-2.12-2.35-2.68-.14-.23-.28-.42-.56-.42-.42,0-.56.42-.75.75-.71,1.41-1.22,2.63-2.02,2.63-.7,0-2.02-.71-2.63-1.08-.23-.14-.66-.47-.94-.47-.52,0-.56.8-.61,1.32-.47,5.08-1.22,11.04-3.52,15.84-.19.38-.38.56-.8.56-1.36,0-5.36-1.74-5.36-3.34,0-.09,0-.14.28-.75,2.44-5.69,3.1-13.02,3.1-18.85v-8.18c0-1.65-.14-3.34-.14-4.98,0-1.88.89-2.44,2.68-2.44,1.6,0,3.2.09,4.79.09h6.11c.89,0,1.6-.23,1.6-1.27,0-.94-.14-1.79-.14-2.07,0-.61.47-.71.99-.71.33,0,.89.05,1.22.09,1.74.14,3.48.28,5.17.47.42.05,1.08.14,1.08.66,0,.33-.24.52-.52.75-.28.28-.42.61-.42.99,0,.99.8,1.08,1.17,1.08h8.13c1.88,0,3.81-.14,5.69-.14,1.17,0,1.27.47,1.27,1.79v2.4c0,1.27-.09,1.79-1.22,1.79-1.93,0-3.81-.14-5.73-.14h-23.88c-.75,0-1.32.61-1.32,1.32v9.4c0,.94,0,1.08.28,1.08.19,0,.61-.8.94-1.36.09-.19.19-.33.24-.42,1.41-2.58,2.4-5.45,3.2-8.32.09-.28.24-.56.56-.56.56,0,4.89,1.36,5.78,1.6.28.14.56.38.56.71,0,.38-.42.47-.71.61-.85.33-1.22,2.44-1.22,2.58,0,.85,2.63,4.09,3.06,4.09s.42-.56.42-.85v-4.04c0-2.82-.19-3.9-.19-4.14,0-.56.33-.71.85-.71.56,0,3.62.28,4.56.38,1.36.14,1.79.28,1.79.75,0,.33-.19.42-.47.71-.42.42-.47,1.64-.47,2.96v5.5c0,.38,0,.8.28.8.61,0,4.04-7.38,4.65-10.2.09-.33.19-.66.66-.66.42,0,3.95,1.13,4.84,1.41.42.14,1.32.42,1.32.99,0,.38-.52.47-.8.52-.52.14-.66.56-.89,1.27-.05.09-.09.23-.14.38-.09.28-.28.66-.28.99,0,.56.47,1.08.8,1.5,1.03,1.27,2.16,2.49,3.29,3.67.28.28.66.71.66.99,0,.89-3.43,3.57-4.46,3.57-.66,0-2.16-2.26-2.58-2.87-.14-.19-.28-.38-.52-.38-.47,0-.66.56-.8.89-.85,1.79-1.27,2.44-2.16,2.44-.66,0-2.21-.8-2.77-1.17-.19-.09-.33-.23-.56-.23-.47,0-.52.52-.52.85v.28Z"/>
      <path class="cls-1" d="m588.44,135.29c0,3.71-3.01,6.72-6.72,6.72s-6.67-3.01-6.67-6.72,2.96-6.72,6.67-6.72,6.72,3.01,6.72,6.72Zm-10.67,0c0,2.16,1.79,3.95,3.95,3.95s4-1.79,4-3.95-1.79-3.95-4-3.95-3.95,1.74-3.95,3.95Z"/>
    </g>
  </g>
</svg>