<svg xmlns="http://www.w3.org/2000/svg" viewBox="0 0 108.91 500.28"><title>アセット 272x@f</title><g id="レイヤー_2" data-name="レイヤー 2"><g id="contents"><path d="M108.05,9.34c0,.93.1,1.69.1,2.35s-.33.86-1.39.86H105.2c-1.06,0-1.39-.06-1.39-.86,0-.49.07-1,.07-1.46V5.7c0-1.1-.57-1.13-1.5-1.13H83c-1.69,0-3.35.07-5,.07-1.06,0-1.16-.14-1.16-1.23V1.49c0-.86.1-1.06,1.06-1.06C79.63.43,81.32.5,83,.5h20.27c1.19,0,2.35-.1,3.55-.1s1.26.53,1.26,1.49c0,.69-.07,1.36-.07,2Z" style="fill:#3b241a"/><path d="M78.6,40.48c0-.73,0-.79-.7-1.32-.36-.27-1-.8-1-1.29,0-.34.43-.73.63-1a25,25,0,0,0,5.06-8.51c.07-.26.14-.5.47-.5.16,0,2.62.8,3,.93,1.2.37,1.76.53,1.76.93s-.17.36-.4.43-.4.17-.4.4.24.26.63.26h1l1,0a4.93,4.93,0,0,1,.66-.07c.57,0,.8.33,1.2.76s.63.67.63,1.06a11.93,11.93,0,0,1-1.33,2.75,1.33,1.33,0,0,0-.26.7c0,.3.23.43.49.5.73.16.93.59.93,1.29s-.07,1.32-.07,2v3.31c0,.9.07,1.72.07,2.42,0,1.09-.86,1.19-1.42,1.26s-.77.46-.77,1v3.78c0,1.19,0,1.59,1.29,1.59h10.11a2.25,2.25,0,0,0,1.46-.33,2,2,0,0,0,.39-.93.24.24,0,0,0-.26-.26,19.8,19.8,0,0,1-2.92.26c-1.65,0-2-.13-2.25-.73A6.55,6.55,0,0,1,97.22,49c0-1,.2-1.66,1.12-1.66.57,0,1.13.1,1.69.1.9,0,1.06-.06,1.29-1.39a69.87,69.87,0,0,0,.4-7.65c0-1-.1-1.16-1.12-1.16s-1.13.5-1.2,1.22a28.14,28.14,0,0,1-3.28,11.33,13.66,13.66,0,0,1-1.35,2,1,1,0,0,1-.73.34c-.93,0-3.35-1.66-3.35-2.62a1.26,1.26,0,0,1,.33-.73,16.7,16.7,0,0,0,3.31-7.12,22.6,22.6,0,0,0,.53-3.58.72.72,0,0,0-.82-.8c-.2,0-.4,0-.63,0-.76,0-.86-.3-.86-1.19V34.25c0-.92.06-1.25.86-1.25h.69c.63,0,.83-.47.83-1v-.3c0-1.26-.07-2.75-.07-3,0-.53.3-.63.77-.63s4,.2,4.37.3a.44.44,0,0,1,.4.46c0,.2-.2.34-.4.44-.43.23-.46.46-.46,1.42V32c0,.73.29,1.06,1.06,1.06H101c1,0,2-.1,3-.1,2.06,0,2.39.73,2.39,2.65,0,3.32-.24,11-1.33,14a.77.77,0,0,0-.06.33c0,.4.36.53.66.63.76.23,1.89.79,1.89,1.72a10.1,10.1,0,0,1-1.59,4.11,3.57,3.57,0,0,1-3.15,1.29h-13c-3,0-4.34-.2-4.34-3.51,0-.6,0-1.19,0-1.79V49.13c0-.37,0-.5-.26-.5a.72.72,0,0,0-.7.63,22.58,22.58,0,0,1-2.91,7.55c-.27.4-.86,1.33-1.39,1.33-.9,0-3.28-1.62-3.28-2.42,0-.17.16-.33.29-.46a14.28,14.28,0,0,0,3.38-7.82c0-.63-.39-.6-.89-.66a1.15,1.15,0,0,1-1.13-1.26c0-.8.07-1.59.07-2.39Zm4.34,2.65a.54.54,0,0,0,.53-.53v-2a.52.52,0,0,0-.53-.53h-.1a.52.52,0,0,0-.53.53v2a.54.54,0,0,0,.53.53Zm2.48,4.21a.52.52,0,0,0-.53-.53H83.67c-.2,0-.4,0-.4.17s.3.26.83.43c.26.06.53.16.86.26a.68.68,0,0,0,.23.07c.1,0,.23-.07.23-.3Zm-.2-12.79c-1.09,0-1.65,1.59-1.65,1.66,0,.3.26.33.63.33h.33c.66,0,.83-.07,1.22-.7a2.64,2.64,0,0,0,.47-1.06c0-.23-.23-.23-.63-.23Zm2.19,8.58a.54.54,0,0,0,.53-.53v-2a.52.52,0,0,0-.53-.53h-.16a.52.52,0,0,0-.53.53v2a.53.53,0,0,0,.53.53Z" style="fill:#3b241a"/><path d="M84.26,88.78c.73,0,1.49,0,2.26,0,1.82,0,1.85,1.09,1.85,2.55a34.47,34.47,0,0,1-1,8.65c-.33,1.19-.86,2.65-2,3.24a7.92,7.92,0,0,1-3.61.73c-1.32,0-1.82-.1-2.12-1.16a9.07,9.07,0,0,1-.36-2.48c0-.66.06-1.53.93-1.53.43,0,1.16.07,1.59.07,1.32,0,1.45-.13,1.65-1.09a20,20,0,0,0,.4-3.68c0-.76-.4-.93-1.09-.93a.76.76,0,0,0-.7.47C81.85,94,81,94,80.59,94c-.76,0-2.82,0-2.82-1.09,0-.23.07-.7.1-1,.23-1.89.83-8.32.89-9.21.1-1.29.93-1.33,2.36-1.33.63,0,1.26,0,1.88,0s1.1-.43,1.1-.9v-.56a.93.93,0,0,0-.93-.93h-2c-.7,0-1.46.07-1.82.07-.8,0-.86-.33-.86-1.36V76.13c0-1.33.06-1.59.89-1.59.4,0,.9.1,1.79.1h3.61c.7,0,1.39-.1,2.12-.1s1.59.13,1.59,1.16c0,1.19-.06,2.38-.06,3.58v3.28c0,1.06.06,2.08.06,3.11,0,.83-.36.89-1.56.89H85.82c-1.26,0-1.56,0-1.75-.49a.43.43,0,0,0-.44-.3c-.43,0-.72.1-.79.6,0,.29-.13,1.55-.13,1.78a.59.59,0,0,0,.59.63ZM94.6,98.62c.89-.06,1.19-.23,1.19-1.19V96.3a.53.53,0,0,0-.53-.53h-.2c-.36,0-.73.07-.73.53v.14c0,.56-.33.63-.89.63h-2C90.19,97.07,90,97,90,96c0-.53,0-1.89,0-2.85V89.28c0-.86,0-1.69,0-2.55,0-1.13.57-1.19,1.53-1.19l3.18,0H95a.81.81,0,0,0,.83-.79c0-.6,0-1.3-.69-1.3l-4,.33a.68.68,0,0,0-.4.34c-.13.13-.26.33-.5.33s-.43-.33-.49-.6c-.1-.43-.67-3.78-.67-4.07s.14-.43.47-.43h.26c.3,0,1,0,1.53,0,.66,0,1-.1,1.22-.69a28.57,28.57,0,0,0,1.33-4.11c.1-.46.2-.86.49-.86s2.52.46,3,.56c1.36.3,2.32.5,2.32,1s-.3.47-.79.6a.51.51,0,0,0-.43.3c-.07.1-.2.33-.37.63a20,20,0,0,0-1.16,2.12c0,.29.27.39.5.39.69,0,2.15-.06,3-.1.47,0,.63-.13.63-.39a4.64,4.64,0,0,0-.63-1.23,1.34,1.34,0,0,1-.26-.6c0-.69,2.85-1.32,3.41-1.32a.82.82,0,0,1,.8.46A33.13,33.13,0,0,1,106,79.18a21.8,21.8,0,0,1,1.58,3.91c0,1.12-2.78,1.75-3.27,1.75-.7,0-.87-.46-1.06-1.06s-.27-.89-.9-.89c-.1,0-1.32.1-1.49.13s-.33,0-.33.1.07.1.13.1.4.13.4.33-.33.46-.53.63a.68.68,0,0,0-.3.63.77.77,0,0,0,.76.76h.43l3.22,0c.86,0,1.49.06,1.49,1.12,0,.86,0,1.76,0,2.62V92c0,.89,0,1.76,0,2.62,0,1-.53,1.16-1.43,1.16-1.09,0-2.18,0-3.28,0h-.72a.55.55,0,0,0-.53.53v1.16a.68.68,0,0,0,.69.77c.3,0,.56-.07.56-.44a.88.88,0,0,0-.13-.43.58.58,0,0,1,0-.23c0-.66,3.15-1.09,3.64-1.09s.9.79,1.79,3.15a21.38,21.38,0,0,1,1,3.18c0,.92-3.31,1.52-3.64,1.52-.66,0-.76-.63-.89-1.19a.84.84,0,0,0-.86-.73c-.1,0-.9.1-2.39.26-3.18.33-8.41.86-9.24.93-.43,0-.53.13-.66.46s-.24.47-.47.47c-.46,0-.56-.53-.86-2.09-.13-.76-.46-2.65-.46-2.81s.16-.34,1.72-.37C91.09,98.79,93.51,98.69,94.6,98.62Zm.33-9.21a.63.63,0,0,0-.63.63v1.23a.63.63,0,0,0,.63.63h.23a.63.63,0,0,0,.63-.63V90a.63.63,0,0,0-.63-.63Zm5.9,0a.63.63,0,0,0-.66.63v1.23a.65.65,0,0,0,.66.63h.33a.66.66,0,0,0,.66-.63V90a.66.66,0,0,0-.66-.63Z" style="fill:#3b241a"/><path d="M102.35,125.66a11.65,11.65,0,0,1,3.51,8.51,12.42,12.42,0,0,1-6.66,11,12.69,12.69,0,0,1-3.94,1.49c-1.16,0-2.91-3-2.91-4,0-.3.3-.44,1.26-.67,3.84-1,7-3.41,7-7.65,0-5.2-4-7.25-5-7.25-.57,0-.63.59-.67,1.19-.36,4.6-1.69,10.23-4.73,13.88a6.44,6.44,0,0,1-4.81,2.75,5.9,5.9,0,0,1-5-3.41,11.27,11.27,0,0,1-1.1-5,14,14,0,0,1,14.12-14.28A12.25,12.25,0,0,1,102.35,125.66ZM84.23,136.49c0,.8.2,3.21,1.36,3.21.79,0,1.92-2.18,2.25-2.88a29.92,29.92,0,0,0,2.09-8.48c0-.26-.13-.5-.43-.5C88.54,127.84,84.23,130.89,84.23,136.49Z" style="fill:#3b241a"/><path d="M83.5,187c-.26,0-.46.09-.46.39,0,.5,0,1,0,1.49,0,.73-.2.8-1.32.8H79.46c-.66,0-1-.07-1-.76,0-1.43.06-2.85.06-4.28V170.94c0-1,0-2.08,0-3.11s.36-1.52,1.46-1.52c.83,0,1.65.06,2.48.06H84.6c.82,0,1.65-.06,2.48-.06,1,0,1.49.33,1.49,1.55,0,1-.07,2.06-.07,3.08v12.49c0,1.43.07,2.85.07,4.28,0,.69-.23.76-1.13.76H85.52c-.79,0-1.06-.07-1.06-.76v-.37a.37.37,0,0,0-.39-.39Zm.4-12.46a.63.63,0,0,0,.63-.63v-2.55a.63.63,0,0,0-.63-.63h-.27a.63.63,0,0,0-.63.63v2.55a.63.63,0,0,0,.63.63Zm-.27,4a.64.64,0,0,0-.63.67V182a.64.64,0,0,0,.63.66h.27a.64.64,0,0,0,.63-.66v-2.88a.67.67,0,0,0-.63-.67Zm18.39-11c1.19,0,2.42-.06,3.58-.06.76,0,.83.3.83,1.09V170c0,1-.07,1.32-.8,1.32-1.22,0-2.42-.1-3.61-.1h-.89a.82.82,0,0,0-.8.8v.5a.63.63,0,0,0,.66.62h1c1.42,0,2.88-.06,4.3-.06,1,0,1.1.26,1.1,1.29V176c0,1-.1,1.33-1.06,1.33-.43,0-.87,0-1.3,0-.09,0-.29,0-.29.2s0,.07,0,.1c0,.23-.3.3-.46.4s-.4.33-.4.76a.67.67,0,0,0,.69.63l1.53,0c.89,0,1,.33,1,1.32v1c0,1.95-.07,2-1,2-.29,0-.72,0-1.29,0a.93.93,0,0,0-.92,1V188c0,.73.06,1.46.06,2.18,0,3.35-2.65,3.55-5.33,3.55-2,0-2.49-.13-2.75-1.19a10,10,0,0,1-.27-2.26v-.13c0-.2-.1-.5-.36-.5a.75.75,0,0,0-.43.17,3,3,0,0,1-1.19.53c-.47,0-1-.89-1.89-2.22a18.09,18.09,0,0,0-1.26-1.72c-.13-.17-.3-.3-.3-.5,0-.46,1.46-1.59,1.86-1.85.1-.07.26-.14.26-.27s-.13-.16-.23-.16c-.37,0-.73,0-1.09,0-.9,0-1-.37-1-1.49v-1.56c0-1,.09-1.32,1-1.32,1.19,0,2.35.06,3.51.06h4.2a.65.65,0,0,0,.7-.66,9.43,9.43,0,0,0-.1-1,.52.52,0,0,0-.6-.53h-4c-1.46,0-2.89.07-4.31.07-1,0-1.13-.27-1.13-1.26v-1.63c0-1.06.1-1.32,1.13-1.32,1.42,0,2.85.06,4.31.06h.06a.79.79,0,0,0,.86-.82v-.24a.8.8,0,0,0-.86-.86c-1,0-2,.1-3,.1-.76,0-.83-.26-.83-1.29v-1.46c0-.89.07-1.22.86-1.22,1.16,0,2,.1,2.58.1.93,0,1.26-.24,1.26-1.43a10.78,10.78,0,0,0-.1-1.52c0-.07,0-.2,0-.27,0-.39.37-.43.66-.43.67,0,3.45.23,4.18.3.23,0,.73.07.73.43,0,.2-.2.33-.37.43s-.33.63-.33,1.53c0,.46.27.92,1.09.92Zm-2.65,17.1a.93.93,0,0,0-.93-.93H95c-.37,0-.8,0-.8.43a.87.87,0,0,0,.3.53c.43.56,2.12,2.88,2.12,3.48,0,.2-.13.33-.13.53,0,.36.33.4.79.4h.93c1.13,0,1.16-.17,1.16-2Z" style="fill:#3b241a"/><path d="M83.83,221.83a.9.9,0,0,0-.92.93v10.83c0,1.72.09,3.41.09,5.1,0,.9-.36,1-1.52,1H79.59c-1.09,0-1.42-.06-1.42-1,0-1.69.1-3.38.1-5.1V215.77c0-1.19-.07-2.35-.07-3.55s.47-1.82,1.76-1.82c1.06,0,2.12.07,3.21.07h3.41c1.06,0,2.12-.07,3.15-.07s1.82.23,1.82,1.82c0,1.2-.06,2.36-.06,3.55v1.16c0,1,.06,2.08.06,3.14,0,1.3-.5,1.83-1.75,1.83-1.1,0-2.16-.07-3.22-.07Zm3-7.55a.41.41,0,0,0-.43-.43H83.34a.41.41,0,0,0-.43.43v.16a.41.41,0,0,0,.43.4h3.08a.41.41,0,0,0,.43-.4Zm0,3.67a.53.53,0,0,0-.53-.53H83.44a.55.55,0,0,0-.53.53v.1a.54.54,0,0,0,.53.53h2.88a.55.55,0,0,0,.53-.53Zm-1,9.71c0-.76-.07-1.52-.07-2.28,0-1.26,1-1.33,2-1.33l2.91,0H93.8l2.92,0c1,0,2,.07,2,1.29,0,.76-.07,1.53-.07,2.32v5.67c0,1,.1,2.48.1,3.08s-.36.72-1.32.72H95.56c-1.09,0-1.32-.06-1.32-.82a.58.58,0,0,0-.67-.6H90.86c-.47,0-.6.27-.6.5v.16c0,.7-.36.76-1.42.76H87.11c-1,0-1.39-.06-1.39-.72s.1-2,.1-3.08Zm4.34.53a.36.36,0,0,0,.37.37h3.41a.37.37,0,0,0,.39-.37V228a.37.37,0,0,0-.39-.36H90.53a.37.37,0,0,0-.37.36Zm0,3.61a.44.44,0,0,0,.43.43H93.9a.43.43,0,0,0,.43-.43v-.13a.43.43,0,0,0-.43-.43H90.59a.42.42,0,0,0-.43.43Zm11.73-9a.89.89,0,0,0-.93-.93H98.31c-1,0-2.09.07-3.15.07s-1.79-.24-1.79-1.83c0-1.06.07-2.12.07-3.14v-1.16c0-1.16-.07-2.35-.07-3.55s.47-1.82,1.76-1.82c1.06,0,2.12.07,3.18.07h3.35c1.06,0,2.12-.07,3.14-.07s1.82.23,1.82,1.82c0,1.2-.09,2.36-.09,3.55v16.76c0,.89.06,1.76.06,2.65a4.41,4.41,0,0,1-1.06,3.18,6.6,6.6,0,0,1-4.11,1.19c-1.62,0-2.48-.16-2.48-3.61,0-.56.07-1.06.76-1.06.47,0,1.09.13,1.56.13s.63-.46.63-1Zm0-8.48a.39.39,0,0,0-.4-.43h-3a.41.41,0,0,0-.43.43v.16a.41.41,0,0,0,.43.4h3a.39.39,0,0,0,.4-.4Zm0,3.67a.5.5,0,0,0-.53-.53H98.61a.53.53,0,0,0-.53.53v.1a.52.52,0,0,0,.53.53h2.75a.52.52,0,0,0,.53-.53Z" style="fill:#3b241a"/><path d="M87.38,257.15c0-.33.06-.63.46-.63s4.08.89,4.71,1.06c.26.06.86.2.86.53s-.24.33-.53.46c-.53.27-.67,1.16-.8,2.09l-.06.46a6.34,6.34,0,0,0-.1.66c0,.77.69.8,1.12.8a5.78,5.78,0,0,1,2.75.73c2.35,1.36,2.79,3.31,2.79,5.66,0,2.92-.63,7.76-2.09,10.31s-4,3.71-7,3.71c-1,0-1.43-.14-1.72-.93a13,13,0,0,1-.73-3.35c0-.43.13-.79.63-.79s.92,0,1.39,0c2,0,2.48-.13,3.14-1.39a19.2,19.2,0,0,0,1.5-7.35c0-1.53-.24-2-1.53-2-1.09,0-1.39.14-1.69,1.23a43.69,43.69,0,0,1-5.1,11A21.42,21.42,0,0,1,83,282.65a.72.72,0,0,1-.56.24c-.77,0-3.91-1.76-3.91-2.82,0-.33.29-.66.82-1.19a25.86,25.86,0,0,0,5.77-9.11,2.07,2.07,0,0,0,.16-.56.46.46,0,0,0-.53-.5,21,21,0,0,0-2.81.93,1.58,1.58,0,0,1-.66.23c-.53,0-.93-1.29-1.23-2.59a17.68,17.68,0,0,1-.43-2.28c0-.43.23-.53,1.22-.63a36,36,0,0,0,5.07-.83c.86-.16,1.06-.43,1.16-1.32a40.81,40.81,0,0,0,.27-4.58Zm13.48,3.28a24,24,0,0,1,2.68,3.31c.5.7,2.72,3.94,2.72,4.57,0,1.09-3,2.82-3.94,2.82-.37,0-.53-.3-.83-.9a28.32,28.32,0,0,0-4.6-7.42,1,1,0,0,1-.37-.59c0-.7,2.55-2.39,3.31-2.39A1.52,1.52,0,0,1,100.86,260.43Zm3.25-2.72c.86.86,1.52,1.59,1.52,1.89,0,.66-1.56,1.89-1.95,1.89-.14,0-.34-.2-.5-.4a32.3,32.3,0,0,0-2.39-2.58c-.19-.17-.36-.34-.36-.5,0-.47,1.66-1.72,2-1.72C102.72,256.29,103.51,257.11,104.11,257.71Zm2.42-3.35c.46.43,2.38,2.22,2.38,2.69,0,.66-1.59,1.92-2,1.92-.2,0-.4-.27-.5-.43A34.15,34.15,0,0,0,104,256c-.13-.14-.36-.33-.36-.53,0-.47,1.69-1.69,2-1.69S106.43,254.27,106.53,254.36Z" style="fill:#3b241a"/><path d="M93.14,301.24c.4.1.76.23.76.43s-.23.33-.63.6a6.58,6.58,0,0,0-.59,1.85,2.17,2.17,0,0,0-.07.27c0,.1,0,.23,0,.36a.47.47,0,0,0,.4.47,4,4,0,0,0,.73-.2,1.59,1.59,0,0,1,.56-.14c.3,0,.4.17.46.5a31.89,31.89,0,0,1,.33,3.45c0,.76-.46.89-3,1.36-1.16.19-1.2.43-1.59,1.49-.57,1.52-1.2,3-1.86,4.5-.86,2-1.76,3.94-2.78,5.83-.27.47-.6,1-.8,1.39a.69.69,0,0,1-.73.5c-1.12,0-4.3-1.39-4.3-2.25a5.87,5.87,0,0,1,.69-1.33c.67-1.12,4.28-7.72,4.28-8.54a.52.52,0,0,0-.57-.5c-.19,0-.86.06-1.09.1s-1.06.1-1.46.1c-.69,0-1-.3-1.22-3.12a10.44,10.44,0,0,1-.1-1.16c0-.46.26-.59.66-.59.56,0,1.36.06,2.09.06,3,0,3.44-.06,3.77-.92a22.18,22.18,0,0,0,.83-5.14c0-.26,0-.53.23-.53C88.5,300.08,92.48,301.08,93.14,301.24Zm4.44,10.4c.56.14.86.37.86,1,0,.33-.06.93-.06,1.53,0,1.65.13,3.28.23,4.9,0,.8.2,1,1,1.29.93.37,5.1,2.32,5.1,3.25,0,.73-1.85,3.44-2.92,3.44-.26,0-.72-.29-1.45-.86-.2-.16-.4-.33-.63-.49a.77.77,0,0,0-1.26.36,5.82,5.82,0,0,1-1.13,1.56,5.76,5.76,0,0,1-4,1.26c-3.14,0-6.42-1.53-6.42-5.11,0-3.31,2.91-4.73,5.86-4.73H93a.73.73,0,0,0,.79-.8c0-.56-.3-3.51-.4-4.5a13.67,13.67,0,0,1-.13-1.56c0-.7.27-1,1-1A19.16,19.16,0,0,1,97.58,311.64Zm-5.83,12.09a1.12,1.12,0,0,0,1.23,1c.76,0,1-.4,1-1.1,0-.43,0-.79-1-.79C92.45,322.84,91.75,323.07,91.75,323.73Zm11.4-16c.76.7,2.85,2.68,2.85,3.38,0,1-2.69,3.31-3.52,3.31-.39,0-.69-.49-.92-.86a21.46,21.46,0,0,0-4.14-4.27c-.27-.2-.6-.43-.6-.7,0-.53,2.12-3.24,3.05-3.24C100.5,305.32,102.62,307.2,103.15,307.7Z" style="fill:#3b241a"/><path d="M86.38,349.58c.34.06.7.16.7.46,0,.13-.1.23-.33.4a2.34,2.34,0,0,0-.63,1.46,24.18,24.18,0,0,0-.43,4.63,15.45,15.45,0,0,0,1.19,6.36c.27.57.86,1.63,1.59,1.63s1.53-1.36,1.82-1.89.53-.83,1-.83c1,0,3.45,1.89,3.45,2.68s-1.53,2.55-2.09,3.18c-1.16,1.3-2.32,2.39-4.14,2.39-2.22,0-4.11-1.62-5.34-3.35-2.45-3.44-2.68-8.28-2.68-12.35,0-.63.13-4.64.17-5.1s.19-.53.56-.53S85.56,349.41,86.38,349.58Zm12.13-1.06c.89,0,3.51,2.05,5,4.4a18.2,18.2,0,0,1,2.45,6.79c.07.53.16,1.33.16,1.73,0,.69-.16,1-.82,1.19a11.41,11.41,0,0,1-3.15.56c-1.23,0-1.26-.43-1.36-1.69-.3-4-1.69-7.12-4.84-9.37a.71.71,0,0,1-.33-.57C95.59,350.8,97.51,348.52,98.51,348.52Z" style="fill:#3b241a"/><path d="M76.91,390.13c0-.93-.1-1.69-.1-2.36s.33-.86,1.39-.86h1.56c1.06,0,1.39.07,1.39.86,0,.5-.07,1-.07,1.46v4.54c0,1.09.57,1.13,1.49,1.13h19.35c1.69,0,3.35-.07,5-.07,1.06,0,1.16.13,1.16,1.23V398c0,.86-.1,1.06-1.06,1.06-1.73,0-3.42-.07-5.14-.07H81.65c-1.2,0-2.36.1-3.55.1s-1.26-.53-1.26-1.49c0-.7.07-1.36.07-2Z" style="fill:#3b241a"/><path d="M10.53.27A23,23,0,0,1,13.22,0c.89,0,1,.07,1.19,2.55a26.21,26.21,0,0,0,.56,4c.1.4.27.86.77.86S19.31,5.66,20,5.23a12.62,12.62,0,0,1,2.62-1.32c.36,0,1.06,1,1.52,1.79a9.52,9.52,0,0,1,1.36,2.85c0,.36-.36.49-1.06.73-.13.06-.3.1-.46.16a56.63,56.63,0,0,0-10.44,5.24c-1.59,1-3.87,2.48-3.87,4.2,0,2.22,4.2,2.22,5.73,2.22a41.3,41.3,0,0,0,5-.26c.7-.1,3-.47,3.51-.63.1,0,.24,0,.33,0,.34,0,.44.57.47.83.1,1,.13,2.06.13,3s0,1.29-.89,1.52a66.19,66.19,0,0,1-9.08.56c-2.62,0-4.9-.16-7.22-1.49A6.47,6.47,0,0,1,4.41,19c0-3.28,2.35-6,5-7.72.49-.3.79-.46.79-1a2.77,2.77,0,0,0-.2-.79c-.26-.9-.5-1.82-.73-2.78A47.15,47.15,0,0,0,7.85,1.56a2,2,0,0,1-.1-.4C7.75.76,8.15.56,10.53.27Z" style="fill:#3b241a"/><path d="M9.14,48.24c.33.06.7.16.7.46,0,.13-.1.23-.33.4a2.34,2.34,0,0,0-.63,1.45,24.36,24.36,0,0,0-.43,4.64,15.48,15.48,0,0,0,1.19,6.36c.26.57.86,1.63,1.59,1.63s1.52-1.36,1.82-1.89.53-.83,1-.83c1,0,3.44,1.89,3.44,2.68S16,65.69,15.44,66.32c-1.16,1.29-2.32,2.39-4.14,2.39-2.22,0-4.11-1.63-5.34-3.35C3.51,61.92,3.28,57.08,3.28,53c0-.63.13-4.64.17-5.11s.19-.53.56-.53S8.31,48.07,9.14,48.24Zm12.13-1.06c.89,0,3.51,2,5,4.4a18.2,18.2,0,0,1,2.45,6.79c.06.53.16,1.33.16,1.73,0,.69-.16,1-.82,1.19a11.47,11.47,0,0,1-3.15.56c-1.23,0-1.26-.43-1.36-1.69-.3-4-1.69-7.12-4.84-9.37a.69.69,0,0,1-.33-.57C18.35,49.46,20.27,47.18,21.27,47.18Z" style="fill:#3b241a"/><path d="M24.48,101c0,5.56-4.27,10.37-9,12.85a7.17,7.17,0,0,1-2.39.9c-1.42,0-3.44-3.48-3.44-4.08,0-.33.33-.46.6-.53a14.51,14.51,0,0,0,6.12-3.28,7.51,7.51,0,0,0,2.79-5.5,3.46,3.46,0,0,0-3.75-3.51c-2.55,0-4.9,1.39-6.85,2.92a1.2,1.2,0,0,1-.7.33c-1.09,0-2.58-3.41-2.58-4.51,0-.53.53-.79.92-1A24.07,24.07,0,0,1,15.74,93C20.67,93,24.48,95.81,24.48,101ZM11.36,85.84c2.12,1,6.26,1.55,8.65,1.72.79.07,1.09.13,1.09.56s-.13,1.13-.26,2c-.17,1.09-.37,2.45-1.33,2.45a49.46,49.46,0,0,1-8-1.49c-2.09-.56-2.65-.73-2.65-1.26a15.5,15.5,0,0,1,1-3.25c.13-.36.33-.93.83-.93A1.73,1.73,0,0,1,11.36,85.84Z" style="fill:#3b241a"/><path d="M6.92,142.32a1,1,0,0,0-.92.93v10.93c0,1.69.1,3.38.1,5.1,0,.83-.34.93-1.36.93H2.65c-1.06,0-1.39-.07-1.39-.93,0-1.72.07-3.41.07-5.1V136.36c0-1.19-.07-2.39-.07-3.55S1.76,131,3.05,131c1.09,0,2.15.1,3.21.1H9.31c1.06,0,2.12-.1,3.18-.1s1.82.3,1.82,1.85c0,1.16-.07,2.36-.07,3.55V137c0,1.19.07,2.39.07,3.55,0,1.32-.46,1.85-1.79,1.85-1.06,0-2.12-.1-3.21-.1Zm2.79-7.55a.44.44,0,0,0-.43-.43H6.43a.43.43,0,0,0-.43.43v.1a.43.43,0,0,0,.43.43H9.28a.42.42,0,0,0,.43-.43Zm0,3.68a.42.42,0,0,0-.43-.44H6.43a.44.44,0,0,0-.43.44v.16a.43.43,0,0,0,.43.43H9.28a.44.44,0,0,0,.43-.43Zm4.83,16.69c-.43,0-.76.2-.76.66V156c0,.76-.3.82-1.42.82H10.63c-1,0-1.39-.06-1.39-.72s.1-2,.1-3.09v-4.5c0-.76-.06-1.56-.06-2.32,0-1.26,1-1.32,2-1.32s1.95.06,2.91.06h2c1,0,2-.06,2.95-.06s2,.06,2,1.32c0,.73-.07,1.49-.07,2.32v4.5c0,2.22,0,2.59.73,2.59H22c.59,0,1.16,0,1.75,0,.8,0,.83-.56.83-1.39v-11a.93.93,0,0,0-.93-.93H21.23c-1.06,0-2.12.1-3.18.1s-1.82-.3-1.82-1.85c0-1.16.07-2.36.07-3.55v-.66c0-1.19-.07-2.39-.07-3.55,0-1.32.47-1.85,1.79-1.85,1.06,0,2.15.1,3.21.1h3.08c1.07,0,2.13-.1,3.19-.1s1.82.33,1.82,1.85c0,1.16-.07,2.36-.07,3.55v16c0,1.06.07,2.15.07,3.24,0,1.46-.2,2.62-1.46,3.51a8.3,8.3,0,0,1-4.54,1.1c-1.42,0-1.92-.27-2.19-2.65a.67.67,0,0,0-.66-.7s-.36,0-.69,0h-1c-1.59,0-1.92,0-1.92-.76,0-.13,0-.26,0-.3a.64.64,0,0,0-.72-.66ZM17,149.71a1,1,0,0,0-.93-.93H14.61a1,1,0,0,0-.93.93v.73a1,1,0,0,0,.93.92H16a.92.92,0,0,0,.93-.92Zm7.62-14.94a.42.42,0,0,0-.43-.43H21.27a.44.44,0,0,0-.43.43v.1a.44.44,0,0,0,.43.43h2.88a.4.4,0,0,0,.43-.43Zm0,3.74a.4.4,0,0,0-.43-.43H21.27a.44.44,0,0,0-.43.43v.1a.44.44,0,0,0,.43.43h2.88a.42.42,0,0,0,.43-.43Z" style="fill:#3b241a"/><path d="M26.1,176.64c1.06,0,2.12-.06,3.18-.06.7,0,.77.26.77,1.09v1.66c0,.73-.07,1-.77,1-1,0-2.08-.07-3.18-.07H24.41c-.62,0-.72.83-.72.9,0,.4.39.46.69.46,1,0,2,0,2.95,0S29,181.81,29,183c0,.83-.07,1.62-.07,2.45v6.83c0,.79.07,1.59.07,2.42,0,1.15-.63,1.42-1.66,1.42-.33,0-.63,0-.93,0-.1,0-.23,0-.23.16,0,.4,3.11,1.53,3.61,1.69.23.07.53.13.53.43A5.12,5.12,0,0,1,29,200.56a.35.35,0,0,0-.14.23c0,.14.17.14.27.14h.59c.53,0,.67.43.67.89,0,1.46-.47,3.11-1.2,3.38a7.38,7.38,0,0,1-2.12.2c-4.24,0-8.44,0-12.68-.07-5.17-.06-7.42-.26-9.11-2.05-.07-.07-.17-.2-.27-.2s-.33.33-.36.53c-.4,2.32-.7,2.32-1.1,2.32-.79,0-3.54-.4-3.54-1.46a2.94,2.94,0,0,1,.2-.76,32.37,32.37,0,0,0,1.22-8.12v-.16c0-.5,0-.67.53-.67a33.22,33.22,0,0,1,3.58.4c.23,0,.6.13.6.43s-.3.5-.53.63-.17.8-.17,1.13c0,.69.57,1.75.86,1.75s.2-.1.2-.49v-4.08a.76.76,0,0,0-.79-.79h-1c-1.06,0-2.12.06-3.18.06-.89,0-1-.33-1-1.22v-1.46c0-.86.07-1.23.9-1.23,1.09,0,2.18.07,3.24.07H11c1.1,0,2.19-.07,3.28-.07.77,0,.9.37.9,1.16v1.59c0,.87-.13,1.16-1,1.16s-1.72-.06-2.59-.06c-.49,0-.79.16-.79.69a.65.65,0,0,0,.73.7c.76,0,1.55-.07,2.32-.07.59,0,.66.27.66,1.06v1c0,.33.1.77.53.77s3.25-1.3,3.25-1.6-.17-.19-.3-.19-.43,0-.66,0c-1.06,0-1.66-.3-1.66-1.46,0-.79.1-1.59.1-2.38v-6.83c0-.83-.1-1.62-.1-2.42,0-1.09.56-1.42,1.59-1.42h1.22c.6,0,.83-.83.83-1,0-.33-.36-.37-.86-.37h-.69c-.8,0-1.59.07-2.39.07s-.73-.26-.73-1v-1.69c0-.8.07-1.06.73-1.06,1.06,0,2.15.06,3.21.06Zm-16.86,0c.9,0,1.76-.07,2.65-.07s1.89.1,1.89,1.33c0,.73-.07,1.49-.07,2.29v5.06c0,.8.07,1.56.07,2.29,0,1.23-.89,1.32-1.89,1.32s-1.75-.06-2.65-.06H6.89c-.89,0-1.79.06-2.65.06s-1.89-.09-1.89-1.32c0-.76.07-1.52.07-2.29v-5.06c0-.77-.07-1.53-.07-2.29,0-1.23.9-1.33,1.89-1.33s1.76.07,2.65.07Zm-2.88,4.21a.36.36,0,0,0,.36.36H9.47a.37.37,0,0,0,.4-.36v-.2a.38.38,0,0,0-.4-.37H6.72a.37.37,0,0,0-.36.37Zm0,3.84a.41.41,0,0,0,.43.43H9.44a.41.41,0,0,0,.43-.43v-.1a.41.41,0,0,0-.43-.4H6.79a.4.4,0,0,0-.43.4ZM15,200.23c-.06-.1-.36-.46-.43-.6-.46-.69-.49-.76-2.75-.76a1,1,0,0,0-1,1.06c0,.73.33,1.13,1.09,1.13l2.29,0h.46c.23,0,.63,0,.63-.34C15.27,200.5,15.11,200.36,15,200.23ZM21.43,196c-.3,0-.73,0-.73.4s.47.8.63,1,.7.73.7,1.1a.33.33,0,0,1-.36.3.71.71,0,0,1-.27-.07,2.19,2.19,0,0,0-.23-.07c-.07,0-.2.14-.27.17a27.13,27.13,0,0,1-2.75,1.52c-.33.17-.73.3-.73.5s.24.2.37.2h5.07l3.87,0c.1,0,.37,0,.37-.2s-.5-.37-.66-.43c-.57-.27-3.62-1.69-3.62-2.26,0-.39.73-1.19,1-1.49.1-.1.26-.26.26-.4s-.23-.23-.36-.23Zm2.69-10.27a.36.36,0,0,0,.36-.36v-.17a.37.37,0,0,0-.36-.39H20.6a.37.37,0,0,0-.36.39v.17a.34.34,0,0,0,.36.36Zm-3.52,2.52a.37.37,0,0,0-.36.37v.16a.4.4,0,0,0,.36.4h3.52a.4.4,0,0,0,.36-.4v-.16a.35.35,0,0,0-.36-.37Zm0,3.58a.41.41,0,0,0-.4.43v.07a.4.4,0,0,0,.4.43h3.41a.42.42,0,0,0,.43-.43v-.07a.43.43,0,0,0-.43-.43Z" style="fill:#3b241a"/><path d="M17.36,222.3c.59.26,1,.49,1,.79s-.37.37-.6.43a2.17,2.17,0,0,0-.9,1.26c0,.26.17.36.4.36a15.13,15.13,0,0,0,2.69-.72,2.84,2.84,0,0,1,.92-.24c.73,0,.9.7,1,1.3a14.09,14.09,0,0,1,.4,2.68c0,.5-.3.63-2.12,1s-4.08.73-6.13,1c-1.06.13-1.13.86-1.13.89s.17.24.3.24a1.18,1.18,0,0,0,.3-.1,8.29,8.29,0,0,1,2.81-.5,4.82,4.82,0,0,1,2.39.53A3.3,3.3,0,0,1,20.34,233a.6.6,0,0,0,.56.4A19.11,19.11,0,0,0,24,231.87l.67-.37a1.19,1.19,0,0,1,.43-.16c.83,0,2,3.81,2,4.57,0,.43-.33.53-1,.76-1.59.6-2.58,1-4.11,1.66-.79.33-.92.63-.92,1.52,0,.4,0,1.2,0,1.92,0,2.12,0,2.16-1.89,2.16-2.29,0-3-.1-3-1.13a6.54,6.54,0,0,1,.07-.89v-.17a.42.42,0,0,0-.4-.46c-.33,0-2,1.06-2,2.22,0,1.65,2.82,1.65,4,1.65a27.5,27.5,0,0,0,6.16-.83,4.28,4.28,0,0,1,.83-.09c.79,0,.82,1.19.82,3.31,0,1.26-.06,1.59-1,1.79a46.57,46.57,0,0,1-6.43.39,12.37,12.37,0,0,1-5.8-1.06A5.37,5.37,0,0,1,9,243.53c0-3.11,2.36-4.9,4.77-6.33.57-.33,1.23-.69,1.83-1,.29-.13.56-.3.56-.66a.94.94,0,0,0-1-.86,10.14,10.14,0,0,0-4.54,1.92,15,15,0,0,0-3.51,4.7.53.53,0,0,1-.5.36c-.72,0-4.1-1.85-4.1-2.65,0-.26.2-.46.59-.89,1.36-1.56,3.51-5,4.58-6.49a.74.74,0,0,0,.19-.47.48.48,0,0,0-.49-.46l-1.29,0c-1.13,0-1.23-.1-1.23-2.58,0-2.06.13-2.09,1.19-2.09.73,0,1.92.07,3,.07,1.62,0,1.92-.13,2.18-.6a15.86,15.86,0,0,0,1.56-4.11c.1-.49.17-.72.5-.72A39,39,0,0,1,17.36,222.3Z" style="fill:#3b241a"/><path d="M14.74,289.84c0,.73,0,1.49,0,2.22,0,3.15-1.45,4.08-4.43,4.08-.77,0-1.53-.14-1.86-.93a10.85,10.85,0,0,1-.33-2.75c0-.66.07-.89.83-.89l1.42,0c.7,0,.73-.23.73-1v-1.36a.93.93,0,0,0-.93-.92H6.1c-1,0-1,.46-1.13,1.55A32.69,32.69,0,0,1,4,294c-.33,1-.73,2.12-1.22,2.12S.13,294.71.13,294a.86.86,0,0,1,.13-.39C1.72,290,1.79,286,1.79,282.12v-3.27c0-1.89,0-1.93-.73-2.62C.79,276,.2,275.37.2,275a1,1,0,0,1,.36-.63,30.86,30.86,0,0,0,4.61-7.69c.26-.69.3-.76.53-.76s3,.7,3.44.83c.86.23,1.39.4,1.39.8,0,.23-.33.33-.49.36s-.57.1-.57.3.4.3.6.3h.46c.6,0,1.2,0,1.79,0a1.61,1.61,0,0,1,1.33.47,2.77,2.77,0,0,1,1,1.69,10.79,10.79,0,0,1-1.46,2.75.75.75,0,0,0-.17.43c0,.33.23.39.5.39,1,0,1.22.57,1.22,1.43,0,1.09,0,2.19,0,3.25v4.5c0,.7,0,.83.2.83.7,0,1.33-4.11,1.36-4.8,0-.5.1-.7.5-.7.19,0,1.59.3,2.05.4,1,.2,1.59.36,1.59.76,0,.16-.17.26-.3.33s-.46.13-.46,1.06c0,.3.13.53.46.53s.53-.2.53-.76a13.91,13.91,0,0,0-.1-1.66v-.23c0-.43.33-.43.66-.43.93,0,2.65.07,3.62.13.66,0,1,.1,1,.47,0,.19-.1.29-.3.46a1.51,1.51,0,0,0-.3,1.06,1,1,0,0,0,1,.93c.73,0,1.49-.07,2.22-.07s.76.27.76,1.23v1.49c0,.86-.07,1.16-.73,1.16-.83,0-1.65-.07-2.48-.07a.79.79,0,0,0-.8.83v.33a.79.79,0,0,0,.83.89h.4c.93,0,1.82-.06,2.75-.06s.89.36.89,1.19v1.46c0,.86-.06,1.22-.89,1.22s-2-.06-2.95-.06a1,1,0,0,0-1,1c0,1,.07,2,.07,3,0,.79-.37.86-1.36.86H22c-1.1,0-1.43-.07-1.43-.9,0-1,.1-1.95.1-2.95,0-.82-.63-1-1.36-1-1,0-1.95.06-2.95.06-.82,0-.89-.36-.89-1.32v-1.39a2,2,0,0,1,.17-.93.51.51,0,0,0,.06-.2c0-.26-.59-.43-.69-.43s-.27.27-.27.46Zm-8.84-12a.52.52,0,0,0-.53.53v.73a.52.52,0,0,0,.53.53h.29a.54.54,0,0,0,.53-.53v-.73a.54.54,0,0,0-.53-.53Zm.29,6.95a.54.54,0,0,0,.53-.53v-.72a.54.54,0,0,0-.53-.53H5.93c-.5,0-.56.39-.56.82v.43a.5.5,0,0,0,.56.53Zm1.06-10.53a1.2,1.2,0,0,0,1.16-.53,4.68,4.68,0,0,0,.7-1.42c0-.2-.1-.27-.43-.27H8.12c-.63,0-.9.4-1.26,1.06-.14.2-.24.4-.4.63a.38.38,0,0,0-.1.27c0,.26.26.26.53.26Zm3,3.58a.54.54,0,0,0-.53.53v.73a.54.54,0,0,0,.53.53h.33a.52.52,0,0,0,.53-.53v-.73a.52.52,0,0,0-.53-.53Zm.33,6.95a.52.52,0,0,0,.53-.53v-.72a.52.52,0,0,0-.53-.53h-.33a.54.54,0,0,0-.53.53v.72a.54.54,0,0,0,.53.53ZM24.41,267c1,0,2.06-.1,3.09-.1,1.45,0,2.05.46,2.05,2.35a26.77,26.77,0,0,1-.86,6.89c-.37,1.09-1,2-4.11,2-1.36,0-2.32-.2-2.32-2.95,0-1.06.13-1.53.63-1.53h1c1,0,1.26-.06,1.26-1.82,0-.86,0-.89-1.19-.89s-1.39.49-1.73,1.72c-.92,3.38-3.71,5.7-4.47,5.7S15,276.76,15,276c0-.26.2-.39.4-.53a9.45,9.45,0,0,0,1.89-1.85,6,6,0,0,0,1-2.09c0-.46-.43-.53-.76-.53s-.76,0-1.16,0c-.69,0-.76-.36-.76-1.25v-1.46c0-1,.07-1.36.83-1.36,1,0,1.92.1,3.21.1Zm-4.6,20.5c.53,0,.86-.23.86-.79v-.46a.8.8,0,0,0-.79-.8h-.5c-.93,0-1,.53-1.26,1.29a1.09,1.09,0,0,0-.07.3.43.43,0,0,0,.43.46Z" style="fill:#3b241a"/><path d="M8.45,328.57c.36.27,1.45,1.06,1.45,1.46,0,.86-4.33,8.15-5.1,9.27a2,2,0,0,0-.46,1.1v.39c0,.3,0,.73-.4.73a12.39,12.39,0,0,1-2.35-1.85c-.93-.8-1.52-1.29-1.52-1.76a1.46,1.46,0,0,1,.43-.76,40.87,40.87,0,0,0,5.69-9.37c.07-.2.17-.34.4-.34A6.5,6.5,0,0,1,8.45,328.57Zm-2.09-7.19C7,321.81,8,322.54,8,323a2.94,2.94,0,0,1-.66,1.32c-.33.47-1.29,1.86-1.82,1.86a10.22,10.22,0,0,1-2.19-1.59,21.44,21.44,0,0,0-2.49-1.79c-.26-.17-.62-.33-.62-.7S1.92,319,2.58,319C3.08,319,5.47,320.72,6.36,321.38Zm1.56-7.09c.46.37,1.55,1.16,1.55,1.63s-.56,1.16-1.09,1.82S7.39,319,6.92,319c-.26,0-.59-.3-.79-.46-1.13-.9-2.75-2.06-3.31-2.42-.37-.23-.83-.5-.83-.83a5.68,5.68,0,0,1,1-1.66c.56-.82,1-1.52,1.55-1.52S7.35,313.83,7.92,314.29Zm6.42,15.27c-1.22,0-2.48.07-3.71.07-.89,0-1-.36-1-1.36v-.86c0-1.75,0-2.18,1-2.18,1.22,0,2.45.06,3.67.06h.83c.9,0,1-.66,1-1.62v-1.59c0-.73-.3-1.06-1-1.06H13.68c-.83,0-2.09.1-2.45.1-.53,0-.53-.5-.53-1V318c0-1.09.07-1.36.56-1.36s1.36.1,2.42.1h1.49c.9,0,1-.59,1-1.26,0-.26,0-.49,0-.73,0-.69-.07-1.59-.07-2,0-.56.33-.66.79-.66s4.05.2,4.48.26c.26,0,.59.17.59.5s-.2.36-.39.5c-.5.26-.53.46-.53,1.55v.86c0,.43.29.93,1.15.93h1.53c1,0,2-.1,3-.1,1.19,0,1.52.57,1.52,2.06,0,1.22,0,2.45,0,3.67v2.12a.68.68,0,0,0,.66.77H29c1,0,1,.39,1,1.52v1.32c0,1.2-.06,1.56-1,1.56-1.23,0-2.45-.07-3.68-.07H23.29c-.53,0-1,0-1,.4a7.42,7.42,0,0,0,1,1.69,24.81,24.81,0,0,0,6.4,6.36c.23.17.79.5.79.8,0,1.12-2.38,3.18-3.47,3.18-.67,0-3-2.22-3.52-2.78a22,22,0,0,1-3.67-5c-.17-.27-.33-.53-.67-.53s-.49.26-.63.53a19.76,19.76,0,0,1-5,5.66c-.53.44-2.72,2.06-3.28,2.06-.86,0-3-2.42-3-3.45,0-.49.47-.73.8-.92,2.51-1.56,4.73-3,6.32-5.6a7.44,7.44,0,0,0,1-2c0-.34-.29-.34-.56-.34Zm8.39-4.27a.93.93,0,0,0,.92-.93v-2.15c0-.69-.23-1.19-1-1.19h-1a.65.65,0,0,0-.66.63v2.68c0,.66.43,1,1.06,1Z" style="fill:#3b241a"/><path d="M13.52,359.85c.26.06.72.2.72.46s-.13.23-.23.27c-.53.29-.59.69-.76,1.52a62,62,0,0,0-1.06,12.39c0,2.62,0,5.3,2.65,5.3A7.08,7.08,0,0,0,20.17,377a10.66,10.66,0,0,0,2.12-4.8c.14-.66.24-1.26.8-1.26.73,0,1.72.9,2.25,1.36s1.59,1.42,1.59,2.25a12.64,12.64,0,0,1-1.42,4.08,11.77,11.77,0,0,1-10.4,6.49,8.1,8.1,0,0,1-6.4-2.72c-1.65-2.12-1.85-5.63-1.85-8.28,0-3.81.33-7.88.59-11.46.07-.7.1-1.82.1-2.58s0-1.16.57-1.16A54.48,54.48,0,0,1,13.52,359.85Z" style="fill:#3b241a"/><path d="M17.26,402.38c.36.07,1.06.17,1.06.6s-.27.27-.5.8a9.53,9.53,0,0,0-.43,3.74c0,.59.23,1,.9,1a16.18,16.18,0,0,0,3.71-1,6.86,6.86,0,0,1,1.52-.46c.46,0,.73.59,1.16,1.69a9,9,0,0,1,.73,2.55c0,.43-.47.56-1.72.93a41.55,41.55,0,0,1-4.91,1c-.79.14-1.36.27-1.36,1.23,0,.5.14,3,.2,3.84.1,1,.33,1.06,1.59,1.43a31.2,31.2,0,0,1,7.29,3,1.1,1.1,0,0,1,.6.83c0,.86-1.69,3.68-2.52,3.68a2,2,0,0,1-.79-.4c-.83-.56-4.28-2.55-5.14-2.55a.72.72,0,0,0-.7.7c-.43,3.57-3.64,4.73-6.82,4.73s-7.25-1.45-7.25-5.36c0-4.11,4.14-5.9,7.68-5.9H12a.86.86,0,0,0,.9-.86c0-.27-.17-3.74-.2-4.57a76.59,76.59,0,0,0-.56-10.27,2.15,2.15,0,0,1-.07-.5c0-.46.4-.53.76-.53C13.55,401.82,16.43,402.25,17.26,402.38Zm-5.2,20.48c-1,0-3.65.2-3.65,1.49,0,1,1.69,1.09,2.39,1.09,1.22,0,2.48-.23,2.48-1.76C13.28,422.92,12.62,422.86,12.06,422.86Z" style="fill:#3b241a"/><path d="M24.48,461.75c0,5.57-4.27,10.37-9,12.85a7.17,7.17,0,0,1-2.39.9c-1.42,0-3.44-3.48-3.44-4.08,0-.33.33-.46.6-.53a14.51,14.51,0,0,0,6.12-3.28,7.51,7.51,0,0,0,2.79-5.49,3.46,3.46,0,0,0-3.75-3.52c-2.55,0-4.9,1.4-6.85,2.92a1.2,1.2,0,0,1-.7.33c-1.09,0-2.58-3.41-2.58-4.5,0-.54.53-.8.92-1a24.24,24.24,0,0,1,9.55-2.62C20.67,453.73,24.48,456.55,24.48,461.75ZM11.36,446.58c2.12,1,6.26,1.56,8.65,1.72.79.07,1.09.13,1.09.56s-.13,1.13-.26,2c-.17,1.09-.37,2.45-1.33,2.45a49.46,49.46,0,0,1-8-1.49c-2.09-.56-2.65-.73-2.65-1.26a15.5,15.5,0,0,1,1-3.25c.13-.36.33-.92.83-.92A1.71,1.71,0,0,1,11.36,446.58Z" style="fill:#3b241a"/><path d="M29.58,495.54a4.72,4.72,0,1,1-4.73-4.73A4.74,4.74,0,0,1,29.58,495.54Zm-7.52,0a2.8,2.8,0,1,0,2.79-2.78A2.81,2.81,0,0,0,22.06,495.54Z" style="fill:#3b241a"/></g></g></svg>