<?xml version="1.0" encoding="UTF-8"?>
<svg id="_レイヤー_2" data-name=" レイヤー 2" xmlns="http://www.w3.org/2000/svg" viewBox="0 0 686.8 144.1">
  <defs>
    <style>
      .cls-1 {
        fill: #3b241a;
      }
    </style>
  </defs>
  <g id="contents">
    <g>
      <path class="cls-1" d="M83.4,1.4c1.3,0,2.4-.1,3.3-.1s1.2.5,1.2,2v2.2c0,1.5,0,2-1.2,2h-8.5c-1.5,0-1.6.8-1.6,2.1v34.6c0,2.3-.2,1.7-1.7,1.7h-2.7c-1.2,0-1.5,0-1.5-1.5V3.2c0-1.7.8-1.8,2.1-1.8h10.7-.1Z"/>
      <path class="cls-1" d="M593.9,44.3h-3.3c-.9,0-1.2-.5-1.2-2v-2.2c0-1.5,0-2,1.2-2h8.5c1.6,0,1.6-.8,1.6-2.1V1.7c0-2.3.2-1.6,1.7-1.6h2.7c1.2,0,1.5,0,1.5,1.5v41.1c0,1.7-.8,1.8-2.1,1.8h-10.6v-.2h0Z"/>
    </g>
  </g>
  <g>
    <path class="cls-1" d="M122.92,29.13c-.47,7-3.7,12.03-9.69,15.08l-2.86-3.65c2.06-1.15,3.75-2.6,5.05-4.35,1.3-1.75,2.08-4.11,2.32-7.08h-2.92v-9.6c-.37.34-.74.67-1.1.97l-3.22-3.29c4.6-4.34,7.61-8.49,9.02-12.46l5.46.79c-.32.83-.69,1.65-1.12,2.47h7.33l1.68,1.4c-.64,1.56-1.87,3.59-3.67,6.08h5.69v13.64h-4.75v8.27c0,.33.11.62.33.88.22.26,1.17.42,2.85.49,1.68.07,3.42.11,5.22.11s3.49-.04,5.06-.11c1.57-.07,2.51-.16,2.84-.27s.58-.31.76-.61c.19-.3.31-.99.37-2.06-.63.37-1.29.61-1.97.71-.68.1-2.43.15-5.25.15l-.79-4.66c.79.01,1.49.02,2.11.02,1.12,0,1.81-.03,2.08-.1.27-.06.51-.21.72-.43.21-.22.4-.66.59-1.31.19-.65.36-2.14.52-4.47.16-2.33.24-5.27.24-8.82h-2.41c-.07,5.16-1.02,9.36-2.84,12.61-1.82,3.25-4.06,5.83-6.72,7.73l-3.27-3.22c2.33-1.95,4.15-4.23,5.46-6.84,1.3-2.61,2-6.04,2.08-10.28h-3.09v-4.43h3.12v-7.05h5.29v7.05h7.56v3.12c0,5.24-.09,9.1-.27,11.58-.18,2.48-.54,4.5-1.08,6.08l2.51.34v5.18c0,.75-.13,1.4-.38,1.96-.25.56-.63,1.02-1.14,1.4-.51.37-1.11.64-1.8.81-.69.16-2.08.3-4.15.42-2.07.11-4.16.17-6.26.17-6.47,0-10.36-.34-11.66-1.02-1.3-.68-1.94-1.95-1.94-3.81v-9.58h-1.89ZM118.84,15.49h5.26l1.85-3.35h-4.43c-.72,1.05-1.61,2.16-2.69,3.35ZM122.38,25.16v-5.59h-2.56l-.04,5.59h2.6ZM127.32,19.57v5.59h2.69v-5.59h-2.69Z"/>
    <path class="cls-1" d="M186.68,18.28h-7.99l-.37,4.28h8.31v1.87c0,3.84-.1,7.06-.29,9.66s-.46,4.34-.79,5.21c-.34.87-.98,1.64-1.92,2.3-.95.66-2.13.99-3.54.99h-5.09l-.88-4.94h4.38c.59,0,1.05-.11,1.4-.33.34-.22.58-.55.7-.98.12-.43.25-1.45.38-3.05.13-1.6.21-3.7.26-6.27h-3.29l-.17,2.19h-5.29l1.05-15.12h7.73v-4.49h-8.49v-4.45h13.9v13.15ZM207.45,40.06c-4.3.7-10.93,1.53-19.89,2.47l-1.1-5.11c2.58-.1,6.13-.35,10.66-.75v-5.63h-3.18v1.01h-5.22v-13.62h8.4v-2.23l-9.07.52-.58-4.71,3.87-.09c1.38-2.58,2.67-5.49,3.89-8.72l6.06,1.22c-1.4,2.86-2.74,5.3-4,7.3l7.33-.34c-.92-1.32-1.8-2.56-2.66-3.74l4.49-2.21c3.75,4.4,6.2,7.7,7.35,9.9l-5.03,2.56c-.39-.73-.88-1.57-1.48-2.51-.99.11-2.47.25-4.45.41v2.64h8.77v12.61h-8.77v5.07c.64-.07,1.61-.19,2.9-.37l-1.35-3.29,5.05-1.12c.46.77,1.21,2.32,2.26,4.63,1.05,2.31,1.79,4.11,2.23,5.4l-5.5,1.33c-.37-1.07-.69-1.96-.97-2.64ZM197.12,22.64h-3.14v4.19h3.14v-4.19ZM206.1,26.83v-4.19h-3.27v4.19h3.27Z"/>
    <path class="cls-1" d="M256.44,41.12l-1.59-5.37c5.69-.63,9.96-1.94,12.83-3.93,2.86-1.99,4.3-4.96,4.3-8.92,0-3.31-1.03-5.96-3.09-7.96s-4.92-3.17-8.57-3.51c-.3,8.02-1.8,14.52-4.5,19.5-2.7,4.98-6.1,7.47-10.19,7.47-2.66,0-4.82-1.26-6.47-3.77-1.65-2.51-2.47-5.39-2.47-8.63v-.54c0-4.96,1.99-9.34,5.98-13.16,3.99-3.82,9.02-5.87,15.09-6.16h.88c5.8,0,10.57,1.47,14.3,4.42,3.73,2.94,5.6,6.94,5.6,12,0,5.54-1.88,9.88-5.64,13.02s-9.24,4.98-16.45,5.54ZM254.27,12.06c-3.22.76-5.96,2.45-8.22,5.07s-3.38,5.51-3.38,8.68c0,1.63.28,3.14.84,4.51s1.34,2.06,2.34,2.06c2.02,0,3.85-1.96,5.5-5.89,1.65-3.92,2.62-8.74,2.92-14.44Z"/>
    <path class="cls-1" d="M312.95,35.38h-8.1v2.73h-5.33V5.49h13.43v29.88ZM307.76,18.13v-8.53h-2.9v8.53h2.9ZM307.76,31.3v-9.47h-2.9v9.47h2.9ZM325.48,35.83l-5.09,2.66c-1.6-2.46-3.41-5.03-5.41-7.69l3.93-2.19h-4.47v-4.53h15.02v-3.35h-15.53v-4.75h9.75v-3.52h-8.44v-4.58h8.44V3.56h5.99l-.02,4.32h8.38v4.58h-8.38l-.02,3.52h9.95v4.75h-4.28v3.35h3.39v4.53h-3.39v8.92c0,1.52-.51,2.7-1.53,3.54-1.02.84-2.4,1.27-4.15,1.27h-5.5l-.71-5.37h4.66c.92,0,1.38-.43,1.38-1.29v-7.07h-9.45c2.26,2.56,4.09,4.97,5.48,7.22Z"/>
    <path class="cls-1" d="M371.58,19.44h-11.67v22.97h-5.67V4.12h17.34v15.32ZM366.3,10.38v-2.73h-6.38v2.73h6.38ZM366.3,16.05v-2.77h-6.38v2.77h6.38ZM369.37,39.59v.97h-5.5v-18.82h18.5v17.85h-13ZM376.72,28.47v-2.94h-7.35v2.94h7.35ZM369.37,35.28h7.35v-3.29h-7.35v3.29ZM392.66,38.09c0,1.12-.47,2.05-1.41,2.8-.94.75-2.07,1.13-3.38,1.13h-4.32l-.58-4.9h2.69c.34,0,.66-.12.95-.35.29-.24.43-.53.43-.87v-16.46h-12.05V4.12h17.68v33.97ZM380.33,10.38h6.7v-2.73h-6.7v2.73ZM387.03,13.28h-6.7v2.77h6.7v-2.77Z"/>
    <path class="cls-1" d="M427.04,9.46c0,.93-.04,2.03-.11,3.31h5.52c2.45,0,4.41.79,5.89,2.38,1.47,1.59,2.21,3.65,2.21,6.17,0,6.27-.72,11.37-2.17,15.3-1.45,3.92-3.91,5.89-7.39,5.89-.97,0-2.02-.17-3.15-.49-1.12-.33-2.95-1.23-5.47-2.71l1.98-5.11c2.71,1.5,4.66,2.26,5.86,2.26.56,0,1.04-.21,1.44-.62.4-.42.83-1.3,1.29-2.66.46-1.36.79-2.88,1.01-4.55s.32-3.57.32-5.67c0-1.45-.09-2.46-.28-3.05-.19-.59-.49-1.02-.92-1.31-.43-.29-.97-.43-1.63-.43h-4.96c-1.39,10.23-5.01,18.51-10.85,24.86l-4.83-3.03c1.6-1.8,3.35-4.65,5.25-8.53,1.9-3.88,3.21-8.31,3.94-13.3h-7.82v-5.37h8.53l.04-8.31h6.29v5.01ZM453.62,28l-5.89,1.65c-1.17-4.01-2.43-7.34-3.77-9.98-1.34-2.64-3.05-5.28-5.12-7.92l4.88-2.86c5.41,7.02,8.71,13.38,9.9,19.1ZM448.57,9.83l-3.12,1.18c-1.19-2.95-2.16-5.15-2.92-6.6l2.96-1.18c1.26,2.42,2.28,4.62,3.07,6.6ZM454.46,9.35l-2.99,1.14c-.95-2.35-1.93-4.55-2.96-6.6l2.86-1.1c1.17,2.25,2.21,4.43,3.09,6.55Z"/>
    <path class="cls-1" d="M484.65,3.18c-.1,2.29-.27,4.39-.49,6.29h9.37v5.13h-10.14c-1.56,8.35-4.81,15.64-9.73,21.87l-4.71-3.39c3.9-4.78,6.67-10.94,8.31-18.48h-6.62v-5.13h7.52c.27-2.05.44-4.21.49-6.49l5.99.19ZM511.14,34.1l-3.18,4.77c-2.87-2.38-5.26-4.1-7.18-5.18,0,2.48-.77,4.32-2.32,5.52s-4.1,1.8-7.65,1.8c-2.87,0-5.24-.63-7.13-1.89s-2.84-3.01-2.84-5.24c0-2.39,1-4.29,3.01-5.68,2-1.4,4.45-2.09,7.35-2.09,1.32,0,2.54.08,3.65.24v-11.15h5.93v12.76c2.75,1.12,6.2,3.17,10.36,6.14ZM494.86,31.09c-1.15-.24-2.36-.37-3.65-.37s-2.45.25-3.41.74c-.95.49-1.43,1.18-1.43,2.05,0,1.8,1.67,2.71,5.01,2.71,2.32,0,3.48-.84,3.48-2.51v-2.62ZM511.45,16.24l-4.71,3.57c-1.48-1.76-3.54-3.84-6.21-6.23-2.66-2.39-4.85-4.1-6.55-5.13l3.61-4c2,1.09,4.37,2.8,7.1,5.15s4.98,4.56,6.76,6.65Z"/>
    <path class="cls-1" d="M549.13,26.41c-.67,1.99-1.61,4.21-2.8,6.67-1.2,2.46-2.3,4.27-3.32,5.44-1.02,1.17-2.27,1.75-3.76,1.75-3.09,0-5.75-1.91-7.97-5.73-2.22-3.82-3.33-8.2-3.33-13.16,0-1.62.16-4.02.47-7.2.3-3.19.45-5.59.45-7.18h6.57c-.04,1.45-.26,3.82-.64,7.11-.37,3.05-.56,5.43-.56,7.13,0,3.29.55,6.19,1.67,8.68,1.11,2.49,2.05,3.74,2.83,3.74,1.12,0,2.88-3.27,5.29-9.82l5.11,2.56ZM566.85,34.36l-6.47.41c0-4.43-.77-8.89-2.32-13.41s-3.65-8.37-6.32-11.58l5.2-2.6c6.6,7.35,9.9,16.41,9.9,27.18Z"/>
    <path class="cls-1" d="M37.47,140.04c-4.53.39-8.88.58-13.06.58-6.04,0-10.1-.21-12.16-.62-2.84-.56-5.06-1.63-6.68-3.21-1.62-1.58-2.43-3.67-2.43-6.26,0-4.91,3.59-9.11,10.79-12.59-.46-4.94-.7-9.93-.73-14.95h6.25l-.02,1.93v.64c0,3.18.1,6.48.3,9.9,3.31-1.25,8.21-2.79,14.72-4.64l1.8,5.37c-8.77,2.28-15.48,4.56-20.14,6.84s-6.99,4.73-6.99,7.34c0,3.18,3.5,4.77,10.51,4.77h2c4.51,0,9.71-.31,15.6-.92l.26,5.82Z"/>
    <path class="cls-1" d="M87.48,128.4c-.67,1.99-1.61,4.21-2.8,6.67-1.2,2.46-2.3,4.27-3.32,5.44-1.02,1.17-2.27,1.75-3.76,1.75-3.09,0-5.75-1.91-7.97-5.73-2.22-3.82-3.33-8.2-3.33-13.16,0-1.62.16-4.02.47-7.2.3-3.19.45-5.59.45-7.18h6.57c-.04,1.45-.26,3.82-.64,7.11-.37,3.05-.56,5.43-.56,7.13,0,3.29.55,6.19,1.67,8.68,1.11,2.49,2.05,3.74,2.83,3.74,1.12,0,2.88-3.27,5.29-9.82l5.11,2.56ZM105.21,136.35l-6.47.41c0-4.43-.77-8.89-2.32-13.41-1.55-4.51-3.65-8.37-6.32-11.58l5.2-2.6c6.6,7.35,9.9,16.41,9.9,27.18Z"/>
    <path class="cls-1" d="M140.51,141.39l-1.1-5.37c7.15-.32,12.61-1.5,16.4-3.57,3.79-2.06,5.68-4.96,5.68-8.68,0-1.63-.6-2.89-1.8-3.78s-2.81-1.33-4.81-1.33c-1.38,0-2.87.07-4.48.21-1.61.14-3.03.31-4.26.49-1.23.19-5.18.88-11.84,2.08l-.52-5.54,8.96-1.38c2.61-.4,4.92-.68,6.95-.85,2.03-.16,3.81-.25,5.36-.25,3.97,0,7.1.89,9.41,2.67,2.31,1.78,3.46,4.34,3.46,7.66,0,5.47-2.4,9.7-7.19,12.68-4.79,2.98-11.53,4.63-20.23,4.94ZM163.73,106.39l-1.35,5.46c-2.62-.63-6.33-1.14-11.12-1.53s-8.86-.58-12.19-.58c-.85,0-1.64.01-2.38.04l.04-5.37c4.53,0,8.76.14,12.71.41,3.95.27,8.71.79,14.3,1.57Z"/>
    <path class="cls-1" d="M209.67,118.35h-11.17v22.84h-5.78v-38.29h16.95v15.45ZM204.26,109.25v-2.77h-5.76v2.77h5.76ZM204.26,114.83v-2.69h-5.76v2.69h5.76ZM207.37,135.07v1.16h-5.59v-15.06h19.14v13.9h-13.56ZM207.37,130.73h8.06v-5.46h-8.06v5.46ZM230.38,136.87c0,1.12-.47,2.05-1.41,2.8-.94.75-2.07,1.13-3.38,1.13h-4.96l-.58-4.77h3.22c.34,0,.66-.12.93-.35s.42-.53.42-.87v-16.46h-11.52v-15.45h17.27v33.97ZM218.61,109.25h6.02v-2.77h-6.02v2.77ZM224.62,112.15h-6.02v2.69h6.02v-2.69Z"/>
    <path class="cls-1" d="M261.7,124.77c-.01,1.48-.15,3.68-.41,6.62.73.72,1.53,1.36,2.38,1.93v-9.52h-8.87v-4.06h20.67v4.06h-6.64v2.99h6.29l-.04,4h-6.25v4.79c1.65.44,3.7.72,6.14.83s6.8.16,13.06.16c4.57,0,7.38-.08,8.42-.24l-.75,4.49c-9.75,0-16.38-.03-19.87-.08-3.5-.05-6.56-.5-9.21-1.34s-4.79-2.08-6.43-3.7c-.75,2.18-1.81,4.03-3.2,5.56l-3.65-2.43c.8-1.2,1.48-2.52,2.04-3.95s.95-2.85,1.18-4.24c.23-1.4.34-3.36.34-5.88h4.79ZM274.55,118.06h-17.81v-14.33h17.81v14.33ZM261.74,109.49h7.56v-2.28h-7.56v2.28ZM269.3,112.31h-7.56v2.38h7.56v-2.38ZM284.36,131.9c-2.69,1.98-5.82,3.39-9.37,4.25l-1.68-3.91c2.74-.86,4.93-1.78,6.6-2.77h-3.2v-19.72h5.48l.58-2.02h-6.98v-3.95h19.92v3.95h-7.93l-.84,2.02h6.92v19.72h-3.91c2.19,1.4,4.25,2.4,6.17,2.99l-2.34,3.95c-1.3-.37-2.76-1.01-4.36-1.92-1.6-.91-2.88-1.81-3.82-2.7l1.8-2.32h-5.11l2.08,2.43ZM288.77,115.4v-2.26h-6.96v2.26h6.96ZM281.81,120.58h6.96v-2.36h-6.96v2.36ZM288.77,123.44h-6.96v2.43h6.96v-2.43Z"/>
    <path class="cls-1" d="M345.92,135.24h-6.12l.02-8.44c-5.11,2.51-7.67,4.85-7.67,7.03s2.46,3.24,7.39,3.24l2.38-.02c6.56,0,11.43-.24,14.61-.71l.3,5.37c-4.03.39-7.97.58-11.84.58-7.43,0-12.42-.63-14.95-1.9-2.54-1.27-3.8-3.23-3.8-5.88,0-4.35,4.16-8.63,12.48-12.83-.37-.47-.93-.71-1.68-.71-1.35,0-3.03.48-5.04,1.44-2.01.96-4.28,2.54-6.8,4.75-1.75,1.55-3,2.59-3.76,3.14l-3.74-4.04c4.98-3.7,8.75-7.82,11.3-12.38h-9.17v-5.09h11.41c.6-1.73,1.05-3.36,1.35-4.88l6.32.34c-.4,1.78-.81,3.29-1.22,4.53h14.18v5.09h-16.24c-.37.75-1.06,1.89-2.06,3.44,1.43-.47,2.81-.71,4.12-.71,2.92,0,5.03.9,6.32,2.71,1.86-.8,5.79-2.38,11.77-4.73l2.51,5.11c-2.82.96-7.03,2.46-12.63,4.51.14,1.07.21,2.23.21,3.46l.04,7.56Z"/>
    <path class="cls-1" d="M402.1,137.89c0,1.1-.41,2-1.21,2.71-.81.7-1.72,1.05-2.72,1.05h-5.44l-.54-4.81h3.78c.79,0,1.18-.34,1.18-1.01v-4.62h-8.21c-.73,4.78-2.2,8.42-4.4,10.91l-3.97-2.23c.92-1.3,1.74-3.07,2.47-5.29s1.1-5.13,1.1-8.72l.02-7.69c-.33.34-.6.61-.82.79l-2.99-3.74c1.43-1.49,2.84-3.42,4.23-5.8,1.39-2.38,2.34-4.57,2.86-6.57l5.5.67c-.19.82-.46,1.61-.82,2.38h7.63l1.2.92c-.79,2.02-1.91,4.18-3.37,6.47h4.51v24.58ZM388.05,113.32h4.51c1.07-1.79,1.73-3.09,1.98-3.89h-4.12c-.7,1.29-1.49,2.59-2.36,3.89ZM391.35,116.97h-2.23v3.61h2.23v-3.61ZM389.12,123.78v3.7h2.23v-3.7h-2.23ZM397.35,120.58v-3.61h-2.34v3.61h2.34ZM397.35,127.47v-3.7h-2.34v3.7h2.34ZM413.03,107.97c-.75,4.8-3.37,8.24-7.86,10.31l-2.94-3.48c2.95-1.69,4.73-3.97,5.35-6.83l-4.34-.02v-4.15h19.53v1.25c0,2.58-.08,4.66-.24,6.25-.16,1.59-.43,2.7-.81,3.34-.38.64-.8,1.14-1.27,1.5-.47.37-1.05.65-1.75.86-.7.21-1.95.31-3.74.31-.72,0-1.52-.01-2.41-.04l-.75-4.49,3.61-.04c.87-.01,1.42-.44,1.63-1.28s.32-1.71.32-2.63c0-.27,0-.55-.02-.84l-4.32-.02ZM423.3,134.74h-6.38v6.96h-5.67v-6.96h-7.97v-4.62h7.97v-3.78h-2.6c-.56,1.48-1.12,2.58-1.68,3.33l-4.45-1.31c1.52-2.74,2.5-6.05,2.94-9.95l4.86.41c-.07,1.03-.21,2.06-.41,3.07h1.33v-3.57h5.67v3.57h5.97v4.45h-5.97v3.78h6.38v4.62Z"/>
    <path class="cls-1" d="M460.18,125.36c-.52,2.22-1.46,4.89-2.83,8.01-1.37,3.12-2.73,5.71-4.07,7.78l-5.29-2.9c1.45-2,2.84-4.54,4.17-7.62s2.23-5.39,2.71-6.95l5.31,1.68ZM459,118.05l-3.31,4.53c-2.09-2.05-4.61-4.19-7.56-6.42l3.12-4.28c3.28,2.33,5.87,4.39,7.76,6.17ZM460.94,108.4l-3.39,4.53c-2.26-2.12-4.84-4.33-7.73-6.64l3.33-4.15c3.7,2.75,6.29,4.83,7.8,6.25ZM473.76,129.01c-3.01,5.84-7.81,9.99-14.42,12.44l-2.69-4.36c3.72-1.68,6.59-3.61,8.6-5.8,2.01-2.19,3.3-4.14,3.88-5.84h-8.79v-4.86h9.78v-7.65h-8.49v-4.66h8.49v-4.88h5.93v4.88h10.79v12.31h3.07v4.86h-12.05c2.81,4.74,6.92,8.45,12.33,11.13l-3.65,4.53c-2.49-1.26-4.9-2.99-7.22-5.19s-4.18-4.5-5.56-6.91ZM476.06,112.94v7.65h5.11v-7.65h-5.11Z"/>
    <path class="cls-1" d="M553.01,123.33c-1.86,6.53-4.44,11.24-7.73,14.14-3.29,2.89-7.53,4.34-12.7,4.34-2.23,0-4.19-.29-5.87-.87s-3.04-1.36-4.1-2.35c-1.06-.99-1.88-2.07-2.45-3.23-.57-1.17-.95-2.41-1.12-3.72s-.26-3.34-.26-6.09c0-3.01.31-10.06.92-21.14h6.42c-.59,9.9-.88,16.78-.88,20.65,0,3.15.08,5.15.25,5.99.16.84.53,1.66,1.11,2.44.57.78,1.4,1.38,2.48,1.8,1.08.42,2.4.63,3.96.63,3.47,0,6.36-1.18,8.68-3.54s4.16-6.1,5.52-11.21l5.76,2.17Z"/>
    <path class="cls-1" d="M608.52,134.99l-3.78,5.18c-4.38-3.51-8.53-6.12-12.44-7.82,0,3.18-.73,5.48-2.19,6.9s-3.91,2.13-7.35,2.13c-3.92,0-6.99-.69-9.18-2.07-2.2-1.38-3.3-3.41-3.3-6.07s1.21-4.78,3.63-6.31c2.42-1.53,5.38-2.29,8.87-2.29,1.02,0,2.12.07,3.31.21v-22.22h6.34v8.06h14.42v5.33h-14.42v10.25c5.07,1.65,10.43,4.55,16.09,8.72ZM586.22,130.22c-1.2-.23-2.35-.34-3.44-.34-1.72,0-3.24.27-4.55.81-1.32.54-1.98,1.3-1.98,2.29s.54,1.7,1.63,2.21c1.09.52,2.41.77,3.97.77,1.79,0,2.96-.26,3.52-.78s.84-1.27.84-2.25v-2.71Z"/>
    <path class="cls-1" d="M631.81,140.49l-1.1-5.37c7.15-.32,12.61-1.5,16.4-3.57,3.79-2.06,5.68-4.96,5.68-8.68,0-1.63-.6-2.89-1.8-3.78s-2.81-1.33-4.81-1.33c-1.38,0-2.87.07-4.48.21-1.61.14-3.03.31-4.26.49-1.23.19-5.18.88-11.84,2.08l-.52-5.54,8.96-1.38c2.61-.4,4.92-.68,6.95-.85,2.03-.16,3.81-.25,5.36-.25,3.97,0,7.1.89,9.41,2.67,2.31,1.78,3.46,4.34,3.46,7.66,0,5.47-2.4,9.7-7.19,12.68-4.79,2.98-11.53,4.63-20.23,4.94ZM655.03,105.49l-1.35,5.46c-2.62-.63-6.33-1.14-11.12-1.53s-8.86-.58-12.19-.58c-.85,0-1.64.01-2.38.04l.04-5.37c4.53,0,8.76.14,12.71.41,3.95.27,8.71.79,14.3,1.57Z"/>
  </g>
</svg>