<?xml version="1.0" encoding="UTF-8"?>
<svg id="_レイヤー_2" xmlns="http://www.w3.org/2000/svg" version="1.1" viewBox="0 0 113.4 571.7">
  <!-- Generator: Adobe Illustrator 29.4.0, SVG Export Plug-In . SVG Version: 2.1.0 Build 152)  -->
  <defs>
    <style>
      .st0 {
        display: none;
      }

      .st1 {
        fill: #3b241a;
      }
    </style>
  </defs>
  <g id="contents">
    <g>
      <path class="st1" d="M113.3,12c0,1.1,0,1.9,0,2.7s-.4,1-1.6,1h-1.8c-1.2,0-1.6,0-1.6-1v-6.9c0-1.2-.7-1.3-1.7-1.3h-28c-2,0-1.3-.2-1.3-1.4v-2.2c0-1,0-1.2,1.2-1.2h29.1c1.4,0,2.7-.1,4.1-.1s1.4.6,1.4,1.7v8.5h0v.2Z"/>
      <path class="st1" d="M73.4,436.2c0-1.1,0-1.9,0-2.7s.4-1,1.6-1h1.8c1.2,0,1.6,0,1.6,1v6.9c0,1.2.7,1.3,1.7,1.3h28c2,0,1.3.1,1.3,1.4v2.2c0,1,0,1.2-1.2,1.2h-29.1c-1.4,0-2.7.1-4.1.1s-1.4-.6-1.4-1.7v-8.5h0v-.2Z"/>
      <path class="st1" d="M33.2,566.3c0,3-2.4,5.4-5.4,5.4s-5.4-2.4-5.4-5.4,2.4-5.4,5.4-5.4,5.4,2.4,5.4,5.4ZM24.6,566.3c0,1.8,1.4,3.2,3.2,3.2s3.2-1.4,3.2-3.2-1.4-3.2-3.2-3.2-3.2,1.4-3.2,3.2Z"/>
    </g>
  </g>
  <g class="st0">
    <path class="st1" d="M96.6,32.4c4,5.7,10,10.4,15.8,12.7-1.1,1.1-2.1,2.6-2.8,4-1.9-1-3.8-2.2-5.7-3.5v2.6h-18.4v-2.6c-1.8,1.3-3.8,2.6-5.7,3.6-.6-1.1-1.8-2.7-2.8-3.6,6.4-3.1,12.3-8.7,15.1-13.2h4.6,0ZM83.1,51.8h23.5v15.2h-4.5v-1.4h-14.6v1.4h-4.3v-15.2h0ZM102.2,44.3c-3.1-2.4-5.8-5.1-7.6-7.5-1.7,2.5-4.3,5.1-7.4,7.5h15ZM87.4,55.7v6h14.6v-6h-14.6Z"/>
    <path class="st1" d="M110,88.5c-1.3,3.8-3.2,7.1-5.6,9.8,2.3,1.8,5.1,3.2,8.4,4.1-.9.9-2.1,2.6-2.7,3.7l-.7-.3v12.1h-4.3v-1.2h-7.7v1.3h-4.1v-11.8c-.6.3-1.3.6-1.9.8-.4-.9-1.2-2-1.9-2.9l-.3.5c-.4-.9-1.2-2.3-2-3.6v17.1h-4.1v-14c-1,3-2.3,5.7-3.7,7.6-.4-1.2-1.4-2.9-2-4,2.3-2.9,4.4-8,5.4-12.4h-4.5v-4.1h4.8v-7.6h4.1v7.6h4.1v2c2.6-2.6,4.9-6.1,6.3-9.6l4.2,1.1c-.4.9-.8,1.9-1.2,2.8h6.7c0,0,2.8,1.1,2.8,1.1h-.1ZM90.4,103c3-1.1,5.8-2.7,8.2-4.7-1-1.2-2-2.4-2.8-3.6-.9,1.1-1.8,2-2.7,2.8-.6-.6-1.7-1.6-2.7-2.4h-3.1v.9c1,1.1,3.8,4.4,4.4,5.2l-1.3,1.7h0ZM105.9,104.3c-1.6-.9-3.1-1.9-4.4-3-1.3,1.1-2.7,2.1-4.3,3h8.7ZM105.2,113v-5h-7.7v5h7.7ZM98.4,91.1l-.3.4c.9,1.4,1.9,2.8,3.2,4.1,1.2-1.4,2.3-2.9,3.1-4.5h-6.1.1Z"/>
    <path class="st1" d="M96.6,167.4l-2.8-4.4c1.4-.1,2.4-.4,3.4-.6,4.7-1.1,8.4-4.5,8.4-9.9s-2.8-8.9-7.8-9.8c-.5,3.1-1.1,6.5-2.2,10-2.2,7.5-5.4,12.1-9.4,12.1s-7.5-4.5-7.5-10.8,7.4-15.8,17-15.8,14.9,6.4,14.9,14.4-4.8,13.3-14.1,14.8h0ZM86.4,159.1c1.6,0,3-2.3,4.5-7.3.9-2.7,1.6-5.9,2-9-6.1,1.3-9.4,6.7-9.4,10.7s1.5,5.6,2.9,5.6Z"/>
    <path class="st1" d="M105.6,211.3l-2,4.6c-5-2.1-16.7-4.6-22.6-5.5l1.8-4.7c6.3,1,17.7,3.7,22.8,5.6h0ZM104.1,199.7l-1.8,4.6c-4.3-1.6-13.7-3.8-19.2-4.7l1.7-4.5c5.3.9,14.7,2.9,19.4,4.5h0ZM106.6,189.6l-1.9,4.6c-4.3-1.6-14.8-4-20-4.6l1.7-4.4c4.8.6,15.5,2.7,20.2,4.4Z"/>
    <path class="st1" d="M108.3,248c-1.1,3.6-2.7,7.2-5.5,10.2-3.7,4.1-8.5,6.7-13.2,8l-3.7-4.2c5.6-1.1,10-3.6,12.8-6.5,2-2,3.1-4.3,3.8-6.4h-17.9c-.9,0-2.7,0-4.3.2v-4.8c1.6.1,3.1.2,4.3.2h18.3c1.2,0,2.2-.1,2.7-.4l3.3,2c-.3.5-.6,1.1-.7,1.6h0ZM87.6,235.9h14.2c1.1,0,3,0,4-.2v4.8c-1,0-2.7-.1-4.1-.1h-14.2c-1.2,0-2.8,0-3.8.1v-4.8c1,.1,2.6.2,3.8.2h0Z"/>
    <path class="st1" d="M93.7,294c3.8-2.4,8-6.1,10.4-9l4,3.8c-2.8,2.8-6.4,5.7-10,8v14.9c0,1.6,0,3.9.3,4.8h-5.8c0-.9.3-3.2.3-4.8v-11.8c-3.8,2-8.5,4-13.1,5.3l-2.3-4.7c6.6-1.7,12.1-4.1,16.2-6.6h0Z"/>
    <path class="st1" d="M80.6,348.4c1.7-1.8,4.6-5.6,6.8-8.3,2.6-2.9,5-3.2,7.7-.6,2.5,2.4,5.5,6.3,7.7,8.6,2.4,2.6,5.5,5.9,9,9.1l-3.8,4.4c-2.7-2.5-5.8-6.1-8.1-8.8-2.3-2.7-5.1-6.3-6.8-8.2-1.3-1.4-2-1.3-3.1.1-1.5,1.9-4.1,5.5-5.7,7.6-.9,1.2-1.7,2.6-2.3,3.5l-4.5-4.6c1.1-.9,2-1.7,3.1-2.9h0Z"/>
    <path class="st1" d="M36.2,33h-14.1v1.4h-4.1v-16.2c-.3.2-.6.4-.8.6-.4-.6-1.3-1.7-2.1-2.5v13.6h-6.7v2.9h-3.6v-9.4c-.4.7-.9,1.4-1.3,2-.4-1-1.6-3.2-2.3-4.2,2.6-3.7,4-9.3,4.8-15.3h-3.6V1.9h13.2v1.3h7.5c.4-1.1.7-2.3,1-3.4l4.1.7c-.2.9-.5,1.8-.7,2.7h8.5v6.7h-3.9v-3h-6c-.7,1.7-1.5,3.2-2.4,4.6h3c.5-1.3,1-2.6,1.3-3.7l4,.9c-.4,1-.9,2-1.4,2.9h4.7v3.6h-5.6v2.5h4.8v3.2h-4.8v2.6h4.8v3.2h-4.8v2.6h6.4v3.6h0ZM11.3,16.7h-3v9.5h3v-9.5ZM15,15c2.7-2,5-4.8,6.6-8h-2.6v3h-3.7v-4h-5.2c-.3,2.3-.8,4.6-1.3,6.8h6.3v2.1h-.1ZM25.7,15.3h-3.6v2.5h3.6s0-2.5,0-2.5ZM25.7,21h-3.6v2.6h3.6v-2.6ZM22.1,29.4h3.6v-2.6h-3.6v2.6Z"/>
    <path class="st1" d="M23.1,76.8c2.6,3,6.8,4.7,12.6,5.3-.9.9-2,2.7-2.6,3.8-7-1.1-11.4-3.7-14.4-8.3-2.2,3.3-6.3,6.2-13.8,8.3-.5-1-1.8-2.6-2.7-3.6,6.2-1.4,9.8-3.3,11.8-5.5H2.8v-3.8h13.3c.2-.8.3-1.6.4-2.3H7v-3.6h9.5v-2.2H6.4v-2.4h-3.3v-7.9h13.5v-3.2h4.5v3.2h13.5v7.9h-3v2.4h-10.8v2.2h10.1v3.6h-10.1c0,.8-.1,1.6-.3,2.3h14.6v3.8h-12.1.1ZM16.5,61.3v-2.1h4.4v2.1h9.2v-2.9H7.5v2.9h9Z"/>
    <path class="st1" d="M16.2,108.3c1.8-.3,3.6-.7,5-1.2v4.3c-1.6.4-3.8.9-6.3,1.3-1.8,5.2-4.9,11.7-7.9,15.8l-4.5-2.3c2.9-3.6,5.9-9.1,7.5-13.1h-1.9c-1.5,0-3,0-4.6,0l-.3-4.3c1.6.2,3.6.3,4.9.3s2.2,0,3.4,0c.5-2,.9-4.3,1-6.2l5.1.5c-.3,1.2-.8,3.1-1.3,5.1h-.1ZM26.2,119.4c0,1.1.1,2.8.2,4.7,3.2,1.2,5.8,3,7.7,4.7l-2.5,4c-1.3-1.2-3-2.7-5-4v.4c0,3.4-1.9,6.1-7.1,6.1s-8.2-2-8.2-6.1,3-6.4,8.2-6.4,1.7,0,2.6,0c-.1-2.7-.3-6-.4-8.3h4.6c-.1,1.6,0,3.1,0,4.7h-.1ZM18.8,131.1c2.6,0,3.3-1.4,3.3-3.4v-.7c-1-.2-2-.4-3-.4-2.1,0-3.5,1-3.5,2.3s1.1,2.3,3.2,2.3h0ZM23.7,111.4l2.4-3.7c2.7,1.1,7.3,3.7,9.1,5l-2.6,3.9c-2.1-1.7-6.4-4.1-8.9-5.3h0Z"/>
    <path class="st1" d="M30.7,171.8c-1.7,3.6-4.1,6.4-7.1,8.6,3.6,1.3,7.7,2.1,12.2,2.5-.9,1-2.1,2.9-2.7,4.1-5.4-.7-10.1-1.9-14.1-3.9-4.3,2-9.2,3.3-14.4,4-.4-1-1.7-3-2.6-3.9,4.6-.5,8.9-1.3,12.6-2.7-2.3-1.6-4.2-3.6-5.8-5.8l1.2-.5h-1.7v-4h18.7l.8-.2,3,1.8h0ZM7,171.5H2.9v-8h5.3c-.4-1.1-1.1-2.6-1.7-3.8l3.3-.9c-1.9.1-3.7.2-5.5.2,0-1.1-.6-2.8-1-3.7,9.7-.3,20.9-1.2,27.6-2.5l3,3.6c-4,.7-8.8,1.3-13.7,1.8.7,1.5,1.4,3.4,1.7,4.8l-2.7.7h6.4c.9-1.7,1.9-3.9,2.4-5.6l4.7,1.1c-.9,1.6-1.8,3.1-2.7,4.4h5.3v8h-4.3v-4.2H7v4.2h0ZM19.8,158.1c-3.1.3-6.3.5-9.5.7.9,1.4,1.7,3,2.1,4.2l-1.9.6h7.1c-.2-1.3-.8-3.1-1.4-4.6l3.7-.9h-.1ZM13.4,174.2c1.5,1.7,3.4,3.1,5.6,4.3,2-1.2,3.7-2.6,5-4.3h-10.7,0Z"/>
    <path class="st1" d="M-.1,235.2c1.3-1.9,1.7-5,1.8-8.1l2.4.5c-.2,3.4-.6,6.8-2.1,8.9l-2.2-1.2h.1ZM28.3,228.2c1.5,3,3.8,5.5,6.9,6.8-.9.8-2.1,2.4-2.8,3.5-3.1-1.6-5.3-4.4-6.9-7.8-1.3,3-3.8,5.7-8.2,7.9-.4-.7-1.4-1.9-2.1-2.6-.1.5-.3.8-.5,1-.6.9-1.3,1.2-2.2,1.3-.7.1-1.9.2-3.3.1,0-1-.4-2.5-.9-3.4,1,.1,1.8.1,2.3.1s.7-.1,1-.5.4-1.3.6-3.2l-1.2.4c-.2-1.3-1-3.3-1.7-4.8l1.7-.6c.5.9.9,2,1.3,3,0-1.1.1-2.5.2-4.1H2v-20.2h13.6v3.6h-4v2h3.2v2c3.3-2,6.5-5.8,8.1-8.9h3.8c2.2,3.4,5.4,6.8,8.7,8.3-.8,1-1.6,2.6-2.2,3.8-.8-.5-1.6-1-2.4-1.7v2h-3.7v2h6.6v9.8h-5.4v.2ZM6.4,227.7c.3,2.1.5,5,.4,6.8l-2,.3c0-1.9,0-4.7-.3-6.8l1.9-.2h0ZM5.7,208.9v2h2.5v-2h-2.5ZM5.7,214.3v2.2h2.5v-2.2h-2.5ZM5.7,222.1h2.5v-2.3h-2.5v2.3ZM8.9,227.3c.6,1.9,1.1,4.4,1.2,6l-1.9.4c0-1.6-.6-4.1-1.1-6l1.9-.4h-.1ZM16.3,222.1v1.4c-.3,6.1-.5,9.7-.9,11.6,3.8-1.9,5.8-4.4,6.8-7h-5.3v-9.8h6.3v-2h-3.8v-2c-.9.8-1.9,1.5-2.8,2.1-.4-1-1.1-2.2-1.7-3.1v.9h-3.2v2.2h3.2v3.3h-3.2v2.3h4.7-.1ZM23,225c.2-1.1.2-2.2.2-3.3h0c0-.1-2.7-.1-2.7-.1v3.4h2.5ZM29.3,213.1c-1.7-1.6-3.3-3.6-4.3-5.3-1,1.7-2.4,3.6-4.1,5.3h8.4ZM27.2,221.6h0c0,1.2,0,2.3-.1,3.4h3v-3.4h-2.9Z"/>
    <path class="st1" d="M16.9,266.3c-.7,4-1.7,7.6-3,10.8,1.6,2.1,3,4.2,3.8,6l-3.5,3c-.6-1.3-1.4-2.9-2.5-4.6-2,3.3-4.5,5.9-7.6,8-.5-.9-2-2.6-3-3.4,3.4-2,6-4.8,7.9-8.4-2-2.6-4.1-5.3-6.2-7.5l3.1-2.5c1.6,1.7,3.3,3.6,4.9,5.6.8-2.3,1.4-4.8,1.8-7.5l4.3.6h0ZM35.9,267.7h-4v16.7c0,2.5-.4,3.8-1.8,4.5-1.4.8-3.6,1-6.7,1-.1-1.3-.8-3.4-1.4-4.7,2.1.1,4.1,0,4.7,0s.9-.2.9-.8v-16.7h-9.3v-2.7H2.1v-4.1h6.4v-5.7h4.2v5.7h6.8v2.5h8.1v-8.2h4.3v8.2h4v4.2h0ZM21.5,270.6c1.7,2.4,3.5,5.6,4.1,7.8l-3.8,2c-.6-2.2-2.1-5.6-3.8-8.1l3.5-1.7h0Z"/>
    <path class="st1" d="M32.1,329.2c0,1.9-.4,2.7-1.7,3.3-1.3.5-2.9.6-4.9.6,2.8,1.4,6.3,2.6,9.9,3.3-.9,1-2.2,2.7-2.8,3.9-4.7-1.2-8.9-3.5-12-6v7.3h-4.7v-7.4c-3.4,2.9-7.7,5.1-12.3,6.4-.6-1.1-1.8-2.8-2.7-3.7,6.1-1.2,11.9-4,15-7.6v-2.6h-7.1v6.5h-4.7v-10.3h11.7v-1.8H1.8v-3.8h7.8c-.4-1.1-1.1-2.6-1.9-3.9h-.6c-1,1.4-2,2.7-3.1,3.7-.9-.7-2.6-1.9-3.7-2.4,2.3-2,4.5-5.1,5.7-8.1l4.1,1.1c-.3.6-.6,1.3-.9,2h8v3c1.5-1.7,2.7-4,3.5-6.2l4.3,1.1c-.3.7-.6,1.4-.9,2.1h10.3v3.7h-6c.6.9,1,1.9,1.3,2.6l-3.9,1.3c-.3-1-1.1-2.5-1.9-3.8h-1.8c-.5.8-1.1,1.5-1.6,2.1v1.7h13.3v3.8h-13.3v1.8h11.5v6.3h0ZM15.9,317.3v-2h.6c-.4-.3-.8-.5-1.1-.7.5-.4.9-.8,1.4-1.3h-4.6c.5,1,1,1.9,1.3,2.6l-3.3,1.3h5.7ZM20.7,329.8c1.2,1.1,2.8,2.1,4.6,3.1-.3-1.1-.9-2.4-1.4-3.3,1.2.1,2.7,0,3.1,0s.6-.1.6-.5v-2.6h-6.9s0,3.3,0,3.3Z"/>
    <path class="st1" d="M14,367.9H1.2v-3.5h12.8v3.5ZM13.1,391.3h-6.7v1.4h-3.6v-12.6h10.4v11.2h-.1ZM12.9,373H2.8v-3.3h10.1s0,3.3,0,3.3ZM2.8,374.9h10.1v3.3H2.8v-3.3ZM12.8,362.7H3v-3.3h9.8v3.3ZM6.3,383.6v4.2h3.1v-4.2s-3.1,0-3.1,0ZM35.9,387.4h-1.9v1.5c0,1.9-.4,2.7-1.6,3.3-1.2.6-3,.6-5.5.6-.1-1-.6-2.4-1-3.4h3.5c.5,0,.6-.1.6-.6v-1.5h-10.5v5.4h-3.7v-5.4h-1.8v-3.5h1.8v-9.2h7.2v-1.3h-9v-3.3h4.8v-1.6h-3.2v-3h3.2v-1.5h-3.8v-3.1h3.8v-2.6h3.9v2.6h4.3v-2.6h4v2.6h4.1v3.1h-4.1v1.5h3.4v3h-3.4v1.6h4.8v3.3h-9.2v1.3h7.4v9.2h1.9v3.5h0ZM19.5,377.7v1.7h3.5v-1.7h-3.5ZM19.5,383.9h3.5v-1.7h-3.5v1.7ZM22.8,365.4h4.3v-1.5h-4.3v1.5ZM22.8,370h4.3v-1.6h-4.3v1.6ZM26.6,377.7v1.7h3.4v-1.7h-3.4ZM30.1,383.9v-1.7h-3.4v1.7h3.4Z"/>
    <path class="st1" d="M24,439.1h11.8v3.8H8.1v-3.8h11.6v-3.7h-9.3v-3.8h9.3v-4.3l-2.1,2.5c-.6-.9-1.7-2.1-2.8-3.2-.9,1.6-2,2.9-3.3,4-.7-.7-2.3-2-3.2-2.6-.3,5.3-1.3,11.2-3.6,15.5-.8-.7-2.7-2-3.7-2.4,2.9-5.3,3.1-13,3.1-18.4v-10h13.5v-3.3h4.6v3.3h13.4v4H8.4v6c0,1.6,0,3.4-.1,5.4,3-2,4.4-5.4,4.9-9.7l4,.3c-.2,1.6-.5,3.1-.9,4.4,1.3,1.1,2.6,2.4,3.4,3.4v-8.6h4.3v9c2.3-2,3.5-5,4-8.5l3.9.4c-.2,1.5-.6,3-1,4.3,1.9,1.5,4,3.3,5.1,4.4l-2.6,3c-1-1.1-2.6-2.6-4.2-4-.9,1.5-2,2.8-3.3,3.8-.4-.5-1.2-1.2-2-1.8v3.1h9.8v3.8h-9.8v3.7h0Z"/>
  </g>
  <g>
    <path class="st1" d="M109.7,41.7s0,1.2,0,1.7c-.3,11.5-.6,15.9-1.6,17.3-.3.4-.5.7-.8.9,1,.5,2.4.9,3.3,1.1-.6,4.7-1.8,5.7-6.5,5.7h-9.7c-6,0-7.5-1.1-7.5-5.2v-8.1h-1.7c-.5,5.6-1.8,11-7.2,14.1-.5-1-1.7-2.6-2.6-3.4,4.6-2.3,5.6-6.5,6-10.7h-3.7v-9.3c-.7-.8-1.7-1.7-2.4-2.1,3.3-2.7,5.4-6.3,6.6-9.3l3.9.6c-.3.6-.5,1.2-.8,1.8h4.4c0-.1,2.6,1.4,2.6,1.4-.6,1.6-1.6,3.4-2.6,5.1h5.2v-1.6h3.7c0-2.1,0-4.4,0-6.8h4.1c0,2.4,0,4.6-.1,6.8h7.4ZM83.3,40.2c-.7,1.1-1.4,2.1-2.3,3.1h4.2c.6-1,1.2-2.1,1.7-3.1h-3.7ZM84.3,51.6v-4.8h-2.7v4.8h2.7ZM90.9,46.8h-2.8v4.8h2.8v-4.8ZM103.8,64.7c2.1,0,2.6-.4,2.9-2.8-.3.2-.7.3-1.1.4-.9.2-2.4.2-3.9.1,0-1.3-.5-3-1.1-4.1,1.2.1,2.2.1,2.8.1.5,0,.8-.1,1.1-.6.6-.7.9-3.8,1.1-12.1h-3.4c-.5,8-2,13.8-7,17.7-.5-1-1.8-2.5-2.7-3.2,4.1-3.1,5.3-7.9,5.7-14.5h-3.2v9.3h-4v8c0,1.4.5,1.6,3.6,1.6h9.3Z"/>
    <path class="st1" d="M78.6,85.9h11.1v12h-7c-.1,1.1-.2,2.2-.3,3.3h7.3s0,1.1,0,1.7c-.4,9-.8,12.7-1.8,14-.8,1-1.6,1.3-2.8,1.5-1,.1-2.7.1-4.5.1-.1-1.4-.6-3.1-1.3-4.3,1.6.1,3.1.1,3.8.1.6,0,.9,0,1.3-.4.6-.6,1-3,1.3-8.9h-3.5l-.2,1.8-3.8-.6c.5-3.2,1-8.2,1.2-12.2h6.4v-4.1h-6.9v-3.9ZM108.9,118.7c-.2-.7-.5-1.5-.9-2.4-6.3.6-12.9,1-17.7,1.4l-.5-4.3c2.4,0,5.5-.3,8.8-.5v-4.8h-7.4v-10.6h7.4v-2.9c-2.8.2-5.5.4-7.8.5l-.6-4.1h3.3c1.3-2.3,2.6-5,3.3-7.1l4.7,1.1c-1,1.9-2.3,3.9-3.4,5.7,2.3-.1,4.6-.2,7-.4-.6-.8-1.2-1.6-1.8-2.3l3.7-1.6c2.1,2.4,4.5,5.6,5.4,7.9l-4,1.8c-.2-.6-.6-1.4-1-2.1-1.6.1-3.1.3-4.7.4v3.2h7.8v10.6h-7.8v4.5l3-.2c-.5-.9-1.1-1.7-1.6-2.4l3.6-1.5c2.1,2.6,4.2,6.1,5,8.5l-3.8,1.7ZM98.6,104.6v-3.4h-3.5v3.4h3.5ZM102.9,101.2v3.4h3.6v-3.4h-3.6Z"/>
    <path class="st1" d="M96.5,166.9l-2.8-4.4c1.4-.1,2.4-.4,3.4-.6,4.7-1.1,8.4-4.5,8.4-9.9s-2.8-8.9-7.8-9.8c-.5,3.1-1.1,6.5-2.2,10-2.2,7.5-5.4,12.1-9.4,12.1s-7.5-4.5-7.5-10.8,7.4-15.8,17-15.8,14.9,6.4,14.9,14.4-4.8,13.3-14.1,14.8ZM86.3,158.6c1.6,0,3-2.3,4.5-7.3.9-2.7,1.6-5.9,2-9-6.1,1.3-9.4,6.7-9.4,10.7s1.5,5.6,2.9,5.6Z"/>
    <path class="st1" d="M90,212.6h-7.5v3.3h-4.1v-28.4h11.6v25.2ZM82.5,191.4v6.5h3.4v-6.5h-3.4ZM85.9,208.7v-7h-3.4v7h3.4ZM108,200v3.2h3.6v3.8h-3.6v8.1c0,2.1-.4,3.2-1.9,3.9-1.4.6-3.4.7-6.2.7-.1-1.2-.8-3-1.4-4.1,1.8,0,3.8,0,4.4,0s.8-.1.8-.7v-8h-13v-3.8h13v-3.2h-13.1v-3.8h8.4v-3.3h-7.1v-3.8h7.1v-3.9h4.3v3.9h7.4v3.8h-7.4v3.3h8.4v3.8h-3.8ZM95.7,207.5c1.7,1.8,3.7,4.3,4.5,6.1l-3.8,2.2c-.7-1.7-2.6-4.3-4.2-6.2l3.5-2Z"/>
    <path class="st1" d="M81.5,248.5v19.8h-4.4v-33.2h14.2v13.4h-9.8ZM81.5,238.3v2h5.7v-2h-5.7ZM87.2,245.3v-2.1h-5.7v2.1h5.7ZM108.4,263c0,2.4-.5,3.7-2,4.4-1.4.7-3.6.9-6.8.9-.1-.9-.5-2.3-1-3.4h-9.2v1.9h-4v-16h1.8s12.4,0,12.4,0v13.1c1.4,0,2.8,0,3.3,0,.7,0,.9-.2.9-.8v-14.5h-10.1v-13.4h14.5v27.9ZM95.6,253.9h-6.1v2.2h6.1v-2.2ZM95.6,261.6v-2.3h-6.1v2.3h6.1ZM98.1,238.3v2h5.9v-2h-5.9ZM103.9,245.4v-2.2h-5.9v2.2h5.9Z"/>
    <path class="st1" d="M90.8,289.9c-.2,1.1-.5,2.5-.8,3.8,1.3,0,2.3-.1,3.1-.1,3.9,0,6.7,1.7,6.7,7.1s-.5,10.4-2.1,13.6c-1.2,2.6-3.3,3.4-6.1,3.4s-3.2-.3-4.4-.5l-.8-4.9c1.4.4,3.6.8,4.5.8s2.2-.4,2.8-1.6c1-2.1,1.5-6.6,1.5-10.2s-1.3-3.4-3.6-3.4-1.5,0-2.6.1c-1.4,5.6-4.1,14.4-7.5,19.8l-4.8-1.9c3.6-4.8,6.1-12.3,7.5-17.4-1.3.1-2.5.3-3.2.4-1.1.2-3,.4-4.1.6l-.4-5c1.4.1,2.6,0,4,0,1.1,0,2.9-.1,4.8-.3.5-2.8.9-5.5.8-7.8l5.5.6c-.2,1-.5,2.1-.7,3.1ZM106.5,290.5l-1.8.8c2.2,3.4,5,9.6,6,12.9l-4.7,2.1c-1-4.1-3.6-10.6-6.2-13.9l3.3-1.4c-.7-1.4-1.7-3.2-2.5-4.4l2.9-1.2c.9,1.4,2.3,3.7,3,5.1ZM110.9,288.8l-2.9,1.3c-.8-1.5-2-3.7-3-5.1l3-1.2c1,1.4,2.3,3.7,3,5Z"/>
    <path class="st1" d="M90.1,338.9c1.8-.3,3.6-.7,5-1.2v4.3c-1.6.4-3.8.9-6.3,1.3-1.8,5.2-4.9,11.7-7.9,15.8l-4.5-2.3c2.9-3.6,5.9-9.1,7.5-13.1-.7,0-1.3,0-1.9,0-1.5,0-3,0-4.6-.1l-.3-4.3c1.6.2,3.6.3,4.9.3s2.2,0,3.4-.1c.5-2,.9-4.3,1-6.2l5.1.5c-.3,1.2-.8,3.1-1.3,5.1ZM100.1,350.1c0,1.1.1,2.8.2,4.7,3.2,1.2,5.8,3,7.7,4.7l-2.5,4c-1.3-1.2-3-2.7-5-4v.4c0,3.4-1.9,6.1-7.1,6.1s-8.2-2-8.2-6.1,3-6.4,8.2-6.4,1.7,0,2.6.1c-.1-2.7-.3-6-.4-8.3h4.6c-.1,1.6,0,3.1,0,4.7ZM92.7,361.7c2.6,0,3.3-1.4,3.3-3.4v-.7c-1-.2-2-.4-3-.4-2.1,0-3.5,1-3.5,2.3s1.1,2.3,3.2,2.3ZM97.6,342.1l2.4-3.7c2.7,1.1,7.3,3.7,9.1,5l-2.6,3.9c-2.1-1.7-6.4-4.1-8.9-5.3Z"/>
    <path class="st1" d="M83.1,388.5c0,2.4,0,5.2.2,7.8.5,5.3,1.6,9,4,9s3.2-4.3,3.9-7.3l3.7,4.5c-2.4,6.4-4.8,8.7-7.7,8.7s-7.6-3.7-8.6-13.6c-.4-3.4-.4-7.7-.4-10s0-2.6-.3-3.8h5.7c-.3,1.4-.4,3.6-.4,4.6ZM108.8,404l-4.8,1.9c-.6-6-2.6-14.9-6.6-19.5l4.7-1.5c3.5,4.3,6.3,13.5,6.7,19.2Z"/>
    <path class="st1" d="M16.4,9.7c3-1.8,6.3-3.4,8-4.4,1.4-.8,2.5-1.4,3.4-2.3l2.6,4.3c-1.1.7-2.3,1.3-3.7,2-2.3,1.1-7,3.3-10.3,5.5-3.1,2-5.1,4.1-5.1,6.7s2.6,4.1,7.7,4.1,8.8-.6,12.1-1.4v5.3c-3.2.6-7.1.9-12,.9-7.4,0-13-2-13-8.4s2.6-7.1,6.1-9.8c-1.7-3.1-3.5-7.1-5.1-11l4.6-1.9c1.4,3.8,3.1,7.4,4.6,10.2Z"/>
    <path class="st1" d="M8.6,60.1c0,2.4,0,5.2.2,7.8.5,5.3,1.6,9,4,9s3.2-4.3,3.9-7.3l3.7,4.5c-2.4,6.4-4.8,8.7-7.7,8.7s-7.6-3.7-8.6-13.6c-.4-3.4-.4-7.7-.4-10s0-2.6-.3-3.8h5.7c-.3,1.4-.4,3.6-.4,4.6ZM34.3,75.6l-4.8,1.9c-.6-6-2.6-14.9-6.6-19.5l4.7-1.5c3.5,4.3,6.3,13.5,6.7,19.2Z"/>
    <path class="st1" d="M19.5,116.7c-4.1,0-7.7,1.3-9.6,1.8-1.1.3-2.5.9-3.6,1.3l-1.4-5.3c1.3-.1,2.8-.4,4.1-.6,2.7-.6,6.8-1.7,11.2-1.7s10,3.3,10,9.1-7.3,12.8-17.6,14.2l-2.7-4.6c9.2-1,15.1-4.1,15.1-9.8s-1.9-4.4-5.4-4.4ZM26.9,105.1l-.7,4.6c-4.3-.3-12.4-1-16.6-1.8l.7-4.4c4.3.9,12.7,1.6,16.6,1.7Z"/>
    <path class="st1" d="M7.4,168.8v19.4H3.1v-33.2h14.1v13.8H7.4ZM7.4,158.4v2h5.7v-2h-5.7ZM13.1,165.5v-2.1h-5.7v2.1h5.7ZM15.4,183v2.1h-4.1v-13.7h14.3v11.6h-10.2ZM15.4,175v4.4h6.1v-4.4h-6.1ZM34.2,182.9c0,2.4-.5,3.7-2,4.4-1.5.7-3.8.9-7.3.9-.1-1.3-.9-3.3-1.5-4.5,2.1.1,4.7.1,5.4,0,.7,0,1-.2,1-.9v-14h-10v-13.8h14.5v27.9ZM23.9,158.4v2h5.8v-2h-5.8ZM29.8,165.5v-2.1h-5.8v2.1h5.8Z"/>
    <path class="st1" d="M12,233.5c2.2.7,4.9.8,8.2.8s12.6,0,15.7-.1c-.6.9-1.2,2.6-1.4,3.6h-14.2c-7,0-11.5-.7-14.5-4.7-.5,2.2-1.3,4.2-2.6,5.7-.6-.9-1.7-2.3-2.6-3,2.1-2.6,2.4-6.9,2.6-11.4h3.5c0,1.4-.1,2.7-.2,4,.5,1.2,1.1,2.1,1.9,2.9v-8.4H1.5v-3.2h16.6v3.2h-6v3h5.3v3.2h-5.3v4.4ZM16.5,217.6H3.2v-12.2h13.3v12.2ZM12.4,208.4h-5.3v1.7h5.3v-1.7ZM12.4,212.9h-5.3v1.8h5.3v-1.8ZM25.7,228.8c-1.6,2.1-4.2,4.2-6.5,5.4-.6-.7-2-2-2.8-2.6,2.2-1,4.4-2.4,5.7-4l3.6,1.1ZM23.8,210.6c.2-.6.4-1.3.6-2h-6.5v-3.1h16.9v3.1h-6.5l-.9,2h6.3v16.8h-14.7v-16.8h4.7ZM29.7,213.6h-6.7v1.7h6.7v-1.7ZM29.7,218.1h-6.7v1.7h6.7v-1.7ZM29.7,222.6h-6.7v1.8h6.7v-1.8ZM30.3,227.4c2,1.3,4.3,3.3,5.4,4.7l-3.1,1.9c-1.1-1.4-3.4-3.6-5.3-4.9l3-1.6Z"/>
    <path class="st1" d="M17.5,260.5c3.5-.2,7.2-.5,10.5-1.1v4.3c-3.6.5-8.1.8-12.1.9-.6,1.4-1.4,2.7-2.1,3.8,1-.4,3-.7,4.2-.7,2.3,0,4.1,1,4.9,2.8,1.9-.9,3.5-1.5,5-2.2,1.4-.6,2.7-1.2,4.1-1.9l1.8,4.3c-1.2.3-3.1,1.1-4.4,1.6-1.7.7-3.8,1.5-6,2.5,0,2.1.1,4.8.1,6.5h-4.4c.1-1.1.1-2.9.2-4.5-2.8,1.6-4.3,3-4.3,4.9s1.7,2.6,5.4,2.6,7.3-.4,10.5-1v4.8c-2.6.3-7.1.6-10.6.6-5.8,0-10.1-1.4-10.1-6.2s4.4-7.7,8.7-9.9c-.6-.9-1.6-1.3-2.6-1.3-2.1,0-4.4,1.2-5.8,2.6-1.1,1.1-2.2,2.4-3.4,4.1l-4-3c3.9-3.6,6.5-6.9,8.2-10.2h-.5c-1.5,0-4.2,0-6.3-.2v-4.3c1.9.3,4.6.4,6.5.4h1.8c.4-1.5.7-2.9.7-4.3l4.9.4c-.2.9-.4,2.1-.9,3.7Z"/>
    <path class="st1" d="M36.6,335h-6.3v6.1h-4.2v-6.1h-6.8v-3.8h6.8v-3.3h-3.1c-.4,1.1-.9,2-1.5,2.8-.6-.4-2-1.1-2.9-1.6v7.8c0,1.7-.3,2.8-1.4,3.5-1.1.6-2.7.7-4.9.7-.1-1.1-.7-2.7-1.3-3.7,1.5,0,2.9,0,3.4,0s.6-.1.6-.6v-5.3h-7.4c-.4,3.5-1.2,7.1-2.9,9.7-.6-.6-2.2-1.6-3-2,2.5-3.8,2.7-9.3,2.7-13.5v-5.5c-.7-.7-2.1-1.9-2.9-2.4,2.5-2.7,4.5-7,5.5-11.4l3.9.8c-.2.9-.5,1.8-.8,2.6h3.4l.6-.2,2.5,1.6c-.5,1.4-1.3,3.1-2,4.7h4.1v2.3c3.1-1.4,4.2-3.6,4.7-6.3h-4.1v-3.6h16.4s0,.9,0,1.4c-.2,5.9-.5,8.4-1.3,9.4-.6.8-1.3,1.1-2.3,1.2-.8.1-2.3.1-3.7.1,0-1.1-.4-2.6-1-3.6,1.1.1,2.1.1,2.7.1s.7,0,1-.4c.3-.4.5-1.7.7-4.7h-4.3c-.6,3.8-2,6.9-5.8,9l3.3.7c-.1.8-.3,1.6-.5,2.4h1.8v-3.3h4.2v3.3h5.5v3.7h-5.5v3.3h6.3v3.8ZM8.9,313.5c-.4.9-.8,1.9-1.3,2.7h3.2c.4-.8.7-1.8,1-2.7h-3ZM8,325.9c0,.8,0,1.6,0,2.4h2.1v-3.1h-2.1v.6ZM8,322.2h2.1v-2.8h-2.1v2.8ZM13,322.2h2.1v-2.8h-2.1v2.8ZM15.1,328.4v-3.1h-2.1v3.1h2.1ZM18.7,328.6c1.2-1.9,2.1-4.6,2.6-7.2-.3.1-.5.3-.8.4-.3-.7-1.1-1.8-1.8-2.5v9.4Z"/>
    <path class="st1" d="M8.3,374.9c-1.4-1.3-4.3-2.9-6.7-3.9l2.3-3.3c2.3.8,5.4,2.3,6.8,3.5l-2.5,3.7ZM12.5,379.8c-1.8,3.9-4,8.2-6.1,11.8l-3.8-2.7c1.8-2.8,4.5-7.5,6.5-11.8l3.4,2.7ZM10.3,365c-1.3-1.3-4.2-3-6.5-4l2.4-3.3c2.3.9,5.2,2.4,6.7,3.6l-2.6,3.6ZM27.2,378.2c1.8,4.6,4.9,8.3,9.4,10.1-1,.9-2.4,2.6-3.1,3.8-4.8-2.4-8-6.5-10.1-11.8-1.2,4.6-3.9,8.8-9.6,11.9-.8-.9-2.5-2.4-3.7-3.1,5.6-3,8.1-6.8,9.2-10.9h-7.2v-4.1h7.9c0-1.2.1-2.4.1-3.7v-3h-6.2v-4.1h6.2v-5.6h4.4v5.6h8.9v10.8h2.8v4.1h-9ZM24.5,370.4c0,1.2,0,2.4-.1,3.6h4.7v-6.7h-4.6v3.1Z"/>
    <path class="st1" d="M13.7,415.5c-.1,4-.4,12.3-.4,16.9s2.2,5,5.1,5c6.1,0,10-3.5,12.7-7.5l3.4,4.1c-2.4,3.6-7.6,8.5-16.1,8.5s-10-2.7-10-9,.4-14.7.4-17.9-.1-3.5-.5-5h6c-.2,1.6-.4,3.5-.5,5Z"/>
    <path class="st1" d="M21.7,467.2c0,.9,0,1.7,0,2.7,3,0,7.3-.2,10.4-.6v4.4c-3,.3-7.3.4-10.3.5,0,2.2.2,5.2.4,7.9,4.7,1.4,8.7,4,11.2,6.3l-2.8,4.4c-2.1-2.1-4.9-4.3-8.2-5.8,0,.5,0,.9,0,1.3,0,3.3-1.7,6.4-7.9,6.4s-9.6-1.7-9.6-6.8,3.3-6.9,10.1-6.9,1.5,0,2.2.1c-.1-2.9-.3-6-.3-8s0-4.4,0-6c0-1.8-.2-3.4-.4-4.3h5.6c-.2,1.1-.3,2.9-.3,4.3ZM14.1,490.3c2.4,0,3.2-1,3.2-3.5s0-.8,0-1.3c-1-.1-2-.3-3-.3-2.9,0-4.6,1-4.6,2.6s1.9,2.5,4.5,2.5Z"/>
    <path class="st1" d="M20.3,527.9c-4.1,0-7.7,1.3-9.6,1.8-1.1.3-2.5.9-3.6,1.3l-1.4-5.3c1.3-.1,2.8-.4,4.1-.6,2.7-.6,6.8-1.7,11.2-1.7s10,3.3,10,9.1-7.3,12.8-17.6,14.2l-2.7-4.6c9.2-1,15.1-4.1,15.1-9.8s-1.9-4.4-5.4-4.4ZM27.8,516.2l-.7,4.6c-4.3-.3-12.4-1-16.6-1.8l.7-4.4c4.3.9,12.7,1.6,16.6,1.7Z"/>
  </g>
</svg>