<?xml version="1.0" encoding="UTF-8"?>
<svg id="_レイヤー_2" data-name="レイヤー 2" xmlns="http://www.w3.org/2000/svg" viewBox="0 0 113.37 471.5">
  <defs>
    <style>
      .cls-1 {
        fill: #3b241a;
      }
    </style>
  </defs>
  <g id="contents">
    <g>
      <path class="cls-1" d="m113.26,11.96c0,1.06.11,1.94.11,2.7,0,.91-.38.99-1.6.99h-1.79c-1.22,0-1.6-.08-1.6-.99,0-.57.08-1.14.08-1.67v-5.21c0-1.25-.65-1.29-1.71-1.29h-22.19c-1.94,0-3.84.08-5.78.08-1.22,0-1.33-.15-1.33-1.41v-2.2c0-.99.11-1.22,1.22-1.22,1.98,0,3.91.08,5.89.08h23.25c1.37,0,2.7-.11,4.07-.11,1.25,0,1.44.61,1.44,1.71,0,.8-.08,1.56-.08,2.32v6.23Z"/>
      <path class="cls-1" d="m91.95,48.94c-1.22,0-2.58.08-3.65.08-.65,0-.84-.23-.84-1.6v-.3c0-.27-.08-.68-.46-.68-.23,0-.46.23-.65.34-.72.57-3.8,2.89-4.56,2.89-.99,0-3.46-2.96-3.46-3.99,0-.46.49-.65,1.03-.91,5.01-2.58,10.56-7.33,13.34-12.27.19-.34.3-.49.68-.49.46,0,5.13.72,5.78.87.3.08.61.23.61.61,0,.15-.08.27-.19.38-.08.11-.23.27-.23.46,0,.27.84,1.29,1.06,1.56,3.27,4.03,7.1,6.5,11.7,8.66.76.34.84.42.84.76,0,.87-.8,2.28-1.22,3.08-.34.65-.84,1.48-1.41,1.48-.87,0-5.13-2.89-6.04-3.53-.11-.08-.27-.19-.38-.19-.46,0-.49.38-.49.95v.76c0,.87-.19,1.18-.84,1.18-1.03,0-2.09-.08-3.65-.08h-6.99Zm-1.82,15.73c-.34,0-.68.19-.68.57v.3c0,1.18-.3,1.18-2.66,1.18h-1.22c-1.37,0-1.9-.08-1.9-1.06,0-.53.11-2.05.11-3.38v-6.31c0-1.03-.08-2.09-.08-3.12,0-1.9,1.48-2.05,3-2.05,1.22,0,2.43.15,3.69.15h10.14c1.22,0,2.47-.15,3.69-.15,1.48,0,3,.15,3,2.01,0,.91-.08,1.98-.08,3.15v6.31c0,1.41.11,2.93.11,3.34,0,1.03-.53,1.1-1.86,1.1h-2.24c-1.25,0-1.75-.08-1.75-1.06,0-.15.04-.27.04-.38,0-.3-.23-.61-.65-.61h-10.68Zm10.33-4.71c.61,0,1.06-.46,1.06-1.06v-1.86c0-.61-.46-1.06-1.06-1.06h-10.07c-.57,0-1.06.46-1.06,1.06v1.86c0,.61.46,1.06,1.06,1.06h10.07Zm-1.03-16c.49,0,.91-.04.91-.42s-.27-.65-.53-.87c-1.03-.95-2.62-2.74-3.53-3.84-.19-.23-.46-.57-.8-.57-.3,0-.53.19-.72.46-1.06,1.29-2.51,2.74-3.69,3.91-.23.19-.57.53-.57.87,0,.42.11.46,1.44.46h7.48Z"/>
      <path class="cls-1" d="m92.48,107.23c0-.27-.19-.34-.49-.34-.87,0-1.67-1.25-1.98-1.86-.08-.15-.19-.27-.27-.27-.19,0-.34.42-.72.42-.23,0-.53-.38-.84-.8-.19-.27-.34-.46-.42-.46-.23,0-.27.23-.27.49v7.37c0,1.75.11,3.5.11,5.24,0,.87-.34.99-1.37.99h-2.32c-1.06,0-1.48-.08-1.48-.91,0-1.75.08-3.53.08-5.32v-1.48c0-.68-.04-.8-.23-.8s-.3.34-.46.72c-.3.76-.61,1.52-1.14,1.52-.99,0-3.27-2.43-3.27-3.5,0-.42.23-.87.49-1.33,1.98-3.31,3.76-10.79,3.76-11.59,0-.42-.27-.57-.68-.57-.49,0-1.03.08-1.52.08-.76,0-.84-.42-.84-1.29v-2.43c0-1.06.08-1.44.84-1.44.68,0,1.37.11,2.01.11.61,0,1.03-.57,1.03-1.14v-3.08c0-.61-.11-1.03-.11-1.22v-.34c0-.46.3-.53.65-.53.49,0,3.42.3,4.1.38.68.08,1.14.11,1.14.57,0,.23-.15.34-.42.57-.34.27-.38.99-.38,1.86v1.82c0,.57.46,1.06,1.06,1.06.23,0,.8-.08,1.18-.08.8,0,.87.42.87,1.6v.99c0,.23,0,.65.3.65s.87-.76,1.52-1.6c1.71-2.2,3.04-4.86,3.8-7.26.08-.27.15-.61.46-.61.53,0,3.84.95,4.63,1.14.84.19,1.14.3,1.14.65,0,.23-.15.53-.57.61-.53.08-.87.34-.87.87,0,.42.34.53.68.53h3.76c1.06,0,2.09-.04,3.15-.04,1.67,0,2.93,2.32,2.93,2.81,0,1.63-3.72,6.16-5.01,7.41-.23.23-.46.53-.46.84,0,.38.38.65.95,1.03,1.52,1.03,3.46,2.05,5.21,2.85.46.19.76.3.76.76,0,1.03-1.52,4.1-2.43,4.1-.11,0-.27-.04-.42-.11-.15-.08-.3-.11-.38-.11-.19,0-.38.11-.38.61v6.38c0,1.22.11,2.96.11,3.5,0,.76-.42.84-1.56.84h-2.43c-1.03,0-1.48-.08-1.48-.8v-.23c0-.27-.15-.61-.8-.61h-4.67c-.38,0-.72.23-.72.61v.19c0,.76-.42.84-1.44.84h-2.47c-1.14,0-1.56-.08-1.56-.84,0-.68.11-1.71.11-2.93v-7.1Zm-2.89-11.93q-.3-.53-1.48-.53c-.46,0-.61.19-.61.61v.23c0,.87,2.36,3.38,3.04,4.1.34.38.61.68.61.95,0,.11-.04.3-.04.38,0,.19.19.42.46.42.3,0,2.09-.91,3.69-1.79,1.44-.8,2.58-1.56,2.58-1.94,0-.3-.68-1.1-1.14-1.63-.23-.27-.49-.61-.84-.61s-.87.68-1.29,1.22c-.38.46-.99,1.14-1.48,1.14-1.06,0-3-1.63-3.5-2.55Zm13.49,16.45c.57,0,1.06-.49,1.06-1.06v-1.44c0-.61-.49-1.06-1.06-1.06h-4.25c-.61,0-1.06.46-1.06,1.06v1.44c0,.61.42,1.03,1.06,1.06h4.25Zm.53-8.25c.23,0,.42-.04.42-.23,0-.08-.08-.15-.49-.49-.3-.23-.76-.57-1.14-.87-.15-.11-.34-.27-.53-.27-.15,0-.61.3-.84.46-.42.3-.95.68-1.18.84-.3.19-.38.27-.38.38,0,.15.15.19.34.19h3.8Zm-3.08-11.7c-.3,0-.76.04-.76.46,0,.34,1.41,2.24,1.94,2.24.57,0,1.9-2.17,1.9-2.39,0-.27-.53-.3-1.14-.3h-1.94Z"/>
      <path class="cls-1" d="m106.72,141.97c2.7,2.7,4.03,6,4.03,9.76,0,5.36-2.93,10.07-7.64,12.61-.95.53-3.46,1.71-4.52,1.71-1.33,0-3.34-3.5-3.34-4.56,0-.34.34-.49,1.44-.76,4.41-1.14,8.02-3.91,8.02-8.78,0-5.97-4.56-8.32-5.7-8.32-.65,0-.72.68-.76,1.37-.42,5.28-1.94,11.74-5.43,15.92-1.41,1.71-3.23,3.15-5.51,3.15-2.55,0-4.63-1.75-5.78-3.91-.87-1.67-1.25-3.84-1.25-5.7,0-9.12,7.03-16.38,16.19-16.38,3.88,0,7.52,1.14,10.26,3.88Zm-20.78,12.42c0,.91.23,3.69,1.56,3.69.91,0,2.2-2.51,2.58-3.31,1.33-2.74,2.39-8.36,2.39-9.73,0-.3-.15-.57-.49-.57-1.1,0-6.04,3.5-6.04,9.92Z"/>
      <path class="cls-1" d="m92.71,206.34c4.6,1.06,8.7,2.32,13.07,4.14.65.27.83.34.83.76,0,.95-1.18,5.09-2.24,5.09-.27,0-.72-.23-.95-.34-5.55-2.58-11.55-4.1-17.59-4.94-.65-.08-1.18-.11-1.18-.87,0-.65.68-2.89.91-3.65.23-.72.68-1.22,1.48-1.22.95,0,4.56.8,5.66,1.03Zm2.28-9.16c2.93.84,4.94,1.48,7.75,2.58.38.15.65.3.65.76,0,.76-.46,2.09-.76,2.81l-.23.57c-.38.95-.65,1.6-1.29,1.6-.27,0-.76-.23-1.03-.34-3.84-1.79-7.98-2.96-12.12-3.72-.65-.11-1.25-.19-1.25-.87,0-.65.49-2.28.72-3.04.27-.87.57-1.86,1.41-1.86.65,0,5.21,1.25,6.16,1.52Zm-6.04-8.51c.11-.19.19-.42.3-.61.42-.8.76-1.48,1.33-1.48,1.14,0,6.88,2.01,8.21,2.55.68.23,3.46,1.33,3.91,1.63.23.15.34.38.34.65,0,.76-.68,2.36-1.03,3.08-.3.68-.72,1.71-1.29,1.71-.3,0-1.14-.38-1.48-.53-3.31-1.56-6.76-2.66-10.26-3.69-.38-.11-.87-.23-.87-.68,0-.49.61-2.13.84-2.62Z"/>
      <path class="cls-1" d="m102.93,244.91c.99,0,2.01,0,2.51-.08.27-.04.61-.08.87-.08.61,0,1.86,1.18,2.39,1.67.46.46,1.14,1.1,1.14,1.71,0,.34-.49,1.52-.61,1.9-2.05,5.77-5.43,10.14-10.18,13.91-1.1.91-5.02,3.72-6.31,3.72-1.14,0-3.8-3.34-3.8-4.07,0-.34.49-.57.76-.68,3.95-1.63,8.05-5.13,10.64-8.51.46-.61,1.67-2.32,1.67-3.04,0-.76-.76-.84-1.22-.84h-12.96c-1.71,0-3.38.04-5.05.04-1.14,0-1.29-.34-1.29-1.82v-2.17c0-1.52.23-1.75,1.22-1.75,1.75,0,3.5.08,5.24.08h14.97Zm-3.23-8.28c1.18,0,2.39,0,3.61-.04.49,0,.99-.08,1.48-.08.95,0,1.1.53,1.1,1.9v1.79c0,1.56-.04,2.05-1.22,2.05-1.67,0-3.34-.04-4.98-.04h-8.85c-1.63,0-3.3.04-4.98.04-1.14,0-1.22-.49-1.22-1.94v-2.09c0-1.25.23-1.71,1.1-1.71,1.14,0,3.23.11,5.09.11h8.85Z"/>
      <path class="cls-1" d="m99.39,311.1c0,1.03.04,2.05.04,3.08,0,.68.04,1.41.04,2.13,0,1.18-.65,1.22-2.55,1.22h-1.56c-1.79,0-2.05-.23-2.05-1.1,0-1.71.08-3.42.08-5.13v-8.47c0-.57-.19-.95-.68-.95-.34,0-.84.38-1.1.57-1.03.72-6.27,4.22-7.14,4.22s-4.45-3.5-4.45-4.48c0-.42.46-.57.8-.68,2.01-.76,5.55-2.77,7.41-3.95,3.46-2.2,6.99-5.09,9.69-8.21,1.1-1.25,2.62-3.31,3.5-4.75.08-.19.23-.46.49-.46.57,0,3.76,2.32,4.9,3.15.46.34.76.72.76.95,0,.27-.27.34-.49.42-.53.11-.95.23-1.37.65-.91.91-2.58,3-5.43,5.89-.61.65-.87,1.1-.87,1.94v13.98Z"/>
      <path class="cls-1" d="m98.86,343.6c3.65,4.18,7.26,7.67,12.2,10.18.34.19.87.46.87.95,0,.95-2.58,4.98-3.76,4.98-.84,0-3.88-2.24-4.67-2.89-3.76-2.92-6.27-5.77-9.31-9.42-.38-.42-.8-.91-1.41-.91-.65,0-1.37.68-1.82,1.1-1.41,1.29-2.77,2.58-4.22,3.8-.83.72-1.41,1.22-2.13,2.05-.19.23-.53.57-.84.57-.65,0-1.82-1.56-2.2-2.05-.42-.53-2.13-2.74-2.13-3.27,0-.34.57-.65.99-.84.08-.04.15-.08.19-.11,2.32-1.18,4.6-3.12,6.53-4.79,2.17-1.86,3.72-3.23,5.74-3.23,2.58,0,4.1,1.75,5.97,3.88Z"/>
      <path class="cls-1" d="m77.54,383.23c0-1.06-.11-1.94-.11-2.7,0-.91.38-.99,1.6-.99h1.79c1.22,0,1.6.08,1.6.99,0,.57-.08,1.14-.08,1.67v5.21c0,1.25.65,1.29,1.71,1.29h22.19c1.94,0,3.84-.08,5.78-.08,1.22,0,1.33.15,1.33,1.41v2.2c0,.99-.11,1.22-1.22,1.22-1.98,0-3.91-.08-5.89-.08h-23.25c-1.37,0-2.7.11-4.07.11-1.25,0-1.44-.61-1.44-1.71,0-.8.08-1.56.08-2.32v-6.23Z"/>
      <path class="cls-1" d="m28.69,11.97c0,.3.3.42.57.42h.76c1.33,0,2.66-.11,4.03-.11.72,0,.8.3.8,1.18v1.98c0,.84-.08,1.14-.8,1.14-1.33,0-2.7-.08-4.03-.08h-.65c-.27,0-.49.19-.49.46v.42c0,.46.49.46.84.46,1.1,0,2.24-.08,3.38-.08.76,0,.84.3.84,1.29v1.67c0,.99-.08,1.29-.84,1.29-1.1,0-2.2-.08-3.34-.08-.76,0-.87.53-.87.76,0,.46.38.65.8.65,1.14,0,2.28-.08,3.42-.08.76,0,.84.3.84,1.33v1.63c0,.99-.08,1.29-.84,1.29-1.18,0-2.36-.08-3.5-.08-.3,0-.72.08-.72.46v.34c0,.34.27.61.61.61h1.03c1.33,0,2.7-.08,4.03-.08.72,0,.8.3.8,1.14v1.75c0,.95-.08,1.25-.8,1.25-1.37,0-2.7-.08-4.03-.08h-8.59c-.3,0-.42.23-.42.49,0,.08.04.15.04.27,0,.91-.38.99-1.56.99h-1.98c-1.22,0-1.67-.08-1.67-.95,0-1.6.11-3.19.11-4.79v-7.41c0-.19-.04-.53-.3-.53-.15,0-.23.08-.42.27-.15.15-.3.27-.53.27-.53,0-1.18-.61-1.63-1.1-.15-.15-.42-.34-.53-.34-.27,0-.34.27-.34.49v5.74c0,1.22.08,2.43.08,3.65,0,.91-.3,1.03-1.29,1.03h-1.44c-1.1,0-1.33-.11-1.33-1.06,0-.42-.15-.76-.61-.76-.42,0-.8.23-.8.84,0,.3.04.72.04,1.1,0,.87-.27,1.03-1.06,1.03h-1.9c-.84,0-1.1-.15-1.1-1.03,0-1.22.08-2.43.08-3.65v-1.98c0-.72-.27-1.22-.8-1.71-.65-.57-2.36-2.24-2.36-3.08,0-.15.04-.27.19-.49,1.75-2.81,3.8-8.85,3.8-12.16,0-.49-.08-.91-.99-.91-.3,0-.61.04-.91.04-.84,0-.91-.34-.91-1.33v-2.32c0-1.25.08-1.63.87-1.63.95,0,2.09.11,3.34.11h3.53c1.25,0,2.39-.11,3.34-.11.8,0,.87.38.87,1.41v2.32c0,1.18-.08,1.56-.87,1.56-.57,0-1.18-.08-1.75-.08-1.48,0-1.56.49-1.75,2.2-.04.46-.08.87-.15,1.29-.11.65-.19,1.06-.19,1.37,0,.23.15.49.8.49.57,0,1.25-.04,1.86-.04,1.06,0,1.44.42,1.44,1.48,0,.72-.04,1.41-.04,2.09,0,.23.04.72.38.72.68,0,4.52-4.48,4.52-5.09,0-.19-.23-.27-.57-.27-.57,0-1.33-.04-1.75-.04h-.34c-.76,0-1.22-.15-1.22-1.03,0-.76.08-1.52.08-2.36v-.61c0-.95-.08-1.9-.08-2.28,0-1.37.99-1.56,2.13-1.56s2.39.08,3.57.08h.95c.61,0,1.1-.27,1.41-.84.3-.57.46-1.44.61-2.17.04-.23.08-.46.46-.46,1.03,0,3.69.72,4.83.95.34.08.65.19.65.49,0,.34-.38.42-.61.46-.42.08-.57.38-.57.76,0,.65.49.8,1.03.8h.49c1.18,0,2.36-.08,3.53-.08,1.1,0,2.17.15,2.17,1.52,0,.46-.08,1.37-.08,2.32v.76c0,.84.08,1.63.08,2.32,0,.95-.46,1.06-1.63,1.06h-1.22c-1.29,0-1.48-.04-1.71-.65-.04-.11-.15-.27-.3-.27-.23,0-.38.19-.46.42-.08.27-.34.84-.34,1.1Zm-20.63,12.04c.38,0,.72-.3.72-.72v-5.21c0-.38-.34-.72-.72-.72h-.08c-.38,0-.72.34-.72.72v5.21c0,.42.3.72.72.72h.08ZM18.88,7.71c-.42,0-.61.3-.61.72v.23c0,.46.04,1.29.27,1.29.15,0,.27-.23.38-.46.3-.57.65-1.25.65-1.48s-.11-.3-.3-.3h-.38Zm3.15,8.78c-.34,0-.61.27-.61.61v.11c0,.3.27.61.61.61h1.48c.3,0,.61-.3.61-.61v-.11c0-.34-.27-.61-.61-.61h-1.48Zm1.48,6.84c.3,0,.61-.27.61-.61v-.19c0-.34-.3-.61-.61-.61h-1.48c-.34,0-.61.27-.61.61v.19c0,.34.23.57.61.61h1.48Zm-1.48,4.1c-.34,0-.61.27-.61.61v.19c0,.34.27.61.61.61h1.48c.3,0,.61-.27.61-.61v-.19c0-.34-.27-.57-.61-.61h-1.48Zm3.42-18.84c.27,0,2.7.53,3.15.65.15.04.42.08.61.08.57,0,.57-.3.57-.99,0-.38-.23-.61-.61-.61h-3.34c-.61,0-.87.34-.99.57-.42.95-1.22,2.39-1.67,3.15-.15.27-.23.49-.23.61,0,.23.27.34.46.34.8,0,1.03-.95,1.6-3.27.08-.34.11-.53.46-.53Z"/>
      <path class="cls-1" d="m10.3,65.55c-1.37,0-2.74.11-4.1.11-.95,0-.99-.49-.99-1.29v-.11c0-.84-.53-1.22-1.06-1.22-.11,0-.23.04-.38.04-1.1,0-1.94,0-1.94-1.03,0-.53.11-1.52.11-2.28v-.91c0-1.14-.08-2.39-.08-2.77,0-1.44,1.52-1.48,2.58-1.48,1.44,0,2.93.08,4.37.08h5.17c.68,0,1.22-.27,1.22-1.03s-.15-1.6-.15-1.82c0-.49.42-.53.84-.53,1.03,0,3.15.15,4.22.23.15.04.34.04.49.04.72.08,1.25.11,1.25.57,0,.19-.19.34-.42.53-.27.27-.34.65-.34,1.03,0,.8.72.99,1.37.99h5.05c1.44,0,2.93-.08,4.37-.08,1.06,0,2.62.04,2.62,1.48,0,.27-.11,1.6-.11,2.77v1.03c0,.84.11,1.75.11,2.28,0,.91-.57,1.03-1.71,1.03h-.72c-.8,0-1.22.53-1.22,1.03v.15c0,.91-.11,1.29-1.03,1.29-1.37,0-2.7-.11-4.07-.11h-4.37c-.27,0-.49.23-.49.49v.23c0,.27.23.49.49.49h3.27c1.37,0,2.74-.08,4.1-.08.91,0,.99.38.99,1.44v1.48c0,1.1-.08,1.48-.99,1.48-1.37,0-2.74-.08-4.1-.08h-3.31c-.65,0-.76.42-.76.61,0,.53.49.53.76.53h8.25c1.48,0,2.96-.08,4.45-.08.91,0,.99.38.99,1.6v1.56c0,.99-.08,1.37-.99,1.37-1.48,0-2.96-.08-4.45-.08h-4.41c-.49,0-.84,0-.84.38,0,.49,1.67,1.22,2.13,1.44,2.36,1.14,4.67,1.86,7.22,2.28.8.11,1.48.11,1.48.99s-.42,2.05-.95,2.81c-.72,1.03-1.06,1.52-1.86,1.52-.42,0-.95-.15-1.37-.27-2.39-.61-5.02-1.44-7.18-2.66-1.71-.95-3.31-2.17-4.67-3.65-.23-.27-.72-.65-1.1-.65-.42,0-.8.38-1.06.68-2.77,2.93-7.37,4.9-11.25,5.78-.49.11-1.86.38-2.32.38-1.44,0-2.39-3.19-2.39-4.03,0-.91.8-.91,2.13-1.14,2.55-.42,5.32-1.18,7.48-2.51.27-.15,1.14-.72,1.14-.99,0-.34-.34-.38-.84-.38h-4.33c-1.48,0-3,.08-4.48.08-.87,0-.95-.34-.95-1.48v-1.52c0-1.18.08-1.52.99-1.52,1.48,0,2.96.08,4.45.08h7.71c.53,0,.72-.3.72-.61,0-.38-.27-.53-.61-.53h-2.89c-1.37,0-2.7.08-4.07.08-.95,0-1.03-.42-1.03-1.56v-1.41c0-1.06.11-1.44,1.03-1.44,1.37,0,2.74.08,4.07.08h3.42c.27,0,.49-.23.49-.49v-.23c0-.27-.19-.46-.49-.49h-4.67Zm4.41-4.33c.38,0,.72-.15.72-.57,0-.87-.08-1.18-.87-1.18h-6.35c-.42,0-.76.11-.76.61,0,.8.11,1.1.95,1.1h.08c.61,0,1.22.04,1.82.04h4.41Zm11.06,0c.76,0,1.52-.04,2.28-.04.8,0,.84-.38.84-1.06,0-.53-.34-.65-.8-.65h-5.66c-.3,0-.49,0-.49.23v.19c0,.27-.23.42-.46.53-.15.08-.27.15-.27.34,0,.23.15.46.65.46h3.91Z"/>
      <path class="cls-1" d="m18.92,103.93c.46.11.87.27.87.49,0,.19-.27.38-.72.68-.23.15-.53,1.48-.68,2.13-.04.15-.08.23-.08.3,0,.11-.04.27-.04.42,0,.23.19.53.46.53.19,0,.61-.15.84-.23s.42-.15.65-.15c.34,0,.46.19.53.57.11.61.38,3.04.38,3.95s-.53,1.03-3.5,1.56c-1.33.23-1.37.49-1.82,1.71-.65,1.75-1.37,3.46-2.13,5.17-.99,2.24-2.01,4.52-3.19,6.69-.3.53-.68,1.14-.91,1.6-.19.38-.34.57-.84.57-1.29,0-4.94-1.6-4.94-2.58,0-.23.53-1.1.8-1.52.76-1.29,4.9-8.85,4.9-9.8,0-.38-.34-.57-.65-.57-.23,0-.99.08-1.25.11-.42.04-1.22.11-1.67.11-.8,0-1.14-.34-1.41-3.57-.04-.3-.11-.99-.11-1.33,0-.53.3-.68.76-.68.65,0,1.56.08,2.39.08,3.46,0,3.95-.08,4.33-1.06.49-1.29.95-4.71.95-5.89,0-.3,0-.61.27-.61.49,0,5.05,1.14,5.81,1.33Zm5.09,11.93c.65.15.99.42.99,1.1,0,.38-.08,1.06-.08,1.75,0,1.9.15,3.76.27,5.62.04.91.23,1.14,1.1,1.48,1.06.42,5.85,2.66,5.85,3.72,0,.84-2.13,3.95-3.34,3.95-.3,0-.84-.34-1.67-.99-.23-.19-.46-.38-.72-.57-.19-.15-.34-.23-.61-.23-.61,0-.76.46-.84.65-.27.61-.84,1.33-1.29,1.79-1.18,1.14-3,1.44-4.6,1.44-3.61,0-7.37-1.75-7.37-5.85,0-3.8,3.34-5.43,6.73-5.43h.3c.61,0,.91-.38.91-.91,0-.65-.34-4.03-.46-5.17-.08-.57-.15-1.22-.15-1.79,0-.8.3-1.1,1.14-1.1.99,0,2.85.3,3.84.53Zm-6.69,13.87c0,.76.76,1.14,1.41,1.14.87,0,1.18-.46,1.18-1.25,0-.49-.04-.91-1.14-.91-.65,0-1.44.27-1.44,1.03Zm13.07-18.39c.87.8,3.27,3.08,3.27,3.88,0,1.18-3.08,3.8-4.03,3.8-.46,0-.8-.57-1.06-.99-1.29-1.86-2.96-3.46-4.75-4.9-.3-.23-.68-.49-.68-.8,0-.61,2.43-3.72,3.5-3.72.72,0,3.15,2.17,3.76,2.74Z"/>
      <path class="cls-1" d="m34.54,168.87c0,.95.11,1.71.11,2.43,0,.99-.49,1.1-1.67,1.1h-2.24c-1.22,0-1.75-.08-1.75-1.1,0-.49.08-1.33.08-1.75,0-.68-.42-1.14-1.06-1.14H8.51c-.61,0-1.14.42-1.14,1.03,0,1.06.91,1.18,3.15,1.18h11.66c.84,0,2.66-.11,3.42-.11,1.67,0,3.5,2.13,3.5,3,0,1.37-3.5,4.41-4.6,5.28-.19.19-.53.49-.53.76,0,1.14,8.59,2.09,9.99,2.2.95.08,1.33.04,1.33.68,0,.72-.38,1.79-.65,2.47-.3.68-.84,2.09-1.71,2.09-.23,0-.87-.11-1.14-.15-3.88-.57-7.64-1.6-11.25-3.15-.57-.23-1.37-.53-2.01-.53-.91,0-2.36.68-3.23,1.03-2.32.95-9.12,2.85-11.47,2.85-1.79,0-2.74-3.15-2.74-4.45,0-.53.3-.61.91-.65,2.58-.15,6.5-.8,9-1.44.53-.15,2.17-.46,2.17-1.06,0-.34-.49-.8-.72-1.03-.38-.34-1.9-1.82-1.9-2.28,0-.3.23-.46.46-.57.04-.08.15-.15.15-.27,0-.15-.34-.15-.42-.15-1.1,0-2.17.08-3.23.08-.84,0-.95-.38-.95-1.14v-.49c0-.57-.04-1.18-1.06-1.18-.15,0-.3.04-.46.04-.61,0-1.22-.04-1.86-.04-.84,0-1.37-.11-1.37-1.1,0-.61.08-1.56.08-2.43v-.65c0-1.06-.04-2.09-.04-2.85,0-1.63,1.22-1.71,2.51-1.71.76,0,1.52.08,2.28.08.49,0,.8-.08.8-.3,0-.3-.68-1.29-1.06-1.82-.08-.08-.15-.15-.19-.23-.15-.15-.3-.38-.3-.61,0-.3.19-.49.38-.68.08-.08.15-.15.15-.27,0-.27-.27-.27-.72-.27-.68,0-1.06-.11-1.41-.68-.46-.72-.95-2.51-.95-3.38s.76-.87,1.41-.87c2.43,0,4.86.19,7.33.19,4.48,0,11.93-.46,16.15-1.9.23-.08.46-.15.68-.15.38,0,.72.42.95.68.46.61,1.33,1.67,1.82,2.2.38.38,1.29,1.25,1.29,1.79,0,.27-.27.53-.53.53-.15,0-.38-.08-.49-.11-.27-.11-.57-.23-.84-.23s-1.41.23-1.71.3c-.27.04-.65.15-.65.46,0,.27.42.42.65.49,1.86.61,2.51.87,2.51,1.37,0,.3-.3.38-.53.42-.61.11-.61.15-.99.84-.11.19-.27.46-.46.76-.19.27-.38.61-.38.91,0,.42.42.57.76.57.65,0,1.29-.08,1.94-.08,1.22,0,2.36.15,2.36,1.67,0,.72-.08,1.71-.08,2.89v.65Zm-18.88-5.13c.27,0,.49-.11.49-.42,0-.46-1.14-2.43-1.44-2.89q-.11-.19-.19-.38c-.19-.42-.49-.49-.91-.49h-1.06c-.34,0-.91,0-.91.42,0,.34.53,1.06.76,1.41.23.34.65.87.65,1.29,0,.15-.08.27-.11.42-.08.11-.11.27-.11.38,0,.23.23.27.42.27h2.43Zm1.44,11.4c-.23,0-.61.08-.61.38,0,.38,1.14,1.48,2.01,1.48s2.01-1.33,2.01-1.56c0-.27-.57-.3-1.25-.3h-2.17Zm5.43-11.4c.91,0,1.14-.72,1.63-1.71.23-.49,1.14-2.39,1.14-2.85,0-.3-.27-.38-.53-.38-.15,0-2.09.19-2.43.23-.19,0-.34.04-.53.04-.87.08-1.48.11-1.48.61,0,.15.08.3.15.46.23.42.99,1.86.99,2.28,0,.3-.27.53-.53.68-.11.11-.38.27-.38.46,0,.15.19.19.3.19h1.67Z"/>
      <path class="cls-1" d="m0,234.87c0-.23.23-1.33.3-1.63.3-1.52.49-4.07.49-5.21,0-.53,0-1.14.46-1.14.19,0,1.44.34,1.71.42.11.04.23.08.3.08.11,0,.19-.04.3-.11.3-.15.68-.27,1.03-.27.57,0,.68.27.99,3.31.04.53.23,2.81.23,3.27,0,.99-1.25,1.14-1.52,1.14-.53,0-.53-.38-.53-1.37,0-.8-.23-3.95-.3-4.63-.04-.27-.08-.34-.19-.34-.42,0-.46.3-.46.65,0,1.03-.3,4.56-.53,5.89-.08.42-.15.8-.61.8-.49,0-1.67-.23-1.67-.84Zm34.61-10.11c0,.87.08,1.75.08,2.62,0,1.44-1.1,1.52-2.24,1.52-.72,0-1.44-.04-2.2-.04-.27,0-.61.08-.61.42,0,1.18,4.37,4.45,5.43,5.09.34.23.72.42.72.68,0,.8-2.43,3.57-3.65,3.57s-4.75-3.72-5.62-4.79c-.27-.34-.65-.84-1.03-.84-.46,0-1.1.87-1.52,1.37-1.06,1.22-2.43,2.43-3.84,3.38-.46.3-1.44,1.03-1.94,1.03-1.06,0-3.38-2.96-3.38-3.76,0-.53.53-.72,1.03-.99,2.89-1.48,5.51-4.22,5.51-4.86,0-.27-.27-.3-.46-.3-.61,0-1.22.04-1.82.04-1.14,0-2.2-.08-2.2-1.52,0-.87.04-1.75.04-2.62v-2.43c0-.87-.04-1.75-.04-2.62,0-1.41,1.06-1.52,2.2-1.52,1.06,0,2.17.08,3.23.08h.42c.27,0,.38-.11.38-.38v-.34c0-.34-.3-.38-.57-.38-.68,0-1.33.04-2.01.04-.38,0-.68,0-.95-.3-.08-.08-.15-.15-.3-.15-.19,0-.42.19-.57.27-.3.23-.68.53-1.1.53-.27,0-.61-.23-.84-.34-.04-.04-.11-.04-.15-.04-.27,0-.27.34-.27.53v.3c0,1.1-.11,1.29-.72,1.29-.38,0-.95-.08-1.82-.08h-.65c-.27,0-.46.23-.46.49v.3c0,.53.42.53.84.53h.8c1.82,0,1.82.99,1.82,2.51,0,3.08-.34,9.8-1.63,12.46-1.22,2.51-2.89,2.96-5.51,2.96-.91,0-2.17,0-2.17-3.34,0-.8,0-1.86.72-1.86.61,0,1.03.08,1.37.08.8,0,1.37-.04,1.63-.57.15-.3.34-1.06.34-1.41,0-.19-.04-.38-.27-.38-.11,0-.27.04-.38.08-.11.04-.23.08-.34.08-.3,0-.34-.49-.42-.84-.23-1.22-.46-2.47-.84-3.65-.08-.15-.11-.3-.11-.49,0-.57.95-.8,1.25-.8.34,0,.42.11.8,1.1.08.23.34,1.14.46,1.52.04.11.08.23.15.23.15,0,.15-.42.15-.57.04-.72.08-1.41.08-1.82,0-.91-.42-1.03-1.14-1.03h-3.46c-.23,0-.3.15-.38.34-.19.42-.57.42-1.86.42-.65,0-1.33-.04-1.98-.04s-.95-.11-.95-.8c0-1.48.11-3,.11-4.48v-10.33c0-1.06-.08-2.05-.08-2.85,0-1.67.91-2.09,2.39-2.09,1.03,0,2.05.11,3.04.11h6.99c.84,0,1.63-.11,2.13-.11.76,0,.84.46.84,1.41v1.67c0,1.06-.08,1.48-.84,1.48-.46,0-1.25-.08-2.13-.08h-.99c-.27,0-.46.23-.46.49v.3c0,.27.19.49.46.49h.65c.8,0,1.33-.08,1.82-.08.61,0,.65.34.68.61.04.3.08.38.27.38.38,0,4.22-2.96,6.31-7.07.27-.53.38-.72.76-.72.65,0,2.55.76,3.34.99,1.03.3,1.9.49,1.9,1.06,0,.19-.15.3-.19.38-.11.08-.15.15-.15.27,0,.23.91,1.14,1.1,1.33,1.79,1.86,3.61,3.34,5.66,4.9.27.23.8.57.8.95,0,1.1-2.09,3.57-3.31,3.57-.3,0-.57-.15-.8-.34-.11-.11-.27-.23-.42-.23s-.23.15-.34.27c-.11.15-.61.19-.8.19-.57,0-1.14-.04-1.71-.04-.27,0-.57.08-.57.42v.27c0,.23.19.42.42.42h.65c1.06,0,2.17-.08,3.23-.08,1.14,0,2.24.08,2.24,1.52,0,.87-.08,1.75-.08,2.62v2.43Zm-26.33,4.18c.11.57.42,2.13.42,2.66,0,.99-1.25,1.37-1.6,1.37s-.38-.15-.49-1.41c-.11-1.18-.3-2.93-.57-4.07-.04-.15-.08-.3-.08-.46,0-.57.91-.8,1.18-.8.42,0,.61.15,1.14,2.7Zm-.3-18.2c.27-.04.49-.19.49-.49v-.3c0-.27-.23-.49-.49-.49h-1.06c-.3,0-.49.23-.49.49v.3c0,.27.19.49.49.49h1.06Zm-1.06,3.57c-.3,0-.49.23-.49.49v.34c0,.27.19.49.49.49h1.06c.27,0,.49-.23.49-.49v-.34c0-.27-.23-.46-.49-.49h-1.06Zm0,4.9c-.3,0-.49.23-.49.49v.38c0,.3.19.49.49.49h1.06c.27,0,.49-.19.49-.49v-.38c0-.3-.23-.49-.49-.49h-1.06Zm6.23-4.9c-.27,0-.46.23-.46.49v.34c0,.27.19.49.46.49h.65c.95,0,1.18,0,1.18-.3,0-.04-.08-.38-.3-.65-.19-.23-.42-.38-.87-.38h-.65Zm9.19,8.05c-.34,0-.61.27-.61.61v1.29c0,.27.19.49.46.49h.34c.46,0,.53-.65.53-1.86,0-.34-.11-.49-.42-.53h-.3Zm4.1-9.12c.23,0,.76-.04.76-.34,0-.27-.27-.53-.68-1.03-.68-.8-.87-.99-1.18-.99-.61,0-1.86,1.82-1.86,2.01,0,.27.23.34.46.34h2.51Zm2.62,11.51c.42,0,.76-.34.76-.76v-.91c0-.38-.34-.72-.76-.72h-.3c-.57,0-.68.34-.68,1.75,0,.46.15.61.53.65h.46Z"/>
      <path class="cls-1" d="m6.65,267.21c-1.22,0-2.43.08-3.65.08-1.33,0-1.41-.3-1.41-2.74v-.87c0-1.29.11-1.82,1.33-1.82.72,0,1.44.04,2.17.04.76,0,1.06-.49,1.06-1.18v-1.22c0-.8-.04-1.82-.11-2.62-.04-.11-.04-.23-.04-.34,0-.49.34-.57.76-.57.27,0,.72.04.99.08,1.37.11,2.74.23,4.1.38.34.04.84.08.84.53,0,.27-.15.38-.42.61-.3.27-.34,1.1-.34,1.9v1.25c0,.68.34,1.22,1.06,1.22.87,0,1.79-.08,2.66-.08,1.18,0,1.29.53,1.29,1.79v1.82c0,1.29-.11,1.82-1.29,1.82-.76,0-1.48-.08-2.24-.08-.15,0-.57.04-.57.27,0,.27.46.34,1.06.57,1.25.46,1.9.61,1.9,1.06,0,.3-.27.46-.57.57-.49.15-.57.46-.72,1.14-.27,1.29-.57,2.54-.95,3.8-.11.42-.27.87-.27,1.29,0,.72.65,1.33,1.06,1.82.65.72,3.31,3.84,3.31,4.6,0,.91-2.58,3.42-3.38,3.42-.34,0-.49-.19-.68-.49-.38-.53-2.24-3.31-2.77-3.31-.38,0-.61.42-.76.68-.61,1.14-4.22,6.31-5.4,6.31-.95,0-3.53-2.62-3.53-3.31,0-.27.19-.53.61-.95,1.06-1.06,4.75-5.66,4.75-7.07,0-.53-.42-.91-.8-1.25-1.25-1.06-2.47-2.01-3.8-3-.53-.38-.65-.49-.65-.83,0-.72,2.2-3.5,3.08-3.5.49,0,2.77,1.82,3.27,2.28.23.19.53.46.84.46.46,0,.57-.3.91-2.09.08-.3.27-1.37.27-1.63,0-.72-.53-.84-1.14-.84h-1.82Zm16.95,7.07c.27.68,1.25,3.15,1.25,3.69,0,.76-.61,1.14-1.71,1.6-.46.19-1.82.76-2.24.76-.53,0-.68-.46-.84-.87-.84-2.2-1.67-4.48-2.74-6.61-.11-.19-.27-.57-.27-.8,0-.87,3.57-2.09,4.14-2.09.61,0,.8.49,2.39,4.33Zm8.47,8.32c0,1.1.04,2.17.04,3.27,0,.95-.34,2.2-1.22,2.81-1.25.84-4.06,1.03-5.77,1.03-1.44,0-2.13-.08-2.51-.95-.42-.91-.61-2.32-.61-3.31,0-.61.08-1.29.84-1.29.23,0,.57.04.76.08.42.04.91.08,1.33.08,1.41,0,1.41-.23,1.41-2.05v-13.18c0-.57-.49-1.06-1.06-1.06h-2.7c-1.18,0-2.55.11-3.38.11-.99,0-1.06-.46-1.06-1.63v-2.09c0-1.22.08-1.67,1.06-1.67s2.13.11,3.38.11h2.77c.61,0,.99-.49.99-1.18v-2.85c0-.87,0-1.75-.11-2.54-.04-.11-.04-.23-.04-.34,0-.49.34-.61.76-.61.27,0,.72.08.99.08,1.37.15,2.7.27,4.07.42.34.04.84.08.84.53,0,.27-.15.34-.42.61-.3.3-.34,1.06-.34,1.9v2.81c0,.61.3,1.1.99,1.1.42,0,.84-.04,1.29-.04.95,0,1.06.42,1.06,1.52v2.39c0,1.06-.11,1.48-1.06,1.48-.42,0-.84-.04-1.25-.04-.57,0-1.03.42-1.03,1.03v13.49Z"/>
      <path class="cls-1" d="m3.95,327.97c0-1.33-.08-2.43-.08-3.27,0-1.33,1.18-1.37,2.2-1.37,1.33,0,2.62.08,3.95.08h4.64c.34,0,.61-.27.61-.61v-.27c0-.34-.27-.61-.61-.61h-7.79c-1.6,0-3.23.08-4.83.08-.84,0-.91-.42-.91-1.52v-1.71c0-1.14.08-1.56.95-1.56,1.6,0,3.19.11,4.79.11h7.6c.38,0,.72-.34.72-.72,0-.11-.04-.34-.04-.53,0-.57.42-.57.84-.57.68,0,1.9.08,2.09.08.15,0,.23-.08.23-.15,0-.15-.19-.27-.42-.42-.34-.19-.72-.42-.72-.87,0-.19.15-.38.23-.53.95-1.6,2.09-4.41,2.62-6.19.15-.53.19-.72.53-.72.3,0,2.85.38,3.38.46,1.22.15,2.39.23,2.39.87,0,.3-.23.34-.42.46-.11.04-.3.15-.3.3,0,.23.27.23.53.23h4.52c1.18,0,2.32-.08,3.34-.08.95,0,1.03.34,1.03,1.44v1.98c0,1.03-.08,1.41-1.03,1.41-1.03,0-2.05-.08-3.08-.08-.34,0-.8.04-.8.46,0,.11.11.38.15.49.04.11.19.42.19.53,0,.95-3.69,1.52-4.52,1.52-.46,0-.57-.19-.65-.61-.3-1.37-.53-2.39-1.63-2.39-.72,0-1.03.8-1.33,1.33-.15.27-.19.34-.42.57-.15.15-.27.38-.3.65-.04.19-.08.27-.27.42-.08.08-.15.23-.15.34,0,.3.46.34.68.34h7.41c1.6,0,3.19-.11,4.79-.11.87,0,.95.38.95,1.56v1.71c0,1.1-.08,1.52-.91,1.52-1.6,0-3.23-.08-4.83-.08h-7.79c-.34,0-.61.27-.61.61v.27c0,.34.27.61.61.61h4.67c1.29,0,2.62-.08,3.91-.08.95,0,2.24.04,2.24,1.33,0,.42-.11,1.22-.11,2.39v1.22c0,.49.04.99.04,1.48,0,1.6-.08,2.55-1.63,3.38-.15.08-.3.15-.3.34,0,.34.49.57.76.68,1.03.46,2.01.87,3.04,1.25.53.23,1.03.42,1.03.76,0,.84-1.98,3.91-2.81,3.91-.99,0-5.66-2.7-6.69-3.38-1.22-.8-2.36-1.67-3.5-2.62-.15-.15-.53-.46-.76-.46-.34,0-.49.3-.49.61v.8c0,1.75.11,3.5.11,5.21,0,.99-.42,1.1-1.71,1.1h-2.58c-1.14,0-1.56-.11-1.56-1.06,0-1.75.11-3.5.11-5.24v-.76c0-.27-.15-.61-.49-.61-.23,0-.46.19-.61.34-1.63,1.48-3.76,2.93-5.7,3.99-.76.42-3.88,1.98-4.6,1.98-1.1,0-2.93-2.74-2.93-3.8,0-.49.3-.53,1.9-1.1.38-.15,2.7-1.03,2.7-1.33,0-.27-.42-.27-.65-.27-.76,0-.99-.19-.99-.95,0-.87.04-1.75.04-2.62v-1.94Zm9.04-18.96c1.18,0,2.32-.08,3.34-.08.95,0,1.03.34,1.03,1.44v1.98c0,1.03-.08,1.41-.99,1.41-.46,0-1.03-.04-1.48-.04-.23,0-.53.15-.53.42s.42.84.42,1.06c0,.84-3.53,1.44-4.22,1.44-.72,0-.76-.23-.87-.65-.23-.99-.68-2.28-1.6-2.28-.46,0-.61.38-.8.76-1.03,1.86-1.25,2.28-1.98,2.28-.87,0-4.33-.99-4.33-2.09,0-.15.23-.49.42-.76,1.33-2.13,2.47-4.37,3.27-6.76.11-.3.15-.53.57-.53.08,0,3.04.42,3.46.46,1.52.19,2.47.27,2.47.91,0,.27-.23.38-.42.46-.11.08-.34.19-.34.34,0,.23.42.23.57.23h2.01Zm-2.85,18.66c-.49,0-.91.42-.91.91v1.86c0,.49.04.95.49.95.53,0,3.27-2.43,3.84-2.93.11-.11.3-.27.3-.46,0-.23-.3-.3-.49-.34h-3.23Zm12.54,0c-.19,0-.53.08-.53.34,0,.34,2.2,2.13,2.36,2.13.27,0,.38-.34.42-.53.08-.19.27-.34.49-.34.19,0,.46.08.76.08.68,0,.68-.34.68-.87,0-.46-.23-.8-.72-.8h-3.46Z"/>
      <path class="cls-1" d="m9.57,364.38c1.44,0,2.36-.08,3-.08.95,0,1.18.19,1.18,1.06v1.9c0,1.03-.23,1.22-1.22,1.22-.61,0-1.56-.08-2.96-.08h-3.99c-1.44,0-2.36.08-3,.08-1.14,0-1.18-.19-1.18-2.09v-.65c0-.99.08-1.44.99-1.44,1.06,0,2.13.08,3.19.08h3.99Zm-7.37,20.55c0-1.03-.08-2.01-.08-2.93,0-1.67.76-2.17,2.32-2.17.95,0,1.9.08,2.81.08h.8c.95,0,1.86-.08,2.77-.08,1.6,0,2.39.49,2.39,2.2,0,.95-.08,1.9-.08,2.89v2.89c0,1.18.08,2.36.08,3.53,0,.91-.42.99-1.52.99h-1.03c-1.71,0-2.09,0-2.13-1.03,0-.46-.34-.61-.76-.61-.68,0-.72.49-.76.84-.08.72-.46.8-1.48.8h-1.94c-1.1,0-1.52-.08-1.52-.99,0-1.06.11-2.36.11-3.53v-2.89Zm6.73-25.8c.95,0,1.9-.08,2.85-.08.84,0,.91.46.91,1.41v1.41c0,.95-.08,1.44-.87,1.44-.99,0-1.94-.08-2.89-.08h-2.36c-.95,0-1.86.08-2.81.08-.87,0-.95-.42-.95-1.44v-1.41c0-.91.08-1.41.87-1.41.99,0,1.94.08,2.89.08h2.36Zm-.38,10.41c1.41,0,2.32-.08,2.93-.08.99,0,1.25.19,1.25,1.18v1.75c0,1.06-.23,1.25-1.18,1.25-.65,0-1.56-.08-3-.08h-1.56c-1.44,0-2.36.08-2.96.08-1.18,0-1.18-.23-1.18-2.09v-.68c0-.95.08-1.41.95-1.41s1.86.08,3.19.08h1.56Zm-.08,5.24c1.06,0,2.17-.08,3.23-.08.91,0,1.06.38,1.06,1.22v1.63c0,.84-.19,1.18-1.06,1.18-1.1,0-2.17-.08-3.23-.08h-1.33c-1.1,0-2.2.08-3.31.08-.91,0-.99-.46-.99-1.37v-.65c0-1.63,0-2.01,1.03-2.01,1.1,0,2.17.08,3.27.08h1.33Zm-1.52,11.25c0,.38.3.76.72.76h.27c.38,0,.72-.34.72-.76v-1.1c0-.42-.34-.72-.72-.72h-.27c-.38,0-.72.3-.72.72v1.1Zm11.4-12.73c-1.22,0-2.47.08-3.69.08-.76,0-.87-.3-.87-1.1v-1.44c0-.72.11-1.03.84-1.03.84,0,1.63.04,2.47.04.3,0,.61,0,.61-.57,0-.53-.3-.61-.76-.61h-.61c-.91,0-1.06-.34-1.06-1.06v-1.37c0-.68.19-1.03,1.06-1.03.19,0,.42.04.61.04.38,0,.72-.11.72-.61,0-.34-.19-.57-.53-.57-.61,0-1.25.04-1.86.04-.68,0-.84-.3-.84-1.03v-1.48c0-.68.11-.99.8-.99.46,0,.87.04,1.33.04.57,0,1.06-.38,1.06-1.03,0-.23-.04-.57-.04-.87,0-.46.3-.53.68-.53.61,0,3.15.19,3.88.27.87.08,1.6.08,1.6.53,0,.23-.15.34-.3.49-.23.19-.49.46-.49.76,0,.23.19.42.46.42h1.6c.68,0,1.06-.42,1.06-1.1,0-.15,0-.42-.04-.57,0-.08-.04-.23-.04-.34,0-.42.38-.46.76-.46.53,0,3.5.23,4.18.3.72.08,1.41.08,1.41.53,0,.23-.11.3-.27.42-.27.23-.53.46-.53.8,0,.3.27.42.53.42.68,0,1.37-.08,2.09-.08.8,0,.8.34.8,1.67v.68c0,.84-.08,1.14-.84,1.14-.65,0-1.33-.04-2.01-.04-.38,0-.65.11-.65.57,0,.34.23.61.57.61.42,0,.8-.04,1.18-.04.87,0,1.06.34,1.06,1.03v1.33c0,.76-.11,1.1-1.03,1.1h-1.14c-.42,0-.65.19-.65.65,0,.53.34.57.61.57.87,0,1.75-.08,2.62-.08.72,0,.8.3.8,1.1v1.37c0,.76-.08,1.1-.8,1.1-1.25,0-2.51-.08-3.72-.08h-3.61c-.27,0-.46.23-.46.49v.15c0,.46.46.53.8.53,1.03,0,2.05-.08,3.08-.08,1.18,0,2.36.08,2.36,1.6,0,.95-.08,2.2-.08,3.57v2.62c0,.68.49,1.14,1.18,1.14.15,0,.3-.04.42-.04.76,0,.84.34.84,1.1v.65c0,1.63-.04,1.82-.84,1.82h-.15c-.68,0-1.41.08-1.41,1.25v.46c0,3.88-3.15,4.14-6.23,4.14-.91,0-1.37-.11-1.63-1.06-.15-.57-.3-1.37-.3-1.98,0-.8.11-1.6,1.1-1.6.49,0,.99.04,1.48.04s.68-.15.68-.68c0-.34-.27-.61-.65-.61h-5.55c-.95,0-1.03.87-1.03,1.71,0,1.06.08,2.13.08,3.19,0,.95-.38,1.03-1.48,1.03h-2.01c-1.06,0-1.48-.08-1.48-.99,0-1.41.08-2.85.08-4.26,0-.46-.34-.65-.76-.65h-.72c-.65,0-.8-.3-.8-.99v-1.6c0-.72.15-.99.87-.99.23,0,.46.04.72.04.38,0,.68-.19.68-.61v-3.15c0-1.22-.08-2.47-.08-3.57,0-1.48,1.18-1.6,2.36-1.6.99,0,2.01.08,2.89.08.34,0,.68-.15.68-.53v-.15c0-.3-.23-.49-.49-.49h-3.15Zm3.76,5.77c.27-.04.49-.23.49-.49v-.11c0-.27-.23-.49-.49-.49h-.65c-.27,0-.49.23-.49.49v.11c0,.27.23.49.49.49h.65Zm-.65,3.08c-.27,0-.49.23-.49.49v.23c0,.27.23.49.49.49h.65c.27,0,.49-.23.49-.49v-.23c0-.27-.23-.46-.49-.49h-.65Zm1.9-18.09c-.27,0-.49.19-.49.46v.27c0,.27.23.49.49.49h2.28c.27,0,.49-.23.49-.49v-.27c0-.27-.23-.46-.49-.46h-2.28Zm0,4.56c-.27,0-.49.19-.49.49v.27c0,.27.23.49.49.49h2.28c.27,0,.49-.23.49-.49v-.27c0-.3-.23-.49-.49-.49h-2.28Zm4.37,10.45c.27,0,.49-.23.49-.49v-.11c0-.27-.23-.49-.49-.49h-.68c-.27,0-.49.23-.49.49v.11c0,.27.23.46.49.49h.68Zm-.68,3.08c-.27.04-.49.23-.49.49v.23c0,.27.23.49.49.49h.68c.27,0,.49-.23.49-.49v-.23c0-.27-.23-.49-.49-.49h-.68Z"/>
      <path class="cls-1" d="m24.05,430.27c0,.49.42.91.91.91h2.81c1.37,0,2.74-.11,4.1-.11.95,0,1.03.49,1.03,1.67v1.63c0,1.25-.08,1.67-1.06,1.67-1.37,0-2.7-.11-4.07-.11h-2.66c-.57,0-1.06.49-1.06,1.06v.46c0,.57.49,1.06,1.06,1.06h5.09c1.33,0,2.7-.11,4.07-.11.95,0,1.03.46,1.03,1.63v1.63c0,1.29-.08,1.71-1.06,1.71-1.37,0-2.7-.11-4.03-.11H13.34c-1.33,0-2.7.11-4.03.11-.99,0-1.06-.46-1.06-1.71v-1.63c0-1.22.08-1.63,1.06-1.63,1.33,0,2.7.11,4.03.11h4.75c.57,0,1.06-.49,1.06-1.06v-.46c0-.57-.49-1.06-1.06-1.06h-2.51c-1.37,0-2.7.11-4.03.11-.99,0-1.06-.46-1.06-1.75v-1.63c0-1.18.08-1.6,1.03-1.6,1.37,0,2.7.11,4.07.11h2.51c.57,0,1.06-.49,1.06-1.06v-.91c0-.38-.04-.68-.3-.68-.19,0-.34.15-.46.27-.42.42-1.44,1.48-2.05,1.48-.46,0-1.6-1.71-1.9-2.17-.11-.19-.23-.34-.46-.34-.34,0-.46.34-.61.61-.57,1.14-.99,2.13-1.63,2.13-.57,0-1.63-.57-2.13-.87-.19-.11-.53-.38-.76-.38-.42,0-.46.65-.49,1.06-.38,4.1-.99,8.93-2.85,12.8-.15.3-.3.46-.65.46-1.1,0-4.33-1.41-4.33-2.7,0-.08,0-.11.23-.61,1.98-4.6,2.51-10.52,2.51-15.24v-6.61c0-1.33-.11-2.7-.11-4.03,0-1.52.72-1.98,2.17-1.98,1.29,0,2.58.08,3.88.08h4.94c.72,0,1.29-.19,1.29-1.03,0-.76-.11-1.44-.11-1.67,0-.49.38-.57.8-.57.27,0,.72.04.99.08,1.41.11,2.81.23,4.18.38.34.04.87.11.87.53,0,.27-.19.42-.42.61-.23.23-.34.49-.34.8,0,.8.65.87.95.87h6.57c1.52,0,3.08-.11,4.6-.11.95,0,1.03.38,1.03,1.44v1.94c0,1.03-.08,1.44-.99,1.44-1.56,0-3.08-.11-4.64-.11H9.61c-.61,0-1.06.49-1.06,1.06v7.6c0,.76,0,.87.23.87.15,0,.49-.65.76-1.1.08-.15.15-.27.19-.34,1.14-2.09,1.94-4.41,2.58-6.72.08-.23.19-.46.46-.46.46,0,3.95,1.1,4.67,1.29.23.11.46.3.46.57,0,.3-.34.38-.57.49-.68.27-.99,1.98-.99,2.09,0,.68,2.13,3.31,2.47,3.31s.34-.46.34-.68v-3.27c0-2.28-.15-3.15-.15-3.34,0-.46.27-.57.68-.57.46,0,2.93.23,3.69.3,1.1.11,1.44.23,1.44.61,0,.27-.15.34-.38.57-.34.34-.38,1.33-.38,2.39v4.45c0,.3,0,.65.23.65.49,0,3.27-5.96,3.76-8.25.08-.27.15-.53.53-.53.34,0,3.19.91,3.91,1.14.34.11,1.06.34,1.06.8,0,.3-.42.38-.65.42-.42.11-.53.46-.72,1.03-.04.08-.08.19-.11.3-.08.23-.23.53-.23.8,0,.46.38.87.65,1.22.84,1.03,1.75,2.01,2.66,2.96.23.23.53.57.53.8,0,.72-2.77,2.89-3.61,2.89-.53,0-1.75-1.82-2.09-2.32-.11-.15-.23-.3-.42-.3-.38,0-.53.46-.65.72-.68,1.44-1.03,1.98-1.75,1.98-.53,0-1.79-.65-2.24-.95-.15-.08-.27-.19-.46-.19-.38,0-.42.42-.42.68v.23Z"/>
      <path class="cls-1" d="m34.61,466.07c0,3-2.43,5.43-5.43,5.43s-5.4-2.43-5.4-5.43,2.39-5.43,5.4-5.43,5.43,2.43,5.43,5.43Zm-8.62,0c0,1.79,1.44,3.23,3.19,3.23s3.23-1.44,3.23-3.23-1.44-3.19-3.23-3.19-3.19,1.44-3.19,3.19Z"/>
    </g>
  </g>
</svg>