<svg xmlns="http://www.w3.org/2000/svg" viewBox="0 0 579.43 130.84"><title>アセット 44</title><g id="レイヤー_2" data-name="レイヤー 2"><g id="contents"><path d="M60,.6c1.12,0,2-.12,2.84-.12,1,0,1,.4,1,1.68V4c0,1.28-.08,1.68-1,1.68-.6,0-1.2-.08-1.76-.08H55.61c-1.32,0-1.36.68-1.36,1.8V30.81c0,2,.08,4,.08,6.08,0,1.28-.16,1.4-1.48,1.4H50.53c-1,0-1.28-.12-1.28-1.28,0-2.08.08-4.12.08-6.2V6.32c0-1.44-.12-2.84-.12-4.28S49.85.52,51,.52c.84,0,1.64.08,2.44.08Z" style="fill:#3b241a"/><path d="M84.17,16.08c0-.88,0-1-.84-1.6-.44-.32-1.24-1-1.24-1.56,0-.4.52-.88.76-1.16A30.27,30.27,0,0,0,89,1.48c.08-.32.16-.6.56-.6.2,0,3.16,1,3.64,1.12,1.44.44,2.12.64,2.12,1.12,0,.32-.2.44-.48.52s-.48.2-.48.48.28.32.76.32h1.16c.32,0,.88,0,1.24,0a5.42,5.42,0,0,1,.8-.08c.68,0,1,.4,1.44.92.32.36.76.8.76,1.28a14.79,14.79,0,0,1-1.6,3.32,1.55,1.55,0,0,0-.32.84c0,.36.28.52.6.6.88.2,1.12.72,1.12,1.56s-.08,1.6-.08,2.44v4c0,1.08.08,2.08.08,2.92,0,1.32-1,1.45-1.72,1.53s-.92.56-.92,1.2v4.56c0,1.44,0,1.92,1.56,1.92h12.21a2.68,2.68,0,0,0,1.76-.4,2.34,2.34,0,0,0,.48-1.12.29.29,0,0,0-.32-.32,23.29,23.29,0,0,1-3.53.32c-2,0-2.44-.16-2.72-.88a7.88,7.88,0,0,1-.44-2.6c0-1.2.24-2,1.36-2,.68,0,1.37.12,2,.12,1.08,0,1.28-.08,1.57-1.69a86,86,0,0,0,.48-9.24c0-1.24-.12-1.4-1.36-1.4s-1.36.6-1.45,1.48a34,34,0,0,1-4,13.69,17.33,17.33,0,0,1-1.64,2.44,1.21,1.21,0,0,1-.88.4c-1.12,0-4-2-4-3.16a1.49,1.49,0,0,1,.4-.88,20.33,20.33,0,0,0,4-8.61,27.49,27.49,0,0,0,.64-4.32.88.88,0,0,0-1-1c-.24,0-.48,0-.76,0-.92,0-1-.36-1-1.44V8.56c0-1.12.08-1.52,1-1.52h.84c.76,0,1-.56,1-1.2V5.48c0-1.52-.08-3.32-.08-3.6,0-.64.36-.76.92-.76s4.89.24,5.28.36a.54.54,0,0,1,.49.56c0,.24-.25.4-.49.52-.51.28-.55.56-.55,1.72V5.84c0,.88.35,1.28,1.28,1.28h.43c1.21,0,2.41-.12,3.61-.12,2.48,0,2.88.88,2.88,3.2,0,4-.28,13.32-1.6,16.85a.87.87,0,0,0-.08.4c0,.48.44.64.8.76.92.28,2.28,1,2.28,2.08a12.22,12.22,0,0,1-1.92,5,4.29,4.29,0,0,1-3.8,1.56H97.61c-3.56,0-5.24-.24-5.24-4.24,0-.72,0-1.44,0-2.16V26.53c0-.44,0-.6-.32-.6a.86.86,0,0,0-.84.76,27.21,27.21,0,0,1-3.52,9.12c-.32.48-1,1.6-1.68,1.6-1.08,0-4-2-4-2.92,0-.2.2-.4.36-.56,1.92-1.8,4.08-6.8,4.08-9.44,0-.76-.48-.72-1.08-.8a1.4,1.4,0,0,1-1.36-1.53c0-1,.08-1.92.08-2.88Zm5.24,3.2a.66.66,0,0,0,.64-.64V16.28a.63.63,0,0,0-.64-.64h-.12a.63.63,0,0,0-.64.64v2.36a.66.66,0,0,0,.64.64Zm3,5.09a.63.63,0,0,0-.64-.64H90.29c-.24,0-.48,0-.48.2s.36.32,1,.52c.32.08.64.2,1,.32a.74.74,0,0,0,.28.08c.12,0,.28-.08.28-.36ZM92.17,8.92c-1.32,0-2,1.92-2,2,0,.36.32.4.76.4h.4c.8,0,1-.08,1.48-.84a3.3,3.3,0,0,0,.56-1.28c0-.28-.28-.28-.76-.28Zm2.64,10.36a.66.66,0,0,0,.64-.64V16.28a.63.63,0,0,0-.64-.64h-.2a.63.63,0,0,0-.64.64v2.36a.66.66,0,0,0,.64.64Z" style="fill:#3b241a"/><path d="M146.22,19.2c.88,0,1.8,0,2.72,0,2.2,0,2.24,1.32,2.24,3.08a41.68,41.68,0,0,1-1.24,10.45c-.4,1.44-1,3.2-2.44,3.92a9.68,9.68,0,0,1-4.36.88c-1.6,0-2.2-.12-2.56-1.4a10.89,10.89,0,0,1-.44-3c0-.8.08-1.84,1.12-1.84.52,0,1.4.08,1.92.08,1.6,0,1.76-.16,2-1.32a23.93,23.93,0,0,0,.48-4.44c0-.92-.48-1.12-1.32-1.12a.9.9,0,0,0-.84.56c-.2.44-1.28.44-1.72.44-.92,0-3.4,0-3.4-1.33,0-.27.08-.83.12-1.16.28-2.28,1-10,1.08-11.12.12-1.56,1.12-1.6,2.84-1.6.76,0,1.52,0,2.28,0,.92,0,1.32-.52,1.32-1.08V8.52A1.12,1.12,0,0,0,144.9,7.4h-2.44c-.84,0-1.76.08-2.2.08-1,0-1-.4-1-1.64V3.92c0-1.6.08-1.92,1.08-1.92.48,0,1.08.12,2.16.12h4.36c.84,0,1.68-.12,2.56-.12s1.92.16,1.92,1.4c0,1.44-.08,2.88-.08,4.32v4c0,1.28.08,2.52.08,3.76,0,1-.44,1.08-1.88,1.08H148.1c-1.52,0-1.88,0-2.12-.6a.52.52,0,0,0-.52-.36c-.52,0-.88.12-1,.72,0,.36-.16,1.88-.16,2.16a.73.73,0,0,0,.72.76ZM158.7,31.09c1.08-.08,1.44-.28,1.44-1.44V28.29a.63.63,0,0,0-.64-.64h-.24c-.44,0-.88.08-.88.64v.16c0,.68-.4.76-1.08.76h-2.44c-1.48,0-1.76-.12-1.76-1.28,0-.64,0-2.28,0-3.44V19.8c0-1,0-2,0-3.08,0-1.36.68-1.44,1.84-1.44s2.56,0,3.84,0h.36a1,1,0,0,0,1-1c0-.72,0-1.56-.84-1.56l-4.84.4a.8.8,0,0,0-.48.4c-.16.16-.32.4-.6.4s-.52-.4-.6-.72c-.12-.52-.8-4.56-.8-4.92s.16-.52.56-.52h.32c.36,0,1.24,0,1.84,0,.8,0,1.16-.12,1.48-.84a34.18,34.18,0,0,0,1.6-5c.12-.56.24-1,.6-1s3,.56,3.56.68c1.64.36,2.8.6,2.8,1.16,0,.4-.36.56-1,.72a.64.64,0,0,0-.52.36c-.08.12-.24.4-.44.76a24.78,24.78,0,0,0-1.4,2.56c0,.36.32.48.6.48.84,0,2.6-.08,3.64-.12.56,0,.76-.16.76-.48a5.79,5.79,0,0,0-.76-1.48,1.67,1.67,0,0,1-.32-.72c0-.84,3.44-1.6,4.12-1.6a1,1,0,0,1,1,.56,37.52,37.52,0,0,1,2,3.76,26.63,26.63,0,0,1,1.92,4.72c0,1.36-3.36,2.12-4,2.12-.84,0-1-.56-1.28-1.28s-.32-1.08-1.08-1.08c-.12,0-1.6.12-1.8.16s-.4,0-.4.12.08.12.16.12c.24,0,.48.16.48.4s-.4.56-.64.76a.83.83,0,0,0-.36.76.93.93,0,0,0,.92.92h.52c1.28,0,2.6,0,3.88,0,1,0,1.8.08,1.8,1.36,0,1,0,2.12,0,3.16v3.32c0,1.09,0,2.13,0,3.17,0,1.24-.64,1.4-1.72,1.4-1.32,0-2.64,0-4,0h-.88a.66.66,0,0,0-.64.64v1.4a.82.82,0,0,0,.84.92c.36,0,.68-.08.68-.52a1.07,1.07,0,0,0-.16-.52.68.68,0,0,1,0-.28c0-.8,3.8-1.32,4.4-1.32.76,0,1.08,1,2.16,3.8a26.31,26.31,0,0,1,1.2,3.84c0,1.12-4,1.84-4.4,1.84-.8,0-.92-.76-1.08-1.44a1,1,0,0,0-1-.88c-.12,0-1.08.12-2.88.32-3.84.4-10.16,1-11.16,1.12-.52,0-.64.16-.8.56s-.28.56-.56.56c-.56,0-.68-.64-1-2.52-.16-.92-.56-3.2-.56-3.4,0-.36.2-.4,2.08-.44C154.46,31.29,157.38,31.17,158.7,31.09ZM159.1,20a.76.76,0,0,0-.76.76V22.2a.76.76,0,0,0,.76.76h.28a.76.76,0,0,0,.76-.76V20.72a.76.76,0,0,0-.76-.76Zm7.12,0a.77.77,0,0,0-.8.76V22.2a.8.8,0,0,0,.8.76h.4a.8.8,0,0,0,.8-.76V20.72a.8.8,0,0,0-.8-.76Z" style="fill:#3b241a"/><path d="M222.27,9.4a14.08,14.08,0,0,1,4.24,10.28,15,15,0,0,1-8,13.29c-1,.56-3.64,1.8-4.76,1.8-1.4,0-3.52-3.68-3.52-4.8,0-.36.36-.52,1.52-.8,4.64-1.2,8.44-4.12,8.44-9.25,0-6.28-4.8-8.76-6-8.76-.68,0-.76.72-.8,1.44-.44,5.56-2,12.37-5.72,16.77-1.48,1.8-3.4,3.32-5.8,3.32a7.13,7.13,0,0,1-6.09-4.12,13.55,13.55,0,0,1-1.32-6A17,17,0,0,1,211.47,5.32,14.83,14.83,0,0,1,222.27,9.4ZM200.38,22.48c0,1,.24,3.89,1.65,3.89,1,0,2.32-2.64,2.72-3.49a36.15,36.15,0,0,0,2.52-10.24c0-.32-.16-.6-.52-.6C205.59,12,200.38,15.72,200.38,22.48Z" style="fill:#3b241a"/><path d="M253.59,29.09c-.32,0-.56.12-.56.48,0,.6,0,1.2,0,1.8,0,.88-.24,1-1.6,1h-2.76c-.8,0-1.2-.08-1.2-.92,0-1.72.08-3.44.08-5.16V9.76c0-1.24,0-2.52,0-3.76s.44-1.84,1.76-1.84c1,0,2,.08,3,.08h2.6c1,0,2-.08,3-.08,1.2,0,1.8.4,1.8,1.88,0,1.24-.08,2.48-.08,3.72V24.85c0,1.72.08,3.44.08,5.16,0,.84-.28.92-1.36.92H256c-1,0-1.28-.08-1.28-.92v-.44a.46.46,0,0,0-.48-.48Zm.48-15a.76.76,0,0,0,.76-.76V10.2a.76.76,0,0,0-.76-.76h-.32a.76.76,0,0,0-.76.76v3.08a.76.76,0,0,0,.76.76Zm-.32,4.8a.77.77,0,0,0-.76.8v3.48a.78.78,0,0,0,.76.81h.32a.78.78,0,0,0,.76-.81V19.64a.79.79,0,0,0-.76-.8ZM276,5.52c1.44,0,2.92-.08,4.32-.08.92,0,1,.36,1,1.32V8.64c0,1.24-.08,1.6-1,1.6-1.48,0-2.92-.12-4.36-.12h-1.08a1,1,0,0,0-1,1v.6a.77.77,0,0,0,.79.76h1.21c1.72,0,3.48-.08,5.2-.08,1.2,0,1.32.32,1.32,1.56v1.92c0,1.24-.12,1.6-1.28,1.6-.52,0-1,0-1.56,0-.12,0-.36,0-.36.24,0,0,0,.08,0,.12,0,.28-.36.36-.56.48-.36.16-.48.4-.48.92a.8.8,0,0,0,.84.76c.6,0,1.24,0,1.84,0,1.08,0,1.16.4,1.16,1.6v1.25c0,2.36-.08,2.44-1.2,2.44-.36,0-.88,0-1.56,0a1.13,1.13,0,0,0-1.12,1.24v4c0,.88.08,1.76.08,2.64,0,4-3.2,4.28-6.45,4.28-2.44,0-3-.16-3.32-1.44a12.34,12.34,0,0,1-.32-2.72V33c0-.24-.12-.6-.44-.6a.94.94,0,0,0-.52.2,3.56,3.56,0,0,1-1.44.64c-.56,0-1.2-1.08-2.28-2.68A19.81,19.81,0,0,0,262,28.49c-.16-.2-.36-.36-.36-.6,0-.56,1.76-1.92,2.24-2.24.12-.08.32-.16.32-.32s-.16-.2-.28-.2c-.44,0-.88,0-1.32,0-1.08,0-1.16-.44-1.16-1.8V21.48c0-1.24.12-1.6,1.16-1.6,1.44,0,2.84.08,4.24.08h5.09a.79.79,0,0,0,.83-.8,10.33,10.33,0,0,0-.12-1.16.63.63,0,0,0-.71-.64h-4.85c-1.76,0-3.48.08-5.2.08-1.2,0-1.36-.32-1.36-1.52V14c0-1.28.12-1.6,1.36-1.6,1.72,0,3.44.08,5.2.08h.08a1,1,0,0,0,1-1v-.28a1,1,0,0,0-1-1c-1.2,0-2.4.12-3.64.12-.92,0-1-.32-1-1.56V6.92c0-1.08.08-1.48,1-1.48,1.4,0,2.4.12,3.12.12,1.12,0,1.52-.28,1.52-1.72A13.76,13.76,0,0,0,268.07,2c0-.08,0-.24,0-.32,0-.48.44-.52.8-.52.8,0,4.17.28,5.05.36.28,0,.87.08.87.52,0,.24-.23.4-.43.52-.36.28-.4.76-.4,1.84,0,.56.32,1.12,1.32,1.12Zm-3.21,20.65a1.12,1.12,0,0,0-1.12-1.12h-4.16c-.44,0-1,0-1,.52a1,1,0,0,0,.36.64c.52.68,2.56,3.48,2.56,4.2,0,.24-.16.4-.16.64,0,.44.4.48,1,.48h1.12c1.36,0,1.4-.2,1.4-2.44Z" style="fill:#3b241a"/><path d="M309.2,16a1.09,1.09,0,0,0-1.12,1.12V30.21c0,2.08.12,4.12.12,6.16,0,1.08-.44,1.16-1.84,1.16h-2.28c-1.32,0-1.72-.08-1.72-1.16,0-2,.12-4.08.12-6.16V8.68c0-1.44-.08-2.84-.08-4.28s.56-2.2,2.12-2.2c1.28,0,2.56.08,3.88.08h4.12c1.28,0,2.56-.08,3.8-.08s2.2.28,2.2,2.2c0,1.44-.08,2.84-.08,4.28v1.4c0,1.24.08,2.52.08,3.8,0,1.56-.6,2.2-2.12,2.2-1.32,0-2.6-.08-3.88-.08Zm3.64-9.12a.5.5,0,0,0-.52-.52H308.6a.5.5,0,0,0-.52.52v.2a.5.5,0,0,0,.52.48h3.72a.5.5,0,0,0,.52-.48Zm0,4.44a.63.63,0,0,0-.64-.64h-3.48a.66.66,0,0,0-.64.64v.12a.66.66,0,0,0,.64.64h3.48a.66.66,0,0,0,.64-.64ZM311.6,23c0-.92-.08-1.84-.08-2.76,0-1.52,1.24-1.6,2.44-1.6s2.36,0,3.52,0h3.76c1.16,0,2.36,0,3.52,0s2.44.08,2.44,1.56c0,.92-.08,1.84-.08,2.8v6.85c0,1.24.12,3,.12,3.72s-.44.88-1.6.88h-2.28c-1.32,0-1.6-.08-1.6-1a.7.7,0,0,0-.8-.72h-3.28c-.56,0-.72.32-.72.6v.2c0,.84-.44.92-1.72.92h-2.08c-1.2,0-1.68-.08-1.68-.88s.12-2.44.12-3.72Zm5.24.65a.41.41,0,0,0,.44.43h4.12a.45.45,0,0,0,.48-.43v-.25a.46.46,0,0,0-.48-.44h-4.12a.45.45,0,0,0-.44.44Zm0,4.36a.53.53,0,0,0,.52.52h4a.53.53,0,0,0,.52-.52v-.16a.53.53,0,0,0-.52-.52h-4a.5.5,0,0,0-.52.52ZM331,17.12A1.07,1.07,0,0,0,329.88,16h-3.2c-1.24,0-2.52.08-3.8.08s-2.16-.28-2.16-2.2c0-1.28.08-2.56.08-3.8V8.68c0-1.4-.08-2.84-.08-4.28s.56-2.2,2.12-2.2c1.28,0,2.56.08,3.84.08h4c1.28,0,2.56-.08,3.8-.08s2.2.28,2.2,2.2c0,1.44-.12,2.84-.12,4.28V28.93c0,1.08.08,2.12.08,3.2A5.34,5.34,0,0,1,335.4,36c-1.16,1.08-3.4,1.44-5,1.44-2,0-3-.2-3-4.36,0-.68.08-1.28.92-1.28.56,0,1.32.16,1.88.16s.76-.56.76-1.24Zm0-10.24a.47.47,0,0,0-.48-.52h-3.6a.5.5,0,0,0-.52.52v.2a.5.5,0,0,0,.52.48h3.6a.46.46,0,0,0,.48-.48Zm0,4.44a.61.61,0,0,0-.64-.64H327a.63.63,0,0,0-.64.64v.12a.63.63,0,0,0,.64.64h3.32a.63.63,0,0,0,.64-.64Z" style="fill:#3b241a"/><path d="M368.69,4.08c0-.4.08-.76.56-.76s4.92,1.08,5.68,1.28c.32.08,1,.24,1,.64s-.28.4-.64.56c-.64.32-.8,1.4-1,2.52l-.08.56c0,.24-.12.68-.12.8,0,.92.84,1,1.36,1a7,7,0,0,1,3.32.88c2.84,1.64,3.36,4,3.36,6.84,0,3.52-.76,9.37-2.52,12.45s-4.8,4.48-8.44,4.48c-1.16,0-1.72-.16-2.08-1.12a15.88,15.88,0,0,1-.88-4c0-.52.16-1,.76-1s1.12,0,1.68,0c2.36,0,3-.16,3.8-1.68,1.16-2.16,1.8-6.45,1.8-8.89,0-1.84-.28-2.44-1.84-2.44-1.32,0-1.68.16-2,1.48A53.09,53.09,0,0,1,366.29,31a27,27,0,0,1-2.85,3.88.88.88,0,0,1-.68.28c-.92,0-4.72-2.12-4.72-3.4,0-.4.36-.8,1-1.44a31.14,31.14,0,0,0,7-11,2.22,2.22,0,0,0,.21-.68.56.56,0,0,0-.64-.6,26,26,0,0,0-3.41,1.12,1.92,1.92,0,0,1-.8.28c-.64,0-1.12-1.56-1.48-3.12a21.7,21.7,0,0,1-.52-2.76c0-.52.28-.64,1.48-.76a43.78,43.78,0,0,0,6.13-1c1-.2,1.28-.52,1.4-1.6a50.49,50.49,0,0,0,.32-5.52ZM385,8a29.43,29.43,0,0,1,3.24,4c.6.84,3.28,4.76,3.28,5.52,0,1.32-3.64,3.4-4.76,3.4-.44,0-.64-.36-1-1.08a33.81,33.81,0,0,0-5.56-9,1.27,1.27,0,0,1-.44-.72c0-.84,3.08-2.88,4-2.88A1.82,1.82,0,0,1,385,8Zm3.92-3.28c1,1,1.84,1.92,1.84,2.28,0,.8-1.88,2.28-2.36,2.28-.16,0-.4-.24-.6-.48a42.22,42.22,0,0,0-2.88-3.12c-.24-.2-.44-.4-.44-.6,0-.56,2-2.08,2.48-2.08C387.21,3,388.17,4,388.89,4.76Zm2.92-4c.56.52,2.88,2.68,2.88,3.24,0,.8-1.92,2.32-2.36,2.32-.24,0-.48-.32-.6-.52a42.27,42.27,0,0,0-2.92-3.08c-.16-.16-.44-.4-.44-.64,0-.56,2-2,2.48-2C391.13,0,391.69.6,391.81.72Z" style="fill:#3b241a"/><path d="M428.29,3c.48.12.92.28.92.52s-.28.4-.76.72a7.71,7.71,0,0,0-.72,2.24,1.8,1.8,0,0,0-.08.32c0,.12,0,.28,0,.44a.56.56,0,0,0,.48.56,4.16,4.16,0,0,0,.88-.24,2.1,2.1,0,0,1,.68-.16c.36,0,.48.2.56.6a38.7,38.7,0,0,1,.4,4.16c0,.92-.56,1.08-3.68,1.64-1.4.24-1.44.52-1.92,1.8-.68,1.84-1.44,3.64-2.24,5.44-1,2.37-2.12,4.77-3.36,7.05-.32.56-.72,1.2-1,1.68s-.36.6-.88.6c-1.36,0-5.2-1.68-5.2-2.72a6.94,6.94,0,0,1,.84-1.6c.8-1.36,5.16-9.33,5.16-10.33a.63.63,0,0,0-.68-.6c-.24,0-1,.08-1.32.12-.44,0-1.28.12-1.76.12-.84,0-1.2-.36-1.48-3.76,0-.32-.12-1-.12-1.4,0-.56.32-.72.8-.72.68,0,1.64.08,2.52.08,3.64,0,4.16-.08,4.56-1.12a26.68,26.68,0,0,0,1-6.2c0-.32,0-.64.28-.64C422.69,1.56,427.49,2.76,428.29,3Zm5.37,12.56c.67.16,1,.44,1,1.16,0,.4-.08,1.12-.08,1.84,0,2,.16,4,.28,5.93,0,1,.23,1.2,1.16,1.56,1.12.44,6.16,2.8,6.16,3.92,0,.88-2.24,4.16-3.52,4.16-.32,0-.88-.36-1.76-1-.24-.2-.48-.4-.76-.6a.91.91,0,0,0-.64-.24.89.89,0,0,0-.88.68,7.1,7.1,0,0,1-1.37,1.88,7,7,0,0,1-4.84,1.52c-3.8,0-7.76-1.84-7.76-6.16,0-4,3.52-5.72,7.08-5.72h.32a.89.89,0,0,0,1-1c0-.67-.36-4.24-.48-5.44a14.9,14.9,0,0,1-.16-1.88c0-.84.32-1.16,1.2-1.16A23.62,23.62,0,0,1,433.66,15.52Zm-7.05,14.61a1.35,1.35,0,0,0,1.48,1.2c.92,0,1.24-.48,1.24-1.32,0-.52,0-1-1.2-1C427.45,29.05,426.61,29.33,426.61,30.13Zm13.77-19.37c.92.84,3.44,3.24,3.44,4.08,0,1.24-3.24,4-4.24,4-.48,0-.84-.6-1.12-1a25.72,25.72,0,0,0-5-5.16c-.33-.24-.73-.52-.73-.84,0-.64,2.56-3.92,3.69-3.92C437.18,7.88,439.74,10.16,440.38,10.76Z" style="fill:#3b241a"/><path d="M473.26,9.08c.4.08.84.2.84.56,0,.16-.12.28-.4.48a2.83,2.83,0,0,0-.76,1.76,29.48,29.48,0,0,0-.52,5.6,18.69,18.69,0,0,0,1.44,7.69c.32.68,1,2,1.92,2s1.84-1.64,2.2-2.28c.28-.48.64-1,1.24-1,1.2,0,4.16,2.28,4.16,3.24s-1.84,3.08-2.52,3.84c-1.4,1.56-2.8,2.88-5,2.88-2.68,0-5-2-6.44-4-3-4.16-3.24-10-3.24-14.93,0-.76.16-5.6.2-6.16s.24-.64.68-.64S472.26,8.88,473.26,9.08ZM487.9,7.8c1.08,0,4.24,2.48,6,5.32a21.77,21.77,0,0,1,3,8.2c.08.64.2,1.6.2,2.08,0,.85-.2,1.21-1,1.45a13.81,13.81,0,0,1-3.8.68c-1.48,0-1.52-.52-1.64-2.05-.36-4.8-2-8.6-5.84-11.32a.82.82,0,0,1-.4-.68C484.38,10.56,486.7,7.8,487.9,7.8Z" style="fill:#3b241a"/><path d="M520.62,38.21c-1.12,0-2,.12-2.84.12-1,0-1-.4-1-1.68V34.77c0-1.28.08-1.68,1-1.68.6,0,1.2.08,1.76.08H525c1.32,0,1.36-.68,1.36-1.8V8c0-2-.08-4-.08-6.08,0-1.28.16-1.4,1.48-1.4h2.32c1,0,1.28.12,1.28,1.28,0,2.08-.08,4.12-.08,6.2V32.49c0,1.44.12,2.84.12,4.28s-.64,1.52-1.8,1.52c-.84,0-1.64-.08-2.44-.08Z" style="fill:#3b241a"/><path d="M7.4,96.67a28.33,28.33,0,0,1,3.24-.32c1.08,0,1.16.08,1.44,3.08a30.85,30.85,0,0,0,.68,4.84c.12.48.32,1,.92,1,.76,0,4.32-2.12,5.2-2.64a14.69,14.69,0,0,1,3.16-1.6c.44,0,1.28,1.24,1.84,2.16.45.72,1.65,2.69,1.65,3.45,0,.44-.45.6-1.28.88-.17.08-.37.12-.57.2a68.71,68.71,0,0,0-12.6,6.32c-1.92,1.2-4.68,3-4.68,5.08,0,2.68,5.08,2.68,6.92,2.68a50.27,50.27,0,0,0,6.08-.32c.84-.12,3.6-.56,4.24-.76.12,0,.28,0,.4,0,.41,0,.52.68.56,1,.12,1.16.16,2.48.16,3.64s0,1.56-1.08,1.84c-1.84.48-8.76.68-11,.68-3.16,0-5.92-.2-8.72-1.8a7.84,7.84,0,0,1-4-6.84c0-4,2.84-7.28,6-9.32.6-.36,1-.56,1-1.24a3.36,3.36,0,0,0-.24-1c-.32-1.08-.6-2.2-.88-3.37a58,58,0,0,0-1.68-6.12A2.11,2.11,0,0,1,4,97.75C4,97.27,4.52,97,7.4,96.67Z" style="fill:#3b241a"/><path d="M56.69,102.35c.4.08.84.2.84.56,0,.16-.12.28-.4.48a2.83,2.83,0,0,0-.76,1.76,29.66,29.66,0,0,0-.52,5.61,18.61,18.61,0,0,0,1.44,7.68c.32.68,1,2,1.92,2s1.84-1.64,2.2-2.28c.28-.48.64-1,1.24-1,1.2,0,4.16,2.28,4.16,3.24s-1.84,3.08-2.52,3.84c-1.4,1.56-2.8,2.88-5,2.88-2.68,0-5-2-6.44-4-3-4.16-3.24-10-3.24-14.92,0-.76.16-5.61.19-6.17a.6.6,0,0,1,.69-.64C51,101.31,55.69,102.15,56.69,102.35Zm14.64-1.28c1.08,0,4.24,2.48,6,5.33a21.77,21.77,0,0,1,3,8.2c.08.64.2,1.6.2,2.08,0,.84-.2,1.2-1,1.44a13.81,13.81,0,0,1-3.8.68c-1.48,0-1.52-.52-1.64-2-.36-4.8-2-8.6-5.84-11.32a.84.84,0,0,1-.4-.69C67.81,103.83,70.13,101.07,71.33,101.07Z" style="fill:#3b241a"/><path d="M126.18,113.84c0,6.72-5.16,12.52-10.89,15.52a8.62,8.62,0,0,1-2.88,1.08c-1.72,0-4.16-4.2-4.16-4.92,0-.4.4-.56.72-.64a17.83,17.83,0,0,0,7.41-4,9.07,9.07,0,0,0,3.36-6.64c0-2.64-2-4.24-4.53-4.24-3.08,0-5.92,1.68-8.28,3.52a1.38,1.38,0,0,1-.84.4c-1.32,0-3.12-4.12-3.12-5.44,0-.64.64-1,1.12-1.2,3.2-1.6,7.92-3.17,11.53-3.17C121.58,104.15,126.18,107.56,126.18,113.84ZM110.33,95.51c2.56,1.24,7.57,1.88,10.45,2.08,1,.08,1.32.16,1.32.68,0,.36-.16,1.36-.32,2.36-.2,1.32-.44,3-1.6,3a59.23,59.23,0,0,1-9.65-1.8c-2.52-.68-3.2-.88-3.2-1.52a18.9,18.9,0,0,1,1.16-3.92c.16-.44.4-1.12,1-1.12A2.09,2.09,0,0,1,110.33,95.51Z" style="fill:#3b241a"/><path d="M156,109.2a1.17,1.17,0,0,0-1.12,1.12v13.2c0,2,.12,4.08.12,6.16,0,1-.4,1.12-1.64,1.12h-2.52c-1.28,0-1.68-.08-1.68-1.12,0-2.08.08-4.12.08-6.16V102c0-1.44-.08-2.88-.08-4.28,0-1.56.6-2.24,2.16-2.24,1.32,0,2.6.12,3.88.12h3.68c1.28,0,2.56-.12,3.84-.12s2.2.36,2.2,2.24c0,1.4-.08,2.84-.08,4.28v.8c0,1.44.08,2.89.08,4.29,0,1.6-.56,2.24-2.16,2.24-1.28,0-2.56-.12-3.88-.12Zm3.36-9.13a.53.53,0,0,0-.52-.52h-3.44a.53.53,0,0,0-.52.52v.12a.53.53,0,0,0,.52.52h3.44a.5.5,0,0,0,.52-.52Zm0,4.45a.51.51,0,0,0-.52-.53h-3.44a.53.53,0,0,0-.52.53v.19a.52.52,0,0,0,.52.52h3.44a.52.52,0,0,0,.52-.52Zm5.84,20.16c-.52,0-.92.24-.92.8v.28c0,.92-.36,1-1.72,1h-2.08c-1.2,0-1.68-.08-1.68-.88s.12-2.44.12-3.72v-5.44c0-.92-.08-1.88-.08-2.8,0-1.52,1.24-1.6,2.44-1.6s2.36.08,3.52.08h2.44c1.2,0,2.36-.08,3.56-.08s2.4.08,2.4,1.6c0,.88-.08,1.8-.08,2.8v5.44c0,2.68,0,3.12.88,3.12h.2c.72,0,1.4,0,2.12,0,1,0,1-.68,1-1.68V110.32a1.12,1.12,0,0,0-1.12-1.12h-2.92c-1.28,0-2.56.12-3.84.12s-2.2-.36-2.2-2.24c0-1.4.08-2.85.08-4.29V102c0-1.44-.08-2.88-.08-4.28,0-1.6.56-2.24,2.16-2.24,1.28,0,2.6.12,3.88.12H177c1.28,0,2.56-.12,3.84-.12s2.2.4,2.2,2.24c0,1.4-.08,2.84-.08,4.28v19.29c0,1.28.08,2.6.08,3.92,0,1.76-.24,3.16-1.76,4.24a10,10,0,0,1-5.48,1.32c-1.72,0-2.32-.32-2.64-3.2a.81.81,0,0,0-.8-.84s-.44,0-.84,0h-1.2c-1.92,0-2.32,0-2.32-.92a3.1,3.1,0,0,1,0-.36.78.78,0,0,0-.88-.8Zm2.92-6.56A1.14,1.14,0,0,0,167,117h-1.72a1.14,1.14,0,0,0-1.12,1.12V119a1.14,1.14,0,0,0,1.12,1.12H167A1.12,1.12,0,0,0,168.1,119Zm9.2-18.05a.5.5,0,0,0-.52-.52H173.3a.53.53,0,0,0-.52.52v.12a.53.53,0,0,0,.52.52h3.48a.48.48,0,0,0,.52-.52Zm0,4.52a.48.48,0,0,0-.52-.52H173.3a.53.53,0,0,0-.52.52v.12a.52.52,0,0,0,.52.52h3.48a.5.5,0,0,0,.52-.52Z" style="fill:#3b241a"/><path d="M234.35,95.43c1.28,0,2.56-.08,3.84-.08.84,0,.92.32.92,1.32v2c0,.88-.08,1.2-.92,1.2-1.2,0-2.52-.08-3.84-.08h-2c-.76,0-.88,1-.88,1.08,0,.48.48.56.84.56,1.2,0,2.36,0,3.56,0s2,.28,2,1.68c0,1-.08,2-.08,3v8.24c0,1,.08,1.92.08,2.92,0,1.4-.76,1.72-2,1.72-.4,0-.76,0-1.12,0-.12,0-.28,0-.28.2,0,.48,3.76,1.84,4.36,2,.28.08.64.16.64.52,0,.72-1.08,2.12-1.6,2.68a.47.47,0,0,0-.16.28c0,.16.2.16.32.16h.72c.64,0,.8.52.8,1.08,0,1.76-.56,3.76-1.44,4.08a9,9,0,0,1-2.56.24c-5.12,0-10.2,0-15.32-.08-6.24-.08-9-.32-11-2.48-.08-.08-.2-.24-.32-.24-.29,0-.41.4-.45.64-.47,2.8-.84,2.8-1.32,2.8-1,0-4.28-.48-4.28-1.76a3.91,3.91,0,0,1,.24-.92,38.75,38.75,0,0,0,1.48-9.8v-.2c0-.6,0-.8.64-.8a39.81,39.81,0,0,1,4.33.48c.28,0,.72.16.72.52s-.36.6-.65.76-.19,1-.19,1.36c0,.84.68,2.12,1,2.12.2,0,.24-.12.24-.6V117a.92.92,0,0,0-1-1H208.5c-1.28,0-2.56.08-3.84.08-1.08,0-1.16-.4-1.16-1.48v-1.76c0-1,.08-1.48,1.08-1.48,1.32,0,2.64.08,3.92.08h7.57c1.32,0,2.64-.08,4-.08.92,0,1.08.44,1.08,1.4v1.92c0,1-.16,1.4-1.16,1.4s-2.08-.08-3.12-.08c-.6,0-1,.2-1,.84a.79.79,0,0,0,.88.84c.92,0,1.88-.08,2.8-.08.72,0,.8.32.8,1.28v1.16c0,.4.12.92.64.92s3.92-1.56,3.92-1.92c0-.2-.2-.24-.36-.24s-.52,0-.8,0c-1.28,0-2-.36-2-1.76,0-1,.12-1.92.12-2.88V106c0-1-.12-2-.12-2.93,0-1.32.68-1.72,1.92-1.72h1.48c.72,0,1-1,1-1.16,0-.4-.44-.44-1-.44h-.84c-1,0-1.92.08-2.88.08-.8,0-.88-.32-.88-1.2v-2c0-1,.08-1.28.88-1.28,1.28,0,2.6.08,3.88.08Zm-20.36,0c1.08,0,2.12-.08,3.2-.08s2.28.12,2.28,1.6c0,.88-.08,1.8-.08,2.76v6.13c0,1,.08,1.88.08,2.76,0,1.48-1.08,1.6-2.28,1.6s-2.12-.08-3.2-.08h-2.84c-1.08,0-2.16.08-3.2.08-1.2,0-2.28-.12-2.28-1.6,0-.92.07-1.84.07-2.76V99.67c0-.92-.07-1.84-.07-2.76,0-1.48,1.08-1.6,2.28-1.6,1,0,2.12.08,3.2.08Zm-3.48,5.08c0,.28.2.44.44.44h3.32a.45.45,0,0,0,.48-.44v-.24a.45.45,0,0,0-.48-.44H211a.44.44,0,0,0-.44.44Zm0,4.65a.5.5,0,0,0,.52.52h3.2a.5.5,0,0,0,.52-.52V105a.49.49,0,0,0-.52-.48H211a.47.47,0,0,0-.52.48Zm10.4,18.8c-.08-.12-.44-.56-.52-.72-.56-.84-.6-.92-3.32-.92a1.18,1.18,0,0,0-1.2,1.28c0,.88.4,1.36,1.32,1.36s1.84,0,2.76,0h.56c.28,0,.76,0,.76-.4C221.27,124.24,221.07,124.08,220.91,123.92Zm7.8-5.08c-.36,0-.88,0-.88.48,0,.32.56,1,.76,1.2s.84.88.84,1.32a.4.4,0,0,1-.44.36.75.75,0,0,1-.32-.08,2.55,2.55,0,0,0-.28-.08c-.08,0-.24.16-.32.2a33.44,33.44,0,0,1-3.32,1.84c-.4.2-.88.36-.88.6s.28.24.44.24h6.12c1.56,0,3.12,0,4.68,0,.12,0,.44,0,.44-.24s-.6-.44-.8-.52c-.68-.32-4.36-2-4.36-2.72,0-.48.88-1.44,1.2-1.8.12-.12.32-.32.32-.48s-.28-.28-.44-.28Zm3.24-12.4a.44.44,0,0,0,.44-.44v-.2a.46.46,0,0,0-.44-.49h-4.24a.46.46,0,0,0-.44.49v.2a.42.42,0,0,0,.44.44Zm-4.24,3a.44.44,0,0,0-.44.44v.2a.48.48,0,0,0,.44.48H232a.48.48,0,0,0,.44-.48v-.2a.42.42,0,0,0-.44-.44Zm0,4.32a.5.5,0,0,0-.48.52v.08a.47.47,0,0,0,.48.52h4.12a.5.5,0,0,0,.52-.52v-.08a.53.53,0,0,0-.52-.52Z" style="fill:#3b241a"/><path d="M277.31,96c.73.32,1.24.6,1.24,1s-.43.44-.72.52A2.59,2.59,0,0,0,276.75,99c0,.32.21.44.48.44a18.16,18.16,0,0,0,3.25-.88,3.55,3.55,0,0,1,1.12-.28c.88,0,1.08.84,1.24,1.56a17.59,17.59,0,0,1,.48,3.24c0,.6-.36.76-2.56,1.16s-4.93.88-7.41,1.17c-1.28.16-1.36,1-1.36,1.08,0,.2.2.28.36.28a1.27,1.27,0,0,0,.36-.12,10,10,0,0,1,3.4-.6,5.87,5.87,0,0,1,2.89.64,4,4,0,0,1,1.92,2.28.72.72,0,0,0,.68.48,22.79,22.79,0,0,0,3.72-1.88l.8-.44a1.4,1.4,0,0,1,.52-.2c1,0,2.4,4.6,2.4,5.52,0,.52-.4.64-1.2.92-1.92.72-3.12,1.24-5,2-1,.4-1.12.76-1.12,1.84,0,.48,0,1.44,0,2.32,0,2.56,0,2.6-2.28,2.6-2.77,0-3.61-.12-3.61-1.36a9.81,9.81,0,0,1,.08-1.08v-.2a.51.51,0,0,0-.48-.56c-.4,0-2.4,1.28-2.4,2.68,0,2,3.4,2,4.81,2a33.63,33.63,0,0,0,7.44-1,4.83,4.83,0,0,1,1-.12c1,0,1,1.44,1,4,0,1.52-.08,1.92-1.24,2.16a54.64,54.64,0,0,1-7.76.48,15,15,0,0,1-7-1.28,6.49,6.49,0,0,1-4.08-6.2c0-3.76,2.84-5.92,5.76-7.64.68-.4,1.48-.84,2.2-1.2.36-.16.68-.36.68-.8a1.14,1.14,0,0,0-1.24-1c-1.52,0-4.28,1.4-5.48,2.32A18.07,18.07,0,0,0,265,119a.65.65,0,0,1-.6.44c-.88,0-5-2.24-5-3.2,0-.32.24-.56.72-1.08,1.64-1.88,4.24-6,5.52-7.84a.89.89,0,0,0,.24-.56.58.58,0,0,0-.6-.56c-.48,0-1,0-1.56,0-1.36,0-1.48-.12-1.48-3.13,0-2.48.16-2.52,1.44-2.52.88,0,2.32.08,3.64.08,2,0,2.32-.16,2.64-.72a19.74,19.74,0,0,0,1.88-5c.12-.6.2-.88.6-.88A48.89,48.89,0,0,1,277.31,96Z" style="fill:#3b241a"/><path d="M327.2,123.08c0,.88,0,1.8,0,2.68,0,3.8-1.76,4.92-5.36,4.92-.92,0-1.84-.16-2.24-1.12a13,13,0,0,1-.4-3.32c0-.8.08-1.08,1-1.08.56,0,1.16,0,1.72,0,.84,0,.88-.28.88-1.24v-1.64a1.12,1.12,0,0,0-1.12-1.12h-5c-1.16,0-1.2.56-1.36,1.88a40.56,40.56,0,0,1-1.12,5c-.4,1.2-.88,2.56-1.48,2.56-.76,0-3.24-1.64-3.24-2.52a1,1,0,0,1,.16-.48c1.76-4.36,1.84-9.2,1.84-13.84v-4c0-2.28,0-2.32-.88-3.16-.32-.28-1-1-1-1.52a1.29,1.29,0,0,1,.44-.77,37.12,37.12,0,0,0,5.56-9.28c.32-.84.36-.92.64-.92s3.56.84,4.16,1c1,.28,1.68.48,1.68,1,0,.28-.4.4-.6.44s-.68.12-.68.36.48.36.72.36h.56c.72,0,1.44,0,2.16,0a1.94,1.94,0,0,1,1.6.56,3.37,3.37,0,0,1,1.24,2,12.71,12.71,0,0,1-1.76,3.32.94.94,0,0,0-.2.52c0,.4.28.48.6.48,1.16,0,1.48.68,1.48,1.73,0,1.32,0,2.64,0,3.92v5.44c0,.84,0,1,.24,1,.84,0,1.6-5,1.64-5.8,0-.6.12-.84.6-.84.24,0,1.92.36,2.48.48,1.16.24,1.92.44,1.92.92,0,.2-.2.32-.36.4s-.56.16-.56,1.28c0,.36.16.64.56.64s.64-.24.64-.92a17.82,17.82,0,0,0-.12-2v-.28c0-.52.4-.52.8-.52,1.12,0,3.2.08,4.36.16.8,0,1.2.12,1.2.56,0,.24-.12.36-.36.56a1.79,1.79,0,0,0-.36,1.28,1.2,1.2,0,0,0,1.24,1.12c.88,0,1.8-.08,2.68-.08s.92.32.92,1.48v1.8c0,1-.08,1.4-.88,1.4-1,0-2-.08-3-.08a1,1,0,0,0-1,1v.4a1,1,0,0,0,1,1.08h.48c1.12,0,2.2-.08,3.32-.08s1.08.44,1.08,1.44v1.76c0,1-.08,1.48-1.08,1.48-1.16,0-2.36-.08-3.56-.08a1.2,1.2,0,0,0-1.24,1.16c0,1.24.08,2.44.08,3.68,0,1-.44,1-1.64,1H336c-1.32,0-1.72-.08-1.72-1.08,0-1.2.12-2.36.12-3.56,0-1-.76-1.24-1.64-1.24-1.2,0-2.36.08-3.56.08-1,0-1.08-.44-1.08-1.6V121.6a2.54,2.54,0,0,1,.2-1.12.57.57,0,0,0,.08-.24c0-.32-.72-.52-.84-.52-.28,0-.32.32-.32.56Zm-10.68-14.52a.63.63,0,0,0-.64.64v.88a.63.63,0,0,0,.64.64h.36a.66.66,0,0,0,.64-.64v-.88a.66.66,0,0,0-.64-.64Zm.36,8.4a.66.66,0,0,0,.64-.64v-.88a.66.66,0,0,0-.64-.64h-.32c-.6,0-.68.48-.68,1v.52a.62.62,0,0,0,.68.64Zm1.28-12.73a1.46,1.46,0,0,0,1.4-.64,5.69,5.69,0,0,0,.84-1.72c0-.24-.12-.32-.52-.32h-.68c-.76,0-1.08.48-1.52,1.28-.16.24-.28.48-.48.76a.45.45,0,0,0-.12.32c0,.32.32.32.64.32Zm3.64,4.33a.66.66,0,0,0-.64.64v.88a.66.66,0,0,0,.64.64h.4a.63.63,0,0,0,.64-.64v-.88a.63.63,0,0,0-.64-.64Zm.4,8.4a.63.63,0,0,0,.64-.64v-.88a.63.63,0,0,0-.64-.64h-.4a.66.66,0,0,0-.64.64v.88a.66.66,0,0,0,.64.64Zm16.68-21.45c1.24,0,2.48-.12,3.72-.12,1.76,0,2.48.56,2.48,2.84a32.13,32.13,0,0,1-1,8.33c-.44,1.32-1.24,2.36-5,2.36-1.64,0-2.8-.24-2.8-3.57,0-1.28.16-1.84.76-1.84h1.16c1.16,0,1.52-.08,1.52-2.2,0-1,0-1.08-1.44-1.08-1.56,0-1.68.6-2.08,2.08-1.12,4.09-4.48,6.89-5.4,6.89s-3.24-1.92-3.24-2.88c0-.32.24-.49.48-.64a11.3,11.3,0,0,0,2.28-2.25,7.06,7.06,0,0,0,1.24-2.52c0-.56-.52-.64-.92-.64s-.92,0-1.4,0c-.84,0-.92-.44-.92-1.52V97c0-1.2.08-1.64,1-1.64,1.2,0,2.32.12,3.88.12Zm-5.56,24.77c.64,0,1-.28,1-1v-.56a1,1,0,0,0-1-1h-.6c-1.12,0-1.16.64-1.52,1.56a1.17,1.17,0,0,0-.08.36.51.51,0,0,0,.52.56Z" style="fill:#3b241a"/><path d="M374.81,114.64c.44.32,1.76,1.28,1.76,1.76,0,1-5.25,9.84-6.17,11.2a2.31,2.31,0,0,0-.56,1.32v.48c0,.36,0,.88-.48.88s-2.4-1.84-2.84-2.24c-1.12-1-1.84-1.56-1.84-2.12a1.78,1.78,0,0,1,.52-.92,49.5,49.5,0,0,0,6.88-11.32c.09-.24.21-.4.49-.4A7.94,7.94,0,0,1,374.81,114.64ZM372.29,106c.71.52,1.92,1.4,1.92,2a3.56,3.56,0,0,1-.8,1.6c-.41.56-1.57,2.24-2.2,2.24a12.21,12.21,0,0,1-2.65-1.92,25.83,25.83,0,0,0-3-2.16c-.32-.2-.76-.4-.76-.84s2.12-3.81,2.92-3.81C368.32,103.07,371.21,105.15,372.29,106Zm1.88-8.57c.56.44,1.88,1.4,1.88,2s-.68,1.4-1.32,2.2-1.2,1.56-1.77,1.56c-.32,0-.71-.36-1-.56-1.36-1.08-3.32-2.48-4-2.92-.44-.28-1-.6-1-1a6.85,6.85,0,0,1,1.16-2c.68-1,1.24-1.84,1.88-1.84S373.49,96.83,374.17,97.39Zm7.76,18.45c-1.48,0-3,.08-4.48.08-1.08,0-1.16-.44-1.16-1.64v-1c0-2.12,0-2.64,1.2-2.64,1.48,0,3,.08,4.44.08h1c1.08,0,1.2-.8,1.2-2V106.8c0-.88-.36-1.28-1.24-1.28h-1.76c-1,0-2.52.12-3,.12-.64,0-.64-.6-.64-1.24v-2.57c0-1.32.08-1.64.68-1.64s1.64.12,2.92.12h1.8c1.08,0,1.24-.72,1.24-1.52,0-.32,0-.6,0-.88,0-.84-.08-1.92-.08-2.36,0-.68.4-.8,1-.8s4.88.24,5.4.32c.32,0,.72.2.72.6s-.24.44-.48.6c-.6.32-.64.56-.64,1.88v1c0,.52.36,1.12,1.4,1.12h1.84c1.2,0,2.4-.12,3.6-.12,1.44,0,1.84.68,1.84,2.48,0,1.48,0,3,0,4.45v2.56a.81.81,0,0,0,.8.92h.16c1.16,0,1.24.48,1.24,1.84V114c0,1.44-.08,1.88-1.2,1.88-1.48,0-3-.08-4.44-.08h-2.48c-.64,0-1.2,0-1.2.48a8.83,8.83,0,0,0,1.16,2,30,30,0,0,0,7.72,7.68c.28.2,1,.6,1,1,0,1.36-2.88,3.84-4.2,3.84-.8,0-3.6-2.68-4.24-3.36a26.68,26.68,0,0,1-4.44-6.08c-.2-.32-.4-.64-.8-.64s-.6.32-.76.64a24,24,0,0,1-6,6.84c-.64.52-3.28,2.48-4,2.48-1,0-3.64-2.92-3.64-4.16,0-.6.55-.88,1-1.12,3-1.88,5.72-3.68,7.64-6.76a9.06,9.06,0,0,0,1.16-2.44c0-.4-.36-.4-.68-.4Zm10.12-5.16a1.12,1.12,0,0,0,1.12-1.12V107c0-.84-.28-1.44-1.2-1.44h-1.16a.8.8,0,0,0-.8.76v3.24c0,.8.52,1.16,1.28,1.16Z" style="fill:#3b241a"/><path d="M434,98.27c.32.08.88.24.88.56a.39.39,0,0,1-.28.32c-.64.36-.72.84-.92,1.84a75.26,75.26,0,0,0-1.28,15c0,3.16,0,6.4,3.2,6.4a8.59,8.59,0,0,0,6.45-3.4,13.08,13.08,0,0,0,2.56-5.8c.16-.8.28-1.52,1-1.52.88,0,2.08,1.08,2.72,1.64s1.92,1.72,1.92,2.72a15.05,15.05,0,0,1-1.72,4.92,14.21,14.21,0,0,1-12.57,7.84,9.76,9.76,0,0,1-7.72-3.28c-2-2.56-2.24-6.8-2.24-10,0-4.6.4-9.52.72-13.85.08-.84.12-2.2.12-3.12s0-1.4.68-1.4C428.41,97.11,432.73,98,434,98.27Z" style="fill:#3b241a"/><path d="M486.82,95.79c.44.08,1.28.2,1.28.72s-.32.32-.6,1S487,99.19,487,102c0,.72.28,1.24,1.08,1.24a19.53,19.53,0,0,0,4.48-1.2,8.13,8.13,0,0,1,1.84-.56c.56,0,.88.72,1.4,2a10.85,10.85,0,0,1,.88,3.09c0,.52-.56.68-2.08,1.12a50.21,50.21,0,0,1-5.92,1.24c-1,.16-1.64.32-1.64,1.48,0,.6.16,3.64.24,4.64.12,1.2.4,1.28,1.92,1.72a37.91,37.91,0,0,1,8.8,3.68,1.31,1.31,0,0,1,.72,1c0,1-2,4.44-3,4.44a2.41,2.41,0,0,1-1-.48c-1-.68-5.16-3.08-6.2-3.08a.86.86,0,0,0-.84.84c-.52,4.32-4.4,5.72-8.24,5.72-4,0-8.76-1.76-8.76-6.48,0-5,5-7.12,9.28-7.12h.56a1,1,0,0,0,1.08-1c0-.32-.2-4.52-.24-5.52-.12-4.13,0-8.33-.68-12.41a3.09,3.09,0,0,1-.08-.6c0-.56.48-.64.92-.64C482.34,95.11,485.82,95.63,486.82,95.79Zm-6.28,24.73c-1.16,0-4.4.24-4.4,1.8,0,1.16,2,1.32,2.88,1.32,1.48,0,3-.28,3-2.12C482,120.6,481.22,120.52,480.54,120.52Z" style="fill:#3b241a"/><path d="M545.27,113.84c0,6.72-5.16,12.52-10.88,15.52a8.7,8.7,0,0,1-2.88,1.08c-1.72,0-4.16-4.2-4.16-4.92,0-.4.4-.56.72-.64a17.73,17.73,0,0,0,7.4-4,9.07,9.07,0,0,0,3.36-6.64c0-2.64-2-4.24-4.52-4.24-3.08,0-5.92,1.68-8.28,3.52a1.41,1.41,0,0,1-.85.4c-1.32,0-3.12-4.12-3.12-5.44,0-.64.64-1,1.12-1.2,3.2-1.6,7.93-3.17,11.53-3.17C540.67,104.15,545.27,107.56,545.27,113.84ZM529.43,95.51c2.56,1.24,7.56,1.88,10.44,2.08,1,.08,1.32.16,1.32.68,0,.36-.16,1.36-.32,2.36-.2,1.32-.44,3-1.6,3a59.12,59.12,0,0,1-9.64-1.8c-2.52-.68-3.21-.88-3.21-1.52a19.53,19.53,0,0,1,1.16-3.92c.17-.44.41-1.12,1-1.12A2.09,2.09,0,0,1,529.43,95.51Z" style="fill:#3b241a"/><path d="M579.43,123.56a5.7,5.7,0,1,1-5.72-5.72A5.72,5.72,0,0,1,579.43,123.56Zm-9.08,0a3.38,3.38,0,1,0,3.36-3.36A3.38,3.38,0,0,0,570.35,123.56Z" style="fill:#3b241a"/></g></g></svg>