<?xml version="1.0" encoding="UTF-8"?>
<svg id="_レイヤー_2" data-name=" レイヤー 2" xmlns="http://www.w3.org/2000/svg" viewBox="0 0 113.4 571.7">
  <defs>
    <style>
      .cls-1 {
        fill: #3b241a;
      }
    </style>
  </defs>
  <g id="contents">
    <g>
      <path class="cls-1" d="M113.3,12v2.7c0,.8-.4,1-1.6,1h-1.8c-1.2,0-1.6,0-1.6-1v-6.9c0-1.2-.7-1.3-1.7-1.3h-28c-2,0-1.3-.2-1.3-1.4v-2.2c0-1,0-1.2,1.2-1.2h29.1c1.4,0,2.7-.1,4.1-.1s1.4.6,1.4,1.7v8.5h0v.2h.2Z"/>
      <path class="cls-1" d="M73.4,436.2v-2.7c0-.8.4-1,1.6-1h1.8c1.2,0,1.6,0,1.6,1v6.9c0,1.2.7,1.3,1.7,1.3h28c2,0,1.3.1,1.3,1.4v2.2c0,1,0,1.2-1.2,1.2h-29.1c-1.4,0-2.7.1-4.1.1s-1.4-.6-1.4-1.7v-8.5h0v-.2h-.2Z"/>
      <path class="cls-1" d="M33.2,566.3c0,3-2.4,5.4-5.4,5.4s-5.4-2.4-5.4-5.4,2.4-5.4,5.4-5.4,5.4,2.4,5.4,5.4ZM24.6,566.3c0,1.8,1.4,3.2,3.2,3.2s3.2-1.4,3.2-3.2-1.4-3.2-3.2-3.2-3.2,1.4-3.2,3.2Z"/>
    </g>
  </g>
  <g>
    <path class="cls-1" d="M84.67,55.96c-.42,6.21-3.28,10.66-8.59,13.37l-2.53-3.24c1.83-1.02,3.32-2.3,4.47-3.86s1.84-3.65,2.06-6.27h-2.59v-8.51c-.33.3-.65.59-.97.86l-2.86-2.91c4.08-3.85,6.74-7.53,8-11.04l4.84.7c-.28.74-.61,1.47-.99,2.19h6.49l1.48,1.24c-.57,1.38-1.66,3.18-3.26,5.39h5.05v12.09h-4.21v7.33c0,.29.1.55.29.78.2.23,1.04.37,2.52.44s3.03.1,4.63.1,3.09-.03,4.49-.1c1.39-.06,2.23-.14,2.51-.24.29-.09.51-.28.68-.54s.27-.88.32-1.83c-.56.33-1.14.54-1.74.63-.6.09-2.16.13-4.66.13l-.7-4.13c.7.01,1.32.02,1.87.02.99,0,1.61-.03,1.85-.09.24-.06.45-.18.64-.38.18-.2.36-.58.52-1.16.17-.58.32-1.9.46-3.96.14-2.06.21-4.67.21-7.82h-2.13c-.06,4.57-.9,8.3-2.51,11.18-1.61,2.88-3.6,5.17-5.96,6.86l-2.89-2.86c2.07-1.73,3.68-3.75,4.84-6.07,1.16-2.32,1.77-5.35,1.85-9.11h-2.74v-3.92h2.76v-6.25h4.68v6.25h6.7v2.76c0,4.65-.08,8.07-.24,10.26-.16,2.2-.48,3.99-.96,5.39l2.23.3v4.59c0,.66-.11,1.24-.33,1.73-.22.5-.56.91-1.01,1.24-.45.33-.98.57-1.6.71-.62.15-1.84.27-3.67.37-1.83.1-3.69.15-5.55.15-5.74,0-9.18-.3-10.33-.9-1.15-.6-1.72-1.73-1.72-3.38v-8.49h-1.68ZM81.05,43.87h4.67l1.64-2.97h-3.92c-.63.93-1.43,1.92-2.38,2.97ZM84.2,52.44v-4.95h-2.27l-.04,4.95h2.3ZM88.58,47.49v4.95h2.38v-4.95h-2.38Z"/>
    <path class="cls-1" d="M87.46,96.17h-7.08l-.32,3.79h7.37v1.66c0,3.4-.08,6.26-.26,8.56-.17,2.3-.41,3.84-.7,4.62-.3.77-.87,1.45-1.71,2.04s-1.88.88-3.14.88h-4.51l-.78-4.38h3.88c.52,0,.93-.1,1.24-.3.3-.2.51-.49.62-.87.11-.38.22-1.28.33-2.7.12-1.42.19-3.28.23-5.56h-2.91l-.15,1.94h-4.68l.93-13.41h6.86v-3.98h-7.52v-3.94h12.32v11.65ZM105.88,115.48c-3.81.62-9.69,1.35-17.63,2.19l-.97-4.53c2.29-.09,5.43-.31,9.45-.67v-4.99h-2.82v.9h-4.63v-12.07h7.45v-1.98l-8.04.46-.51-4.17,3.43-.08c1.22-2.29,2.37-4.86,3.45-7.73l5.37,1.09c-1.25,2.54-2.43,4.7-3.54,6.47l6.49-.3c-.81-1.17-1.6-2.27-2.36-3.31l3.98-1.96c3.33,3.9,5.5,6.82,6.51,8.78l-4.46,2.27c-.34-.65-.78-1.39-1.31-2.23-.88.1-2.19.22-3.94.36v2.34h7.77v11.18h-7.77v4.49c.57-.06,1.43-.17,2.57-.32l-1.2-2.91,4.47-.99c.41.69,1.07,2.05,2,4.1.93,2.05,1.59,3.65,1.98,4.79l-4.88,1.18c-.33-.95-.62-1.73-.86-2.34ZM96.72,100.03h-2.78v3.71h2.78v-3.71ZM104.68,103.75v-3.71h-2.89v3.71h2.89Z"/>
    <path class="cls-1" d="M93.14,165.8l-1.25-4.22c4.47-.5,7.83-1.53,10.08-3.09s3.38-3.9,3.38-7.01c0-2.6-.81-4.69-2.43-6.26-1.62-1.57-3.87-2.49-6.74-2.76-.24,6.3-1.42,11.41-3.54,15.33-2.12,3.91-4.79,5.87-8.01,5.87-2.09,0-3.79-.99-5.08-2.96-1.29-1.98-1.94-4.24-1.94-6.78v-.42c0-3.9,1.57-7.34,4.7-10.34,3.14-3,7.09-4.61,11.86-4.84h.69c4.56,0,8.31,1.16,11.24,3.47,2.93,2.31,4.4,5.46,4.4,9.43,0,4.36-1.48,7.77-4.43,10.23-2.96,2.47-7.27,3.92-12.93,4.36ZM91.43,142.95c-2.53.6-4.69,1.93-6.46,3.99-1.77,2.06-2.66,4.33-2.66,6.82,0,1.28.22,2.47.66,3.55.44,1.08,1.05,1.62,1.84,1.62,1.59,0,3.03-1.54,4.32-4.63s2.06-6.87,2.3-11.35Z"/>
    <path class="cls-1" d="M88.39,213.42h-7.18v2.42h-4.72v-28.91h11.9v26.49ZM83.79,198.12v-7.56h-2.57v7.56h2.57ZM83.79,209.8v-8.4h-2.57v8.4h2.57ZM99.5,213.82l-4.51,2.36c-1.42-2.18-3.02-4.46-4.8-6.82l3.48-1.94h-3.96v-4.02h13.31v-2.97h-13.77v-4.21h8.65v-3.12h-7.48v-4.06h7.48v-3.83h5.31l-.02,3.83h7.43v4.06h-7.43l-.02,3.12h8.82v4.21h-3.79v2.97h3.01v4.02h-3.01v7.9c0,1.35-.45,2.39-1.35,3.14s-2.13,1.12-3.67,1.12h-4.88l-.63-4.76h4.13c.81,0,1.22-.38,1.22-1.14v-6.27h-8.38c2.01,2.27,3.62,4.41,4.86,6.4Z"/>
    <path class="cls-1" d="M92.89,248.31h-10.34v20.36h-5.03v-33.93h15.37v13.58ZM88.21,240.27v-2.42h-5.66v2.42h5.66ZM88.21,245.3v-2.46h-5.66v2.46h5.66ZM90.93,266.17v.86h-4.88v-16.68h16.4v15.82h-11.52ZM97.44,256.31v-2.61h-6.51v2.61h6.51ZM90.93,262.35h6.51v-2.91h-6.51v2.91ZM111.57,264.84c0,.99-.42,1.82-1.25,2.49-.83.67-1.83,1-3,1h-3.83l-.51-4.34h2.38c.3,0,.58-.1.84-.31.25-.21.38-.47.38-.77v-14.59h-10.68v-13.58h15.67v30.11ZM100.64,240.27h5.94v-2.42h-5.94v2.42ZM106.58,242.85h-5.94v2.46h5.94v-2.46Z"/>
    <path class="cls-1" d="M88.11,290.19c0,.83-.03,1.8-.1,2.93h4.89c2.17,0,3.91.7,5.22,2.11s1.96,3.23,1.96,5.47c0,5.56-.64,10.08-1.92,13.56s-3.47,5.22-6.55,5.22c-.86,0-1.79-.15-2.79-.44-1-.29-2.61-1.09-4.85-2.4l1.75-4.53c2.4,1.33,4.13,2,5.2,2,.5,0,.92-.18,1.28-.55s.74-1.16,1.14-2.36.71-2.55.9-4.04.29-3.16.29-5.03c0-1.28-.08-2.18-.25-2.7s-.44-.91-.82-1.16-.86-.38-1.45-.38h-4.4c-1.23,9.06-4.44,16.41-9.62,22.03l-4.29-2.69c1.42-1.6,2.97-4.12,4.66-7.56,1.68-3.44,2.85-7.37,3.49-11.79h-6.93v-4.76h7.56l.04-7.37h5.58v4.44ZM111.67,306.62l-5.22,1.47c-1.04-3.55-2.15-6.5-3.34-8.85-1.19-2.34-2.7-4.68-4.54-7.02l4.32-2.53c4.8,6.22,7.72,11.86,8.78,16.93ZM107.19,290.51l-2.76,1.05c-1.05-2.62-1.92-4.56-2.59-5.85l2.63-1.05c1.12,2.15,2.03,4.09,2.72,5.85ZM112.41,290.09l-2.65,1.01c-.84-2.08-1.71-4.03-2.63-5.85l2.53-.97c1.04,1.99,1.96,3.93,2.74,5.81Z"/>
    <path class="cls-1" d="M87.84,333.47c-.09,2.03-.24,3.89-.44,5.58h8.3v4.55h-8.99c-1.38,7.4-4.26,13.86-8.63,19.39l-4.17-3.01c3.45-4.24,5.91-9.7,7.37-16.38h-5.87v-4.55h6.67c.24-1.82.39-3.73.44-5.75l5.31.17ZM111.32,360.87l-2.82,4.23c-2.54-2.11-4.66-3.64-6.36-4.59,0,2.2-.69,3.83-2.06,4.89s-3.63,1.6-6.78,1.6c-2.54,0-4.65-.56-6.32-1.68s-2.51-2.67-2.51-4.65c0-2.12.89-3.8,2.67-5.04,1.78-1.24,3.95-1.86,6.51-1.86,1.17,0,2.25.07,3.24.21v-9.88h5.26v11.31c2.44.99,5.5,2.81,9.18,5.45ZM96.88,358.21c-1.02-.22-2.1-.32-3.24-.32s-2.17.22-3.02.66c-.84.44-1.27,1.04-1.27,1.82,0,1.6,1.48,2.4,4.44,2.4,2.06,0,3.09-.74,3.09-2.23v-2.32ZM111.58,345.05l-4.17,3.16c-1.31-1.56-3.14-3.4-5.5-5.52s-4.3-3.64-5.81-4.55l3.2-3.54c1.78.96,3.88,2.48,6.29,4.56,2.42,2.08,4.41,4.04,5.99,5.89Z"/>
    <path class="cls-1" d="M94.98,399.96c-.6,1.76-1.43,3.74-2.49,5.91-1.06,2.18-2.04,3.78-2.94,4.82-.9,1.03-2.01,1.55-3.33,1.55-2.74,0-5.1-1.69-7.07-5.08-1.97-3.38-2.95-7.27-2.95-11.66,0-1.43.14-3.56.42-6.38.27-2.83.4-4.95.4-6.36h5.83c-.04,1.28-.23,3.38-.57,6.3-.33,2.7-.5,4.81-.5,6.32,0,2.92.49,5.48,1.48,7.69.98,2.21,1.82,3.31,2.5,3.31.99,0,2.55-2.9,4.68-8.7l4.53,2.27ZM110.69,407l-5.73.36c0-3.92-.69-7.88-2.06-11.88s-3.24-7.42-5.6-10.26l4.61-2.3c5.85,6.51,8.78,14.54,8.78,24.09Z"/>
    <path class="cls-1" d="M32.66,33.02c-4.01.34-7.87.51-11.58.51-5.36,0-8.95-.18-10.78-.55-2.51-.5-4.49-1.44-5.92-2.85s-2.15-3.25-2.15-5.55c0-4.35,3.19-8.07,9.56-11.16-.41-4.38-.62-8.8-.65-13.25h5.54l-.02,1.71v.57c0,2.82.09,5.74.27,8.78,2.93-1.1,7.28-2.48,13.04-4.11l1.6,4.76c-7.77,2.02-13.72,4.04-17.85,6.07-4.13,2.02-6.2,4.19-6.2,6.5,0,2.82,3.1,4.23,9.31,4.23h1.77c4,0,8.61-.27,13.82-.82l.23,5.16Z"/>
    <path class="cls-1" d="M21.33,71.56c-.6,1.76-1.43,3.74-2.49,5.91-1.06,2.18-2.04,3.78-2.94,4.82-.9,1.03-2.01,1.55-3.33,1.55-2.74,0-5.1-1.69-7.07-5.08-1.97-3.38-2.95-7.27-2.95-11.66,0-1.43.14-3.56.42-6.38.27-2.83.4-4.95.4-6.36h5.83c-.04,1.28-.23,3.38-.57,6.3-.33,2.7-.5,4.81-.5,6.32,0,2.92.49,5.48,1.48,7.69.98,2.21,1.82,3.31,2.5,3.31.99,0,2.55-2.9,4.68-8.7l4.53,2.27ZM37.04,78.6l-5.73.36c0-3.92-.69-7.88-2.06-11.88s-3.24-7.42-5.6-10.26l4.61-2.3c5.85,6.51,8.78,14.54,8.78,24.09Z"/>
    <path class="cls-1" d="M9.83,134.19l-.89-4.35c5.79-.26,10.22-1.22,13.29-2.89,3.07-1.67,4.6-4.01,4.6-7.03,0-1.32-.49-2.34-1.46-3.06s-2.27-1.08-3.9-1.08c-1.11,0-2.32.06-3.63.17-1.31.12-2.46.25-3.45.4s-4.19.71-9.59,1.69l-.42-4.49,7.26-1.11c2.11-.32,3.99-.55,5.63-.69,1.64-.13,3.09-.2,4.34-.2,3.21,0,5.75.72,7.62,2.17,1.87,1.44,2.8,3.51,2.8,6.2,0,4.43-1.94,7.85-5.82,10.27-3.88,2.41-9.34,3.75-16.38,4ZM28.64,105.84l-1.1,4.42c-2.12-.51-5.12-.92-9.01-1.24-3.88-.31-7.17-.47-9.88-.47-.68,0-1.33.01-1.93.03l.03-4.35c3.67,0,7.1.11,10.29.33,3.2.22,7.06.64,11.58,1.27Z"/>
    <path class="cls-1" d="M16.93,168.32H7.03v20.24H1.91v-33.93h15.02v13.69ZM12.13,160.25v-2.46h-5.1v2.46h5.1ZM12.13,165.2v-2.38h-5.1v2.38h5.1ZM14.9,183.14v1.03h-4.95v-13.35h16.97v12.32h-12.02ZM14.9,179.29h7.14v-4.84h-7.14v4.84ZM35.29,184.74c0,.99-.42,1.82-1.25,2.49-.83.67-1.83,1-3,1h-4.4l-.51-4.23h2.86c.3,0,.58-.1.83-.31.25-.21.37-.47.37-.77v-14.59h-10.21v-13.69h15.31v30.11ZM24.86,160.25h5.33v-2.46h-5.33v2.46ZM30.19,162.82h-5.33v2.38h5.33v-2.38Z"/>
    <path class="cls-1" d="M7.7,224.61c-.01,1.31-.13,3.26-.36,5.87.65.63,1.35,1.21,2.11,1.71v-8.44H1.59v-3.6h18.32v3.6h-5.88v2.65h5.58l-.04,3.54h-5.54v4.25c1.46.39,3.28.64,5.45.73,2.17.09,6.03.14,11.58.14,4.05,0,6.54-.07,7.46-.21l-.67,3.98c-8.65,0-14.52-.02-17.61-.07-3.1-.04-5.82-.44-8.16-1.19-2.34-.75-4.24-1.84-5.7-3.28-.66,1.93-1.61,3.57-2.84,4.93l-3.24-2.15c.71-1.07,1.31-2.23,1.81-3.5.49-1.27.84-2.52,1.05-3.76.2-1.24.3-2.97.3-5.21h4.25ZM19.09,218.67H3.3v-12.7h15.79v12.7ZM7.74,211.07h6.7v-2.02h-6.7v2.02ZM14.44,213.56h-6.7v2.11h6.7v-2.11ZM27.79,230.93c-2.39,1.75-5.15,3.01-8.3,3.77l-1.49-3.47c2.42-.76,4.37-1.58,5.85-2.46h-2.84v-17.48h4.86l.51-1.79h-6.19v-3.5h17.65v3.5h-7.03l-.74,1.79h6.13v17.48h-3.47c1.94,1.24,3.76,2.13,5.47,2.65l-2.08,3.5c-1.16-.33-2.44-.9-3.87-1.7-1.42-.81-2.55-1.6-3.39-2.39l1.6-2.06h-4.53l1.85,2.15ZM31.69,216.31v-2h-6.17v2h6.17ZM25.52,220.9h6.17v-2.09h-6.17v2.09ZM31.69,223.43h-6.17v2.15h6.17v-2.15Z"/>
    <path class="cls-1" d="M26.32,283.65h-5.43l.02-7.48c-4.53,2.22-6.8,4.3-6.8,6.23s2.18,2.88,6.55,2.88l2.11-.02c5.81,0,10.13-.21,12.95-.63l.27,4.76c-3.57.34-7.06.51-10.49.51-6.59,0-11.01-.56-13.25-1.69s-3.37-2.86-3.37-5.21c0-3.86,3.69-7.65,11.06-11.37-.33-.42-.83-.63-1.49-.63-1.19,0-2.68.43-4.46,1.28-1.78.85-3.79,2.25-6.03,4.21-1.55,1.37-2.66,2.3-3.33,2.78l-3.31-3.58c4.42-3.28,7.76-6.93,10.02-10.97H3.2v-4.51h10.11c.53-1.54.93-2.98,1.2-4.32l5.6.3c-.36,1.57-.72,2.91-1.08,4.02h12.57v4.51h-14.4c-.33.66-.94,1.68-1.83,3.05,1.27-.42,2.49-.63,3.66-.63,2.59,0,4.46.8,5.6,2.4,1.65-.71,5.13-2.11,10.44-4.19l2.23,4.53c-2.5.85-6.23,2.18-11.2,4,.13.95.19,1.97.19,3.07l.04,6.7Z"/>
    <path class="cls-1" d="M19.54,337.44c0,.98-.36,1.78-1.08,2.4-.72.62-1.52.93-2.41.93h-4.82l-.48-4.27h3.35c.7,0,1.05-.3,1.05-.9v-4.09h-7.27c-.65,4.24-1.95,7.46-3.9,9.67l-3.52-1.98c.81-1.16,1.54-2.72,2.19-4.68.65-1.97.97-4.54.97-7.73l.02-6.82c-.29.3-.53.54-.72.7l-2.65-3.31c1.27-1.32,2.52-3.03,3.75-5.14s2.08-4.05,2.53-5.83l4.88.59c-.17.72-.41,1.43-.72,2.11h6.76l1.07.82c-.7,1.79-1.7,3.7-2.99,5.73h4v21.79ZM7.08,315.66h4c.95-1.59,1.54-2.74,1.75-3.45h-3.66c-.62,1.14-1.32,2.29-2.09,3.45ZM10.02,318.9h-1.98v3.2h1.98v-3.2ZM8.04,324.93v3.28h1.98v-3.28h-1.98ZM15.33,322.1v-3.2h-2.08v3.2h2.08ZM15.33,328.21v-3.28h-2.08v3.28h2.08ZM29.23,310.92c-.66,4.25-2.98,7.3-6.97,9.14l-2.61-3.08c2.62-1.5,4.2-3.52,4.74-6.06l-3.85-.02v-3.68h17.31v1.1c0,2.29-.07,4.13-.21,5.54-.14,1.41-.38,2.4-.71,2.96-.34.57-.71,1.01-1.12,1.33-.41.32-.93.58-1.55.76-.62.18-1.73.28-3.31.28-.64,0-1.35-.01-2.13-.04l-.67-3.98,3.2-.04c.77-.01,1.26-.39,1.45-1.13.19-.74.29-1.52.29-2.33,0-.24,0-.49-.02-.74l-3.83-.02ZM38.33,334.64h-5.66v6.17h-5.03v-6.17h-7.06v-4.09h7.06v-3.35h-2.3c-.49,1.31-.99,2.29-1.48,2.95l-3.94-1.16c1.35-2.42,2.21-5.36,2.61-8.82l4.3.36c-.06.91-.18,1.82-.36,2.72h1.18v-3.16h5.03v3.16h5.29v3.94h-5.29v3.35h5.66v4.09Z"/>
    <path class="cls-1" d="M12.5,378.05c-.46,1.97-1.29,4.34-2.5,7.1-1.21,2.77-2.42,5.07-3.61,6.89l-4.69-2.57c1.28-1.78,2.51-4.03,3.7-6.75,1.18-2.72,1.98-4.78,2.4-6.16l4.7,1.49ZM11.45,371.58l-2.93,4.02c-1.85-1.82-4.09-3.71-6.7-5.69l2.76-3.79c2.91,2.07,5.2,3.89,6.87,5.47ZM13.16,363.03l-3.01,4.02c-2.01-1.88-4.29-3.84-6.86-5.88l2.95-3.68c3.28,2.44,5.58,4.28,6.91,5.54ZM24.53,381.29c-2.67,5.18-6.93,8.85-12.78,11.03l-2.38-3.87c3.3-1.49,5.84-3.2,7.63-5.14,1.78-1.94,2.93-3.67,3.44-5.18h-7.79v-4.3h8.67v-6.78h-7.52v-4.13h7.52v-4.32h5.26v4.32h9.56v10.91h2.72v4.3h-10.68c2.49,4.2,6.13,7.49,10.93,9.86l-3.24,4.02c-2.21-1.12-4.34-2.65-6.4-4.6-2.06-1.95-3.7-3.99-4.93-6.12ZM26.57,367.04v6.78h4.53v-6.78h-4.53Z"/>
    <path class="cls-1" d="M37.88,427.06c-1.62,5.68-3.86,9.78-6.73,12.29-2.87,2.52-6.55,3.77-11.04,3.77-1.94,0-3.64-.25-5.1-.76-1.46-.5-2.65-1.19-3.57-2.05s-1.63-1.8-2.13-2.81-.82-2.09-.97-3.23c-.15-1.14-.22-2.9-.22-5.3,0-2.62.27-8.74.8-18.38h5.59c-.51,8.61-.77,14.59-.77,17.95,0,2.74.07,4.48.21,5.21.14.73.46,1.44.96,2.12.5.68,1.22,1.2,2.16,1.57.94.37,2.09.55,3.45.55,3.01,0,5.53-1.03,7.55-3.08s3.62-5.31,4.8-9.75l5.01,1.89Z"/>
    <path class="cls-1" d="M37.35,490.26l-3.35,4.59c-3.88-3.11-7.56-5.42-11.03-6.93,0,2.82-.65,4.86-1.94,6.11s-3.47,1.89-6.51,1.89c-3.48,0-6.19-.61-8.14-1.84-1.95-1.23-2.92-3.02-2.92-5.38s1.07-4.24,3.22-5.59c2.15-1.35,4.77-2.03,7.86-2.03.9,0,1.88.06,2.93.19v-19.69h5.62v7.14h12.78v4.72h-12.78v9.08c4.49,1.46,9.25,4.04,14.26,7.73ZM17.58,486.03c-1.07-.2-2.08-.3-3.05-.3-1.52,0-2.87.24-4.04.71-1.17.48-1.75,1.15-1.75,2.03s.48,1.5,1.45,1.96,2.14.69,3.52.69c1.59,0,2.63-.23,3.12-.69s.74-1.13.74-1.99v-2.4Z"/>
    <path class="cls-1" d="M10.37,547.37l-.97-4.76c6.33-.28,11.18-1.33,14.54-3.16,3.36-1.83,5.04-4.39,5.04-7.69,0-1.45-.53-2.56-1.6-3.35s-2.49-1.18-4.27-1.18c-1.22,0-2.54.06-3.97.19-1.43.13-2.69.27-3.78.44s-4.59.78-10.49,1.85l-.46-4.91,7.94-1.22c2.31-.36,4.36-.61,6.16-.75,1.8-.15,3.38-.22,4.75-.22,3.52,0,6.3.79,8.34,2.37,2.04,1.58,3.07,3.84,3.07,6.79,0,4.85-2.12,8.59-6.37,11.24-4.25,2.64-10.22,4.1-17.93,4.38ZM30.95,516.35l-1.2,4.84c-2.32-.56-5.61-1.01-9.85-1.35-4.25-.34-7.85-.51-10.81-.51-.75,0-1.45.01-2.11.04l.04-4.76c4.01,0,7.77.12,11.26.36,3.5.24,7.72.7,12.67,1.39Z"/>
  </g>
</svg>