<?xml version="1.0" encoding="UTF-8"?><svg id="_レイヤー_2" xmlns="http://www.w3.org/2000/svg" viewBox="0 0 112.61 464.09"><defs><style>.cls-1{fill:#3b241a;}</style></defs><g id="contents"><path class="cls-1" d="m112.5,11.59c0,1.06.11,1.94.11,2.7,0,.91-.38.99-1.6.99h-1.79c-1.22,0-1.6-.08-1.6-.99,0-.57.08-1.14.08-1.67v-5.21c0-1.25-.65-1.29-1.71-1.29h-22.19c-1.94,0-3.84.08-5.78.08-1.22,0-1.33-.15-1.33-1.41v-2.2c0-.99.11-1.22,1.22-1.22,1.98,0,3.91.08,5.89.08h23.25c1.37,0,2.7-.11,4.07-.11,1.25,0,1.44.61,1.44,1.71,0,.8-.08,1.56-.08,2.32v6.23Z"/><path class="cls-1" d="m91.19,48.56c-1.22,0-2.58.08-3.65.08-.65,0-.84-.23-.84-1.6v-.3c0-.27-.08-.68-.46-.68-.23,0-.46.23-.65.34-.72.57-3.8,2.89-4.56,2.89-.99,0-3.46-2.96-3.46-3.99,0-.46.49-.65,1.03-.91,5.01-2.58,10.56-7.33,13.34-12.27.19-.34.3-.49.68-.49.46,0,5.13.72,5.78.87.3.08.61.23.61.61,0,.15-.08.27-.19.38-.08.11-.23.27-.23.46,0,.27.84,1.29,1.06,1.56,3.27,4.03,7.1,6.5,11.7,8.66.76.34.84.42.84.76,0,.87-.8,2.28-1.22,3.08-.34.65-.84,1.48-1.41,1.48-.87,0-5.13-2.89-6.04-3.53-.11-.08-.27-.19-.38-.19-.46,0-.49.38-.49.95v.76c0,.87-.19,1.18-.84,1.18-1.03,0-2.09-.08-3.65-.08h-6.99Zm-1.82,15.73c-.34,0-.68.19-.68.57v.3c0,1.18-.3,1.18-2.66,1.18h-1.22c-1.37,0-1.9-.08-1.9-1.06,0-.53.11-2.05.11-3.38v-6.31c0-1.03-.08-2.09-.08-3.12,0-1.9,1.48-2.05,3-2.05,1.22,0,2.43.15,3.69.15h10.14c1.22,0,2.47-.15,3.69-.15,1.48,0,3,.15,3,2.01,0,.91-.08,1.98-.08,3.15v6.31c0,1.41.11,2.93.11,3.34,0,1.03-.53,1.1-1.86,1.1h-2.24c-1.25,0-1.75-.08-1.75-1.06,0-.15.04-.27.04-.38,0-.3-.23-.61-.65-.61h-10.68Zm10.33-4.71c.61,0,1.06-.46,1.06-1.06v-1.86c0-.61-.46-1.06-1.06-1.06h-10.07c-.57,0-1.06.46-1.06,1.06v1.86c0,.61.46,1.06,1.06,1.06h10.07Zm-1.03-16c.49,0,.91-.04.91-.42s-.27-.65-.53-.87c-1.03-.95-2.62-2.74-3.53-3.84-.19-.23-.46-.57-.8-.57-.3,0-.53.19-.72.46-1.06,1.29-2.51,2.74-3.69,3.91-.23.19-.57.53-.57.87,0,.42.11.46,1.44.46h7.48Z"/><path class="cls-1" d="m91.72,106.85c0-.27-.19-.34-.49-.34-.87,0-1.67-1.25-1.98-1.86-.08-.15-.19-.27-.27-.27-.19,0-.34.42-.72.42-.23,0-.53-.38-.84-.8-.19-.27-.34-.46-.42-.46-.23,0-.27.23-.27.49v7.37c0,1.75.11,3.5.11,5.24,0,.87-.34.99-1.37.99h-2.32c-1.06,0-1.48-.08-1.48-.91,0-1.75.08-3.53.08-5.32v-1.48c0-.68-.04-.8-.23-.8s-.3.34-.46.72c-.3.76-.61,1.52-1.14,1.52-.99,0-3.27-2.43-3.27-3.5,0-.42.23-.87.49-1.33,1.98-3.31,3.76-10.79,3.76-11.59,0-.42-.27-.57-.68-.57-.49,0-1.03.08-1.52.08-.76,0-.84-.42-.84-1.29v-2.43c0-1.06.08-1.44.84-1.44.68,0,1.37.11,2.01.11.61,0,1.03-.57,1.03-1.14v-3.08c0-.61-.11-1.03-.11-1.22v-.34c0-.46.3-.53.65-.53.49,0,3.42.3,4.1.38.68.08,1.14.11,1.14.57,0,.23-.15.34-.42.57-.34.27-.38.99-.38,1.86v1.82c0,.57.46,1.06,1.06,1.06.23,0,.8-.08,1.18-.08.8,0,.87.42.87,1.6v.99c0,.23,0,.65.3.65s.87-.76,1.52-1.6c1.71-2.2,3.04-4.86,3.8-7.26.08-.27.15-.61.46-.61.53,0,3.84.95,4.63,1.14.84.19,1.14.3,1.14.65,0,.23-.15.53-.57.61-.53.08-.87.34-.87.87,0,.42.34.53.68.53h3.76c1.06,0,2.09-.04,3.15-.04,1.67,0,2.93,2.32,2.93,2.81,0,1.63-3.72,6.16-5.01,7.41-.23.23-.46.53-.46.84,0,.38.38.65.95,1.03,1.52,1.03,3.46,2.05,5.21,2.85.46.19.76.3.76.76,0,1.03-1.52,4.1-2.43,4.1-.11,0-.27-.04-.42-.11-.15-.08-.3-.11-.38-.11-.19,0-.38.11-.38.61v6.38c0,1.22.11,2.96.11,3.5,0,.76-.42.84-1.56.84h-2.43c-1.03,0-1.48-.08-1.48-.8v-.23c0-.27-.15-.61-.8-.61h-4.67c-.38,0-.72.23-.72.61v.19c0,.76-.42.84-1.44.84h-2.47c-1.14,0-1.56-.08-1.56-.84,0-.68.11-1.71.11-2.93v-7.1Zm-2.89-11.93q-.3-.53-1.48-.53c-.46,0-.61.19-.61.61v.23c0,.87,2.36,3.38,3.04,4.1.34.38.61.68.61.95,0,.11-.04.3-.04.38,0,.19.19.42.46.42.3,0,2.09-.91,3.69-1.79,1.44-.8,2.58-1.56,2.58-1.94,0-.3-.68-1.1-1.14-1.63-.23-.27-.49-.61-.84-.61s-.87.68-1.29,1.22c-.38.46-.99,1.14-1.48,1.14-1.06,0-3-1.63-3.5-2.55Zm13.49,16.45c.57,0,1.06-.49,1.06-1.06v-1.44c0-.61-.49-1.06-1.06-1.06h-4.25c-.61,0-1.06.46-1.06,1.06v1.44c0,.61.42,1.03,1.06,1.06h4.25Zm.53-8.24c.23,0,.42-.04.42-.23,0-.08-.08-.15-.49-.49-.3-.23-.76-.57-1.14-.87-.15-.11-.34-.27-.53-.27-.15,0-.61.3-.84.46-.42.3-.95.68-1.18.84-.3.19-.38.27-.38.38,0,.15.15.19.34.19h3.8Zm-3.08-11.7c-.3,0-.76.04-.76.46,0,.34,1.41,2.24,1.94,2.24.57,0,1.9-2.17,1.9-2.39,0-.27-.53-.3-1.14-.3h-1.94Z"/><path class="cls-1" d="m105.96,141.59c2.7,2.7,4.03,6,4.03,9.76,0,5.36-2.93,10.07-7.64,12.61-.95.53-3.46,1.71-4.52,1.71-1.33,0-3.34-3.5-3.34-4.56,0-.34.34-.49,1.44-.76,4.41-1.14,8.02-3.91,8.02-8.78,0-5.97-4.56-8.32-5.7-8.32-.65,0-.72.68-.76,1.37-.42,5.28-1.94,11.74-5.43,15.92-1.41,1.71-3.23,3.15-5.51,3.15-2.55,0-4.63-1.75-5.78-3.91-.87-1.67-1.25-3.84-1.25-5.7,0-9.12,7.03-16.38,16.19-16.38,3.88,0,7.52,1.14,10.26,3.88Zm-20.78,12.42c0,.91.23,3.69,1.56,3.69.91,0,2.2-2.51,2.58-3.31,1.33-2.74,2.39-8.36,2.39-9.73,0-.3-.15-.57-.49-.57-1.1,0-6.04,3.5-6.04,9.92Z"/><path class="cls-1" d="m91.95,205.96c4.6,1.06,8.7,2.32,13.07,4.14.65.27.83.34.83.76,0,.95-1.18,5.09-2.24,5.09-.27,0-.72-.23-.95-.34-5.55-2.58-11.55-4.1-17.59-4.94-.65-.08-1.18-.11-1.18-.87,0-.65.68-2.89.91-3.65.23-.72.68-1.22,1.48-1.22.95,0,4.56.8,5.66,1.03Zm2.28-9.16c2.93.84,4.94,1.48,7.75,2.58.38.15.65.3.65.76,0,.76-.46,2.09-.76,2.81l-.23.57c-.38.95-.65,1.6-1.29,1.6-.27,0-.76-.23-1.03-.34-3.84-1.79-7.98-2.96-12.12-3.72-.65-.11-1.25-.19-1.25-.87,0-.65.49-2.28.72-3.04.27-.87.57-1.86,1.41-1.86.65,0,5.21,1.25,6.16,1.52Zm-6.04-8.51c.11-.19.19-.42.3-.61.42-.8.76-1.48,1.33-1.48,1.14,0,6.88,2.01,8.21,2.55.68.23,3.46,1.33,3.91,1.63.23.15.34.38.34.65,0,.76-.68,2.36-1.03,3.08-.3.68-.72,1.71-1.29,1.71-.3,0-1.14-.38-1.48-.53-3.31-1.56-6.76-2.66-10.26-3.69-.38-.11-.87-.23-.87-.68,0-.49.61-2.13.84-2.62Z"/><path class="cls-1" d="m102.17,244.53c.99,0,2.01,0,2.51-.08.27-.04.61-.08.87-.08.61,0,1.86,1.18,2.39,1.67.46.46,1.14,1.1,1.14,1.71,0,.34-.49,1.52-.61,1.9-2.05,5.77-5.43,10.14-10.18,13.91-1.1.91-5.02,3.72-6.31,3.72-1.14,0-3.8-3.34-3.8-4.06,0-.34.49-.57.76-.68,3.95-1.63,8.05-5.13,10.64-8.51.46-.61,1.67-2.32,1.67-3.04,0-.76-.76-.84-1.22-.84h-12.96c-1.71,0-3.38.04-5.05.04-1.14,0-1.29-.34-1.29-1.82v-2.17c0-1.52.23-1.75,1.22-1.75,1.75,0,3.5.08,5.24.08h14.97Zm-3.23-8.28c1.18,0,2.39,0,3.61-.04.49,0,.99-.08,1.48-.08.95,0,1.1.53,1.1,1.9v1.79c0,1.56-.04,2.05-1.22,2.05-1.67,0-3.34-.04-4.98-.04h-8.85c-1.63,0-3.3.04-4.98.04-1.14,0-1.22-.49-1.22-1.94v-2.09c0-1.25.23-1.71,1.1-1.71,1.14,0,3.23.11,5.09.11h8.85Z"/><path class="cls-1" d="m98.63,310.72c0,1.03.04,2.05.04,3.08,0,.68.04,1.41.04,2.13,0,1.18-.65,1.22-2.55,1.22h-1.56c-1.79,0-2.05-.23-2.05-1.1,0-1.71.08-3.42.08-5.13v-8.47c0-.57-.19-.95-.68-.95-.34,0-.84.38-1.1.57-1.03.72-6.27,4.22-7.14,4.22s-4.45-3.5-4.45-4.48c0-.42.46-.57.8-.68,2.01-.76,5.55-2.77,7.41-3.95,3.46-2.2,6.99-5.09,9.69-8.21,1.1-1.25,2.62-3.31,3.5-4.75.08-.19.23-.46.49-.46.57,0,3.76,2.32,4.9,3.15.46.34.76.72.76.95,0,.27-.27.34-.49.42-.53.11-.95.23-1.37.65-.91.91-2.58,3-5.43,5.89-.61.65-.87,1.1-.87,1.94v13.98Z"/><path class="cls-1" d="m98.1,343.22c3.65,4.18,7.26,7.67,12.2,10.18.34.19.87.46.87.95,0,.95-2.58,4.98-3.76,4.98-.84,0-3.88-2.24-4.67-2.89-3.76-2.93-6.27-5.77-9.31-9.42-.38-.42-.8-.91-1.41-.91-.65,0-1.37.68-1.82,1.1-1.41,1.29-2.77,2.58-4.22,3.8-.83.72-1.41,1.22-2.13,2.05-.19.23-.53.57-.84.57-.65,0-1.82-1.56-2.2-2.05-.42-.53-2.13-2.74-2.13-3.27,0-.34.57-.65.99-.84.08-.04.15-.08.19-.11,2.32-1.18,4.6-3.12,6.53-4.79,2.17-1.86,3.72-3.23,5.74-3.23,2.58,0,4.1,1.75,5.97,3.88Z"/><path class="cls-1" d="m76.79,382.85c0-1.06-.11-1.94-.11-2.7,0-.91.38-.99,1.6-.99h1.79c1.22,0,1.6.08,1.6.99,0,.57-.08,1.14-.08,1.67v5.21c0,1.25.65,1.29,1.71,1.29h22.19c1.94,0,3.84-.08,5.78-.08,1.22,0,1.33.15,1.33,1.41v2.2c0,.99-.11,1.22-1.22,1.22-1.98,0-3.91-.08-5.89-.08h-23.25c-1.37,0-2.7.11-4.07.11-1.25,0-1.44-.61-1.44-1.71,0-.8.08-1.56.08-2.32v-6.23Z"/><path class="cls-1" d="m5.09,14.78c-1.25,0-2.39.08-3.23.08-.91,0-.99-.42-.99-1.56v-2.17c0-1.18.08-1.6.99-1.6s2.01.11,3.23.11h.46c.61,0,1.06-.49,1.06-1.1v-.84c0-.46-.23-.53-.57-.53-.23,0-1.52.15-1.86.19-.15.04-.27.04-.42.04-.84,0-1.22-.57-1.79-1.63-.3-.57-.84-1.56-.84-2.2,0-.53.57-.57,1.37-.65,3.34-.38,7.64-1.41,10.68-2.81.19-.08.42-.11.61-.11.57,0,.84.3,1.63,1.14.34.34,2.09,2.32,2.39,2.66.11.15.23.3.23.53s-.23.3-.46.3c-.11,0-.19,0-.38-.04-.3-.04-.38-.04-.46-.04-.11,0-2.85.87-3.27.99-1.33.34-1.56.65-1.56,1.37v1.67c0,.61.49,1.06,1.06,1.06h.53c1.21,0,2.28-.11,3.19-.11s.99.38.99,1.44v2.32c0,1.14-.08,1.56-.99,1.56-.76,0-1.56-.08-2.32-.08-.23,0-.87-.04-.87.34,0,.76,3.04,4.1,3.72,4.75.19.19.34.34.34.65,0,.95-2.17,3.27-3.19,3.27-.53,0-1.41-1.25-1.71-1.71-.11-.11-.34-.46-.53-.46s-.23.27-.23.38v5.66c0,1.79.11,3.57.11,5.36,0,.95-.42,1.03-1.67,1.03h-2.24c-1.22,0-1.6-.08-1.6-1.03,0-1.79.08-3.57.08-5.36v-1.06c0-.15,0-.34-.15-.34s-.42.49-.46.61c-.3.57-1.1,2.09-1.75,2.09-.8,0-3.99-2.01-3.99-3.12,0-.49.49-1.06.95-1.63,1.79-2.28,3.15-4.86,4.18-7.56.15-.34.46-1.18.46-1.48,0-.34-.27-.38-.53-.38h-.23Zm18.16,7.9c-.11.49-.68,2.58-.68,2.93,0,.3.15.42.46.42.34,0,2.32-.38,2.77-.49.42-.08.87-.19.87-.65,0-.49-.76-2.28-.99-2.85-.11-.27-.34-.76-.34-1.06,0-1.1,3.61-1.98,4.52-1.98.53,0,.76.11,1.03.61.57,1.06,1.6,3.88,2.01,5.09.46,1.33,1.9,5.85,1.9,6.99,0,1.03-1.25,1.41-2.13,1.71-.76.27-1.82.57-2.66.57-.76,0-.91-.53-1.06-1.22-.42-2.13-.49-2.62-.99-2.62-.34,0-1.71.34-2.13.46-2.85.65-5.7,1.29-8.59,1.79-.53.11-.68.19-1.03.61-.23.27-.53.65-.95.65-.49,0-.65-.91-1.03-2.89-.11-.49-.23-1.06-.34-1.71-.08-.23-.15-.76-.15-.99,0-.65.3-.65,1.29-.76l.91-.11c1.33-.15,1.18-.34,1.79-2.89,1.71-7.37,3-14.86,3.91-22.34.15-1.14.11-1.79.76-1.79.8,0,4.03.8,5.05,1.03.3.08.95.19.95.61,0,.34-.3.53-.61.68-.27.19-.38.46-.46.8-1.18,6.5-2.51,12.99-4.1,19.42Z"/><path class="cls-1" d="m18.24,51.49c.72.19,1.86.53,1.86.91,0,.19-.23.3-.38.38-.53.27-.68.87-1.03,2.13-.08.34-.19.76-.34,1.25-.04.15-.08.3-.08.34,0,.46.3.68.72.68.57,0,2.51-.76,3.08-.99.3-.11.68-.27.95-.27,1.03,0,1.03,3.76,1.03,4.9,0,.53-.15.76-.76.95-1.52.49-3.95,1.06-5.43,1.37-1.63.34-1.75.38-2.2,1.75-1.6,4.6-4.86,12.84-7.29,16.79-.3.49-.53.91-1.18.91s-4.6-1.71-4.6-2.85c0-.34.3-.8.76-1.48,2.62-3.84,4.56-8.13,6.23-12.5.11-.23.27-.65.27-.87,0-.53-.42-.65-.84-.65-.76,0-1.67.11-2.51.11s-1.29-.11-1.52-.95c-.19-.72-.42-3.27-.42-4.03,0-.49.08-.87.68-.87.38,0,2.09.19,4.07.19s2.51,0,2.81-.95c.46-1.37,1.03-5.47,1.1-6.99,0-.23.08-.42.3-.42.49,0,4.03.95,4.71,1.14Zm-.95,23.71c1.56,1.86,4.45,2.28,6.72,2.28,2.13,0,3.69-.19,5.74-.8.12-.04.27-.08.42-.08.61,0,.68.84.68,2.05v1.14c0,2.09,0,2.55-.68,2.74-1.14.3-5.17.49-6.42.49-2.7,0-6.38-.34-8.62-1.98-.61-.46-1.82-1.52-1.82-2.39,0-.65,1.41-2.36,1.86-2.89.3-.34.99-1.1,1.44-1.1.27,0,.53.34.68.53Zm3.72-11.55c3.31,0,5.89.46,8.62,1.14.53.15.95.3.95.91,0,.87-.68,3.42-1.14,4.18-.15.27-.38.46-.72.46-.27,0-.65-.15-.95-.27-2.2-.87-4.22-1.03-6.54-1.03h-1.37c-.87,0-1.14-.11-1.14-.8,0-4.37.76-4.6,2.28-4.6Z"/><path class="cls-1" d="m19.26,104.04c0,.23-.15.38-.3.57-.57.65-1.06,2.01-1.06,2.43s.3.61.68.61c1.18,0,4.94-1.22,6.19-1.67.3-.11.8-.3,1.1-.3.57,0,.68.49.95,1.71.19.87.42,2.28.42,3.15,0,.8-.46.95-1.94,1.25-2.13.42-5.51.91-7.71,1.14-.57.08-1.21.15-1.52.68-.15.23-.42,1.33-.42,1.63s.23.46.53.46c.15,0,.23-.04.38-.11,1.52-.76,3.31-1.18,5.02-1.18,5.05,0,8.4,3.46,8.4,8.47,0,8.66-9.27,10.56-16.15,10.56-1.6,0-1.82-.3-2.17-1.79-.15-.65-.57-2.55-.57-3.19,0-.53.42-.95.95-.95s1.86.34,3.61.34c3.31,0,8.89-.91,8.89-5.17,0-1.98-1.33-3.08-2.81-3.08-2.62,0-5.74,1.52-7.52,3.34-.38.42-.84,1.03-1.18,1.48-.27.38-.61.76-1.06.76-.95,0-2.43-.8-3.15-1.33-.61-.46-1.14-.84-1.14-1.56,0-.53.3-1.1.53-1.56.53-1.1,2.17-5.13,2.17-6.19,0-.42-.34-.68-.72-.68-.19,0-2.92.34-4.29.34-.72,0-1.06-.27-1.25-.95-.27-.87-.65-3.08-.65-3.99,0-.57.15-.99.8-.99.3,0,2.96.27,5.78.27,1.71,0,2.05-.11,2.62-5.4.11-.91.19-1.6.84-1.6.72,0,5.77,1.41,5.77,2.47Z"/><path class="cls-1" d="m12.01,152.68c1.48-.19,2.36-.3,3.08-.3,1.03,0,1.1.08,1.37,2.93.23,2.43.38,3.57.65,4.6.11.46.3.99.87.99.72,0,4.1-2.01,4.94-2.51.57-.34,2.51-1.52,3-1.52.42,0,1.22,1.18,1.75,2.05.42.68,1.56,2.55,1.56,3.27,0,.42-.42.57-1.22.84-.15.08-.34.11-.53.19-3.46,1.18-8.28,3.69-11.97,6-1.82,1.14-4.45,2.85-4.45,4.83,0,2.55,4.83,2.55,6.57,2.55,1.94,0,3.95-.08,5.78-.3.8-.11,3.42-.53,4.03-.72.11,0,.27-.04.38-.04.38,0,.49.65.53.95.11,1.1.15,2.36.15,3.46s-.04,1.48-1.03,1.75c-1.75.46-8.32.65-10.41.65-3,0-5.62-.19-8.28-1.71-2.36-1.37-3.8-3.76-3.8-6.5,0-3.76,2.7-6.92,5.7-8.85.57-.34.91-.53.91-1.18,0-.27-.11-.57-.23-.91-.3-1.03-.57-2.09-.84-3.19-.42-1.86-.95-3.95-1.6-5.81-.04-.11-.11-.34-.11-.46,0-.46.46-.68,3.19-1.03Z"/><path class="cls-1" d="m13.72,226.1c-.11.27-.3.68-.61.68-.49,0-1.1-2.09-1.25-2.51-.19-.57-.8-2.28-.8-2.77,0-.53.38-.65.83-.8.34-.11.61-.27.91-.46.91-.53,1.75-1.03,2.66-1.63.46-.3.8-.49.95-.91,0-.04.12-.76.12-1.48,0-.61-.08-1.22-.38-1.22-.23,0-.87.27-1.25.42-.46.19-1.06.42-1.37.42-.38,0-.38-.19-.46-.57-.23-1.33-.72-2.89-1.14-4.22-.04-.11-.11-.42-.27-.42-.12,0-.12.3-.12.46,0,.8,0,1.33-.95,1.33-.38,0-.8-.04-1.14-.04-.57,0-1.1.46-1.1,1.03v2.43c0,.23.04.61.38.61.27,0,.8-.23,1.25-.46.49-.27.76-.42,1.03-.42.65,0,.65,2.51.65,3.04,0,1.63,0,1.71-2.51,3-.61.34-.8.72-.8,1.41v5.13c0,.91.08,1.82.08,2.77,0,3.65-2.58,4.56-5.74,4.56-1.25,0-2.13-.42-2.13-3.76,0-.76,0-1.75.68-1.75.65,0,1.1.08,1.44.08.57,0,.65-.27.65-1.94v-3.34c0-.23-.15-.42-.38-.42-.34,0-.53.38-.61.61-.11.3-.23.53-.53.53-.46,0-.68-.87-1.18-2.66-.15-.53-.65-2.17-.65-2.55,0-.53.46-.68,1.41-.95.23-.08.49-.15.76-.23.91-.3,1.18-.65,1.18-1.63v-4.1c0-.57-.53-.99-1.06-.99-.19,0-.46.04-.72.04-.95,0-1.03-.38-1.03-1.41v-2.09c0-1.18.08-1.6.95-1.6.27,0,.53.04.8.04.95,0,1.1-.72,1.1-1.82,0-.42-.04-.91-.04-1.44,0-.99-.08-2.05-.08-2.32,0-.57.38-.61.84-.61.99,0,2.85.08,3.91.15.57.04,1.14.04,1.14.57,0,.34-.23.46-.46.65-.3.23-.34.87-.34,1.86v1.71c0,.8.38,1.25,1.18,1.25.34,0,.68-.04,1.03-.04.87,0,.87.34.95.61.04.15.11.3.3.3s.42-.11.61-.19c.46-.23,1.44-.68,1.94-.68s.76.76,1.6,3.04c.08.11.15.46.34.46s.19-.46.19-.57v-4.48c0-1.52-.08-3.76-.08-3.91,0-.53.34-.65.8-.65.53,0,4.14.19,4.56.27.27.04.61.15.61.49,0,.27-.19.38-.42.49-.46.27-.49.53-.49,1.03v11.55c0,6.57,0,12.31-3.27,17.02-.46.68-2.62,3.65-3.34,3.65-.91,0-3.99-2.17-3.99-3.31,0-.23.3-.53.49-.72,1.67-1.56,3.04-3.57,3.95-5.7.11-.27.57-1.37.57-1.63,0-.15-.11-.15-.15-.15-.11,0-.72.46-1.14.8-.19.15-.34.3-.42.34-.3.3-.3.34-.46.72Zm14.29,1.29c0,1.75,0,2.17.61,2.17h.27c.68,0,.68-.49.87-2.58.04-.53.23-.68.76-.68,1.14,0,4.29.27,4.29,1.86s-.8,4.22-1.71,5.51c-.91,1.29-1.79,1.41-3.27,1.41h-1.86c-2.85,0-4.98-.72-4.98-3.99,0-1.14.04-2.24.04-3.38v-20.59c0-.68.04-1.6.04-2.51s-.04-1.82-.11-2.43c-.04-.11-.04-.23-.04-.34,0-.46.3-.53.68-.53.99,0,3,.11,4.07.19.61.04,1.14.08,1.14.61,0,.27-.15.34-.42.53-.3.27-.3.61-.34.99-.04.53-.04,1.14-.04,1.75v4.94c0,.15.04.61.27.61.38,0,1.6-3.08,1.75-3.53.08-.19.11-.38.34-.38.3,0,1.29.46,1.94.72.19.08.3.15.42.19.46.23,2.13.91,2.13,1.44,0,.34-.46.38-.68.46-.27.08-.38.34-.49.57-.3.84-2.2,5.21-3.04,5.21-.34,0-1.06-.3-1.41-.46-.23-.08-.57-.23-.8-.23-.34,0-.42.34-.42.61v1.25c0,.23.08.49.34.49.3,0,.72-.23.99-.38.23-.11.72-.34.99-.34s.42.19.57.38c.68.95,1.37,1.94,1.98,2.93.38.61,1.67,2.58,1.67,3.23,0,.72-3.08,2.17-3.57,2.17-.34,0-.42-.19-.49-.46-.23-.61-.99-1.9-1.33-2.55-.15-.23-.61-1.1-.91-1.1-.19,0-.23.3-.23.46v5.81Z"/><path class="cls-1" d="m11.13,260.34c1.1,0,1.56-.49,2.01-1.41.95-1.94,1.86-3.88,2.43-5.96.08-.23.12-.61.46-.61.23,0,1.71.61,2.89,1.1.65.3,1.22.53,1.44.61.42.19.84.38.84.84,0,.34-.34.46-.61.49-.65.08-.76.3-1.25,1.29-.27.49-.61,1.18-1.18,2.13-.19.3-.46.76-.46,1.1,0,.23.11.49.23.68.23.34.27.76.27,1.37,0,.57-.04,1.33-.04,2.39v5.24c0,1.48.08,2.89.08,4.37,0,1.29-.61,1.71-1.86,1.71-.99,0-2.01-.11-3.08-.11h-.34c-.34,0-.61.27-.61.61v.23c0,.49.42.91.91.91h1.18c1.18,0,2.36-.08,3.53-.08.91,0,.99.38.99,1.37v1.1c0,1.06-.15,1.37-.88,1.37-1.21,0-2.43-.08-3.65-.08h-1.03c-.61,0-1.06.57-1.06,1.18,0,1.25.08,2.51.08,3.76,0,.91-.38.99-1.52.99h-2.09c-1.1,0-1.48-.08-1.48-1.03,0-1.25.08-2.51.08-3.8,0-.57-.42-1.1-1.03-1.1h-1.25c-1.22,0-2.39.08-3.61.08-.68,0-.91-.3-.91-1.06v-1.33c0-1.03.04-1.44.99-1.44,1.18,0,2.36.08,3.53.08h1.37c.53,0,.91-.42.91-.91v-.23c0-.34-.27-.61-.61-.61h-.34c-1.06,0-2.05.11-3.04.11-1.25,0-1.9-.38-1.9-1.71,0-1.44.08-2.89.08-4.37v-5.24c0-.95-.04-1.86-.04-2.81,0-.53.11-1.03.68-1.25.23-.08.38-.3.38-.57s-.15-.57-.27-.8c-.46-1.1-1.1-2.47-1.67-3.5-.08-.15-.15-.34-.15-.49,0-1.03,2.89-1.98,3.5-1.98s.87.49,1.86,2.7c.23.49,1.14,2.39,1.14,2.85,0,.53-.87.95-1.33,1.14-.15.08-.53.23-.53.46,0,.19.27.23.42.23h5.55Zm-3.72,4.56c0-.38-.27-.61-.61-.61h-.27c-.34,0-.61.27-.61.61v.76c0,.34.27.61.61.61h.27c.34,0,.61-.27.61-.61v-.76Zm-.61,6.72c.34,0,.61-.27.61-.61v-.8c0-.3-.27-.61-.61-.61h-.27c-.34,0-.61.3-.61.61v.8c0,.34.23.57.61.61h.27Zm5.51-16.03c.15.42.76,2.09.76,2.43,0,.84-3.38,1.44-3.57,1.44-.49,0-.57-.3-.76-.87-.49-1.41-1.03-2.81-1.63-4.18-.08-.11-.15-.23-.15-.38,0-.76,2.89-1.63,3.38-1.63.53,0,.76.04,1.97,3.19Zm.04,10.07c0,.34.27.61.61.61h.27c.34,0,.61-.27.61-.61v-.76c0-.34-.27-.61-.61-.61h-.27c-.34,0-.57.23-.61.61v.76Zm.61,3.95c-.34,0-.61.3-.61.61v.8c0,.34.27.61.61.61h.27c.34,0,.61-.27.61-.61v-.8c0-.3-.23-.57-.61-.61h-.27Zm6.57-7.45c1.98,0,2.32-.08,2.32-1.94,0-.87-.08-2.13-.08-3.95v-2.62c0-.76.27-.99.99-.99.11,0,3.46.27,3.88.27.84.08,1.18.15,1.18.68,0,.42-.3.53-.61.72-.38.23-.38.65-.38,1.14v.87c0,1.41-.04,2.81-.04,4.22,0,.76.38,1.25,1.14,1.25.99,0,4.25-.23,5.32-.34h.08c.8,0,.87,1.14.87,2.66v1.14c0,1.41-.23,1.18-2.24,1.25-1.06.04-2.13.11-3.19.15-.68,0-1.9-.04-1.9,1.06,0,.49.11,2.32.15,2.89.04.61,0,1.03.27,1.03.23,0,1.18-1.82,1.63-2.74l.23-.46c.23-.49.38-.95.8-.95.23,0,.76.3,1.37.61.34.19.68.34.99.49l.38.19c.72.34,1.9.87,1.9,1.41,0,.27-.42.38-.61.46-.57.15-.65.23-.95.8-1.18,2.17-2.54,4.26-4.06,6.19-.19.27-.38.57-.38.91,0,.3.57,1.9,1.06,1.9.68,0,.91-2.2.95-2.74.08-.53.3-.72,1.14-.72,1.14,0,2.89.57,2.89,2.2,0,1.44-.42,3.31-.95,4.64-.65,1.6-1.79,3.23-3.69,3.23-2.32,0-3.91-1.44-4.98-3.38-.15-.27-.3-.53-.68-.53-.42,0-.8.38-1.1.65-.76.65-3.69,3.12-4.56,3.12s-3.12-2.55-3.12-3.34c0-.46.68-.84,1.03-1.06,1.75-1.06,4.6-3.08,5.93-4.56.3-.38.42-.72.42-1.18,0-.3-.08-.61-.11-.87-.34-1.86-.72-5.55-.76-7.45,0-.72-.23-1.41-1.1-1.41-.34,0-.84.11-1.21.11-.53,0-.72-.34-.8-.84-.11-.61-.23-2.05-.23-2.74,0-1.18.08-1.44.68-1.44h.15Zm10.98-8.81c1.03,0,3.95,4.86,3.95,5.4,0,.8-3.08,2.24-3.65,2.24-.3,0-.42-.27-.57-.49-.61-1.1-2.2-3.65-2.96-4.56-.08-.11-.15-.23-.15-.38,0-.72,2.7-2.2,3.38-2.2Z"/><path class="cls-1" d="m15.43,306.43c.3.08.84.23.84.53,0,.15-.15.27-.27.3-.61.34-.68.8-.87,1.75-.95,4.67-1.22,9.46-1.22,14.21,0,3,0,6.08,3.04,6.08,2.39,0,4.67-1.41,6.12-3.23,1.25-1.56,2.09-3.57,2.43-5.51.15-.76.27-1.44.91-1.44.84,0,1.98,1.03,2.58,1.56.68.61,1.82,1.63,1.82,2.58,0,1.14-1.06,3.65-1.63,4.67-2.43,4.48-6.73,7.45-11.93,7.45-2.7,0-5.58-.91-7.33-3.12-1.9-2.43-2.13-6.46-2.13-9.5,0-4.37.38-9.04.68-13.15.08-.8.11-2.09.11-2.96s0-1.33.65-1.33c.87,0,4.98.84,6.19,1.1Z"/><path class="cls-1" d="m19.72,354.08c.42.08,1.21.19,1.21.68,0,.46-.3.3-.57.91-.27.57-.49,1.63-.49,4.29,0,.68.27,1.18,1.03,1.18.99,0,3.34-.8,4.25-1.14.84-.3,1.44-.53,1.75-.53.53,0,.84.68,1.33,1.94.3.76.84,2.13.84,2.93,0,.49-.53.65-1.98,1.06-1.86.53-3.72.87-5.62,1.18-.91.15-1.56.3-1.56,1.41,0,.57.15,3.46.23,4.41.11,1.14.38,1.22,1.82,1.63,2.55.76,6.16,2.05,8.36,3.5.34.23.68.53.68.95,0,.99-1.94,4.22-2.89,4.22-.27,0-.68-.3-.91-.46-.95-.65-4.9-2.93-5.89-2.93-.34,0-.72.23-.8.8-.49,4.1-4.18,5.43-7.83,5.43s-8.32-1.67-8.32-6.16c0-4.71,4.75-6.76,8.81-6.76h.53c.57,0,1.03-.42,1.03-.99,0-.3-.19-4.29-.23-5.24-.11-3.91,0-7.9-.65-11.78-.04-.19-.08-.38-.08-.57,0-.53.46-.61.87-.61.8,0,4.1.49,5.05.65Zm-5.97,23.48c-1.1,0-4.18.23-4.18,1.71,0,1.1,1.94,1.25,2.73,1.25,1.41,0,2.85-.27,2.85-2.01,0-.87-.76-.95-1.41-.95Z"/><path class="cls-1" d="m28,421.04c0,6.38-4.9,11.89-10.33,14.74-.61.34-2.05,1.03-2.74,1.03-1.63,0-3.95-3.99-3.95-4.67,0-.38.38-.53.68-.61,2.7-.8,4.98-1.86,7.03-3.76,1.82-1.67,3.19-3.76,3.19-6.31s-1.86-4.03-4.29-4.03c-2.92,0-5.62,1.6-7.86,3.34-.19.19-.53.38-.8.38-1.25,0-2.96-3.91-2.96-5.17,0-.61.61-.91,1.06-1.14,3.04-1.52,7.52-3,10.94-3,5.66,0,10.03,3.23,10.03,9.19Zm-15.05-17.4c2.43,1.18,7.18,1.79,9.92,1.98.91.08,1.25.15,1.25.65,0,.34-.15,1.29-.3,2.24-.19,1.25-.42,2.81-1.52,2.81-1.9,0-7.22-1.18-9.16-1.71-2.39-.65-3.04-.84-3.04-1.44,0-.76.8-2.93,1.1-3.72.15-.42.38-1.06.95-1.06.27,0,.57.15.8.27Z"/><path class="cls-1" d="m33.85,458.66c0,3-2.43,5.43-5.43,5.43s-5.4-2.43-5.4-5.43,2.39-5.43,5.4-5.43,5.43,2.43,5.43,5.43Zm-8.62,0c0,1.79,1.44,3.23,3.19,3.23s3.23-1.44,3.23-3.23-1.44-3.19-3.23-3.19-3.19,1.44-3.19,3.19Z"/></g></svg>