<?xml version="1.0" encoding="UTF-8"?><svg id="_レイヤー_2" xmlns="http://www.w3.org/2000/svg" viewBox="0 0 551.64 143.84"><defs><style>.cls-1{fill:#3b241a;}</style></defs><g id="contents"><path class="cls-1" d="m53.37.14c1.32,0,2.4-.14,3.34-.14,1.13,0,1.22.47,1.22,1.97v2.21c0,1.5-.09,1.97-1.22,1.97-.71,0-1.41-.09-2.07-.09h-6.44c-1.55,0-1.6.8-1.6,2.11v27.45c0,2.4.09,4.75.09,7.14,0,1.5-.19,1.65-1.74,1.65h-2.73c-1.22,0-1.5-.14-1.5-1.5,0-2.44.09-4.84.09-7.28V6.86c0-1.69-.14-3.34-.14-5.03,0-1.55.75-1.79,2.12-1.79.99,0,1.93.09,2.87.09h7.71Z"/><path class="cls-1" d="m96.23,21.29c-1.5,0-3.2.09-4.51.09-.8,0-1.03-.28-1.03-1.97v-.38c0-.33-.09-.85-.56-.85-.28,0-.56.28-.8.42-.89.7-4.7,3.57-5.64,3.57-1.22,0-4.28-3.67-4.28-4.93,0-.56.61-.8,1.27-1.13,6.2-3.2,13.06-9.07,16.5-15.18.23-.42.38-.61.85-.61.56,0,6.34.89,7.14,1.08.38.09.75.28.75.75,0,.19-.09.33-.24.47-.09.14-.28.33-.28.56,0,.33,1.03,1.6,1.32,1.93,4.04,4.98,8.79,8.04,14.48,10.72.94.42,1.03.52,1.03.94,0,1.08-.99,2.82-1.5,3.81-.42.8-1.03,1.83-1.74,1.83-1.08,0-6.34-3.57-7.47-4.37-.14-.09-.33-.24-.47-.24-.56,0-.61.47-.61,1.18v.94c0,1.08-.24,1.46-1.03,1.46-1.27,0-2.58-.09-4.51-.09h-8.65Zm-2.26,19.46c-.42,0-.85.24-.85.71v.38c0,1.46-.38,1.46-3.29,1.46h-1.5c-1.69,0-2.35-.09-2.35-1.32,0-.66.14-2.54.14-4.18v-7.8c0-1.27-.09-2.58-.09-3.85,0-2.35,1.83-2.54,3.71-2.54,1.5,0,3.01.19,4.56.19h12.55c1.5,0,3.06-.19,4.56-.19,1.83,0,3.71.19,3.71,2.49,0,1.13-.09,2.44-.09,3.9v7.8c0,1.74.14,3.62.14,4.14,0,1.27-.66,1.36-2.3,1.36h-2.77c-1.55,0-2.16-.09-2.16-1.32,0-.19.05-.33.05-.47,0-.38-.28-.75-.8-.75h-13.21Zm12.78-5.83c.75,0,1.32-.56,1.32-1.32v-2.3c0-.75-.56-1.32-1.32-1.32h-12.45c-.71,0-1.32.56-1.32,1.32v2.3c0,.75.56,1.32,1.32,1.32h12.45Zm-1.27-19.79c.61,0,1.13-.05,1.13-.52s-.33-.8-.66-1.08c-1.27-1.17-3.24-3.38-4.37-4.75-.23-.28-.56-.7-.99-.7-.38,0-.66.23-.89.56-1.32,1.6-3.1,3.38-4.56,4.84-.28.23-.71.66-.71,1.08,0,.52.14.56,1.79.56h9.26Z"/><path class="cls-1" d="m160.81,29.94c0-.33-.24-.42-.61-.42-1.08,0-2.07-1.55-2.44-2.3-.09-.19-.24-.33-.33-.33-.24,0-.42.52-.89.52-.28,0-.66-.47-1.03-.99-.24-.33-.42-.56-.52-.56-.28,0-.33.28-.33.61v9.12c0,2.16.14,4.32.14,6.49,0,1.08-.42,1.22-1.69,1.22h-2.87c-1.32,0-1.83-.09-1.83-1.13,0-2.16.09-4.37.09-6.58v-1.83c0-.85-.05-.99-.28-.99s-.38.42-.56.89c-.38.94-.75,1.88-1.41,1.88-1.22,0-4.04-3.01-4.04-4.32,0-.52.28-1.08.61-1.65,2.44-4.09,4.65-13.35,4.65-14.33,0-.52-.33-.71-.85-.71-.61,0-1.27.09-1.88.09-.94,0-1.03-.52-1.03-1.6v-3.01c0-1.32.09-1.79,1.03-1.79.85,0,1.69.14,2.49.14.75,0,1.27-.71,1.27-1.41v-3.81c0-.75-.14-1.27-.14-1.5v-.42c0-.56.38-.66.8-.66.61,0,4.23.38,5.08.47.85.09,1.41.14,1.41.71,0,.28-.19.42-.52.71-.42.33-.47,1.22-.47,2.3v2.26c0,.71.56,1.32,1.32,1.32.28,0,.99-.09,1.46-.09.99,0,1.08.52,1.08,1.97v1.22c0,.28,0,.8.38.8s1.08-.94,1.88-1.97c2.11-2.73,3.76-6.02,4.7-8.98.09-.33.19-.75.56-.75.66,0,4.75,1.18,5.73,1.41,1.03.23,1.41.38,1.41.8,0,.28-.19.66-.71.75-.66.09-1.08.42-1.08,1.08,0,.52.42.66.85.66h4.65c1.32,0,2.58-.05,3.9-.05,2.07,0,3.62,2.87,3.62,3.48,0,2.02-4.61,7.61-6.2,9.16-.28.28-.56.66-.56,1.03,0,.47.47.8,1.17,1.27,1.88,1.27,4.28,2.54,6.44,3.52.56.23.94.38.94.94,0,1.27-1.88,5.08-3.01,5.08-.14,0-.33-.05-.52-.14-.19-.09-.38-.14-.47-.14-.24,0-.47.14-.47.75v7.9c0,1.5.14,3.67.14,4.32,0,.94-.52,1.03-1.93,1.03h-3.01c-1.27,0-1.83-.09-1.83-.99v-.28c0-.33-.19-.75-.99-.75h-5.78c-.47,0-.89.28-.89.75v.23c0,.94-.52,1.03-1.79,1.03h-3.05c-1.41,0-1.93-.09-1.93-1.03,0-.85.14-2.11.14-3.62v-8.79Zm-3.57-14.76q-.38-.66-1.83-.66c-.56,0-.75.23-.75.75v.28c0,1.08,2.91,4.18,3.76,5.08.42.47.75.85.75,1.17,0,.14-.05.38-.05.47,0,.24.24.52.56.52.38,0,2.58-1.13,4.56-2.21,1.79-.99,3.2-1.93,3.2-2.4,0-.38-.85-1.36-1.41-2.02-.28-.33-.61-.75-1.03-.75s-1.08.85-1.6,1.5c-.47.56-1.22,1.41-1.83,1.41-1.32,0-3.71-2.02-4.32-3.15Zm16.68,20.35c.71,0,1.32-.61,1.32-1.32v-1.79c0-.75-.61-1.32-1.32-1.32h-5.26c-.75,0-1.32.56-1.32,1.32v1.79c0,.75.52,1.27,1.32,1.32h5.26Zm.66-10.2c.28,0,.52-.05.52-.28,0-.09-.09-.19-.61-.61-.38-.28-.94-.71-1.41-1.08-.19-.14-.42-.33-.66-.33-.19,0-.75.38-1.03.56-.52.38-1.17.85-1.46,1.03-.38.23-.47.33-.47.47,0,.19.19.23.42.23h4.7Zm-3.81-14.47c-.38,0-.94.05-.94.56,0,.42,1.74,2.77,2.4,2.77.71,0,2.35-2.68,2.35-2.96,0-.33-.66-.38-1.41-.38h-2.4Z"/><path class="cls-1" d="m241.18,10.48c3.34,3.34,4.98,7.43,4.98,12.08,0,6.63-3.62,12.45-9.45,15.6-1.17.66-4.28,2.11-5.59,2.11-1.64,0-4.14-4.32-4.14-5.64,0-.42.42-.61,1.79-.94,5.45-1.41,9.92-4.84,9.92-10.86,0-7.38-5.64-10.29-7.05-10.29-.8,0-.89.85-.94,1.69-.52,6.53-2.4,14.52-6.72,19.69-1.74,2.12-4,3.9-6.81,3.9-3.15,0-5.73-2.16-7.14-4.84-1.08-2.07-1.55-4.75-1.55-7.05,0-11.28,8.69-20.26,20.02-20.26,4.79,0,9.31,1.41,12.69,4.79Zm-25.71,15.37c0,1.13.28,4.56,1.93,4.56,1.13,0,2.73-3.1,3.2-4.09,1.64-3.38,2.96-10.34,2.96-12.03,0-.38-.19-.71-.61-.71-1.36,0-7.47,4.32-7.47,12.27Z"/><path class="cls-1" d="m281.79,28.71c5.69,1.32,10.76,2.87,16.17,5.12.8.33,1.03.42,1.03.94,0,1.17-1.46,6.3-2.77,6.3-.33,0-.89-.28-1.17-.42-6.86-3.2-14.29-5.08-21.76-6.11-.8-.09-1.46-.14-1.46-1.08,0-.8.85-3.57,1.13-4.51.28-.89.85-1.5,1.83-1.5,1.17,0,5.64.99,7,1.27Zm2.82-11.33c3.62,1.03,6.11,1.83,9.59,3.2.47.19.8.38.8.94,0,.94-.56,2.58-.94,3.48l-.28.7c-.47,1.18-.8,1.97-1.6,1.97-.33,0-.94-.28-1.27-.42-4.75-2.21-9.87-3.67-14.99-4.61-.8-.14-1.55-.23-1.55-1.08,0-.8.61-2.82.89-3.76.33-1.08.71-2.3,1.74-2.3.8,0,6.44,1.55,7.61,1.88Zm-7.47-10.53c.14-.23.24-.52.38-.75.52-.99.94-1.83,1.65-1.83,1.41,0,8.51,2.49,10.15,3.15.85.28,4.28,1.65,4.84,2.02.28.19.42.47.42.8,0,.94-.85,2.91-1.27,3.81-.38.85-.89,2.12-1.6,2.12-.38,0-1.41-.47-1.83-.66-4.09-1.93-8.37-3.29-12.69-4.56-.47-.14-1.08-.28-1.08-.85,0-.61.75-2.63,1.03-3.24Z"/><path class="cls-1" d="m350.03,14.57c1.22,0,2.49,0,3.1-.09.33-.05.75-.09,1.08-.09.75,0,2.3,1.46,2.96,2.07.56.56,1.41,1.36,1.41,2.11,0,.42-.61,1.88-.75,2.35-2.54,7.14-6.72,12.55-12.59,17.2-1.36,1.13-6.2,4.61-7.8,4.61-1.41,0-4.7-4.14-4.7-5.03,0-.42.61-.71.94-.85,4.89-2.02,9.96-6.34,13.16-10.53.56-.75,2.07-2.87,2.07-3.76,0-.94-.94-1.03-1.5-1.03h-16.03c-2.12,0-4.18.05-6.25.05-1.41,0-1.6-.42-1.6-2.26v-2.68c0-1.88.28-2.16,1.5-2.16,2.16,0,4.32.09,6.49.09h18.52Zm-3.99-10.25c1.46,0,2.96,0,4.46-.05.61,0,1.22-.09,1.83-.09,1.18,0,1.36.66,1.36,2.35v2.21c0,1.93-.05,2.54-1.5,2.54-2.07,0-4.14-.05-6.16-.05h-10.95c-2.02,0-4.09.05-6.16.05-1.41,0-1.5-.61-1.5-2.4v-2.58c0-1.55.28-2.11,1.36-2.11,1.41,0,3.99.14,6.3.14h10.95Z"/><path class="cls-1" d="m404.37,34.59c0,1.27.05,2.54.05,3.81,0,.85.05,1.74.05,2.63,0,1.46-.8,1.5-3.15,1.5h-1.93c-2.21,0-2.54-.28-2.54-1.36,0-2.11.09-4.23.09-6.34v-10.48c0-.7-.24-1.17-.85-1.17-.42,0-1.03.47-1.36.71-1.27.89-7.75,5.22-8.83,5.22s-5.5-4.32-5.5-5.55c0-.52.56-.71.99-.85,2.49-.94,6.86-3.43,9.16-4.89,4.28-2.73,8.65-6.3,11.98-10.15,1.36-1.55,3.24-4.09,4.32-5.87.09-.23.28-.56.61-.56.71,0,4.65,2.87,6.06,3.9.56.42.94.89.94,1.17,0,.33-.33.42-.61.52-.66.14-1.17.28-1.69.8-1.13,1.13-3.2,3.71-6.72,7.28-.75.8-1.08,1.36-1.08,2.4v17.29Z"/><path class="cls-1" d="m461.56,15.93c4.51,5.17,8.98,9.49,15.09,12.6.42.23,1.08.56,1.08,1.17,0,1.17-3.2,6.16-4.65,6.16-1.03,0-4.79-2.77-5.78-3.57-4.65-3.62-7.75-7.14-11.51-11.66-.47-.52-.99-1.13-1.74-1.13-.8,0-1.69.85-2.26,1.36-1.74,1.6-3.43,3.2-5.22,4.7-1.03.89-1.74,1.5-2.63,2.54-.24.28-.66.71-1.03.71-.8,0-2.26-1.93-2.73-2.54-.52-.66-2.63-3.38-2.63-4.04,0-.42.71-.8,1.22-1.03.09-.05.19-.09.24-.14,2.87-1.46,5.69-3.85,8.08-5.92,2.68-2.3,4.61-3.99,7.1-3.99,3.2,0,5.08,2.16,7.38,4.79Z"/><path class="cls-1" d="m502.64,44.32c-1.32,0-2.4.14-3.34.14-1.13,0-1.22-.47-1.22-1.97v-2.21c0-1.5.09-1.97,1.22-1.97.71,0,1.41.09,2.07.09h6.44c1.55,0,1.6-.8,1.6-2.11V8.84c0-2.4-.09-4.75-.09-7.14,0-1.5.19-1.65,1.74-1.65h2.73c1.22,0,1.5.14,1.5,1.5,0,2.44-.09,4.84-.09,7.28v28.76c0,1.69.14,3.34.14,5.03,0,1.55-.75,1.79-2.12,1.79-.99,0-1.93-.09-2.87-.09h-7.71Z"/><path class="cls-1" d="m5.97,119.73c-1.55,0-2.96.09-4,.09-1.13,0-1.22-.52-1.22-1.93v-2.68c0-1.46.09-1.97,1.22-1.97s2.49.14,4,.14h.56c.75,0,1.32-.61,1.32-1.36v-1.03c0-.56-.28-.66-.71-.66-.28,0-1.88.19-2.3.23-.19.05-.33.05-.52.05-1.03,0-1.5-.71-2.21-2.02-.38-.71-1.03-1.93-1.03-2.73,0-.66.71-.71,1.69-.8,4.14-.47,9.45-1.74,13.21-3.48.23-.09.52-.14.75-.14.71,0,1.03.38,2.02,1.41.42.42,2.58,2.87,2.96,3.29.14.19.28.38.28.66s-.28.38-.56.38c-.14,0-.23,0-.47-.05-.38-.05-.47-.05-.56-.05-.14,0-3.52,1.08-4.04,1.22-1.65.42-1.93.8-1.93,1.69v2.07c0,.75.61,1.32,1.32,1.32h.66c1.5,0,2.82-.14,3.95-.14s1.22.47,1.22,1.79v2.87c0,1.41-.09,1.93-1.22,1.93-.94,0-1.93-.09-2.87-.09-.28,0-1.08-.05-1.08.42,0,.94,3.76,5.08,4.61,5.87.24.23.42.42.42.8,0,1.17-2.68,4.04-3.95,4.04-.66,0-1.74-1.55-2.12-2.11-.14-.14-.42-.56-.66-.56s-.28.33-.28.47v7c0,2.21.14,4.42.14,6.63,0,1.18-.52,1.27-2.07,1.27h-2.77c-1.5,0-1.97-.09-1.97-1.27,0-2.21.09-4.42.09-6.63v-1.32c0-.19,0-.42-.19-.42s-.52.61-.56.75c-.38.7-1.36,2.58-2.16,2.58-.99,0-4.93-2.49-4.93-3.85,0-.61.61-1.32,1.17-2.02,2.21-2.82,3.9-6.02,5.17-9.35.19-.42.56-1.46.56-1.83,0-.42-.33-.47-.66-.47h-.28Zm22.46,9.78c-.14.61-.85,3.2-.85,3.62,0,.38.19.52.56.52.42,0,2.87-.47,3.43-.61.52-.09,1.08-.23,1.08-.8,0-.61-.94-2.82-1.22-3.52-.14-.33-.42-.94-.42-1.32,0-1.36,4.46-2.44,5.59-2.44.66,0,.94.14,1.27.75.71,1.32,1.97,4.79,2.49,6.3.56,1.65,2.35,7.24,2.35,8.65,0,1.27-1.55,1.74-2.63,2.12-.94.33-2.26.71-3.29.71-.94,0-1.13-.66-1.32-1.5-.52-2.63-.61-3.24-1.22-3.24-.42,0-2.11.42-2.63.56-3.52.8-7.05,1.6-10.62,2.21-.66.14-.85.23-1.27.75-.28.33-.66.8-1.18.8-.61,0-.8-1.13-1.27-3.57-.14-.61-.28-1.32-.42-2.11-.09-.28-.19-.94-.19-1.22,0-.8.38-.8,1.6-.94l1.13-.14c1.64-.19,1.46-.42,2.21-3.57,2.11-9.12,3.71-18.38,4.84-27.63.19-1.41.14-2.21.94-2.21.99,0,4.98.99,6.25,1.27.38.09,1.17.23,1.17.75,0,.42-.38.66-.75.85-.33.24-.47.56-.56.99-1.46,8.04-3.1,16.07-5.08,24.02Z"/><path class="cls-1" d="m84.83,102.25c.89.24,2.3.66,2.3,1.13,0,.24-.28.38-.47.47-.66.33-.85,1.08-1.27,2.63-.09.42-.24.94-.42,1.55-.05.19-.09.38-.09.42,0,.56.38.85.89.85.71,0,3.1-.94,3.81-1.22.38-.14.85-.33,1.17-.33,1.27,0,1.27,4.65,1.27,6.06,0,.66-.19.94-.94,1.17-1.88.61-4.89,1.32-6.72,1.69-2.02.42-2.16.47-2.73,2.16-1.97,5.69-6.02,15.89-9.02,20.77-.38.61-.66,1.13-1.46,1.13s-5.69-2.11-5.69-3.52c0-.42.38-.99.94-1.83,3.24-4.75,5.64-10.06,7.71-15.46.14-.28.33-.8.33-1.08,0-.66-.52-.8-1.03-.8-.94,0-2.07.14-3.1.14s-1.6-.14-1.88-1.17c-.24-.89-.52-4.04-.52-4.98,0-.61.09-1.08.85-1.08.47,0,2.58.24,5.03.24s3.1,0,3.48-1.17c.56-1.69,1.27-6.77,1.36-8.65,0-.28.09-.52.38-.52.61,0,4.98,1.17,5.83,1.41Zm-1.17,29.33c1.93,2.3,5.5,2.82,8.32,2.82,2.63,0,4.56-.23,7.1-.99.14-.05.33-.09.52-.09.75,0,.85,1.03.85,2.54v1.41c0,2.58,0,3.15-.85,3.38-1.41.38-6.39.61-7.94.61-3.34,0-7.9-.42-10.67-2.44-.75-.56-2.26-1.88-2.26-2.96,0-.8,1.74-2.91,2.3-3.57.38-.42,1.22-1.36,1.79-1.36.33,0,.66.42.85.66Zm4.61-14.29c4.09,0,7.29.56,10.67,1.41.66.19,1.17.38,1.17,1.13,0,1.08-.85,4.23-1.41,5.17-.19.33-.47.56-.89.56-.33,0-.8-.19-1.17-.33-2.73-1.08-5.22-1.27-8.08-1.27h-1.69c-1.08,0-1.41-.14-1.41-.99,0-5.4.94-5.69,2.82-5.69Z"/><path class="cls-1" d="m144.85,105.4c0,.28-.19.47-.38.71-.71.8-1.32,2.49-1.32,3.01s.38.75.85.75c1.46,0,6.11-1.5,7.66-2.07.38-.14.99-.38,1.36-.38.71,0,.85.61,1.18,2.11.23,1.08.52,2.82.52,3.9,0,.99-.56,1.17-2.4,1.55-2.63.52-6.81,1.13-9.54,1.41-.71.09-1.5.19-1.88.85-.19.28-.52,1.65-.52,2.02s.28.56.66.56c.19,0,.28-.05.47-.14,1.88-.94,4.09-1.46,6.2-1.46,6.25,0,10.39,4.28,10.39,10.48,0,10.72-11.47,13.06-19.97,13.06-1.97,0-2.26-.38-2.68-2.21-.19-.8-.71-3.15-.71-3.95,0-.66.52-1.17,1.17-1.17s2.3.42,4.46.42c4.09,0,11-1.13,11-6.39,0-2.44-1.64-3.81-3.48-3.81-3.24,0-7.1,1.88-9.31,4.14-.47.52-1.03,1.27-1.46,1.83-.33.47-.75.94-1.32.94-1.17,0-3.01-.99-3.9-1.64-.75-.56-1.41-1.03-1.41-1.93,0-.66.38-1.36.66-1.93.66-1.36,2.68-6.34,2.68-7.66,0-.52-.42-.85-.89-.85-.24,0-3.62.42-5.31.42-.89,0-1.32-.33-1.55-1.17-.33-1.08-.8-3.81-.8-4.93,0-.71.19-1.22.99-1.22.38,0,3.67.33,7.14.33,2.12,0,2.54-.14,3.24-6.67.14-1.13.24-1.97,1.03-1.97.89,0,7.14,1.74,7.14,3.05Z"/><path class="cls-1" d="m194.02,103.7c1.83-.23,2.91-.38,3.81-.38,1.27,0,1.36.09,1.69,3.62.28,3.01.47,4.42.8,5.69.14.56.38,1.22,1.08,1.22.89,0,5.08-2.49,6.11-3.1.7-.42,3.1-1.88,3.71-1.88.52,0,1.5,1.46,2.16,2.54.52.85,1.93,3.15,1.93,4.04,0,.52-.52.71-1.5,1.03-.19.09-.42.14-.66.23-4.28,1.46-10.25,4.56-14.8,7.43-2.26,1.41-5.5,3.52-5.5,5.97,0,3.15,5.97,3.15,8.13,3.15,2.4,0,4.89-.09,7.14-.38.99-.14,4.23-.66,4.98-.89.14,0,.33-.05.47-.05.47,0,.61.8.66,1.17.14,1.36.19,2.91.19,4.28s-.05,1.83-1.27,2.16c-2.16.56-10.29.8-12.88.8-3.71,0-6.96-.23-10.25-2.11-2.91-1.69-4.7-4.65-4.7-8.04,0-4.65,3.34-8.55,7.05-10.95.71-.42,1.13-.66,1.13-1.46,0-.33-.14-.71-.28-1.13-.38-1.27-.71-2.58-1.03-3.95-.52-2.3-1.17-4.89-1.97-7.19-.05-.14-.14-.42-.14-.56,0-.56.56-.85,3.95-1.27Z"/><path class="cls-1" d="m256.15,131.85c-.14.33-.38.85-.75.85-.61,0-1.36-2.58-1.55-3.1-.23-.71-.99-2.82-.99-3.43,0-.66.47-.8,1.03-.99.42-.14.75-.33,1.13-.56,1.13-.66,2.16-1.27,3.29-2.02.56-.38.99-.61,1.17-1.13,0-.05.14-.94.14-1.83,0-.75-.09-1.5-.47-1.5-.28,0-1.08.33-1.55.52-.56.23-1.32.52-1.69.52-.47,0-.47-.23-.56-.71-.28-1.64-.89-3.57-1.41-5.22-.05-.14-.14-.52-.33-.52-.14,0-.14.38-.14.56,0,.99,0,1.65-1.17,1.65-.47,0-.99-.05-1.41-.05-.7,0-1.36.56-1.36,1.27v3.01c0,.28.05.75.47.75.33,0,.99-.28,1.55-.56.61-.33.94-.52,1.27-.52.8,0,.8,3.1.8,3.76,0,2.02,0,2.12-3.1,3.71-.75.42-.99.89-.99,1.74v6.34c0,1.13.09,2.26.09,3.43,0,4.51-3.2,5.64-7.1,5.64-1.55,0-2.63-.52-2.63-4.65,0-.94,0-2.16.85-2.16.8,0,1.36.09,1.79.09.71,0,.8-.33.8-2.4v-4.14c0-.28-.19-.52-.47-.52-.42,0-.66.47-.75.75-.14.38-.28.66-.66.66-.56,0-.85-1.08-1.46-3.29-.19-.66-.8-2.68-.8-3.15,0-.66.56-.85,1.74-1.18.28-.09.61-.19.94-.28,1.13-.38,1.46-.8,1.46-2.02v-5.08c0-.71-.66-1.22-1.32-1.22-.24,0-.56.05-.89.05-1.17,0-1.27-.47-1.27-1.74v-2.58c0-1.46.09-1.97,1.17-1.97.33,0,.66.05.99.05,1.17,0,1.36-.89,1.36-2.26,0-.52-.05-1.13-.05-1.79,0-1.22-.09-2.54-.09-2.87,0-.71.47-.75,1.03-.75,1.22,0,3.52.09,4.84.19.7.05,1.41.05,1.41.7,0,.42-.28.56-.56.8-.38.28-.42,1.08-.42,2.3v2.11c0,.99.47,1.55,1.46,1.55.42,0,.85-.05,1.27-.05,1.08,0,1.08.42,1.17.75.05.19.14.38.38.38s.52-.14.75-.23c.56-.28,1.79-.85,2.4-.85s.94.94,1.97,3.76c.09.14.19.56.42.56s.23-.56.23-.71v-5.55c0-1.88-.09-4.65-.09-4.84,0-.66.42-.8.99-.8.66,0,5.12.24,5.64.33.33.05.75.19.75.61,0,.33-.24.47-.52.61-.56.33-.61.66-.61,1.27v14.29c0,8.13,0,15.23-4.04,21.05-.56.85-3.24,4.51-4.14,4.51-1.13,0-4.93-2.68-4.93-4.09,0-.28.38-.66.61-.89,2.07-1.93,3.76-4.42,4.89-7.05.14-.33.7-1.69.7-2.02,0-.19-.14-.19-.19-.19-.14,0-.89.56-1.41.99-.23.19-.42.38-.52.42-.38.38-.38.42-.56.89Zm17.67,1.6c0,2.16,0,2.68.75,2.68h.33c.85,0,.85-.61,1.08-3.2.05-.66.28-.85.94-.85,1.41,0,5.31.33,5.31,2.3s-.99,5.22-2.12,6.81c-1.13,1.6-2.21,1.74-4.04,1.74h-2.3c-3.52,0-6.16-.89-6.16-4.94,0-1.41.05-2.77.05-4.18v-25.47c0-.85.05-1.97.05-3.1s-.05-2.26-.14-3.01c-.05-.14-.05-.28-.05-.42,0-.56.38-.66.85-.66,1.22,0,3.71.14,5.03.24.75.05,1.41.09,1.41.75,0,.33-.19.42-.52.66-.38.33-.38.75-.42,1.22-.05.66-.05,1.41-.05,2.16v6.11c0,.19.05.75.33.75.47,0,1.97-3.81,2.16-4.37.09-.23.14-.47.42-.47.38,0,1.6.56,2.4.89.24.09.38.19.52.23.56.28,2.63,1.13,2.63,1.79,0,.42-.56.47-.85.56-.33.09-.47.42-.61.71-.38,1.03-2.73,6.44-3.76,6.44-.42,0-1.32-.38-1.74-.56-.28-.09-.71-.28-.99-.28-.42,0-.52.42-.52.75v1.55c0,.28.09.61.42.61.38,0,.89-.28,1.22-.47.28-.14.89-.42,1.22-.42s.52.23.71.47c.85,1.18,1.69,2.4,2.44,3.62.47.75,2.07,3.2,2.07,4,0,.89-3.81,2.68-4.42,2.68-.42,0-.52-.23-.61-.56-.28-.75-1.22-2.35-1.64-3.15-.19-.28-.75-1.36-1.13-1.36-.24,0-.28.38-.28.56v7.19Z"/><path class="cls-1" d="m316.88,110.75c1.36,0,1.93-.61,2.49-1.74,1.17-2.4,2.3-4.79,3.01-7.38.09-.28.14-.75.56-.75.28,0,2.12.75,3.57,1.36.8.38,1.5.66,1.79.75.52.24,1.03.47,1.03,1.03,0,.42-.42.56-.75.61-.8.09-.94.38-1.55,1.6-.33.61-.75,1.46-1.46,2.63-.24.38-.56.94-.56,1.36,0,.28.14.61.28.85.28.42.33.94.33,1.69,0,.71-.05,1.65-.05,2.96v6.49c0,1.83.09,3.57.09,5.4,0,1.6-.75,2.11-2.3,2.11-1.22,0-2.49-.14-3.81-.14h-.42c-.42,0-.75.33-.75.75v.28c0,.61.52,1.13,1.13,1.13h1.46c1.46,0,2.91-.09,4.37-.09,1.13,0,1.22.47,1.22,1.69v1.36c0,1.32-.19,1.69-1.08,1.69-1.5,0-3.01-.09-4.51-.09h-1.27c-.75,0-1.32.7-1.32,1.46,0,1.55.09,3.1.09,4.65,0,1.13-.47,1.22-1.88,1.22h-2.58c-1.36,0-1.83-.09-1.83-1.27,0-1.55.09-3.1.09-4.7,0-.71-.52-1.36-1.27-1.36h-1.55c-1.5,0-2.96.09-4.46.09-.85,0-1.13-.38-1.13-1.32v-1.65c0-1.27.05-1.79,1.22-1.79,1.46,0,2.91.09,4.37.09h1.69c.66,0,1.13-.52,1.13-1.13v-.28c0-.42-.33-.75-.75-.75h-.42c-1.32,0-2.54.14-3.76.14-1.55,0-2.35-.47-2.35-2.11,0-1.79.09-3.57.09-5.4v-6.49c0-1.17-.05-2.3-.05-3.48,0-.66.14-1.27.85-1.55.28-.09.47-.38.47-.7s-.19-.71-.33-.99c-.56-1.36-1.36-3.05-2.07-4.32-.09-.19-.19-.42-.19-.61,0-1.27,3.57-2.44,4.32-2.44s1.08.61,2.3,3.34c.28.61,1.41,2.96,1.41,3.52,0,.66-1.08,1.17-1.64,1.41-.19.09-.66.28-.66.56,0,.23.33.28.52.28h6.86Zm-4.61,5.64c0-.47-.33-.75-.75-.75h-.33c-.42,0-.75.33-.75.75v.94c0,.42.33.75.75.75h.33c.42,0,.75-.33.75-.75v-.94Zm-.75,8.32c.42,0,.75-.33.75-.75v-.99c0-.38-.33-.75-.75-.75h-.33c-.42,0-.75.38-.75.75v.99c0,.42.28.71.75.75h.33Zm6.81-19.83c.19.52.94,2.58.94,3.01,0,1.03-4.18,1.79-4.42,1.79-.61,0-.71-.38-.94-1.08-.61-1.74-1.27-3.48-2.02-5.17-.09-.14-.19-.28-.19-.47,0-.94,3.57-2.02,4.18-2.02.66,0,.94.05,2.44,3.95Zm.05,12.45c0,.42.33.75.75.75h.33c.42,0,.75-.33.75-.75v-.94c0-.42-.33-.75-.75-.75h-.33c-.42,0-.71.28-.75.75v.94Zm.75,4.89c-.42,0-.75.38-.75.75v.99c0,.42.33.75.75.75h.33c.42,0,.75-.33.75-.75v-.99c0-.38-.28-.7-.75-.75h-.33Zm8.13-9.21c2.44,0,2.87-.09,2.87-2.4,0-1.08-.09-2.63-.09-4.89v-3.24c0-.94.33-1.22,1.22-1.22.14,0,4.28.33,4.79.33,1.03.09,1.46.19,1.46.85,0,.52-.38.66-.75.89-.47.28-.47.8-.47,1.41v1.08c0,1.74-.05,3.48-.05,5.22,0,.94.47,1.55,1.41,1.55,1.22,0,5.26-.28,6.58-.42h.09c.99,0,1.08,1.41,1.08,3.29v1.41c0,1.74-.28,1.46-2.77,1.55-1.32.05-2.63.14-3.95.19-.85,0-2.35-.05-2.35,1.32,0,.61.14,2.87.19,3.57.05.75,0,1.27.33,1.27.28,0,1.46-2.26,2.02-3.38l.28-.56c.28-.61.47-1.17.99-1.17.28,0,.94.38,1.69.75.42.23.85.42,1.22.61l.47.23c.89.42,2.35,1.08,2.35,1.74,0,.33-.52.47-.75.56-.71.19-.8.28-1.17.99-1.46,2.68-3.15,5.26-5.03,7.66-.24.33-.47.7-.47,1.13,0,.38.71,2.35,1.32,2.35.85,0,1.13-2.73,1.17-3.38.09-.66.38-.89,1.41-.89,1.41,0,3.57.71,3.57,2.73,0,1.79-.52,4.09-1.17,5.73-.8,1.97-2.21,4-4.56,4-2.87,0-4.84-1.79-6.16-4.18-.19-.33-.37-.66-.85-.66-.52,0-.99.47-1.36.8-.94.8-4.56,3.85-5.64,3.85s-3.85-3.15-3.85-4.14c0-.56.85-1.03,1.27-1.32,2.16-1.32,5.69-3.81,7.33-5.64.38-.47.52-.89.52-1.46,0-.38-.09-.75-.14-1.08-.42-2.3-.89-6.86-.94-9.21,0-.89-.28-1.74-1.36-1.74-.42,0-1.03.14-1.5.14-.66,0-.89-.42-.99-1.03-.14-.75-.28-2.54-.28-3.38,0-1.46.09-1.79.85-1.79h.19Zm13.58-10.9c1.27,0,4.89,6.02,4.89,6.67,0,.99-3.81,2.77-4.51,2.77-.38,0-.52-.33-.71-.61-.75-1.36-2.73-4.51-3.67-5.64-.09-.14-.19-.28-.19-.47,0-.89,3.34-2.73,4.18-2.73Z"/><path class="cls-1" d="m383.62,105.58c.38.09,1.03.28,1.03.66,0,.19-.19.33-.33.38-.75.42-.85.99-1.08,2.16-1.17,5.78-1.5,11.7-1.5,17.58,0,3.71,0,7.52,3.76,7.52,2.96,0,5.78-1.74,7.57-3.99,1.55-1.93,2.58-4.42,3.01-6.81.19-.94.33-1.79,1.13-1.79,1.03,0,2.44,1.27,3.2,1.93.85.75,2.26,2.02,2.26,3.2,0,1.41-1.32,4.51-2.02,5.78-3.01,5.55-8.32,9.21-14.76,9.21-3.34,0-6.91-1.13-9.07-3.85-2.35-3.01-2.63-7.99-2.63-11.75,0-5.4.47-11.19.85-16.26.09-.99.14-2.58.14-3.67s0-1.65.8-1.65c1.08,0,6.16,1.03,7.66,1.36Z"/><path class="cls-1" d="m444.71,102.67c.52.09,1.5.24,1.5.85,0,.56-.38.38-.71,1.13-.33.71-.61,2.02-.61,5.31,0,.85.33,1.46,1.27,1.46,1.22,0,4.14-.99,5.26-1.41,1.03-.38,1.79-.66,2.16-.66.66,0,1.03.85,1.64,2.4.38.94,1.03,2.63,1.03,3.62,0,.61-.66.8-2.44,1.32-2.3.66-4.61,1.08-6.96,1.46-1.13.19-1.93.38-1.93,1.74,0,.71.19,4.28.28,5.45.14,1.41.47,1.5,2.26,2.02,3.15.94,7.61,2.54,10.34,4.32.42.28.85.66.85,1.17,0,1.22-2.4,5.22-3.57,5.22-.33,0-.85-.38-1.13-.56-1.17-.8-6.06-3.62-7.29-3.62-.42,0-.89.28-.99.99-.61,5.08-5.17,6.72-9.68,6.72s-10.29-2.07-10.29-7.61c0-5.83,5.87-8.37,10.9-8.37h.66c.71,0,1.27-.52,1.27-1.22,0-.38-.24-5.31-.28-6.49-.14-4.84,0-9.78-.8-14.57-.05-.23-.09-.47-.09-.71,0-.66.56-.75,1.08-.75.99,0,5.08.61,6.25.8Zm-7.38,29.04c-1.36,0-5.17.28-5.17,2.11,0,1.36,2.4,1.55,3.38,1.55,1.74,0,3.52-.33,3.52-2.49,0-1.08-.94-1.17-1.74-1.17Z"/><path class="cls-1" d="m512.44,123.86c0,7.9-6.06,14.71-12.78,18.23-.75.42-2.54,1.27-3.38,1.27-2.02,0-4.89-4.93-4.89-5.78,0-.47.47-.66.85-.75,3.34-.99,6.16-2.3,8.69-4.65,2.26-2.07,3.95-4.65,3.95-7.8s-2.3-4.98-5.31-4.98c-3.62,0-6.96,1.97-9.73,4.14-.23.23-.66.47-.99.47-1.55,0-3.67-4.84-3.67-6.39,0-.75.75-1.13,1.32-1.41,3.76-1.88,9.31-3.71,13.54-3.71,7,0,12.41,3.99,12.41,11.37Zm-18.61-21.52c3.01,1.46,8.88,2.21,12.27,2.44,1.13.09,1.55.19,1.55.8,0,.42-.19,1.6-.38,2.77-.24,1.55-.52,3.48-1.88,3.48-2.35,0-8.93-1.46-11.33-2.11-2.96-.8-3.76-1.03-3.76-1.79,0-.94.99-3.62,1.36-4.61.19-.52.47-1.32,1.17-1.32.33,0,.71.19.99.33Z"/><path class="cls-1" d="m551.64,135.29c0,3.71-3.01,6.72-6.72,6.72s-6.67-3.01-6.67-6.72,2.96-6.72,6.67-6.72,6.72,3.01,6.72,6.72Zm-10.67,0c0,2.16,1.79,3.95,3.95,3.95s4-1.79,4-3.95-1.79-3.95-4-3.95-3.95,1.74-3.95,3.95Z"/></g></svg>