<?xml version="1.0" encoding="UTF-8"?>
<svg id="_レイヤー_2" xmlns="http://www.w3.org/2000/svg" version="1.1" viewBox="0 0 588.4 144">
  <!-- Generator: Adobe Illustrator 29.4.0, SVG Export Plug-In . SVG Version: 2.1.0 Build 152)  -->
  <defs>
    <style>
      .st0 {
        fill: #3b241a;
      }
    </style>
  </defs>
  <g id="contents">
    <g>
      <path class="st0" d="M56.8.1c1.3,0,2.4-.1,3.3-.1s1.2.5,1.2,2v2.2c0,1.5,0,2-1.2,2s-1.4,0-2.1,0h-6.4c-1.5,0-1.6.8-1.6,2.1v27.5c0,2.4,0,4.8,0,7.1s-.2,1.7-1.7,1.7h-2.7c-1.2,0-1.5-.1-1.5-1.5,0-2.4,0-4.8,0-7.3V6.9c0-1.7-.1-3.3-.1-5s.8-1.8,2.1-1.8,1.9,0,2.9,0h7.7Z"/>
      <path class="st0" d="M506,44.3c-1.3,0-2.4.1-3.3.1s-1.2-.5-1.2-2v-2.2c0-1.5,0-2,1.2-2s1.4,0,2.1,0h6.4c1.6,0,1.6-.8,1.6-2.1V8.8c0-2.4,0-4.8,0-7.1s.2-1.6,1.7-1.6h2.7c1.2,0,1.5.1,1.5,1.5,0,2.4,0,4.8,0,7.3v28.8c0,1.7.1,3.3.1,5s-.8,1.8-2.1,1.8-1.9,0-2.9,0h-7.7,0Z"/>
      <path class="st0" d="M588.4,135.3c0,3.7-3,6.7-6.7,6.7s-6.7-3-6.7-6.7,3-6.7,6.7-6.7,6.7,3,6.7,6.7ZM577.8,135.3c0,2.2,1.8,3.9,4,3.9s4-1.8,4-3.9-1.8-3.9-4-3.9-4,1.7-4,3.9Z"/>
    </g>
  </g>
  <g>
    <path class="st0" d="M106.5,2.7c4.6,6.6,11.6,12,18.4,14.8-1.2,1.3-2.4,3-3.3,4.6-2.2-1.1-4.4-2.5-6.6-4.1v3h-21.4v-3c-2.1,1.5-4.4,3-6.7,4.2-.7-1.2-2.1-3.1-3.2-4.2,7.4-3.6,14.3-10.1,17.5-15.3h5.3ZM90.8,25.2h27.3v17.6h-5.2v-1.6h-17v1.6h-5v-17.6ZM112.9,16.4c-3.6-2.8-6.8-5.9-8.8-8.7-2,2.9-5,5.9-8.6,8.7h17.4ZM95.8,29.7v7h17v-7h-17Z"/>
    <path class="st0" d="M184.2,7.4c-1.5,4.5-3.7,8.3-6.5,11.4,2.7,2.1,6,3.7,9.7,4.8-1,1-2.5,3-3.1,4.3l-.8-.3v14h-4.9v-1.4h-9v1.5h-4.8v-13.8c-.7.3-1.5.6-2.2.9-.5-1-1.4-2.4-2.2-3.4l-.4.6c-.5-1.1-1.4-2.7-2.4-4.2v19.8h-4.8v-16.3c-1.2,3.4-2.7,6.6-4.3,8.8-.5-1.4-1.6-3.4-2.4-4.6,2.6-3.4,5.1-9.3,6.3-14.4h-5.2v-4.7h5.6V1.5h4.8v8.8h4.8v2.3c3.1-3,5.7-7.1,7.3-11.2l4.9,1.3c-.4,1.1-.9,2.1-1.4,3.2h6.9l.9-.2,3.2,1.5ZM161.3,24.2c3.4-1.3,6.7-3.1,9.5-5.4-1.2-1.4-2.3-2.8-3.2-4.2-1,1.2-2.1,2.4-3.2,3.3-.6-.7-2-1.9-3.1-2.8h-3.7v1c1.2,1.2,4.4,5.1,5.1,6.1l-1.5,2ZM179.4,25.6c-1.9-1-3.6-2.2-5.2-3.5-1.5,1.3-3.2,2.5-4.9,3.5h10.1ZM178.5,35.8v-5.8h-9v5.8h9ZM170.7,10.4l-.3.4c1,1.6,2.2,3.3,3.7,4.8,1.4-1.6,2.7-3.4,3.7-5.2h-7.1Z"/>
    <path class="st0" d="M232.9,40.1l-3.2-5.1c1.6-.2,2.8-.4,4-.7,5.5-1.3,9.8-5.2,9.8-11.5s-3.2-10.4-9-11.4c-.6,3.7-1.3,7.6-2.6,11.7-2.6,8.7-6.3,14-11,14s-8.7-5.2-8.7-12.5,8.6-18.4,19.7-18.4,17.4,7.4,17.4,16.8-5.5,15.5-16.4,17.2ZM221.1,30.4c1.8,0,3.5-2.7,5.2-8.5,1-3.2,1.8-6.8,2.3-10.4-7.1,1.5-10.9,7.7-10.9,12.5s1.7,6.4,3.4,6.4Z"/>
    <path class="st0" d="M301.5,35.3l-2.4,5.4c-5.8-2.4-19.4-5.4-26.3-6.4l2.1-5.4c7.4,1.2,20.6,4.3,26.5,6.4ZM299.7,21.8l-2.1,5.4c-4.9-1.9-16-4.4-22.4-5.4l2-5.2c6.1,1,17.1,3.4,22.5,5.2ZM302.6,10l-2.2,5.4c-5-1.8-17.2-4.6-23.3-5.4l2-5.1c5.6.7,18,3.2,23.4,5.1Z"/>
    <path class="st0" d="M360.3,18.9c-1.3,4.2-3.1,8.3-6.4,11.9-4.3,4.8-9.8,7.7-15.4,9.3l-4.3-4.9c6.4-1.3,11.6-4.2,14.9-7.5,2.3-2.4,3.7-5,4.4-7.4h-20.8c-1,0-3.2,0-5,.2v-5.6c1.8.1,3.7.3,5,.3h21.3c1.4,0,2.5-.2,3.1-.4l3.8,2.4c-.3.6-.6,1.3-.8,1.8ZM336.3,4.9h16.6c1.3,0,3.4,0,4.6-.2v5.5c-1.2,0-3.2-.1-4.7-.1h-16.5c-1.4,0-3.2,0-4.5.1v-5.5c1.2.2,3,.2,4.5.2Z"/>
    <path class="st0" d="M400.2,14.5c4.4-2.8,9.3-7.1,12.1-10.4l4.6,4.4c-3.3,3.2-7.4,6.6-11.6,9.3v17.4c0,1.9,0,4.6.4,5.6h-6.8c.2-1,.3-3.7.3-5.6v-13.8c-4.4,2.3-9.9,4.6-15.2,6.2l-2.7-5.4c7.7-2,14-4.8,18.8-7.7Z"/>
    <path class="st0" d="M445.6,22.9c2-2.1,5.3-6.5,8-9.6,3-3.4,5.8-3.7,8.9-.6,2.9,2.8,6.4,7.3,8.9,10,2.8,3,6.4,6.9,10.5,10.5l-4.4,5.2c-3.1-2.9-6.8-7.1-9.5-10.3-2.7-3.2-5.9-7.3-7.9-9.5-1.5-1.7-2.3-1.5-3.6.1-1.7,2.2-4.8,6.4-6.6,8.9-1,1.4-2,3-2.7,4.1l-5.2-5.4c1.3-1,2.4-2,3.7-3.4Z"/>
    <path class="st0" d="M42.1,140.1h-16.4v1.7h-4.8v-18.8c-.3.3-.6.5-.9.7-.5-.6-1.5-1.9-2.5-2.9v15.8h-7.8v3.4h-4.1v-10.9c-.5.8-1,1.6-1.5,2.4-.5-1.2-1.8-3.7-2.7-4.9,3-4.3,4.6-10.8,5.6-17.8H2.8v-4.6h15.4v1.5h8.7c.4-1.3.8-2.6,1.1-4l4.8.9c-.3,1.1-.6,2.1-.9,3.1h9.9v7.8h-4.5v-3.5h-7c-.8,1.9-1.7,3.7-2.8,5.4h3.5c.6-1.5,1.2-3.1,1.5-4.3l4.6,1c-.5,1.2-1.1,2.3-1.6,3.4h5.5v4.2h-6.5v2.9h5.5v3.7h-5.5v3.1h5.5v3.7h-5.5v3.1h7.5v4.2ZM13.2,121.1h-3.5v11.1h3.5v-11.1ZM17.5,119.2c3.2-2.4,5.8-5.5,7.7-9.3h-3v3.5h-4.3v-4.6h-6.1c-.4,2.7-.9,5.4-1.5,8h7.3v2.5ZM30,119.5h-4.2v2.9h4.2v-2.9ZM30,126.1h-4.2v3.1h4.2v-3.1ZM25.8,135.9h4.2v-3.1h-4.2v3.1Z"/>
    <path class="st0" d="M90.9,131.6c3.1,3.4,7.9,5.4,14.7,6.1-1,1.1-2.4,3.1-3,4.5-8.2-1.3-13.3-4.3-16.7-9.7-2.5,3.8-7.3,7.2-16.1,9.6-.6-1.1-2.1-3.1-3.2-4.1,7.2-1.6,11.4-3.9,13.7-6.4h-12.9v-4.4h15.4c.2-.9.3-1.8.4-2.7h-11v-4.1h11.1v-2.6h-11.7v-2.8h-3.8v-9.2h15.7v-3.7h5.2v3.7h15.7v9.2h-3.4v2.8h-12.6v2.6h11.7v4.1h-11.7c0,.9-.1,1.8-.3,2.7h17v4.4h-14.1ZM83.3,113.6v-2.5h5.1v2.5h10.7v-3.4h-26.3v3.4h10.5Z"/>
    <path class="st0" d="M148.2,110.1c2.1-.4,4.1-.9,5.8-1.4l.2,5c-2,.5-4.6,1.1-7.5,1.5-2.1,6-5.7,13.5-9.2,18.4l-5.2-2.7c3.4-4.2,6.9-10.5,8.8-15.2-.8,0-1.5,0-2.2,0-1.8,0-3.5,0-5.4-.2l-.4-5c1.8.2,4.1.3,5.7.3s2.6,0,3.9-.2c.6-2.4,1.1-4.9,1.2-7.2l5.9.6c-.3,1.4-.9,3.6-1.5,5.9ZM159.8,123.1c0,1.2.2,3.3.3,5.5,3.7,1.4,6.7,3.5,8.9,5.5l-2.9,4.6c-1.5-1.4-3.4-3.2-5.8-4.6v.4c0,4-2.2,7.1-8.3,7.1s-9.5-2.4-9.5-7.1,3.5-7.4,9.5-7.4,2,0,3,.2c-.2-3.2-.4-7-.5-9.6h5.4c-.1,1.8,0,3.6,0,5.5ZM151.2,136.6c3,0,3.9-1.6,3.9-4v-.9c-1.1-.3-2.3-.4-3.5-.4-2.5,0-4.1,1.1-4.1,2.6s1.3,2.7,3.7,2.7ZM156.8,113.7l2.8-4.3c3.1,1.3,8.4,4.3,10.6,5.8l-3.1,4.5c-2.5-2-7.4-4.8-10.3-6.1Z"/>
    <path class="st0" d="M225.7,124.5c-1.9,4.2-4.8,7.5-8.3,10,4.1,1.5,8.9,2.5,14.2,2.9-1.1,1.2-2.5,3.4-3.1,4.8-6.2-.8-11.8-2.2-16.4-4.5-4.9,2.4-10.7,3.8-16.7,4.6-.5-1.2-1.9-3.5-3-4.5,5.4-.6,10.4-1.5,14.6-3.1-2.6-1.8-4.9-4.1-6.8-6.8l1.4-.6h-2v-4.7h21.7l.9-.2,3.4,2.1ZM198.2,124.2h-4.8v-9.3h6.1c-.4-1.3-1.2-3.1-2-4.4l3.8-1.1c-2.1.1-4.3.2-6.4.3,0-1.3-.7-3.2-1.2-4.3,11.3-.4,24.3-1.4,32.1-2.9l3.4,4.1c-4.6.9-10.2,1.5-15.9,2.1.9,1.7,1.7,4,1.9,5.5l-3.2.8h7.5c1-2,2.1-4.5,2.8-6.4l5.5,1.3c-1,1.8-2.1,3.6-3.1,5.2h6.1v9.3h-5v-4.9h-27.7v4.9ZM213.1,108.6c-3.6.3-7.4.6-11,.8,1,1.6,2,3.5,2.4,4.9l-2.2.6h8.2c-.3-1.5-.9-3.7-1.6-5.3l4.3-1ZM205.6,127.3c1.8,1.9,4,3.6,6.5,5,2.3-1.4,4.3-3,5.8-5h-12.4Z"/>
    <path class="st0" d="M254.6,138c1.5-2.2,2-5.8,2.2-9.5l2.8.6c-.2,3.9-.6,7.9-2.4,10.3l-2.6-1.4ZM287.6,129.9c1.7,3.5,4.4,6.4,8,7.9-1,.9-2.5,2.8-3.2,4-3.6-1.8-6.2-5.1-8-9-1.5,3.4-4.4,6.7-9.5,9.2-.5-.9-1.6-2.2-2.5-3-.2.6-.3.9-.6,1.2-.7,1-1.5,1.4-2.6,1.5-.9.2-2.2.2-3.8.1,0-1.2-.4-2.9-1-4,1.1.1,2.1.2,2.6.2s.8-.1,1.2-.6c.3-.4.5-1.5.7-3.7l-1.4.5c-.3-1.5-1.1-3.8-1.9-5.5l2-.7c.6,1.1,1.1,2.3,1.5,3.5,0-1.3.2-2.9.3-4.7h-12.3v-23.4h15.8v4.1h-4.6v2.4h3.7v2.3c3.9-2.3,7.6-6.8,9.4-10.3h4.4c2.6,4,6.3,7.9,10.1,9.7-.9,1.2-1.9,3.1-2.5,4.4-.9-.6-1.9-1.2-2.8-2v2.4h-4.3v2.3h7.7v11.4h-6.3ZM262.1,129.3c.4,2.5.6,5.8.4,7.9l-2.3.3c.1-2.2,0-5.4-.3-8l2.2-.2ZM261.3,107.4v2.4h2.9v-2.4h-2.9ZM261.3,113.6v2.6h2.9v-2.6h-2.9ZM261.3,122.8h2.9v-2.7h-2.9v2.7ZM265,128.8c.7,2.2,1.3,5.1,1.4,6.9l-2.2.5c0-1.8-.6-4.7-1.3-7l2.2-.4ZM273.7,122.8s0,1.1,0,1.7c-.3,7.1-.6,11.2-1,13.5,4.4-2.2,6.8-5.1,7.9-8.1h-6.1v-11.4h7.3v-2.3h-4.4v-2.3c-1.1.9-2.2,1.8-3.3,2.5-.5-1.1-1.3-2.6-2-3.7v1h-3.7v2.6h3.7v3.9h-3.7v2.7h5.4ZM281.5,126.2c.2-1.3.3-2.6.3-3.8h0c0-.1-3.1-.1-3.1-.1v4h2.9ZM288.8,112.3c-2-1.9-3.8-4.1-5-6.1-1.1,1.9-2.8,4.1-4.7,6.1h9.8ZM286.3,122.2v.2c0,1.2,0,2.5-.2,3.8h3.5v-4h-3.4Z"/>
    <path class="st0" d="M336.9,114.5c-.8,4.6-2,8.8-3.5,12.5,1.9,2.5,3.4,4.9,4.4,7l-4.1,3.5c-.7-1.5-1.7-3.4-2.9-5.3-2.3,3.8-5.2,6.9-8.8,9.3-.6-1-2.4-3.1-3.4-4,4-2.3,7-5.6,9.2-9.8-2.3-3.1-4.8-6.1-7.2-8.7l3.7-2.9c1.8,2,3.8,4.2,5.7,6.5.9-2.7,1.6-5.5,2.1-8.7l5,.6ZM359.1,116.1h-4.6v19.3c0,2.9-.5,4.4-2.1,5.2-1.6.9-4.2,1.1-7.7,1.1-.2-1.5-.9-4-1.6-5.5,2.4.1,4.7,0,5.5,0s1-.2,1-.9v-19.3h-10.8v-3.1h-18.9v-4.7h7.5v-6.6h4.9v6.6h8v2.9h9.4v-9.5h5v9.5h4.6v4.9ZM342.3,119.5c2,2.8,4.1,6.5,4.8,9.1l-4.4,2.3c-.6-2.5-2.5-6.5-4.4-9.4l4.1-2Z"/>
    <path class="st0" d="M419.7,128.6c0,2.1-.4,3.2-2,3.8-1.5.6-3.4.6-5.7.6,3.3,1.7,7.3,3.1,11.5,3.8-1.1,1.1-2.5,3.2-3.2,4.5-5.5-1.4-10.4-4.1-13.9-7v8.4h-5.5v-8.6c-3.9,3.4-8.9,5.9-14.3,7.4-.7-1.3-2.1-3.3-3.2-4.3,7.1-1.4,13.8-4.6,17.5-8.8v-3h-8.2v7.6h-5.4v-12h13.6v-2.1h-16.4v-4.4h9.1c-.4-1.2-1.3-3-2.2-4.5h-.7c-1.1,1.7-2.4,3.1-3.6,4.3-1-.8-3.1-2.1-4.3-2.8,2.7-2.3,5.2-5.9,6.6-9.4l4.8,1.3c-.3.7-.6,1.5-1,2.3h9.3v3.5c1.8-2,3.2-4.6,4.1-7.2l5,1.2c-.3.8-.6,1.6-1,2.4h12v4.3h-7c.6,1.1,1.2,2.1,1.5,3l-4.6,1.5c-.3-1.2-1.2-2.9-2.2-4.4h-2.1c-.6.9-1.2,1.8-1.9,2.5v2h15.5v4.4h-15.5v2.1h13.3v7.4ZM400.9,114.8v-2.3h.7c-.5-.3-.9-.6-1.3-.8.6-.4,1.1-.9,1.6-1.5h-5.3c.6,1.1,1.2,2.2,1.5,3l-3.9,1.5h6.7ZM406.4,129.4c1.4,1.2,3.2,2.5,5.4,3.6-.3-1.2-1.1-2.8-1.6-3.8,1.4.1,3.1,0,3.6,0s.7-.1.7-.6v-3h-8v3.8Z"/>
    <path class="st0" d="M462.1,113.9h-14.9v-4h14.9v4ZM461,141h-7.8v1.7h-4.2v-14.7h12v13ZM460.9,119.8h-11.8v-3.8h11.8v3.8ZM449.1,122h11.8v3.9h-11.8v-3.9ZM460.7,107.8h-11.4v-3.9h11.4v3.9ZM453.2,132.1v4.9h3.6v-4.9h-3.6ZM487.6,136.5h-2.1v1.8c0,2.1-.4,3.2-1.9,3.8-1.4.6-3.5.7-6.4.7-.1-1.2-.6-2.8-1.2-4,1.7,0,3.6,0,4.1,0,.6,0,.7-.2.7-.7v-1.7h-12.3v6.3h-4.3v-6.3h-2.1v-4h2.1v-10.7h8.3v-1.5h-10.4v-3.9h5.6v-1.8h-3.7v-3.5h3.7v-1.7h-4.5v-3.6h4.5v-3h4.6v3h5v-3h4.6v3h4.8v3.6h-4.8v1.7h3.9v3.5h-3.9v1.8h5.6v3.9h-10.7v1.5h8.6v10.7h2.1v4ZM468.5,125.2v2h4v-2h-4ZM468.5,132.4h4v-2h-4v2ZM472.3,110.9h5v-1.7h-5v1.7ZM472.3,116.3h5v-1.8h-5v1.8ZM476.8,125.2v2h4v-2h-4ZM480.8,132.4v-2h-4v2h4Z"/>
    <path class="st0" d="M537.5,136.5h13.8v4.4h-32.2v-4.4h13.5v-4.3h-10.8v-4.4h10.8v-5l-2.5,2.9c-.7-1-2-2.4-3.3-3.7-1,1.8-2.3,3.4-3.9,4.6-.8-.8-2.7-2.3-3.7-3-.4,6.1-1.5,13.1-4.1,18-.9-.9-3.1-2.3-4.3-2.8,3.4-6.1,3.6-15.1,3.6-21.4v-11.7h15.7v-3.9h5.3v3.9h15.5v4.7h-31.5v7c0,1.8,0,4-.2,6.2,3.5-2.4,5.2-6.3,5.7-11.3l4.6.3c-.2,1.8-.6,3.6-1,5.2,1.5,1.3,3,2.8,4,4v-10h4.9v10.5c2.6-2.3,4.1-5.8,4.6-9.9l4.6.5c-.3,1.8-.6,3.4-1.2,4.9,2.2,1.8,4.6,3.8,5.9,5.2l-3,3.5c-1.1-1.2-3-3-4.9-4.6-1,1.7-2.3,3.2-3.9,4.4-.5-.6-1.4-1.4-2.3-2.1v3.6h11.4v4.4h-11.4v4.3Z"/>
  </g>
</svg>