<svg xmlns="http://www.w3.org/2000/svg" viewBox="0 0 156.91 59.93"><title>アセット 162x@f</title><g id="レイヤー_2" data-name="レイヤー 2"><g id="contents"><path d="M13.68,18.57h2.51v1.24H9.52V18.57H12.2V7.89A12.92,12.92,0,0,1,9.54,9.22L9.28,7.87a12.36,12.36,0,0,0,3.14-1.59h1.26Z" style="fill:#fff"/><path d="M27.89,10.94c.22-.11.24-.1.31,0a16.24,16.24,0,0,1,1.35,3.16c.06.15,0,.19-.22.28l-.37.15c-.22.09-.26.09-.3-.06l-.33-1.07c-.61.07-1.22.15-1.83.2v5c0,2,0,2.59,0,2.68s0,.15-.15.15h-.81c-.13,0-.15,0-.15-.15s0-.66,0-2.68V13.73l-2,.14a1.9,1.9,0,0,0-.7.17.35.35,0,0,1-.22.07c-.1,0-.13-.09-.17-.24s-.11-.59-.17-1a9.21,9.21,0,0,0,1.19,0h.24c.48-.63.94-1.26,1.36-1.91a26,26,0,0,0-2.69-2.84c-.13-.11-.13-.13,0-.34l.29-.4c.13-.17.19-.17.3-.06l.72.7A17.29,17.29,0,0,0,24.86,6a9.23,9.23,0,0,0,.52-1.24,6.51,6.51,0,0,1,1,.44c.14.1.2.15.2.24s-.06.15-.15.21a1,1,0,0,0-.31.38c-.65,1.11-1.15,1.87-1.76,2.74.43.46.85.9,1.28,1.4.48-.74.94-1.51,1.4-2.29a6.49,6.49,0,0,0,.56-1.25,7.45,7.45,0,0,1,1,.49c.12.08.18.15.18.24s-.07.15-.18.23a2.77,2.77,0,0,0-.63.85c-1,1.62-2.07,3.12-3.07,4.45,1-.06,2.05-.13,3.16-.22-.19-.45-.39-.87-.61-1.3-.06-.11,0-.12.2-.24Zm-3.57,4.78a2.43,2.43,0,0,0-.16.67,16.13,16.13,0,0,1-.82,3.42c-.05.18-.09.25-.16.25s-.11,0-.24-.12a2.32,2.32,0,0,0-.67-.28,12.65,12.65,0,0,0,.91-3.48,5.81,5.81,0,0,0,.05-1.07c.35.06.74.15.93.19s.25.11.25.18A.5.5,0,0,1,24.32,15.72ZM28,15.06c.18-.06.2-.06.26.09a14.2,14.2,0,0,1,.62,2.75c0,.15,0,.21-.2.26l-.42.13c-.28.09-.3.09-.32-.05a13.64,13.64,0,0,0-.54-2.87c0-.13,0-.16.23-.22Zm9.14-4.12a.77.77,0,0,0,.34-.06.37.37,0,0,1,.2-.05c.09,0,.22.05.53.38s.32.35.32.45a.32.32,0,0,1-.11.24,1.25,1.25,0,0,0-.37.64,16.72,16.72,0,0,1-2.44,5,11.13,11.13,0,0,0,3.62,2.66,2.22,2.22,0,0,0-.57.74c-.09.18-.15.26-.22.26s-.15-.06-.3-.13A12.63,12.63,0,0,1,35,18.4a13.14,13.14,0,0,1-3.77,2.85.79.79,0,0,1-.3.11c-.09,0-.15-.08-.28-.24a2,2,0,0,0-.61-.56,11.18,11.18,0,0,0,4.29-3,15.55,15.55,0,0,1-2.4-5.91,24.55,24.55,0,0,1-.63,4.23,12.66,12.66,0,0,1-2.59,5.21c-.11.13-.16.19-.24.19s-.12-.06-.24-.19a2,2,0,0,0-.61-.5A10.74,10.74,0,0,0,30.2,15.8a33.63,33.63,0,0,0,1-8.91c-1.41,0-1.91,0-2,0s-.15,0-.15-.15V6c0-.13,0-.15.15-.15s.61,0,2.24,0h3.91a1.28,1.28,0,0,0,.48-.07.43.43,0,0,1,.17,0c.13,0,.22,0,.54.33s.31.37.31.47a.38.38,0,0,1-.17.24.67.67,0,0,0-.24.44c-.2.94-.55,2.24-1,3.68Zm-2,1c-.07.2-.13.4-.19.59s-.07.18-.31.13l-.48-.11c-.3-.08-.33-.1-.28-.28a42.46,42.46,0,0,0,1.5-5.34H32.06c.13,3.84,1,7.22,2.87,9.81a14.14,14.14,0,0,0,2.23-4.8Z" style="fill:#fff"/><path d="M59.54,20.31c0,.12,0,.14-.13.14s-.59,0-2.12,0h-4v1c0,.11,0,.12-.15.12h-.74c-.15,0-.17,0-.17-.12s0-.61,0-2.24v-6.8c0-.68,0-1.55,0-2.35-.21.35-.41.69-.61,1s-.17.23-.24.23-.11-.06-.22-.19a1.73,1.73,0,0,0-.41-.33v1.07c0,.81,0,1.07,0,1.18s0,.15-.15.15-.59,0-2.07,0h-.85c0,.48,0,.91,0,1.35h1c1.55,0,2,0,2.14,0s.15,0,.15.15v.61c0,.13,0,.15-.15.15s-.59,0-2.14,0H47.74a11.85,11.85,0,0,1-.21,1.32H49c1.63,0,2.18,0,2.27,0s.15,0,.15.15v.61c0,.13,0,.14-.15.14s-.64,0-2.27,0H47.9A6.91,6.91,0,0,0,51,19.73a2.1,2.1,0,0,0-.37.59c-.1.21-.13.3-.21.3s-.14-.06-.27-.13a7.8,7.8,0,0,1-3-2.74,6.57,6.57,0,0,1-3.1,3.5.69.69,0,0,1-.3.11c-.09,0-.15-.08-.26-.26a1.62,1.62,0,0,0-.48-.52,5.63,5.63,0,0,0,3.26-3.21h-.76c-1.65,0-2.18,0-2.27,0s-.15,0-.15-.14v-.61c0-.13,0-.15.15-.15s.62,0,2.27,0h1a6.85,6.85,0,0,0,.22-1.32h-.88c-1.54,0-2,0-2.13,0s-.15,0-.15-.15V14.5c0-.13,0-.15.15-.15s.59,0,2.13,0h1c0-.42,0-.89,0-1.35h-.85c-1.47,0-2,0-2.08,0s-.15,0-.15-.15,0-.37,0-1.18v-.94c0-.83,0-1.09,0-1.19s0-.14.15-.14.61,0,2.08,0h2.63c1.5,0,2,0,2.07,0s.15,0,.15.14,0,.3,0,.85A13.69,13.69,0,0,0,53.22,6a5,5,0,0,0,.26-1.27,9.05,9.05,0,0,1,1,.27c.15.06.22.12.22.21s-.05.16-.16.28a1.87,1.87,0,0,0-.34.68A18.2,18.2,0,0,1,53.43,8h2.23c.28-.68.48-1.29.69-1.94A6.07,6.07,0,0,0,56.55,5a7.19,7.19,0,0,1,1,.28c.17,0,.24.11.24.22s0,.15-.15.24-.14.16-.31.61c-.24.63-.41,1.11-.67,1.66h.8c1.35,0,1.75,0,1.85,0s.14,0,.14.15v.74c0,.13,0,.15-.14.15s-.5,0-1.85,0h-.85v2.74h.24c1.4,0,1.85,0,1.94,0s.17,0,.17.15v.72c0,.13,0,.15-.17.15s-.54,0-1.94,0h-.24v2.81h.24c1.4,0,1.85,0,1.94,0s.17,0,.17.15v.72c0,.13,0,.15-.17.15s-.54,0-1.94,0h-.24v3.09h.72c1.53,0,2,0,2.12,0s.13,0,.13.17Zm-8-12.81c0,.15,0,.17-.14.17s-.61,0-2.09,0c0,.77,0,1.07,0,1.14s0,.17-.14.17h-.72c-.13,0-.15,0-.15-.17s0-.37,0-1.14H46.22c0,.77,0,1.09,0,1.16s0,.15-.15.15h-.72c-.13,0-.15,0-.15-.15s0-.39,0-1.16c-1.44,0-2,0-2.07,0s-.13,0-.13-.17V6.85c0-.13,0-.14.13-.14s.63,0,2.07,0V6.32a6.08,6.08,0,0,0-.09-1.22c.42,0,.74.05,1,.09.11,0,.18.09.18.17a.32.32,0,0,1-.07.22c-.09.15-.11.27-.11.74v.42h2.13v-.4a4.16,4.16,0,0,0-.1-1.21c.43,0,.72,0,1,.08.11,0,.18.07.18.16a.38.38,0,0,1-.07.21c-.08.11-.11.29-.11.76v.4c1.48,0,2,0,2.09,0s.14,0,.14.14ZM46.9,10.31H44.78v1.94H46.9Zm3.05,0H47.83v1.94H50Zm5.66-1.39H53.32v2.74h2.29Zm0,3.68H53.32v2.81h2.29Zm0,3.75H53.32v3.09h2.29Z" style="fill:#fff"/><path d="M79.87,7.5c0,.13,0,.15-.13.15s-.72,0-2.57,0H66.48v3a36.81,36.81,0,0,1-.26,5.19A14.71,14.71,0,0,1,64.53,21c-.07.14-.12.22-.18.22s-.13-.06-.24-.19a2.3,2.3,0,0,0-.72-.55,12.29,12.29,0,0,0,1.74-5.16,39.1,39.1,0,0,0,.22-4.89c0-2.55,0-3.61,0-3.72s0-.15.15-.15.74,0,2.59,0h3.71V6.22a6.17,6.17,0,0,0-.13-1.49,11.65,11.65,0,0,1,1.22.09c.15,0,.22.09.22.15a.91.91,0,0,1-.09.35,2.47,2.47,0,0,0-.11.89v.42h4.3c1.85,0,2.46,0,2.57,0s.13,0,.13.15ZM76.1,14.89a.83.83,0,0,0,.34-.07.28.28,0,0,1,.16,0c.13,0,.22.07.5.33s.39.41.39.5a.25.25,0,0,1-.17.24,1.87,1.87,0,0,0-.52.5,11.29,11.29,0,0,1-2.6,2.53,17.59,17.59,0,0,0,5.86,1.46,2,2,0,0,0-.41.72c-.13.35-.13.35-.5.32a16,16,0,0,1-6-1.85A17.61,17.61,0,0,1,67,21.47c-.35,0-.39.05-.51-.3a1.46,1.46,0,0,0-.47-.61,18.47,18.47,0,0,0,6.16-1.66,10.23,10.23,0,0,1-2.77-3.09l-1.87,0c-.13,0-.15,0-.15-.15V15c0-.13,0-.15.15-.15s.68,0,2.49,0Zm3.61-4.19c0,.13,0,.14-.15.14s-.74,0-2.63,0h-1.1v.87c0,1.12,0,1.64,0,1.73s0,.15-.15.15-.49,0-1.77,0H72.09c-1.27,0-1.66,0-1.75,0s-.17,0-.17-.15,0-.61,0-1.73v-.87h-.46c-1.69,0-2.37,0-2.46,0s-.15,0-.15-.14V10c0-.13,0-.14.15-.14s.77,0,2.46,0h.46a9,9,0,0,0-.11-1.75,9.44,9.44,0,0,1,1.12.11c.13,0,.21.07.21.13a1,1,0,0,1-.09.31,4.51,4.51,0,0,0-.1,1.2h3.55a10.94,10.94,0,0,0-.11-1.75,9.41,9.41,0,0,1,1.13.11c.13,0,.2.07.2.13a1,1,0,0,1-.09.31,4,4,0,0,0-.09,1.2h1.1c1.89,0,2.54,0,2.63,0s.15,0,.15.14Zm-9.15,5.11a9.23,9.23,0,0,0,2.62,2.52,9.75,9.75,0,0,0,2.72-2.52Zm4.23-5H71.24V12.6h3.55Z" style="fill:#fff"/><rect x="87.09" width="69.82" height="26.4" style="fill:#fff"/><path d="M155.59,1.32V25.08H1.32V1.32H155.59M156.91,0H0V26.4H156.91V0Z" style="fill:#fff"/><path d="M101.29,5.77,103,11a.1.1,0,0,0,.1.06h5.5a.1.1,0,0,1,.06.18l-4.46,3.22a.1.1,0,0,0,0,.11l1.72,5.24a.1.1,0,0,1-.15.11l-4.45-3.25a.09.09,0,0,0-.12,0l-4.44,3.25a.1.1,0,0,1-.15-.11l1.71-5.24a.11.11,0,0,0,0-.11l-4.47-3.22a.1.1,0,0,1,.06-.18h5.51a.09.09,0,0,0,.09-.06l1.69-5.25A.1.1,0,0,1,101.29,5.77Z" style="fill:#00a73c"/><path d="M121.84,5.77,123.53,11a.1.1,0,0,0,.1.06h5.5a.1.1,0,0,1,.06.18l-4.46,3.22a.1.1,0,0,0,0,.11l1.72,5.24a.1.1,0,0,1-.15.11l-4.45-3.25a.09.09,0,0,0-.12,0l-4.44,3.25a.1.1,0,0,1-.15-.11l1.71-5.24a.1.1,0,0,0,0-.11l-4.46-3.22a.1.1,0,0,1,.06-.18h5.51A.09.09,0,0,0,120,11l1.69-5.25A.09.09,0,0,1,121.84,5.77Z" style="fill:#00a73c"/><path d="M143,5.77,144.69,11a.09.09,0,0,0,.09.06h5.51a.1.1,0,0,1,.06.18l-4.47,3.22a.09.09,0,0,0,0,.11l1.71,5.24a.1.1,0,0,1-.15.11L143,16.68a.08.08,0,0,0-.11,0l-4.45,3.25a.1.1,0,0,1-.15-.11L140,14.58a.12.12,0,0,0,0-.11l-4.46-3.22a.1.1,0,0,1,.05-.18H141a.09.09,0,0,0,.09-.06l1.69-5.25A.1.1,0,0,1,143,5.77Z" style="fill:#b3b3b3"/><path d="M8.5,43.3a4.09,4.09,0,0,1,4.29-3.58c2.33,0,4,1.29,4,3.49,0,1.48-.61,2.59-3,4.55A13.41,13.41,0,0,0,10,52.06H16.8v1.28H8.39V52.19a15.5,15.5,0,0,1,4.25-5.25c2-1.77,2.5-2.55,2.5-3.73A2.16,2.16,0,0,0,12.77,41c-1.48,0-2.44.89-2.7,2.67Z" style="fill:#fff"/><path d="M27.59,44.47c.22-.11.24-.09.32,0a15.68,15.68,0,0,1,1.34,3.16c.06.14,0,.18-.22.27l-.37.15c-.22.09-.26.09-.29-.06L28,47c-.6.08-1.21.15-1.82.21v5c0,2,0,2.58,0,2.68s0,.14-.14.14h-.82c-.13,0-.15,0-.15-.14s0-.67,0-2.68V47.26l-2,.15a1.77,1.77,0,0,0-.7.16.37.37,0,0,1-.22.08c-.09,0-.13-.1-.17-.24s-.11-.6-.16-1a7.58,7.58,0,0,0,1.18,0h.24c.48-.63.94-1.26,1.37-1.91A27,27,0,0,0,22,41.68c-.13-.11-.13-.13,0-.33l.29-.41c.13-.17.19-.17.3-.06l.72.71a18.19,18.19,0,0,0,1.2-2.11,8,8,0,0,0,.52-1.24,7.73,7.73,0,0,1,1,.44c.15.1.2.15.2.24s0,.15-.14.21a.88.88,0,0,0-.32.39c-.65,1.1-1.14,1.86-1.76,2.73.43.46.86.91,1.28,1.41.48-.74.94-1.52,1.4-2.3a6.23,6.23,0,0,0,.56-1.25,6,6,0,0,1,1,.5c.13.07.18.14.18.24s-.07.14-.18.22a3,3,0,0,0-.63.85c-1,1.62-2.07,3.12-3.07,4.45,1,0,2.05-.13,3.16-.22-.18-.44-.39-.87-.61-1.29-.05-.11,0-.13.21-.24ZM24,49.25a2.55,2.55,0,0,0-.16.67,16.69,16.69,0,0,1-.81,3.42c-.06.18-.1.26-.17.26s-.11-.06-.24-.13a2.87,2.87,0,0,0-.67-.28,12.34,12.34,0,0,0,.91-3.47,6,6,0,0,0,.06-1.08c.35.06.73.15.92.19s.26.11.26.18A.47.47,0,0,1,24,49.25Zm3.72-.66c.18-.06.2-.06.26.09a14.2,14.2,0,0,1,.63,2.75c0,.15,0,.21-.21.26l-.42.13c-.28.1-.3.1-.32,0a13.76,13.76,0,0,0-.53-2.87c0-.13,0-.16.22-.22Zm9.15-4.12a.72.72,0,0,0,.33-.06.49.49,0,0,1,.2,0c.09,0,.22,0,.54.39s.31.35.31.44a.32.32,0,0,1-.11.24,1.24,1.24,0,0,0-.37.65,16.31,16.31,0,0,1-2.44,5A11.13,11.13,0,0,0,39,53.76a2.44,2.44,0,0,0-.57.74c-.09.19-.15.26-.22.26a.82.82,0,0,1-.3-.13,12.63,12.63,0,0,1-3.23-2.7,13.14,13.14,0,0,1-3.77,2.85.82.82,0,0,1-.29.11c-.1,0-.15-.07-.28-.24a2.11,2.11,0,0,0-.61-.55,11.27,11.27,0,0,0,4.28-3,15.48,15.48,0,0,1-2.4-5.91A23.62,23.62,0,0,1,31,49.38a12.63,12.63,0,0,1-2.58,5.21c-.11.13-.17.19-.24.19s-.13-.06-.24-.19a1.94,1.94,0,0,0-.61-.49,10.76,10.76,0,0,0,2.62-4.77,33.17,33.17,0,0,0,1-8.91c-1.4,0-1.9,0-2,0s-.14,0-.14-.15v-.78c0-.12,0-.14.14-.14s.61,0,2.24,0h3.92a1.13,1.13,0,0,0,.48-.07.38.38,0,0,1,.16,0c.13,0,.23,0,.54.34s.31.36.31.46a.4.4,0,0,1-.16.24.63.63,0,0,0-.24.44c-.21.94-.56,2.24-1,3.68Zm-2,1c-.07.2-.13.41-.18.59s-.08.19-.32.13L33.89,46c-.29-.08-.33-.09-.27-.28a42.24,42.24,0,0,0,1.49-5.34H31.77c.13,3.85,1,7.23,2.86,9.81a13.88,13.88,0,0,0,2.24-4.8Z" style="fill:#fff"/><path d="M59.25,53.84c0,.13,0,.14-.13.14s-.59,0-2.13,0H53v1c0,.11,0,.13-.15.13h-.74c-.14,0-.16,0-.16-.13s0-.61,0-2.24v-6.8c0-.68,0-1.55,0-2.35a10.26,10.26,0,0,1-.61,1c-.11.14-.16.22-.24.22s-.11-.06-.22-.19a2,2,0,0,0-.41-.33v1.07c0,.81,0,1.07,0,1.18s0,.15-.15.15-.59,0-2.07,0h-.85c0,.49,0,.91,0,1.35h1c1.55,0,2,0,2.14,0s.15,0,.15.14v.61c0,.13,0,.15-.15.15s-.59,0-2.14,0H47.44a12.21,12.21,0,0,1-.2,1.31h1.47c1.63,0,2.19,0,2.28,0s.15,0,.15.15v.61c0,.13,0,.15-.15.15s-.65,0-2.28,0h-1.1a6.81,6.81,0,0,0,3.1,2.36,2.1,2.1,0,0,0-.37.59c-.09.21-.13.3-.2.3s-.15,0-.28-.13a7.9,7.9,0,0,1-3-2.73,6.61,6.61,0,0,1-3.11,3.49.71.71,0,0,1-.29.11c-.1,0-.15-.07-.26-.26a1.74,1.74,0,0,0-.48-.52A5.62,5.62,0,0,0,46,50.9h-.76c-1.64,0-2.18,0-2.27,0s-.15,0-.15-.15v-.61c0-.13,0-.15.15-.15s.63,0,2.27,0h1a7.78,7.78,0,0,0,.22-1.31h-.89c-1.53,0-2,0-2.12,0s-.15,0-.15-.15V48c0-.12,0-.14.15-.14s.59,0,2.12,0h1c0-.42.06-.88.06-1.35h-.85c-1.48,0-2,0-2.09,0s-.15,0-.15-.15,0-.37,0-1.18v-.94c0-.83,0-1.09,0-1.18s0-.15.15-.15.61,0,2.09,0h2.62c1.5,0,2,0,2.07,0s.15,0,.15.15,0,.29,0,.85a13.87,13.87,0,0,0,2.37-4.48,5.39,5.39,0,0,0,.26-1.27,6.93,6.93,0,0,1,1,.28c.15.05.23.11.23.2s-.06.17-.17.28a1.75,1.75,0,0,0-.33.68c-.21.55-.47,1.16-.78,1.79h2.24c.27-.68.48-1.29.68-1.94a5.28,5.28,0,0,0,.2-1.07,9.35,9.35,0,0,1,1,.28c.16.05.24.11.24.22s-.06.15-.15.24a1.5,1.5,0,0,0-.32.61c-.24.63-.4,1.11-.66,1.66h.79c1.35,0,1.76,0,1.85,0s.15,0,.15.14v.74c0,.13,0,.15-.15.15s-.5,0-1.85,0h-.85v2.74h.24c1.41,0,1.85,0,1.94,0s.17,0,.17.15V46c0,.13,0,.15-.17.15s-.53,0-1.94,0h-.24v2.81h.24c1.41,0,1.85,0,1.94,0s.17,0,.17.15v.72c0,.13,0,.15-.17.15s-.53,0-1.94,0h-.24V53H57c1.54,0,2,0,2.13,0s.13,0,.13.17ZM51.23,41c0,.15,0,.17-.15.17s-.61,0-2.09,0c0,.78,0,1.07,0,1.15s0,.16-.15.16h-.72c-.13,0-.15,0-.15-.16s0-.37,0-1.15H45.92c0,.78,0,1.09,0,1.16s0,.15-.15.15h-.72c-.13,0-.15,0-.15-.15s0-.38,0-1.16c-1.44,0-2,0-2.07,0s-.13,0-.13-.17v-.65c0-.13,0-.14.13-.14s.63,0,2.07,0v-.42a6.14,6.14,0,0,0-.09-1.22c.42,0,.74,0,1,.09.12,0,.19.09.19.17a.38.38,0,0,1-.07.22c-.1.15-.12.28-.12.74v.42h2.13v-.4a4.52,4.52,0,0,0-.09-1.2,9.45,9.45,0,0,1,1,.07c.11,0,.19.07.19.17a.39.39,0,0,1-.08.2,1.5,1.5,0,0,0-.11.76v.4c1.48,0,2,0,2.09,0s.15,0,.15.14Zm-4.62,2.81H44.48v1.94h2.13Zm3,0H47.53v1.94h2.13Zm5.65-1.39H53v2.74h2.29Zm0,3.68H53v2.81h2.29Zm0,3.75H53V53h2.29Z" style="fill:#fff"/><path d="M79.58,41c0,.13,0,.15-.13.15s-.72,0-2.57,0H66.18v3a36.81,36.81,0,0,1-.26,5.19,14.5,14.5,0,0,1-1.68,5.25c-.07.15-.13.22-.19.22s-.12-.06-.24-.19a2.19,2.19,0,0,0-.72-.55,12,12,0,0,0,1.74-5.16A37.28,37.28,0,0,0,65.05,44c0-2.55,0-3.61,0-3.72s0-.14.14-.14.74,0,2.59,0h3.71v-.4a5.74,5.74,0,0,0-.13-1.5c.48,0,.78,0,1.22.09.15,0,.23.09.23.15a.78.78,0,0,1-.1.35,2.47,2.47,0,0,0-.11.89v.42h4.31c1.85,0,2.46,0,2.57,0s.13,0,.13.14Zm-3.77,7.39a.68.68,0,0,0,.33-.07.31.31,0,0,1,.17,0c.13,0,.22.08.49.33s.39.41.39.5a.25.25,0,0,1-.16.24,1.87,1.87,0,0,0-.52.5,11.32,11.32,0,0,1-2.61,2.53,17.59,17.59,0,0,0,5.86,1.46,2.3,2.3,0,0,0-.41.72c-.12.36-.12.36-.49.32a16,16,0,0,1-6-1.85A17.29,17.29,0,0,1,66.7,55c-.35,0-.39.06-.52-.29a1.26,1.26,0,0,0-.46-.61,18.49,18.49,0,0,0,6.15-1.67,10.44,10.44,0,0,1-2.77-3.08c-1.31,0-1.79,0-1.87,0s-.15,0-.15-.14v-.71c0-.13,0-.14.15-.14s.69,0,2.5,0Zm3.6-4.19c0,.13,0,.15-.15.15s-.74,0-2.62,0H75.53v.87c0,1.12,0,1.64,0,1.73s0,.15-.15.15-.5,0-1.77,0H71.8c-1.28,0-1.67,0-1.76,0s-.16,0-.16-.15,0-.61,0-1.73v-.87h-.46c-1.68,0-2.37,0-2.46,0s-.15,0-.15-.15v-.7c0-.13,0-.15.15-.15s.78,0,2.46,0h.46a9,9,0,0,0-.11-1.76,9.41,9.41,0,0,1,1.13.11c.13,0,.2.07.2.13a.8.8,0,0,1-.09.31A4.72,4.72,0,0,0,71,43.42h3.54a9.92,9.92,0,0,0-.11-1.76,9.41,9.41,0,0,1,1.13.11c.13,0,.2.07.2.13a.8.8,0,0,1-.09.31,4.37,4.37,0,0,0-.09,1.21h1.11c1.88,0,2.53,0,2.62,0s.15,0,.15.15Zm-9.15,5.12a9.23,9.23,0,0,0,2.63,2.51,10,10,0,0,0,2.71-2.51Zm4.23-5H71v1.79h3.54Z" style="fill:#fff"/><rect x="87.09" y="33.53" width="69.82" height="26.4" style="fill:#fff"/><path d="M155.59,34.85V58.61H1.32V34.85H155.59m1.32-1.32H0v26.4H156.91V33.53Z" style="fill:#fff"/><path d="M101.29,39.31,103,44.55a.11.11,0,0,0,.1.07l5.5,0a.1.1,0,0,1,.06.18L104.17,48a.1.1,0,0,0,0,.11l1.72,5.24a.1.1,0,0,1-.15.11l-4.45-3.25a.09.09,0,0,0-.12,0l-4.44,3.25a.1.1,0,0,1-.15-.11l1.71-5.24a.11.11,0,0,0,0-.11l-4.47-3.22a.1.1,0,0,1,.06-.18l5.51,0a.1.1,0,0,0,.09-.07l1.69-5.24A.1.1,0,0,1,101.29,39.31Z" style="fill:#00a73c"/><path d="M121.84,39.31l1.69,5.24a.11.11,0,0,0,.1.07l5.5,0a.1.1,0,0,1,.06.18L124.73,48a.1.1,0,0,0,0,.11l1.72,5.24a.1.1,0,0,1-.15.11l-4.45-3.25a.09.09,0,0,0-.12,0l-4.44,3.25a.1.1,0,0,1-.15-.11l1.71-5.24a.1.1,0,0,0,0-.11l-4.46-3.22a.1.1,0,0,1,.06-.18l5.51,0a.1.1,0,0,0,.09-.07l1.69-5.24A.09.09,0,0,1,121.84,39.31Z" style="fill:#b3b3b3"/><path d="M143,39.31l1.69,5.24a.1.1,0,0,0,.09.07l5.51,0a.1.1,0,0,1,.06.18L145.88,48a.09.09,0,0,0,0,.11l1.71,5.24a.1.1,0,0,1-.15.11L143,50.21a.08.08,0,0,0-.11,0l-4.45,3.25a.1.1,0,0,1-.15-.11L140,48.11a.12.12,0,0,0,0-.11l-4.46-3.22a.1.1,0,0,1,.05-.18l5.51,0a.1.1,0,0,0,.09-.07l1.69-5.24A.1.1,0,0,1,143,39.31Z" style="fill:#b3b3b3"/><path d="M121.75,39.24a.09.09,0,0,0-.09.07L120,44.55a.1.1,0,0,1-.09.07l-5.51,0a.1.1,0,0,0-.06.18L118.77,48a.1.1,0,0,1,0,.11l-1.71,5.24a.1.1,0,0,0,.15.11l4.44-3.25h.06Z" style="fill:#00a73c"/></g></g></svg>