<svg xmlns="http://www.w3.org/2000/svg" viewBox="0 0 121.73 26.4"><title>アセット 192x@f</title><g id="レイヤー_2" data-name="レイヤー 2"><g id="contents"><path d="M23.9,20.3c0,.13,0,.15-.13.15s-.59,0-2.12,0h-4v1c0,.12,0,.13-.15.13h-.74c-.15,0-.17,0-.17-.13s0-.6,0-2.23v-6.8c0-.68,0-1.55,0-2.35-.21.35-.41.69-.61,1s-.17.23-.24.23-.11-.06-.22-.19a1.73,1.73,0,0,0-.41-.33v1.07c0,.81,0,1.07,0,1.18s0,.15-.15.15-.59,0-2.07,0h-.85c0,.48,0,.91,0,1.35h1c1.55,0,2,0,2.14,0s.15,0,.15.15v.61c0,.13,0,.15-.15.15s-.59,0-2.14,0H12.1a9.9,9.9,0,0,1-.21,1.32h1.48c1.63,0,2.18,0,2.28,0s.14,0,.14.15v.61c0,.12,0,.14-.14.14s-.65,0-2.28,0H12.26a6.91,6.91,0,0,0,3.11,2.36,2.1,2.1,0,0,0-.37.59c-.09.21-.13.3-.21.3s-.14-.06-.27-.13a7.8,7.8,0,0,1-3-2.74,6.57,6.57,0,0,1-3.1,3.5.69.69,0,0,1-.3.11c-.09,0-.14-.08-.25-.26a1.74,1.74,0,0,0-.48-.52,5.67,5.67,0,0,0,3.25-3.21H9.88c-1.65,0-2.18,0-2.27,0s-.15,0-.15-.14v-.61c0-.13,0-.15.15-.15s.62,0,2.27,0h1a7.8,7.8,0,0,0,.23-1.32h-.89c-1.53,0-2,0-2.13,0s-.14,0-.14-.15V14.5c0-.13,0-.15.14-.15s.6,0,2.13,0h1c0-.42.06-.89.06-1.35h-.85c-1.48,0-2,0-2.09,0s-.15,0-.15-.15,0-.37,0-1.18v-.94c0-.83,0-1.09,0-1.19s0-.14.15-.14.61,0,2.09,0H13c1.5,0,2,0,2.07,0s.15,0,.15.14,0,.3,0,.85A13.72,13.72,0,0,0,17.59,6a5.5,5.5,0,0,0,.25-1.27,9.05,9.05,0,0,1,1,.27c.15.06.22.12.22.21s0,.16-.16.28a1.87,1.87,0,0,0-.34.68A18.2,18.2,0,0,1,17.79,8H20c.28-.68.48-1.29.69-1.94A6.07,6.07,0,0,0,20.91,5a7.19,7.19,0,0,1,1,.28c.17,0,.24.11.24.22s-.05.15-.15.24-.14.16-.31.61c-.24.63-.41,1.11-.67,1.66h.8c1.35,0,1.76,0,1.85,0s.14,0,.14.15v.74c0,.13,0,.15-.14.15s-.5,0-1.85,0h-.85v2.74h.24c1.4,0,1.85,0,1.94,0s.17,0,.17.15v.72c0,.13,0,.15-.17.15s-.54,0-1.94,0h-.24v2.81h.24c1.4,0,1.85,0,1.94,0s.17,0,.17.15v.72c0,.13,0,.15-.17.15s-.54,0-1.94,0h-.24v3.09h.72c1.53,0,2,0,2.12,0s.13,0,.13.17Zm-8-12.8c0,.15,0,.17-.15.17s-.61,0-2.09,0c0,.77,0,1.07,0,1.14s0,.17-.15.17h-.72c-.13,0-.15,0-.15-.17s0-.37,0-1.14H10.58c0,.77,0,1.09,0,1.16s0,.15-.15.15H9.75c-.13,0-.15,0-.15-.15s0-.39,0-1.16c-1.44,0-2,0-2.07,0s-.13,0-.13-.17V6.85c0-.13,0-.14.13-.14s.63,0,2.07,0V6.32A6.08,6.08,0,0,0,9.55,5.1c.42,0,.74.05,1,.09.11,0,.19.09.19.17a.33.33,0,0,1-.08.22c-.09.15-.11.27-.11.74v.42h2.13V6.33a4.12,4.12,0,0,0-.1-1.2c.43,0,.73,0,1,.08.11,0,.18.07.18.16a.38.38,0,0,1-.07.21,1.45,1.45,0,0,0-.11.75v.41c1.48,0,2,0,2.09,0s.15,0,.15.14Zm-4.62,2.81H9.14v1.94h2.13Zm3,0H12.19v1.94h2.12ZM20,8.92H17.68v2.74H20Zm0,3.68H17.68v2.81H20Zm0,3.75H17.68v3.09H20Z" style="fill:#fff"/><path d="M44.23,7.5c0,.13,0,.15-.13.15s-.72,0-2.56,0H30.84v3a36.87,36.87,0,0,1-.26,5.2A14.69,14.69,0,0,1,28.9,21c-.08.14-.13.22-.19.22s-.13-.06-.24-.19a2.3,2.3,0,0,0-.72-.55,12.2,12.2,0,0,0,1.74-5.16,39.1,39.1,0,0,0,.22-4.89c0-2.55,0-3.61,0-3.72s0-.15.15-.15.74,0,2.59,0h3.71V6.22A6.17,6.17,0,0,0,36,4.73a11.65,11.65,0,0,1,1.22.09c.15,0,.22.09.22.15a.76.76,0,0,1-.09.35,2.47,2.47,0,0,0-.11.89v.42h4.31c1.84,0,2.45,0,2.56,0s.13,0,.13.15Zm-3.77,7.39a.83.83,0,0,0,.34-.07.3.3,0,0,1,.16,0c.13,0,.22.07.5.33s.39.41.39.5a.25.25,0,0,1-.17.24,1.86,1.86,0,0,0-.51.5,11.74,11.74,0,0,1-2.61,2.53,17.59,17.59,0,0,0,5.86,1.46,2,2,0,0,0-.41.72c-.13.35-.13.35-.5.32a16,16,0,0,1-6-1.85,17.54,17.54,0,0,1-6.16,1.94c-.35,0-.38.05-.51-.3a1.38,1.38,0,0,0-.47-.61,18.47,18.47,0,0,0,6.16-1.66,10.23,10.23,0,0,1-2.77-3.09l-1.87,0c-.13,0-.15,0-.15-.15V15c0-.13,0-.15.15-.15s.68,0,2.49,0Zm3.61-4.19c0,.13,0,.14-.15.14s-.74,0-2.62,0H40.19v.87c0,1.12,0,1.64,0,1.73s0,.15-.14.15-.5,0-1.78,0H36.45c-1.27,0-1.66,0-1.75,0s-.17,0-.17-.15,0-.61,0-1.73v-.87h-.46c-1.68,0-2.37,0-2.46,0s-.15,0-.15-.14V10c0-.13,0-.14.15-.14s.78,0,2.46,0h.46a9,9,0,0,0-.11-1.75,9.84,9.84,0,0,1,1.13.11c.13,0,.2.07.2.13a1,1,0,0,1-.09.31,4.51,4.51,0,0,0-.1,1.2h3.55A10.94,10.94,0,0,0,39,8.13a9.41,9.41,0,0,1,1.13.11c.13,0,.2.07.2.13a.8.8,0,0,1-.09.31,4.33,4.33,0,0,0-.09,1.2H41.3c1.88,0,2.53,0,2.62,0s.15,0,.15.14Zm-9.15,5.11a9.23,9.23,0,0,0,2.62,2.52,9.75,9.75,0,0,0,2.72-2.52Zm4.23-5H35.6V12.6h3.55Z" style="fill:#fff"/><rect x="51.91" width="69.82" height="26.4" style="fill:#fff"/><path d="M120.41,1.32V25.08H1.32V1.32H120.41M121.73,0H0V26.4H121.73V0Z" style="fill:#fff"/><path d="M66.11,5.77,67.8,11a.09.09,0,0,0,.09.06H73.4a.1.1,0,0,1,.06.18L69,14.47a.11.11,0,0,0,0,.11l1.71,5.24a.1.1,0,0,1-.15.11l-4.44-3.25a.09.09,0,0,0-.12,0l-4.45,3.25a.1.1,0,0,1-.15-.11l1.72-5.24a.1.1,0,0,0,0-.11l-4.46-3.22a.1.1,0,0,1,.06-.18h5.5a.1.1,0,0,0,.1-.06l1.68-5.25A.1.1,0,0,1,66.11,5.77Z" style="fill:#e60039"/><path d="M86.67,5.77,88.36,11a.09.09,0,0,0,.09.06H94a.1.1,0,0,1,.06.18l-4.47,3.22a.09.09,0,0,0,0,.11l1.71,5.24a.1.1,0,0,1-.15.11l-4.45-3.25a.08.08,0,0,0-.11,0l-4.45,3.25a.1.1,0,0,1-.15-.11l1.72-5.24a.1.1,0,0,0,0-.11l-4.46-3.22a.1.1,0,0,1,0-.18H84.7a.11.11,0,0,0,.1-.06l1.68-5.25A.1.1,0,0,1,86.67,5.77Z" style="fill:#e60039"/><path d="M107.83,5.77,109.51,11a.1.1,0,0,0,.1.06h5.5a.1.1,0,0,1,.06.18l-4.46,3.22a.1.1,0,0,0,0,.11l1.72,5.24a.1.1,0,0,1-.15.11l-4.45-3.25a.09.09,0,0,0-.12,0l-4.44,3.25a.1.1,0,0,1-.15-.11l1.71-5.24a.11.11,0,0,0,0-.11l-4.47-3.22a.1.1,0,0,1,.06-.18h5.51A.09.09,0,0,0,106,11l1.69-5.25A.1.1,0,0,1,107.83,5.77Z" style="fill:#e60039"/></g></g></svg>