<?xml version="1.0" encoding="UTF-8"?>
<svg id="_レイヤー_1" data-name="レイヤー 1" xmlns="http://www.w3.org/2000/svg" viewBox="0 0 24.51 18.9">
  <defs>
    <style>
      .cls-1 {
        fill: #1262b2;
      }
    </style>
  </defs>
  <g id="_レイヤー_2" data-name="レイヤー 2">
    <g id="contents">
      <path class="cls-1" d="M17.12,2v8.05H2V2h15.12M18.12,0H1C.45,0,0,.45,0,1v10.06c0,.55.45,1,1,1h17.13c.55,0,1-.45,1-1V1C19.13.45,18.68,0,18.13,0h0Z"/>
      <path class="cls-1" d="M.92,13.82h17.27c.61,0,1.2.19,1.68.56l4.37,3.29c.3.24.35.67.11.97-.13.16-.32.25-.52.26H6.77c-.74,0-1.45-.27-2-.76L.68,14.43c-.14-.13-.16-.35-.03-.49.07-.08.16-.12.27-.12Z"/>
    </g>
  </g>
</svg>