<svg xmlns="http://www.w3.org/2000/svg" width="140" height="59.93" viewBox="0 0 183.995 59.93">
  <g id="グループ_8" data-name="グループ 8" transform="translate(-1065.107 -685)">
    <path id="パス_1" data-name="パス 1" d="M13.68,18.57h2.51v1.24H9.52V18.57H12.2V7.89A12.92,12.92,0,0,1,9.54,9.22L9.28,7.87a12.36,12.36,0,0,0,3.14-1.59h1.26Z" transform="translate(1065.107 685)"/>
    <path id="パス_2" data-name="パス 2" d="M27.89,10.94c.22-.11.24-.1.31,0a16.24,16.24,0,0,1,1.35,3.16c.06.15,0,.19-.22.28l-.37.15c-.22.09-.26.09-.3-.06l-.33-1.07c-.61.07-1.22.15-1.83.2v7.68c0,.09,0,.15-.15.15h-.81c-.13,0-.15,0-.15-.15V13.73l-2,.14a1.9,1.9,0,0,0-.7.17.35.35,0,0,1-.22.07c-.1,0-.13-.09-.17-.24s-.11-.59-.17-1a9.21,9.21,0,0,0,1.19,0h.24c.48-.63.94-1.26,1.36-1.91a26,26,0,0,0-2.69-2.84c-.13-.11-.13-.13,0-.34l.29-.4c.13-.17.19-.17.3-.06l.72.7A17.29,17.29,0,0,0,24.86,6a9.23,9.23,0,0,0,.52-1.24,6.51,6.51,0,0,1,1,.44c.14.1.2.15.2.24s-.06.15-.15.21a1,1,0,0,0-.31.38c-.65,1.11-1.15,1.87-1.76,2.74.43.46.85.9,1.28,1.4.48-.74.94-1.51,1.4-2.29a6.49,6.49,0,0,0,.56-1.25,7.45,7.45,0,0,1,1,.49c.12.08.18.15.18.24s-.07.15-.18.23a2.77,2.77,0,0,0-.63.85c-1,1.62-2.07,3.12-3.07,4.45,1-.06,2.05-.13,3.16-.22-.19-.45-.39-.87-.61-1.3-.06-.11,0-.12.2-.24Zm-3.57,4.78a2.43,2.43,0,0,0-.16.67,16.13,16.13,0,0,1-.82,3.42c-.05.18-.09.25-.16.25s-.11,0-.24-.12a2.32,2.32,0,0,0-.67-.28,12.65,12.65,0,0,0,.91-3.48,5.81,5.81,0,0,0,.05-1.07c.35.06.74.15.93.19s.25.11.25.18a.5.5,0,0,1-.09.24ZM28,15.06c.18-.06.2-.06.26.09a14.2,14.2,0,0,1,.62,2.75c0,.15,0,.21-.2.26l-.42.13c-.28.09-.3.09-.32-.05a13.64,13.64,0,0,0-.54-2.87c0-.13,0-.16.23-.22Zm9.14-4.12a.77.77,0,0,0,.34-.06.37.37,0,0,1,.2-.05c.09,0,.22.05.53.38s.32.35.32.45a.32.32,0,0,1-.11.24,1.25,1.25,0,0,0-.37.64,16.72,16.72,0,0,1-2.44,5,11.13,11.13,0,0,0,3.62,2.66,2.22,2.22,0,0,0-.57.74c-.09.18-.15.26-.22.26a1.047,1.047,0,0,1-.3-.13A12.63,12.63,0,0,1,35,18.4a13.14,13.14,0,0,1-3.77,2.85.79.79,0,0,1-.3.11c-.09,0-.15-.08-.28-.24a2,2,0,0,0-.61-.56,11.18,11.18,0,0,0,4.29-3,15.55,15.55,0,0,1-2.4-5.91,24.549,24.549,0,0,1-.63,4.23,12.66,12.66,0,0,1-2.59,5.21c-.11.13-.16.19-.24.19s-.12-.06-.24-.19a2,2,0,0,0-.61-.5A10.74,10.74,0,0,0,30.2,15.8a33.63,33.63,0,0,0,1-8.91h-2c-.09,0-.15,0-.15-.15V6c0-.13,0-.15.15-.15h6.15a1.28,1.28,0,0,0,.48-.07.43.43,0,0,1,.17,0c.13,0,.22,0,.54.33s.31.37.31.47a.38.38,0,0,1-.17.24.67.67,0,0,0-.24.44c-.2.94-.55,2.24-1,3.68Zm-2,1c-.07.2-.13.4-.19.59s-.07.18-.31.13l-.48-.11c-.3-.08-.33-.1-.28-.28a42.459,42.459,0,0,0,1.5-5.34H32.06a17.565,17.565,0,0,0,2.87,9.81,14.14,14.14,0,0,0,2.23-4.8Z" transform="translate(1065.107 685)"/>
    <path id="パス_9" data-name="パス 9" d="M8.5,43.3a4.09,4.09,0,0,1,4.29-3.58c2.33,0,4,1.29,4,3.49,0,1.48-.61,2.59-3,4.55A13.41,13.41,0,0,0,10,52.06h6.8v1.28H8.39V52.19a15.5,15.5,0,0,1,4.25-5.25c2-1.77,2.5-2.55,2.5-3.73A2.16,2.16,0,0,0,12.77,41c-1.48,0-2.44.89-2.7,2.67Z" transform="translate(1065.107 685)"/>
    <path id="パス_10" data-name="パス 10" d="M27.59,44.47c.22-.11.24-.09.32,0a15.68,15.68,0,0,1,1.34,3.16c.06.14,0,.18-.22.27l-.37.15c-.22.09-.26.09-.29-.06L28,47c-.6.08-1.21.15-1.82.21v7.68c0,.1,0,.14-.14.14h-.82c-.13,0-.15,0-.15-.14V47.26l-2,.15a1.77,1.77,0,0,0-.7.16.37.37,0,0,1-.22.08c-.09,0-.13-.1-.17-.24s-.11-.6-.16-1a7.58,7.58,0,0,0,1.18,0h.24c.48-.63.94-1.26,1.37-1.91A27,27,0,0,0,22,41.68c-.13-.11-.13-.13,0-.33l.29-.41c.13-.17.19-.17.3-.06l.72.71a18.19,18.19,0,0,0,1.2-2.11,8,8,0,0,0,.52-1.24,7.73,7.73,0,0,1,1,.44c.15.1.2.15.2.24s0,.15-.14.21a.88.88,0,0,0-.32.39c-.65,1.1-1.14,1.86-1.76,2.73.43.46.86.91,1.28,1.41.48-.74.94-1.52,1.4-2.3a6.23,6.23,0,0,0,.56-1.25,6,6,0,0,1,1,.5c.13.07.18.14.18.24s-.07.14-.18.22a3,3,0,0,0-.63.85c-1,1.62-2.07,3.12-3.07,4.45,1,0,2.05-.13,3.16-.22-.18-.44-.39-.87-.61-1.29-.05-.11,0-.13.21-.24ZM24,49.25a2.55,2.55,0,0,0-.16.67,16.69,16.69,0,0,1-.81,3.42c-.06.18-.1.26-.17.26s-.11-.06-.24-.13a2.87,2.87,0,0,0-.67-.28,12.34,12.34,0,0,0,.91-3.47,6,6,0,0,0,.06-1.08c.35.06.73.15.92.19s.26.11.26.18A.47.47,0,0,1,24,49.25Zm3.72-.66c.18-.06.2-.06.26.09a14.2,14.2,0,0,1,.63,2.75c0,.15,0,.21-.21.26l-.42.13c-.28.1-.3.1-.32,0a13.76,13.76,0,0,0-.53-2.87c0-.13,0-.16.22-.22Zm9.15-4.12a.72.72,0,0,0,.33-.06.49.49,0,0,1,.2,0c.09,0,.22,0,.54.39s.31.35.31.44a.32.32,0,0,1-.11.24,1.24,1.24,0,0,0-.37.65,16.31,16.31,0,0,1-2.44,5A11.13,11.13,0,0,0,39,53.76a2.44,2.44,0,0,0-.57.74c-.09.19-.15.26-.22.26a.82.82,0,0,1-.3-.13,12.63,12.63,0,0,1-3.23-2.7,13.14,13.14,0,0,1-3.77,2.85.82.82,0,0,1-.29.11c-.1,0-.15-.07-.28-.24a2.11,2.11,0,0,0-.61-.55,11.27,11.27,0,0,0,4.28-3,15.48,15.48,0,0,1-2.4-5.91A23.62,23.62,0,0,1,31,49.38a12.63,12.63,0,0,1-2.58,5.21c-.11.13-.17.19-.24.19s-.13-.06-.24-.19a1.94,1.94,0,0,0-.61-.49,10.76,10.76,0,0,0,2.62-4.77,33.17,33.17,0,0,0,1-8.91h-2c-.1,0-.14,0-.14-.15v-.78c0-.12,0-.14.14-.14h6.16a1.13,1.13,0,0,0,.48-.07.38.38,0,0,1,.16,0c.13,0,.23,0,.54.34s.31.36.31.46a.4.4,0,0,1-.16.24.63.63,0,0,0-.24.44c-.21.94-.56,2.24-1,3.68Zm-2,1c-.07.2-.13.41-.18.59s-.08.19-.32.13L33.89,46c-.29-.08-.33-.09-.27-.28a42.24,42.24,0,0,0,1.49-5.34H31.77a17.592,17.592,0,0,0,2.86,9.81,13.88,13.88,0,0,0,2.24-4.8Z" transform="translate(1065.107 685)"/>
    <g id="グループ_6" data-name="グループ 6">
      <rect id="長方形_2" data-name="長方形 2" width="69.82" height="26.4" transform="translate(1179.282 718.53)" fill="#fff"/>
      <path id="パス_6" data-name="パス 6" d="M101.29,5.77,103,11a.1.1,0,0,0,.1.06h5.5a.1.1,0,0,1,.06.18l-4.46,3.22a.1.1,0,0,0,0,.11l1.72,5.24a.1.1,0,0,1-.15.11l-4.45-3.25a.09.09,0,0,0-.12,0l-4.44,3.25a.1.1,0,0,1-.15-.11l1.71-5.24a.11.11,0,0,0,0-.11l-4.47-3.22a.1.1,0,0,1,.06-.18h5.51a.09.09,0,0,0,.09-.06l1.69-5.25a.1.1,0,0,1,.09.02Z" transform="translate(1082.998 685)" fill="#ed7d31"/>
      <path id="パス_7" data-name="パス 7" d="M121.84,5.77,123.53,11a.1.1,0,0,0,.1.06h5.5a.1.1,0,0,1,.06.18l-4.46,3.22a.1.1,0,0,0,0,.11l1.72,5.24a.1.1,0,0,1-.15.11l-4.45-3.25a.09.09,0,0,0-.12,0l-4.44,3.25a.1.1,0,0,1-.15-.11l1.71-5.24a.1.1,0,0,0,0-.11l-4.46-3.22a.1.1,0,0,1,.06-.18h5.51A.09.09,0,0,0,120,11l1.69-5.25a.09.09,0,0,1,.15.02Z" transform="translate(1086.913 685)" fill="#ed7d31"/>
      <path id="パス_8" data-name="パス 8" d="M143,5.77,144.69,11a.09.09,0,0,0,.09.06h5.51a.1.1,0,0,1,.06.18l-4.47,3.22a.09.09,0,0,0,0,.11l1.71,5.24a.1.1,0,0,1-.15.11L143,16.68a.08.08,0,0,0-.11,0l-4.45,3.25a.1.1,0,0,1-.15-.11L140,14.58a.12.12,0,0,0,0-.11l-4.46-3.22a.1.1,0,0,1,.05-.18H141a.09.09,0,0,0,.09-.06l1.69-5.25a.11.11,0,1,1,.22.01Z" transform="translate(1092.192 685)" fill="#b3b3b3"/>
      <path id="パス_14" data-name="パス 14" d="M101.29,39.31,103,44.55a.11.11,0,0,0,.1.07h5.5a.1.1,0,0,1,.06.18L104.17,48a.1.1,0,0,0,0,.11l1.72,5.24a.1.1,0,0,1-.15.11l-4.45-3.25a.09.09,0,0,0-.12,0l-4.44,3.25a.1.1,0,0,1-.15-.11l1.71-5.24a.11.11,0,0,0,0-.11l-4.47-3.22a.1.1,0,0,1,.06-.18h5.51a.1.1,0,0,0,.09-.07l1.69-5.24A.1.1,0,0,1,101.29,39.31Z" transform="translate(1082.996 685)" fill="#ed7d31"/>
      <path id="パス_15" data-name="パス 15" d="M121.84,39.31l1.69,5.24a.11.11,0,0,0,.1.07h5.5a.1.1,0,0,1,.06.18L124.73,48a.1.1,0,0,0,0,.11l1.72,5.24a.1.1,0,0,1-.15.11l-4.45-3.25a.09.09,0,0,0-.12,0l-4.44,3.25a.1.1,0,0,1-.15-.11l1.71-5.24a.1.1,0,0,0,0-.11l-4.46-3.22a.1.1,0,0,1,.06-.18h5.51a.1.1,0,0,0,.09-.07l1.69-5.24A.09.09,0,0,1,121.84,39.31Z" transform="translate(1086.913 685)" fill="#b3b3b3"/>
      <path id="パス_16" data-name="パス 16" d="M143,39.31l1.69,5.24a.1.1,0,0,0,.09.07h5.51a.1.1,0,0,1,.06.18L145.88,48a.09.09,0,0,0,0,.11l1.71,5.24a.1.1,0,0,1-.15.11L143,50.21a.08.08,0,0,0-.11,0l-4.45,3.25a.1.1,0,0,1-.15-.11L140,48.11a.12.12,0,0,0,0-.11l-4.46-3.22a.1.1,0,0,1,.05-.18h5.51a.1.1,0,0,0,.09-.07l1.69-5.24a.1.1,0,0,1,.12.02Z" transform="translate(1092.192 685)" fill="#b3b3b3"/>
      <path id="パス_17" data-name="パス 17" d="M121.75,39.24a.09.09,0,0,0-.09.07L120,44.55a.1.1,0,0,1-.09.07H114.4a.1.1,0,0,0-.06.18l4.43,3.2a.1.1,0,0,1,0,.11l-1.71,5.24a.1.1,0,0,0,.15.11l4.44-3.25h.06Z" transform="translate(1085.82 685)" fill="#ed7d31"/>
      <g id="グループ_4" data-name="グループ 4">
        <path id="パス_13" data-name="パス 13" d="M182.447,34.85V58.61H1.548V34.85h180.9m1.548-1.32H0v26.4H183.995Z" transform="translate(1065.107 685)"/>
        <g id="グループ_3" data-name="グループ 3">
          <path id="パス_5" data-name="パス 5" d="M182.447,1.32V25.08H1.548V1.32h180.9M183.995,0H0V26.4H183.995Z" transform="translate(1065.107 685)"/>
          <g id="グループ_2" data-name="グループ 2">
            <text id="難易度" transform="translate(1112 706)" font-size="20" font-family="HiraginoSans-W3, Hiragino Sans"><tspan x="0" y="0">難易度</tspan></text>
            <text id="難易度-2" data-name="難易度" transform="translate(1112 739)" font-size="20" font-family="HiraginoSans-W3, Hiragino Sans"><tspan x="0" y="0">難易度</tspan></text>
          </g>
        </g>
      </g>
    </g>
  </g>
</svg>
