<svg xmlns="http://www.w3.org/2000/svg" width="120" height="26.4" viewBox="0 0 148.808 26.4">
  <g id="グループ_3" data-name="グループ 3" transform="translate(-1296 -490)">
    <rect id="長方形_2" data-name="長方形 2" width="69.82" height="26.4" transform="translate(1374.988 490)" fill="#fff"/>
    <path id="パス_4" data-name="パス 4" d="M66.11,5.77,67.8,11a.09.09,0,0,0,.09.06H73.4a.1.1,0,0,1,.06.18L69,14.47a.11.11,0,0,0,0,.11l1.71,5.24a.1.1,0,0,1-.15.11l-4.44-3.25a.09.09,0,0,0-.12,0l-4.45,3.25a.1.1,0,0,1-.15-.11l1.72-5.24a.1.1,0,0,0,0-.11l-4.46-3.22a.1.1,0,0,1,.06-.18h5.5a.1.1,0,0,0,.1-.06L66,5.76a.1.1,0,0,1,.11.01Z" transform="translate(1312.856 490)" fill="#ed7d31"/>
    <path id="パス_5" data-name="パス 5" d="M86.67,5.77,88.36,11a.09.09,0,0,0,.09.06H94a.1.1,0,0,1,.06.18l-4.47,3.22a.09.09,0,0,0,0,.11l1.71,5.24a.1.1,0,0,1-.15.11L86.7,16.67a.08.08,0,0,0-.11,0l-4.45,3.25a.1.1,0,0,1-.15-.11l1.72-5.24a.1.1,0,0,0,0-.11l-4.46-3.22a.1.1,0,0,1,0-.18H84.7a.11.11,0,0,0,.1-.06l1.68-5.25a.1.1,0,0,1,.19.02Z" transform="translate(1317.074 490)" fill="#ed7d31"/>
    <path id="パス_6" data-name="パス 6" d="M107.83,5.77,109.51,11a.1.1,0,0,0,.1.06h5.5a.1.1,0,0,1,.06.18l-4.46,3.22a.1.1,0,0,0,0,.11l1.72,5.24a.1.1,0,0,1-.15.11l-4.45-3.25a.09.09,0,0,0-.12,0l-4.44,3.25a.1.1,0,0,1-.15-.11l1.71-5.24a.11.11,0,0,0,0-.11l-4.47-3.22a.1.1,0,0,1,.06-.18h5.51A.09.09,0,0,0,106,11l1.69-5.25a.1.1,0,0,1,.14.02Z" transform="translate(1319.078 490)" fill="#ed7d31"/>
    <g id="グループ_2" data-name="グループ 2">
      <path id="パス_3" data-name="パス 3" d="M147.195,1.32V25.08H1.614V1.32H147.195M148.808,0H0V26.4H148.808Z" transform="translate(1296 490)"/>
      <text id="難易度" transform="translate(1306 510)" font-size="18" font-family="HiraginoSans-W3, Hiragino Sans"><tspan x="0" y="0">難易度</tspan></text>
    </g>
  </g>
</svg>
