<?xml version="1.0" encoding="utf-8"?>
<!-- Generator: Adobe Illustrator 27.2.0, SVG Export Plug-In . SVG Version: 6.00 Build 0)  -->
<svg version="1.1" id="uuid-fde58dd9-7acb-43b9-a71c-29a90855b518"
	 xmlns="http://www.w3.org/2000/svg" xmlns:xlink="http://www.w3.org/1999/xlink" x="0px" y="0px" viewBox="0 0 323.5 77.5"
	 style="enable-background:new 0 0 323.5 77.5;" xml:space="preserve">
<style type="text/css">
	.st0{fill:#3B241A;}
	.st1{fill:none;}
	.st2{enable-background:new    ;}
</style>
<path d="M35.9,41.8l-4-1.2c-1.2-0.4-2.5,0.2-3,1.4L27,46.3c-0.4,0.9,0,2,0.9,2.4l4.3,1.8c0.4,0.3,0.6,0.8,0.4,1.3
	c-1.1,4.4-3.1,8.7-5.8,13c-0.2,0.4-0.7,0.7-1.2,0.6l-3.2-1.5c-1.5-0.7-3.3,0-4,1.5l-1.5,3.5c-0.4,1-0.1,2.2,0.9,2.8l3.7,2.2
	c0.7,0.4,1.4,0.7,2.1,0.8l0,0c3.3,0.6,6.5-1.1,7.9-4.2c3.6-6.6,6.5-13,8.4-18.9c1.4-3.2,0.5-6.8-2.3-9l0,0
	C37.1,42.3,36.5,42,35.9,41.8L35.9,41.8z"/>
<path d="M0.9,60.2C-2.1,51,3,41,12.3,38l1.1,3.6C6.1,44,2.1,51.8,4.4,59.1L0.9,60.2L0.9,60.2z"/>
<path class="st0" d="M6.9,58.3c-0.9-2.9-0.7-5.9,0.7-8.6C9,47,11.3,45,14.2,44.1l1.1,3.6c-4,1.3-6.1,5.5-4.9,9.5L6.9,58.3L6.9,58.3z
	"/>
<path d="M12.7,56.4c-0.4-1.3-0.3-2.7,0.3-4c0.6-1.2,1.7-2.2,3-2.6l1.1,3.6c-0.4,0.1-0.7,0.4-0.9,0.7c-0.2,0.4-0.2,0.8-0.1,1.1
	C16.3,55.3,12.7,56.4,12.7,56.4z"/>
<path d="M6.9,58.3c-0.9-2.9-0.7-5.9,0.7-8.6C9,47,11.3,45,14.2,44.1l1.1,3.6c-4,1.3-6.1,5.5-4.9,9.5L6.9,58.3L6.9,58.3z"/>
<polygon class="st1" points="371.1,77.5 49.1,77.5 55.7,39.8 377.7,39.8 "/>
<g>
	<g>
		<g>
			<path d="M69.9,53.5c1.6,9.3-0.9,20.6-10.3,20.6c-6.2,0-9.5-4.8-10.5-10.7c-1.7-9.4,1.3-20.1,10.4-20.1
				C65.9,43.3,69,48.2,69.9,53.5z M55.7,63.6c0.4,2.2,1.3,5.3,3.9,5.3c4.5,0,4.6-11.3,3.9-15.3c-0.4-2-1.2-5-3.7-5
				C55.3,48.5,54.9,59.2,55.7,63.6z"/>
			<path d="M82.6,50L82.6,50l-5.5,2.6L76,47.4l7.6-3.6H89l-0.4,29.8h-6.4L82.6,50z"/>
			<path d="M98.5,73.6v-4.2l5.6-5c5.1-4.9,8.3-8.3,7.7-11.9c-0.4-2.1-2.1-3.6-4.7-3.6c-2.7,0-4.6,0.8-6,1.8L98.9,46
				c2.1-1.5,5.4-2.6,8.8-2.6c6,0,9.9,3.5,10.7,8.1c1.1,6.1-3.1,10.3-7.6,14.3l-2.6,2.1V68H119l-0.1,5.6H98.5z"/>
			<path d="M144.3,53.5c1.6,9.3-0.9,20.6-10.3,20.6c-6.2,0-9.5-4.8-10.5-10.7c-1.7-9.4,1.3-20.1,10.4-20.1
				C140.3,43.3,143.4,48.2,144.3,53.5z M130,63.6c0.4,2.2,1.3,5.3,3.9,5.3c4.5,0,4.6-11.3,3.9-15.3c-0.4-2-1.2-5-3.7-5
				C129.7,48.5,129.3,59.2,130,63.6z"/>
			<path d="M159.7,59.2l-0.1,4.6h-11.9l0.1-4.6H159.7z"/>
			<path d="M182.1,49.4h-10.5L171,54c0.5-0.1,0.8-0.1,1.2-0.1c1.9,0,4.4,0.5,6.5,1.8c2.3,1.4,4,3.8,4.4,6.6
				c1.3,7.5-4.2,11.7-11.7,11.7c-3.6,0-6.7-0.8-8-1.8l0.8-5.2c1.3,0.7,3.8,1.5,6.4,1.5c3.2,0,6.5-1.8,5.9-5
				c-0.5-2.6-2.5-4.6-8.2-4.6c-1.4,0-2.4,0.1-3.6,0.2l1.6-15.4h16L182.1,49.4z"/>
			<path d="M199.6,73.6l0.1-7.2H187l0.1-4.4l11-18.1h8.1L206,61.3h3.5v5.1H206l-0.1,7.2H199.6z M199.8,61.3l0.2-6.5
				c0.1-1.9,0.3-3.9,0.4-5.8h-0.2c-1,2-1.8,3.9-2.9,5.9l-3.8,6.3v0.1H199.8z"/>
			<path d="M233.1,43.8l-0.1,4.4c-3.9,8.5-7.9,16.9-11.9,25.4h-7.3c4-8,8-16.1,11.9-24.1v-0.1h-12.9l0.1-5.6
				C212.9,43.8,233.1,43.8,233.1,43.8z"/>
			<path d="M248.8,59.2l-0.1,4.6h-11.9l0.1-4.6H248.8z"/>
			<path d="M252.1,73.6v-4.2l5.6-5c5.1-4.9,8.3-8.3,7.7-11.9c-0.4-2.1-2.1-3.6-4.7-3.6c-2.7,0-4.6,0.8-6,1.8l-2.2-4.7
				c2.1-1.5,5.4-2.6,8.8-2.6c6,0,9.9,3.5,10.7,8.1c1.1,6.1-3.1,10.3-7.6,14.3l-2.6,2.1V68h10.7l-0.1,5.6H252.1z"/>
			<path d="M297,50.5c0.6,3.2-1.2,5.6-4.1,7.1v0.1c2.9,1.5,4.8,4.1,5.3,6.6c1.1,6.5-4.5,9.8-10.3,9.8c-6.3,0-10.5-3.2-11.3-7.7
				c-0.7-4.2,1.7-7,4.9-8.5v-0.1c-2.3-1.5-3.6-3.5-4-5.6c-1-5.5,3.6-9,9.4-9C291.8,43.3,296.2,45.8,297,50.5z M291.4,65
				c-0.4-2.4-2.3-3.8-4.7-4.5c-2.1,0.6-3.9,2.4-3.4,5.2c0.4,2.1,2,3.7,4.4,3.7C290,69.3,291.9,67.7,291.4,65z M283.8,51.9
				c0.3,1.9,2,3.1,4.1,3.8c1.8-0.6,3.3-2.3,2.9-4.4c-0.3-1.8-1.7-3.2-3.8-3.2C284.8,48.1,283.4,49.9,283.8,51.9z"/>
			<path d="M313.6,73.6l0.1-7.2H301l0.1-4.4l11-18.1h8.1L320,61.4h3.5v5.1H320l-0.1,7.2L313.6,73.6L313.6,73.6z M313.8,61.3l0.2-6.5
				c0.1-1.9,0.3-3.9,0.4-5.8h-0.2c-1,2-1.8,3.9-2.9,5.9l-3.8,6.3v0.1H313.8z"/>
		</g>
	</g>
</g>
<g>
	<g class="st2">
		<path d="M56,21.8c-1.3,0-2.4,0.1-3.3,0.1c-0.3,0-0.3-0.1-0.4-0.4c-0.1-0.4-0.1-1.4-0.2-2c0.9,0.1,2,0.1,3.8,0.1h7.1
			c0.6,0,0.8,0,1.1-0.2c0.1-0.1,0.2-0.1,0.3-0.1c0.1,0,0.2,0,0.4,0.1c0.5,0.3,1.1,0.8,1.5,1.3c0.1,0.1,0.1,0.2,0.1,0.3
			c0,0.2-0.1,0.3-0.3,0.5c-0.2,0.2-0.3,0.4-0.5,0.8c-1,2.4-2.2,4.6-3.9,6.5c-1.7,2-3.7,3.6-5.7,4.8c-0.2,0.1-0.4,0.2-0.5,0.2
			c-0.2,0-0.3-0.1-0.5-0.2c-0.5-0.4-1.1-0.8-1.9-1.1c2.9-1.5,4.7-2.9,6.5-5c1.6-1.8,2.6-3.5,3.4-5.7H56z"/>
		<path d="M73.4,20.9c0-1.4-0.1-2.1-0.2-2.9c0.8,0.1,1.9,0.2,2.5,0.4c0.2,0.1,0.3,0.2,0.3,0.3c0,0.1,0,0.2-0.1,0.3
			c-0.2,0.4-0.2,0.9-0.2,1.9v4c0,1,0,1.8,0.1,2.5c0,0.3-0.1,0.4-0.4,0.4h-1.6c-0.3,0-0.4-0.1-0.4-0.3c0-0.7,0.1-1.9,0.1-2.7V20.9z
			 M82.8,24.6c0,3-0.4,4.9-1.6,6.5c-1,1.3-2.7,2.5-4.4,3.1c-0.2,0.1-0.3,0.1-0.4,0.1c-0.2,0-0.3-0.1-0.5-0.2c-0.5-0.5-1-0.9-1.7-1.2
			c2.1-0.7,3.8-1.6,4.9-2.9c0.9-1.1,1.3-2.8,1.3-5.3v-3.8c0-1.7,0-2.4-0.2-3.3c1,0.1,1.9,0.2,2.6,0.4c0.2,0.1,0.3,0.2,0.3,0.3
			c0,0.1,0,0.2-0.1,0.3c-0.2,0.4-0.2,0.9-0.2,2.2V24.6z"/>
		<path d="M93.1,27.2c-2,0-2.7,0.2-2.9,0.2c-0.2,0-0.4-0.1-0.5-0.4c-0.1-0.5-0.2-1.4-0.3-2.4c1.3,0.2,2.3,0.2,4.3,0.2h6.4
			c1.5,0,3.1,0,4.6-0.1c0.3,0,0.4,0,0.4,0.3c0,0.6,0,1.3,0,1.9c0,0.2-0.1,0.3-0.4,0.3c-1.5,0-3,0-4.5,0H93.1z"/>
		<path d="M120.8,20.3c0.6,0,0.8-0.1,1.1-0.3c0.1-0.1,0.2-0.1,0.3-0.1c0.1,0,0.2,0.1,0.4,0.2c0.4,0.3,1,0.8,1.4,1.2
			c0.1,0.1,0.2,0.2,0.2,0.4s-0.1,0.2-0.2,0.4c-0.2,0.2-0.4,0.4-0.6,0.8c-0.9,1.7-1.8,3.3-2.9,4.8c0.8,0.7,1.6,1.4,2.2,2
			c0.1,0.1,0.1,0.2,0.1,0.3c0,0.1,0,0.2-0.1,0.3c-0.3,0.3-0.9,1-1.2,1.3c-0.1,0.1-0.2,0.1-0.2,0.1c-0.1,0-0.1,0-0.2-0.1
			c-0.5-0.6-1.3-1.4-1.9-1.9c-2,2.2-4.1,3.8-6.4,5c-0.2,0.1-0.3,0.2-0.5,0.2c-0.1,0-0.2-0.1-0.4-0.2c-0.6-0.5-1.2-0.8-1.9-1
			c3.1-1.6,5.1-3,7.4-5.4c-0.8-0.6-1.7-1.2-2.9-1.9c0.4-0.5,0.9-1,1.3-1.4c0.1-0.1,0.2-0.1,0.3-0.1c0.1,0,0.1,0,0.2,0.1
			c0.7,0.3,1.6,0.9,2.6,1.6c1-1.2,1.7-2.5,2.3-4l-5,0.1c-1.6,2.1-2.9,3.5-4.3,4.5c-0.1,0.1-0.3,0.2-0.4,0.2c-0.1,0-0.2,0-0.3-0.1
			c-0.5-0.4-1-0.6-1.7-0.9c2.8-2.2,4.3-4.1,5.7-6.3c0.6-1.1,0.9-1.6,1.1-2.5c0.7,0.2,1.7,0.6,2.3,1c0.2,0.1,0.2,0.2,0.2,0.3
			c0,0.1-0.1,0.3-0.2,0.4c-0.2,0.1-0.3,0.3-0.4,0.4c-0.2,0.3-0.3,0.5-0.6,1L120.8,20.3z M123.4,17.6c0.1-0.1,0.2-0.1,0.3,0
			c0.6,0.5,1.3,1.3,1.9,2.1c0.1,0.1,0.1,0.2-0.1,0.3l-0.8,0.6c-0.1,0.1-0.2,0.1-0.3-0.1c-0.6-0.9-1.2-1.7-2-2.3L123.4,17.6z
			 M125.2,16.3c0.1-0.1,0.2-0.1,0.3,0c0.7,0.6,1.5,1.4,1.9,2.1c0.1,0.1,0.1,0.2-0.1,0.4l-0.8,0.6c-0.2,0.1-0.3,0.1-0.3-0.1
			c-0.5-0.9-1.2-1.6-2-2.3L125.2,16.3z"/>
		<path d="M139.4,29.7c0,1.4,0,2.6,0.1,4.2c0,0.3-0.1,0.3-0.3,0.3c-0.6,0-1.4,0-2,0c-0.2,0-0.3-0.1-0.3-0.3c0-1.4,0.1-2.7,0.1-4.1
			v-4.7c-1.8,1.5-3.9,3-5.5,3.8c-0.1,0.1-0.2,0.1-0.3,0.1c-0.2,0-0.3-0.1-0.4-0.2c-0.5-0.5-1.1-0.9-1.7-1.2c2.8-1.4,4.5-2.6,6.3-4.1
			c1.6-1.3,3-2.7,4.3-4.2c0.7-0.8,0.9-1.2,1.3-2.1c0.9,0.5,1.8,1,2.2,1.4c0.1,0.1,0.2,0.2,0.2,0.3c0,0.2-0.1,0.3-0.3,0.4
			c-0.3,0.2-0.7,0.5-1.2,1.1c-0.8,0.9-1.5,1.7-2.3,2.5V29.7z"/>
		<path d="M153.1,20.3c-0.3-1.1-0.5-1.7-1-2.5c0.8-0.1,1.9-0.2,2.7-0.2c0.3,0,0.4,0.1,0.4,0.6c0,0.4,0.1,1.1,0.3,2l0.4,1.7l5.7-1.5
			c0.8-0.2,1.1-0.4,1.3-0.5c0.1-0.1,0.2-0.1,0.3-0.1c0.1,0,0.3,0.1,0.4,0.2c0.4,0.2,1.1,0.9,1.4,1.2c0.1,0.1,0.2,0.2,0.2,0.3
			c0,0.1-0.1,0.3-0.2,0.4c-0.2,0.2-0.3,0.3-0.4,0.6c-1.1,2.2-2.2,3.8-3,4.7c-0.1,0.1-0.2,0.2-0.3,0.2c-0.1,0-0.3-0.1-0.4-0.2
			c-0.4-0.3-0.9-0.4-1.7-0.6c1.4-1.5,2-2.4,2.9-4l-5.4,1.5l1.2,4.8c0.3,1.2,0.9,3.4,1.2,4.3c0.1,0.3,0,0.4-0.3,0.5
			c-0.6,0.2-1,0.4-1.6,0.5c-0.3,0-0.4,0.1-0.5-0.2c-0.3-1-0.7-2.9-1.1-4.3l-1.3-4.9l-1.6,0.4c-0.9,0.3-2.1,0.7-2.9,1
			c-0.1,0.1-0.2,0.1-0.3,0.1c-0.1,0-0.3-0.1-0.4-0.3c-0.3-0.5-0.6-1.2-0.8-2c1.3-0.2,2.3-0.5,3.8-0.8l1.7-0.5L153.1,20.3z"/>
		<path d="M175.3,20.7c0.3,0.1,0.4,0.3,0.3,0.6c-0.2,0.4-0.2,0.9-0.2,1.4c0,2.5-0.4,4.4-1.1,5.9c-0.5,1.2-1.4,2.5-2.8,3.8
			c-0.2,0.2-0.4,0.3-0.5,0.3c-0.1,0-0.2-0.1-0.4-0.2c-0.5-0.3-1-0.6-1.7-0.8c1.6-1.2,2.6-2.4,3.3-4c0.6-1.4,0.8-2.5,0.8-5.7
			c0-0.8,0-1.1-0.2-1.7C173.9,20.4,174.8,20.6,175.3,20.7z M179.7,29.2c1-0.5,1.9-1.1,2.8-1.9c1.2-0.9,2.4-2,3.5-3.4
			c0.1,0.7,0.3,1.4,0.6,2c0.1,0.1,0.1,0.2,0.1,0.3c0,0.1-0.1,0.3-0.3,0.5c-1,1-1.9,1.8-3,2.6c-1,0.8-2.2,1.6-3.6,2.4
			c-0.4,0.2-0.4,0.3-0.6,0.4c-0.1,0.1-0.3,0.2-0.4,0.2c-0.1,0-0.3-0.1-0.4-0.2c-0.4-0.3-0.9-0.8-1.2-1.2c-0.1-0.2-0.2-0.3-0.2-0.4
			c0-0.1,0-0.2,0.1-0.3c0.1-0.3,0.1-0.5,0.1-1.5v-6.3c0-1.7,0-2.6-0.2-3.5c0.8,0.1,1.9,0.2,2.5,0.4c0.3,0.1,0.4,0.2,0.4,0.3
			c0,0.1-0.1,0.3-0.2,0.5c-0.2,0.4-0.2,0.8-0.2,2.2V29.2z"/>
	</g>
</g>
</svg>
