<?xml version="1.0" encoding="utf-8"?>
<!-- Generator: Adobe Illustrator 24.0.1, SVG Export Plug-In . SVG Version: 6.00 Build 0)  -->
<svg version="1.1" id="レイヤー_1" xmlns="http://www.w3.org/2000/svg" xmlns:xlink="http://www.w3.org/1999/xlink" x="0px"
	 y="0px" viewBox="0 0 16 16" style="enable-background:new 0 0 16 16;" xml:space="preserve">
<style type="text/css">
	.st0{fill:#F4891E;}
</style>
<title>iconアートボード 7</title>
<g id="レイヤー_2_1_">
	<g id="contents">
		<path class="st0" d="M1.4,14.3c-0.3,0-0.6-0.1-0.8-0.4c-0.4-0.5-0.3-1.1,0.1-1.5l0,0L6.1,8L0.7,3.5c-0.4-0.3-0.5-1-0.2-1.4
			c0,0,0-0.1,0.1-0.1l0,0c0.3-0.4,1-0.5,1.4-0.2c0,0,0.1,0,0.1,0.1l0,0L9.4,8l-7.3,6.1C1.9,14.2,1.6,14.3,1.4,14.3z"/>
		<path class="st0" d="M7.7,14.3c-0.3,0-0.6-0.1-0.8-0.4c-0.4-0.4-0.3-1.1,0.1-1.5c0,0,0,0,0,0l0,0L12.4,8L7,3.5
			c-0.4-0.4-0.5-1-0.1-1.5l0,0c0.3-0.4,1-0.5,1.4-0.2c0,0,0.1,0,0.1,0.1l0,0L15.7,8l-7.3,6.1C8.2,14.2,8,14.3,7.7,14.3z"/>
	</g>
</g>
</svg>
