<svg xmlns="http://www.w3.org/2000/svg" viewBox="0 0 26.7 40.15"><title>アセット 172x@</title><g id="レイヤー_2" data-name="レイヤー 2"><g id="contents"><path d="M7.88,39A13.35,13.35,0,0,1,10,13.89L14.53,3.74A6.35,6.35,0,0,1,26.11,9L22.47,17A13.36,13.36,0,0,1,7.88,39Zm5.68-22.76a1.14,1.14,0,0,1-.07.22,2.13,2.13,0,0,1-1.64,1.37,9.12,9.12,0,1,0,6.8,1.56,2.11,2.11,0,0,1-.7-2.59l4.3-9.57a2.11,2.11,0,0,0-3.86-1.73Z" style="fill:#ed6c00"/><path d="M8.6,32.1,4.89,30.43a6.68,6.68,0,1,1,5.48-12.19l3.71,1.66A6.69,6.69,0,1,1,8.6,32.1Zm0-10a2.45,2.45,0,1,0-2,4.47l3.72,1.67a2.46,2.46,0,0,0,2-4.48Z" style="fill:#ed6c00"/></g></g></svg>