<svg xmlns="http://www.w3.org/2000/svg" viewBox="0 0 37.93 58.53"><title>アセット 132x@</title><g id="レイヤー_2" data-name="レイヤー 2"><g id="contents"><path d="M19,58.53A19,19,0,0,1,7.07,24.8V9a9,9,0,0,1,18,0V21.62A19,19,0,0,1,19,58.53Zm-5.89-32.8c0,.13,0,.23,0,.34a3,3,0,0,1-1.32,2.72,12.94,12.94,0,1,0,9.71-1.93,3,3,0,0,1-2.42-2.95V9a3,3,0,1,0-6,0Z" style="fill:#3b241a"/><path d="M15.89,49.19H10.11a9.49,9.49,0,0,1,0-19h5.78a9.49,9.49,0,1,1,0,19Zm-5.78-13a3.49,3.49,0,0,0,0,7h5.78a3.49,3.49,0,1,0,0-7Z" style="fill:#3b241a"/></g></g></svg>