<?xml version="1.0" encoding="UTF-8"?><svg id="b" xmlns="http://www.w3.org/2000/svg" viewBox="0 0 64.463 36.05"><g id="c"><g><g><path d="M7.165,4.635c-.508-.886-1.643-1.193-2.529-.685s-1.193,1.642-.685,2.528l4.573,7.973c.44,.766,.277,1.737-.389,2.318-2.862,2.497-3.567,6.701-1.677,9.995,2.193,3.823,7.086,5.149,10.909,2.957,3.823-2.193,5.149-7.086,2.956-10.91-1.328-2.316-3.721-3.808-6.399-3.992-.666-.046-1.256-.446-1.544-1.048-.028-.057-.053-.116-.083-.189L7.165,4.635Z" style="fill:#fff;"/><g><path d="M7.165,4.635c-.508-.886-1.643-1.193-2.529-.685s-1.193,1.642-.685,2.528l4.573,7.973c.44,.766,.277,1.737-.389,2.318-2.862,2.497-3.567,6.701-1.677,9.995,2.193,3.823,7.086,5.149,10.909,2.957,3.823-2.193,5.149-7.086,2.956-10.91-1.328-2.316-3.721-3.808-6.399-3.992-.666-.046-1.256-.446-1.544-1.048-.028-.057-.053-.116-.083-.189L7.165,4.635ZM3.243,28.609c-2.507-4.371-1.894-9.835,1.362-13.541L.736,8.323C-.789,5.664,.133,2.261,2.792,.736,5.451-.789,8.854,.133,10.379,2.791l4.847,8.45c3.486,.554,6.542,2.641,8.312,5.727,3.209,5.595,1.268,12.759-4.327,15.968s-12.758,1.267-15.967-4.328Z" style="fill:#231815;"/><path d="M9.997,24.833c-1.606-2.801-.635-6.386,2.166-7.992l3.093-1.774c2.801-1.606,6.386-.635,7.992,2.166,1.607,2.801,.635,6.387-2.165,7.993l-3.093,1.774c-2.801,1.606-6.386,.635-7.993-2.167Zm4.01-4.778c-1.028,.59-1.384,1.906-.795,2.934s1.906,1.385,2.934,.796l3.093-1.774c1.028-.59,1.384-1.906,.795-2.934-.59-1.028-1.906-1.384-2.934-.795l-3.093,1.774Z" style="fill:#231815;"/></g></g><g><polygon points="64.219 18.243 64.287 18.842 64.228 19.439 64.04 20.02 64.16 20.635 64.039 21.223 63.877 21.8 64.025 22.45 63.636 22.97 63.232 23.469 63.603 24.227 62.885 24.598 62.689 25.157 62.658 25.798 62.689 26.491 61.858 26.725 61.648 27.288 61.667 28.011 60.967 28.26 60.576 28.708 60.364 29.298 59.85 29.643 59.629 30.247 59.137 30.604 58.891 31.215 58.503 31.691 57.68 31.644 57.468 32.34 56.827 32.479 56.455 32.997 56.005 33.415 55.554 33.849 54.744 33.616 54.262 33.977 53.805 34.417 53.119 34.315 52.649 34.754 52.061 34.876 51.553 35.272 50.937 35.294 50.319 35.262 49.783 35.646 49.209 35.894 48.549 35.417 47.983 35.777 47.391 36.05 46.782 36.019 46.179 35.848 45.59 35.633 44.967 35.863 44.394 35.587 43.814 35.427 43.215 35.383 42.631 35.256 42.019 35.223 41.509 34.84 40.898 34.783 40.372 34.482 39.861 34.165 39.331 33.899 38.543 34.132 38.049 33.765 37.802 33.001 37.26 32.753 36.512 32.784 36.244 32.133 35.843 31.683 35.223 31.493 34.85 31.013 34.323 30.696 34.009 30.167 33.31 29.985 33.361 29.157 32.817 28.828 32.432 28.368 31.933 27.978 31.95 27.259 31.297 26.947 31.088 26.372 30.835 25.825 30.939 25.122 30.272 24.753 30.224 24.127 29.772 23.642 30.176 22.896 29.628 22.423 29.302 21.876 29.393 21.242 29.447 20.627 29.079 20.064 29.534 19.425 29.074 18.849 29.025 18.243 29.127 17.639 29.471 17.056 29.511 16.464 29.5 15.864 29.666 15.288 29.287 14.603 29.898 14.123 29.886 13.504 30.213 12.979 30.17 12.334 30.35 11.758 30.462 11.149 30.587 10.536 31.465 10.302 31.737 9.779 31.534 8.965 32.205 8.677 32.314 8.026 33.05 7.825 33.195 7.184 33.506 6.661 34.011 6.311 34.564 6.02 34.706 5.307 35.458 5.25 35.517 4.392 36.117 4.174 36.557 3.753 37.238 3.687 37.618 3.169 38.287 3.13 38.84 2.911 39.183 2.26 39.899 2.393 40.461 2.211 40.915 1.736 41.468 1.501 41.973 1.083 42.549 .875 43.235 1.176 43.771 .791 44.427 1.124 44.977 .697 45.557 .361 46.177 .554 46.782 .383 47.39 .453 47.991 .595 48.601 .569 49.204 .642 49.72 1.227 50.31 1.286 50.956 1.132 51.448 1.607 52.035 1.708 52.587 1.923 53.143 2.125 53.845 1.994 54.216 2.621 54.904 2.577 55.354 3.005 55.973 3.136 56.389 3.602 56.967 3.82 57.58 4.01 57.829 4.671 58.182 5.174 58.948 5.222 59.166 5.864 59.409 6.455 59.979 6.74 60.614 6.994 60.85 7.579 61.03 8.189 61.408 8.653 61.65 9.205 62.126 9.618 62.47 10.116 62.955 10.553 63.218 11.105 63.323 11.721 63.242 12.393 63.572 12.914 63.969 13.427 64.114 14.019 64.219 14.619 64.057 15.263 64.265 15.839 64.463 16.424 64.005 17.063 64.274 17.644 64.219 18.243" style="fill:#ed6c00;"/><g><circle cx="39.864" cy="11.703" r="2.087" style="fill:#fff;"/><circle cx="52.504" cy="11.703" r="2.087" style="fill:#fff;"/><path d="M46.519,22.128h-3.814c-.829,0-1.397-.835-1.092-1.606l3.254-8.235c.095-.241,.368-.36,.61-.264l.922,.364c.241,.095,.36,.368,.264,.61l-2.338,5.917c-.244,.617,.211,1.285,.874,1.285h1.321c.259,0,.47,.21,.47,.47v.99c0,.259-.21,.47-.47,.47Z" style="fill:#fff;"/><path d="M44.257,29.352c-.498,0-1.008-.019-1.529-.057-.263-.019-.463-.257-.438-.519l.125-1.309c.024-.254,.251-.437,.505-.418,3.592,.261,6.506-.502,8.449-2.211,1.815-1.596,2.829-3.999,3.018-7.147,.015-.255,.225-.456,.48-.447l1.313,.044c.264,.009,.474,.238,.459,.502-.218,3.787-1.489,6.726-3.78,8.741-2.116,1.862-5.064,2.822-8.603,2.822Z" style="fill:#fff;"/></g></g></g></g></svg>