<svg xmlns="http://www.w3.org/2000/svg" viewBox="0 0 215.42 22.97"><defs><style>.cls-1{fill:#f4891e;}.cls-2{fill:#fff;}</style></defs><g id="レイヤー_2" data-name="レイヤー 2"><g id="header"><rect class="cls-1" width="215.42" height="22.97"/><path class="cls-2" d="M16.89,10.89a11.84,11.84,0,0,1-2,2.16,16.07,16.07,0,0,1-2.65,2,.58.58,0,0,1-.32.12A.3.3,0,0,1,11.7,15a3.12,3.12,0,0,0-1.15-.82A16.72,16.72,0,0,0,13.82,12a13,13,0,0,0,2.06-2.17l-2.45,0c-.73,0-1.52,0-2.24.07-.13,0-.19-.09-.2-.24a10.16,10.16,0,0,1-.11-1.36c.84.06,1.66.07,2.5.07h3.34l-.06-1.25a7.49,7.49,0,0,0-.22-1.65,13.28,13.28,0,0,1,1.76.15c.14,0,.18.09.18.17a.63.63,0,0,1-.05.21,4,4,0,0,0-.06,1.29l0,1.07h1.22c1,0,1.68,0,2.72-.07.14,0,.21.07.21.16,0,.4,0,.83,0,1.22a.18.18,0,0,1-.19.2c-1,0-1.83-.07-2.69-.07H18.44L18.69,15A1.47,1.47,0,0,1,18,16.52a4.31,4.31,0,0,1-1.93.49c-.27,0-.37-.06-.44-.24a2.74,2.74,0,0,0-1-1.24,11.42,11.42,0,0,0,2-.14c.32-.07.43-.21.4-.83Z"/><path class="cls-2" d="M27,6.73a.27.27,0,0,1,.2-.11.37.37,0,0,1,.18.07,14.42,14.42,0,0,1,2.68,2c.08.08.12.14.12.19a.26.26,0,0,1-.08.18c-.21.28-.67.84-.87,1s-.11.12-.17.12-.11-.05-.18-.12a15.24,15.24,0,0,0-2.86-2.28C26.36,7.44,26.77,7,27,6.73Zm1.22,7.38a21,21,0,0,0,4-2.6A21.25,21.25,0,0,0,36.12,7.7a6.06,6.06,0,0,0,.4,1.63.77.77,0,0,1,.07.27c0,.13-.07.24-.23.42a22.33,22.33,0,0,1-3.22,3,30,30,0,0,1-4.23,2.75,4.53,4.53,0,0,0-.94.64.4.4,0,0,1-.25.14.41.41,0,0,1-.24-.15,10.32,10.32,0,0,1-1.12-1.56A7.93,7.93,0,0,0,28.25,14.11Z"/><path class="cls-2" d="M42.9,10.4c-.7,0-1.4,0-2.1.06-.13,0-.19-.09-.21-.27a9.36,9.36,0,0,1-.16-1.42A23.16,23.16,0,0,0,43,8.89h4.8a1.54,1.54,0,0,0,.75-.16.31.31,0,0,1,.18-.08.34.34,0,0,1,.21.1,9,9,0,0,1,.94.86.46.46,0,0,1,.14.3.34.34,0,0,1-.16.26,1.67,1.67,0,0,0-.47.66A12.21,12.21,0,0,1,43.68,17a.63.63,0,0,1-.28.1.43.43,0,0,1-.31-.17,4.13,4.13,0,0,0-1.3-.72,11,11,0,0,0,5.88-5.84Zm.93-3c-.63,0-1.33,0-1.91.05-.14,0-.19-.08-.2-.3a13,13,0,0,1-.07-1.35,20.08,20.08,0,0,0,2.3.1h2.52c.91,0,1.65,0,2.2-.07.12,0,.17.07.17.22a10.09,10.09,0,0,1,0,1.1c0,.23-.05.29-.26.28-.46,0-1.12,0-2,0Z"/><path class="cls-2" d="M61.06,13.93c0,1,0,1.79,0,2.91,0,.18-.06.24-.21.24a10.9,10.9,0,0,1-1.4,0c-.16,0-.21-.06-.2-.22,0-1,.06-1.92.06-2.88V10.72a24,24,0,0,1-3.85,2.69.39.39,0,0,1-.51-.08,4.84,4.84,0,0,0-1.2-.83A22.59,22.59,0,0,0,58.2,9.63a22.35,22.35,0,0,0,3-2.93,4.12,4.12,0,0,0,.89-1.44,12.75,12.75,0,0,1,1.55,1,.25.25,0,0,1,.11.21.4.4,0,0,1-.19.31,4.06,4.06,0,0,0-.84.77,23.3,23.3,0,0,1-1.64,1.76Z"/><path class="cls-2" d="M69,6.73a.27.27,0,0,1,.2-.11.41.41,0,0,1,.18.07,14.71,14.71,0,0,1,2.67,2c.09.08.13.14.13.19a.28.28,0,0,1-.09.18c-.21.28-.67.84-.86,1s-.12.12-.17.12-.11-.05-.18-.12A15.24,15.24,0,0,0,68,7.82C68.28,7.44,68.68,7,69,6.73Zm1.22,7.38a20.63,20.63,0,0,0,4-2.6A21.33,21.33,0,0,0,78,7.7a6.09,6.09,0,0,0,.39,1.63.77.77,0,0,1,.07.27c0,.13-.07.24-.22.42a22.88,22.88,0,0,1-3.22,3,30.59,30.59,0,0,1-4.23,2.75,4.23,4.23,0,0,0-.94.64.43.43,0,0,1-.25.14.38.38,0,0,1-.24-.15,9.67,9.67,0,0,1-1.12-1.56A8.09,8.09,0,0,0,70.17,14.11Z"/><path class="cls-2" d="M84.87,7.29c1.06,0,1.41,0,1.48,0s.16,0,.16.16v1c0,.15,0,.17-.16.17s-.42,0-1.48,0H83.58c-1.06,0-1.41,0-1.49,0s-.15,0-.15-.17v-1c0-.14,0-.16.15-.16s.43,0,1.49,0Zm1.27,8c0,1.62,0,1.93,0,2s0,.16-.15.16h-1c-.14,0-.15,0-.15-.16v-.39H83.68v.64c0,.15,0,.16-.16.16h-.93c-.16,0-.17,0-.17-.16s0-.4,0-2.1v-.89c0-.89,0-1.22,0-1.32s0-.15.17-.15.37,0,1.27,0h.87c.89,0,1.19,0,1.29,0s.15,0,.15.15,0,.42,0,1.08ZM84.8,5.37c.89,0,1.17,0,1.26,0s.17,0,.17.16v.92c0,.14,0,.15-.17.15s-.37,0-1.26,0h-.94c-.91,0-1.19,0-1.27,0s-.16,0-.16-.15V5.5c0-.14,0-.16.16-.16s.36,0,1.27,0Zm-.13,3.91c.84,0,1.1,0,1.18,0s.17,0,.17.15v.91c0,.15,0,.16-.17.16s-.34,0-1.18,0h-.75c-.86,0-1.11,0-1.19,0s-.16,0-.16-.16V9.4c0-.14,0-.15.16-.15s.33,0,1.19,0Zm0,1.89c.84,0,1.1,0,1.18,0s.17,0,.17.16v.89c0,.14,0,.16-.17.16s-.34,0-1.18,0h-.75c-.86,0-1.11,0-1.19,0s-.16,0-.16-.16V11.3c0-.14,0-.16.16-.16s.33,0,1.19,0Zm-1,3.07v1.47h1.23V14.24Zm11.13.94c0,.15,0,.16-.15.16h-.77c0,.31,0,.6,0,.84,0,.59-.07.84-.33,1.08s-.58.28-1.65.29c-.42,0-.42,0-.52-.43a3.28,3.28,0,0,0-.3-.81c.39,0,.72,0,1.06,0s.46-.1.46-.38v-.64H88.48V16c0,1,0,1.47,0,1.55s0,.14-.15.14h-1c-.14,0-.16,0-.16-.14s0-.52,0-1.51v-.66h-.63c-.14,0-.15,0-.15-.16v-.77c0-.14,0-.16.15-.16l.63,0V12.65c0-1,0-1.42,0-1.52s0-.16.16-.16.5,0,1.73,0h.75v-.66H88.57c-1.35,0-1.81,0-1.89,0s-.16,0-.16-.17V9.47c0-.14,0-.15.16-.15s.54,0,1.89,0v-.7c-.83,0-1.14,0-1.21,0s-.15,0-.15-.16V7.86c0-.12,0-.14.15-.14s.38,0,1.21,0V7.07L87,7.09c-.14,0-.15,0-.15-.16V6.25c0-.14,0-.15.15-.15s.48,0,1.56,0V5.9a4.1,4.1,0,0,0-.09-1.05c.46,0,.9.06,1.28.1.14,0,.21.07.21.11a.51.51,0,0,1-.07.23,1.26,1.26,0,0,0-.09.65v.19H91.2V5.9a4.19,4.19,0,0,0-.08-1.05c.46,0,.89.06,1.27.1.14,0,.21.07.21.11a.57.57,0,0,1-.08.25c-.07.13-.07.24-.07.63v.19c1.27,0,1.72,0,1.82,0s.15,0,.15.15v.68c0,.15,0,.16-.15.16s-.55,0-1.82,0v.68c1,0,1.38,0,1.47,0s.15,0,.15.14v.66c0,.14,0,.16-.15.16s-.48,0-1.47,0v.7h.21c1.36,0,1.82,0,1.9,0s.14,0,.14.15v.73c0,.16,0,.17-.14.17s-.54,0-1.9,0H91.07V11H92c1.23,0,1.67,0,1.75,0s.15,0,.15.16,0,.63,0,1.65v1.5l.79,0c.14,0,.15,0,.15.16ZM89.87,12.7V12H88.48v.73Zm0,1.58v-.74H88.48v.74ZM91.2,7.75V7.07H89.81v.68Zm0,1.6v-.7H89.81v.7ZM91.06,12v.73h1.58V12Zm1.58,2.31v-.74H91.06v.74Z"/><path class="cls-2" d="M100.45,9.36c0,1,0,1.88-.06,2.62a6.71,6.71,0,0,0,1.53-2.79,5.3,5.3,0,0,0,.16-.93c.37.08.85.16,1.17.26s.24.11.24.2a.3.3,0,0,1-.08.19,1.24,1.24,0,0,0-.23.48c-.07.22-.12.43-.19.63a6.38,6.38,0,0,0,1.44,1.63,3.72,3.72,0,0,0-.59.65c-.11.2-.18.3-.25.3s-.16-.09-.28-.24a6.12,6.12,0,0,1-.84-1.08,7,7,0,0,1-.79,1.22c-.15.21-.22.29-.29.29s-.11,0-.18-.12a4.09,4.09,0,0,0-.83-.6c0,.7-.11,1.3-.2,1.89a10.06,10.06,0,0,1-1.05,3.26c-.09.18-.15.28-.22.28s-.16-.08-.28-.22a4.71,4.71,0,0,0-.91-.83,7.91,7.91,0,0,0,1.09-3.1A28.43,28.43,0,0,0,99,9.08c0-1.86,0-2.7,0-2.79s0-.14.15-.14.55,0,1.88,0h2.79V5.86a5.69,5.69,0,0,0-.09-1.13c.55,0,1,0,1.49.08.14,0,.22.08.22.14a.7.7,0,0,1-.08.27,1.34,1.34,0,0,0-.1.61v.35h3.18c1.33,0,1.78,0,1.86,0s.14,0,.14.14v1c0,.14,0,.16-.14.16s-.53,0-1.86,0h-8Zm1.78,7.82c-1.37,0-1.84,0-1.92,0s-.15,0-.15-.17V16c0-.14,0-.15.15-.15s.55,0,1.92,0h2.21V14.5h-1.26c-1.34,0-1.82,0-1.9,0s-.17,0-.17-.17v-.95c0-.14,0-.15.17-.15s.56,0,1.9,0h1.26V9.35a9.38,9.38,0,0,0-.08-1.53c.52,0,.92,0,1.4.1.14,0,.22.08.22.17a.6.6,0,0,1-.08.31,2.58,2.58,0,0,0-.08,1V12a6.93,6.93,0,0,0,1.58-2.8,3.86,3.86,0,0,0,.17-.89,8.19,8.19,0,0,1,1.16.28c.15,0,.24.11.24.18a.27.27,0,0,1-.1.19,1.23,1.23,0,0,0-.23.48l-.15.48a7,7,0,0,0,1.78,1.83,2.77,2.77,0,0,0-.63.72c-.11.18-.18.28-.25.28s-.16-.07-.3-.21A8.22,8.22,0,0,1,108,11.1a8.19,8.19,0,0,1-.89,1.39c-.13.16-.2.25-.27.25s-.17-.09-.32-.24a2.71,2.71,0,0,0-.67-.48v1.26h1.69c1.34,0,1.81,0,1.89,0s.17,0,.17.15v.95c0,.16,0,.17-.17.17s-.55,0-1.89,0h-1.69v1.42h2.61c1.36,0,1.84,0,1.92,0s.16,0,.16.15v1c0,.15,0,.17-.16.17s-.56,0-1.92,0Z"/><path class="cls-2" d="M117,6.11c.16.09.21.17.21.28a.66.66,0,0,1-.1.31,3,3,0,0,0-.25.77,28.1,28.1,0,0,0-.7,5.1c0,.56,0,1.2,0,1.79.28-.64.58-1.24.87-1.94a4.17,4.17,0,0,0,.49.88.28.28,0,0,1,.09.19.42.42,0,0,1-.09.23,8,8,0,0,0-.71,2.13,2.71,2.71,0,0,0,0,.74c0,.1,0,.14-.16.18a6.2,6.2,0,0,1-1.06.24c-.15,0-.21,0-.28-.17a13.08,13.08,0,0,1-.6-4.27,29.85,29.85,0,0,1,.58-5.31,6.83,6.83,0,0,0,.09-1.65A11.07,11.07,0,0,1,117,6.11Zm4.82,3.74a27.87,27.87,0,0,1-2.89,0c-.18,0-.23,0-.25-.18a9.51,9.51,0,0,1-.1-1.28,20.12,20.12,0,0,0,3.2,0c0-.5,0-1,0-1.47a5.37,5.37,0,0,0-.18-1.37,7.93,7.93,0,0,1,1.7.27c.15,0,.25.11.25.23a.55.55,0,0,1-.09.24,2.09,2.09,0,0,0-.11.49c0,.48,0,.84,0,1.49.66-.06,1.39-.16,2-.25.17-.05.2,0,.23.16a6.33,6.33,0,0,1,.08,1,.18.18,0,0,1-.15.21,16,16,0,0,1-2.16.29c0,1.57,0,2.55.1,3.76a9.16,9.16,0,0,1,2.32,1.34c.13.09.14.13.07.28a6.83,6.83,0,0,1-.64,1.08.15.15,0,0,1-.13.08.15.15,0,0,1-.12-.07,9.08,9.08,0,0,0-1.52-1.12c-.11,1.18-.91,1.82-2.56,1.82s-2.51-.75-2.51-2,1-2,2.45-2a5.93,5.93,0,0,1,1.13.11C121.89,12,121.87,11,121.86,9.85Zm-1.14,4.36c-.65,0-1,.24-1,.67s.31.7,1.14.7,1.15-.4,1.15-.91a1.37,1.37,0,0,0,0-.28A3.84,3.84,0,0,0,120.72,14.21Z"/><path class="cls-2" d="M132.43,5.75c.24,0,.33.12.33.26a1.28,1.28,0,0,1-.14.47,8.57,8.57,0,0,0-.19,1.71c-.16,2.43-.21,3.72-.21,5.37s.17,1.78,1.29,1.78a7.39,7.39,0,0,0,4.9-2.57,5.08,5.08,0,0,0,.32,1.33.89.89,0,0,1,.11.33c0,.13-.05.24-.28.44a8,8,0,0,1-5.31,2.1c-1.79,0-2.63-.72-2.63-2.86,0-2.35.13-4.37.2-6a9.21,9.21,0,0,0-.14-2.56A15.26,15.26,0,0,1,132.43,5.75Zm4.24.92c.07,0,.13,0,.21,0a6.4,6.4,0,0,1,1.33,1.5.13.13,0,0,1,0,.22l-.59.44c-.1.07-.16.05-.24,0a6.8,6.8,0,0,0-1.41-1.63Zm1.25-.91c.08,0,.12,0,.21,0a5.8,5.8,0,0,1,1.33,1.44.17.17,0,0,1,0,.26l-.56.43a.15.15,0,0,1-.24,0,6.68,6.68,0,0,0-1.4-1.61Z"/><path class="cls-2" d="M149.72,6.5a3.77,3.77,0,0,0,0-1,6,6,0,0,1,1.65.56c.15.07.22.16.22.25a.51.51,0,0,1-.09.24,2.18,2.18,0,0,0-.28.52c-.09.23-.21.56-.4,1.12a4,4,0,0,1,3.74,4.06c0,2.5-1.51,4-4.3,4.68-.31.07-.4,0-.57-.24a2.85,2.85,0,0,0-.91-.92c1.9-.39,4.19-1.26,4.19-3.7a2.63,2.63,0,0,0-2.53-2.65,24.68,24.68,0,0,1-2,4.09,5,5,0,0,0,.6.72,3.72,3.72,0,0,1-.87.85.26.26,0,0,1-.19.07.29.29,0,0,1-.2-.08c-.11-.11-.22-.22-.38-.41A3.2,3.2,0,0,1,145.05,16c-1.06,0-1.83-.86-1.83-2.27a5.34,5.34,0,0,1,2-4c-.16-.53-.3-1.23-.44-1.84a6,6,0,0,0-.42-1.32,6.5,6.5,0,0,1,1.59.22c.22.06.26.16.26.41a4.33,4.33,0,0,0,.06.8c.07.4.11.66.2,1a8.1,8.1,0,0,1,2.85-.8A10,10,0,0,0,149.72,6.5Zm-5.06,7.13c0,.48.2.86.49.86s.87-.31,1.46-1a15.15,15.15,0,0,1-1-2.27A4,4,0,0,0,144.66,13.63Zm2.92-1.31a17.63,17.63,0,0,0,1.33-2.83,5.53,5.53,0,0,0-2.12.78A10.26,10.26,0,0,0,147.58,12.32Z"/><path class="cls-2" d="M163,11.8a23.08,23.08,0,0,1-2.88-.06c-.16,0-.21-.05-.23-.23a9.42,9.42,0,0,1-.08-1.2,19.44,19.44,0,0,0,3.15.12c0-.54,0-1.08,0-1.61a23.72,23.72,0,0,1-3.35-.07c-.15,0-.22-.06-.23-.2,0-.35-.07-.69-.1-1.26a32.08,32.08,0,0,0,3.67.14c0-.52,0-.88,0-1.36a4.36,4.36,0,0,0-.17-.94,8.47,8.47,0,0,1,1.77.25.28.28,0,0,1,.15.42,1.74,1.74,0,0,0-.21.68c0,.28,0,.47,0,.89A21.92,21.92,0,0,0,167.5,7c.17,0,.22,0,.24.17a8.56,8.56,0,0,1,.07,1c0,.19,0,.21-.15.23a27.76,27.76,0,0,1-3.24.36c0,.56,0,1.08,0,1.58,1.07-.07,1.74-.21,2.75-.36.17,0,.21,0,.22.11s0,.73,0,1.15c0,.14-.05.18-.21.2a25.14,25.14,0,0,1-2.74.33c0,.65,0,1.33.1,2a12.64,12.64,0,0,1,3.71,1.69c.14.13.14.17.1.34a4.53,4.53,0,0,1-.62,1,.21.21,0,0,1-.18.11.27.27,0,0,1-.16-.07,11.33,11.33,0,0,0-2.78-1.6c0,1.51-.93,2.13-2.85,2.13s-2.85-.8-2.85-2,1.1-2,2.8-2a12.63,12.63,0,0,1,1.34.06C163.07,12.85,163.05,12.28,163,11.8Zm-1.2,2.83c-1,0-1.52.29-1.52.74s.43.63,1.39.63a1.76,1.76,0,0,0,1.28-.42,1.35,1.35,0,0,0,.15-.78A6,6,0,0,0,161.83,14.63Z"/><path class="cls-2" d="M175.17,5.75c.24,0,.34.12.34.26a1.5,1.5,0,0,1-.14.47,8.17,8.17,0,0,0-.2,1.71c-.14,2.15-.21,3.58-.21,5.42,0,1.41.17,1.73,1.29,1.73a7.37,7.37,0,0,0,4.9-2.57,5.08,5.08,0,0,0,.32,1.33.89.89,0,0,1,.11.33c0,.13-.05.24-.28.44A8,8,0,0,1,176,17c-1.8,0-2.64-.72-2.64-2.86,0-2.35.13-4.37.2-6a9.21,9.21,0,0,0-.14-2.56A14.93,14.93,0,0,1,175.17,5.75Z"/><path class="cls-2" d="M192,7.32c.15,0,.21,0,.22.14a8.85,8.85,0,0,1,.1,1c0,.18,0,.22-.21.26a21.75,21.75,0,0,1-2.44.53c-.95,3.11-1.66,5.26-2.56,7.58-.07.2-.15.18-.31.14a12.09,12.09,0,0,1-1.12-.52.23.23,0,0,1-.11-.28A52.16,52.16,0,0,0,188,9.54c-.81.09-1.79.16-2.45.16-.21,0-.26,0-.29-.23s-.13-.77-.2-1.27a6.84,6.84,0,0,0,1,0,18.64,18.64,0,0,0,2.27-.14c.14-.56.25-1.17.35-1.75a10.76,10.76,0,0,0,.08-1.29,8.3,8.3,0,0,1,1.77.39.24.24,0,0,1,.15.23.34.34,0,0,1-.07.22,3,3,0,0,0-.29.56c-.14.51-.24,1-.34,1.33C190.56,7.7,191.31,7.51,192,7.32ZM191.45,14c.14,0,.2.06.21.2.12,1,.8,1.32,2.15,1.32a20.89,20.89,0,0,0,2.35-.2c.11,0,.15,0,.17.13a9.71,9.71,0,0,1,.11,1.21c0,.17,0,.21-.22.23a16.79,16.79,0,0,1-1.91.15c-1.83,0-2.79-.25-3.42-.91a2.77,2.77,0,0,1-.63-1.92A7.5,7.5,0,0,1,191.45,14Zm-.15-3.71c0-.2,0-.24.25-.28a14.78,14.78,0,0,1,2.73-.32,9.54,9.54,0,0,1,1.64.14c.2,0,.24,0,.24.21a8.33,8.33,0,0,1,0,1.12c0,.24-.07.29-.26.25a9.25,9.25,0,0,0-1.74-.17,14.81,14.81,0,0,0-2.81.33C191.33,11.09,191.3,10.58,191.3,10.3Z"/><path class="cls-2" d="M203.65,13.79h-1.42l-.39-8.34H204Zm.26,1.36V17h-2V15.15Z"/></g></g></svg>