<svg xmlns="http://www.w3.org/2000/svg" width="67" height="18" viewBox="0 0 66.95 17.7"><defs><style>.cls-1{fill:#f4891e;}.cls-2{fill:none;stroke:#fff;stroke-miterlimit:10;stroke-width:0.96px;}.cls-3{fill:#fff;}</style></defs><g id="レイヤー_2" data-name="レイヤー 2"><g id="contents"><rect class="cls-1" width="66.95" height="17.7" rx="8.85"/><path class="cls-2" d="M19.31,8.46a8.91,8.91,0,0,0-7.08-3.6,8.9,8.9,0,0,0-7.07,3.6"/><path class="cls-2" d="M7.26,10.74a6.08,6.08,0,0,1,5-2.69,6.08,6.08,0,0,1,5,2.69"/><path class="cls-2" d="M17.21,10.74a6.08,6.08,0,0,0-5-2.69,6.08,6.08,0,0,0-5,2.69"/><path class="cls-2" d="M9.2,12.84a3.4,3.4,0,0,1,6.07,0"/><path class="cls-2" d="M15.27,12.84a3.4,3.4,0,0,0-6.07,0"/><path class="cls-3" d="M31,8.77C31,12.09,29.29,14,26.71,14s-4.32-1.88-4.32-5.21,1.76-5.24,4.33-5.24S31,5.42,31,8.77Zm-6.79,0c0,2.57,1,3.87,2.47,3.87s2.46-1.3,2.46-3.87-1-3.88-2.46-3.88S24.25,6.19,24.25,8.78Z"/><path class="cls-3" d="M34.06,7.92a2.91,2.91,0,0,1,2.34-1.4,2,2,0,0,1,2.05,2.14v5.15H36.77V9.12c0-.82-.35-1.2-1-1.2a2.18,2.18,0,0,0-1.66,1.21v4.68H32.48V6.67h1.58Z"/><path class="cls-3" d="M41.89,13.81H40.25V3.54h1.64Z"/><path class="cls-3" d="M45.43,5.4H43.66V3.72h1.77Zm-.07,8.41H43.72V6.67h1.64Z"/><path class="cls-3" d="M48.78,7.92a2.89,2.89,0,0,1,2.34-1.4,2,2,0,0,1,2,2.14v5.15H51.48V9.12c0-.82-.35-1.2-1-1.2a2.18,2.18,0,0,0-1.67,1.21v4.68H47.19V6.67h1.59Z"/><path class="cls-3" d="M56.14,10.6c0,1.35.61,2.25,1.79,2.25.74,0,1.26-.42,1.51-1.35l1.48.42a2.82,2.82,0,0,1-3,2.07c-2.13,0-3.38-1.36-3.38-3.7s1.31-3.77,3.24-3.77S61,7.84,61,10.26v.34Zm3.22-1.08c-.08-1.2-.58-1.87-1.56-1.87s-1.56.73-1.64,1.87Z"/></g></g></svg>
