<svg xmlns="http://www.w3.org/2000/svg" viewBox="0 0 750 60"><defs><style>.cls-1{fill:#f4891e;}.cls-2{fill:#fff;}</style></defs><g id="レイヤー_2" data-name="レイヤー 2"><g id="header"><rect class="cls-1" width="750" height="60"/><path class="cls-2" d="M196.3,27.56a21.34,21.34,0,0,1-3.67,4,28.78,28.78,0,0,1-4.91,3.64,1.08,1.08,0,0,1-.6.24.55.55,0,0,1-.44-.26,5.85,5.85,0,0,0-2.13-1.54,30.52,30.52,0,0,0,6.06-4.11,25.07,25.07,0,0,0,3.82-4l-4.55,0c-1.35,0-2.81,0-4.16.13-.24,0-.34-.16-.36-.44a21.38,21.38,0,0,1-.21-2.52c1.56.1,3.09.13,4.65.13H196l-.11-2.32a13.26,13.26,0,0,0-.41-3.07,23.46,23.46,0,0,1,3.28.29c.26.05.33.16.33.31a1.4,1.4,0,0,1-.1.39,7.31,7.31,0,0,0-.1,2.39l.07,2h2.26c1.83,0,3.13-.05,5-.13.26,0,.39.13.39.31,0,.73,0,1.54,0,2.26a.33.33,0,0,1-.36.37c-1.9-.08-3.38-.13-5-.13h-2.1l.47,9.77A2.75,2.75,0,0,1,198.41,38a8,8,0,0,1-3.59.91c-.49,0-.68-.1-.81-.44a5.3,5.3,0,0,0-1.82-2.32,17.67,17.67,0,0,0,3.67-.26c.6-.13.81-.39.75-1.53Z"/><path class="cls-2" d="M216.19,19.84a.49.49,0,0,1,.36-.21.66.66,0,0,1,.34.13,27,27,0,0,1,5,3.69c.16.16.23.26.23.36a.56.56,0,0,1-.15.34c-.39.52-1.25,1.56-1.61,2-.13.13-.21.21-.32.21s-.2-.08-.33-.21a27.94,27.94,0,0,0-5.31-4.24C214.94,21.16,215.7,20.36,216.19,19.84Zm2.26,13.7a38.36,38.36,0,0,0,7.49-4.84,39.16,39.16,0,0,0,7.13-7.07,11.71,11.71,0,0,0,.72,3,1.24,1.24,0,0,1,.13.5c0,.23-.13.44-.41.78a43.07,43.07,0,0,1-6,5.51,56,56,0,0,1-7.85,5.09,10,10,0,0,0-1.75,1.2.51.51,0,0,1-.91,0,18,18,0,0,1-2.08-2.88A15.84,15.84,0,0,0,218.45,33.54Z"/><path class="cls-2" d="M246.69,26.65c-1.3,0-2.6,0-3.9.1-.24,0-.34-.15-.39-.49a19.26,19.26,0,0,1-.29-2.63,45.07,45.07,0,0,0,4.79.21h8.92a2.76,2.76,0,0,0,1.37-.29.58.58,0,0,1,.34-.15.69.69,0,0,1,.39.18,13.89,13.89,0,0,1,1.74,1.61.74.74,0,0,1,.26.55.61.61,0,0,1-.28.49,3,3,0,0,0-.89,1.22c-2.6,5.54-5.59,8.79-10.6,11.5a1.33,1.33,0,0,1-.53.18.88.88,0,0,1-.57-.31,7.49,7.49,0,0,0-2.42-1.36c4.82-2.23,9.05-5.82,10.93-10.84Zm1.74-5.59c-1.17,0-2.47,0-3.56.1-.26,0-.34-.15-.36-.57a22.25,22.25,0,0,1-.13-2.5,34.74,34.74,0,0,0,4.26.19h4.68c1.69,0,3.07-.08,4.08-.13.24,0,.31.13.31.41a11.47,11.47,0,0,1,0,2c0,.44-.07.55-.46.52-.86,0-2.08-.05-3.67-.05Z"/><path class="cls-2" d="M281.45,33.2c0,1.79,0,3.33.08,5.41,0,.34-.1.44-.39.44a22.55,22.55,0,0,1-2.6,0c-.29,0-.39-.1-.36-.42,0-1.87.1-3.56.1-5.33v-6a45.18,45.18,0,0,1-7.15,5,.71.71,0,0,1-.39.1.75.75,0,0,1-.55-.26A9.28,9.28,0,0,0,268,30.55a42.38,42.38,0,0,0,8.19-5.33,42.61,42.61,0,0,0,5.54-5.44,7.52,7.52,0,0,0,1.63-2.67,22.85,22.85,0,0,1,2.89,1.82.45.45,0,0,1,.21.39.76.76,0,0,1-.37.57,8.44,8.44,0,0,0-1.56,1.43,39.93,39.93,0,0,1-3,3.27Z"/><path class="cls-2" d="M297.16,19.84a.48.48,0,0,1,.36-.21.69.69,0,0,1,.34.13,27.3,27.3,0,0,1,5,3.69c.16.16.24.26.24.36a.53.53,0,0,1-.16.34c-.39.52-1.25,1.56-1.61,2-.13.13-.21.21-.31.21a.56.56,0,0,1-.34-.21,27.88,27.88,0,0,0-5.3-4.24C295.91,21.16,296.66,20.36,297.16,19.84Zm2.26,13.7a38.66,38.66,0,0,0,7.49-4.84A39.09,39.09,0,0,0,314,21.63a11.68,11.68,0,0,0,.73,3,1.24,1.24,0,0,1,.13.5c0,.23-.13.44-.42.78a42,42,0,0,1-6,5.51,56,56,0,0,1-7.85,5.09,9.3,9.3,0,0,0-1.74,1.2.71.71,0,0,1-.47.26.64.64,0,0,1-.44-.29,17.44,17.44,0,0,1-2.08-2.88A16.22,16.22,0,0,0,299.42,33.54Z"/><path class="cls-2" d="M327.76,20.88c2,0,2.62-.06,2.75-.06s.29,0,.29.29V23c0,.28,0,.31-.29.31s-.78-.05-2.75-.05h-2.39c-2,0-2.63.05-2.76.05s-.29,0-.29-.31V21.11c0-.26,0-.29.29-.29s.78.06,2.76.06Zm2.36,14.76c0,3,.06,3.59.06,3.75s0,.28-.29.28h-1.77c-.26,0-.28,0-.28-.28v-.73h-2.29v1.2c0,.26,0,.28-.29.28h-1.74c-.29,0-.31,0-.31-.28s.05-.76.05-3.9V34.29c0-1.64-.05-2.26-.05-2.44s0-.29.31-.29.7.05,2.37.05h1.61c1.66,0,2.21-.05,2.39-.05s.29,0,.29.29-.06.78-.06,2Zm-2.49-18.33c1.66,0,2.18,0,2.34,0s.31,0,.31.29v1.71c0,.26,0,.29-.31.29s-.68-.05-2.34-.05h-1.74c-1.69,0-2.21.05-2.37.05s-.29,0-.29-.29V17.55c0-.26,0-.29.29-.29s.68,0,2.37,0Zm-.24,7.26c1.57,0,2-.05,2.19-.05s.31,0,.31.28v1.69c0,.26,0,.29-.31.29s-.62-.05-2.19-.05H326c-1.59,0-2.05.05-2.21.05s-.29,0-.29-.29V24.8c0-.26,0-.28.29-.28s.62.05,2.21.05Zm0,3.51c1.57,0,2,0,2.19,0s.31,0,.31.28V30c0,.26,0,.28-.31.28s-.62-.05-2.19-.05H326c-1.59,0-2.05.05-2.21.05s-.29,0-.29-.28V28.31c0-.26,0-.28.29-.28s.62,0,2.21,0Zm-1.84,5.69V36.5h2.29V33.77Zm20.67,1.74c0,.29,0,.32-.29.32-.07,0-.52,0-1.43,0,0,.57.05,1.12.05,1.56,0,1.09-.13,1.56-.59,2s-1.09.52-3.07.55c-.78,0-.78,0-1-.81a6.91,6.91,0,0,0-.57-1.51c.72.06,1.35.08,2,.08s.86-.18.86-.7v-1.2h-7.72v1.17c0,1.85,0,2.73,0,2.89s0,.26-.29.26h-1.82c-.26,0-.28,0-.28-.26s.05-1,.05-2.81V35.8c-.76,0-1.09,0-1.17,0-.26,0-.29,0-.29-.32V34.08c0-.26,0-.28.29-.28l1.17.05v-3c0-1.82-.05-2.65-.05-2.83s0-.29.28-.29.94.06,3.23.06H337V26.54h-2.39c-2.49,0-3.35.06-3.51.06s-.28,0-.28-.32V24.93c0-.26,0-.28.28-.28s1,.05,3.51.05V23.4c-1.53,0-2.1.05-2.23.05s-.29,0-.29-.29V21.94c0-.23,0-.26.29-.26s.7.05,2.23.05V20.46l-2.88.05c-.26,0-.29,0-.29-.31V19c0-.26,0-.28.29-.28s.88,0,2.88,0V18.3a7.76,7.76,0,0,0-.15-1.95c.85,0,1.66.11,2.36.18.26,0,.39.13.39.21a.86.86,0,0,1-.13.42,2.46,2.46,0,0,0-.15,1.22v.34h2.57V18.3a8.27,8.27,0,0,0-.15-1.95c.85,0,1.66.11,2.36.18.26,0,.39.13.39.21a1.23,1.23,0,0,1-.15.47c-.14.23-.14.44-.14,1.17v.34c2.37,0,3.2,0,3.39,0s.28,0,.28.28V20.2c0,.29,0,.31-.28.31s-1-.05-3.39-.05v1.27c1.85,0,2.58-.05,2.73-.05s.29,0,.29.26v1.22c0,.26,0,.29-.29.29s-.88,0-2.73-.05v1.3h.39c2.53,0,3.39-.05,3.54-.05s.26,0,.26.28v1.35c0,.29,0,.32-.26.32s-1-.06-3.54-.06h-2.93v1.23H341c2.29,0,3.1-.06,3.25-.06s.29,0,.29.29,0,1.17,0,3.07v2.78l1.45-.05c.26,0,.29,0,.29.28ZM337,30.91V29.56h-2.57v1.35Zm0,2.94V32.47h-2.57v1.38Zm2.47-12.12V20.46h-2.57v1.27Zm0,3V23.4h-2.57v1.3Zm-.26,4.86v1.35h2.94V29.56Zm2.94,4.29V32.47h-2.94v1.38Z"/><path class="cls-2" d="M357.74,24.72c0,1.9,0,3.49-.11,4.87a12.56,12.56,0,0,0,2.84-5.18,9.3,9.3,0,0,0,.28-1.74c.7.16,1.59.31,2.19.49.31.11.44.21.44.37a.57.57,0,0,1-.16.36,2.3,2.3,0,0,0-.41.89c-.13.41-.24.8-.37,1.17a12,12,0,0,0,2.68,3A7.17,7.17,0,0,0,364,30.18c-.21.37-.34.55-.47.55s-.29-.16-.52-.44a11.92,11.92,0,0,1-1.56-2A13,13,0,0,1,360,30.55c-.28.39-.41.54-.54.54s-.21-.1-.34-.23a7.9,7.9,0,0,0-1.53-1.12c-.08,1.3-.21,2.42-.37,3.51a19.07,19.07,0,0,1-1.95,6.06c-.18.34-.28.52-.41.52s-.29-.16-.52-.42a9.35,9.35,0,0,0-1.69-1.53,14.58,14.58,0,0,0,2-5.75,54.07,54.07,0,0,0,.42-7.93c0-3.45-.05-5-.05-5.17s0-.26.28-.26,1,.05,3.49.05H364v-.6a10.64,10.64,0,0,0-.15-2.1c1,0,1.89.08,2.75.15.26,0,.42.16.42.26a1.17,1.17,0,0,1-.16.5,2.76,2.76,0,0,0-.18,1.14v.65h5.9c2.47,0,3.3-.05,3.46-.05s.26,0,.26.26V20.9c0,.26,0,.29-.26.29s-1-.05-3.46-.05H357.74ZM361,39.23c-2.55,0-3.41.05-3.56.05s-.29,0-.29-.31V37.13c0-.26,0-.29.29-.29s1,0,3.56,0h4.11V34.27h-2.34c-2.5,0-3.38,0-3.54,0s-.31,0-.31-.31V32.24c0-.26,0-.29.31-.29s1,.05,3.54.05h2.34V24.7a17.26,17.26,0,0,0-.16-2.84c1,0,1.72.08,2.6.19.26,0,.42.15.42.31a1.12,1.12,0,0,1-.16.57,4.52,4.52,0,0,0-.16,1.82v4.78a13,13,0,0,0,2.94-5.2,6.6,6.6,0,0,0,.31-1.66,17.06,17.06,0,0,1,2.16.52c.29.08.44.21.44.34a.47.47,0,0,1-.18.36,2,2,0,0,0-.41.89l-.29.88a13.27,13.27,0,0,0,3.3,3.41,5.37,5.37,0,0,0-1.17,1.32c-.21.34-.33.52-.47.52s-.28-.13-.54-.39A14.92,14.92,0,0,1,371.7,28,15.45,15.45,0,0,1,370,30.52c-.24.31-.37.47-.5.47s-.31-.16-.6-.44a4.46,4.46,0,0,0-1.25-.89V32h3.15c2.5,0,3.36-.05,3.51-.05s.31,0,.31.29V34c0,.28,0,.31-.31.31s-1,0-3.51,0h-3.15v2.62h4.87c2.52,0,3.4,0,3.56,0s.28,0,.28.29V39c0,.29,0,.31-.28.31s-1-.05-3.56-.05Z"/><path class="cls-2" d="M389.59,18.69c.28.16.39.31.39.52a1.24,1.24,0,0,1-.19.57,5.5,5.5,0,0,0-.46,1.43,51.52,51.52,0,0,0-1.3,9.47c0,1,0,2.23.07,3.33.52-1.2,1.07-2.32,1.62-3.62a6.73,6.73,0,0,0,.91,1.64.56.56,0,0,1,.15.36.8.8,0,0,1-.15.42,15.31,15.31,0,0,0-1.33,3.95,5.43,5.43,0,0,0,0,1.38c0,.18-.07.26-.31.34a10.69,10.69,0,0,1-1.95.44c-.28.08-.39,0-.52-.31a24.2,24.2,0,0,1-1.11-7.93,56.13,56.13,0,0,1,1.06-9.86,12.71,12.71,0,0,0,.18-3.06A20.51,20.51,0,0,1,389.59,18.69Zm8.94,6.94a50.44,50.44,0,0,1-5.36,0c-.33,0-.44-.08-.46-.34a15.07,15.07,0,0,1-.19-2.37,36.7,36.7,0,0,0,5.93.08c0-.93,0-1.77,0-2.73a11.24,11.24,0,0,0-.34-2.55,14.24,14.24,0,0,1,3.14.5c.29.08.47.21.47.44a1.12,1.12,0,0,1-.15.44,2.9,2.9,0,0,0-.21.91c0,.89,0,1.56,0,2.76,1.22-.11,2.57-.29,3.69-.47.31-.08.36,0,.41.31a9.88,9.88,0,0,1,.16,1.85c0,.23-.1.36-.28.39a29.61,29.61,0,0,1-4,.54c0,2.92.05,4.74.18,7a17,17,0,0,1,4.32,2.5c.23.15.26.23.13.52a14.91,14.91,0,0,1-1.2,2,.31.31,0,0,1-.23.16.41.41,0,0,1-.24-.13,14.77,14.77,0,0,0-2.8-2.08c-.21,2.18-1.69,3.38-4.76,3.38S392,37.28,392,35.05s1.93-3.67,4.55-3.67a10.78,10.78,0,0,1,2.08.21C398.58,29.59,398.56,27.69,398.53,25.63Zm-2.11,8.09c-1.22,0-1.95.44-1.95,1.25s.58,1.3,2.11,1.3c1.3,0,2.13-.76,2.13-1.69a4.79,4.79,0,0,0,0-.52A7.28,7.28,0,0,0,396.42,33.72Z"/><path class="cls-2" d="M419.2,18c.44.1.62.23.62.49a2.38,2.38,0,0,1-.26.86,15.69,15.69,0,0,0-.36,3.17c-.29,4.52-.39,6.92-.39,10,0,2.81.31,3.31,2.39,3.31,2.32,0,5.93-1.41,9.1-4.79a9.2,9.2,0,0,0,.6,2.47,1.74,1.74,0,0,1,.21.63c0,.23-.11.44-.52.8a14.82,14.82,0,0,1-9.86,3.9c-3.32,0-4.88-1.32-4.88-5.3,0-4.37.23-8.11.36-11.23a17.37,17.37,0,0,0-.26-4.76A26.46,26.46,0,0,1,419.2,18Zm7.88,1.71c.13-.1.23-.08.39.05a12.06,12.06,0,0,1,2.47,2.79.26.26,0,0,1-.08.41l-1.09.81a.27.27,0,0,1-.44-.08,13.11,13.11,0,0,0-2.63-3ZM429.39,18c.16-.1.24-.08.39.05a10.9,10.9,0,0,1,2.47,2.68.3.3,0,0,1-.08.47l-1,.81c-.2.15-.33.07-.44-.08a12.06,12.06,0,0,0-2.6-3Z"/><path class="cls-2" d="M452.35,19.42a6.56,6.56,0,0,0,0-1.77,10.92,10.92,0,0,1,3.07,1c.29.13.42.29.42.47a.9.9,0,0,1-.18.44,3.88,3.88,0,0,0-.52,1c-.16.42-.39,1-.73,2.08,4.11.65,6.94,3.41,6.94,7.54,0,4.63-2.81,7.41-8,8.69a.79.79,0,0,1-1.07-.44,5.33,5.33,0,0,0-1.69-1.72c3.54-.73,7.78-2.34,7.78-6.86a4.86,4.86,0,0,0-4.68-4.92,46.52,46.52,0,0,1-3.8,7.59,9.19,9.19,0,0,0,1.12,1.33,7.54,7.54,0,0,1-1.62,1.59.66.66,0,0,1-.36.13.58.58,0,0,1-.36-.16c-.21-.21-.42-.42-.7-.75-1.69,1.79-2.94,2.47-4.35,2.47-2,0-3.4-1.62-3.4-4.22A9.9,9.9,0,0,1,444,25.45c-.29-1-.55-2.29-.81-3.43a11.31,11.31,0,0,0-.78-2.44,11.4,11.4,0,0,1,2.94.41c.42.11.5.29.5.76a8.83,8.83,0,0,0,.1,1.48c.13.75.21,1.22.36,1.84a15,15,0,0,1,5.31-1.48A19.92,19.92,0,0,0,452.35,19.42ZM443,32.65c0,.89.37,1.59.92,1.59.78,0,1.61-.57,2.7-1.9a26.24,26.24,0,0,1-1.79-4.21A7.26,7.26,0,0,0,443,32.65Zm5.41-2.44A30.6,30.6,0,0,0,450.84,25a10.14,10.14,0,0,0-3.92,1.45A19.81,19.81,0,0,0,448.37,30.21Z"/><path class="cls-2" d="M478.12,29.25a45.63,45.63,0,0,1-5.36-.11c-.29,0-.39-.1-.42-.44a16.08,16.08,0,0,1-.15-2.21,35.66,35.66,0,0,0,5.85.21c0-1,0-2-.05-3a42.31,42.31,0,0,1-6.22-.13c-.28,0-.41-.1-.44-.36-.08-.65-.13-1.28-.18-2.34a59.37,59.37,0,0,0,6.81.26c0-1,0-1.64,0-2.53a7.9,7.9,0,0,0-.31-1.74,15.44,15.44,0,0,1,3.27.47.53.53,0,0,1,.29.78,3.27,3.27,0,0,0-.39,1.25c0,.52,0,.88,0,1.66a43.78,43.78,0,0,0,5.69-.78c.31-.08.42,0,.44.31a13,13,0,0,1,.13,1.9c0,.34-.08.39-.28.42a52.49,52.49,0,0,1-6,.67c0,1,0,2,0,2.94,2-.13,3.22-.39,5.09-.67.31-.08.39,0,.42.2,0,.5.08,1.36.08,2.14,0,.26-.11.33-.39.36a45.09,45.09,0,0,1-5.1.62c.05,1.2.1,2.47.18,3.67A23,23,0,0,1,487.89,36c.26.23.26.31.18.62a7.53,7.53,0,0,1-1.14,1.92.38.38,0,0,1-.34.21.37.37,0,0,1-.28-.13,20.41,20.41,0,0,0-5.18-3c0,2.81-1.71,4-5.28,4-3.38,0-5.3-1.48-5.3-3.64s2.05-3.69,5.2-3.69c.65,0,1.28,0,2.5.1C478.2,31.2,478.14,30.13,478.12,29.25Zm-2.24,5.25c-1.9,0-2.81.55-2.81,1.38,0,.67.78,1.17,2.58,1.17a3.18,3.18,0,0,0,2.36-.78,2.49,2.49,0,0,0,.29-1.46A11.39,11.39,0,0,0,475.88,34.5Z"/><path class="cls-2" d="M501.7,18c.44.1.62.23.62.49a2.38,2.38,0,0,1-.26.86,15.69,15.69,0,0,0-.36,3.17c-.26,4-.39,6.66-.39,10.06,0,2.63.31,3.23,2.39,3.23,2.32,0,5.93-1.41,9.1-4.79a8.84,8.84,0,0,0,.6,2.47,1.74,1.74,0,0,1,.21.63c0,.23-.11.44-.52.8a14.84,14.84,0,0,1-9.86,3.9c-3.33,0-4.89-1.32-4.89-5.3,0-4.37.24-8.11.37-11.23a17.37,17.37,0,0,0-.26-4.76A26.75,26.75,0,0,1,501.7,18Z"/><path class="cls-2" d="M534,20.93c.29-.08.39.05.42.26.08.57.15,1.32.18,1.87,0,.34-.05.42-.39.49a39.86,39.86,0,0,1-4.52,1c-1.77,5.77-3.1,9.75-4.76,14.07-.13.36-.29.34-.57.26s-1.54-.65-2.08-1a.42.42,0,0,1-.21-.52,98,98,0,0,0,4.49-12.33c-1.5.16-3.32.29-4.54.29-.39,0-.5-.08-.55-.42-.1-.54-.24-1.43-.36-2.36a13.22,13.22,0,0,0,1.92.07,33.55,33.55,0,0,0,4.21-.26c.26-1,.47-2.18.65-3.25a16.93,16.93,0,0,0,.16-2.39,15,15,0,0,1,3.27.73.44.44,0,0,1,.29.42.61.61,0,0,1-.13.41,5.18,5.18,0,0,0-.55,1c-.26.94-.44,1.82-.62,2.47C531.31,21.63,532.72,21.29,534,20.93Zm-1,12.43c.26,0,.36.1.39.36.21,1.9,1.48,2.44,4,2.44a38.92,38.92,0,0,0,4.36-.36c.21,0,.29,0,.32.23a17,17,0,0,1,.2,2.27c0,.31,0,.39-.41.41a31.11,31.11,0,0,1-3.54.29c-3.4,0-5.17-.47-6.34-1.69a5.08,5.08,0,0,1-1.17-3.56A12.9,12.9,0,0,1,533,33.36Zm-.29-6.89c0-.37.08-.45.47-.52a27,27,0,0,1,5.07-.6,18.5,18.5,0,0,1,3,.26c.37.05.44.08.44.39a15.91,15.91,0,0,1,0,2.08c0,.44-.13.54-.49.47a16.75,16.75,0,0,0-3.23-.32,28.75,28.75,0,0,0-5.23.6C532.74,27.92,532.69,27,532.69,26.47Z"/><path class="cls-2" d="M556.66,32.94H554l-.73-15.47h4.06Zm.5,2.52V39h-3.7V35.46Z"/></g></g></svg>