<?xml version="1.0" encoding="UTF-8"?>
<svg xmlns="http://www.w3.org/2000/svg" xmlns:xlink="http://www.w3.org/1999/xlink" width="68px" height="18px" viewBox="0 0 67 18" version="1.1">
<g id="surface1">
<path style=" stroke:none;fill-rule:nonzero;fill:rgb(95.686275%,53.72549%,11.764706%);fill-opacity:1;" d="M 8.859375 0.144531 L 58.148438 0.144531 C 63.039062 0.144531 67.011719 4.113281 67.011719 9.003906 C 67.011719 13.894531 63.039062 17.863281 58.148438 17.863281 L 8.859375 17.863281 C 3.96875 17.855469 0 13.894531 0 9.003906 C 0 4.113281 3.96875 0.144531 8.859375 0.144531 Z M 8.859375 0.144531 "/>
<path style="fill:none;stroke-width:0.96;stroke-linecap:butt;stroke-linejoin:miter;stroke:rgb(100%,100%,100%);stroke-opacity:1;stroke-miterlimit:10.01;" d="M 19.320312 8.468281 C 17.648438 6.218281 15.03125 4.890156 12.230469 4.870625 C 9.441406 4.901875 6.820312 6.23 5.148438 8.468281 " transform="matrix(1,0,0,1,0,0.145)"/>
<path style="fill:none;stroke-width:0.96;stroke-linecap:butt;stroke-linejoin:miter;stroke:rgb(100%,100%,100%);stroke-opacity:1;stroke-miterlimit:10.01;" d="M 7.269531 10.749531 C 8.390625 9.081563 10.261719 8.069844 12.269531 8.058125 C 14.28125 8.081563 16.148438 9.081563 17.269531 10.749531 " transform="matrix(1,0,0,1,0,0.145)"/>
<path style="fill:none;stroke-width:0.96;stroke-linecap:butt;stroke-linejoin:miter;stroke:rgb(100%,100%,100%);stroke-opacity:1;stroke-miterlimit:10.01;" d="M 17.21875 10.749531 C 16.101562 9.081563 14.230469 8.069844 12.21875 8.058125 C 10.210938 8.081563 8.339844 9.081563 7.21875 10.749531 " transform="matrix(1,0,0,1,0,0.145)"/>
<path style="fill:none;stroke-width:0.96;stroke-linecap:butt;stroke-linejoin:miter;stroke:rgb(100%,100%,100%);stroke-opacity:1;stroke-miterlimit:10.01;" d="M 9.210938 12.851094 C 10.058594 11.171406 12.101562 10.499531 13.78125 11.351094 C 14.429688 11.679219 14.960938 12.19875 15.28125 12.851094 " transform="matrix(1,0,0,1,0,0.145)"/>
<path style="fill:none;stroke-width:0.96;stroke-linecap:butt;stroke-linejoin:miter;stroke:rgb(100%,100%,100%);stroke-opacity:1;stroke-miterlimit:10.01;" d="M 15.28125 12.851094 C 14.429688 11.171406 12.390625 10.499531 10.710938 11.351094 C 10.058594 11.679219 9.53125 12.19875 9.210938 12.851094 " transform="matrix(1,0,0,1,0,0.145)"/>
<path style=" stroke:none;fill-rule:nonzero;fill:rgb(100%,100%,100%);fill-opacity:1;" d="M 27.589844 14.175781 C 26.339844 14.175781 25.351562 13.765625 24.640625 12.953125 C 23.929688 12.144531 23.570312 11.015625 23.570312 9.574219 C 23.570312 8.136719 23.929688 7.015625 24.648438 6.195312 C 25.371094 5.375 26.351562 4.976562 27.601562 4.976562 C 28.851562 4.976562 29.839844 5.386719 30.558594 6.195312 C 31.28125 7.003906 31.640625 8.136719 31.640625 9.574219 C 31.640625 11.015625 31.28125 12.136719 30.558594 12.945312 C 29.839844 13.753906 28.859375 14.164062 27.601562 14.164062 Z M 27.589844 5.914062 C 26.679688 5.914062 25.96875 6.234375 25.460938 6.875 C 24.949219 7.515625 24.699219 8.414062 24.699219 9.585938 C 24.699219 10.753906 24.949219 11.644531 25.460938 12.285156 C 25.96875 12.925781 26.679688 13.246094 27.589844 13.246094 C 28.5 13.246094 29.210938 12.925781 29.71875 12.285156 C 30.230469 11.644531 30.480469 10.746094 30.480469 9.585938 C 30.480469 8.425781 30.230469 7.503906 29.71875 6.875 C 29.210938 6.246094 28.5 5.914062 27.589844 5.914062 Z M 27.589844 5.914062 "/>
<path style=" stroke:none;fill-rule:nonzero;fill:rgb(100%,100%,100%);fill-opacity:1;" d="M 38.628906 13.996094 L 37.601562 13.996094 L 37.601562 10.285156 C 37.601562 9.425781 37.488281 8.855469 37.261719 8.574219 C 37.03125 8.296875 36.660156 8.15625 36.140625 8.15625 C 35.53125 8.15625 34.878906 8.445312 34.191406 9.015625 L 34.191406 13.996094 L 33.160156 13.996094 L 33.160156 7.375 L 34.191406 7.375 L 34.191406 8.175781 C 34.96875 7.515625 35.730469 7.195312 36.488281 7.195312 C 37.171875 7.195312 37.699219 7.40625 38.070312 7.835938 C 38.441406 8.265625 38.628906 8.886719 38.628906 9.683594 Z M 38.628906 13.996094 "/>
<path style=" stroke:none;fill-rule:nonzero;fill:rgb(100%,100%,100%);fill-opacity:1;" d="M 41.621094 13.996094 L 40.589844 13.996094 L 40.589844 4.773438 L 41.621094 4.773438 Z M 41.621094 13.996094 "/>
<path style=" stroke:none;fill-rule:nonzero;fill:rgb(100%,100%,100%);fill-opacity:1;" d="M 44.730469 6.046875 L 43.558594 6.046875 L 43.558594 4.976562 L 44.730469 4.976562 Z M 44.671875 13.984375 L 43.640625 13.984375 L 43.640625 7.363281 L 44.671875 7.363281 Z M 44.671875 13.984375 "/>
<path style=" stroke:none;fill-rule:nonzero;fill:rgb(100%,100%,100%);fill-opacity:1;" d="M 52.148438 13.996094 L 51.121094 13.996094 L 51.121094 10.285156 C 51.121094 9.425781 51.011719 8.855469 50.78125 8.574219 C 50.550781 8.296875 50.179688 8.15625 49.660156 8.15625 C 49.050781 8.15625 48.398438 8.445312 47.710938 9.015625 L 47.710938 13.996094 L 46.679688 13.996094 L 46.679688 7.375 L 47.710938 7.375 L 47.710938 8.175781 C 48.488281 7.515625 49.25 7.195312 50.011719 7.195312 C 50.691406 7.195312 51.21875 7.40625 51.589844 7.835938 C 51.960938 8.265625 52.148438 8.886719 52.148438 9.683594 Z M 52.148438 13.996094 "/>
<path style=" stroke:none;fill-rule:nonzero;fill:rgb(100%,100%,100%);fill-opacity:1;" d="M 57.078125 14.144531 C 55.980469 14.144531 55.121094 13.84375 54.519531 13.253906 C 53.921875 12.664062 53.609375 11.816406 53.609375 10.726562 C 53.609375 9.636719 53.898438 8.785156 54.480469 8.144531 C 55.058594 7.503906 55.828125 7.183594 56.789062 7.183594 C 57.671875 7.183594 58.339844 7.445312 58.828125 7.976562 C 59.320312 8.503906 59.550781 9.246094 59.550781 10.214844 L 59.550781 10.785156 L 54.660156 10.785156 C 54.660156 11.585938 54.878906 12.195312 55.308594 12.625 C 55.738281 13.054688 56.339844 13.265625 57.101562 13.265625 C 57.859375 13.265625 58.621094 13.003906 59.371094 12.476562 L 59.421875 12.476562 L 59.421875 13.59375 C 58.480469 13.976562 57.699219 14.15625 57.078125 14.15625 Z M 54.660156 9.996094 L 58.539062 9.996094 C 58.511719 8.675781 57.910156 8.023438 56.730469 8.023438 C 56.140625 8.023438 55.660156 8.203125 55.289062 8.554688 C 54.921875 8.90625 54.710938 9.386719 54.660156 10.003906 Z M 54.660156 9.996094 "/>
</g>
</svg>
