<?xml version="1.0" encoding="UTF-8"?><svg id="_レイヤー_1" xmlns="http://www.w3.org/2000/svg" viewBox="0 0 67 17.71"><defs><style>.cls-1{fill:#f4891e;}.cls-2{fill:#fff;}.cls-3{fill:none;stroke:#fff;stroke-miterlimit:10.01;stroke-width:.96px;}</style></defs><g id="_レイヤー_2"><g id="contents"><path class="cls-1" d="m8.86,0h49.29c4.89,0,8.86,3.97,8.86,8.86h0c0,4.89-3.97,8.86-8.86,8.86H8.86C3.97,17.71,0,13.75,0,8.86h0C0,3.97,3.97,0,8.86,0Z"/><path class="cls-3" d="m19.32,8.47c-1.67-2.25-4.29-3.58-7.09-3.6-2.79.03-5.41,1.36-7.08,3.6"/><path class="cls-3" d="m7.27,10.75c1.12-1.67,2.99-2.68,5-2.69,2.01.02,3.88,1.02,5,2.69"/><path class="cls-3" d="m17.22,10.75c-1.12-1.67-2.99-2.68-5-2.69-2.01.02-3.88,1.02-5,2.69"/><path class="cls-3" d="m9.21,12.85c.85-1.68,2.89-2.35,4.57-1.5.65.33,1.18.85,1.5,1.5"/><path class="cls-3" d="m15.28,12.85c-.85-1.68-2.89-2.35-4.57-1.5-.65.33-1.18.85-1.5,1.5"/></g></g><path class="cls-2" d="m27.59,14.03c-1.25,0-2.24-.41-2.95-1.22s-1.07-1.94-1.07-3.38.36-2.56,1.08-3.38,1.7-1.22,2.95-1.22,2.24.41,2.96,1.22,1.08,1.94,1.08,3.38-.36,2.56-1.08,3.37-1.7,1.22-2.96,1.22Zm0-8.26c-.91,0-1.62.32-2.13.96s-.76,1.54-.76,2.71.25,2.06.76,2.7,1.22.96,2.13.96,1.62-.32,2.13-.96.76-1.54.76-2.7-.25-2.08-.76-2.71-1.22-.96-2.13-.96Z"/><path class="cls-2" d="m38.63,13.85h-1.03v-3.71c0-.86-.11-1.43-.34-1.71s-.6-.42-1.12-.42c-.61,0-1.26.29-1.95.86v4.98h-1.03v-6.62h1.03v.8c.78-.66,1.54-.98,2.3-.98.68,0,1.21.21,1.58.64s.56,1.05.56,1.85v4.31Z"/><path class="cls-2" d="m41.62,13.85h-1.03V4.63h1.03v9.22Z"/><path class="cls-2" d="m44.73,5.9h-1.17v-1.07h1.17v1.07Zm-.06,7.94h-1.03v-6.62h1.03v6.62Z"/><path class="cls-2" d="m52.15,13.85h-1.03v-3.71c0-.86-.11-1.43-.34-1.71s-.6-.42-1.12-.42c-.61,0-1.26.29-1.95.86v4.98h-1.03v-6.62h1.03v.8c.78-.66,1.54-.98,2.3-.98.68,0,1.21.21,1.58.64s.56,1.05.56,1.85v4.31Z"/><path class="cls-2" d="m57.08,14c-1.1,0-1.96-.3-2.56-.89s-.91-1.44-.91-2.53.29-1.94.87-2.58,1.35-.96,2.31-.96c.88,0,1.55.26,2.04.79s.72,1.27.72,2.24v.57h-4.89c0,.8.22,1.41.65,1.84s1.03.64,1.79.64,1.52-.26,2.27-.79h.05v1.12c-.94.38-1.72.56-2.34.56Zm-2.42-4.15h3.88c-.03-1.32-.63-1.97-1.81-1.97-.59,0-1.07.18-1.44.53s-.58.83-.63,1.45Z"/></svg>