<svg xmlns="http://www.w3.org/2000/svg" viewBox="0 0 336.49 72.92"><title>アセット 262x@f</title><g id="レイヤー_2" data-name="レイヤー 2"><g id="contents"><path d="M83.33,12.7c0,9.48-4.61,21-14.16,21-6.33,0-8.81-4.84-8.81-10.93,0-9.57,4.89-20.45,14.22-20.45C81.09,2.29,83.33,7.31,83.33,12.7ZM67,23c0,2.28.35,5.37,3,5.37,4.62,0,6.7-11.56,6.7-15.57,0-2-.31-5.13-2.88-5.13C69.32,7.63,67,18.53,67,23Z" style="fill:#f4891e"/><path d="M86.17,26.32A14.37,14.37,0,0,0,92.84,28c3.76,0,6-1.89,6-4.32,0-2.72-2.25-4.05-6.2-4.05h-1.2l1-5.11h1.07c3.15,0,6.73-1.27,6.73-4,0-1.5-1.14-2.63-3.72-2.63A13.28,13.28,0,0,0,90.26,9.4l-.93-5a18.61,18.61,0,0,1,8.52-2.07c5.09,0,9.51,2.35,9.51,7.13,0,3.76-3,6.52-6.76,7.47l0,.09a6.51,6.51,0,0,1,5.29,6.67c0,6.38-6.49,10-13.13,10-3.87,0-7.25-.94-8.6-2.07Z" style="fill:#f4891e"/><path d="M123.16,18.52l-.9,4.73H110.15l.91-4.73Z" style="fill:#f4891e"/><path d="M147.75,8.56H137l-1.42,4.7a7.86,7.86,0,0,1,1.28-.08A10.93,10.93,0,0,1,143.19,15a7.92,7.92,0,0,1,3.34,6.76c0,7.59-6.4,11.88-14,11.88-3.65,0-6.68-.84-7.88-1.8l1.74-5.34A13.3,13.3,0,0,0,132.6,28c3.3,0,6.94-1.8,6.94-5.06,0-2.68-1.71-4.65-7.53-4.65-1.47,0-2.5.1-3.75.2L132.63,2.8h16.28Z" style="fill:#f4891e"/><path d="M172.19,7.88a15.1,15.1,0,0,0-2.55.07c-5.52.53-9.16,3.52-10.69,7.13l.08.06a9.21,9.21,0,0,1,6.24-2.34c4.45,0,7.73,3.45,7.73,8.49a12.17,12.17,0,0,1-12.14,12.38c-6.77,0-10.09-4.67-10.09-10.65a20.88,20.88,0,0,1,7.52-16.21,21.64,21.64,0,0,1,12.38-4.42,15.82,15.82,0,0,1,2.53,0ZM166.06,22c0-2.66-1.51-4.19-3.75-4.19A5.18,5.18,0,0,0,158,20.62a3.38,3.38,0,0,0-.49,1.52,10.83,10.83,0,0,0-.12,1.64c0,2.63,1.36,4.71,3.74,4.71C164.33,28.49,166.06,24.87,166.06,22Z" style="fill:#f4891e"/><path d="M176.92,26.32A14.37,14.37,0,0,0,183.59,28c3.76,0,6-1.89,6-4.32,0-2.72-2.24-4.05-6.2-4.05H182.2l1-5.11h1.08c3.15,0,6.73-1.27,6.73-4,0-1.5-1.14-2.63-3.72-2.63A13.28,13.28,0,0,0,181,9.4l-.93-5a18.57,18.57,0,0,1,8.51-2.07c5.1,0,9.52,2.35,9.52,7.13,0,3.76-3,6.52-6.76,7.47l0,.09a6.51,6.51,0,0,1,5.29,6.67c0,6.38-6.49,10-13.14,10-3.86,0-7.24-.94-8.59-2.07Z" style="fill:#f4891e"/><path d="M199.6,33.15l.8-4.32L207,23.77c6-4.95,9.95-8.49,9.95-12.16,0-2.13-1.48-3.68-4.17-3.68a12,12,0,0,0-6.43,1.8L205,4.91a18.7,18.7,0,0,1,9.42-2.62c6.14,0,9.47,3.58,9.47,8.28,0,6.18-5,10.49-10.3,14.59l-3,2.17v.09h10.89l-1.07,5.73Z" style="fill:#f4891e"/><path d="M239.15,18.52l-.9,4.73H226.14l.91-4.73Z" style="fill:#f4891e"/><path d="M262.94,7.88a15.08,15.08,0,0,0-2.55.07c-5.52.53-9.16,3.52-10.69,7.13l.08.06A9.19,9.19,0,0,1,256,12.8c4.45,0,7.73,3.45,7.73,8.49a12.17,12.17,0,0,1-12.14,12.38c-6.77,0-10.09-4.67-10.09-10.65A20.91,20.91,0,0,1,249,6.81a21.7,21.7,0,0,1,12.39-4.42,15.82,15.82,0,0,1,2.53,0ZM256.81,22c0-2.66-1.51-4.19-3.75-4.19a5.21,5.21,0,0,0-4.37,2.81,3.49,3.49,0,0,0-.48,1.52,10.83,10.83,0,0,0-.12,1.64c0,2.63,1.36,4.71,3.74,4.71C255.08,28.49,256.81,24.87,256.81,22Z" style="fill:#f4891e"/><path d="M290.07,12.7c0,9.48-4.61,21-14.16,21-6.33,0-8.81-4.84-8.81-10.93,0-9.57,4.89-20.45,14.22-20.45C287.83,2.29,290.07,7.31,290.07,12.7ZM273.72,23c0,2.28.35,5.37,3,5.37,4.62,0,6.7-11.56,6.7-15.57,0-2-.31-5.13-2.88-5.13C276.06,7.63,273.72,18.53,273.72,23Z" style="fill:#f4891e"/><path d="M303.58,9.13h-.1l-6,2.63-.2-5.28,8.43-3.68h5.5l-5.73,30.35H299Z" style="fill:#f4891e"/><path d="M328.82,9.13h-.09l-6,2.63-.21-5.28L331,2.8h5.5l-5.74,30.35h-6.47Z" style="fill:#f4891e"/><path d="M66.1,52.32a14.38,14.38,0,0,0-3.73,10,14.41,14.41,0,0,0,3.73,10l-.63.52a14.57,14.57,0,0,1,0-21.12Z" style="fill:#f4891e"/><path d="M92.51,64.26c0,.16,0,.18-.18.18s-.8,0-2.84,0H83.62v5.23c0,1.54,0,2.19,0,2.3s0,.17-.17.17H82.34c-.15,0-.17,0-.17-.17s0-.76,0-2.3V64.39h-5.7c-2,0-2.72,0-2.82,0s-.18,0-.18-.18v-1c0-.15,0-.17.18-.17s.8,0,2.82,0h5.7V55.18H77.72c-2.17,0-2.88,0-3,0s-.18,0-.18-.17v-1c0-.15,0-.17.18-.17s.82,0,3,0H88.45c2.15,0,2.86,0,3,0s.18,0,.18.17v1c0,.15,0,.17-.18.17s-.82,0-3,0H83.62v7.94h5.87c2,0,2.71,0,2.84,0s.18,0,.18.17Zm-15.7-7.85c.19-.1.22-.08.3.05a20.84,20.84,0,0,1,2.54,4.79c0,.13,0,.17-.17.26l-.74.3c-.3.13-.33.13-.39-.06A21.1,21.1,0,0,0,76,57c-.11-.13-.07-.17.19-.3Zm13.2.83a1.71,1.71,0,0,0-.39.58,24.51,24.51,0,0,1-2.36,4c-.15.2-.22.28-.3.28s-.16-.06-.33-.17a2.79,2.79,0,0,0-.78-.37,19.81,19.81,0,0,0,2.56-4.23,4.3,4.3,0,0,0,.32-1.08,9.87,9.87,0,0,1,1.28.54c.13.07.2.13.2.24S90.14,57.13,90,57.24Z" style="fill:#f4891e"/><path d="M110.63,63.83c0,6.2,0,7.29,0,7.39s0,.18-.17.18h-1c-.15,0-.18,0-.18-.18V69.9h-10v1.37c0,.15,0,.17-.16.17H98c-.15,0-.17,0-.17-.17s0-1.22,0-7.44V59.65c0-4.21,0-5.34,0-5.47s0-.17.17-.17.87,0,3,0h6.45c2.14,0,2.88,0,3,0s.17,0,.17.17,0,1.26,0,4.92Zm-1.35-8.54h-10v5.87h10Zm0,7.09h-10v6.29h10Z" style="fill:#f4891e"/><path d="M123.52,67.54a2.11,2.11,0,0,0,2,1.49c2.1,0,3.34-1.73,3.47-6.61a3.77,3.77,0,0,1-3.47,2.19c-2.34,0-4.16-2-4.16-5,0-3.27,1.86-5.39,4.49-5.39,2.92,0,4.85,2.27,4.85,7.39,0,6.27-1.91,8.87-5.18,8.87a3.74,3.74,0,0,1-3.75-2.15Zm2.41-11.86c-1.71,0-2.73,1.49-2.73,3.92,0,2.21,1.1,3.54,2.64,3.54,1.31,0,2.3-.74,3.08-2.35C128.88,57.5,127.86,55.68,125.93,55.68Z" style="fill:#f4891e"/><path d="M136.4,61.49H134V59.13h2.36Zm0,8.71H134V67.84h2.36Z" style="fill:#f4891e"/><path d="M149.06,62.27c0,5.75-1.69,8.22-4.77,8.22s-4.75-2.43-4.75-8.18,1.76-8.08,4.8-8.08S149.06,56.54,149.06,62.27Zm-7.67,0c0,4.86,1,6.7,2.9,6.7s2.93-1.84,2.93-6.7-.93-6.57-2.88-6.57S141.39,57.41,141.39,62.29Z" style="fill:#f4891e"/><path d="M161.09,62.27c0,5.75-1.69,8.22-4.77,8.22s-4.75-2.43-4.75-8.18,1.76-8.08,4.8-8.08S161.09,56.54,161.09,62.27Zm-7.67,0c0,4.86,1,6.7,2.9,6.7s2.93-1.84,2.93-6.7-.93-6.57-2.88-6.57S153.42,57.41,153.42,62.29Z" style="fill:#f4891e"/><path d="M176,63.09c-1,1.93-1.95,2.61-3.23,2.61a7,7,0,0,1-3.1-.94A6,6,0,0,0,167,63.9a2.84,2.84,0,0,0-2.32,1.71l-.76-.44c.8-1.77,1.87-2.64,3.17-2.64a6.93,6.93,0,0,1,2.9.87,7.27,7.27,0,0,0,2.8.93,2.87,2.87,0,0,0,2.47-1.71Z" style="fill:#f4891e"/><path d="M184.79,68.75h2.94V70.2h-7.82V68.75h3.14V56.22a14.86,14.86,0,0,1-3.12,1.56l-.3-1.58a14.83,14.83,0,0,0,3.68-1.87h1.48Z" style="fill:#f4891e"/><path d="M200.55,66.17c0,2.69-2,4.32-4.9,4.32s-4.88-1.59-4.88-4.25c0-1.87,1-3,3.36-4.12-2.15-1.06-2.93-2.26-2.93-4,0-2.21,1.8-3.9,4.45-3.9s4.51,1.6,4.51,3.83c0,1.74-.85,2.82-3,3.75C199.7,63,200.55,64.22,200.55,66.17Zm-5.14-3.42c-2.08,1-2.91,2-2.91,3.4a2.86,2.86,0,0,0,3.15,2.93c2,0,3.16-1.11,3.16-2.86,0-1.39-.67-2.3-2.95-3.28Zm.52-1.54c1.95-.85,2.51-1.76,2.51-3.1a2.52,2.52,0,0,0-2.79-2.48,2.48,2.48,0,0,0-2.74,2.5c0,1.21.59,2,2.58,2.88Z" style="fill:#f4891e"/><path d="M205.92,61.49h-2.36V59.13h2.36Zm0,8.71h-2.36V67.84h2.36Z" style="fill:#f4891e"/><path d="M218.58,62.27c0,5.75-1.69,8.22-4.77,8.22s-4.75-2.43-4.75-8.18,1.76-8.08,4.8-8.08S218.58,56.54,218.58,62.27Zm-7.67,0c0,4.86,1,6.7,2.9,6.7s2.93-1.84,2.93-6.7-.93-6.57-2.88-6.57S210.91,57.41,210.91,62.29Z" style="fill:#f4891e"/><path d="M230.61,62.27c0,5.75-1.69,8.22-4.77,8.22s-4.75-2.43-4.75-8.18,1.76-8.08,4.8-8.08S230.61,56.54,230.61,62.27Zm-7.67,0c0,4.86.95,6.7,2.9,6.7s2.93-1.84,2.93-6.7-.93-6.57-2.88-6.57S222.94,57.41,222.94,62.29Z" style="fill:#f4891e"/><path d="M233.15,51.8a14.57,14.57,0,0,1,0,21.12l-.63-.52a14.41,14.41,0,0,0,3.73-10,14.38,14.38,0,0,0-3.73-10Z" style="fill:#f4891e"/><path d="M32,3.4,28.4,2.29A2.19,2.19,0,0,0,25.74,3.5L24,7.39a1.61,1.61,0,0,0,.84,2.14l3.8,1.62A.94.94,0,0,1,29,12.28a41.84,41.84,0,0,1-5.14,11.58.92.92,0,0,1-1,.52L20,23.08a2.66,2.66,0,0,0-3.55,1.34l-1.38,3.12a2,2,0,0,0,.8,2.47L19.14,32a5.73,5.73,0,0,0,1.91.71h0a6.41,6.41,0,0,0,7-3.71A97.13,97.13,0,0,0,35.5,12.14a6.66,6.66,0,0,0-2-8h0A4.57,4.57,0,0,0,32,3.4Z" style="fill:#3b241a"/><path d="M.76,19.81A15.76,15.76,0,0,1,10.93,0l1,3.18a12.42,12.42,0,0,0-8,15.61Z" style="fill:#3b241a"/><path d="M6.17,18.07a10,10,0,0,1,6.5-12.66l1,3.17a6.74,6.74,0,0,0-4.35,8.47Z" style="fill:#3b241a"/><path d="M11.32,16.41a4.65,4.65,0,0,1,3-5.85l1,3.18a1.33,1.33,0,0,0-.85,1.65Z" style="fill:#3b241a"/><path d="M6.17,18.07a10,10,0,0,1,6.5-12.66l1,3.17a6.74,6.74,0,0,0-4.35,8.47Z" style="fill:#3b241a"/></g></g></svg>