<?xml version="1.0" encoding="UTF-8"?>
<svg id="_レイヤー_1" data-name="レイヤー 1" xmlns="http://www.w3.org/2000/svg" viewBox="0 0 304.68 88.26">
  <defs>
    <style>
      .cls-1 {
        fill: #3b241a;
      }

      .cls-1, .cls-2, .cls-3 {
        stroke-width: 0px;
      }

      .cls-2, .cls-4 {
        fill: #ed6c00;
      }

      .cls-4 {
        font-family: KozGoPr6N-Regular-83pv-RKSJ-H, 'Kozuka Gothic Pr6N';
        font-size: 23.82px;
        stroke: #ed6c00;
        stroke-miterlimit: 10;
      }

      .cls-3 {
        fill: #ccc;
      }
    </style>
  </defs>
  <g id="contents">
    <path class="cls-2" d="M73.18,36.11h2.65c.13,0,.27,0,.27.28v1.77c0,.28,0,.3-.27.3h-7.6c-.12,0-.28,0-.28-.3v-1.82c0-.25,0-.28.28-.28h2.65l2.3.05ZM75.45,50.31v3.6c0,.15,0,.28-.28.28h-1.64c-.25,0-.28,0-.28-.28v-.7h-2.2v1.15c0,.25,0,.27-.27.27h-1.68c-.27,0-.3,0-.3-.27v-7.71c0-.18,0-.27.3-.27h6.12c.17,0,.28,0,.28.27v1.93l-.05,1.73ZM73.05,32.69h2.25c.15,0,.3,0,.3.28v1.64c0,.25,0,.28-.3.28s-.65-.05-2.25-.05h-1.67c-1.63,0-2.13.05-2.28.05s-.27,0-.27-.28v-1.69c0-.25,0-.28.27-.28h2.28l1.67.05ZM72.83,39.69h2.09c.09,0,.3,0,.3.28v1.62c0,.25,0,.28-.3.28h-5.57c-.13,0-.27,0-.27-.28v-1.7c0-.25,0-.28.27-.28h2.13l1.35.08ZM72.83,43.07h2.09c.09,0,.3,0,.3.27v1.6c0,.25,0,.28-.3.28h-5.57c-.13,0-.27,0-.27-.28v-1.6c0-.25,0-.27.27-.27h3.48ZM71.05,48.54v2.63h2.2v-2.66l-2.2.03ZM90.92,50.22c0,.27,0,.3-.27.3h-1.38v1.5c0,1-.12,1.5-.57,1.92s-1,.5-3,.53q-.75,0-.93-.77c-.12-.51-.3-.99-.55-1.45.7.05,1.3.07,1.9.07s.83-.17.83-.67v-1.21h-7.33v3.89c0,.14,0,.25-.27.25h-1.7c-.25,0-.27,0-.27-.25v-3.87h-1.12c-.25,0-.27,0-.27-.3v-1.35c0-.25,0-.27.27-.27l1.12.05v-5.63c0-.18,0-.27.27-.27s.9.05,3.1.05h1.32v-1.18h-5.67c-.15,0-.28,0-.28-.3v-1.26c0-.25,0-.27.28-.27h3.37v-1.19c-1.47,0-2,.05-2.15.05s-.27,0-.27-.28v-1.17c0-.23,0-.25.27-.25h2.15v-1.18h-2.77c-.25,0-.28,0-.28-.3v-1.2c0-.25,0-.27.28-.27h2.77v-.4c.03-.63-.02-1.26-.15-1.87.83.05,1.6.1,2.28.17.25,0,.37.13.37.2,0,.14-.05.28-.12.4-.17.4-.22.84-.15,1.27v.29h2.47v-.4c.03-.63-.02-1.26-.15-1.87.83.05,1.6.1,2.28.17.25,0,.37.13.37.2-.01.16-.06.31-.15.45-.12.22-.12.43-.12,1.12v.33h3.3c.23,0,.27,0,.27.27v1.2c0,.28,0,.3-.27.3h-3.25v1.23h2.62c.15,0,.28,0,.28.25v1.17c0,.25,0,.28-.28.28s-.85,0-2.62-.05v1.25h3.77c.15,0,.25,0,.25.27v1.3c0,.28,0,.3-.25.3h-6.27v1.18h1.65c2.2,0,3-.05,3.12-.05s.28,0,.28.27v5.63l1.4-.05c.25,0,.27,0,.27.27l-.05,1.2ZM82.1,45.76v-1.3h-2.48v1.3h2.48ZM82.1,48.59v-1.33h-2.48v1.33h2.48ZM84.47,36.94v-1.23h-2.47v1.23h2.47ZM84.47,39.79v-1.25h-2.47v1.25h2.47ZM84.22,44.46v1.3h2.83v-1.3h-2.83ZM87.05,48.59v-1.33h-2.83v1.33h2.83Z"/>
    <g>
      <path class="cls-2" d="M132.55,40.51c-1.25.1-2.52.2-4.2.2-.42,0-.55-.15-.6-.52s-.17-1.3-.27-2.18c.66.1,1.33.14,2,.13,1,0,2.12-.1,3.17-.2v-2.85c.02-.67-.04-1.34-.17-2,1.01.04,2.02.2,3,.46.3.07.5.24.5.47-.01.14-.06.28-.15.4-.17.31-.29.65-.35,1-.07.65-.1,1.28-.12,2.08,1.09-.24,2.16-.55,3.2-.93.22-.07.4,0,.42.23.1.65.15,1.3.15,1.95,0,.25-.07.32-.32.4-1.17.4-2.37.72-3.58.95v3.62c1.94-.87,4.03-1.33,6.15-1.37,3.1,0,5.33,2,5.33,5,0,3.2-2,5.07-5.43,5.07-.67,0-1.34-.08-2-.22-.36-.06-.6-.39-.55-.75-.06-.76-.32-1.5-.75-2.13,1.01.33,2.07.48,3.13.45,1.36.12,2.57-.88,2.69-2.25,0-.11.01-.21,0-.32,0-1.63-1-2.53-2.75-2.53-2.02.09-3.99.68-5.73,1.7,0,1,.05,1.9.1,3s.2,2.68.2,3.25c0,.35.05.73-.37.83-.61.15-1.23.25-1.85.3-.27,0-.37-.18-.6-.5-1.05-1.28-2.3-2.38-3.71-3.25-.28.16-.55.34-.8.55-.11.11-.26.17-.42.17-.24-.03-.45-.18-.55-.4-.28-.45-.78-1.5-1.15-2.32.8-.19,1.58-.49,2.3-.88,1.07-.6,2.25-1.27,4.07-2.32v-4.29ZM130.23,49.11c.76.42,1.55.79,2.35,1.13.2,0,.27,0,.25-.2-.05-.65-.1-1.8-.15-2.63-.68.48-1.55,1.05-2.45,1.7ZM142.17,36c.18-.28.25-.35.43-.3,2,.53,3.83,1.58,5.3,3.05.1.1.15.17.15.25-.02.09-.05.17-.1.25-.33.5-1,1.27-1.35,1.77-.08.1-.43.13-.5,0-1.4-1.45-3.16-2.52-5.1-3.08.34-.67.73-1.32,1.17-1.94Z"/>
      <path class="cls-2" d="M163.05,34.74c.03-1.02-.04-2.04-.2-3.05,1,0,1.9.08,2.75.18.22,0,.4.12.4.25,0,.18-.05.36-.13.52-.16.65-.21,1.33-.17,2v.82h7.82c.15,0,.28,0,.28.28s-.05,1.07-.05,3.85v3.65c0,4.65.05,5.52.05,5.67s0,.28-.28.28h-2.1c-.25,0-.27,0-.27-.28v-.85h-5.45v6.25c0,.12,0,.27-.25.27h-2.22c-.23,0-.25,0-.25-.27s.05-1.65.05-4.6v-1.65h-5.27v.94c0,.25,0,.28-.28.28h-2.1c-.25,0-.27,0-.27-.28s.05-1,.05-5.7v-3.24c0-3.25-.05-4.15-.05-4.32s0-.28.27-.28h7.65l.02-.72ZM157.78,40.59h5.27v-2.8h-5.27v2.8ZM163.05,45.79v-3h-5.27v3h5.27ZM165.7,37.79v2.8h5.45v-2.8h-5.45ZM171.15,45.79v-3h-5.45v3h5.45Z"/>
      <path class="cls-2" d="M189.23,49c.38.94,1.12,1.68,2.05,2.07,1.5.42,3.06.59,4.62.5,3.22,0,7-.17,10.75-.55-.36.6-.59,1.28-.65,1.98q-.12.8-.92.85c-3.18.17-6.15.25-8.75.25-1.98.1-3.96-.15-5.85-.72-1.06-.43-1.94-1.21-2.48-2.22-.81.78-1.67,1.52-2.57,2.2-.19.14-.36.31-.5.5-.13.17-.23.25-.38.25s-.25-.13-.35-.32c-.38-.76-.71-1.55-1-2.35.51-.22,1-.48,1.47-.78.74-.47,1.45-1.01,2.1-1.6v-5.52h-1.22c-1.35,0-1.7.05-1.83.05s-.3,0-.3-.3v-1.93c0-.25,0-.27.3-.27h5.3c.15,0,.28,0,.28.27s-.05.85-.05,2.38l-.02,5.26ZM187.68,37.8c-.18.12-.25.17-.33.17s-.12,0-.2-.17c-.85-1.43-1.88-2.74-3.07-3.9-.2-.18-.15-.25.12-.42l1.4-.93c.28-.17.33-.2.53,0,1.2,1.1,2.24,2.36,3.12,3.73.15.22.15.27-.12.47l-1.45,1.05ZM196.52,33h2.28c.14,0,.25.11.25.25,0,.01,0,.02,0,.03-.03,1.23.08,2.46.3,3.67.75,4.34,3.29,8.17,7,10.55-.52.59-.97,1.25-1.32,1.95-.2.37-.3.55-.45.55s-.3-.1-.55-.33c-3-2.42-5.14-5.76-6.08-9.5-.86,3.63-2.85,6.89-5.69,9.3-.28.23-.43.35-.55.35s-.25-.15-.53-.47c-.42-.58-.95-1.08-1.55-1.48,4-2.8,6.25-6.7,6.82-12.4h-4.3c-.15,0-.3,0-.3-.3v-1.9c0-.25,0-.28.3-.28h4.37Z"/>
      <path class="cls-2" d="M228.3,40.09c.06-.56.06-1.14,0-1.7,1.01.22,1.99.58,2.9,1.07.23.12.32.42.2.65,0,.01-.01.02-.02.03-.18.31-.31.65-.4,1-.2,1-.45,2.15-.7,3.23,1.36.7,2.67,1.5,3.9,2.4.25.15.22.27.15.52-.32.74-.68,1.45-1.08,2.15-.07.13-.15.18-.22.18-.12-.02-.23-.09-.3-.18-1.01-.89-2.11-1.68-3.28-2.35-1.03,2.61-2.76,4.89-5,6.58-.23.17-.35.27-.5.27-.14-.02-.28-.08-.38-.18-.64-.49-1.38-.84-2.17-1,2.55-1.59,4.51-3.96,5.59-6.77-1.57-.78-3.25-1.32-4.99-1.58-1.33,2.75-2.05,4-3.05,5-.81.91-1.98,1.42-3.2,1.38-1.45,0-3-1-3-3.43,0-3.1,3.2-5.52,7.38-5.52.82-2.08,1.45-3.83,2.07-5.93l-3.45.4c-.38.05-.76.15-1.12.28-.14.06-.3.09-.45.1-.18,0-.35-.11-.4-.28-.33-.88-.58-1.79-.73-2.72.73.13,1.46.18,2.2.15,1.3-.02,2.59-.13,3.87-.32.44-.05.86-.19,1.23-.43.1-.06.21-.1.32-.1.13,0,.25.03.36.1.62.38,1.19.84,1.69,1.37.13.11.22.26.23.43,0,.15-.1.27-.25.42-.32.38-.55.82-.68,1.3-.64,1.7-1.35,3.65-2.1,5.45,1.66.22,3.29.64,4.85,1.25.25-1.06.42-2.14.53-3.22ZM215.1,47.09c0,.8.28,1.15.88,1.15.61-.09,1.15-.46,1.45-1,.71-.93,1.32-1.94,1.82-3-2.55.07-4.15,1.4-4.15,2.82v.03Z"/>
    </g>
    <rect class="cls-1" x="29.73" y="34.61" width="13.05" height="5.32" rx=".28" ry=".28" transform="translate(-11.63 57.53) rotate(-68.73)"/>
    <path class="cls-1" d="M30.38,45l5,1.93-3.98,4.07c-.23.19-.56.15-.75-.07-.06-.07-.1-.16-.11-.26l-.16-5.67Z"/>
    <path class="cls-1" d="M30.09,58.78c-.75,0-1.46-.38-1.88-1l-9.38-13.24c-.73-1.04-.48-2.47.56-3.2.16-.11.34-.21.52-.28l8.14-3c.38-.16.82.02.98.4,0,.02.01.03.02.05.17.37,0,.81-.38.98-.02,0-.04.02-.06.02l-8.14,3c-.22.09-.39.26-.47.49-.08.24-.04.5.11.7l9.38,13.26c.21.29.59.41.93.29l14.8-5.45c.24-.08.43-.28.5-.53.07-.25.01-.52-.15-.72l-5.26-6.64c-.26-.33-.2-.8.12-1.06.32-.26.8-.2,1.05.12,0,0,0,0,0,0l5.21,6.62c.79,1,.62,2.45-.39,3.24-.19.15-.39.26-.61.35l-14.8,5.45c-.26.09-.53.14-.81.14Z"/>
    <path class="cls-3" d="M304.68,88.26H0V0h304.68v88.26ZM2,86.26h300.68V2H2v84.26Z"/>
  </g>
  <text class="cls-4" transform="translate(95.97 52.17)"><tspan x="0" y="0">座</tspan></text>
</svg>