<?xml version="1.0" encoding="UTF-8"?>
<svg id="_レイヤー_1" xmlns="http://www.w3.org/2000/svg" version="1.1" viewBox="0 0 304.7 88.3">
  <!-- Generator: Adobe Illustrator 29.4.0, SVG Export Plug-In . SVG Version: 2.1.0 Build 152)  -->
  <defs>
    <style>
      .st0 {
        fill: #ccc;
      }

      .st1 {
        fill: #ed6c00;
      }

      .st2 {
        fill: #3b241a;
      }
    </style>
  </defs>
  <g id="contents">
    <g>
      <path class="st1" d="M132.6,40.5c-1.2,0-2.5.2-4.2.2s-.6-.2-.6-.5-.2-1.3-.3-2.2c.7,0,1.3.1,2,.1,1,0,2.1,0,3.2-.2v-2.8c0-.7,0-1.3-.2-2,1,0,2,.2,3,.5.3,0,.5.2.5.5,0,.1,0,.3-.1.4-.2.3-.3.7-.4,1,0,.7-.1,1.3-.1,2.1,1.1-.2,2.2-.5,3.2-.9.2,0,.4,0,.4.2.1.7.1,1.3.1,2s0,.3-.3.4c-1.2.4-2.4.7-3.6,1v3.6c1.9-.9,4-1.3,6.1-1.4,3.1,0,5.3,2,5.3,5s-2,5.1-5.4,5.1-1.3,0-2-.2c-.4,0-.6-.4-.6-.8,0-.8-.3-1.5-.8-2.1,1,.3,2.1.5,3.1.5,1.4.1,2.6-.9,2.7-2.2,0-.1,0-.2,0-.3,0-1.6-1-2.5-2.8-2.5-2,0-4,.7-5.7,1.7,0,1,0,1.9.1,3s.2,2.7.2,3.2,0,.7-.4.8c-.6.2-1.2.2-1.9.3-.3,0-.4-.2-.6-.5-1.1-1.3-2.3-2.4-3.7-3.2-.3.2-.6.3-.8.5-.1.1-.3.2-.4.2-.2,0-.4-.2-.6-.4-.3-.5-.8-1.5-1.2-2.3.8-.2,1.6-.5,2.3-.9,1.1-.6,2.2-1.3,4.1-2.3v-4.3h0ZM130.2,49.1c.8.4,1.6.8,2.4,1.1.2,0,.3,0,.2-.2,0-.7-.1-1.8-.1-2.6-.7.5-1.6,1-2.4,1.7h0ZM142.2,36c.2-.3.2-.3.4-.3,2,.5,3.8,1.6,5.3,3,.1,0,.1.2.1.2,0,0,0,.2-.1.2-.3.5-1,1.3-1.4,1.8,0,0-.4.1-.5,0-1.4-1.5-3.2-2.5-5.1-3.1.3-.7.7-1.3,1.2-1.9h0Z"/>
      <path class="st1" d="M163.1,34.7c0-1,0-2-.2-3,1,0,1.9,0,2.8.2.2,0,.4.1.4.2s0,.4-.1.5c-.2.7-.2,1.3-.2,2v.8h7.8c.1,0,.3,0,.3.3s0,1.1,0,3.8v3.7c0,4.7,0,5.5,0,5.7s0,.3-.3.3h-2.1c-.2,0-.3,0-.3-.3v-.8h-5.4v6.2c0,.1,0,.3-.2.3h-2.2c-.2,0-.2,0-.2-.3s0-1.7,0-4.6v-1.7h-5.3v.9c0,.2,0,.3-.3.3h-2.1c-.2,0-.3,0-.3-.3s0-1,0-5.7v-3.2c0-3.2,0-4.2,0-4.3s0-.3.3-.3h7.6v-.7h0ZM157.8,40.6h5.3v-2.8h-5.3v2.8ZM163.1,45.8v-3h-5.3v3h5.3ZM165.7,37.8v2.8h5.4v-2.8h-5.4ZM171.1,45.8v-3h-5.4v3h5.4Z"/>
      <path class="st1" d="M189.2,49c.4.9,1.1,1.7,2.1,2.1,1.5.4,3.1.6,4.6.5,3.2,0,7-.2,10.8-.5-.4.6-.6,1.3-.6,2,0,.5-.4.8-.9.8-3.2.2-6.1.2-8.8.2-2,0-4-.2-5.9-.7-1.1-.4-1.9-1.2-2.5-2.2-.8.8-1.7,1.5-2.6,2.2-.2.1-.4.3-.5.5-.1.2-.2.2-.4.2s-.2-.1-.4-.3c-.4-.8-.7-1.5-1-2.3.5-.2,1-.5,1.5-.8.7-.5,1.4-1,2.1-1.6v-5.5h-1.2c-1.4,0-1.7,0-1.8,0s-.3,0-.3-.3v-1.9c0-.2,0-.3.3-.3h5.3c.1,0,.3,0,.3.3s0,.8,0,2.4v5.3s0,0,0,0ZM187.7,37.8c-.2.1-.2.2-.3.2s-.1,0-.2-.2c-.9-1.4-1.9-2.7-3.1-3.9-.2-.2-.1-.2.1-.4l1.4-.9c.3-.2.3-.2.5,0,1.2,1.1,2.2,2.4,3.1,3.7.1.2.1.3-.1.5l-1.4,1h0ZM196.5,33h2.3c.1,0,.2.1.2.2h0c0,1.3,0,2.5.3,3.7.8,4.3,3.3,8.2,7,10.5-.5.6-1,1.2-1.3,2-.2.4-.3.5-.4.5s-.3,0-.6-.3c-3-2.4-5.1-5.8-6.1-9.5-.9,3.6-2.9,6.9-5.7,9.3-.3.2-.4.3-.6.3s-.2-.2-.5-.5c-.4-.6-.9-1.1-1.6-1.5,4-2.8,6.2-6.7,6.8-12.4h-4.3c-.1,0-.3,0-.3-.3v-1.9c0-.2,0-.3.3-.3h4.4Z"/>
      <path class="st1" d="M228.3,40.1c0-.6,0-1.1,0-1.7,1,.2,2,.6,2.9,1.1.2.1.3.4.2.7,0,0,0,0,0,0-.2.3-.3.7-.4,1-.2,1-.4,2.2-.7,3.2,1.4.7,2.7,1.5,3.9,2.4.2.2.2.3.1.5-.3.7-.7,1.5-1.1,2.2,0,.1-.1.2-.2.2-.1,0-.2,0-.3-.2-1-.9-2.1-1.7-3.3-2.3-1,2.6-2.8,4.9-5,6.6-.2.2-.4.3-.5.3-.1,0-.3,0-.4-.2-.6-.5-1.4-.8-2.2-1,2.6-1.6,4.5-4,5.6-6.8-1.6-.8-3.2-1.3-5-1.6-1.3,2.8-2.1,4-3.1,5-.8.9-2,1.4-3.2,1.4-1.4,0-3-1-3-3.4s3.2-5.5,7.4-5.5c.8-2.1,1.4-3.8,2.1-5.9l-3.4.4c-.4,0-.8.2-1.1.3-.1,0-.3,0-.4,0-.2,0-.4-.1-.4-.3-.3-.9-.6-1.8-.7-2.7.7.1,1.5.2,2.2.2,1.3,0,2.6-.1,3.9-.3.4,0,.9-.2,1.2-.4.1,0,.2,0,.3,0s.2,0,.4,0c.6.4,1.2.8,1.7,1.4.1.1.2.3.2.4,0,.2-.1.3-.2.4-.3.4-.6.8-.7,1.3-.6,1.7-1.4,3.7-2.1,5.5,1.7.2,3.3.6,4.9,1.2.2-1.1.4-2.1.5-3.2ZM215.1,47.1c0,.8.3,1.2.9,1.2.6,0,1.1-.5,1.4-1,.7-.9,1.3-1.9,1.8-3-2.6,0-4.1,1.4-4.1,2.8h0s0,0,0,0Z"/>
    </g>
    <rect class="st2" x="29.7" y="34.6" width="13" height="5.3" rx=".3" ry=".3" transform="translate(-11.6 57.5) rotate(-68.7)"/>
    <path class="st2" d="M30.4,45l5,1.9-4,4.1c-.2.2-.6.2-.8,0,0,0-.1-.2-.1-.3,0,0-.2-5.7-.2-5.7Z"/>
    <path class="st2" d="M30.1,58.8c-.8,0-1.5-.4-1.9-1l-9.4-13.2c-.7-1-.5-2.5.6-3.2.2-.1.3-.2.5-.3l8.1-3c.4-.2.8,0,1,.4,0,0,0,0,0,0,.2.4,0,.8-.4,1,0,0,0,0,0,0l-8.1,3c-.2,0-.4.3-.5.5,0,.2,0,.5.1.7l9.4,13.3c.2.3.6.4.9.3l14.8-5.5c.2,0,.4-.3.5-.5s0-.5-.2-.7l-5.3-6.6c-.3-.3-.2-.8.1-1.1.3-.3.8-.2,1,.1h0l5.2,6.6c.8,1,.6,2.5-.4,3.2-.2.2-.4.3-.6.3l-14.8,5.5c-.3,0-.5.1-.8.1h0Z"/>
    <path class="st0" d="M304.7,88.3H0V0h304.7v88.3ZM2,86.3h300.7V2H2v84.3Z"/>
  </g>
  <g>
    <path class="st1" d="M68.9,55.2c0-.2-.1-.6-.3-.9-.1-.4-.3-.7-.4-1.1-.1-.4-.3-.7-.4-.9,1.8,0,3.4-.3,4.9-.6,1.5-.3,2.9-.8,4.2-1.4-.6-.6-1.2-1.3-1.7-2.1s-1-1.6-1.4-2.6h-1.8v-2.5h13.6l1.2,1.5c-1.2,2.3-2.8,4.2-4.6,5.7,1.2.6,2.6,1,4.2,1.3,1.5.3,3.2.5,5,.5-.2.2-.3.5-.5.9-.2.4-.3.7-.4,1.1-.1.4-.2.7-.3.9-2.1,0-4-.3-5.8-.8-1.8-.4-3.5-1.1-4.9-2-1.5.8-3.1,1.5-4.8,2-1.8.5-3.7.8-5.7,1ZM68.2,44.8v-6h4.1c-.2-.5-.4-.9-.7-1.4-.3-.5-.5-.9-.8-1.2l2-1c-.8,0-1.7,0-2.6,0,0-.4-.2-.8-.4-1.4s-.4-1-.5-1.3c1.1,0,2.3.1,3.7.1,1.3,0,2.7,0,4,0s2.7-.2,3.9-.3,2.4-.3,3.5-.5c1.1-.2,2-.4,2.7-.7l1.9,2.3c-.6.2-1.2.3-1.9.5-.7.1-1.4.3-2.2.4l2.3.7c-.2.5-.4,1.1-.8,1.8-.3.7-.7,1.4-1,2h5.4v6h-2.9v-3.5h-16.7v3.5h-3ZM73.3,38.8h4.6c-.2-.5-.4-1-.6-1.6-.3-.6-.5-1.1-.8-1.4l2-.8c-.8,0-1.7,0-2.6.1-.9,0-1.8,0-2.7,0,.3.4.6.8.9,1.3s.6,1,.8,1.5l-1.7.8ZM79.6,48.5c.5-.4,1-.9,1.5-1.4.5-.5.9-1,1.3-1.6h-5.1c.6,1.1,1.4,2.1,2.4,3ZM79,38.8h3.4c.2-.4.4-.9.7-1.4.2-.5.5-1.1.7-1.6.2-.5.4-1,.5-1.5-.8.1-1.6.2-2.5.3-.8,0-1.7.2-2.6.3.3.4.6.9.9,1.5s.5,1.2.7,1.7l-1.8.7Z"/>
    <path class="st1" d="M96,38.5v-2.4h9.4v2.4h-9.4ZM97.1,54.6v-7.5h7.5v7.5h-7.5ZM97.2,34.9v-2.5h7v2.5h-7ZM97.2,42.2v-2.4h7v2.4h-7ZM97.2,45.9v-2.4h7v2.4h-7ZM99.8,52.3h2.2v-2.7h-2.2v2.7ZM114.2,55.3c0-.4-.1-.8-.2-1.2-.1-.5-.2-.8-.4-1.2h1.5c.3,0,.5,0,.7-.2.1-.1.2-.3.2-.6v-1.1h-6.8v4.3h-2.7v-4.3h-1.3v-2.1h1.3v-6.2h4.8v-1h-6.2v-2.1h3.7v-1.1h-2.2v-2h2.2v-1h-3.4v-2h3.4v-1.9h2.7v1.9h2.3v-1.9h2.7v1.9h3.3v2h-3.3v1h2.8v2h-2.8v1.1h3.6v2.1h-6.1v1h4.8v6.2h1.5v2.1h-1.5v1.9c0,.8-.2,1.5-.7,1.8-.4.4-1.1.6-2.1.6h-1.7ZM109.2,45.8h2.1v-1.1h-2.1v1.1ZM109.2,48.9h2.1v-1.2h-2.1v1.2ZM111.4,36.5h2.3v-1h-2.3v1ZM111.4,39.6h2.3v-1.1h-2.3v1.1ZM113.9,45.8h2.1v-1.1h-2.1v1.1ZM113.9,48.9h2.1v-1.2h-2.1v1.2Z"/>
  </g>
</svg>