<svg xmlns="http://www.w3.org/2000/svg" viewBox="0 0 304.68 88.26"><title>アセット 47</title><g id="レイヤー_2" data-name="レイヤー 2"><g id="contents"><path d="M73.18,36.11c1.9,0,2.52,0,2.65,0s.27,0,.27.28v1.77c0,.28,0,.3-.27.3s-.75,0-2.65,0h-2.3c-1.9,0-2.53,0-2.65,0s-.28,0-.28-.3V36.34c0-.25,0-.28.28-.28s.75,0,2.65,0Zm2.27,14.2c0,2.9,0,3.45,0,3.6s0,.28-.28.28H73.53c-.25,0-.28,0-.28-.28v-.7h-2.2v1.15c0,.25,0,.27-.27.27H69.1c-.27,0-.3,0-.3-.27s0-.72,0-3.75V49c0-1.57,0-2.17,0-2.35s0-.27.3-.27.68,0,2.28,0h1.55c1.6,0,2.12,0,2.29,0s.28,0,.28.27,0,.75,0,1.93Zm-2.4-17.62c1.6,0,2.1,0,2.25,0s.3,0,.3.28v1.64c0,.25,0,.28-.3.28s-.65-.05-2.25-.05H71.38c-1.63,0-2.13.05-2.28.05s-.27,0-.27-.28V32.92c0-.25,0-.28.27-.28s.65,0,2.28,0Zm-.22,7c1.5,0,2,0,2.09,0s.3,0,.3.28v1.62c0,.25,0,.28-.3.28s-.59,0-2.09,0H71.48c-1.53,0-2,0-2.13,0s-.27,0-.27-.28V39.89c0-.25,0-.28.27-.28s.6,0,2.13,0Zm0,3.38c1.5,0,2,0,2.09,0s.3,0,.3.27v1.6c0,.25,0,.28-.3.28s-.59,0-2.09,0H71.48c-1.53,0-2,0-2.13,0s-.27,0-.27-.28v-1.6c0-.25,0-.27.27-.27s.6,0,2.13,0Zm-1.78,5.47v2.63h2.2V48.51Zm19.87,1.68c0,.27,0,.3-.27.3-.08,0-.5,0-1.38,0,0,.55,0,1.08,0,1.5,0,1-.12,1.5-.57,1.92s-1,.5-3,.53c-.75,0-.75,0-.93-.77a5.78,5.78,0,0,0-.55-1.45c.7.05,1.3.07,1.9.07s.83-.17.83-.67V50.44H79.62v1.12c0,1.77,0,2.63,0,2.77s0,.25-.27.25H77.65c-.25,0-.27,0-.27-.25s0-.92,0-2.69V50.46c-.72,0-1,0-1.12,0-.25,0-.27,0-.27-.3V48.81c0-.25,0-.27.27-.27l1.12.05v-2.9c0-1.75,0-2.55,0-2.73s0-.27.27-.27.9.05,3.1.05h1.32V41.56h-2.3c-2.39,0-3.22,0-3.37,0s-.28,0-.28-.3V40c0-.25,0-.27.28-.27s1,0,3.37,0V38.54c-1.47,0-2,.05-2.15.05s-.27,0-.27-.28V37.14c0-.23,0-.25.27-.25s.68,0,2.15,0V35.71l-2.77,0c-.25,0-.28,0-.28-.3v-1.2c0-.25,0-.27.28-.27s.85,0,2.77,0v-.4a7.12,7.12,0,0,0-.15-1.87c.83.05,1.6.1,2.28.17.25,0,.37.13.37.2a.88.88,0,0,1-.12.4A2.32,2.32,0,0,0,82,33.71V34h2.47v-.4a7.12,7.12,0,0,0-.15-1.87c.83.05,1.6.1,2.28.17.25,0,.37.13.37.2a1,1,0,0,1-.15.45c-.12.22-.12.43-.12,1.12V34C89,34,89.77,34,90,34s.27,0,.27.27v1.2c0,.28,0,.3-.27.3s-1,0-3.25,0v1.23c1.77,0,2.47,0,2.62,0s.28,0,.28.25v1.17c0,.25,0,.28-.28.28s-.85,0-2.62-.05v1.25h.37c2.43,0,3.25,0,3.4,0s.25,0,.25.27v1.3c0,.28,0,.3-.25.3s-1,0-3.4,0H84.25v1.18H85.9c2.2,0,3-.05,3.12-.05s.28,0,.28.27,0,1.13,0,2.95v2.68l1.4-.05c.25,0,.27,0,.27.27ZM82.1,45.76v-1.3H79.62v1.3Zm0,2.83V47.26H79.62v1.33Zm2.37-11.65V35.71H82v1.23Zm0,2.85V38.54H82v1.25Zm-.25,4.67v1.3h2.83v-1.3Zm2.83,4.13V47.26H84.22v1.33Z" style="fill:#ed6c00"/><path d="M104.85,44.09c.07-.15.12-.3.2-.5a6.19,6.19,0,0,0,.4-1.4c-.38.3-1.07.5-3,.52-.7,0-.7,0-.88-.72a5.82,5.82,0,0,0-.42-1.28c-1.12.58-2.17,1-3.22,1.48a2.58,2.58,0,0,0-.78.4.68.68,0,0,1-.37.17c-.13,0-.25-.07-.33-.3-.22-.6-.42-1.37-.62-2.15a12,12,0,0,0,1.92-.47,32.37,32.37,0,0,0,4.85-2.08c0,.35,0,1,0,1.5,0,.8,0,.73-.69,1.1l-.23.13c.42,0,.78,0,1.13,0,.67,0,.84-.2.84-.7V34.64H99.08c-2,0-2.65,0-2.8,0s-.28,0-.28-.3v-1.7c0-.27,0-.3.28-.3s.8,0,2.8,0H103c2,0,2.7,0,2.85,0s.28,0,.28.3,0,.65,0,1.85v3.27c0,.9.07,1.95.07,2.58a2.12,2.12,0,0,1-.55,1.7,19.07,19.07,0,0,1,2.45.47c.2.08.33.18.33.33s-.1.3-.28.42a1.41,1.41,0,0,0-.4.5l-.17.28h3.6c2.45,0,3.3-.05,3.47-.05s.28,0,.28.3,0,.85,0,2.8v2.57c0,3.7,0,4.4,0,4.55s0,.27-.28.27h-2c-.27,0-.3,0-.3-.27v-.65H101.58v.77c0,.25,0,.28-.28.28h-2c-.25,0-.27,0-.27-.28s0-.84,0-4.62V47.49c0-2.3,0-3,0-3.15s0-.3.27-.3,1,.05,3.47.05Zm-6.9-9c.2-.18.28-.2.5-.1a14.05,14.05,0,0,1,2.88,1.62c.1.08.17.15.17.23s0,.12-.17.25l-1.15,1c-.28.25-.3.3-.53.13a14.34,14.34,0,0,0-2.75-1.75c-.22-.1-.2-.18,0-.4Zm3.63,12.7h10.69V46.14H101.58Zm10.69,3.77V49.71H101.58v1.85Zm4.8-13.75c0,.9.05,1.95.05,2.58a2,2,0,0,1-.62,1.77c-.43.33-1.15.5-3,.55-.7,0-.7,0-.85-.65a6,6,0,0,0-.5-1.45c-1,.45-1.85.83-2.8,1.23a5.77,5.77,0,0,0-.83.35c-.17.07-.3.2-.42.2s-.25-.1-.33-.28c-.2-.65-.37-1.25-.57-2.12a13.37,13.37,0,0,0,2-.43,29.41,29.41,0,0,0,4.45-2,14.68,14.68,0,0,0,0,1.53c0,.8,0,.75-.72,1.1l-.45.22a12.85,12.85,0,0,0,1.32,0c.73,0,.93-.2.93-.7V34.64h-4.58c-2,0-2.65,0-2.8,0s-.27,0-.27-.3v-1.7c0-.27,0-.3.27-.3s.78,0,2.8,0H114c2,0,2.73,0,2.88,0s.27,0,.27.3-.05.65-.05,1.85Zm-8.27-2.7a.43.43,0,0,1,.55-.12,14.81,14.81,0,0,1,2.85,1.72c.1.08.17.15.17.2s-.05.15-.17.25L111,38.21c-.27.23-.3.25-.5.1a13.11,13.11,0,0,0-2.72-1.87c-.23-.13-.25-.18,0-.43Z" style="fill:#ed6c00"/><path d="M129.35,39.64a30,30,0,0,1-4.52,2.7,1.63,1.63,0,0,1-.6.22c-.18,0-.25-.17-.45-.62a5.62,5.62,0,0,0-1.13-1.65,21,21,0,0,0,9.6-7.27,7.45,7.45,0,0,0,.87-1.63,19,19,0,0,1,2.7.53c.3.07.45.17.45.35a.42.42,0,0,1-.25.4,1.62,1.62,0,0,0-.35.22A22.56,22.56,0,0,0,146.25,40a7.5,7.5,0,0,0-1.08,1.87c-.17.45-.25.63-.42.63a1.86,1.86,0,0,1-.58-.2,27.83,27.83,0,0,1-4.77-2.65v1.85c0,.25,0,.27-.28.27s-.82-.05-2.82-.05h-3.85c-2,0-2.67.05-2.83.05s-.27,0-.27-.27Zm-1.6,6.77c-2.35,0-3.15.05-3.3.05s-.3,0-.3-.27V44.31c0-.25,0-.27.3-.27s1,.05,3.3.05h13.32c2.35,0,3.15-.05,3.3-.05s.3,0,.3.27v1.88c0,.25,0,.27-.3.27s-1-.05-3.3-.05h-7.72a47.45,47.45,0,0,1-2.23,4.7c2.6-.15,5.33-.37,7.7-.62-.57-.7-1.15-1.4-1.82-2.13-.18-.2-.15-.3.15-.45l1.6-.82c.27-.15.35-.13.52,0a43.08,43.08,0,0,1,4.65,5.8c.13.2.13.29-.12.47l-1.73,1.12c-.15.1-.22.15-.3.15s-.12,0-.2-.17c-.42-.7-.85-1.35-1.25-1.95-4.15.52-9.24.95-13.49,1.27a2.27,2.27,0,0,0-.9.23.64.64,0,0,1-.43.15c-.17,0-.3-.13-.35-.35-.22-.82-.37-1.7-.52-2.57a20.57,20.57,0,0,0,2.72,0c.25,0,.53,0,.8,0a39.62,39.62,0,0,0,2.2-4.85Zm8.55-7c1.67,0,2.42,0,2.7,0a22.83,22.83,0,0,1-4.73-4.58,23.33,23.33,0,0,1-4.57,4.58c.22,0,.92,0,2.75,0Z" style="fill:#ed6c00"/><path d="M157.55,40.51c-1.25.1-2.52.2-4.2.2-.42,0-.55-.15-.6-.52s-.17-1.3-.27-2.18a12.78,12.78,0,0,0,2,.13c1,0,2.12-.1,3.17-.2,0-.83,0-1.78,0-2.85a9.28,9.28,0,0,0-.17-2,13.64,13.64,0,0,1,3,.46c.3.07.5.24.5.47a.8.8,0,0,1-.15.4,3.16,3.16,0,0,0-.35,1c-.07.65-.1,1.28-.12,2.08a24.77,24.77,0,0,0,3.2-.93c.22-.07.4,0,.42.23a12.52,12.52,0,0,1,.15,1.95c0,.25-.07.32-.32.4a26.25,26.25,0,0,1-3.58.95c0,1.2,0,2.42,0,3.62a15.67,15.67,0,0,1,6.15-1.37c3.1,0,5.33,2,5.33,5,0,3.2-2,5.07-5.43,5.07a10.14,10.14,0,0,1-2-.22.67.67,0,0,1-.55-.75,4.35,4.35,0,0,0-.75-2.13,9.34,9.34,0,0,0,3.13.45,2.48,2.48,0,0,0,2.7-2.57c0-1.63-1-2.53-2.75-2.53a12.44,12.44,0,0,0-5.73,1.7c0,1,.05,1.9.1,3s.2,2.68.2,3.25c0,.35.05.73-.37.83a10.61,10.61,0,0,1-1.85.3c-.27,0-.37-.18-.6-.5A15,15,0,0,0,154.1,50a4.93,4.93,0,0,0-.8.55.63.63,0,0,1-.42.17.7.7,0,0,1-.55-.4c-.28-.45-.78-1.5-1.15-2.32a9.34,9.34,0,0,0,2.3-.88c1.07-.6,2.25-1.27,4.07-2.32Zm-2.32,8.6a25.65,25.65,0,0,0,2.35,1.13c.2,0,.27,0,.25-.2-.05-.65-.1-1.8-.15-2.63C157,47.89,156.13,48.46,155.23,49.11ZM167.17,36c.18-.28.25-.35.43-.3a11.79,11.79,0,0,1,5.3,3.05c.1.1.15.17.15.25a.68.68,0,0,1-.1.25c-.33.5-1,1.27-1.35,1.77-.08.1-.43.13-.5,0A11.58,11.58,0,0,0,166,37.94,15.84,15.84,0,0,1,167.17,36Z" style="fill:#ed6c00"/><path d="M188.05,34.74a17,17,0,0,0-.2-3.05c1,0,1.9.08,2.75.18.22,0,.4.12.4.25a1.14,1.14,0,0,1-.13.52,6.78,6.78,0,0,0-.17,2v.82h4.4c2.42,0,3.27,0,3.42,0s.28,0,.28.28-.05,1.07-.05,3.85v3.65c0,4.65.05,5.52.05,5.67s0,.28-.28.28h-2.1c-.25,0-.27,0-.27-.28v-.85H190.7v1.63c0,3,0,4.5,0,4.62s0,.27-.25.27h-2.22c-.23,0-.25,0-.25-.27s.05-1.65.05-4.6V48.06h-5.27V49c0,.25,0,.28-.28.28h-2.1c-.25,0-.27,0-.27-.28s.05-1,.05-5.7V40.06c0-3.25-.05-4.15-.05-4.32s0-.28.27-.28,1,0,3.43,0h4.22Zm-5.27,5.85h5.27v-2.8h-5.27Zm5.27,5.2v-3h-5.27v3Zm2.65-8v2.8h5.45v-2.8Zm5.45,8v-3H190.7v3Z" style="fill:#ed6c00"/><path d="M211.2,33.36c.42.1.6.23.6.48a2.43,2.43,0,0,1-.25.82,15,15,0,0,0-.35,3.05c-.25,3.85-.37,6.4-.37,9.68,0,2.52.29,3.1,2.29,3.1,2.23,0,5.7-1.35,8.75-4.6a8.64,8.64,0,0,0,.58,2.37,1.78,1.78,0,0,1,.2.6c0,.23-.1.43-.5.78a14.32,14.32,0,0,1-9.48,3.75c-3.19,0-4.69-1.28-4.69-5.1,0-4.2.22-7.8.35-10.8a16.75,16.75,0,0,0-.25-4.57A27.18,27.18,0,0,1,211.2,33.36Z" style="fill:#ed6c00"/><path d="M233.23,49a3.75,3.75,0,0,0,2.05,2.07,14.25,14.25,0,0,0,4.62.5c3.22,0,7-.17,10.75-.55A4.66,4.66,0,0,0,250,53c-.12.8-.12.8-.92.85-3.18.17-6.15.25-8.75.25a17.36,17.36,0,0,1-5.85-.72A4.89,4.89,0,0,1,232,51.16a28.16,28.16,0,0,1-2.57,2.2,2.32,2.32,0,0,0-.5.5c-.13.17-.23.25-.38.25s-.25-.13-.35-.32a21.9,21.9,0,0,1-1-2.35,10.9,10.9,0,0,0,1.47-.78,15.32,15.32,0,0,0,2.1-1.6V43.54h-1.22c-1.35,0-1.7.05-1.83.05s-.3,0-.3-.3V41.36c0-.25,0-.27.3-.27s.48,0,1.83,0h1.6c1.32,0,1.72,0,1.87,0s.28,0,.28.27-.05.85-.05,2.38Zm-1.55-11.2c-.18.12-.25.17-.33.17s-.12,0-.2-.17a18.92,18.92,0,0,0-3.07-3.9c-.2-.18-.15-.25.12-.42l1.4-.93c.28-.17.33-.2.53,0a19,19,0,0,1,3.12,3.73c.15.22.15.27-.12.47Zm8.84-4.8c1.15,0,1.95,0,2.28,0a.25.25,0,0,1,.25.28,18.08,18.08,0,0,0,.3,3.67,15.75,15.75,0,0,0,7,10.55,9.08,9.08,0,0,0-1.32,1.95c-.2.37-.3.55-.45.55s-.3-.1-.55-.33a17.81,17.81,0,0,1-6.08-9.5,17.49,17.49,0,0,1-5.69,9.3c-.28.23-.43.35-.55.35s-.25-.15-.53-.47a6,6,0,0,0-1.55-1.48c4-2.8,6.25-6.7,6.82-12.4H238.3c-1.55,0-2,0-2.15,0s-.3,0-.3-.3V33.27c0-.25,0-.28.3-.28s.6,0,2.15,0Z" style="fill:#ed6c00"/><path d="M271.3,40.09a7.54,7.54,0,0,0,0-1.7,10.8,10.8,0,0,1,2.9,1.07.48.48,0,0,1,.18.68,4,4,0,0,0-.4,1c-.2,1-.45,2.15-.7,3.23a29.05,29.05,0,0,1,3.9,2.4c.25.15.22.27.15.52a21.55,21.55,0,0,1-1.08,2.15c-.07.13-.15.18-.22.18a.49.49,0,0,1-.3-.18,20.44,20.44,0,0,0-3.28-2.35,15.34,15.34,0,0,1-5,6.58c-.23.17-.35.27-.5.27a.66.66,0,0,1-.38-.18,5.31,5.31,0,0,0-2.17-1,13.79,13.79,0,0,0,5.59-6.77A16.94,16.94,0,0,0,265,44.41c-1.33,2.75-2.05,4-3.05,5a4.11,4.11,0,0,1-3.2,1.38c-1.45,0-3-1-3-3.43,0-3.1,3.2-5.52,7.38-5.52.82-2.08,1.45-3.83,2.07-5.93l-3.45.4a5.24,5.24,0,0,0-1.12.28,1.34,1.34,0,0,1-.45.1.4.4,0,0,1-.4-.28,14.56,14.56,0,0,1-.73-2.72,9.59,9.59,0,0,0,2.2.15,29.33,29.33,0,0,0,3.87-.32,2.85,2.85,0,0,0,1.23-.43.6.6,0,0,1,.32-.1.65.65,0,0,1,.36.1,8.11,8.11,0,0,1,1.69,1.37.62.62,0,0,1,.23.43c0,.15-.1.27-.25.42a3.38,3.38,0,0,0-.68,1.3c-.64,1.7-1.35,3.65-2.1,5.45a20.92,20.92,0,0,1,4.85,1.25A24.82,24.82,0,0,0,271.3,40.09Zm-13.2,7c0,.8.28,1.15.88,1.15a2,2,0,0,0,1.45-1,17,17,0,0,0,1.82-3C259.7,44.31,258.1,45.64,258.1,47.06Z" style="fill:#ed6c00"/><rect x="33.6" y="30.74" width="5.32" height="13.05" rx="0.28" transform="translate(15.98 -10.61) rotate(21.27)" style="fill:#3b241a"/><path d="M30.38,45l5,1.93L31.4,51a.53.53,0,0,1-.86-.33Z" style="fill:#3b241a"/><path d="M30.09,58.78a2.29,2.29,0,0,1-1.88-1L18.83,44.54a2.3,2.3,0,0,1,1.08-3.48l8.14-3a.75.75,0,0,1,1,.45.74.74,0,0,1-.44,1l-8.14,3A.8.8,0,0,0,20,43a.77.77,0,0,0,.11.7l9.38,13.26a.82.82,0,0,0,.93.29l14.8-5.45a.78.78,0,0,0,.5-.53.82.82,0,0,0-.15-.72l-5.26-6.64a.76.76,0,0,1,.12-1.06.75.75,0,0,1,1.06.13L46.7,49.6a2.31,2.31,0,0,1-1,3.59l-14.8,5.45A2.45,2.45,0,0,1,30.09,58.78Z" style="fill:#3b241a"/><path d="M304.68,88.26H0V0H304.68ZM2,86.26H302.68V2H2Z" style="fill:#ccc"/></g></g></svg>