<?xml version="1.0" encoding="UTF-8"?>
<svg id="_レイヤー_1" data-name=" レイヤー 1" xmlns="http://www.w3.org/2000/svg" viewBox="0 0 304.7 88.3">
  <defs>
    <style>
      .cls-1 {
        fill: #ff4500;
        font-family: Meiryo-Bold, Meiryo;
        font-size: 27px;
        font-weight: 700;
      }

      .cls-1, .cls-2 {
        isolation: isolate;
      }

      .cls-3 {
        fill: #ccc;
      }

      .cls-4 {
        fill: #3b241a;
      }
    </style>
  </defs>
  <g id="contents">
    <rect class="cls-4" x="29.78" y="34.6" width="13" height="5.3" rx=".3" ry=".3" transform="translate(-11.6 57.52) rotate(-68.7)"/>
    <path class="cls-4" d="M30.4,45l5,1.9-4,4.1c-.2.2-.6.2-.8,0,0,0-.1-.2-.1-.3l-.2-5.7h.1Z"/>
    <path class="cls-4" d="M30.1,58.8c-.8,0-1.5-.4-1.9-1l-9.4-13.2c-.7-1-.5-2.5.6-3.2.2,0,.3-.2.5-.3l8.1-3c.4-.2.8,0,1,.4h0c.2.4,0,.8-.4,1h0l-8.1,3c-.2,0-.4.3-.5.5,0,.2,0,.5.1.7l9.4,13.3c.2.3.6.4.9.3l14.8-5.5c.2,0,.4-.3.5-.5s0-.5-.2-.7l-5.3-6.6c-.3-.3-.2-.8,0-1.1s.8-.2,1,0h0l5.2,6.6c.8,1,.6,2.5-.4,3.2-.2.2-.4.3-.6.3l-14.8,5.5h-.8.2l.1.3Z"/>
    <path class="cls-3" d="M304.7,88.3H0V0h304.7v88.3ZM2,86.3h300.7V2H2v84.3Z"/>
  </g>
  <g class="cls-2">
    <text class="cls-1" transform="translate(67.2 53.3)"><tspan x="0" y="0">受講お申込み</tspan></text>
  </g>
</svg>