<svg xmlns="http://www.w3.org/2000/svg" viewBox="0 0 631.77 88.26"><title>アセット 45</title><g id="レイヤー_2" data-name="レイヤー 2"><g id="contents"><path d="M287.63,43.74c-.3-1.9-1.15-2.78-2.42-2.78-2,0-3.07,1.73-3.07,4.88s1.05,4.9,3.07,4.9c1.47,0,2.32-1,2.62-2.88l2.93.8A5.34,5.34,0,0,1,285.13,53c-3.89,0-6.22-2.68-6.22-7.15s2.4-7.23,6.22-7.23A5.24,5.24,0,0,1,290.68,43Z" style="fill:#ed6c00"/><path d="M299.19,52.69H296V32.94h3.15Z" style="fill:#ed6c00"/><path d="M317.33,45.81c0,4.45-2.47,7.23-6.22,7.23s-6.2-2.7-6.2-7.15,2.5-7.23,6.22-7.23S317.33,41.36,317.33,45.81Zm-9.19,0c0,3.17.95,4.92,3,4.92s3-1.72,3-4.92-.95-4.9-3-4.9S308.14,42.69,308.14,45.84Z" style="fill:#ed6c00"/><path d="M330,43a2.46,2.46,0,0,0-2.45-2.2c-1.35,0-2.15.65-2.15,1.48,0,1.07.45,1.52,2.45,2.05l1.15.3c3.13.82,4.25,2,4.25,4.17,0,2.45-1.82,4.23-5.55,4.23-2.89,0-4.84-1-5.72-3.43l2.92-1a2.9,2.9,0,0,0,2.88,2.3c1.8,0,2.5-.78,2.5-1.78s-.48-1.42-2.65-2l-1.15-.32c-3-.8-4-1.88-4-4.18s1.8-3.9,5.14-3.9c2.88,0,4.63,1.28,5.38,3.5Z" style="fill:#ed6c00"/><path d="M341.14,46.51c0,2.6,1.17,4.33,3.44,4.33,1.43,0,2.43-.8,2.9-2.6l2.85.82c-.85,2.63-2.72,4-5.77,4-4.1,0-6.5-2.63-6.5-7.13s2.52-7.25,6.22-7.25c3.5,0,6.13,2.55,6.13,7.2v.65Zm6.19-2.07c-.15-2.3-1.12-3.6-3-3.6s-3,1.4-3.14,3.6Z" style="fill:#ed6c00"/><path d="M631.77,88.26H0V0H631.77ZM2,86.26H629.77V2H2Z" style="fill:#ccc"/></g></g></svg>