<?xml version="1.0" encoding="UTF-8"?>
<svg xmlns="http://www.w3.org/2000/svg" version="1.1" viewBox="0 0 304.7 88.3">
  <!-- Generator: Adobe Illustrator 29.4.0, SVG Export Plug-In . SVG Version: 2.1.0 Build 152)  -->
  <defs>
    <style>
      .st0 {
        fill: #ccc;
      }

      .st1 {
        fill: #ff4500;
        font-family: NotoSansJP-Bold-83pv-RKSJ-H, 'Noto Sans JP';
        font-size: 27px;
        font-weight: 700;
        letter-spacing: 0em;
      }

      .st2 {
        fill: #3b241a;
      }
    </style>
  </defs>
  <g id="_レイヤー_1" data-name="レイヤー_1">
    <g id="_レイヤー_2" data-name="レイヤー_2">
      <g id="contents">
        <path class="st2" d="M73.5,32.5h-23.7c-.1,0-.2,0-.2.2,0,0,0,.1,0,.2l11.8,11.1c0,0,.2,0,.3,0l11.8-11.1c0,0,0-.2,0-.3,0,0,0,0-.2,0Z"/>
        <path class="st2" d="M61.6,48.4l-12-11.2c0,0-.2,0-.3,0,0,0,0,0,0,.1v11.3c0,1.6,1.3,2.9,2.9,2.9h18.9c1.7,0,3-1.4,3-3.1v-11.1c0,0,0-.2-.2-.2,0,0-.1,0-.1,0l-11.9,11.2c0,0-.2,0-.3,0Z"/>
        <path class="st0" d="M304.7,88.3H0V0h304.7v88.3ZM2,86.3h300.7V2H2v84.3Z"/>
      </g>
    </g>
  </g>
  <g id="_レイヤー_11" data-name="_レイヤー_1">
    <text class="st1" transform="translate(87.2 51.5)"><tspan x="0" y="0">お問い合わせ</tspan></text>
  </g>
</svg>