<?xml version="1.0" encoding="UTF-8"?>
<svg id="_レイヤー_1" data-name="レイヤー 1" xmlns="http://www.w3.org/2000/svg" viewBox="0 0 304.7 88.3">
  <defs>
    <style>
      .cls-1 {
        fill: #ff4500;
        font-family: Meiryo-Bold, Meiryo;
        font-size: 27px;
        font-weight: 700;
      }

      .cls-1, .cls-2 {
        isolation: isolate;
      }

      .cls-3 {
        fill: #ccc;
      }

      .cls-4 {
        fill: #3b241a;
      }
    </style>
  </defs>
  <g id="_レイヤー_1-2" data-name=" レイヤー 1">
    <g id="_レイヤー_2" data-name=" レイヤー 2">
      <g id="contents">
        <path class="cls-4" d="M73.5,32.5h-23.7c-.1,0-.2,0-.2.2v.2l11.8,11.1h.3l11.8-11.1v-.3h-.2l.2-.1Z"/>
        <path class="cls-4" d="M61.6,48.4l-12-11.2h-.3v11.4c0,1.6,1.3,2.9,2.9,2.9h18.9c1.7,0,3-1.4,3-3.1v-11.1s0-.2-.2-.2h-.1l-11.9,11.2h-.3v.1Z"/>
        <path class="cls-3" d="M304.7,88.3H0V0h304.7v88.3ZM2,86.3h300.7V2H2v84.3Z"/>
      </g>
    </g>
  </g>
  <g id="_レイヤー_11" data-name=" レイヤー 11">
    <g class="cls-2">
      <text class="cls-1" transform="translate(87.2 51.5)"><tspan x="0" y="0">お問い合わせ</tspan></text>
    </g>
  </g>
</svg>