<svg xmlns="http://www.w3.org/2000/svg" viewBox="0 0 304.68 88.26"><title>アセット 46</title><g id="レイヤー_2" data-name="レイヤー 2"><g id="contents"><path d="M96.67,38.44c-1.25.1-2.53.2-4.2.2-.43,0-.55-.15-.6-.53s-.18-1.3-.28-2.17a12.84,12.84,0,0,0,2,.12c1,0,2.13-.1,3.18-.2,0-.82,0-1.77,0-2.85a9.19,9.19,0,0,0-.17-2,13.74,13.74,0,0,1,3,.45c.3.07.5.25.5.47a.87.87,0,0,1-.15.4,3.21,3.21,0,0,0-.35,1c-.07.65-.1,1.27-.12,2.07a24.72,24.72,0,0,0,3.2-.92c.22-.08.4,0,.42.22a12.61,12.61,0,0,1,.15,2c0,.25-.07.33-.32.4a24.87,24.87,0,0,1-3.58,1c0,1.2,0,2.43-.05,3.63a15.89,15.89,0,0,1,6.15-1.38c3.1,0,5.32,2,5.32,5,0,3.2-2,5.07-5.42,5.07a10.14,10.14,0,0,1-2.05-.22.67.67,0,0,1-.55-.75,4.29,4.29,0,0,0-.75-2.12,9.56,9.56,0,0,0,3.13.44,2.48,2.48,0,0,0,2.7-2.57c0-1.62-1-2.52-2.75-2.52a12.32,12.32,0,0,0-5.73,1.7c0,1,0,1.9.1,3s.2,2.68.2,3.25c0,.35,0,.73-.37.83a10.61,10.61,0,0,1-1.85.3c-.28,0-.38-.18-.6-.5a15.36,15.36,0,0,0-3.55-3.2,4.19,4.19,0,0,0-.8.55.65.65,0,0,1-.42.17.7.7,0,0,1-.56-.4c-.27-.45-.77-1.5-1.15-2.32a9,9,0,0,0,2.3-.87c1.08-.6,2.25-1.28,4.08-2.33ZM94.34,47c.7.37,1.55.79,2.35,1.12.2.05.28,0,.25-.2,0-.65-.1-1.8-.15-2.62C96.09,45.81,95.24,46.39,94.34,47Zm12-13.13c.18-.27.25-.35.43-.3a11.94,11.94,0,0,1,5.29,3c.11.1.16.18.16.25a.53.53,0,0,1-.11.25c-.32.5-1,1.28-1.35,1.78a.42.42,0,0,1-.5,0,11.5,11.5,0,0,0-5.07-3.08A17.48,17.48,0,0,1,106.29,33.91Z" style="fill:#ed6c00"/><path d="M124.94,30.46c1.63,0,2.35-.05,2.5-.05s.25,0,.25.28,0,.9,0,2.47v3.25c0,1.55,0,2.3,0,2.45s0,.28-.25.28-.87,0-2.5,0h-4v7.79c0,3.45,0,5.15,0,5.33s0,.27-.27.27h-2.13c-.25,0-.27,0-.27-.27s.05-1.88.05-5.33V36.06c0-3.45-.05-5.2-.05-5.37s0-.28.27-.28,1.1.05,2.93.05Zm-4,1.9v1.48h4.25V32.36Zm4.25,3.2h-4.25v1.7h4.25Zm-.9,14.55c-.25,0-.27,0-.27-.25s0-.78,0-4.07V44c0-1.83,0-2.48,0-2.65s0-.28.27-.28.78,0,2.65,0h3.28c1.87,0,2.47,0,2.65,0s.27,0,.27.28,0,.8,0,2.17v1.93c0,3.14,0,3.74,0,3.89s0,.3-.27.3H131c-.27,0-.3,0-.3-.3v-.82h-4.32v1.35c0,.25,0,.25-.3.25Zm2.13-3.72h4.32V43.24h-4.32ZM139,44.26c0,1.75.11,3.75.11,5a2.68,2.68,0,0,1-.73,2.3c-.55.5-1.25.68-3.47.68-.8,0-.8,0-.95-.78a7.32,7.32,0,0,0-.58-1.85,14.76,14.76,0,0,0,2,.13c.82,0,1-.23,1-1V39.09h-4c-1.95,0-2.6,0-2.75,0s-.3,0-.3-.28.05-.75.05-2.25V33c0-1.5-.05-2.1-.05-2.27s0-.28.3-.28.8.05,2.75.05H136c1.92,0,2.6-.05,2.75-.05s.27,0,.27.28S139,31.89,139,34Zm-7.12-11.9v1.48h4.55V32.36Zm4.55,4.9v-1.7h-4.55v1.7Z" style="fill:#ed6c00"/><path d="M149.57,34c.22.1.4.28.4.45a2.32,2.32,0,0,1-.2.7,11.18,11.18,0,0,0-.23,2.45,31.48,31.48,0,0,0,.45,5.7c.35,2,1,3.67,2,3.67.8,0,1.43-.87,2.4-3.47a9.6,9.6,0,0,0,1.6,1.93.77.77,0,0,1,.18.92c-.95,2.55-2.5,3.9-4.25,3.9-1.95,0-4-2.3-4.68-6.52a45.4,45.4,0,0,1-.59-7.28,13.36,13.36,0,0,0-.31-3.27A11,11,0,0,1,149.57,34Zm11.6,1.58a.75.75,0,0,1,.27-.1.39.39,0,0,1,.28.15,16.56,16.56,0,0,1,4.9,8.55c.07.32-.08.42-.28.55a8.79,8.79,0,0,1-2,1c-.3.1-.47,0-.52-.28a16.86,16.86,0,0,0-4.68-8.72C160.14,36.14,160.77,35.79,161.17,35.59Z" style="fill:#ed6c00"/><path d="M178.34,37.86a30.65,30.65,0,0,1-4.62,3,1.85,1.85,0,0,1-.57.25c-.18,0-.28-.17-.48-.62a5.9,5.9,0,0,0-1.17-1.68,22.23,22.23,0,0,0,9.62-7.65,7.77,7.77,0,0,0,1-1.77c1,.15,1.9.3,2.63.47.3.1.45.18.45.4a.43.43,0,0,1-.25.38.67.67,0,0,0-.2.17,22.56,22.56,0,0,0,10.67,7.63,6.46,6.46,0,0,0-1,1.9c-.15.47-.25.65-.45.65a1.53,1.53,0,0,1-.6-.23,26.88,26.88,0,0,1-4.87-2.8v1.75c0,.25,0,.28-.28.28s-.82,0-2.82,0h-3.88c-2,0-2.65,0-2.82,0s-.28,0-.28-.28ZM176,52.43c-.25,0-.28,0-.28-.27s.05-.83.05-4.45V45.56c0-2.15-.05-2.87-.05-3s0-.28.28-.28,1,.05,3.42.05h8c2.4,0,3.28-.05,3.43-.05s.3,0,.3.28-.05.87-.05,2.65v2.44c0,3.6.05,4.28.05,4.4s0,.28-.3.28h-2.13c-.25,0-.27,0-.27-.28v-.82h-10v.95c0,.25,0,.27-.3.27Zm2.42-3.5h10V44.59h-10Zm6.93-11.37c1.47,0,2.22,0,2.57,0a22.72,22.72,0,0,1-4.6-4.75,24.54,24.54,0,0,1-4.55,4.72c.3,0,1,.05,2.7.05Z" style="fill:#ed6c00"/><path d="M208.09,39.31a11.12,11.12,0,0,1,7.18-2.92c3.77,0,6.22,2.57,6.22,6.35s-2.35,6.49-6.65,8a.88.88,0,0,1-.42.1.8.8,0,0,1-.65-.35,7.58,7.58,0,0,0-2-1.65,11.59,11.59,0,0,0,5-2.47,4.81,4.81,0,0,0,1.7-3.77c0-2.35-1.33-3.88-3.73-3.88s-4.25,1.1-6.7,3.2c0,3.2.1,6.22.15,9.6a.28.28,0,0,1-.32.3c-.28,0-1.4.1-2.23.1-.22,0-.3-.1-.27-.35,0-2.55.07-5.17.12-7.72-1.2,1.8-2.45,3.62-3.37,4.94-.13.15-.23.25-.35.25a.43.43,0,0,1-.28-.15A19.55,19.55,0,0,1,200,47.44a.36.36,0,0,1-.15-.28.43.43,0,0,1,.15-.3c2.2-2.67,3.62-4.45,5.5-7,0-.63,0-1.3,0-1.78-.72.23-1.9.58-2.85.93-.42.17-.67.42-.82.42s-.35-.15-.5-.45a19.82,19.82,0,0,1-1-2.2,12.27,12.27,0,0,0,1.7-.25c.65-.15,1.62-.37,3.55-.9,0-1.07,0-2.17,0-3.25a9,9,0,0,0-.25-2.17,20,20,0,0,1,2.9.42c.52.15.62.43.45.88a4,4,0,0,0-.25,1.07c0,.6-.08,1.18-.13,2.25l.2-.07a.41.41,0,0,1,.18-.05c.17,0,.45.25.67.57s.4.6.4.78-.05.27-.42.7-.73.92-1.33,1.8Z" style="fill:#ed6c00"/><path d="M233,35.09a10,10,0,0,0-.35-2.65,21.85,21.85,0,0,1,3,.42.63.63,0,0,1,.53.53,1.46,1.46,0,0,1-.15.52,3.26,3.26,0,0,0-.25,1.1c0,.6,0,1.55-.05,2.4,1.72-.22,4.37-.5,6.17-.7,0-1.25,0-2.6,0-3.52a11.09,11.09,0,0,0-.33-2.85,17.05,17.05,0,0,1,3,.5c.34.1.47.22.47.47a1.18,1.18,0,0,1-.15.5,4.31,4.31,0,0,0-.25,1.13c-.05,1.35-.07,2.32-.1,3.5,2-.15,3.52-.23,4.87-.28.2,0,.3,0,.3.25a17.53,17.53,0,0,1,0,2.05c0,.33,0,.35-.32.35-1.65,0-3.33.08-5,.2a37.35,37.35,0,0,1-.29,3.85,2.92,2.92,0,0,1-3.28,2.78,10.59,10.59,0,0,1-1.55-.08c-.4,0-.5-.2-.5-.65a6.09,6.09,0,0,0-.55-2.25,7.71,7.71,0,0,0,2.13.3c.67,0,1.05-.2,1.17-1.07s.15-1.68.18-2.65c-2,.15-4.18.4-6.1.7,0,2.72,0,4.22.05,5.65.15,2,.7,2.44,3.75,2.44a45.61,45.61,0,0,0,6.47-.5c.37,0,.45,0,.5.33a15.26,15.26,0,0,1,.15,2.1c0,.3-.1.42-.33.45a58.59,58.59,0,0,1-6.27.37c-5.05,0-6.52-1.05-6.82-4.32C233,45.11,233,43,233,40.36c-1.27.18-2.07.33-3,.53a6.58,6.58,0,0,0-1.13.37c-.32.15-.5.05-.65-.27a10.09,10.09,0,0,1-.7-2.5,24,24,0,0,0,2.68-.25c.7-.1,1.9-.33,2.82-.48Z" style="fill:#ed6c00"/><path d="M73.51,32.53H49.86a.22.22,0,0,0-.15.38L61.54,44a.22.22,0,0,0,.3,0L73.66,32.91A.22.22,0,0,0,73.51,32.53Z" style="fill:#3b241a"/><path d="M61.56,48.44l-12-11.21a.19.19,0,0,0-.32.13V48.64a2.88,2.88,0,0,0,2.88,2.88H71a3.06,3.06,0,0,0,3-3.06V37.35a.18.18,0,0,0-.31-.13L61.82,48.44A.19.19,0,0,1,61.56,48.44Z" style="fill:#3b241a"/><path d="M304.68,88.26H0V0H304.68ZM2,86.26H302.68V2H2Z" style="fill:#ccc"/></g></g></svg>