<?xml version="1.0" encoding="UTF-8"?>
<svg id="uuid-aff7f189-c39f-4b64-815d-95a7885ee5f2" xmlns="http://www.w3.org/2000/svg" viewBox="0 0 365.08 73">
  <defs>
    <style>
      .cls-1, .cls-2 {
        fill: #f4891e;
      }

      .cls-3 {
        fill: #3b241a;
      }

      .cls-2 {
        font-family: HiraKakuStdN-W8-83pv-RKSJ-H, 'Hiragino Kaku Gothic StdN';
        font-size: 37.95px;
        isolation: isolate;
        letter-spacing: .03em;
      }
    </style>
  </defs>
  <g id="uuid-a5846e07-f486-4165-a47f-1096183457e2">
    <path class="cls-1" d="m67.66,52.3c-2.8,3.3-3.8,6.2-3.8,10s1,6.8,3.8,10l-.6.5c-3.2-3.1-4.6-6.3-4.6-10.6s1.4-7.4,4.6-10.6l.6.7h0Z"/>
    <path class="cls-1" d="m94.76,64.3q0,.2-.2.2h-8.9v7.5q0,.2-.2.2h-1.1q-.2,0-.2-.2v-7.5h-8.7q-.2,0-.2-.2v-1q0-.2.2-.2h8.7v-7.9h-7.7q-.2,0-.2-.2v-1q0-.2.2-.2h17.2q.2,0,.2.2v1q0,.2-.2.2h-8v7.9h8.9q.2,0,.2.2v1h0Zm-16.1-7.9q.2-.1.3,0c1,1.5,1.9,3,2.6,4.8,0,.1,0,.2-.2.3l-.7.3q-.3.1-.4-.1c-.6-1.7-1.3-3.1-2.4-4.7-.1-.1-.1-.2.2-.3l.6-.3h0Zm13.5.8c-.1.1-.2.3-.4.6-.7,1.3-1.4,2.6-2.5,3.9-.1.3-.2.4-.2.4-.1,0-.2-.1-.3-.2-.3-.2-.5-.3-.8-.4,1.1-1.4,2-2.8,2.7-4.2.1-.3.3-.7.3-1.1.4.2,1,.4,1.3.5.1.1.2.1.2.2-.1.2-.2.2-.3.3h0Z"/>
    <path class="cls-1" d="m113.26,63.8v7.4q0,.2-.2.2h-1q-.2,0-.2-.2v-1.3h-10.2v1.4q0,.2-.2.2h-1q-.2,0-.2-.2v-17.1q0-.2.2-.2h12.8q.2,0,.2.2v9.6h-.2Zm-1.3-8.5h-10.2v5.9h10.2v-5.9Zm0,7.1h-10.2v6.3h10.2v-6.3Z"/>
    <path class="cls-1" d="m138.36,70.8q0,.2-.2.2h-19.2q-.2,0-.2-.2v-1q0-.2.2-.2h8.6v-8.2h-6.8q-.2,0-.2-.2v-1q0-.2.2-.2h6.9v-4.2c0-1.5,0-2.2-.2-3,.6,0,1.1.1,1.6.1.2,0,.3.1.3.2s0,.2-.1.4-.1.7-.1,2.3v4.2h7.3q.2,0,.2.2v1q0,.2-.2.2h-7.4v8.2h9.2q.2,0,.2.2v1h-.1Z"/>
    <path class="cls-1" d="m156.96,63.8v7.4q0,.2-.2.2h-1q-.2,0-.2-.2v-1.3h-10.2v1.4q0,.2-.2.2h-1.2q-.2,0-.2-.2v-17.1q0-.2.2-.2h12.8q.2,0,.2.2v9.6h0Zm-1.5-8.5h-10.2v5.9h10.2v-5.9Zm0,7.1h-10.2v6.3h10.2v-6.3Z"/>
    <path class="cls-1" d="m170.16,67.5c.4,1,1.1,1.5,2,1.5,2.2,0,3.4-1.7,3.6-6.6-.8,1.5-2,2.2-3.6,2.2-2.4,0-4.3-2-4.3-5,0-3.3,1.9-5.4,4.6-5.4,3,0,5,2.3,5,7.4,0,6.3-1.9,8.9-5.3,8.9-1.8,0-3.2-.7-3.9-2.1l1.9-.9h0Zm2.4-11.8c-1.7,0-2.8,1.5-2.8,3.9,0,2.2,1.1,3.5,2.7,3.5,1.3,0,2.4-.7,3.2-2.3-.1-3.3-1.1-5.1-3.1-5.1h0Z"/>
    <path class="cls-1" d="m183.26,61.5h-2.5v-2.4h2.5v2.4Zm0,8.7h-2.5v-2.4h2.5v2.4Z"/>
    <path class="cls-1" d="m196.26,62.3c0,5.7-1.7,8.2-4.9,8.2s-4.8-2.4-4.8-8.2,1.8-8.1,4.9-8.1c3.1,0,4.8,2.3,4.8,8.1h0Zm-7.9,0c0,4.9,1,6.7,3,6.7s3-1.8,3-6.7-.9-6.6-3-6.6c-1.9,0-3,1.7-3,6.6h0Z"/>
    <path class="cls-1" d="m208.56,62.3c0,5.7-1.7,8.2-4.9,8.2s-4.8-2.4-4.8-8.2,1.8-8.1,4.9-8.1c3.1,0,4.8,2.3,4.8,8.1h0Zm-7.8,0c0,4.9,1,6.7,3,6.7s3-1.8,3-6.7-.9-6.6-3-6.6c-1.9,0-3.1,1.7-3,6.6h0Z"/>
    <path class="cls-1" d="m223.86,63.1c-1,1.9-2,2.6-3.3,2.6-.8,0-1.5-.2-3.2-.9-1.4-.7-2-.9-2.7-.9-.8,0-1.6.6-2.4,1.7l-.8-.4c.8-1.8,1.9-2.6,3.3-2.6.6,0,1.5.2,3,.9,1.5.7,2.3.9,2.9.9,1,0,1.8-.6,2.6-1.7l.6.4h0Z"/>
    <path class="cls-1" d="m232.86,68.8h3v1.5h-8v-1.5h3.2v-12.6c-.8.6-1.9,1.1-3.2,1.6l-.3-1.6c1.3-.4,2.7-1.1,3.8-1.9h1.5v14.5h0Z"/>
    <path class="cls-1" d="m241.36,67.5c.4,1,1.1,1.5,2,1.5,2.2,0,3.4-1.7,3.6-6.6-.8,1.5-2,2.2-3.6,2.2-2.4,0-4.3-2-4.3-5,0-3.3,1.9-5.4,4.6-5.4,3,0,5,2.3,5,7.4,0,6.3-1.9,8.9-5.3,8.9-1.8,0-3.2-.7-3.9-2.1l1.9-.9h0Zm2.5-11.8c-1.7,0-2.8,1.5-2.8,3.9,0,2.2,1.1,3.5,2.7,3.5,1.3,0,2.4-.7,3.2-2.3-.2-3.3-1.2-5.1-3.1-5.1h0Z"/>
    <path class="cls-1" d="m254.56,61.5h-2.5v-2.4h2.5v2.4Zm0,8.7h-2.5v-2.4h2.5v2.4Z"/>
    <path class="cls-1" d="m267.46,62.3c0,5.7-1.7,8.2-4.9,8.2s-4.8-2.4-4.8-8.2,1.8-8.1,4.9-8.1,4.8,2.3,4.8,8.1Zm-7.9,0c0,4.9,1,6.7,3,6.7s3-1.8,3-6.7-.9-6.6-3-6.6c-1.8,0-3,1.7-3,6.6Z"/>
    <path class="cls-1" d="m279.76,62.3c0,5.7-1.7,8.2-4.9,8.2s-4.8-2.4-4.8-8.2,1.8-8.1,4.9-8.1,4.8,2.3,4.8,8.1Zm-7.8,0c0,4.9,1,6.7,3,6.7s3-1.8,3-6.7-.9-6.6-3-6.6c-1.9,0-3,1.7-3,6.6Z"/>
    <path class="cls-1" d="m282.46,51.8c3.2,3.1,4.6,6.3,4.6,10.6s-1.4,7.4-4.6,10.6l-.6-.5c2.8-3.3,3.8-6.2,3.8-10s-1-6.8-3.8-10l.6-.7h0Z"/>
    <path class="cls-3" d="m32.76,3.4l-3.7-1.1c-1.1-.3-2.3.2-2.8,1.2l-1.7,3.9c-.4.8,0,1.8.8,2.1l3.9,1.6c.4.3.5.7.3,1.1-1,3.9-2.9,7.8-5.2,11.6-.2.4-.6.6-1,.5l-2.9-1.2c-1.4-.6-3,0-3.6,1.3l-1.4,3.1c-.4.9-.1,2,.8,2.5l3.4,1.9c.6.4,1.2.6,1.9.7h0c3,.5,5.9-1,7.2-3.7,3.3-5.9,5.9-11.6,7.7-16.8,1.2-2.8.4-6.1-2-8h0c-.7-.3-1.2-.5-1.7-.7h0Z"/>
    <path class="cls-3" d="m.76,19.8C-1.94,11.5,2.76,2.7,11.16,0l1,3.2C5.46,5.3,1.76,12.3,3.96,18.8l-3.2,1Z"/>
    <path class="cls-3" d="m6.36,18.1c-.8-2.6-.6-5.3.6-7.7s3.4-4.2,6-5l1,3.2c-3.6,1.1-5.6,4.9-4.4,8.5l-3.2,1h0Z"/>
    <path class="cls-3" d="m11.56,16.4c-.4-1.2-.3-2.4.3-3.5s1.5-1.9,2.8-2.3l1,3.2c-.3.1-.6.3-.8.7-.2.3-.2.7-.1,1l-3.2.9h0Z"/>
    <path class="cls-3" d="m6.36,18.1c-.8-2.6-.6-5.3.6-7.7s3.4-4.2,6-5l1,3.2c-3.6,1.1-5.6,4.9-4.4,8.5l-3.2,1h0Z"/>
    <text class="cls-2" transform="translate(61.38 35.46) scale(.87 .99) skewX(-10)"><tspan x="0" y="0">03-5946-9417</tspan></text>
  </g>
</svg>
