<?xml version="1.0" encoding="utf-8"?>
<!-- Generator: Adobe Illustrator 25.2.3, SVG Export Plug-In . SVG Version: 6.00 Build 0)  -->
<svg version="1.1" id="レイヤー_1" xmlns="http://www.w3.org/2000/svg" xmlns:xlink="http://www.w3.org/1999/xlink" x="0px"
	 y="0px" viewBox="0 0 336.5 72.9" style="enable-background:new 0 0 336.5 72.9;" xml:space="preserve">
<style type="text/css">
	.st0{fill:#F4891E;}
	.st1{fill:#3B241A;}
</style>
<path class="st0" d="M83.3,12.7c0,9.5-4.6,21-14.2,21c-6.3,0-8.8-4.8-8.8-10.9c0-9.6,4.9-20.5,14.2-20.5
	C81.1,2.3,83.3,7.3,83.3,12.7z M67,23c0,2.3,0.3,5.4,3,5.4c4.6,0,6.7-11.6,6.7-15.6c0-2-0.3-5.1-2.9-5.1C69.3,7.6,67,18.5,67,23z"/>
<path class="st0" d="M86.2,26.3c2.1,1.1,4.3,1.7,6.7,1.7c3.8,0,6-1.9,6-4.3c0-2.7-2.2-4-6.2-4h-1.2l1-5.1h1.1c3.2,0,6.7-1.3,6.7-4
	c0-1.5-1.1-2.6-3.7-2.6c-2.2,0-4.3,0.5-6.3,1.5l-0.9-5C92,3,94.9,2.3,97.9,2.3c5.1,0,9.5,2.3,9.5,7.1c0,3.8-3,6.5-6.8,7.5V17
	c3.2,0.6,5.4,3.4,5.3,6.7c0,6.4-6.5,10-13.1,10c-3.9,0-7.2-0.9-8.6-2.1L86.2,26.3z"/>
<path class="st0" d="M123.2,18.5l-0.9,4.7h-12.1l0.9-4.7H123.2z"/>
<path class="st0" d="M147.8,8.6H137l-1.4,4.7c0.4-0.1,0.9-0.1,1.3-0.1c2.2-0.1,4.5,0.6,6.3,1.8c2.2,1.5,3.4,4.1,3.3,6.8
	c0,7.6-6.4,11.9-14,11.9c-3.6,0-6.7-0.8-7.9-1.8l1.7-5.3c1.9,1,4,1.5,6.2,1.5c3.3,0,6.9-1.8,6.9-5.1c0-2.7-1.7-4.6-7.5-4.6
	c-1.5,0-2.5,0.1-3.8,0.2l4.4-15.7h16.3L147.8,8.6z"/>
<path class="st0" d="M172.2,7.9c-0.9,0-1.7,0-2.6,0.1c-5.5,0.5-9.2,3.5-10.7,7.1l0.1,0.1c1.7-1.5,3.9-2.4,6.2-2.3
	c4.4,0,7.7,3.4,7.7,8.5c0.1,6.7-5.2,12.3-12,12.4c-0.1,0-0.1,0-0.2,0c-6.8,0-10.1-4.7-10.1-10.6c0-6.3,2.7-12.2,7.5-16.2
	c3.6-2.7,7.9-4.3,12.4-4.4c0.8-0.1,1.7-0.1,2.5,0L172.2,7.9z M166.1,22c0-2.7-1.5-4.2-3.8-4.2c-1.8,0.1-3.5,1.2-4.3,2.8
	c-0.3,0.5-0.5,1-0.5,1.5c-0.1,0.5-0.1,1.1-0.1,1.6c0,2.6,1.4,4.7,3.7,4.7C164.3,28.5,166.1,24.9,166.1,22z"/>
<path class="st0" d="M176.9,26.3c2.1,1.1,4.3,1.7,6.7,1.7c3.8,0,6-1.9,6-4.3c0-2.7-2.2-4-6.2-4h-1.2l1-5.1h1.1c3.1,0,6.7-1.3,6.7-4
	c0-1.5-1.1-2.6-3.7-2.6c-2.2,0-4.3,0.5-6.3,1.5l-0.9-5c2.6-1.4,5.5-2.1,8.5-2.1c5.1,0,9.5,2.3,9.5,7.1c0,3.8-3,6.5-6.8,7.5V17
	c3.2,0.6,5.4,3.4,5.3,6.7c0,6.4-6.5,10-13.1,10c-3.9,0-7.2-0.9-8.6-2.1L176.9,26.3z"/>
<path class="st0" d="M199.6,33.2l0.8-4.3l6.6-5.1c6-5,9.9-8.5,9.9-12.2c0-2.1-1.5-3.7-4.2-3.7c-2.3,0-4.5,0.6-6.4,1.8L205,4.9
	c2.9-1.7,6.1-2.6,9.4-2.6c6.1,0,9.5,3.6,9.5,8.3c0,6.2-5,10.5-10.3,14.6l-3,2.2v0.1h10.9l-1.1,5.7H199.6z"/>
<path class="st0" d="M239.1,18.5l-0.9,4.7h-12.1l0.9-4.7H239.1z"/>
<path class="st0" d="M262.9,7.9c-0.9,0-1.7,0-2.5,0.1c-5.5,0.5-9.2,3.5-10.7,7.1l0.1,0.1c1.7-1.5,3.9-2.4,6.2-2.3
	c4.5,0,7.7,3.4,7.7,8.5c0.1,6.7-5.2,12.3-12,12.4c-0.1,0-0.1,0-0.2,0c-6.8,0-10.1-4.7-10.1-10.6c0-6.3,2.7-12.2,7.5-16.2
	c3.6-2.7,7.9-4.3,12.4-4.4c0.8-0.1,1.7-0.1,2.5,0L262.9,7.9z M256.8,22c0-2.7-1.5-4.2-3.8-4.2c-1.9,0.1-3.5,1.2-4.4,2.8
	c-0.3,0.5-0.4,1-0.5,1.5c-0.1,0.5-0.1,1.1-0.1,1.6c0,2.6,1.4,4.7,3.7,4.7C255.1,28.5,256.8,24.9,256.8,22z"/>
<path class="st0" d="M290.1,12.7c0,9.5-4.6,21-14.2,21c-6.3,0-8.8-4.8-8.8-10.9c0-9.6,4.9-20.5,14.2-20.5
	C287.8,2.3,290.1,7.3,290.1,12.7z M273.7,23c0,2.3,0.4,5.4,3,5.4c4.6,0,6.7-11.6,6.7-15.6c0-2-0.3-5.1-2.9-5.1
	C276.1,7.6,273.7,18.5,273.7,23z"/>
<path class="st0" d="M303.6,9.1h-0.1l-6,2.6l-0.2-5.3l8.4-3.7h5.5l-5.7,30.4H299L303.6,9.1z"/>
<path class="st0" d="M328.8,9.1L328.8,9.1l-6.1,2.6l-0.2-5.3l8.5-3.7h5.5l-5.7,30.4h-6.5L328.8,9.1z"/>
<path class="st1" d="M32,3.4l-3.6-1.1c-1.1-0.3-2.2,0.2-2.7,1.2L24,7.4c-0.4,0.8,0,1.8,0.8,2.1c0,0,0,0,0,0l3.8,1.6
	c0.4,0.2,0.5,0.7,0.4,1.1c-1.1,4.1-2.8,8-5.1,11.6c-0.2,0.4-0.6,0.6-1,0.5L20,23.1c-1.3-0.6-2.9,0-3.5,1.3c0,0,0,0,0,0l-1.4,3.1
	c-0.4,0.9,0,2,0.8,2.5l3.3,2c0.6,0.3,1.2,0.6,1.9,0.7l0,0c2.9,0.5,5.8-1,7-3.7c3-5.4,5.5-11,7.5-16.9c1.3-2.8,0.4-6.1-2-8l0,0
	C33,3.8,32.5,3.6,32,3.4z"/>
<path class="st1" d="M0.8,19.8C-1.9,11.5,2.7,2.7,10.9,0l1,3.2c-6.5,2.1-10.1,9.1-8,15.6L0.8,19.8z"/>
<path class="st1" d="M6.2,18.1C4.4,12.8,7.3,7.2,12.5,5.4c0,0,0.1,0,0.1,0l1,3.2c-3.5,1.1-5.5,4.9-4.4,8.5L6.2,18.1z"/>
<path class="st1" d="M11.3,16.4c-0.8-2.4,0.6-5.1,3-5.9l1,3.2c-0.7,0.2-1.1,1-0.9,1.6L11.3,16.4z"/>
<path class="st1" d="M6.2,18.1C4.4,12.8,7.3,7.2,12.5,5.4c0,0,0.1,0,0.1,0l1,3.2c-3.5,1.1-5.5,4.9-4.4,8.5L6.2,18.1z"/>
<g>
	<path class="st0" d="M66.6,53.7c-1.6,1.4-2.7,2.8-3.4,4.3c-0.5,1.2-0.8,2.6-0.8,4.2c0,1.8,0.3,3.4,1,4.8c0.7,1.3,1.7,2.6,3.1,3.8
		l-0.5,0.5c-1.9-1.4-3.2-2.9-3.9-4.5c-0.7-1.3-1-2.9-1-4.6c0-2,0.4-3.7,1.3-5.2c0.8-1.4,2-2.7,3.6-3.9L66.6,53.7z"/>
	<path class="st0" d="M75.3,63.9c-0.2,0.2-0.4,0.4-0.6,0.7c-0.1,0.1-0.1,0.2-0.2,0.2c0,0-0.1,0-0.2-0.1c-0.8-0.7-1.5-1.4-1.9-2.1
		v5.7l0,2.5c0,0.1,0,0.2-0.1,0.2h-0.9c-0.1,0-0.1-0.1-0.1-0.2l0-2.5v-5c-0.7,0.7-1.4,1.4-2.3,2.1c-0.1,0.1-0.2,0.1-0.3,0.1
		c-0.1,0-0.1-0.1-0.2-0.2c-0.1-0.3-0.3-0.6-0.4-0.8c2.3-1.5,4.1-3.6,5.4-6.4h-2.6l-1.9,0c-0.1,0-0.2,0-0.2-0.1v-0.8
		c0-0.1,0.1-0.2,0.2-0.2l1.9,0h0.5V56c0-1,0-1.7-0.1-2.1c0.5,0,0.9,0.1,1.2,0.1c0.2,0,0.2,0.1,0.2,0.1c0,0.1,0,0.2-0.1,0.4
		c-0.1,0.2-0.1,0.6-0.1,1.4v1.1h1.2c0.2,0,0.3,0,0.4-0.1c0,0,0.1,0,0.2,0c0.1,0,0.3,0.1,0.5,0.3c0.2,0.2,0.3,0.3,0.3,0.4
		c0,0.1-0.1,0.2-0.2,0.3c-0.1,0.1-0.3,0.3-0.4,0.5c-0.5,1.1-1.1,2.1-1.7,3C73.3,62.4,74.2,63.2,75.3,63.9z M85.5,67.5
		c0,0.7-0.1,1.3-0.2,1.6c-0.1,0.2-0.2,0.5-0.4,0.6c-0.3,0.3-1,0.4-1.9,0.4c-1,0-1.6-0.1-1.8-0.3c-0.3-0.2-0.5-0.7-0.5-1.5v-6.4h-1.8
		c0,2.4-0.4,4.2-1,5.5c-0.6,1.1-1.7,2.1-3.2,2.9c-0.1,0.1-0.2,0.1-0.3,0.1c-0.1,0-0.1-0.1-0.3-0.2c-0.2-0.2-0.4-0.4-0.7-0.6
		c1.7-0.7,2.9-1.7,3.5-2.9c0.5-1.1,0.8-2.6,0.8-4.7c-0.5,0-1,0-1.4,0c0,0-0.1,0-0.3,0c-0.1,0-0.1,0-0.1,0c-0.1,0-0.1,0-0.1-0.1
		l0-1.8v-2.9l0-1.8c0-0.1,0-0.1,0.1-0.1l2.3,0h3.4l2.3,0c0.1,0,0.1,0,0.1,0.1l0,1.8v2.9l0,1.8c0,0.1,0,0.1-0.1,0.1l-2.2,0v6.1
		c0,0.5,0.1,0.8,0.2,0.8c0.1,0.1,0.5,0.2,1,0.2c0.7,0,1.1-0.1,1.2-0.3c0.2-0.3,0.3-1,0.3-2.2c0.3,0.2,0.5,0.3,0.7,0.4
		c0.2,0.1,0.3,0.2,0.3,0.3C85.5,67.4,85.5,67.5,85.5,67.5z M82.9,61.1v-4.8h-6v4.8H82.9z"/>
	<path class="st0" d="M100.7,70c0,0.1,0,0.1-0.1,0.1h-0.9c-0.1,0-0.1,0-0.1-0.1v-1.1h-8.7V70c0,0.1,0,0.1-0.1,0.1h-0.9
		c-0.1,0-0.1,0-0.1-0.1l0-6.4V60l0-4.7c0-0.1,0-0.2,0.1-0.2l2.6,0h5.6l2.6,0c0.1,0,0.1,0.1,0.1,0.2l0,4.2v4.1L100.7,70z M99.5,61.3
		v-5.1h-8.7v5.1H99.5z M99.5,67.8v-5.4h-8.7v5.4H99.5z"/>
	<path class="st0" d="M111.7,54.3c0.6,0.1,1,0.2,1.4,0.4c0.1,0,0.1,0.1,0.1,0.2c0,0.1,0,0.1-0.1,0.2c-0.1,0.1-0.2,0.3-0.3,0.5
		c-0.1,0.3-0.4,0.8-0.6,1.4c1.4-0.1,2.7-0.3,4-0.6c0.1,0,0.1,0,0.1,0c0,0,0.1,0,0.1,0.1c0.1,0.5,0.1,0.8,0.1,0.8
		c0,0.1-0.1,0.2-0.2,0.2c-1.4,0.2-2.9,0.4-4.6,0.6c-0.6,1.1-1.3,2.1-1.9,2.8l0,0c0.8-0.5,1.5-0.8,2.3-0.8c1.4,0,2.2,0.7,2.4,2.2
		c1.2-0.5,2.1-1,2.9-1.3c0.6-0.3,1.1-0.6,1.4-1c0.4,0.4,0.7,0.7,0.9,1.1c0,0.1,0.1,0.1,0.1,0.2c0,0.1-0.1,0.2-0.2,0.2
		c-0.3,0-0.6,0.2-1,0.3c-0.5,0.2-1.2,0.5-2.1,0.9c-0.8,0.3-1.4,0.6-1.8,0.8v3.1c0,0.1-0.1,0.2-0.2,0.2c-0.3,0-0.5,0.1-0.8,0.1
		c-0.1,0-0.2-0.1-0.2-0.2c0-1.2,0-2.1,0-2.7c-2.1,1-3.1,2.1-3.1,3.1c0,0.6,0.3,1,0.9,1.2c0.5,0.2,1.3,0.3,2.3,0.3
		c1.1,0,2.6-0.1,4.5-0.4c0,0,0,0,0.1,0c0.1,0,0.1,0,0.2,0.1c0.1,0.4,0.1,0.7,0.1,0.9c0,0.1,0,0.2-0.1,0.3c-1.4,0.2-2.9,0.3-4.6,0.3
		c-2.9,0-4.3-0.9-4.3-2.7c0-0.9,0.3-1.6,1-2.3c0.6-0.7,1.7-1.3,3.1-2c0-0.7-0.2-1.2-0.4-1.4c-0.2-0.2-0.6-0.3-1.1-0.3
		c-0.9,0-1.9,0.5-3.1,1.5c-0.4,0.4-1,1-1.8,1.8c-0.1,0.1-0.1,0.1-0.2,0.1c0,0-0.1,0-0.1-0.1c-0.2-0.2-0.5-0.5-0.7-0.7
		c0-0.1,0-0.1,0-0.1c0,0,0-0.1,0.1-0.1c1.8-1.6,3.3-3.3,4.3-5.2c-0.6,0-1.3,0.1-2,0.1c-0.5,0-0.9,0-1.5,0c-0.1,0-0.2-0.1-0.2-0.2
		c-0.1-0.3-0.1-0.7-0.1-0.9c0.7,0,1.3,0,2,0c0.8,0,1.6,0,2.4-0.1c0.3-0.9,0.6-1.5,0.7-1.9c0.1-0.3,0.2-0.6,0.2-0.9
		C111.7,54.4,111.7,54.4,111.7,54.3z"/>
	<path class="st0" d="M128.4,55.3c0,0.1,0,0.2-0.1,0.2c-0.1,0.1-0.2,0.3-0.3,0.6c-0.6,1.5-1.2,2.8-1.8,3.9c0.8,1,1.4,1.8,1.6,2.5
		c0.2,0.5,0.3,1.1,0.3,1.7c0,1.6-0.8,2.4-2.5,2.5c-0.2,0-0.3,0-0.3-0.1c0,0-0.1-0.1-0.1-0.3c-0.1-0.3-0.1-0.5-0.3-0.7
		c0.1,0,0.2,0,0.4,0c1.2,0,1.8-0.5,1.8-1.5c0-0.6-0.2-1.2-0.5-1.8c-0.3-0.6-0.8-1.3-1.5-2.3c0.8-1.5,1.4-3.1,2-4.6h-2.6v11.1l0,3.9
		c0,0.1,0,0.1-0.1,0.1h-0.9c-0.1,0-0.1,0-0.1-0.1l0-3.8v-8.1l0-3.9c0-0.1,0-0.1,0.1-0.1l1.4,0h2.2c0.2,0,0.4,0,0.4-0.1
		c0.1,0,0.2,0,0.2,0c0.1,0,0.3,0.1,0.5,0.3C128.3,55.1,128.4,55.3,128.4,55.3z M131,65.9c0,0.1-0.1,0.1-0.2,0.2c0,0-0.1,0.1-0.2,0.3
		c-0.1,0.2-0.1,0.2-0.2,0.3c-0.6,1.1-1.4,2-2.1,2.7c-0.1,0.2-0.2,0.2-0.3,0.2c0,0-0.1-0.1-0.3-0.2c-0.2-0.2-0.4-0.3-0.6-0.4
		c0.9-0.8,1.6-1.6,2.2-2.6c0.2-0.4,0.4-0.8,0.5-1.2c0.3,0.1,0.6,0.2,0.9,0.4C131,65.7,131,65.8,131,65.9z M139.4,59.8
		c-0.2,0.1-0.4,0.4-0.5,0.7c-0.1,0.2-0.2,0.3-0.2,0.3c-0.1,0-0.2,0-0.3-0.1c-2.1-1.4-3.8-3.1-5-4.9c-1.3,1.9-2.9,3.6-5,5.1
		c-0.2,0.1-0.2,0.1-0.3,0.1c-0.1,0-0.1-0.1-0.2-0.2c-0.2-0.2-0.4-0.4-0.6-0.6c2.2-1.3,3.9-3,5.2-4.9c0.2-0.3,0.4-0.7,0.5-1.1
		c0.4,0.1,0.7,0.1,1,0.2c0.2,0.1,0.3,0.1,0.3,0.2c0,0.1,0,0.1-0.1,0.2c-0.1,0-0.1,0.1-0.1,0.1C135.2,56.9,137,58.5,139.4,59.8z
		 M138.8,63.9c0,0.1-0.1,0.1-0.2,0.1l-2.5,0h-2.3v2.5l0,2.4c0,0.7-0.2,1.1-0.5,1.4c-0.3,0.2-1,0.3-2.1,0.3c-0.1,0-0.1,0-0.2,0
		c-0.1,0-0.2,0-0.2-0.1c0,0-0.1-0.1-0.1-0.3c-0.1-0.3-0.2-0.5-0.4-0.8c0.4,0,0.9,0.1,1.4,0.1c0.4,0,0.6-0.1,0.7-0.2
		c0.1-0.1,0.1-0.3,0.1-0.5V64h-1.4l-2.5,0c-0.1,0-0.1,0-0.1-0.1v-0.8c0-0.1,0-0.1,0.1-0.1l2.5,0h1.4v-2.3h-0.5l-2,0
		c-0.1,0-0.2-0.1-0.2-0.2v-0.7c0-0.1,0.1-0.1,0.2-0.1l2,0h2.4l2,0c0.1,0,0.1,0,0.1,0.1v0.7c0,0.1,0,0.2-0.1,0.2l-2,0h-0.7v2.3h2.3
		l2.5,0c0.1,0,0.2,0,0.2,0.1V63.9z M139.1,68.7c-0.3,0.2-0.5,0.3-0.7,0.5c-0.1,0.1-0.2,0.2-0.3,0.2c0,0-0.1-0.1-0.2-0.2
		c-1-1.1-1.8-2.2-2.4-3.4c0,0,0-0.1,0-0.1c0-0.1,0.1-0.1,0.2-0.2l0.5-0.2c0.1,0,0.1,0,0.1,0c0,0,0.1,0,0.1,0.1
		C137.1,66.6,138,67.7,139.1,68.7z"/>
	<path class="st0" d="M149.5,54.6c0.6,0.4,1,0.7,1.2,0.9c0.1,0.1,0.1,0.2,0.1,0.2c0,0.1-0.1,0.2-0.2,0.2c-0.2,0.1-0.4,0.2-0.7,0.5
		c-2.6,2.4-4.4,4.2-5.5,5.3c-0.2,0.2-0.3,0.3-0.3,0.5c0,0.1,0.1,0.2,0.2,0.3c2.8,2.1,5.2,4.2,7.2,6.2c0.1,0.1,0.1,0.1,0.1,0.2
		c0,0,0,0.1-0.1,0.2c-0.2,0.2-0.4,0.4-0.7,0.7c-0.1,0.1-0.1,0.1-0.2,0.1c-0.1,0-0.1,0-0.2-0.1c-2-2.2-4.3-4.3-7.1-6.4
		c-0.5-0.4-0.7-0.8-0.7-1.2c0-0.4,0.2-0.8,0.7-1.2c0.6-0.7,1.5-1.6,2.7-2.8c1.5-1.5,2.3-2.3,2.5-2.5C149,55.4,149.3,55,149.5,54.6z"
		/>
	<path class="st0" d="M171.6,64c0,0.1-0.1,0.1-0.2,0.1l-2.5,0h-5.1v4.5l0,2c0,0.1,0,0.1-0.1,0.1h-1c-0.1,0-0.1,0-0.1-0.1l0-2v-4.5
		h-4.9l-2.4,0c-0.1,0-0.1,0-0.1-0.1v-0.9c0-0.1,0-0.1,0.1-0.1l2.4,0h4.9v-6.9h-3.9l-2.6,0c-0.1,0-0.1,0-0.1-0.1v-0.9
		c0-0.1,0-0.1,0.1-0.1l2.6,0h9.3l2.6,0c0.1,0,0.2,0,0.2,0.1V56c0,0.1-0.1,0.1-0.2,0.1l-2.6,0h-4.2V63h5.1l2.5,0c0.1,0,0.2,0,0.2,0.1
		V64z M160.5,61.4C160.5,61.4,160.5,61.4,160.5,61.4c0,0.1,0,0.2-0.2,0.2l-0.6,0.3c-0.1,0-0.2,0.1-0.2,0.1s-0.1,0-0.1-0.1
		c-0.5-1.5-1.2-2.8-2-4.1c0,0,0-0.1,0-0.1c0,0,0.1-0.1,0.2-0.2l0.5-0.3c0.1,0,0.1-0.1,0.2-0.1c0,0,0.1,0,0.1,0.1
		C159.2,58.5,160,59.9,160.5,61.4z M169.6,57.7c0,0.1-0.1,0.1-0.2,0.2c-0.1,0.1-0.2,0.3-0.3,0.5c-0.6,1.2-1.3,2.3-2.1,3.4
		c-0.1,0.2-0.2,0.2-0.3,0.2c0,0-0.1,0-0.3-0.1c-0.2-0.1-0.4-0.3-0.7-0.3c1-1.2,1.7-2.4,2.2-3.7c0.1-0.3,0.2-0.6,0.3-0.9
		c0.4,0.2,0.8,0.3,1.1,0.5C169.6,57.5,169.6,57.6,169.6,57.7z"/>
	<path class="st0" d="M187.3,70c0,0.1,0,0.1-0.1,0.1h-0.9c-0.1,0-0.1,0-0.1-0.1v-1.1h-8.7V70c0,0.1,0,0.1-0.1,0.1h-0.9
		c-0.1,0-0.1,0-0.1-0.1l0-6.4V60l0-4.7c0-0.1,0-0.2,0.1-0.2l2.6,0h5.6l2.6,0c0.1,0,0.1,0.1,0.1,0.2l0,4.2v4.1L187.3,70z M186.1,61.3
		v-5.1h-8.7v5.1H186.1z M186.1,67.8v-5.4h-8.7v5.4H186.1z"/>
	<path class="st0" d="M208.4,69.6c0,0.1,0,0.1-0.1,0.1l-2.4,0h-11.3l-2.4,0c-0.1,0-0.1,0-0.1-0.1v-0.9c0-0.1,0-0.1,0.1-0.1l2.4,0
		h4.9v-7.1h-3.1l-2.6,0c-0.1,0-0.1,0-0.1-0.1v-0.9c0-0.1,0-0.1,0.1-0.1l2.6,0h3.1v-3.6c0-1.2,0-2.1-0.1-2.6c0.4,0,0.9,0,1.3,0.1
		c0.2,0,0.2,0.1,0.2,0.2c0,0.1,0,0.2-0.1,0.4c-0.1,0.2-0.1,0.8-0.1,2v3.7h3.6l2.6,0c0.1,0,0.1,0,0.1,0.1v0.9c0,0.1,0,0.1-0.1,0.1
		l-2.6,0h-3.6v7.1h5.2l2.4,0c0.1,0,0.1,0,0.1,0.1V69.6z"/>
	<path class="st0" d="M224.1,70c0,0.1,0,0.1-0.1,0.1h-0.9c-0.1,0-0.1,0-0.1-0.1v-1.1h-8.7V70c0,0.1,0,0.1-0.1,0.1h-0.9
		c-0.1,0-0.1,0-0.1-0.1l0-6.4V60l0-4.7c0-0.1,0-0.2,0.1-0.2l2.6,0h5.6l2.6,0c0.1,0,0.1,0.1,0.1,0.2l0,4.2v4.1L224.1,70z M222.9,61.3
		v-5.1h-8.7v5.1H222.9z M222.9,67.8v-5.4h-8.7v5.4H222.9z"/>
	<path class="st0" d="M235.9,66.8c0.4,0.9,0.9,1.3,1.7,1.3c1,0,1.8-0.5,2.2-1.5c0.5-0.9,0.7-2.3,0.8-4.3c-0.7,1.3-1.7,1.9-3,1.9
		c-1.1,0-2-0.4-2.7-1.3c-0.6-0.8-0.9-1.8-0.9-3c0-1.5,0.4-2.7,1.2-3.6c0.7-0.7,1.6-1.1,2.7-1.1c1.4,0,2.5,0.6,3.2,1.8
		c0.7,1.1,1,2.6,1,4.6c0,5.1-1.5,7.7-4.5,7.7c-1.6,0-2.7-0.6-3.2-1.9L235.9,66.8z M240.6,61c0-2.9-0.9-4.4-2.6-4.4
		c-0.8,0-1.4,0.3-1.8,1c-0.4,0.6-0.5,1.4-0.5,2.4c0,1,0.2,1.8,0.7,2.4c0.4,0.5,0.9,0.7,1.6,0.7C239,63,239.9,62.3,240.6,61z"/>
	<path class="st0" d="M247,59.5v2h-2v-2H247z M247,67.1v2h-2v-2H247z"/>
	<path class="st0" d="M253.9,55.3c1.4,0,2.5,0.6,3.2,1.9c0.6,1.1,0.9,2.8,0.9,5.1c0,4.7-1.4,7.1-4.1,7.1c-1.5,0-2.5-0.6-3.2-1.9
		c-0.6-1.2-0.9-2.9-0.9-5.2C249.7,57.6,251.1,55.3,253.9,55.3z M253.9,56.6c-0.9,0-1.6,0.5-2,1.4c-0.4,0.9-0.6,2.3-0.6,4.2
		c0,2.2,0.2,3.7,0.7,4.7c0.4,0.8,1,1.1,1.8,1.1c0.9,0,1.6-0.5,2-1.5c0.4-0.9,0.5-2.4,0.5-4.3c0-2.2-0.2-3.7-0.7-4.6
		C255.3,56.9,254.7,56.6,253.9,56.6z"/>
	<path class="st0" d="M264.3,55.3c1.4,0,2.5,0.6,3.2,1.9c0.6,1.1,0.9,2.8,0.9,5.1c0,4.7-1.4,7.1-4.1,7.1c-1.5,0-2.5-0.6-3.2-1.9
		c-0.6-1.2-0.9-2.9-0.9-5.2C260.2,57.6,261.5,55.3,264.3,55.3z M264.3,56.6c-0.9,0-1.6,0.5-2,1.4c-0.4,0.9-0.6,2.3-0.6,4.2
		c0,2.2,0.2,3.7,0.7,4.7c0.4,0.8,1,1.1,1.8,1.1c0.9,0,1.6-0.5,2-1.5c0.4-0.9,0.5-2.4,0.5-4.3c0-2.2-0.2-3.7-0.7-4.6
		C265.7,56.9,265.1,56.6,264.3,56.6z"/>
	<path class="st0" d="M280.7,62.5l0.6,0.4c-0.5,0.9-0.9,1.5-1.4,1.8c-0.4,0.3-0.9,0.4-1.4,0.4c-0.7,0-1.5-0.3-2.7-0.8
		c-1-0.5-1.8-0.8-2.3-0.8c-0.8,0-1.4,0.5-2,1.5l-0.7-0.4c0.7-1.5,1.6-2.3,2.7-2.3c0.6,0,1.4,0.2,2.5,0.8c1.2,0.5,2,0.8,2.4,0.8
		C279.3,64,280.1,63.5,280.7,62.5z"/>
	<path class="st0" d="M288.9,55.4v12.5h2.5v1.3h-6.8v-1.3h2.7V57c-0.7,0.5-1.6,1-2.7,1.4l-0.3-1.4c1.1-0.3,2.1-0.9,3.2-1.6H288.9z"
		/>
	<path class="st0" d="M299.6,61.9c1.1,0.5,1.9,1.1,2.4,1.7c0.4,0.5,0.5,1.2,0.5,2c0,1.2-0.4,2.2-1.3,2.9c-0.8,0.6-1.7,0.9-2.9,0.9
		c-1.4,0-2.4-0.4-3.2-1.1c-0.7-0.7-1-1.5-1-2.6c0-0.8,0.3-1.6,0.8-2.1c0.5-0.5,1.2-1,2.1-1.4c-1-0.5-1.6-1-2-1.6
		c-0.3-0.5-0.5-1.1-0.5-1.8c0-1,0.4-1.9,1.2-2.5c0.7-0.6,1.6-0.9,2.6-0.9c1.2,0,2.2,0.4,2.9,1.1c0.6,0.6,1,1.4,1,2.3
		c0,0.8-0.2,1.5-0.7,2C301.1,61.1,300.5,61.5,299.6,61.9z M298.1,62.7c-1,0.4-1.6,0.9-2,1.4c-0.3,0.4-0.5,0.9-0.5,1.5
		c0,0.8,0.3,1.5,0.8,1.9c0.5,0.4,1.1,0.6,1.9,0.6c0.9,0,1.6-0.3,2.1-0.8c0.4-0.4,0.6-1,0.6-1.7c0-0.7-0.2-1.2-0.6-1.6
		c-0.4-0.4-1-0.8-1.9-1.2L298.1,62.7z M298.5,61.3c0.9-0.4,1.5-0.8,1.8-1.3c0.3-0.4,0.4-0.9,0.4-1.4c0-0.7-0.3-1.2-0.8-1.6
		c-0.4-0.3-1-0.5-1.7-0.5c-0.8,0-1.4,0.2-1.8,0.7c-0.4,0.4-0.6,0.9-0.6,1.5c0,0.6,0.2,1,0.5,1.4c0.3,0.4,0.9,0.7,1.7,1.1L298.5,61.3
		z"/>
	<path class="st0" d="M307.2,59.5v2h-2v-2H307.2z M307.2,67.1v2h-2v-2H307.2z"/>
	<path class="st0" d="M314,55.3c1.4,0,2.5,0.6,3.2,1.9c0.6,1.1,0.9,2.8,0.9,5.1c0,4.7-1.4,7.1-4.1,7.1c-1.5,0-2.5-0.6-3.2-1.9
		c-0.6-1.2-0.9-2.9-0.9-5.2C309.9,57.6,311.3,55.3,314,55.3z M314,56.6c-0.9,0-1.6,0.5-2,1.4c-0.4,0.9-0.6,2.3-0.6,4.2
		c0,2.2,0.2,3.7,0.7,4.7c0.4,0.8,1,1.1,1.8,1.1c0.9,0,1.6-0.5,2-1.5c0.4-0.9,0.5-2.4,0.5-4.3c0-2.2-0.2-3.7-0.7-4.6
		C315.4,56.9,314.8,56.6,314,56.6z"/>
	<path class="st0" d="M324.5,55.3c1.4,0,2.5,0.6,3.2,1.9c0.6,1.1,0.9,2.8,0.9,5.1c0,4.7-1.4,7.1-4.1,7.1c-1.5,0-2.5-0.6-3.2-1.9
		c-0.6-1.2-0.9-2.9-0.9-5.2C320.3,57.6,321.7,55.3,324.5,55.3z M324.5,56.6c-0.9,0-1.6,0.5-2,1.4c-0.4,0.9-0.6,2.3-0.6,4.2
		c0,2.2,0.2,3.7,0.7,4.7c0.4,0.8,1,1.1,1.8,1.1c0.9,0,1.6-0.5,2-1.5c0.4-0.9,0.5-2.4,0.5-4.3c0-2.2-0.2-3.7-0.7-4.6
		C325.9,56.9,325.3,56.6,324.5,56.6z"/>
	<path class="st0" d="M330.5,53.7l0.5-0.5c1.9,1.4,3.2,2.9,3.9,4.5c0.7,1.3,1,2.9,1,4.6c0,2-0.4,3.7-1.3,5.2c-0.8,1.4-2,2.7-3.6,3.9
		l-0.5-0.5c1.6-1.4,2.7-2.8,3.4-4.3c0.5-1.2,0.8-2.6,0.8-4.2c0-1.8-0.3-3.4-1-4.8C332.9,56.2,331.9,54.9,330.5,53.7z"/>
</g>
</svg>
