<?xml version="1.0" encoding="utf-8"?>
<!-- Generator: Adobe Illustrator 27.2.0, SVG Export Plug-In . SVG Version: 6.00 Build 0)  -->
<svg version="1.1" id="uuid-aff7f189-c39f-4b64-815d-95a7885ee5f2"
	 xmlns="http://www.w3.org/2000/svg" xmlns:xlink="http://www.w3.org/1999/xlink" x="0px" y="0px" viewBox="0 0 365.1 73"
	 style="enable-background:new 0 0 365.1 73;" xml:space="preserve">
<style type="text/css">
	.st0{fill:#3B241A;}
</style>
<g id="uuid-a5846e07-f486-4165-a47f-1096183457e2">
	<path class="st0" d="M32.8,3.4l-3.7-1.1C28,2,26.8,2.5,26.3,3.5l-1.7,3.9c-0.4,0.8,0,1.8,0.8,2.1l3.9,1.6c0.4,0.3,0.5,0.7,0.3,1.1
		c-1,3.9-2.9,7.8-5.2,11.6c-0.2,0.4-0.6,0.6-1,0.5l-2.9-1.2c-1.4-0.6-3,0-3.6,1.3l-1.4,3.1c-0.4,0.9-0.1,2,0.8,2.5l3.4,1.9
		c0.6,0.4,1.2,0.6,1.9,0.7l0,0c3,0.5,5.9-1,7.2-3.7c3.3-5.9,5.9-11.6,7.7-16.8c1.2-2.8,0.4-6.1-2-8l0,0C33.8,3.8,33.3,3.6,32.8,3.4
		C32.8,3.4,32.8,3.4,32.8,3.4z"/>
	<path class="st0" d="M0.8,19.8C-1.9,11.5,2.8,2.7,11.2,0l1,3.2C5.5,5.3,1.8,12.3,4,18.8C4,18.8,0.8,19.8,0.8,19.8z"/>
	<path class="st0" d="M6.4,18.1c-0.8-2.6-0.6-5.3,0.6-7.7s3.4-4.2,6-5l1,3.2c-3.6,1.1-5.6,4.9-4.4,8.5L6.4,18.1
		C6.4,18.1,6.4,18.1,6.4,18.1z"/>
	<path class="st0" d="M11.6,16.4c-0.4-1.2-0.3-2.4,0.3-3.5s1.5-1.9,2.8-2.3l1,3.2c-0.3,0.1-0.6,0.3-0.8,0.7c-0.2,0.3-0.2,0.7-0.1,1
		L11.6,16.4L11.6,16.4z"/>
	<path class="st0" d="M6.4,18.1c-0.8-2.6-0.6-5.3,0.6-7.7s3.4-4.2,6-5l1,3.2c-3.6,1.1-5.6,4.9-4.4,8.5L6.4,18.1
		C6.4,18.1,6.4,18.1,6.4,18.1z"/>
</g>
<g>
	<g>
		<path d="M75.4,51.6c-2.9,3.3-3.9,6.5-3.9,10.4s1,7.1,3.9,10.4L74.8,73c-3.7-3.3-5.3-6.7-5.3-11s1.6-7.7,5.3-11L75.4,51.6
			L75.4,51.6z"/>
		<path d="M82.2,64.6c-1.8,0-2.4,0-2.6,0c-0.2,0-0.2,0-0.2-0.2v-1.7c0-0.2,0-0.2,0.2-0.2c0.1,0,0.8,0,2.6,0h5.2v-6.8h-4
			c-1.9,0-2.6,0-2.8,0c-0.2,0-0.2,0-0.2-0.2v-1.6c0-0.2,0-0.2,0.2-0.2c0.1,0,0.8,0,2.8,0h10.6c1.9,0,2.6,0,2.8,0
			c0.2,0,0.2,0,0.2,0.2v1.6c0,0.2,0,0.2-0.2,0.2c-0.1,0-0.8,0-2.8,0h-4.3v6.8h5.3c1.8,0,2.4,0,2.6,0c0.2,0,0.2,0,0.2,0.2v1.7
			c0,0.2,0,0.2-0.2,0.2c-0.1,0-0.8,0-2.6,0h-5.3V69c0,1.4,0,2,0,2.2c0,0.2,0,0.2-0.2,0.2h-1.9c-0.2,0-0.2,0-0.2-0.2
			c0-0.1,0-0.8,0-2.2v-4.4H82.2L82.2,64.6z M83,56.4c0.2-0.1,0.3-0.1,0.4,0.1c0.9,1.2,1.7,2.8,2.2,4.3c0.1,0.2,0.1,0.2-0.2,0.3
			l-1.4,0.6c-0.3,0.1-0.3,0.1-0.4-0.1c-0.5-1.5-1.2-2.8-2.1-4.3c-0.1-0.2-0.1-0.2,0.2-0.3C81.8,57.1,83,56.4,83,56.4z M93.3,57.5
			c0.2-0.3,0.3-0.7,0.4-1.2c0.6,0.2,1.3,0.5,1.9,0.8c0.2,0.1,0.2,0.2,0.2,0.3s0,0.2-0.2,0.3c-0.2,0.1-0.3,0.3-0.5,0.7
			c-0.6,1.1-1.2,2.1-1.9,3.1C93,61.8,92.9,62,92.8,62c-0.1,0-0.2-0.1-0.5-0.2c-0.4-0.3-0.8-0.5-1.2-0.6C92,59.9,92.7,58.8,93.3,57.5
			L93.3,57.5z"/>
		<path d="M101.8,71.1c-0.2,0-0.2,0-0.2-0.2c0-0.1,0-1.3,0-7.3v-4c0-4,0-5.2,0-5.4c0-0.2,0-0.2,0.2-0.2c0.1,0,0.8,0,2.8,0h7
			c2,0,2.7,0,2.8,0c0.2,0,0.2,0,0.2,0.2c0,0.1,0,1.4,0,4.7v4.6c0,5.9,0,7.1,0,7.2c0,0.2,0,0.2-0.2,0.2h-1.8c-0.2,0-0.2,0-0.2-0.2v-1
			h-8.6v1.1c0,0.2,0,0.2-0.2,0.2L101.8,71.1L101.8,71.1z M103.9,60.7h8.6v-4.7h-8.6V60.7z M112.5,67.7v-5h-8.6v5H112.5z"/>
		<path d="M121.3,70.4c-1.8,0-2.4,0-2.6,0c-0.2,0-0.2,0-0.2-0.2v-1.7c0-0.2,0-0.2,0.2-0.2c0.1,0,0.7,0,2.6,0h5.1v-7h-3.3
			c-2,0-2.7,0-2.8,0c-0.2,0-0.2,0-0.2-0.2v-1.7c0-0.2,0-0.2,0.2-0.2c0.1,0,0.8,0,2.8,0h3.3V56c0-1.4,0-2.3-0.2-3.2
			c0.8,0,1.7,0.1,2.4,0.1c0.2,0,0.3,0.1,0.3,0.2c0,0.2-0.1,0.3-0.1,0.5c-0.1,0.2-0.1,0.7-0.1,2.3v3.2h3.6c2,0,2.7,0,2.8,0
			c0.2,0,0.2,0,0.2,0.2v1.7c0,0.2,0,0.2-0.2,0.2c-0.1,0-0.8,0-2.8,0h-3.6v7h5.4c1.8,0,2.4,0,2.6,0c0.2,0,0.2,0,0.2,0.2v1.7
			c0,0.2,0,0.2-0.2,0.2c-0.1,0-0.7,0-2.6,0H121.3L121.3,70.4z"/>
		<path d="M141.3,71.1c-0.2,0-0.2,0-0.2-0.2c0-0.1,0-1.3,0-7.3v-4c0-4,0-5.2,0-5.4c0-0.2,0-0.2,0.2-0.2c0.1,0,0.8,0,2.8,0h7
			c2,0,2.7,0,2.8,0c0.2,0,0.2,0,0.2,0.2c0,0.1,0,1.4,0,4.7v4.6c0,5.9,0,7.1,0,7.2c0,0.2,0,0.2-0.2,0.2h-1.8c-0.2,0-0.2,0-0.2-0.2v-1
			h-8.6v1.1c0,0.2,0,0.2-0.2,0.2L141.3,71.1L141.3,71.1z M143.3,60.7h8.6v-4.7h-8.6V60.7z M151.9,67.7v-5h-8.6v5H151.9z"/>
		<path d="M166.1,67c0.3,1.1,0.8,1.6,1.8,1.6c1.9,0,3-1.6,3.1-6c-0.7,1.4-1.9,2-3.5,2c-2.6,0-4.5-2.1-4.5-5.5c0-3.7,2-5.9,5.1-5.9
			c3.4,0,5.5,2.4,5.5,8.1c0,6.8-2.1,9.4-5.8,9.4c-2.3,0-3.8-0.9-4.5-2.7L166.1,67L166.1,67z M168.2,55.4c-1.6,0-2.4,1.4-2.4,3.7
			c0,2.2,0.9,3.4,2.3,3.4c1.2,0,2.1-0.8,2.7-2.1C170.8,57.1,170.1,55.4,168.2,55.4L168.2,55.4z"/>
		<path d="M180.2,60.5H177v-3.1h3.2V60.5z M180.2,69.6H177v-3.1h3.2V69.6z"/>
		<path d="M193,62c0,6.3-1.9,8.9-5.4,8.9s-5.3-2.5-5.3-8.8s1.9-8.8,5.4-8.8S193,55.7,193,62L193,62z M185.2,62c0,5,0.7,6.6,2.4,6.6
			s2.5-1.6,2.5-6.6s-0.7-6.5-2.5-6.5S185.2,56.9,185.2,62L185.2,62z"/>
		<path d="M205.1,62c0,6.3-1.9,8.9-5.4,8.9s-5.3-2.5-5.3-8.8s1.9-8.8,5.4-8.8S205.1,55.7,205.1,62L205.1,62z M197.3,62
			c0,5,0.7,6.6,2.4,6.6s2.5-1.6,2.5-6.6s-0.7-6.5-2.5-6.5S197.3,56.9,197.3,62L197.3,62z"/>
		<path d="M220,61.8c-1.1,2.2-2.2,3.1-3.6,3.1c-0.9,0-1.6-0.2-3.3-1c-1.5-0.7-2.1-0.9-2.8-0.9c-0.9,0-1.6,0.5-2.3,1.7l-1.1-0.6
			c0.9-2.1,2.1-3.1,3.5-3.1c0.8,0,1.6,0.2,3.1,0.9c1.6,0.7,2.3,1,3,1c1,0,1.7-0.5,2.5-1.7L220,61.8L220,61.8z"/>
		<path d="M228.8,68.3h3.2v2.2h-9.2v-2.2h3.3V56.2c-0.9,0.6-1.9,1.1-3.1,1.5l-0.4-2.3c1.5-0.4,2.8-1.1,4-2h2.3L228.8,68.3
			L228.8,68.3z"/>
		<path d="M244.7,66.1c0,2.8-2.2,4.7-5.5,4.7s-5.5-1.8-5.5-4.6c0-2,1-3.1,3.3-4.2c-2.1-1.1-2.9-2.5-2.9-4.3c0-2.5,2-4.4,5.1-4.4
			s5.1,1.8,5.1,4.3c0,1.8-1,3-3,3.9C243.8,62.6,244.7,63.9,244.7,66.1L244.7,66.1z M238.7,62.8c-1.6,0.9-2.3,1.8-2.3,3.2
			c0,1.6,1.1,2.8,2.8,2.8s2.9-1,2.9-2.6c0-1.3-0.6-2.1-2.7-3.1L238.7,62.8L238.7,62.8z M239.7,60.6c1.5-0.8,2-1.7,2-3
			c0-1.5-1.1-2.4-2.5-2.4s-2.4,0.9-2.4,2.3c0,1.2,0.6,1.9,2.3,2.7L239.7,60.6L239.7,60.6z"/>
		<path d="M249.9,61.3h-3.2v-3.1h3.2V61.3z M249.9,70.5h-3.2v-3.1h3.2V70.5z"/>
		<path d="M263.6,62c0,6.3-1.9,8.9-5.4,8.9S253,68.3,253,62s1.9-8.8,5.4-8.8S263.6,55.7,263.6,62L263.6,62z M255.8,62
			c0,5,0.7,6.6,2.4,6.6s2.5-1.6,2.5-6.6s-0.7-6.5-2.5-6.5S255.8,56.9,255.8,62z"/>
		<path d="M275.7,62c0,6.3-1.9,8.9-5.4,8.9S265,68.3,265,62s1.9-8.8,5.4-8.8S275.7,55.7,275.7,62L275.7,62z M267.9,62
			c0,5,0.7,6.6,2.5,6.6s2.5-1.6,2.5-6.6s-0.7-6.5-2.5-6.5S267.9,56.9,267.9,62L267.9,62z"/>
		<path d="M282.3,51c3.6,3.3,5.3,6.7,5.3,11s-1.6,7.7-5.3,11l-0.7-0.6c2.9-3.3,3.9-6.5,3.9-10.4s-1-7.1-3.9-10.4L282.3,51L282.3,51z
			"/>
	</g>
	<g>
		<path d="M75.4,51.6c-2.9,3.3-3.9,6.5-3.9,10.4s1,7.1,3.9,10.4L74.8,73c-3.7-3.3-5.3-6.7-5.3-11s1.6-7.7,5.3-11L75.4,51.6
			L75.4,51.6z"/>
		<path d="M82.2,64.6c-1.8,0-2.4,0-2.6,0c-0.2,0-0.2,0-0.2-0.2v-1.7c0-0.2,0-0.2,0.2-0.2c0.1,0,0.8,0,2.6,0h5.2v-6.8h-4
			c-1.9,0-2.6,0-2.8,0c-0.2,0-0.2,0-0.2-0.2v-1.6c0-0.2,0-0.2,0.2-0.2c0.1,0,0.8,0,2.8,0h10.6c1.9,0,2.6,0,2.8,0
			c0.2,0,0.2,0,0.2,0.2v1.6c0,0.2,0,0.2-0.2,0.2c-0.1,0-0.8,0-2.8,0h-4.3v6.8h5.3c1.8,0,2.4,0,2.6,0c0.2,0,0.2,0,0.2,0.2v1.7
			c0,0.2,0,0.2-0.2,0.2c-0.1,0-0.8,0-2.6,0h-5.3V69c0,1.4,0,2,0,2.2c0,0.2,0,0.2-0.2,0.2h-1.9c-0.2,0-0.2,0-0.2-0.2
			c0-0.1,0-0.8,0-2.2v-4.4H82.2L82.2,64.6z M83,56.4c0.2-0.1,0.3-0.1,0.4,0.1c0.9,1.2,1.7,2.8,2.2,4.3c0.1,0.2,0.1,0.2-0.2,0.3
			l-1.4,0.6c-0.3,0.1-0.3,0.1-0.4-0.1c-0.5-1.5-1.2-2.8-2.1-4.3c-0.1-0.2-0.1-0.2,0.2-0.3C81.8,57.1,83,56.4,83,56.4z M93.3,57.5
			c0.2-0.3,0.3-0.7,0.4-1.2c0.6,0.2,1.3,0.5,1.9,0.8c0.2,0.1,0.2,0.2,0.2,0.3s0,0.2-0.2,0.3c-0.2,0.1-0.3,0.3-0.5,0.7
			c-0.6,1.1-1.2,2.1-1.9,3.1C93,61.8,92.9,62,92.8,62c-0.1,0-0.2-0.1-0.5-0.2c-0.4-0.3-0.8-0.5-1.2-0.6C92,59.9,92.7,58.8,93.3,57.5
			L93.3,57.5z"/>
		<path d="M101.8,71.1c-0.2,0-0.2,0-0.2-0.2c0-0.1,0-1.3,0-7.3v-4c0-4,0-5.2,0-5.4c0-0.2,0-0.2,0.2-0.2c0.1,0,0.8,0,2.8,0h7
			c2,0,2.7,0,2.8,0c0.2,0,0.2,0,0.2,0.2c0,0.1,0,1.4,0,4.7v4.6c0,5.9,0,7.1,0,7.2c0,0.2,0,0.2-0.2,0.2h-1.8c-0.2,0-0.2,0-0.2-0.2v-1
			h-8.6v1.1c0,0.2,0,0.2-0.2,0.2L101.8,71.1L101.8,71.1z M103.9,60.7h8.6v-4.7h-8.6V60.7z M112.5,67.7v-5h-8.6v5H112.5z"/>
		<path d="M121.3,70.4c-1.8,0-2.4,0-2.6,0c-0.2,0-0.2,0-0.2-0.2v-1.7c0-0.2,0-0.2,0.2-0.2c0.1,0,0.7,0,2.6,0h5.1v-7h-3.3
			c-2,0-2.7,0-2.8,0c-0.2,0-0.2,0-0.2-0.2v-1.7c0-0.2,0-0.2,0.2-0.2c0.1,0,0.8,0,2.8,0h3.3V56c0-1.4,0-2.3-0.2-3.2
			c0.8,0,1.7,0.1,2.4,0.1c0.2,0,0.3,0.1,0.3,0.2c0,0.2-0.1,0.3-0.1,0.5c-0.1,0.2-0.1,0.7-0.1,2.3v3.2h3.6c2,0,2.7,0,2.8,0
			c0.2,0,0.2,0,0.2,0.2v1.7c0,0.2,0,0.2-0.2,0.2c-0.1,0-0.8,0-2.8,0h-3.6v7h5.4c1.8,0,2.4,0,2.6,0c0.2,0,0.2,0,0.2,0.2v1.7
			c0,0.2,0,0.2-0.2,0.2c-0.1,0-0.7,0-2.6,0H121.3L121.3,70.4z"/>
		<path d="M141.3,71.1c-0.2,0-0.2,0-0.2-0.2c0-0.1,0-1.3,0-7.3v-4c0-4,0-5.2,0-5.4c0-0.2,0-0.2,0.2-0.2c0.1,0,0.8,0,2.8,0h7
			c2,0,2.7,0,2.8,0c0.2,0,0.2,0,0.2,0.2c0,0.1,0,1.4,0,4.7v4.6c0,5.9,0,7.1,0,7.2c0,0.2,0,0.2-0.2,0.2h-1.8c-0.2,0-0.2,0-0.2-0.2v-1
			h-8.6v1.1c0,0.2,0,0.2-0.2,0.2L141.3,71.1L141.3,71.1z M143.3,60.7h8.6v-4.7h-8.6V60.7z M151.9,67.7v-5h-8.6v5H151.9z"/>
		<path d="M166.1,67c0.3,1.1,0.8,1.6,1.8,1.6c1.9,0,3-1.6,3.1-6c-0.7,1.4-1.9,2-3.5,2c-2.6,0-4.5-2.1-4.5-5.5c0-3.7,2-5.9,5.1-5.9
			c3.4,0,5.5,2.4,5.5,8.1c0,6.8-2.1,9.4-5.8,9.4c-2.3,0-3.8-0.9-4.5-2.7L166.1,67L166.1,67z M168.2,55.4c-1.6,0-2.4,1.4-2.4,3.7
			c0,2.2,0.9,3.4,2.3,3.4c1.2,0,2.1-0.8,2.7-2.1C170.8,57.1,170.1,55.4,168.2,55.4L168.2,55.4z"/>
		<path d="M180.2,60.5H177v-3.1h3.2V60.5z M180.2,69.6H177v-3.1h3.2V69.6z"/>
		<path d="M193,62c0,6.3-1.9,8.9-5.4,8.9s-5.3-2.5-5.3-8.8s1.9-8.8,5.4-8.8S193,55.7,193,62L193,62z M185.2,62c0,5,0.7,6.6,2.4,6.6
			s2.5-1.6,2.5-6.6s-0.7-6.5-2.5-6.5S185.2,56.9,185.2,62L185.2,62z"/>
		<path d="M205.1,62c0,6.3-1.9,8.9-5.4,8.9s-5.3-2.5-5.3-8.8s1.9-8.8,5.4-8.8S205.1,55.7,205.1,62L205.1,62z M197.3,62
			c0,5,0.7,6.6,2.4,6.6s2.5-1.6,2.5-6.6s-0.7-6.5-2.5-6.5S197.3,56.9,197.3,62L197.3,62z"/>
		<path d="M220,61.8c-1.1,2.2-2.2,3.1-3.6,3.1c-0.9,0-1.6-0.2-3.3-1c-1.5-0.7-2.1-0.9-2.8-0.9c-0.9,0-1.6,0.5-2.3,1.7l-1.1-0.6
			c0.9-2.1,2.1-3.1,3.5-3.1c0.8,0,1.6,0.2,3.1,0.9c1.6,0.7,2.3,1,3,1c1,0,1.7-0.5,2.5-1.7L220,61.8L220,61.8z"/>
		<path d="M228.8,68.3h3.2v2.2h-9.2v-2.2h3.3V56.2c-0.9,0.6-1.9,1.1-3.1,1.5l-0.4-2.3c1.5-0.4,2.8-1.1,4-2h2.3L228.8,68.3
			L228.8,68.3z"/>
		<path d="M244.7,66.1c0,2.8-2.2,4.7-5.5,4.7s-5.5-1.8-5.5-4.6c0-2,1-3.1,3.3-4.2c-2.1-1.1-2.9-2.5-2.9-4.3c0-2.5,2-4.4,5.1-4.4
			s5.1,1.8,5.1,4.3c0,1.8-1,3-3,3.9C243.8,62.6,244.7,63.9,244.7,66.1L244.7,66.1z M238.7,62.8c-1.6,0.9-2.3,1.8-2.3,3.2
			c0,1.6,1.1,2.8,2.8,2.8s2.9-1,2.9-2.6c0-1.3-0.6-2.1-2.7-3.1L238.7,62.8L238.7,62.8z M239.7,60.6c1.5-0.8,2-1.7,2-3
			c0-1.5-1.1-2.4-2.5-2.4s-2.4,0.9-2.4,2.3c0,1.2,0.6,1.9,2.3,2.7L239.7,60.6L239.7,60.6z"/>
		<path d="M249.9,61.3h-3.2v-3.1h3.2V61.3z M249.9,70.5h-3.2v-3.1h3.2V70.5z"/>
		<path d="M263.6,62c0,6.3-1.9,8.9-5.4,8.9S253,68.3,253,62s1.9-8.8,5.4-8.8S263.6,55.7,263.6,62L263.6,62z M255.8,62
			c0,5,0.7,6.6,2.4,6.6s2.5-1.6,2.5-6.6s-0.7-6.5-2.5-6.5S255.8,56.9,255.8,62z"/>
		<path d="M275.7,62c0,6.3-1.9,8.9-5.4,8.9S265,68.3,265,62s1.9-8.8,5.4-8.8S275.7,55.7,275.7,62L275.7,62z M267.9,62
			c0,5,0.7,6.6,2.5,6.6s2.5-1.6,2.5-6.6s-0.7-6.5-2.5-6.5S267.9,56.9,267.9,62L267.9,62z"/>
		<path d="M282.3,51c3.6,3.3,5.3,6.7,5.3,11s-1.6,7.7-5.3,11l-0.7-0.6c2.9-3.3,3.9-6.5,3.9-10.4s-1-7.1-3.9-10.4L282.3,51L282.3,51z
			"/>
	</g>
</g>
<g>
	<g>
		<path d="M77.6,15.8C77.6,25.4,73,37,63.3,37c-6.4,0-8.9-4.9-8.9-11c0-9.7,4.9-20.7,14.4-20.7C75.3,5.3,77.6,10.4,77.6,15.8z
			 M61.1,26.2c0,2.3,0.4,5.4,3,5.4c4.7,0,6.8-11.7,6.8-15.7c0-2-0.3-5.2-2.9-5.2C63.5,10.7,61.1,21.7,61.1,26.2z"/>
		<path d="M91.3,12.2L91.3,12.2l-6.1,2.7l-0.2-5.3l8.5-3.7H99l-5.8,30.7h-6.5L91.3,12.2z"/>
		<path d="M103.4,36.5l0.8-4.4l6.6-5.1c6.1-5,10.1-8.6,10.1-12.3c0-2.2-1.5-3.7-4.2-3.7c-2.7,0-4.9,0.8-6.5,1.8L108.8,8
			c2.5-1.5,6-2.6,9.5-2.6c6.2,0,9.6,3.6,9.6,8.4c0,6.2-5,10.6-10.4,14.7l-3,2.2l0,0.1h11l-1.1,5.8H103.4z"/>
		<path d="M154.2,15.8c0,9.6-4.6,21.2-14.3,21.2c-6.4,0-8.9-4.9-8.9-11c0-9.7,4.9-20.7,14.4-20.7C151.9,5.3,154.2,10.4,154.2,15.8z
			 M137.6,26.2c0,2.3,0.4,5.4,3,5.4c4.7,0,6.8-11.7,6.8-15.7c0-2-0.3-5.2-2.9-5.2C140,10.7,137.6,21.7,137.6,26.2z"/>
		<path d="M168.9,21.7l-0.9,4.8h-12.2l0.9-4.8H168.9z"/>
		<path d="M193.8,11.7h-10.8l-1.4,4.7c0.5-0.1,0.8-0.1,1.3-0.1c2,0,4.5,0.5,6.4,1.9c2.2,1.5,3.4,4,3.4,6.8c0,7.7-6.5,12-14.2,12
			c-3.7,0-6.8-0.8-8-1.8l1.8-5.4c1.2,0.7,3.7,1.5,6.3,1.5c3.3,0,7-1.8,7-5.1c0-2.7-1.7-4.7-7.6-4.7c-1.5,0-2.5,0.1-3.8,0.2l4.4-15.9
			h16.4L193.8,11.7z"/>
		<path d="M207.5,36.5l1.4-7.4h-13.1l0.9-4.5l14.6-18.7h8.3l-3.4,18h3.6l-1,5.2h-3.6l-1.4,7.4H207.5z M209.8,23.8l1.4-6.6
			c0.4-2,1-4.1,1.5-6l-0.2,0c-1.4,2.1-2.6,4-4,6l-5.1,6.5l0,0.1H209.8z"/>
		<path d="M247.3,5.8l-0.9,4.5c-5.6,8.7-11.2,17.4-16.8,26.1h-7.5c5.6-8.3,11.1-16.5,16.6-24.8l0-0.1h-13.3l1.1-5.8H247.3z"/>
		<path d="M260.7,21.7l-0.9,4.8h-12.2l0.9-4.8H260.7z"/>
		<path d="M261.4,36.5l0.8-4.4l6.6-5.1c6.1-5,10.1-8.6,10.1-12.3c0-2.2-1.5-3.7-4.2-3.7c-2.7,0-4.9,0.8-6.5,1.8L266.8,8
			c2.5-1.5,6-2.6,9.5-2.6c6.2,0,9.6,3.6,9.6,8.4c0,6.2-5,10.6-10.4,14.7l-3,2.2l0,0.1h11l-1.1,5.8H261.4z"/>
		<path d="M311.8,12.8c0,3.3-2.2,5.8-5.5,7.3l0,0.1c2.7,1.6,4.2,4.2,4.2,6.8c0,6.7-6.4,10-12.4,10c-6.5,0-10.3-3.3-10.3-7.9
			c0-4.3,3-7.2,6.6-8.7l0-0.1c-2.1-1.6-3.1-3.6-3.1-5.8c0-5.7,5.4-9.2,11.3-9.2C307.8,5.3,311.8,7.9,311.8,12.8z M303.4,27.6
			c0-2.4-1.7-3.9-4-4.7c-2.3,0.6-4.4,2.5-4.4,5.3c0,2.1,1.4,3.8,3.9,3.8C301.2,32.1,303.4,30.4,303.4,27.6z M298,14.2
			c0,1.9,1.5,3.2,3.6,3.9c1.9-0.7,3.8-2.3,3.8-4.6c0-1.8-1.2-3.3-3.3-3.3C299.7,10.3,298,12.1,298,14.2z"/>
		<path d="M324.7,36.5l1.4-7.4H313l0.9-4.5l14.6-18.7h8.3l-3.4,18h3.6l-1,5.2h-3.6l-1.4,7.4H324.7z M327.1,23.8l1.4-6.6
			c0.4-2,1-4.1,1.5-6l-0.2,0c-1.4,2.1-2.6,4-4,6l-5.1,6.5l0,0.1H327.1z"/>
	</g>
</g>
</svg>
