<?xml version="1.0" encoding="UTF-8"?><svg id="uuid-aff7f189-c39f-4b64-815d-95a7885ee5f2" xmlns="http://www.w3.org/2000/svg" viewBox="0 0 365.108 72.915"><defs><style>.uuid-83be0028-a0cd-4991-a2e6-f2d5ca7bfdff{fill:#f4891e;}.uuid-a1c957cb-33a5-43a7-b76a-e329224a1416{fill:#3b241a;}</style></defs><g id="uuid-a5846e07-f486-4165-a47f-1096183457e2"><path class="uuid-83be0028-a0cd-4991-a2e6-f2d5ca7bfdff" d="m83.326,12.697c0,9.479-4.604,20.971-14.155,20.971-6.327,0-8.812-4.838-8.812-10.93,0-9.562,4.888-20.447,14.226-20.447,6.506,0,8.742,5.016,8.742,10.406Zm-16.341,10.26c0,2.279.35,5.369,2.996,5.369,4.62,0,6.7-11.559,6.7-15.564,0-2.027-.31-5.129-2.876-5.129-4.486,0-6.82,10.895-6.82,15.324Z"/><path class="uuid-83be0028-a0cd-4991-a2e6-f2d5ca7bfdff" d="m86.833,28.04c.787.086,1.575.043,2.855-.014,2.095-.158,4.212-.791,5.967-1.881,2.236-1.385,3.934-3.326,4.916-5.588l-.09-.057c-1.451,1.49-3.718,2.176-5.729,2.176-4.82,0-8.12-3.301-8.12-8.215,0-6.582,5.472-12.172,12.352-12.172,6.688,0,9.827,4.562,9.818,10.58-.028,7.213-3.668,13.377-7.722,16.607-3.123,2.504-7.44,3.893-11.545,4.104-1.76.068-2.652.035-3.524-.023l.822-5.518Zm6.683-14.408c0,2.469,1.437,4.055,3.535,4.055,1.829,0,3.294-.949,4.063-2.006.267-.352.507-.803.66-1.432.187-.621.268-1.629.268-2.441,0-2.432-1.152-4.344-3.638-4.344-2.713,0-4.889,3.129-4.889,6.168Z"/><path class="uuid-83be0028-a0cd-4991-a2e6-f2d5ca7bfdff" d="m133.843,12.697c0,9.479-4.604,20.971-14.155,20.971-6.327,0-8.812-4.838-8.812-10.93,0-9.562,4.888-20.447,14.226-20.447,6.506,0,8.742,5.016,8.742,10.406Zm-16.341,10.26c0,2.279.35,5.369,2.996,5.369,4.62,0,6.7-11.559,6.7-15.564,0-2.027-.31-5.129-2.876-5.129-4.486,0-6.82,10.895-6.82,15.324Z"/><path class="uuid-83be0028-a0cd-4991-a2e6-f2d5ca7bfdff" d="m148.451,18.517l-.905,4.729h-12.105l.904-4.729h12.106Z"/><path class="uuid-83be0028-a0cd-4991-a2e6-f2d5ca7bfdff" d="m161.336,33.154l1.407-7.363h-12.953l.858-4.504,14.449-18.482h8.267l-3.367,17.824h3.568l-.96,5.162h-3.568l-1.407,7.363h-6.294Zm2.368-12.525l1.396-6.572c.438-1.934,1.003-4.016,1.449-5.914l-.177-.008c-1.348,2.07-2.537,3.949-3.993,5.959l-4.999,6.441-.037.094h6.361Z"/><path class="uuid-83be0028-a0cd-4991-a2e6-f2d5ca7bfdff" d="m199.395,12.697c0,9.479-4.604,20.971-14.155,20.971-6.327,0-8.812-4.838-8.812-10.93,0-9.562,4.888-20.447,14.226-20.447,6.506,0,8.742,5.016,8.742,10.406Zm-16.341,10.26c0,2.279.35,5.369,2.996,5.369,4.62,0,6.7-11.559,6.7-15.564,0-2.027-.31-5.129-2.876-5.129-4.486,0-6.82,10.895-6.82,15.324Z"/><path class="uuid-83be0028-a0cd-4991-a2e6-f2d5ca7bfdff" d="m223.572,8.558h-10.712l-1.414,4.701c.483-.072.795-.08,1.279-.08,1.967,0,4.405.477,6.294,1.846,2.133,1.447,3.334,3.916,3.334,6.762,0,7.592-6.402,11.881-14.025,11.881-3.655,0-6.688-.842-7.883-1.797l1.743-5.338c1.209.723,3.653,1.484,6.232,1.484,3.304,0,6.944-1.793,6.944-5.061,0-2.68-1.711-4.645-7.529-4.645-1.466,0-2.505.1-3.751.193l4.371-15.701h16.277l-1.161,5.754Z"/><path class="uuid-83be0028-a0cd-4991-a2e6-f2d5ca7bfdff" d="m227.512,26.326c1.234.65,3.641,1.682,6.671,1.682,3.759,0,6.006-1.887,6.006-4.316,0-2.723-2.248-4.055-6.2-4.053h-1.194l.985-5.113h1.073c3.152-.004,6.733-1.266,6.733-3.986,0-1.502-1.139-2.625-3.724-2.625s-4.852.695-6.261,1.49l-.932-5.043c2.213-1.232,5.47-2.07,8.52-2.07,5.094,0,9.517,2.354,9.517,7.135,0,3.752-2.978,6.516-6.765,7.461l-.037.094c3.167.682,5.292,3.193,5.292,6.666,0,6.385-6.494,10.021-13.138,10.021-3.866,0-7.247-.939-8.592-2.066l2.045-5.275Z"/><path class="uuid-83be0028-a0cd-4991-a2e6-f2d5ca7bfdff" d="m264.52,18.517l-.905,4.729h-12.105l.904-4.729h12.106Z"/><path class="uuid-83be0028-a0cd-4991-a2e6-f2d5ca7bfdff" d="m289.929,9.652c0,3.289-2.202,5.729-5.438,7.227l-.037.111c2.721,1.549,4.175,4.156,4.175,6.742,0,6.604-6.33,9.936-12.257,9.936-6.41-.027-10.151-3.307-10.151-7.803,0-4.291,2.974-7.174,6.497-8.611l.037-.107c-2.076-1.547-3.034-3.561-3.034-5.717,0-5.646,5.317-9.139,11.208-9.139,4.968,0,9,2.553,9,7.361Zm-8.35,14.721c0-2.404-1.676-3.83-3.928-4.633-2.27.619-4.391,2.484-4.391,5.248,0,2.102,1.387,3.787,3.858,3.787,2.285,0,4.46-1.645,4.46-4.402Zm-5.401-13.334c0,1.924,1.521,3.168,3.534,3.863,1.902-.662,3.747-2.305,3.747-4.508,0-1.822-1.156-3.221-3.263-3.221-2.24,0-4.019,1.84-4.019,3.865Z"/><path class="uuid-83be0028-a0cd-4991-a2e6-f2d5ca7bfdff" d="m313.581,7.882c-.772-.055-1.533-.029-2.548.066-5.521.529-9.157,3.525-10.691,7.133l.084.055c1.647-1.479,3.792-2.338,6.238-2.338,4.45.008,7.732,3.451,7.732,8.492,0,6.52-4.985,12.377-12.141,12.377-6.777,0-10.093-4.662-10.093-10.65,0-6.9,3.297-12.891,7.514-16.205,3.386-2.695,7.85-4.207,12.386-4.418,1.156-.088,1.881-.049,2.528.008l-1.01,5.48Zm-6.127,14.117c0-2.658-1.51-4.186-3.751-4.186-1.843,0-3.434,1.191-4.366,2.805-.294.48-.463,1.084-.484,1.523-.094.605-.119,1.121-.119,1.641,0,2.623,1.358,4.711,3.742,4.711,3.248,0,4.979-3.627,4.979-6.494Z"/><path class="uuid-83be0028-a0cd-4991-a2e6-f2d5ca7bfdff" d="m318.971,28.04c.787.086,1.575.043,2.855-.014,2.095-.158,4.212-.791,5.967-1.881,2.236-1.385,3.934-3.326,4.916-5.588l-.09-.057c-1.451,1.49-3.718,2.176-5.729,2.176-4.82,0-8.12-3.301-8.12-8.215,0-6.582,5.472-12.172,12.352-12.172,6.688,0,9.827,4.562,9.818,10.58-.028,7.213-3.668,13.377-7.722,16.607-3.123,2.504-7.44,3.893-11.545,4.104-1.76.068-2.652.035-3.524-.023l.822-5.518Zm6.683-14.408c0,2.469,1.437,4.055,3.535,4.055,1.829,0,3.294-.949,4.063-2.006.267-.352.507-.803.66-1.432.187-.621.268-1.629.268-2.441,0-2.432-1.152-4.344-3.638-4.344-2.713,0-4.889,3.129-4.889,6.168Z"/><path class="uuid-83be0028-a0cd-4991-a2e6-f2d5ca7bfdff" d="m364.098,7.882c-.772-.055-1.533-.029-2.548.066-5.521.529-9.157,3.525-10.691,7.133l.084.055c1.647-1.479,3.792-2.338,6.238-2.338,4.45.008,7.732,3.451,7.732,8.492,0,6.52-4.985,12.377-12.141,12.377-6.777,0-10.093-4.662-10.093-10.65,0-6.9,3.297-12.891,7.514-16.205,3.386-2.695,7.85-4.207,12.386-4.418,1.156-.088,1.881-.049,2.528.008l-1.01,5.48Zm-6.127,14.117c0-2.658-1.51-4.186-3.751-4.186-1.843,0-3.434,1.191-4.366,2.805-.294.48-.463,1.084-.484,1.523-.094.605-.119,1.121-.119,1.641,0,2.623,1.358,4.711,3.742,4.711,3.248,0,4.979-3.627,4.979-6.494Z"/><path class="uuid-83be0028-a0cd-4991-a2e6-f2d5ca7bfdff" d="m66.101,52.318c-2.71,3.273-3.729,6.156-3.729,10.039s1.02,6.764,3.729,10.039l-.629.52c-3.101-3.123-4.531-6.332-4.531-10.559s1.431-7.438,4.531-10.561l.629.521Z"/><path class="uuid-83be0028-a0cd-4991-a2e6-f2d5ca7bfdff" d="m92.508,64.265c0,.15-.022.172-.174.172-.13,0-.803-.043-2.841-.043h-5.876v5.227c0,1.539.044,2.189.044,2.297,0,.152-.022.174-.174.174h-1.149c-.151,0-.173-.021-.173-.174,0-.129.043-.758.043-2.297v-5.227h-5.702c-2.017,0-2.711.043-2.819.043-.151,0-.173-.021-.173-.172v-1.02c0-.152.021-.174.173-.174.108,0,.803.043,2.819.043h5.702v-7.936h-4.488c-2.168,0-2.884.043-2.992.043-.151,0-.174-.021-.174-.174v-.996c0-.152.022-.174.174-.174.108,0,.824.043,2.992.043h10.733c2.146,0,2.861-.043,2.97-.043.152,0,.174.021.174.174v.996c0,.152-.021.174-.174.174-.108,0-.823-.043-2.97-.043h-4.836v7.936h5.876c2.038,0,2.711-.043,2.841-.043.151,0,.174.021.174.174v1.02Zm-15.699-7.85c.195-.109.217-.088.304.043,1.02,1.453,1.887,3.035,2.537,4.791.043.131.043.174-.174.262l-.736.303c-.304.131-.325.131-.391-.064-.607-1.691-1.279-3.102-2.342-4.705-.108-.131-.065-.174.195-.305l.606-.324Zm13.205.824c-.13.107-.238.26-.39.584-.651,1.346-1.388,2.604-2.364,3.947-.151.195-.217.281-.303.281-.065,0-.152-.064-.326-.174-.26-.172-.477-.281-.78-.367,1.084-1.389,1.951-2.82,2.559-4.229.13-.281.261-.693.325-1.084.434.152.954.369,1.279.541.13.066.195.131.195.238,0,.088-.065.152-.195.262Z"/><path class="uuid-83be0028-a0cd-4991-a2e6-f2d5ca7bfdff" d="m110.629,63.831c0,6.201.043,7.285.043,7.393,0,.152-.021.174-.173.174h-1.041c-.151,0-.174-.021-.174-.174v-1.322h-10.039v1.365c0,.152-.021.174-.151.174h-1.062c-.151,0-.174-.021-.174-.174,0-.129.044-1.213.044-7.436v-4.186c0-4.207-.044-5.334-.044-5.465,0-.15.022-.172.174-.172.13,0,.867.043,3.014.043h6.44c2.146,0,2.884-.043,3.014-.043.151,0,.173.021.173.172,0,.131-.043,1.258-.043,4.922v4.729Zm-1.345-8.543h-10.039v5.875h10.039v-5.875Zm0,7.09h-10.039v6.287h10.039v-6.287Z"/><path class="uuid-83be0028-a0cd-4991-a2e6-f2d5ca7bfdff" d="m135.083,70.79c0,.152-.021.174-.174.174-.108,0-.78-.043-2.797-.043h-13.097c-2.016,0-2.688.043-2.797.043-.151,0-.173-.021-.173-.174v-1.041c0-.15.021-.174.173-.174.108,0,.781.045,2.797.045h5.616v-8.219h-3.621c-2.212,0-2.949.043-3.058.043-.151,0-.173-.021-.173-.172v-1.02c0-.152.021-.174.173-.174.108,0,.846.043,3.058.043h3.621v-4.184c0-1.52-.021-2.213-.174-3.016.564.023,1.128.066,1.562.109.151.021.26.086.26.195,0,.131-.043.238-.108.412-.086.217-.13.736-.13,2.254v4.229h4.12c2.189,0,2.927-.043,3.035-.043.152,0,.174.021.174.174v1.02c0,.15-.021.172-.174.172-.108,0-.846-.043-3.035-.043h-4.12v8.219h6.071c2.017,0,2.688-.045,2.797-.045.152,0,.174.023.174.174v1.041Z"/><path class="uuid-83be0028-a0cd-4991-a2e6-f2d5ca7bfdff" d="m153.161,63.831c0,6.201.043,7.285.043,7.393,0,.152-.021.174-.173.174h-1.041c-.151,0-.174-.021-.174-.174v-1.322h-10.039v1.365c0,.152-.021.174-.151.174h-1.062c-.151,0-.174-.021-.174-.174,0-.129.044-1.213.044-7.436v-4.186c0-4.207-.044-5.334-.044-5.465,0-.15.022-.172.174-.172.13,0,.867.043,3.014.043h6.44c2.146,0,2.884-.043,3.014-.043.151,0,.173.021.173.172,0,.131-.043,1.258-.043,4.922v4.729Zm-1.345-8.543h-10.039v5.875h10.039v-5.875Zm0,7.09h-10.039v6.287h10.039v-6.287Z"/><path class="uuid-83be0028-a0cd-4991-a2e6-f2d5ca7bfdff" d="m166.057,67.539c.434,1.02,1.105,1.496,2.017,1.496,2.103,0,3.339-1.734,3.469-6.613-.802,1.475-1.994,2.189-3.469,2.189-2.342,0-4.163-1.951-4.163-4.986,0-3.273,1.864-5.398,4.488-5.398,2.927,0,4.856,2.275,4.856,7.393,0,6.268-1.908,8.869-5.182,8.869-1.821,0-3.079-.695-3.751-2.146l1.734-.803Zm2.406-11.861c-1.713,0-2.731,1.496-2.731,3.926,0,2.211,1.105,3.533,2.646,3.533,1.301,0,2.298-.736,3.078-2.342-.043-3.295-1.062-5.117-2.992-5.117Z"/><path class="uuid-83be0028-a0cd-4991-a2e6-f2d5ca7bfdff" d="m178.934,61.49h-2.363v-2.363h2.363v2.363Zm0,8.715h-2.363v-2.363h2.363v2.363Z"/><path class="uuid-83be0028-a0cd-4991-a2e6-f2d5ca7bfdff" d="m191.595,62.269c0,5.746-1.691,8.219-4.771,8.219s-4.748-2.43-4.748-8.176,1.756-8.086,4.792-8.086,4.727,2.318,4.727,8.043Zm-7.676.021c0,4.857.954,6.701,2.905,6.701,1.974,0,2.928-1.844,2.928-6.701s-.933-6.568-2.884-6.568c-1.93,0-2.949,1.689-2.949,6.568Z"/><path class="uuid-83be0028-a0cd-4991-a2e6-f2d5ca7bfdff" d="m203.626,62.269c0,5.746-1.691,8.219-4.771,8.219s-4.748-2.43-4.748-8.176,1.756-8.086,4.792-8.086,4.727,2.318,4.727,8.043Zm-7.676.021c0,4.857.954,6.701,2.905,6.701,1.974,0,2.928-1.844,2.928-6.701s-.933-6.568-2.884-6.568c-1.93,0-2.949,1.689-2.949,6.568Z"/><path class="uuid-83be0028-a0cd-4991-a2e6-f2d5ca7bfdff" d="m218.542,63.093c-.997,1.93-1.951,2.602-3.23,2.602-.781,0-1.54-.195-3.101-.932-1.366-.672-2.017-.867-2.646-.867-.846,0-1.648.564-2.32,1.713l-.759-.434c.803-1.777,1.864-2.646,3.166-2.646.65,0,1.452.195,2.905.869,1.518.693,2.168.932,2.797.932,1.02,0,1.757-.564,2.472-1.713l.716.477Z"/><path class="uuid-83be0028-a0cd-4991-a2e6-f2d5ca7bfdff" d="m227.319,68.753h2.949v1.451h-7.827v-1.451h3.144v-12.533c-.824.564-1.908,1.105-3.122,1.561l-.304-1.582c1.322-.434,2.58-1.105,3.686-1.865h1.475v14.42Z"/><path class="uuid-83be0028-a0cd-4991-a2e6-f2d5ca7bfdff" d="m235.578,67.539c.434,1.02,1.105,1.496,2.017,1.496,2.103,0,3.339-1.734,3.469-6.613-.802,1.475-1.994,2.189-3.469,2.189-2.342,0-4.163-1.951-4.163-4.986,0-3.273,1.864-5.398,4.488-5.398,2.927,0,4.856,2.275,4.856,7.393,0,6.268-1.908,8.869-5.182,8.869-1.821,0-3.079-.695-3.751-2.146l1.734-.803Zm2.406-11.861c-1.713,0-2.731,1.496-2.731,3.926,0,2.211,1.105,3.533,2.646,3.533,1.301,0,2.298-.736,3.078-2.342-.043-3.295-1.062-5.117-2.992-5.117Z"/><path class="uuid-83be0028-a0cd-4991-a2e6-f2d5ca7bfdff" d="m248.455,61.49h-2.363v-2.363h2.363v2.363Zm0,8.715h-2.363v-2.363h2.363v2.363Z"/><path class="uuid-83be0028-a0cd-4991-a2e6-f2d5ca7bfdff" d="m261.116,62.269c0,5.746-1.691,8.219-4.771,8.219s-4.748-2.43-4.748-8.176,1.756-8.086,4.792-8.086,4.727,2.318,4.727,8.043Zm-7.676.021c0,4.857.954,6.701,2.905,6.701,1.974,0,2.928-1.844,2.928-6.701s-.933-6.568-2.884-6.568c-1.93,0-2.949,1.689-2.949,6.568Z"/><path class="uuid-83be0028-a0cd-4991-a2e6-f2d5ca7bfdff" d="m273.147,62.269c0,5.746-1.691,8.219-4.771,8.219s-4.748-2.43-4.748-8.176,1.756-8.086,4.792-8.086,4.727,2.318,4.727,8.043Zm-7.676.021c0,4.857.954,6.701,2.905,6.701,1.974,0,2.928-1.844,2.928-6.701s-.933-6.568-2.884-6.568c-1.93,0-2.949,1.689-2.949,6.568Z"/><path class="uuid-83be0028-a0cd-4991-a2e6-f2d5ca7bfdff" d="m275.681,51.796c3.101,3.123,4.531,6.332,4.531,10.561s-1.431,7.436-4.531,10.559l-.629-.52c2.71-3.275,3.729-6.158,3.729-10.039s-1.02-6.766-3.729-10.039l.629-.521Z"/><path class="uuid-a1c957cb-33a5-43a7-b76a-e329224a1416" d="m32.009,3.4l-3.609-1.111c-1.066-.328-2.208.193-2.658,1.213l-1.715,3.888c-.364.824.017,1.787.845,2.14l3.8,1.619c.361.254.492.728.313,1.132-1.01,3.934-2.787,7.787-5.134,11.577-.176.396-.607.613-1.03.518l-2.814-1.296c-1.351-.622-2.949-.017-3.549,1.343l-1.374,3.114c-.4.906-.06,1.967.791,2.472l3.263,1.938c.59.35,1.238.592,1.913.714h0c2.911.524,5.804-1.01,7.003-3.714,3.2-5.913,5.812-11.571,7.451-16.804,1.246-2.809.409-6.106-2.025-7.981h0c-.441-.34-.94-.598-1.472-.762Z"/><path class="uuid-a1c957cb-33a5-43a7-b76a-e329224a1416" d="m.758,19.812C-1.901,11.547,2.661,2.659,10.926,0l1.021,3.175C5.432,5.27,1.837,12.276,3.933,18.791l-3.175,1.021Z"/><path class="uuid-a1c957cb-33a5-43a7-b76a-e329224a1416" d="m6.167,18.072c-.823-2.559-.6-5.286.627-7.677,1.228-2.391,3.313-4.162,5.872-4.986l1.021,3.175c-3.532,1.136-5.481,4.934-4.345,8.466l-3.175,1.021Z"/><path class="uuid-a1c957cb-33a5-43a7-b76a-e329224a1416" d="m11.318,16.414c-.38-1.183-.278-2.443.291-3.549.568-1.105,1.532-1.923,2.715-2.304l1.021,3.175c-.335.107-.608.34-.769.652-.16.313-.19.67-.081,1.005l-3.175,1.021Z"/><path class="uuid-a1c957cb-33a5-43a7-b76a-e329224a1416" d="m6.167,18.072c-.823-2.559-.6-5.286.627-7.677,1.228-2.391,3.313-4.162,5.872-4.986l1.021,3.175c-3.532,1.136-5.481,4.934-4.345,8.466l-3.175,1.021Z"/></g></svg>