<?xml version="1.0" encoding="UTF-8"?><svg id="uuid-aff7f189-c39f-4b64-815d-95a7885ee5f2" xmlns="http://www.w3.org/2000/svg" viewBox="0 0 365.1 73"><defs><style>.cls-1{fill:#3b241a;}</style></defs><g id="uuid-a5846e07-f486-4165-a47f-1096183457e2"><path class="cls-1" d="m32.8,3.4l-3.7-1.1c-1.1-.3-2.3.2-2.8,1.2l-1.7,3.9c-.4.8,0,1.8.8,2.1l3.9,1.6c.4.3.5.7.3,1.1-1,3.9-2.9,7.8-5.2,11.6-.2.4-.6.6-1,.5l-2.9-1.2c-1.4-.6-3,0-3.6,1.3l-1.4,3.1c-.4.9-.1,2,.8,2.5l3.4,1.9c.6.4,1.2.6,1.9.7h0c3,.5,5.9-1,7.2-3.7,3.3-5.9,5.9-11.6,7.7-16.8,1.2-2.8.4-6.1-2-8h0c-.7-.3-1.2-.5-1.7-.7h0Z"/><path class="cls-1" d="m.8,19.8C-1.9,11.5,2.8,2.7,11.2,0l1,3.2C5.5,5.3,1.8,12.3,4,18.8l-3.2,1Z"/><path class="cls-1" d="m6.4,18.1c-.8-2.6-.6-5.3.6-7.7s3.4-4.2,6-5l1,3.2c-3.6,1.1-5.6,4.9-4.4,8.5l-3.2,1h0Z"/><path class="cls-1" d="m11.6,16.4c-.4-1.2-.3-2.4.3-3.5s1.5-1.9,2.8-2.3l1,3.2c-.3.1-.6.3-.8.7-.2.3-.2.7-.1,1l-3.2.9h0Z"/><path class="cls-1" d="m6.4,18.1c-.8-2.6-.6-5.3.6-7.7s3.4-4.2,6-5l1,3.2c-3.6,1.1-5.6,4.9-4.4,8.5l-3.2,1h0Z"/></g><path d="m73.71,36.13c-3.8,0-6.58-1.15-8.36-3.46-1.78-2.31-2.66-6.01-2.66-11.1s.89-8.73,2.67-11.06c1.78-2.33,4.56-3.49,8.35-3.49s6.57,1.16,8.35,3.48,2.67,6,2.67,11.05-.88,8.85-2.65,11.14c-1.77,2.29-4.56,3.44-8.37,3.44Zm0-24.79c-1.73,0-2.97.81-3.72,2.44-.75,1.63-1.12,4.23-1.12,7.8s.38,6.16,1.15,7.79c.77,1.63,2,2.45,3.69,2.45s2.93-.83,3.69-2.49c.77-1.66,1.15-4.25,1.15-7.79s-.37-6.15-1.12-7.77c-.75-1.62-1.99-2.43-3.72-2.43Z"/><path d="m88.28,34.37v-5.27h.59c2.83,1.62,5.49,2.43,7.96,2.43,1.95,0,3.48-.4,4.58-1.22,1.1-.81,1.65-1.99,1.65-3.55,0-1.24-.43-2.19-1.29-2.87-.86-.67-2.64-1.01-5.33-1.01h-1.63v-4.21h1.54c4.16,0,6.23-1.27,6.23-3.8,0-1.06-.45-1.87-1.34-2.42-.89-.55-2.16-.83-3.8-.83-2.21,0-4.81.79-7.79,2.38h-.56v-5.21c3.14-1.17,6.17-1.76,9.07-1.76,3.44,0,6.04.63,7.8,1.89s2.64,2.94,2.64,5.03c0,1.56-.49,2.92-1.47,4.09-.98,1.17-2.28,1.95-3.92,2.35v.26c1.87.33,3.35,1.06,4.43,2.18,1.09,1.12,1.63,2.56,1.63,4.33,0,2.72-1.04,4.9-3.12,6.53s-4.89,2.45-8.44,2.45-6.59-.59-9.46-1.76Z"/><path d="m126.71,25.56h-13.51v-4.79h13.51v4.79Z"/><path d="m131.02,34.46v-5.31h.61c2.71,1.58,5.26,2.38,7.66,2.38,4.16,0,6.23-1.68,6.23-5.03,0-1.42-.58-2.52-1.73-3.28-1.15-.77-2.85-1.15-5.1-1.15-1.53,0-3.49.28-5.88.83h-.69V7.58h19v4.55h-13.25v5.73c1.42-.09,2.47-.13,3.14-.13,3.49,0,6.15.76,7.98,2.27,1.83,1.52,2.75,3.61,2.75,6.28,0,2.94-1.05,5.32-3.15,7.13-2.1,1.81-4.95,2.72-8.55,2.72-3.3,0-6.31-.56-9.02-1.67Z"/><path d="m157.39,35.69v-4.77h.58c1.2.54,2.62.82,4.27.82,5.08,0,7.91-2.66,8.48-7.98-2.4,1.47-4.6,2.21-6.61,2.21-2.73,0-4.94-.78-6.62-2.34-1.68-1.56-2.52-3.77-2.52-6.62s1-5.33,3.02-7.19c2.01-1.86,4.62-2.79,7.82-2.79,3.57,0,6.33,1.1,8.26,3.29,1.93,2.2,2.89,5.42,2.89,9.66,0,5.18-1.28,9.17-3.83,11.97-2.55,2.8-6.26,4.19-11.1,4.19-1.97,0-3.51-.15-4.62-.45Zm13.36-14.92c0-.12.01-.4.04-.83.01-.42.02-.74.02-.95,0-5.2-1.68-7.79-5.05-7.79-1.37,0-2.48.49-3.33,1.46-.85.97-1.27,2.32-1.27,4.04,0,3.4,1.79,5.1,5.38,5.1,1.34,0,2.74-.34,4.21-1.02Z"/><path d="m202.95,28.58h-3.97v7.01h-5.86v-7.01h-13.51v-4.92l13.25-16.09h6.12v16.7h3.97v4.3Zm-9.83-4.3v-10.97l-9.05,10.97h9.05Z"/><path d="m225.16,7.48v4.79h-.54c-1.18-.57-2.59-.85-4.25-.85-5.06,0-7.88,2.65-8.46,7.94,2.45-1.46,4.66-2.19,6.64-2.19,2.73,0,4.94.79,6.62,2.36,1.68,1.57,2.51,3.77,2.51,6.61s-1,5.35-3.02,7.21c-2.01,1.86-4.59,2.79-7.75,2.79-3.62,0-6.4-1.12-8.32-3.35-1.92-2.23-2.88-5.46-2.88-9.68,0-5.18,1.27-9.16,3.81-11.93,2.54-2.77,6.23-4.16,11.07-4.16,1.71,0,3.23.15,4.56.46Zm-13.27,14.9l-.02.76c-.01.41-.02.74-.02.98,0,5.22,1.69,7.83,5.08,7.83,1.36,0,2.46-.48,3.29-1.45.83-.96,1.25-2.32,1.25-4.06,0-3.4-1.78-5.1-5.33-5.1-1.39,0-2.81.35-4.27,1.04Z"/><path d="m244.31,25.56h-13.51v-4.79h13.51v4.79Z"/><path d="m249.88,35.69v-4.77h.58c1.2.54,2.62.82,4.27.82,5.08,0,7.91-2.66,8.48-7.98-2.4,1.47-4.6,2.21-6.61,2.21-2.73,0-4.94-.78-6.62-2.34-1.68-1.56-2.52-3.77-2.52-6.62s1-5.33,3.01-7.19c2.01-1.86,4.62-2.79,7.82-2.79,3.57,0,6.33,1.1,8.26,3.29,1.93,2.2,2.89,5.42,2.89,9.66,0,5.18-1.28,9.17-3.83,11.97-2.55,2.8-6.26,4.19-11.1,4.19-1.97,0-3.51-.15-4.62-.45Zm13.36-14.92c0-.12.01-.4.04-.83.01-.42.02-.74.02-.95,0-5.2-1.68-7.79-5.05-7.79-1.37,0-2.48.49-3.33,1.46-.85.97-1.27,2.32-1.27,4.04,0,3.4,1.79,5.1,5.38,5.1,1.34,0,2.74-.34,4.21-1.02Z"/><path d="m295.44,28.58h-3.97v7.01h-5.86v-7.01h-13.51v-4.92l13.25-16.09h6.12v16.7h3.97v4.3Zm-9.83-4.3v-10.97l-9.05,10.97h9.05Z"/><path d="m318.56,35.54h-17.79v-4.08h5.99V15.28h-5.99v-3.75c2.38-.02,4.05-.36,5.04-.99.98-.64,1.56-1.64,1.72-3.02h5.18v23.94h5.86v4.08Z"/><path d="m344.82,12.55l-12.69,22.99h-6.68l13.29-23.42h-15.05v-4.55h21.13v4.97Z"/><path d="m70.32,68.79h-2.02c-2.38-2.86-3.57-6.04-3.57-9.56s1.19-6.67,3.57-9.55h2.02v.1c-1.12,1.04-2.03,2.31-2.74,3.8-.83,1.78-1.25,3.66-1.25,5.64s.42,3.89,1.25,5.67c.7,1.5,1.62,2.76,2.74,3.8v.08Z"/><path d="m72.18,61.93v-1.33h8.61v-8.26h-7.79v-1.3h17.24v1.3h-7.77v8.26h8.72v1.33h-8.72v6.69h-1.67v-6.69h-8.61Zm4.37-2.36c-.77-2.06-1.49-3.8-2.18-5.23l1.55-.55c.56,1.11,1.3,2.86,2.2,5.25l-1.57.53Zm10.18.06l-1.39-.45c.84-1.5,1.63-3.31,2.38-5.43l1.67.49c-1.01,2.37-1.9,4.16-2.66,5.39Z"/><path d="m108.17,67.16h-11.72v1.03h-1.56v-17.16h14.89v17.16h-1.61v-1.03Zm0-8.97v-5.88h-11.72v5.88h11.72Zm-11.72,7.67h11.72v-6.43h-11.72v6.43Z"/><path d="m113.51,67.87v-1.35h8.63v-9.4h-7.52v-1.32h7.52v-5.55h1.67v5.55h7.83v1.32h-7.83v9.4h8.91v1.35h-19.22Z"/><path d="m149.5,67.16h-11.72v1.03h-1.56v-17.16h14.89v17.16h-1.61v-1.03Zm0-8.97v-5.88h-11.72v5.88h11.72Zm-11.72,7.67h11.72v-6.43h-11.72v6.43Z"/><path d="m156.43,67.36v-1.82h.12c.57.27,1.24.41,2.01.41,3.16,0,4.89-1.83,5.21-5.49-1.37.82-2.62,1.23-3.77,1.23-1.56,0-2.79-.43-3.7-1.3-.91-.87-1.36-2.05-1.36-3.55s.51-2.82,1.52-3.81c1.01-1,2.27-1.5,3.77-1.5,1.72,0,3.06.59,4.04,1.77.98,1.18,1.47,2.96,1.47,5.33,0,2.84-.65,5.05-1.94,6.61s-3.14,2.35-5.56,2.35c-.71,0-1.32-.08-1.83-.24Zm7.34-8.18l.03-.91c0-1.67-.31-2.95-.92-3.84-.62-.89-1.5-1.34-2.67-1.34-1.02,0-1.83.33-2.42.98-.59.65-.89,1.55-.89,2.7,0,.98.28,1.79.83,2.43.55.63,1.47.95,2.75.95,1.05,0,2.14-.32,3.29-.96Z"/><path d="m172.33,58.51h-2.33v-2.8h2.33v2.8Zm0,8.79h-2.33v-2.8h2.33v2.8Z"/><path d="m181.86,67.62c-1.82,0-3.15-.65-4.01-1.95-.85-1.3-1.28-3.33-1.28-6.08s.43-4.79,1.29-6.09c.86-1.31,2.19-1.96,4-1.96s3.13.65,3.99,1.96c.86,1.31,1.29,3.33,1.29,6.07s-.43,4.79-1.28,6.1c-.86,1.3-2.19,1.95-4,1.95Zm0-14.51c-1.17,0-2.02.46-2.54,1.39-.53.93-.79,2.62-.79,5.09s.26,4.14.79,5.07,1.38,1.39,2.54,1.39,2.02-.46,2.54-1.39c.52-.93.78-2.62.78-5.09s-.26-4.09-.78-5.04c-.52-.95-1.37-1.42-2.54-1.42Z"/><path d="m194.57,67.62c-1.82,0-3.15-.65-4.01-1.95-.85-1.3-1.28-3.33-1.28-6.08s.43-4.79,1.29-6.09c.86-1.31,2.19-1.96,4-1.96s3.13.65,3.99,1.96c.86,1.31,1.29,3.33,1.29,6.07s-.43,4.79-1.28,6.1c-.86,1.3-2.19,1.95-4,1.95Zm0-14.51c-1.17,0-2.02.46-2.54,1.39-.53.93-.79,2.62-.79,5.09s.26,4.14.79,5.07,1.38,1.39,2.54,1.39,2.02-.46,2.54-1.39c.52-.93.78-2.62.78-5.09s-.26-4.09-.78-5.04c-.52-.95-1.37-1.42-2.54-1.42Z"/><path d="m215.86,57.72c-.03,1.61-.37,2.92-1.03,3.93-.66,1.01-1.55,1.52-2.68,1.52-.64,0-1.19-.13-1.64-.39s-1-.76-1.66-1.51l-.94-1.09c-.31-.36-.59-.6-.86-.73-.27-.13-.52-.2-.77-.2-1.34,0-2.07,1.31-2.17,3.93h-1.59c.03-1.63.38-2.95,1.03-3.95.65-1,1.54-1.5,2.67-1.5.66,0,1.22.14,1.69.41.47.27,1.01.76,1.62,1.47l1.09,1.26c.2.23.43.41.69.56.26.15.52.22.78.22,1.35,0,2.08-1.31,2.18-3.93h1.59Z"/><path d="m228.24,67.3h-8.22v-1.42h3.22v-10.62h-3.22v-1.25c1.26,0,2.16-.19,2.7-.54.54-.35.84-.91.91-1.68h1.46v14.09h3.16v1.42Z"/><path d="m232.49,67.36v-1.82h.12c.57.27,1.24.41,2.01.41,3.16,0,4.89-1.83,5.21-5.49-1.37.82-2.62,1.23-3.77,1.23-1.56,0-2.79-.43-3.7-1.3-.91-.87-1.36-2.05-1.36-3.55s.51-2.82,1.52-3.81c1.01-1,2.27-1.5,3.77-1.5,1.72,0,3.06.59,4.04,1.77.98,1.18,1.47,2.96,1.47,5.33,0,2.84-.65,5.05-1.94,6.61-1.29,1.57-3.15,2.35-5.56,2.35-.71,0-1.32-.08-1.82-.24Zm7.34-8.18l.03-.91c0-1.67-.31-2.95-.92-3.84-.62-.89-1.5-1.34-2.67-1.34-1.02,0-1.83.33-2.42.98-.59.65-.89,1.55-.89,2.7,0,.98.28,1.79.83,2.43.55.63,1.47.95,2.75.95,1.05,0,2.14-.32,3.29-.96Z"/><path d="m248.38,58.51h-2.33v-2.8h2.33v2.8Zm0,8.79h-2.33v-2.8h2.33v2.8Z"/><path d="m257.92,67.62c-1.82,0-3.15-.65-4.01-1.95-.85-1.3-1.28-3.33-1.28-6.08s.43-4.79,1.29-6.09c.86-1.31,2.19-1.96,4-1.96s3.13.65,3.99,1.96c.86,1.31,1.29,3.33,1.29,6.07s-.43,4.79-1.28,6.1c-.86,1.3-2.19,1.95-4,1.95Zm0-14.51c-1.17,0-2.02.46-2.54,1.39-.53.93-.79,2.62-.79,5.09s.26,4.14.79,5.07,1.38,1.39,2.54,1.39,2.02-.46,2.54-1.39c.52-.93.78-2.62.78-5.09s-.26-4.09-.78-5.04c-.52-.95-1.37-1.42-2.54-1.42Z"/><path d="m270.63,67.62c-1.82,0-3.15-.65-4.01-1.95-.85-1.3-1.28-3.33-1.28-6.08s.43-4.79,1.29-6.09c.86-1.31,2.19-1.96,4-1.96s3.13.65,3.99,1.96c.86,1.31,1.29,3.33,1.29,6.07s-.43,4.79-1.28,6.1c-.86,1.3-2.19,1.95-4,1.95Zm0-14.51c-1.17,0-2.02.46-2.54,1.39-.53.93-.79,2.62-.79,5.09s.26,4.14.79,5.07,1.38,1.39,2.54,1.39,2.02-.46,2.54-1.39c.52-.93.78-2.62.78-5.09s-.26-4.09-.78-5.04c-.52-.95-1.37-1.42-2.54-1.42Z"/><path d="m283.56,59.22c0,3.51-1.19,6.7-3.57,9.56h-2.01v-.08c1.12-1.04,2.03-2.31,2.74-3.8.83-1.78,1.25-3.67,1.25-5.67s-.42-3.86-1.25-5.64c-.7-1.5-1.62-2.76-2.74-3.8v-.11h2.01c2.38,2.88,3.57,6.06,3.57,9.56Z"/></svg>