<?xml version="1.0" encoding="utf-8"?>
<!-- Generator: Adobe Illustrator 27.2.0, SVG Export Plug-In . SVG Version: 6.00 Build 0)  -->
<svg version="1.1" id="uuid-aff7f189-c39f-4b64-815d-95a7885ee5f2"
	 xmlns="http://www.w3.org/2000/svg" xmlns:xlink="http://www.w3.org/1999/xlink" x="0px" y="0px" viewBox="0 0 365.1 98.9"
	 style="enable-background:new 0 0 365.1 98.9;" xml:space="preserve">
<style type="text/css">
	.st0{fill:#3B241A;}
</style>
<g id="uuid-a5846e07-f486-4165-a47f-1096183457e2">
	<path class="st0" d="M32.8,29.3l-3.7-1.1c-1.1-0.3-2.3,0.2-2.8,1.2l-1.7,3.9c-0.4,0.8,0,1.8,0.8,2.1l3.9,1.6
		c0.4,0.3,0.5,0.7,0.3,1.1c-1,3.9-2.9,7.8-5.2,11.6c-0.2,0.4-0.6,0.6-1,0.5L20.5,49c-1.4-0.6-3,0-3.6,1.3l-1.4,3.1
		c-0.4,0.9-0.1,2,0.8,2.5l3.4,1.9c0.6,0.4,1.2,0.6,1.9,0.7l0,0c3,0.5,5.9-1,7.2-3.7c3.3-5.9,5.9-11.6,7.7-16.8c1.2-2.8,0.4-6.1-2-8
		l0,0C33.8,29.7,33.3,29.5,32.8,29.3L32.8,29.3z"/>
	<path class="st0" d="M0.8,45.7c-2.7-8.3,2-17.1,10.4-19.8l1,3.2C5.5,31.2,1.8,38.2,4,44.7L0.8,45.7z"/>
	<path class="st0" d="M6.4,44c-0.8-2.6-0.6-5.3,0.6-7.7c1.2-2.4,3.4-4.2,6-5l1,3.2c-3.6,1.1-5.6,4.9-4.4,8.5L6.4,44L6.4,44z"/>
	<path class="st0" d="M11.6,42.3c-0.4-1.2-0.3-2.4,0.3-3.5c0.6-1.1,1.5-1.9,2.8-2.3l1,3.2c-0.3,0.1-0.6,0.3-0.8,0.7
		c-0.2,0.3-0.2,0.7-0.1,1L11.6,42.3L11.6,42.3z"/>
	<path class="st0" d="M6.4,44c-0.8-2.6-0.6-5.3,0.6-7.7c1.2-2.4,3.4-4.2,6-5l1,3.2c-3.6,1.1-5.6,4.9-4.4,8.5L6.4,44L6.4,44z"/>
</g>
<g>
	<g>
		<path d="M75.4,77.5c-2.9,3.3-3.9,6.5-3.9,10.4s1,7.1,3.9,10.4l-0.6,0.6c-3.7-3.3-5.3-6.7-5.3-11s1.6-7.7,5.3-11L75.4,77.5
			L75.4,77.5z"/>
		<path d="M82.2,90.5c-1.8,0-2.4,0-2.6,0s-0.2,0-0.2-0.2v-1.7c0-0.2,0-0.2,0.2-0.2c0.1,0,0.8,0,2.6,0h5.2v-6.8h-4
			c-1.9,0-2.6,0-2.8,0c-0.2,0-0.2,0-0.2-0.2v-1.6c0-0.2,0-0.2,0.2-0.2c0.1,0,0.8,0,2.8,0H94c1.9,0,2.6,0,2.8,0c0.2,0,0.2,0,0.2,0.2
			v1.6c0,0.2,0,0.2-0.2,0.2c-0.1,0-0.8,0-2.8,0h-4.3v6.8H95c1.8,0,2.4,0,2.6,0s0.2,0,0.2,0.2v1.7c0,0.2,0,0.2-0.2,0.2
			c-0.1,0-0.8,0-2.6,0h-5.3v4.4c0,1.4,0,2,0,2.2s0,0.2-0.2,0.2h-1.9c-0.2,0-0.2,0-0.2-0.2c0-0.1,0-0.8,0-2.2v-4.4H82.2L82.2,90.5z
			 M83,82.3c0.2-0.1,0.3-0.1,0.4,0.1c0.9,1.2,1.7,2.8,2.2,4.3c0.1,0.2,0.1,0.2-0.2,0.3L84,87.6c-0.3,0.1-0.3,0.1-0.4-0.1
			c-0.5-1.5-1.2-2.8-2.1-4.3c-0.1-0.2-0.1-0.2,0.2-0.3C81.8,83,83,82.3,83,82.3z M93.3,83.4c0.2-0.3,0.3-0.7,0.4-1.2
			c0.6,0.2,1.3,0.5,1.9,0.8c0.2,0.1,0.2,0.2,0.2,0.3s0,0.2-0.2,0.3s-0.3,0.3-0.5,0.7c-0.6,1.1-1.2,2.1-1.9,3.1
			c-0.2,0.3-0.3,0.5-0.4,0.5s-0.2-0.1-0.5-0.2c-0.4-0.3-0.8-0.5-1.2-0.6C92,85.8,92.7,84.7,93.3,83.4L93.3,83.4z"/>
		<path d="M101.8,97c-0.2,0-0.2,0-0.2-0.2c0-0.1,0-1.3,0-7.3v-4c0-4,0-5.2,0-5.4c0-0.2,0-0.2,0.2-0.2c0.1,0,0.8,0,2.8,0h7
			c2,0,2.7,0,2.8,0c0.2,0,0.2,0,0.2,0.2c0,0.1,0,1.4,0,4.7v4.6c0,5.9,0,7.1,0,7.2c0,0.2,0,0.2-0.2,0.2h-1.8c-0.2,0-0.2,0-0.2-0.2v-1
			h-8.6v1.1c0,0.2,0,0.2-0.2,0.2L101.8,97L101.8,97z M103.9,86.6h8.6v-4.7h-8.6V86.6z M112.5,93.6v-5h-8.6v5H112.5z"/>
		<path d="M121.3,96.3c-1.8,0-2.4,0-2.6,0s-0.2,0-0.2-0.2v-1.7c0-0.2,0-0.2,0.2-0.2c0.1,0,0.7,0,2.6,0h5.1v-7h-3.3c-2,0-2.7,0-2.8,0
			c-0.2,0-0.2,0-0.2-0.2v-1.7c0-0.2,0-0.2,0.2-0.2c0.1,0,0.8,0,2.8,0h3.3v-3.2c0-1.4,0-2.3-0.2-3.2c0.8,0,1.7,0.1,2.4,0.1
			c0.2,0,0.3,0.1,0.3,0.2c0,0.2-0.1,0.3-0.1,0.5c-0.1,0.2-0.1,0.7-0.1,2.3V85h3.6c2,0,2.7,0,2.8,0c0.2,0,0.2,0,0.2,0.2v1.7
			c0,0.2,0,0.2-0.2,0.2c-0.1,0-0.8,0-2.8,0h-3.6v7h5.4c1.8,0,2.4,0,2.6,0c0.2,0,0.2,0,0.2,0.2V96c0,0.2,0,0.2-0.2,0.2
			c-0.1,0-0.7,0-2.6,0h-12.8V96.3z"/>
		<path d="M141.3,97c-0.2,0-0.2,0-0.2-0.2c0-0.1,0-1.3,0-7.3v-4c0-4,0-5.2,0-5.4c0-0.2,0-0.2,0.2-0.2c0.1,0,0.8,0,2.8,0h7
			c2,0,2.7,0,2.8,0c0.2,0,0.2,0,0.2,0.2c0,0.1,0,1.4,0,4.7v4.6c0,5.9,0,7.1,0,7.2c0,0.2,0,0.2-0.2,0.2h-1.8c-0.2,0-0.2,0-0.2-0.2v-1
			h-8.6v1.1c0,0.2,0,0.2-0.2,0.2L141.3,97L141.3,97z M143.3,86.6h8.6v-4.7h-8.6V86.6z M151.9,93.6v-5h-8.6v5H151.9z"/>
		<path d="M166.1,92.9c0.3,1.1,0.8,1.6,1.8,1.6c1.9,0,3-1.6,3.1-6c-0.7,1.4-1.9,2-3.5,2c-2.6,0-4.5-2.1-4.5-5.5c0-3.7,2-5.9,5.1-5.9
			c3.4,0,5.5,2.4,5.5,8.1c0,6.8-2.1,9.4-5.8,9.4c-2.3,0-3.8-0.9-4.5-2.7L166.1,92.9L166.1,92.9z M168.2,81.3c-1.6,0-2.4,1.4-2.4,3.7
			c0,2.2,0.9,3.4,2.3,3.4c1.2,0,2.1-0.8,2.7-2.1C170.8,83,170.1,81.3,168.2,81.3L168.2,81.3z"/>
		<path d="M180.2,86.4H177v-3.1h3.2V86.4z M180.2,95.5H177v-3.1h3.2V95.5z"/>
		<path d="M193,87.9c0,6.3-1.9,8.9-5.4,8.9s-5.3-2.5-5.3-8.8c0-6.3,1.9-8.8,5.4-8.8S193,81.6,193,87.9L193,87.9z M185.2,87.9
			c0,5,0.7,6.6,2.4,6.6s2.5-1.6,2.5-6.6s-0.7-6.5-2.5-6.5S185.2,82.8,185.2,87.9L185.2,87.9z"/>
		<path d="M205.1,87.9c0,6.3-1.9,8.9-5.4,8.9s-5.3-2.5-5.3-8.8c0-6.3,1.9-8.8,5.4-8.8S205.1,81.6,205.1,87.9L205.1,87.9z
			 M197.3,87.9c0,5,0.7,6.6,2.4,6.6s2.5-1.6,2.5-6.6s-0.7-6.5-2.5-6.5S197.3,82.8,197.3,87.9L197.3,87.9z"/>
		<path d="M220,87.7c-1.1,2.2-2.2,3.1-3.6,3.1c-0.9,0-1.6-0.2-3.3-1c-1.5-0.7-2.1-0.9-2.8-0.9c-0.9,0-1.6,0.5-2.3,1.7l-1.1-0.6
			c0.9-2.1,2.1-3.1,3.5-3.1c0.8,0,1.6,0.2,3.1,0.9c1.6,0.7,2.3,1,3,1c1,0,1.7-0.5,2.5-1.7L220,87.7L220,87.7z"/>
		<path d="M228.8,94.2h3.2v2.2h-9.2v-2.2h3.3V82.1c-0.9,0.6-1.9,1.1-3.1,1.5l-0.4-2.3c1.5-0.4,2.8-1.1,4-2h2.3L228.8,94.2
			L228.8,94.2z"/>
		<path d="M244.7,92c0,2.8-2.2,4.7-5.5,4.7s-5.5-1.8-5.5-4.6c0-2,1-3.1,3.3-4.2c-2.1-1.1-2.9-2.5-2.9-4.3c0-2.5,2-4.4,5.1-4.4
			s5.1,1.8,5.1,4.3c0,1.8-1,3-3,3.9C243.8,88.5,244.7,89.8,244.7,92L244.7,92z M238.7,88.7c-1.6,0.9-2.3,1.8-2.3,3.2
			c0,1.6,1.1,2.8,2.8,2.8s2.9-1,2.9-2.6c0-1.3-0.6-2.1-2.7-3.1L238.7,88.7L238.7,88.7z M239.7,86.5c1.5-0.8,2-1.7,2-3
			c0-1.5-1.1-2.4-2.5-2.4s-2.4,0.9-2.4,2.3c0,1.2,0.6,1.9,2.3,2.7L239.7,86.5L239.7,86.5z"/>
		<path d="M249.9,87.2h-3.2v-3.1h3.2V87.2z M249.9,96.4h-3.2v-3.1h3.2V96.4z"/>
		<path d="M263.6,87.9c0,6.3-1.9,8.9-5.4,8.9s-5.2-2.6-5.2-8.9s1.9-8.8,5.4-8.8S263.6,81.6,263.6,87.9L263.6,87.9z M255.8,87.9
			c0,5,0.7,6.6,2.4,6.6s2.5-1.6,2.5-6.6s-0.7-6.5-2.5-6.5S255.8,82.8,255.8,87.9z"/>
		<path d="M275.7,87.9c0,6.3-1.9,8.9-5.4,8.9s-5.3-2.6-5.3-8.9s1.9-8.8,5.4-8.8S275.7,81.6,275.7,87.9L275.7,87.9z M267.9,87.9
			c0,5,0.7,6.6,2.5,6.6s2.5-1.6,2.5-6.6s-0.7-6.5-2.5-6.5S267.9,82.8,267.9,87.9L267.9,87.9z"/>
		<path d="M282.3,76.9c3.6,3.3,5.3,6.7,5.3,11s-1.6,7.7-5.3,11l-0.7-0.6c2.9-3.3,3.9-6.5,3.9-10.4s-1-7.1-3.9-10.4L282.3,76.9
			L282.3,76.9z"/>
	</g>
	<g>
		<path d="M75.4,77.5c-2.9,3.3-3.9,6.5-3.9,10.4s1,7.1,3.9,10.4l-0.6,0.6c-3.7-3.3-5.3-6.7-5.3-11s1.6-7.7,5.3-11L75.4,77.5
			L75.4,77.5z"/>
		<path d="M82.2,90.5c-1.8,0-2.4,0-2.6,0s-0.2,0-0.2-0.2v-1.7c0-0.2,0-0.2,0.2-0.2c0.1,0,0.8,0,2.6,0h5.2v-6.8h-4
			c-1.9,0-2.6,0-2.8,0c-0.2,0-0.2,0-0.2-0.2v-1.6c0-0.2,0-0.2,0.2-0.2c0.1,0,0.8,0,2.8,0H94c1.9,0,2.6,0,2.8,0c0.2,0,0.2,0,0.2,0.2
			v1.6c0,0.2,0,0.2-0.2,0.2c-0.1,0-0.8,0-2.8,0h-4.3v6.8H95c1.8,0,2.4,0,2.6,0s0.2,0,0.2,0.2v1.7c0,0.2,0,0.2-0.2,0.2
			c-0.1,0-0.8,0-2.6,0h-5.3v4.4c0,1.4,0,2,0,2.2s0,0.2-0.2,0.2h-1.9c-0.2,0-0.2,0-0.2-0.2c0-0.1,0-0.8,0-2.2v-4.4H82.2L82.2,90.5z
			 M83,82.3c0.2-0.1,0.3-0.1,0.4,0.1c0.9,1.2,1.7,2.8,2.2,4.3c0.1,0.2,0.1,0.2-0.2,0.3L84,87.6c-0.3,0.1-0.3,0.1-0.4-0.1
			c-0.5-1.5-1.2-2.8-2.1-4.3c-0.1-0.2-0.1-0.2,0.2-0.3C81.8,83,83,82.3,83,82.3z M93.3,83.4c0.2-0.3,0.3-0.7,0.4-1.2
			c0.6,0.2,1.3,0.5,1.9,0.8c0.2,0.1,0.2,0.2,0.2,0.3s0,0.2-0.2,0.3s-0.3,0.3-0.5,0.7c-0.6,1.1-1.2,2.1-1.9,3.1
			c-0.2,0.3-0.3,0.5-0.4,0.5s-0.2-0.1-0.5-0.2c-0.4-0.3-0.8-0.5-1.2-0.6C92,85.8,92.7,84.7,93.3,83.4L93.3,83.4z"/>
		<path d="M101.8,97c-0.2,0-0.2,0-0.2-0.2c0-0.1,0-1.3,0-7.3v-4c0-4,0-5.2,0-5.4c0-0.2,0-0.2,0.2-0.2c0.1,0,0.8,0,2.8,0h7
			c2,0,2.7,0,2.8,0c0.2,0,0.2,0,0.2,0.2c0,0.1,0,1.4,0,4.7v4.6c0,5.9,0,7.1,0,7.2c0,0.2,0,0.2-0.2,0.2h-1.8c-0.2,0-0.2,0-0.2-0.2v-1
			h-8.6v1.1c0,0.2,0,0.2-0.2,0.2L101.8,97L101.8,97z M103.9,86.6h8.6v-4.7h-8.6V86.6z M112.5,93.6v-5h-8.6v5H112.5z"/>
		<path d="M121.3,96.3c-1.8,0-2.4,0-2.6,0s-0.2,0-0.2-0.2v-1.7c0-0.2,0-0.2,0.2-0.2c0.1,0,0.7,0,2.6,0h5.1v-7h-3.3c-2,0-2.7,0-2.8,0
			c-0.2,0-0.2,0-0.2-0.2v-1.7c0-0.2,0-0.2,0.2-0.2c0.1,0,0.8,0,2.8,0h3.3v-3.2c0-1.4,0-2.3-0.2-3.2c0.8,0,1.7,0.1,2.4,0.1
			c0.2,0,0.3,0.1,0.3,0.2c0,0.2-0.1,0.3-0.1,0.5c-0.1,0.2-0.1,0.7-0.1,2.3V85h3.6c2,0,2.7,0,2.8,0c0.2,0,0.2,0,0.2,0.2v1.7
			c0,0.2,0,0.2-0.2,0.2c-0.1,0-0.8,0-2.8,0h-3.6v7h5.4c1.8,0,2.4,0,2.6,0c0.2,0,0.2,0,0.2,0.2V96c0,0.2,0,0.2-0.2,0.2
			c-0.1,0-0.7,0-2.6,0h-12.8V96.3z"/>
		<path d="M141.3,97c-0.2,0-0.2,0-0.2-0.2c0-0.1,0-1.3,0-7.3v-4c0-4,0-5.2,0-5.4c0-0.2,0-0.2,0.2-0.2c0.1,0,0.8,0,2.8,0h7
			c2,0,2.7,0,2.8,0c0.2,0,0.2,0,0.2,0.2c0,0.1,0,1.4,0,4.7v4.6c0,5.9,0,7.1,0,7.2c0,0.2,0,0.2-0.2,0.2h-1.8c-0.2,0-0.2,0-0.2-0.2v-1
			h-8.6v1.1c0,0.2,0,0.2-0.2,0.2L141.3,97L141.3,97z M143.3,86.6h8.6v-4.7h-8.6V86.6z M151.9,93.6v-5h-8.6v5H151.9z"/>
		<path d="M166.1,92.9c0.3,1.1,0.8,1.6,1.8,1.6c1.9,0,3-1.6,3.1-6c-0.7,1.4-1.9,2-3.5,2c-2.6,0-4.5-2.1-4.5-5.5c0-3.7,2-5.9,5.1-5.9
			c3.4,0,5.5,2.4,5.5,8.1c0,6.8-2.1,9.4-5.8,9.4c-2.3,0-3.8-0.9-4.5-2.7L166.1,92.9L166.1,92.9z M168.2,81.3c-1.6,0-2.4,1.4-2.4,3.7
			c0,2.2,0.9,3.4,2.3,3.4c1.2,0,2.1-0.8,2.7-2.1C170.8,83,170.1,81.3,168.2,81.3L168.2,81.3z"/>
		<path d="M180.2,86.4H177v-3.1h3.2V86.4z M180.2,95.5H177v-3.1h3.2V95.5z"/>
		<path d="M193,87.9c0,6.3-1.9,8.9-5.4,8.9s-5.3-2.5-5.3-8.8c0-6.3,1.9-8.8,5.4-8.8S193,81.6,193,87.9L193,87.9z M185.2,87.9
			c0,5,0.7,6.6,2.4,6.6s2.5-1.6,2.5-6.6s-0.7-6.5-2.5-6.5S185.2,82.8,185.2,87.9L185.2,87.9z"/>
		<path d="M205.1,87.9c0,6.3-1.9,8.9-5.4,8.9s-5.3-2.5-5.3-8.8c0-6.3,1.9-8.8,5.4-8.8S205.1,81.6,205.1,87.9L205.1,87.9z
			 M197.3,87.9c0,5,0.7,6.6,2.4,6.6s2.5-1.6,2.5-6.6s-0.7-6.5-2.5-6.5S197.3,82.8,197.3,87.9L197.3,87.9z"/>
		<path d="M220,87.7c-1.1,2.2-2.2,3.1-3.6,3.1c-0.9,0-1.6-0.2-3.3-1c-1.5-0.7-2.1-0.9-2.8-0.9c-0.9,0-1.6,0.5-2.3,1.7l-1.1-0.6
			c0.9-2.1,2.1-3.1,3.5-3.1c0.8,0,1.6,0.2,3.1,0.9c1.6,0.7,2.3,1,3,1c1,0,1.7-0.5,2.5-1.7L220,87.7L220,87.7z"/>
		<path d="M228.8,94.2h3.2v2.2h-9.2v-2.2h3.3V82.1c-0.9,0.6-1.9,1.1-3.1,1.5l-0.4-2.3c1.5-0.4,2.8-1.1,4-2h2.3L228.8,94.2
			L228.8,94.2z"/>
		<path d="M244.7,92c0,2.8-2.2,4.7-5.5,4.7s-5.5-1.8-5.5-4.6c0-2,1-3.1,3.3-4.2c-2.1-1.1-2.9-2.5-2.9-4.3c0-2.5,2-4.4,5.1-4.4
			s5.1,1.8,5.1,4.3c0,1.8-1,3-3,3.9C243.8,88.5,244.7,89.8,244.7,92L244.7,92z M238.7,88.7c-1.6,0.9-2.3,1.8-2.3,3.2
			c0,1.6,1.1,2.8,2.8,2.8s2.9-1,2.9-2.6c0-1.3-0.6-2.1-2.7-3.1L238.7,88.7L238.7,88.7z M239.7,86.5c1.5-0.8,2-1.7,2-3
			c0-1.5-1.1-2.4-2.5-2.4s-2.4,0.9-2.4,2.3c0,1.2,0.6,1.9,2.3,2.7L239.7,86.5L239.7,86.5z"/>
		<path d="M249.9,87.2h-3.2v-3.1h3.2V87.2z M249.9,96.4h-3.2v-3.1h3.2V96.4z"/>
		<path d="M263.6,87.9c0,6.3-1.9,8.9-5.4,8.9s-5.2-2.6-5.2-8.9s1.9-8.8,5.4-8.8S263.6,81.6,263.6,87.9L263.6,87.9z M255.8,87.9
			c0,5,0.7,6.6,2.4,6.6s2.5-1.6,2.5-6.6s-0.7-6.5-2.5-6.5S255.8,82.8,255.8,87.9z"/>
		<path d="M275.7,87.9c0,6.3-1.9,8.9-5.4,8.9s-5.3-2.6-5.3-8.9s1.9-8.8,5.4-8.8S275.7,81.6,275.7,87.9L275.7,87.9z M267.9,87.9
			c0,5,0.7,6.6,2.5,6.6s2.5-1.6,2.5-6.6s-0.7-6.5-2.5-6.5S267.9,82.8,267.9,87.9L267.9,87.9z"/>
		<path d="M282.3,76.9c3.6,3.3,5.3,6.7,5.3,11s-1.6,7.7-5.3,11l-0.7-0.6c2.9-3.3,3.9-6.5,3.9-10.4s-1-7.1-3.9-10.4L282.3,76.9
			L282.3,76.9z"/>
	</g>
</g>
<g>
	<g>
		<path d="M83.4,39.4C85,48.7,82.5,60,73.1,60c-6.2,0-9.5-4.8-10.5-10.7c-1.7-9.4,1.3-20.1,10.4-20.1C79.4,29.2,82.5,34.1,83.4,39.4
			z M69.1,49.5c0.4,2.2,1.3,5.3,3.9,5.3c4.5,0,4.6-11.3,3.9-15.3c-0.4-2-1.2-5-3.7-5C68.8,34.4,68.4,45.1,69.1,49.5z"/>
		<path d="M96.1,35.9L96.1,35.9l-5.5,2.6l-1.1-5.2l7.6-3.6h5.4l-0.4,29.8h-6.4L96.1,35.9z"/>
		<path d="M112,59.5l0-4.2l5.6-5c5.1-4.9,8.3-8.3,7.7-11.9c-0.4-2.1-2.1-3.6-4.7-3.6c-2.7,0-4.6,0.8-6,1.8l-2.2-4.7
			c2.1-1.5,5.4-2.6,8.8-2.6c6,0,9.9,3.5,10.7,8.1c1.1,6.1-3.1,10.3-7.6,14.3l-2.6,2.1l0,0.1h10.7l-0.1,5.6H112z"/>
		<path d="M157.8,39.4c1.6,9.3-0.9,20.6-10.3,20.6c-6.2,0-9.5-4.8-10.5-10.7c-1.7-9.4,1.3-20.1,10.4-20.1
			C153.8,29.2,156.9,34.1,157.8,39.4z M143.5,49.5c0.4,2.2,1.3,5.3,3.9,5.3c4.5,0,4.6-11.3,3.9-15.3c-0.4-2-1.2-5-3.7-5
			C143.2,34.4,142.8,45.1,143.5,49.5z"/>
		<path d="M173.1,45.1l-0.1,4.6h-11.9l0.1-4.6H173.1z"/>
		<path d="M195.6,35.3h-10.5l-0.6,4.6c0.5-0.1,0.8-0.1,1.2-0.1c1.9,0,4.4,0.5,6.5,1.8c2.3,1.4,4,3.8,4.4,6.6
			C198,55.8,192.4,60,185,60c-3.6,0-6.7-0.8-8.1-1.8l0.8-5.2c1.3,0.7,3.8,1.5,6.4,1.5c3.2,0,6.5-1.8,5.9-5c-0.5-2.6-2.5-4.6-8.2-4.6
			c-1.4,0-2.4,0.1-3.6,0.2l1.6-15.4h16L195.6,35.3z"/>
		<path d="M213.1,59.5l0.1-7.2h-12.7l0.1-4.4l11-18.1h8.1l-0.2,17.5h3.5l0,5.1h-3.5l-0.1,7.2H213.1z M213.3,47.2l0.2-6.5
			c0.1-1.9,0.3-3.9,0.4-5.8l-0.2,0c-1,2-1.8,3.9-2.9,5.9l-3.8,6.3l0,0.1H213.3z"/>
		<path d="M246.6,29.7l-0.1,4.4c-3.9,8.5-7.9,16.9-11.9,25.4h-7.3c4-8,8-16.1,11.9-24.1l0-0.1h-12.9l0.1-5.6H246.6z"/>
		<path d="M262.3,45.1l-0.1,4.6h-11.9l0.1-4.6H262.3z"/>
		<path d="M265.5,59.5l0-4.2l5.6-5c5.1-4.9,8.3-8.3,7.7-11.9c-0.4-2.1-2.1-3.6-4.7-3.6c-2.7,0-4.6,0.8-6,1.8l-2.2-4.7
			c2.1-1.5,5.4-2.6,8.8-2.6c6,0,9.9,3.5,10.7,8.1c1.1,6.1-3.1,10.3-7.6,14.3l-2.6,2.1l0,0.1H286l-0.1,5.6H265.5z"/>
		<path d="M310.5,36.4c0.6,3.2-1.2,5.6-4.1,7.1l0,0.1c2.9,1.5,4.8,4.1,5.3,6.6c1.1,6.5-4.5,9.8-10.3,9.8c-6.3,0-10.5-3.2-11.3-7.7
			c-0.7-4.2,1.7-7,4.9-8.5l0-0.1c-2.3-1.5-3.6-3.5-4-5.6c-1-5.5,3.6-9,9.4-9C305.3,29.2,309.7,31.7,310.5,36.4z M304.9,50.9
			c-0.4-2.4-2.3-3.8-4.7-4.5c-2.1,0.6-3.9,2.4-3.4,5.2c0.4,2.1,2,3.7,4.4,3.7C303.5,55.2,305.3,53.6,304.9,50.9z M297.2,37.8
			c0.3,1.9,2,3.1,4.1,3.8c1.8-0.6,3.3-2.3,2.9-4.4c-0.3-1.8-1.7-3.2-3.8-3.2C298.3,34,296.9,35.8,297.2,37.8z"/>
		<path d="M327.1,59.5l0.1-7.2h-12.7l0.1-4.4l11-18.1h8.1l-0.2,17.5h3.5l0,5.1h-3.5l-0.1,7.2H327.1z M327.2,47.2l0.2-6.5
			c0.1-1.9,0.3-3.9,0.4-5.8l-0.2,0c-1,2-1.8,3.9-2.9,5.9l-3.8,6.3l0,0.1H327.2z"/>
	</g>
</g>
<g>
	<g>
		<path d="M69.5,7.7c-1.3,0-2.4,0.1-3.3,0.1c-0.3,0-0.3-0.1-0.4-0.4c-0.1-0.4-0.1-1.4-0.2-2c0.9,0.1,2,0.1,3.8,0.1h7.1
			c0.6,0,0.8,0,1.1-0.2c0.1-0.1,0.2-0.1,0.3-0.1c0.1,0,0.2,0,0.4,0.1c0.5,0.3,1.1,0.8,1.5,1.3C79.9,6.7,80,6.8,80,7
			c0,0.2-0.1,0.3-0.3,0.5c-0.2,0.2-0.3,0.4-0.5,0.8c-1,2.4-2.2,4.6-3.9,6.5c-1.7,2-3.7,3.6-5.7,4.8c-0.2,0.1-0.4,0.2-0.5,0.2
			c-0.2,0-0.3-0.1-0.5-0.2c-0.5-0.4-1.1-0.8-1.9-1.1c2.9-1.5,4.7-2.9,6.5-5c1.6-1.8,2.6-3.5,3.4-5.7H69.5z"/>
		<path d="M86.9,6.8c0-1.4-0.1-2.1-0.2-2.9c0.8,0.1,1.9,0.2,2.5,0.4c0.2,0.1,0.3,0.2,0.3,0.3c0,0.1,0,0.2-0.1,0.3
			c-0.2,0.4-0.2,0.9-0.2,1.9v4c0,1,0,1.8,0.1,2.5c0,0.3-0.1,0.4-0.4,0.4h-1.6c-0.3,0-0.4-0.1-0.4-0.3c0-0.7,0.1-1.9,0.1-2.7V6.8z
			 M96.3,10.5c0,3-0.4,4.9-1.6,6.5c-1,1.3-2.7,2.5-4.4,3.1c-0.2,0.1-0.3,0.1-0.4,0.1c-0.2,0-0.3-0.1-0.5-0.2c-0.5-0.5-1-0.9-1.7-1.2
			c2.1-0.7,3.8-1.6,4.9-2.9c0.9-1.1,1.3-2.8,1.3-5.3V6.8c0-1.7,0-2.4-0.2-3.3c1,0.1,1.9,0.2,2.6,0.4c0.2,0.1,0.3,0.2,0.3,0.3
			c0,0.1,0,0.2-0.1,0.3c-0.2,0.4-0.2,0.9-0.2,2.2V10.5z"/>
		<path d="M106.5,13.1c-2,0-2.7,0.2-2.9,0.2c-0.2,0-0.4-0.1-0.5-0.4c-0.1-0.5-0.2-1.4-0.3-2.4c1.3,0.2,2.3,0.2,4.3,0.2h6.4
			c1.5,0,3.1,0,4.6-0.1c0.3,0,0.4,0,0.4,0.3c0,0.6,0,1.3,0,1.9c0,0.2-0.1,0.3-0.4,0.3c-1.5,0-3,0-4.5,0H106.5z"/>
		<path d="M134.3,6.2c0.6,0,0.8-0.1,1.1-0.3c0.1-0.1,0.2-0.1,0.3-0.1s0.2,0.1,0.4,0.2c0.4,0.3,1,0.8,1.4,1.2
			c0.1,0.1,0.2,0.2,0.2,0.4c0,0.1-0.1,0.2-0.2,0.4c-0.2,0.2-0.4,0.4-0.6,0.8c-0.9,1.7-1.8,3.3-2.9,4.8c0.8,0.7,1.6,1.4,2.2,2
			c0.1,0.1,0.1,0.2,0.1,0.3c0,0.1,0,0.2-0.1,0.3c-0.3,0.3-0.9,1-1.2,1.3c-0.1,0.1-0.2,0.1-0.2,0.1c-0.1,0-0.1,0-0.2-0.1
			c-0.5-0.6-1.3-1.4-1.9-1.9c-2,2.2-4.1,3.8-6.4,5c-0.2,0.1-0.3,0.2-0.5,0.2c-0.1,0-0.2-0.1-0.4-0.2c-0.6-0.5-1.2-0.8-1.9-1
			c3.1-1.6,5.1-3,7.4-5.4c-0.8-0.6-1.7-1.2-2.9-1.9c0.4-0.5,0.9-1,1.3-1.4c0.1-0.1,0.2-0.1,0.3-0.1c0.1,0,0.1,0,0.2,0.1
			c0.7,0.3,1.6,0.9,2.6,1.6c1-1.2,1.7-2.5,2.3-4l-5,0.1c-1.6,2.1-2.9,3.5-4.3,4.5c-0.1,0.1-0.3,0.2-0.4,0.2c-0.1,0-0.2,0-0.3-0.1
			c-0.5-0.4-1-0.6-1.7-0.9c2.8-2.2,4.3-4.1,5.7-6.3c0.6-1.1,0.9-1.6,1.1-2.5c0.7,0.2,1.7,0.6,2.3,1c0.2,0.1,0.2,0.2,0.2,0.3
			c0,0.1-0.1,0.3-0.2,0.4c-0.2,0.1-0.3,0.3-0.4,0.4c-0.2,0.3-0.3,0.5-0.6,1L134.3,6.2z M136.9,3.4c0.1-0.1,0.2-0.1,0.3,0
			c0.6,0.5,1.3,1.3,1.9,2.1c0.1,0.1,0.1,0.2-0.1,0.3l-0.8,0.6c-0.1,0.1-0.2,0.1-0.3-0.1c-0.6-0.9-1.2-1.7-2-2.3L136.9,3.4z
			 M138.7,2.1c0.1-0.1,0.2-0.1,0.3,0c0.7,0.6,1.5,1.4,1.9,2.1c0.1,0.1,0.1,0.2-0.1,0.4L140,5.2c-0.2,0.1-0.3,0.1-0.3-0.1
			c-0.5-0.9-1.2-1.6-2-2.3L138.7,2.1z"/>
		<path d="M152.9,15.6c0,1.4,0,2.6,0.1,4.2c0,0.3-0.1,0.3-0.3,0.3c-0.6,0-1.4,0-2,0c-0.2,0-0.3-0.1-0.3-0.3c0-1.4,0.1-2.7,0.1-4.1
			V11c-1.8,1.5-3.9,3-5.5,3.8c-0.1,0.1-0.2,0.1-0.3,0.1c-0.2,0-0.3-0.1-0.4-0.2c-0.5-0.5-1.1-0.9-1.7-1.2c2.8-1.4,4.5-2.6,6.3-4.1
			c1.6-1.3,3-2.7,4.3-4.2c0.7-0.8,0.9-1.2,1.3-2.1c0.9,0.5,1.8,1,2.2,1.4c0.1,0.1,0.2,0.2,0.2,0.3c0,0.2-0.1,0.3-0.3,0.4
			c-0.3,0.2-0.7,0.5-1.2,1.1c-0.8,0.9-1.5,1.7-2.3,2.5V15.6z"/>
		<path d="M166.6,6.2c-0.3-1.1-0.5-1.7-1-2.5c0.8-0.1,1.9-0.2,2.7-0.2c0.3,0,0.4,0.1,0.4,0.6c0,0.4,0.1,1.1,0.3,2l0.4,1.7l5.7-1.5
			c0.8-0.2,1.1-0.4,1.3-0.5c0.1-0.1,0.2-0.1,0.3-0.1c0.1,0,0.3,0.1,0.4,0.2c0.4,0.2,1.1,0.9,1.4,1.2c0.1,0.1,0.2,0.2,0.2,0.3
			c0,0.1-0.1,0.3-0.2,0.4c-0.2,0.2-0.3,0.3-0.4,0.6c-1.1,2.2-2.2,3.8-3,4.7c-0.1,0.1-0.2,0.2-0.3,0.2c-0.1,0-0.3-0.1-0.4-0.2
			c-0.4-0.3-0.9-0.4-1.7-0.6c1.4-1.5,2-2.4,2.9-4L170,9.9l1.2,4.8c0.3,1.2,0.9,3.4,1.2,4.3c0.1,0.3,0,0.4-0.3,0.5
			c-0.6,0.2-1,0.4-1.6,0.5c-0.3,0-0.4,0.1-0.5-0.2c-0.3-1-0.7-2.9-1.1-4.3l-1.3-4.9l-1.6,0.4c-0.9,0.3-2.1,0.7-2.9,1
			c-0.1,0.1-0.2,0.1-0.3,0.1c-0.1,0-0.3-0.1-0.4-0.3c-0.3-0.5-0.6-1.2-0.8-2c1.3-0.2,2.3-0.5,3.8-0.8l1.7-0.5L166.6,6.2z"/>
		<path d="M188.8,6.6c0.3,0.1,0.4,0.3,0.3,0.6c-0.2,0.4-0.2,0.9-0.2,1.4c0,2.5-0.4,4.4-1.1,5.9c-0.5,1.2-1.4,2.5-2.8,3.8
			c-0.2,0.2-0.4,0.3-0.5,0.3c-0.1,0-0.2-0.1-0.4-0.2c-0.5-0.3-1-0.6-1.7-0.8c1.6-1.2,2.6-2.4,3.3-4c0.6-1.4,0.8-2.5,0.8-5.7
			c0-0.8,0-1.1-0.2-1.7C187.4,6.3,188.3,6.5,188.8,6.6z M193.2,15.1c1-0.5,1.9-1.1,2.8-1.9c1.2-0.9,2.4-2,3.5-3.4
			c0.1,0.7,0.3,1.4,0.6,2c0.1,0.1,0.1,0.2,0.1,0.3c0,0.1-0.1,0.3-0.3,0.5c-1,1-1.9,1.8-3,2.6c-1,0.8-2.2,1.6-3.6,2.4
			c-0.4,0.2-0.4,0.3-0.6,0.4c-0.1,0.1-0.3,0.2-0.4,0.2c-0.1,0-0.3-0.1-0.4-0.2c-0.4-0.3-0.9-0.8-1.2-1.2c-0.1-0.2-0.2-0.3-0.2-0.4
			c0-0.1,0-0.2,0.1-0.3c0.1-0.3,0.1-0.5,0.1-1.5V8.4c0-1.7,0-2.6-0.2-3.5c0.8,0.1,1.9,0.2,2.5,0.4c0.3,0.1,0.4,0.2,0.4,0.3
			c0,0.1-0.1,0.3-0.2,0.5c-0.2,0.4-0.2,0.8-0.2,2.2V15.1z"/>
	</g>
</g>
</svg>
