<?xml version="1.0" encoding="UTF-8"?>
<svg id="uuid-aff7f189-c39f-4b64-815d-95a7885ee5f2" xmlns="http://www.w3.org/2000/svg" viewBox="0 0 365.1 73">
  <defs>
    <style>
      .cls-1 {
        fill: #3b241a;
      }
    </style>
  </defs>
  <g id="uuid-a5846e07-f486-4165-a47f-1096183457e2">
    <path class="cls-1" d="m32.8,3.4l-3.7-1.1c-1.1-.3-2.3.2-2.8,1.2l-1.7,3.9c-.4.8,0,1.8.8,2.1l3.9,1.6c.4.3.5.7.3,1.1-1,3.9-2.9,7.8-5.2,11.6-.2.4-.6.6-1,.5l-2.9-1.2c-1.4-.6-3,0-3.6,1.3l-1.4,3.1c-.4.9-.1,2,.8,2.5l3.4,1.9c.6.4,1.2.6,1.9.7h0c3,.5,5.9-1,7.2-3.7,3.3-5.9,5.9-11.6,7.7-16.8,1.2-2.8.4-6.1-2-8h0c-.7-.3-1.2-.5-1.7-.7h0Z"/>
    <path class="cls-1" d="m.8,19.8C-1.9,11.5,2.8,2.7,11.2,0l1,3.2C5.5,5.3,1.8,12.3,4,18.8c0,0-3.2,1-3.2,1Z"/>
    <path class="cls-1" d="m6.4,18.1c-.8-2.6-.6-5.3.6-7.7s3.4-4.2,6-5l1,3.2c-3.6,1.1-5.6,4.9-4.4,8.5l-3.2,1h0Z"/>
    <path class="cls-1" d="m11.6,16.4c-.4-1.2-.3-2.4.3-3.5s1.5-1.9,2.8-2.3l1,3.2c-.3.1-.6.3-.8.7-.2.3-.2.7-.1,1l-3.2.9h0Z"/>
    <path class="cls-1" d="m6.4,18.1c-.8-2.6-.6-5.3.6-7.7s3.4-4.2,6-5l1,3.2c-3.6,1.1-5.6,4.9-4.4,8.5l-3.2,1h0Z"/>
  </g>
  <path d="m73.71,36.13c-3.8,0-6.58-1.15-8.36-3.46-1.78-2.31-2.66-6.01-2.66-11.1s.89-8.73,2.67-11.06c1.78-2.33,4.56-3.49,8.35-3.49s6.57,1.16,8.35,3.48,2.67,6,2.67,11.05-.88,8.85-2.65,11.14c-1.77,2.29-4.56,3.44-8.37,3.44Zm0-24.79c-1.73,0-2.97.81-3.72,2.44s-1.12,4.23-1.12,7.8.38,6.16,1.15,7.79c.77,1.63,2,2.45,3.69,2.45s2.93-.83,3.69-2.49c.77-1.66,1.15-4.25,1.15-7.79s-.37-6.15-1.12-7.77c-.75-1.62-1.99-2.43-3.72-2.43Z"/>
  <path d="m88.28,34.37v-5.27h.59c2.83,1.62,5.49,2.43,7.96,2.43,1.95,0,3.48-.4,4.58-1.22,1.1-.81,1.65-1.99,1.65-3.55,0-1.24-.43-2.19-1.29-2.87-.86-.67-2.64-1.01-5.33-1.01h-1.63v-4.21h1.54c4.16,0,6.23-1.27,6.23-3.8,0-1.06-.45-1.87-1.34-2.42s-2.16-.83-3.8-.83c-2.21,0-4.81.79-7.79,2.38h-.56v-5.21c3.14-1.17,6.17-1.76,9.07-1.76,3.44,0,6.04.63,7.8,1.89s2.64,2.94,2.64,5.03c0,1.56-.49,2.92-1.47,4.09s-2.28,1.95-3.92,2.35v.26c1.87.33,3.35,1.06,4.43,2.18,1.09,1.12,1.63,2.56,1.63,4.33,0,2.72-1.04,4.9-3.12,6.53s-4.89,2.45-8.44,2.45-6.59-.59-9.46-1.76h.03Z"/>
  <path d="m126.71,25.56h-13.51v-4.79h13.51s0,4.79,0,4.79Z"/>
  <path d="m131.02,34.46v-5.31h.61c2.71,1.58,5.26,2.38,7.66,2.38,4.16,0,6.23-1.68,6.23-5.03,0-1.42-.58-2.52-1.73-3.28-1.15-.77-2.85-1.15-5.1-1.15-1.53,0-3.49.28-5.88.83h-.69V7.58h19v4.55h-13.25v5.73c1.42-.09,2.47-.13,3.14-.13,3.49,0,6.15.76,7.98,2.27,1.83,1.52,2.75,3.61,2.75,6.28,0,2.94-1.05,5.32-3.15,7.13-2.1,1.81-4.95,2.72-8.55,2.72-3.3,0-6.31-.56-9.02-1.67h0Z"/>
  <path d="m157.39,35.69v-4.77h.58c1.2.54,2.62.82,4.27.82,5.08,0,7.91-2.66,8.48-7.98-2.4,1.47-4.6,2.21-6.61,2.21-2.73,0-4.94-.78-6.62-2.34s-2.52-3.77-2.52-6.62,1-5.33,3.02-7.19c2.01-1.86,4.62-2.79,7.82-2.79,3.57,0,6.33,1.1,8.26,3.29,1.93,2.2,2.89,5.42,2.89,9.66,0,5.18-1.28,9.17-3.83,11.97s-6.26,4.19-11.1,4.19c-1.97,0-3.51-.15-4.62-.45h-.02Zm13.36-14.92c0-.12,0-.4.04-.83,0-.42.02-.74.02-.95,0-5.2-1.68-7.79-5.05-7.79-1.37,0-2.48.49-3.33,1.46s-1.27,2.32-1.27,4.04c0,3.4,1.79,5.1,5.38,5.1,1.34,0,2.74-.34,4.21-1.02h0Z"/>
  <path d="m202.95,28.58h-3.97v7.01h-5.86v-7.01h-13.51v-4.92l13.25-16.09h6.12v16.7h3.97v4.3h0Zm-9.83-4.29v-10.97l-9.05,10.97h9.05Z"/>
  <path d="m225.16,7.48v4.79h-.54c-1.18-.57-2.59-.85-4.25-.85-5.06,0-7.88,2.65-8.46,7.94,2.45-1.46,4.66-2.19,6.64-2.19,2.73,0,4.94.79,6.62,2.36s2.51,3.77,2.51,6.61-1,5.35-3.02,7.21c-2.01,1.86-4.59,2.79-7.75,2.79-3.62,0-6.4-1.12-8.32-3.35s-2.88-5.46-2.88-9.68c0-5.18,1.27-9.16,3.81-11.93s6.23-4.16,11.07-4.16c1.71,0,3.23.15,4.56.46h.01Zm-13.27,14.9l-.02.76c0,.41-.02.74-.02.98,0,5.22,1.69,7.83,5.08,7.83,1.36,0,2.46-.48,3.29-1.45.83-.96,1.25-2.32,1.25-4.06,0-3.4-1.78-5.1-5.33-5.1-1.39,0-2.81.35-4.27,1.04h.02Z"/>
  <path d="m244.31,25.56h-13.51v-4.79h13.51s0,4.79,0,4.79Z"/>
  <path d="m249.88,35.69v-4.77h.58c1.2.54,2.62.82,4.27.82,5.08,0,7.91-2.66,8.48-7.98-2.4,1.47-4.6,2.21-6.61,2.21-2.73,0-4.94-.78-6.62-2.34s-2.52-3.77-2.52-6.62,1-5.33,3.01-7.19c2.01-1.86,4.62-2.79,7.82-2.79,3.57,0,6.33,1.1,8.26,3.29,1.93,2.2,2.89,5.42,2.89,9.66,0,5.18-1.28,9.17-3.83,11.97s-6.26,4.19-11.1,4.19c-1.97,0-3.51-.15-4.62-.45h-.01Zm13.36-14.92c0-.12.01-.4.04-.83.01-.42.02-.74.02-.95,0-5.2-1.68-7.79-5.05-7.79-1.37,0-2.48.49-3.33,1.46s-1.27,2.32-1.27,4.04c0,3.4,1.79,5.1,5.38,5.1,1.34,0,2.74-.34,4.21-1.02h0Z"/>
  <path d="m295.44,28.58h-3.97v7.01h-5.86v-7.01h-13.51v-4.92l13.25-16.09h6.12v16.7h3.97v4.3h0Zm-9.83-4.29v-10.97l-9.05,10.97h9.05Z"/>
  <path d="m318.56,35.54h-17.79v-4.08h5.99V15.28h-5.99v-3.75c2.38-.02,4.05-.36,5.04-.99.98-.64,1.56-1.64,1.72-3.02h5.18v23.94h5.86v4.08h0Z"/>
  <path d="m344.82,12.55l-12.69,22.99h-6.68l13.29-23.42h-15.05v-4.55h21.13v4.97h0Z"/>
  <g>
    <g>
      <path d="m75.43,51.61c-2.91,3.31-3.94,6.49-3.94,10.38s1.02,7.07,3.94,10.38l-.67.62c-3.69-3.27-5.29-6.69-5.29-11s1.62-7.72,5.29-11.01l.67.62Z"/>
      <path d="m82.24,64.58c-1.81,0-2.44.04-2.57.04-.21,0-.23-.02-.23-.23v-1.68c0-.21.02-.23.23-.23.12,0,.76.04,2.57.04h5.15v-6.85h-4.04c-1.95,0-2.63.04-2.75.04-.21,0-.23-.02-.23-.25v-1.64c0-.23.02-.25.23-.25.12,0,.8.04,2.75.04h10.59c1.95,0,2.63-.04,2.75-.04.21,0,.23.02.23.25v1.64c0,.23-.02.25-.23.25-.12,0-.8-.04-2.75-.04h-4.31v6.85h5.31c1.83,0,2.44-.04,2.59-.04.21,0,.23.02.23.23v1.68c0,.21-.02.23-.23.23-.14,0-.76-.04-2.59-.04h-5.31v4.43c0,1.38.02,2.03.02,2.16,0,.21-.02.23-.21.23h-1.87c-.21,0-.23-.02-.23-.23,0-.14.04-.78.04-2.16v-4.43h-5.15Zm.8-8.15c.23-.12.27-.08.39.1.86,1.23,1.68,2.79,2.24,4.29.06.18.06.23-.16.35l-1.4.62c-.27.12-.31.12-.39-.1-.53-1.5-1.17-2.83-2.09-4.29-.12-.16-.08-.18.18-.33l1.23-.64Zm10.22,1.05c.16-.33.31-.74.39-1.15.64.21,1.33.51,1.87.82.18.1.25.18.25.29s-.04.18-.18.31c-.16.12-.33.35-.47.66-.55,1.09-1.17,2.11-1.89,3.14-.21.29-.29.41-.43.41-.1,0-.25-.08-.49-.25-.43-.27-.76-.47-1.21-.62.9-1.17,1.58-2.34,2.18-3.61Z"/>
      <path d="m101.82,71.09c-.21,0-.23-.02-.23-.23,0-.14.04-1.35.04-7.31v-3.96c0-3.98-.04-5.23-.04-5.36,0-.23.02-.25.23-.25.14,0,.84.04,2.83.04h7.04c1.99,0,2.71-.04,2.83-.04.21,0,.23.02.23.25,0,.12-.04,1.37-.04,4.74v4.56c0,5.89.04,7.1.04,7.22,0,.21-.02.23-.23.23h-1.83c-.21,0-.23-.02-.23-.23v-1.01h-8.6v1.11c0,.21-.02.23-.23.23h-1.83Zm2.05-10.34h8.6v-4.68h-8.6v4.68Zm8.6,6.98v-4.97h-8.6v4.97h8.6Z"/>
      <path d="m121.34,70.39c-1.83,0-2.44.04-2.56.04-.18,0-.21-.02-.21-.23v-1.7c0-.21.02-.23.21-.23.12,0,.74.04,2.56.04h5.07v-7h-3.26c-2.01,0-2.69.04-2.81.04-.21,0-.23-.02-.23-.23v-1.7c0-.21.02-.23.23-.23.12,0,.8.04,2.81.04h3.26v-3.18c0-1.39-.02-2.3-.16-3.22.76.02,1.68.06,2.4.14.18.02.33.1.33.25,0,.16-.06.31-.12.45-.1.25-.12.7-.12,2.34v3.22h3.61c1.99,0,2.67-.04,2.79-.04.23,0,.25.02.25.23v1.7c0,.21-.02.23-.25.23-.12,0-.8-.04-2.79-.04h-3.61v7h5.4c1.83,0,2.44-.04,2.56-.04.18,0,.21.02.21.23v1.7c0,.21-.02.23-.21.23-.12,0-.74-.04-2.56-.04h-12.78Z"/>
      <path d="m141.29,71.09c-.21,0-.23-.02-.23-.23,0-.14.04-1.35.04-7.31v-3.96c0-3.98-.04-5.23-.04-5.36,0-.23.02-.25.23-.25.14,0,.84.04,2.83.04h7.04c1.99,0,2.71-.04,2.83-.04.21,0,.23.02.23.25,0,.12-.04,1.37-.04,4.74v4.56c0,5.89.04,7.1.04,7.22,0,.21-.02.23-.23.23h-1.83c-.21,0-.23-.02-.23-.23v-1.01h-8.6v1.11c0,.21-.02.23-.23.23h-1.83Zm2.05-10.34h8.6v-4.68h-8.6v4.68Zm8.6,6.98v-4.97h-8.6v4.97h8.6Z"/>
      <path d="m166.13,67.04c.31,1.13.84,1.62,1.78,1.62,1.89,0,2.98-1.6,3.09-6.05-.73,1.38-1.91,2.02-3.47,2.02-2.58,0-4.51-2.11-4.51-5.47,0-3.67,2-5.94,5.11-5.94,3.36,0,5.51,2.42,5.51,8.14,0,6.78-2.13,9.43-5.78,9.43-2.31,0-3.78-.91-4.47-2.73l2.73-1.02Zm2.11-11.67c-1.64,0-2.4,1.42-2.4,3.74,0,2.16.91,3.4,2.33,3.4,1.22,0,2.09-.76,2.69-2.13-.02-3.31-.8-5-2.62-5Z"/>
      <path d="m180.19,60.5h-3.18v-3.07h3.18v3.07Zm0,9.14h-3.18v-3.07h3.18v3.07Z"/>
      <path d="m193.04,61.95c0,6.29-1.91,8.85-5.38,8.85s-5.31-2.51-5.31-8.8,1.93-8.76,5.36-8.76,5.34,2.45,5.34,8.72Zm-7.83.02c0,5,.69,6.63,2.45,6.63s2.51-1.64,2.51-6.63-.69-6.54-2.47-6.54-2.49,1.51-2.49,6.54Z"/>
      <path d="m205.11,61.95c0,6.29-1.91,8.85-5.38,8.85s-5.31-2.51-5.31-8.8,1.93-8.76,5.36-8.76,5.34,2.45,5.34,8.72Zm-7.83.02c0,5,.69,6.63,2.45,6.63s2.51-1.64,2.51-6.63-.69-6.54-2.47-6.54-2.49,1.51-2.49,6.54Z"/>
      <path d="m220.01,61.79c-1.09,2.25-2.16,3.07-3.56,3.07-.87,0-1.64-.2-3.31-.98-1.49-.71-2.13-.91-2.82-.91-.87,0-1.62.51-2.33,1.69l-1.09-.64c.87-2.09,2.07-3.09,3.47-3.09.76,0,1.56.2,3.13.91,1.64.73,2.29.98,2.98.98,1.02,0,1.71-.49,2.47-1.71l1.07.69Z"/>
      <path d="m228.75,68.33h3.18v2.16h-9.16v-2.16h3.33v-12.1c-.85.58-1.91,1.11-3.13,1.51l-.44-2.33c1.47-.42,2.78-1.13,3.96-2h2.27v14.92Z"/>
      <path d="m244.69,66.09c0,2.82-2.16,4.71-5.47,4.71s-5.49-1.76-5.49-4.62c0-1.96,1.02-3.11,3.29-4.22-2.11-1.09-2.89-2.45-2.89-4.33,0-2.45,2.02-4.38,5.07-4.38s5.11,1.78,5.11,4.29c0,1.82-.98,3.05-2.98,3.87,2.45,1.16,3.36,2.49,3.36,4.69Zm-5.98-3.29c-1.58.87-2.33,1.78-2.33,3.2,0,1.64,1.09,2.76,2.82,2.76s2.85-.98,2.85-2.58c0-1.33-.64-2.09-2.69-3.07l-.64-.31Zm.98-2.2c1.49-.78,2-1.65,2-2.96,0-1.45-1.07-2.36-2.49-2.36s-2.45.87-2.45,2.31c0,1.16.56,1.89,2.31,2.71l.62.29Z"/>
      <path d="m249.9,61.35h-3.18v-3.07h3.18v3.07Zm0,9.14h-3.18v-3.07h3.18v3.07Z"/>
      <path d="m263.64,61.95c0,6.29-1.91,8.85-5.38,8.85s-5.31-2.51-5.31-8.8,1.93-8.76,5.36-8.76,5.34,2.45,5.34,8.72Zm-7.83.02c0,5,.69,6.63,2.45,6.63s2.51-1.64,2.51-6.63-.69-6.54-2.47-6.54-2.49,1.51-2.49,6.54Z"/>
      <path d="m275.71,61.95c0,6.29-1.91,8.85-5.38,8.85s-5.31-2.51-5.31-8.8,1.93-8.76,5.36-8.76,5.34,2.45,5.34,8.72Zm-7.83.02c0,5,.69,6.63,2.45,6.63s2.51-1.64,2.51-6.63-.69-6.54-2.47-6.54-2.49,1.51-2.49,6.54Z"/>
      <path d="m282.32,50.99c3.65,3.29,5.27,6.74,5.27,11.01s-1.6,7.74-5.27,11l-.69-.62c2.91-3.31,3.94-6.47,3.94-10.38s-1-7.07-3.94-10.38l.69-.62Z"/>
    </g>
    <g>
      <path d="m75.43,51.61c-2.91,3.31-3.94,6.49-3.94,10.38s1.02,7.07,3.94,10.38l-.67.62c-3.69-3.27-5.29-6.69-5.29-11s1.62-7.72,5.29-11.01l.67.62Z"/>
      <path d="m82.24,64.58c-1.81,0-2.44.04-2.57.04-.21,0-.23-.02-.23-.23v-1.68c0-.21.02-.23.23-.23.12,0,.76.04,2.57.04h5.15v-6.85h-4.04c-1.95,0-2.63.04-2.75.04-.21,0-.23-.02-.23-.25v-1.64c0-.23.02-.25.23-.25.12,0,.8.04,2.75.04h10.59c1.95,0,2.63-.04,2.75-.04.21,0,.23.02.23.25v1.64c0,.23-.02.25-.23.25-.12,0-.8-.04-2.75-.04h-4.31v6.85h5.31c1.83,0,2.44-.04,2.59-.04.21,0,.23.02.23.23v1.68c0,.21-.02.23-.23.23-.14,0-.76-.04-2.59-.04h-5.31v4.43c0,1.38.02,2.03.02,2.16,0,.21-.02.23-.21.23h-1.87c-.21,0-.23-.02-.23-.23,0-.14.04-.78.04-2.16v-4.43h-5.15Zm.8-8.15c.23-.12.27-.08.39.1.86,1.23,1.68,2.79,2.24,4.29.06.18.06.23-.16.35l-1.4.62c-.27.12-.31.12-.39-.1-.53-1.5-1.17-2.83-2.09-4.29-.12-.16-.08-.18.18-.33l1.23-.64Zm10.22,1.05c.16-.33.31-.74.39-1.15.64.21,1.33.51,1.87.82.18.1.25.18.25.29s-.04.18-.18.31c-.16.12-.33.35-.47.66-.55,1.09-1.17,2.11-1.89,3.14-.21.29-.29.41-.43.41-.1,0-.25-.08-.49-.25-.43-.27-.76-.47-1.21-.62.9-1.17,1.58-2.34,2.18-3.61Z"/>
      <path d="m101.82,71.09c-.21,0-.23-.02-.23-.23,0-.14.04-1.35.04-7.31v-3.96c0-3.98-.04-5.23-.04-5.36,0-.23.02-.25.23-.25.14,0,.84.04,2.83.04h7.04c1.99,0,2.71-.04,2.83-.04.21,0,.23.02.23.25,0,.12-.04,1.37-.04,4.74v4.56c0,5.89.04,7.1.04,7.22,0,.21-.02.23-.23.23h-1.83c-.21,0-.23-.02-.23-.23v-1.01h-8.6v1.11c0,.21-.02.23-.23.23h-1.83Zm2.05-10.34h8.6v-4.68h-8.6v4.68Zm8.6,6.98v-4.97h-8.6v4.97h8.6Z"/>
      <path d="m121.34,70.39c-1.83,0-2.44.04-2.56.04-.18,0-.21-.02-.21-.23v-1.7c0-.21.02-.23.21-.23.12,0,.74.04,2.56.04h5.07v-7h-3.26c-2.01,0-2.69.04-2.81.04-.21,0-.23-.02-.23-.23v-1.7c0-.21.02-.23.23-.23.12,0,.8.04,2.81.04h3.26v-3.18c0-1.39-.02-2.3-.16-3.22.76.02,1.68.06,2.4.14.18.02.33.1.33.25,0,.16-.06.31-.12.45-.1.25-.12.7-.12,2.34v3.22h3.61c1.99,0,2.67-.04,2.79-.04.23,0,.25.02.25.23v1.7c0,.21-.02.23-.25.23-.12,0-.8-.04-2.79-.04h-3.61v7h5.4c1.83,0,2.44-.04,2.56-.04.18,0,.21.02.21.23v1.7c0,.21-.02.23-.21.23-.12,0-.74-.04-2.56-.04h-12.78Z"/>
      <path d="m141.29,71.09c-.21,0-.23-.02-.23-.23,0-.14.04-1.35.04-7.31v-3.96c0-3.98-.04-5.23-.04-5.36,0-.23.02-.25.23-.25.14,0,.84.04,2.83.04h7.04c1.99,0,2.71-.04,2.83-.04.21,0,.23.02.23.25,0,.12-.04,1.37-.04,4.74v4.56c0,5.89.04,7.1.04,7.22,0,.21-.02.23-.23.23h-1.83c-.21,0-.23-.02-.23-.23v-1.01h-8.6v1.11c0,.21-.02.23-.23.23h-1.83Zm2.05-10.34h8.6v-4.68h-8.6v4.68Zm8.6,6.98v-4.97h-8.6v4.97h8.6Z"/>
      <path d="m166.13,67.04c.31,1.13.84,1.62,1.78,1.62,1.89,0,2.98-1.6,3.09-6.05-.73,1.38-1.91,2.02-3.47,2.02-2.58,0-4.51-2.11-4.51-5.47,0-3.67,2-5.94,5.11-5.94,3.36,0,5.51,2.42,5.51,8.14,0,6.78-2.13,9.43-5.78,9.43-2.31,0-3.78-.91-4.47-2.73l2.73-1.02Zm2.11-11.67c-1.64,0-2.4,1.42-2.4,3.74,0,2.16.91,3.4,2.33,3.4,1.22,0,2.09-.76,2.69-2.13-.02-3.31-.8-5-2.62-5Z"/>
      <path d="m180.19,60.5h-3.18v-3.07h3.18v3.07Zm0,9.14h-3.18v-3.07h3.18v3.07Z"/>
      <path d="m193.04,61.95c0,6.29-1.91,8.85-5.38,8.85s-5.31-2.51-5.31-8.8,1.93-8.76,5.36-8.76,5.34,2.45,5.34,8.72Zm-7.83.02c0,5,.69,6.63,2.45,6.63s2.51-1.64,2.51-6.63-.69-6.54-2.47-6.54-2.49,1.51-2.49,6.54Z"/>
      <path d="m205.11,61.95c0,6.29-1.91,8.85-5.38,8.85s-5.31-2.51-5.31-8.8,1.93-8.76,5.36-8.76,5.34,2.45,5.34,8.72Zm-7.83.02c0,5,.69,6.63,2.45,6.63s2.51-1.64,2.51-6.63-.69-6.54-2.47-6.54-2.49,1.51-2.49,6.54Z"/>
      <path d="m220.01,61.79c-1.09,2.25-2.16,3.07-3.56,3.07-.87,0-1.64-.2-3.31-.98-1.49-.71-2.13-.91-2.82-.91-.87,0-1.62.51-2.33,1.69l-1.09-.64c.87-2.09,2.07-3.09,3.47-3.09.76,0,1.56.2,3.13.91,1.64.73,2.29.98,2.98.98,1.02,0,1.71-.49,2.47-1.71l1.07.69Z"/>
      <path d="m228.75,68.33h3.18v2.16h-9.16v-2.16h3.33v-12.1c-.85.58-1.91,1.11-3.13,1.51l-.44-2.33c1.47-.42,2.78-1.13,3.96-2h2.27v14.92Z"/>
      <path d="m244.69,66.09c0,2.82-2.16,4.71-5.47,4.71s-5.49-1.76-5.49-4.62c0-1.96,1.02-3.11,3.29-4.22-2.11-1.09-2.89-2.45-2.89-4.33,0-2.45,2.02-4.38,5.07-4.38s5.11,1.78,5.11,4.29c0,1.82-.98,3.05-2.98,3.87,2.45,1.16,3.36,2.49,3.36,4.69Zm-5.98-3.29c-1.58.87-2.33,1.78-2.33,3.2,0,1.64,1.09,2.76,2.82,2.76s2.85-.98,2.85-2.58c0-1.33-.64-2.09-2.69-3.07l-.64-.31Zm.98-2.2c1.49-.78,2-1.65,2-2.96,0-1.45-1.07-2.36-2.49-2.36s-2.45.87-2.45,2.31c0,1.16.56,1.89,2.31,2.71l.62.29Z"/>
      <path d="m249.9,61.35h-3.18v-3.07h3.18v3.07Zm0,9.14h-3.18v-3.07h3.18v3.07Z"/>
      <path d="m263.64,61.95c0,6.29-1.91,8.85-5.38,8.85s-5.31-2.51-5.31-8.8,1.93-8.76,5.36-8.76,5.34,2.45,5.34,8.72Zm-7.83.02c0,5,.69,6.63,2.45,6.63s2.51-1.64,2.51-6.63-.69-6.54-2.47-6.54-2.49,1.51-2.49,6.54Z"/>
      <path d="m275.71,61.95c0,6.29-1.91,8.85-5.38,8.85s-5.31-2.51-5.31-8.8,1.93-8.76,5.36-8.76,5.34,2.45,5.34,8.72Zm-7.83.02c0,5,.69,6.63,2.45,6.63s2.51-1.64,2.51-6.63-.69-6.54-2.47-6.54-2.49,1.51-2.49,6.54Z"/>
      <path d="m282.32,50.99c3.65,3.29,5.27,6.74,5.27,11.01s-1.6,7.74-5.27,11l-.69-.62c2.91-3.31,3.94-6.47,3.94-10.38s-1-7.07-3.94-10.38l.69-.62Z"/>
    </g>
  </g>
</svg>