<?xml version="1.0" encoding="utf-8"?>
<!-- Generator: Adobe Illustrator 27.7.0, SVG Export Plug-In . SVG Version: 6.00 Build 0)  -->
<svg version="1.1" id="uuid-aff7f189-c39f-4b64-815d-95a7885ee5f2"
	 xmlns="http://www.w3.org/2000/svg" xmlns:xlink="http://www.w3.org/1999/xlink" x="0px" y="0px" viewBox="0 0 365.1 73"
	 style="enable-background:new 0 0 365.1 73;" xml:space="preserve">
<style type="text/css">
	.st0{fill:#3B241A;}
	.st1{enable-background:new    ;}
</style>
<g id="uuid-a5846e07-f486-4165-a47f-1096183457e2">
	<path d="M67.7,52.3c-2.8,3.3-3.8,6.2-3.8,10s1,6.8,3.8,10l-0.6,0.5c-3.2-3.1-4.6-6.3-4.6-10.6s1.4-7.4,4.6-10.6L67.7,52.3
		L67.7,52.3z"/>
	<path d="M94.8,64.3c0,0.1-0.1,0.2-0.2,0.2h-8.9V72c0,0.1-0.1,0.2-0.2,0.2h-1.1c-0.1,0-0.2-0.1-0.2-0.2v-7.5h-8.7
		c-0.1,0-0.2-0.1-0.2-0.2v-1c0-0.1,0.1-0.2,0.2-0.2h8.7v-7.9h-7.7c-0.1,0-0.2-0.1-0.2-0.2v-1c0-0.1,0.1-0.2,0.2-0.2h17.2
		c0.1,0,0.2,0.1,0.2,0.2v1c0,0.1-0.1,0.2-0.2,0.2h-8v7.9h8.9c0.1,0,0.2,0.1,0.2,0.2L94.8,64.3L94.8,64.3L94.8,64.3z M78.7,56.4
		c0.1-0.1,0.2-0.1,0.3,0c1,1.5,1.9,3,2.6,4.8c0,0.1,0,0.2-0.2,0.3l-0.7,0.3c-0.2,0.1-0.3,0-0.4-0.1C79.7,60,79,58.6,77.9,57
		c-0.1-0.1-0.1-0.2,0.2-0.3L78.7,56.4L78.7,56.4z M92.2,57.2c-0.1,0.1-0.2,0.3-0.4,0.6c-0.7,1.3-1.4,2.6-2.5,3.9
		c-0.1,0.3-0.2,0.4-0.2,0.4c-0.1,0-0.2-0.1-0.3-0.2c-0.3-0.2-0.5-0.3-0.8-0.4c1.1-1.4,2-2.8,2.7-4.2c0.1-0.3,0.3-0.7,0.3-1.1
		c0.4,0.2,1,0.4,1.3,0.5c0.1,0.1,0.2,0.1,0.2,0.2C92.4,57.1,92.3,57.1,92.2,57.2L92.2,57.2z"/>
	<path d="M113.3,63.8v7.4c0,0.1-0.1,0.2-0.2,0.2h-1c-0.1,0-0.2-0.1-0.2-0.2v-1.3h-10.2v1.4c0,0.1-0.1,0.2-0.2,0.2h-1
		c-0.1,0-0.2-0.1-0.2-0.2V54.2c0-0.1,0.1-0.2,0.2-0.2h12.8c0.1,0,0.2,0.1,0.2,0.2v9.6L113.3,63.8L113.3,63.8z M112,55.3h-10.2v5.9
		H112V55.3z M112,62.4h-10.2v6.3H112V62.4z"/>
	<path d="M138.4,70.8c0,0.1-0.1,0.2-0.2,0.2H119c-0.1,0-0.2-0.1-0.2-0.2v-1c0-0.1,0.1-0.2,0.2-0.2h8.6v-8.2h-6.8
		c-0.1,0-0.2-0.1-0.2-0.2v-1c0-0.1,0.1-0.2,0.2-0.2h6.9v-4.2c0-1.5,0-2.2-0.2-3c0.6,0,1.1,0.1,1.6,0.1c0.2,0,0.3,0.1,0.3,0.2
		s0,0.2-0.1,0.4s-0.1,0.7-0.1,2.3V60h7.3c0.1,0,0.2,0.1,0.2,0.2v1c0,0.1-0.1,0.2-0.2,0.2h-7.4v8.2h9.2c0.1,0,0.2,0.1,0.2,0.2v1
		C138.5,70.8,138.4,70.8,138.4,70.8z"/>
	<path d="M157,63.8v7.4c0,0.1-0.1,0.2-0.2,0.2h-1c-0.1,0-0.2-0.1-0.2-0.2v-1.3h-10.2v1.4c0,0.1-0.1,0.2-0.2,0.2H144
		c-0.1,0-0.2-0.1-0.2-0.2V54.2c0-0.1,0.1-0.2,0.2-0.2h12.8c0.1,0,0.2,0.1,0.2,0.2V63.8L157,63.8L157,63.8z M155.5,55.3h-10.2v5.9
		h10.2V55.3z M155.5,62.4h-10.2v6.3h10.2V62.4z"/>
	<path d="M170.2,67.5c0.4,1,1.1,1.5,2,1.5c2.2,0,3.4-1.7,3.6-6.6c-0.8,1.5-2,2.2-3.6,2.2c-2.4,0-4.3-2-4.3-5c0-3.3,1.9-5.4,4.6-5.4
		c3,0,5,2.3,5,7.4c0,6.3-1.9,8.9-5.3,8.9c-1.8,0-3.2-0.7-3.9-2.1L170.2,67.5L170.2,67.5z M172.6,55.7c-1.7,0-2.8,1.5-2.8,3.9
		c0,2.2,1.1,3.5,2.7,3.5c1.3,0,2.4-0.7,3.2-2.3C175.6,57.5,174.6,55.7,172.6,55.7L172.6,55.7L172.6,55.7z"/>
	<path d="M183.3,61.5h-2.5v-2.4h2.5V61.5z M183.3,70.2h-2.5v-2.4h2.5V70.2z"/>
	<path d="M196.3,62.3c0,5.7-1.7,8.2-4.9,8.2s-4.8-2.4-4.8-8.2s1.8-8.1,4.9-8.1C194.6,54.2,196.3,56.5,196.3,62.3L196.3,62.3z
		 M188.4,62.3c0,4.9,1,6.7,3,6.7s3-1.8,3-6.7s-0.9-6.6-3-6.6C189.5,55.7,188.4,57.4,188.4,62.3L188.4,62.3z"/>
	<path d="M208.6,62.3c0,5.7-1.7,8.2-4.9,8.2s-4.8-2.4-4.8-8.2s1.8-8.1,4.9-8.1C206.9,54.2,208.6,56.5,208.6,62.3L208.6,62.3z
		 M200.8,62.3c0,4.9,1,6.7,3,6.7s3-1.8,3-6.7s-0.9-6.6-3-6.6C201.9,55.7,200.7,57.4,200.8,62.3L200.8,62.3z"/>
	<path d="M223.9,63.1c-1,1.9-2,2.6-3.3,2.6c-0.8,0-1.5-0.2-3.2-0.9c-1.4-0.7-2-0.9-2.7-0.9c-0.8,0-1.6,0.6-2.4,1.7l-0.8-0.4
		c0.8-1.8,1.9-2.6,3.3-2.6c0.6,0,1.5,0.2,3,0.9c1.5,0.7,2.3,0.9,2.9,0.9c1,0,1.8-0.6,2.6-1.7L223.9,63.1L223.9,63.1L223.9,63.1z"/>
	<path d="M232.9,68.8h3v1.5h-8v-1.5h3.2V56.2c-0.8,0.6-1.9,1.1-3.2,1.6l-0.3-1.6c1.3-0.4,2.7-1.1,3.8-1.9h1.5V68.8L232.9,68.8z"/>
	<path d="M241.4,67.5c0.4,1,1.1,1.5,2,1.5c2.2,0,3.4-1.7,3.6-6.6c-0.8,1.5-2,2.2-3.6,2.2c-2.4,0-4.3-2-4.3-5c0-3.3,1.9-5.4,4.6-5.4
		c3,0,5,2.3,5,7.4c0,6.3-1.9,8.9-5.3,8.9c-1.8,0-3.2-0.7-3.9-2.1L241.4,67.5L241.4,67.5z M243.9,55.7c-1.7,0-2.8,1.5-2.8,3.9
		c0,2.2,1.1,3.5,2.7,3.5c1.3,0,2.4-0.7,3.2-2.3C246.8,57.5,245.8,55.7,243.9,55.7L243.9,55.7L243.9,55.7z"/>
	<path d="M254.6,61.5h-2.5v-2.4h2.5V61.5z M254.6,70.2h-2.5v-2.4h2.5V70.2z"/>
	<path d="M267.5,62.3c0,5.7-1.7,8.2-4.9,8.2s-4.8-2.4-4.8-8.2s1.8-8.1,4.9-8.1S267.5,56.5,267.5,62.3z M259.6,62.3
		c0,4.9,1,6.7,3,6.7s3-1.8,3-6.7s-0.9-6.6-3-6.6C260.8,55.7,259.6,57.4,259.6,62.3z"/>
	<path d="M279.8,62.3c0,5.7-1.7,8.2-4.9,8.2s-4.8-2.4-4.8-8.2s1.8-8.1,4.9-8.1S279.8,56.5,279.8,62.3z M272,62.3c0,4.9,1,6.7,3,6.7
		s3-1.8,3-6.7s-0.9-6.6-3-6.6C273.1,55.7,272,57.4,272,62.3z"/>
	<path d="M282.5,51.8c3.2,3.1,4.6,6.3,4.6,10.6s-1.4,7.4-4.6,10.6l-0.6-0.5c2.8-3.3,3.8-6.2,3.8-10s-1-6.8-3.8-10L282.5,51.8
		L282.5,51.8z"/>
	<path class="st0" d="M32.8,3.4l-3.7-1.1C28,2,26.8,2.5,26.3,3.5l-1.7,3.9c-0.4,0.8,0,1.8,0.8,2.1l3.9,1.6c0.4,0.3,0.5,0.7,0.3,1.1
		c-1,3.9-2.9,7.8-5.2,11.6c-0.2,0.4-0.6,0.6-1,0.5l-2.9-1.2c-1.4-0.6-3,0-3.6,1.3l-1.4,3.1c-0.4,0.9-0.1,2,0.8,2.5l3.4,1.9
		c0.6,0.4,1.2,0.6,1.9,0.7l0,0c3,0.5,5.9-1,7.2-3.7c3.3-5.9,5.9-11.6,7.7-16.8c1.2-2.8,0.4-6.1-2-8l0,0C33.8,3.8,33.3,3.6,32.8,3.4
		L32.8,3.4z"/>
	<path class="st0" d="M0.8,19.8C-1.9,11.5,2.8,2.7,11.2,0l1,3.2C5.5,5.3,1.8,12.3,4,18.8L0.8,19.8z"/>
	<path class="st0" d="M6.4,18.1c-0.8-2.6-0.6-5.3,0.6-7.7s3.4-4.2,6-5l1,3.2c-3.6,1.1-5.6,4.9-4.4,8.5L6.4,18.1L6.4,18.1z"/>
	<path class="st0" d="M11.6,16.4c-0.4-1.2-0.3-2.4,0.3-3.5s1.5-1.9,2.8-2.3l1,3.2c-0.3,0.1-0.6,0.3-0.8,0.7c-0.2,0.3-0.2,0.7-0.1,1
		L11.6,16.4L11.6,16.4z"/>
	<path class="st0" d="M6.4,18.1c-0.8-2.6-0.6-5.3,0.6-7.7s3.4-4.2,6-5l1,3.2c-3.6,1.1-5.6,4.9-4.4,8.5L6.4,18.1L6.4,18.1z"/>
	<g class="st1">
		<path d="M68.7,33.6c-1.1-1.3-1.9-2.7-2.4-4.2c-0.9-2.7-1.3-5.6-1.3-8.7c0-4,0.8-8.1,2.1-10.5c2-3.9,5.4-6,9.6-6c3.2,0,6,1.3,8,3.5
			c1.1,1.3,1.9,2.7,2.4,4.2c0.9,2.7,1.3,5.6,1.3,8.7c0,4-0.8,8.2-2.1,10.6c-2,3.8-5.4,5.9-9.6,5.9C73.5,37.2,70.7,36,68.7,33.6z
			 M71.8,20.4c0,6.8,1.7,10.3,5,10.3c3.2,0,4.9-3.4,4.9-10.2c0-6.5-1.7-9.9-4.9-9.9C73.6,10.6,71.8,14.2,71.8,20.4z"/>
		<path d="M97.7,26.8c0.2,1.3,0.4,1.8,0.9,2.4c0.9,1.1,2.2,1.6,3.8,1.6c2.6,0,4.2-1.5,4.2-3.8c0-1.6-0.7-2.8-1.8-3.3
			c-0.8-0.3-1.8-0.5-3.1-0.5c-1.3,0-2.8,0.1-4.1,0.2V17c1.1,0.2,2.2,0.2,3.5,0.2c3.1,0,4.7-1.2,4.7-3.7c0-2.1-1.3-3.2-3.4-3.2
			c-2.3,0-3.5,1.1-4,3.5l-7.1-1.2c0.6-2.4,1.2-3.5,2.2-4.8c2-2.5,5.1-3.8,9.1-3.8c3.6,0,6.6,1.1,8.5,3.2c1.2,1.4,1.8,3.2,1.8,5.4
			c0,4-1.9,6.5-5.7,7.6c2,0.3,3.1,0.9,4.3,2c1.4,1.4,2.2,3.4,2.2,5.6c0,1.9-0.5,3.7-1.3,5.1c-0.7,1.1-1.9,2.2-3.1,2.9
			c-1.7,0.9-4.4,1.5-6.9,1.5c-3,0-5.9-0.8-7.7-2.1c-1.5-1.1-2.7-2.8-3.4-4.9c-0.2-0.5-0.3-1-0.6-2L97.7,26.8z"/>
		<path d="M116.4,20.8c1,0.2,1.9,0.3,3.2,0.3h6.5c1.3,0,2.2-0.1,3.2-0.3V28c-1.1-0.2-2-0.3-3.2-0.3h-6.5c-1.2,0-2.1,0.1-3.2,0.3
			V20.8z"/>
		<path d="M139.7,15.5c0,0.2,0,0.6-0.1,1.2c1.5-1.3,3.2-1.8,5.3-1.8c2.9,0,5.3,1.1,7.1,3.1c1.7,1.9,2.5,4.4,2.5,7.6
			c0,7.3-4.2,11.6-11.2,11.6c-4.2,0-7.4-1.6-9.3-4.7c-0.8-1.2-1.2-2.3-1.7-4.3l6.6-1.2c0.6,2.5,1.9,3.7,4.3,3.7c2.8,0,4.6-2,4.6-5.1
			s-1.8-5-4.6-5c-2.1,0-3.4,1-4.2,2.8l-6.1-0.7c0.1-1.1,0.2-2.1,0.3-3.1l0.9-11.9c0.1-0.8,0.1-1.7,0.1-3.2c1.4,0.1,1.7,0.1,3.3,0.1
			h9.9c2.9,0,4.1-0.1,5.4-0.3v6.7c-1.8-0.2-3.3-0.3-5.4-0.3H140L139.7,15.5z"/>
		<path d="M164.7,28c0.3,0.8,0.5,1.2,0.8,1.6c0.7,0.9,1.8,1.4,3.1,1.4c1.8,0,3.3-1,4.2-2.7c0.6-1.2,0.9-2.6,1.1-5.2
			c-1.8,1.9-3.7,2.7-6.6,2.7c-5.9,0-9.8-4.1-9.8-10.5c0-6.7,4.5-11.3,11-11.3c4.2,0,7.5,2,9.5,5.6c1.4,2.5,2.1,6.1,2.1,10.3
			c0,4-0.7,7.8-1.9,10.6c-1.2,2.7-3.3,4.9-5.6,5.8c-1.3,0.5-2.9,0.8-4.4,0.8c-3.1,0-5.7-1-7.6-3c-1.1-1.2-1.7-2.2-2.5-4.5L164.7,28z
			 M173.3,15.1c0-2.9-1.9-4.8-4.7-4.8s-4.6,2-4.6,4.9c0,2.9,1.8,4.9,4.5,4.9C171.3,20,173.3,18,173.3,15.1z"/>
		<path d="M182.4,23.2c1.5-1.9,1.5-1.9,3.2-4.2l7.2-9.7c1.6-2.1,2.2-3,3.1-4.5h6.8c-0.2,2.2-0.3,3.8-0.3,6.3v12.4h1
			c1,0,2.1-0.1,3.3-0.3v6.9c-1-0.2-2.2-0.2-3.2-0.2h-1v1.9c0,2.1,0.1,3.2,0.3,4.7h-6.8c0.2-1.3,0.3-2.9,0.3-4.8v-1.9h-9.3
			c-2.1,0-3.1,0-4.3,0.2V23.2z M196,19.2c0-1.7,0.1-3.8,0.2-5.5c-0.7,1.1-1.2,1.8-2,3.1l-4.8,6.8h6.7V19.2z"/>
		<path d="M224.3,13.3c-0.6-2.2-1.7-3.2-3.7-3.2s-3.5,1.1-4.4,3.3c-0.5,1.3-0.8,2.4-1,4.7c0.8-0.9,1.3-1.3,2.1-1.7
			c1.3-0.7,2.7-1,4.4-1c6,0,9.7,4.1,9.7,10.6c0,6.6-4.5,11.2-11,11.2c-3.4,0-6.3-1.3-8.3-3.8c-2.2-2.8-3.4-7.1-3.4-12.2
			c0-4.8,1-9.2,2.7-12c2.1-3.4,5.2-5.1,9.3-5.1c3.2,0,5.9,1.2,7.7,3.3c1,1.2,1.5,2.3,2.2,4.3L224.3,13.3z M215.8,26.3
			c0,2.8,1.9,4.8,4.6,4.8c2.7,0,4.7-2,4.7-4.9c0-2.9-1.7-4.7-4.6-4.7C217.6,21.5,215.8,23.4,215.8,26.3z"/>
		<path d="M234.1,20.8c1,0.2,1.9,0.3,3.2,0.3h6.5c1.3,0,2.2-0.1,3.2-0.3V28c-1.1-0.2-2-0.3-3.2-0.3h-6.5c-1.2,0-2.1,0.1-3.2,0.3
			V20.8z"/>
		<path d="M256.9,28c0.3,0.8,0.5,1.2,0.8,1.6c0.7,0.9,1.8,1.4,3.1,1.4c1.8,0,3.3-1,4.2-2.7c0.6-1.2,0.9-2.6,1.1-5.2
			c-1.8,1.9-3.7,2.7-6.6,2.7c-5.9,0-9.8-4.1-9.8-10.5c0-6.7,4.5-11.3,11-11.3c4.2,0,7.5,2,9.5,5.6c1.4,2.5,2.1,6.1,2.1,10.3
			c0,4-0.7,7.8-1.9,10.6c-1.2,2.7-3.3,4.9-5.6,5.8c-1.3,0.5-2.9,0.8-4.4,0.8c-3.1,0-5.7-1-7.6-3c-1.1-1.2-1.7-2.2-2.5-4.5L256.9,28z
			 M265.5,15.1c0-2.9-1.9-4.8-4.7-4.8c-2.7,0-4.6,2-4.6,4.9c0,2.9,1.8,4.9,4.5,4.9C263.6,20,265.5,18,265.5,15.1z"/>
		<path d="M274.6,23.2c1.5-1.9,1.5-1.9,3.2-4.2l7.2-9.7c1.6-2.1,2.2-3,3.1-4.5h6.8c-0.2,2.2-0.3,3.8-0.3,6.3v12.4h1
			c1,0,2.1-0.1,3.3-0.3v6.9c-1-0.2-2.2-0.2-3.2-0.2h-1v1.9c0,2.1,0.1,3.2,0.3,4.7H288c0.2-1.3,0.3-2.9,0.3-4.8v-1.9h-9.3
			c-2.1,0-3.1,0-4.3,0.2V23.2z M288.2,19.2c0-1.7,0.1-3.8,0.2-5.5c-0.7,1.1-1.2,1.8-2,3.1l-4.8,6.8h6.7V19.2z"/>
		<path d="M304.2,4.6c1.2,0.2,2,0.3,4,0.3h4.2c2.3,0,2.8,0,4.1-0.2c-0.2,2-0.2,3.6-0.2,6.1v19.9c0,2.3,0.1,3.9,0.3,5.7h-7.2
			c0.2-1.7,0.3-3.5,0.3-5.7V11.4h-1.3c-1.3,0-2.6,0.1-4,0.3V4.6z"/>
		<path d="M348.5,11c-2,2.5-2.9,4-4.5,7.6c-2.6,5.8-3.8,10.4-4.7,17.8h-7.6c1-6.1,2-10.1,4-14.8c1.4-3.4,2.7-5.8,5.4-10.2h-9.4
			c-2.3,0-3.6,0.1-5,0.3V4.6c1.4,0.2,3.1,0.3,5.3,0.3h11.2c3,0,4,0,5.3-0.2V11z"/>
	</g>
</g>
</svg>
