<?xml version="1.0" encoding="UTF-8"?>
<svg id="uuid-aff7f189-c39f-4b64-815d-95a7885ee5f2" xmlns="http://www.w3.org/2000/svg" version="1.1" viewBox="0 0 365.1 98.9">
  <!-- Generator: Adobe Illustrator 29.5.1, SVG Export Plug-In . SVG Version: 2.1.0 Build 141)  -->
  <defs>
    <style>
      .st0 {
        fill: #3b241a;
      }
    </style>
  </defs>
  <g id="uuid-a5846e07-f486-4165-a47f-1096183457e2">
    <path class="st0" d="M32.8,29.3l-3.7-1.1c-1.1-.3-2.3.2-2.8,1.2l-1.7,3.9c-.4.8,0,1.8.8,2.1l3.9,1.6c.4.3.5.7.3,1.1-1,3.9-2.9,7.8-5.2,11.6-.2.4-.6.6-1,.5l-2.9-1.2c-1.4-.6-3,0-3.6,1.3l-1.4,3.1c-.4.9-.1,2,.8,2.5l3.4,1.9c.6.4,1.2.6,1.9.7h0c3,.5,5.9-1,7.2-3.7,3.3-5.9,5.9-11.6,7.7-16.8,1.2-2.8.4-6.1-2-8h0c-.7-.3-1.2-.5-1.7-.7h0Z"/>
    <path class="st0" d="M.8,45.7c-2.7-8.3,2-17.1,10.4-19.8l1,3.2c-6.7,2.1-10.4,9.1-8.2,15.6l-3.2,1Z"/>
    <path class="st0" d="M6.4,44c-.8-2.6-.6-5.3.6-7.7s3.4-4.2,6-5l1,3.2c-3.6,1.1-5.6,4.9-4.4,8.5l-3.2,1h0Z"/>
    <path class="st0" d="M11.6,42.3c-.4-1.2-.3-2.4.3-3.5s1.5-1.9,2.8-2.3l1,3.2c-.3,0-.6.3-.8.7-.2.3-.2.7-.1,1l-3.2.9h0Z"/>
    <path class="st0" d="M6.4,44c-.8-2.6-.6-5.3.6-7.7s3.4-4.2,6-5l1,3.2c-3.6,1.1-5.6,4.9-4.4,8.5l-3.2,1h0Z"/>
  </g>
  <g>
    <path d="M75.4,77.5c-2.9,3.3-3.9,6.5-3.9,10.4s1,7.1,3.9,10.4l-.6.6c-3.7-3.3-5.3-6.7-5.3-11s1.6-7.7,5.3-11l.6.6h0Z"/>
    <path d="M82.2,90.5h-2.6q-.2,0-.2-.2v-1.7q0-.2.2-.2h7.8v-6.8h-6.8q-.2,0-.2-.2v-1.6q0-.2.2-.2h16.2q.2,0,.2.2v1.6q0,.2-.2.2h-7.1v6.8h7.9q.2,0,.2.2v1.7q0,.2-.2.2h-7.9v6.6q0,.2-.2.2h-1.9q-.2,0-.2-.2v-6.6h-5.2ZM83,82.3c.2,0,.3,0,.4,0,.9,1.2,1.7,2.8,2.2,4.3q0,.2-.2.3l-1.4.6q-.3,0-.4,0c-.5-1.5-1.2-2.8-2.1-4.3q0-.2.2-.3c.1.1,1.3-.6,1.3-.6ZM93.3,83.4c.2-.3.3-.7.4-1.2.6.2,1.3.5,1.9.8.2,0,.2.2.2.3s0,.2-.2.3-.3.3-.5.7c-.6,1.1-1.2,2.1-1.9,3.1-.2.3-.3.5-.4.5s-.2,0-.5-.2c-.4-.3-.8-.5-1.2-.6.9-1.3,1.6-2.4,2.2-3.7h0Z"/>
    <path d="M101.8,97q-.2,0-.2-.2v-16.7q0-.2.2-.2h12.6q.2,0,.2.2v16.5q0,.2-.2.2h-1.8q-.2,0-.2-.2v-1h-8.6v1.1q0,.2-.2.2h-1.8ZM103.9,86.6h8.6v-4.7h-8.6v4.7ZM112.5,93.6v-5h-8.6v5h8.6Z"/>
    <path d="M121.3,96.3h-2.6q-.2,0-.2-.2v-1.7q0-.2.2-.2h7.7v-7h-6.1q-.2,0-.2-.2v-1.7q0-.2.2-.2h6.1v-3.2c0-1.4,0-2.3-.2-3.2.8,0,1.7,0,2.4,0s.3,0,.3.2c0,.2-.1.3-.1.5-.1.2-.1.7-.1,2.3v3.2h6.4q.2,0,.2.2v1.7q0,.2-.2.2h-6.4v7h8q.2,0,.2.2v1.7q0,.2-.2.2h-15.4q0,.1,0,.1Z"/>
    <path d="M141.3,97q-.2,0-.2-.2v-16.7q0-.2.2-.2h12.6q.2,0,.2.2v16.5q0,.2-.2.2h-1.8q-.2,0-.2-.2v-1h-8.6v1.1q0,.2-.2.2h-1.8ZM143.3,86.6h8.6v-4.7h-8.6v4.7ZM151.9,93.6v-5h-8.6v5h8.6Z"/>
    <path d="M180.2,86.4h-3.2v-3.1h3.2v3.1ZM180.2,95.5h-3.2v-3.1h3.2v3.1Z"/>
    <path d="M193,87.9c0,6.3-1.9,8.9-5.4,8.9s-5.3-2.5-5.3-8.8,1.9-8.8,5.4-8.8,5.3,2.4,5.3,8.7h0ZM185.2,87.9c0,5,.7,6.6,2.4,6.6s2.5-1.6,2.5-6.6-.7-6.5-2.5-6.5-2.4,1.4-2.4,6.5h0Z"/>
    <path d="M205.1,87.9c0,6.3-1.9,8.9-5.4,8.9s-5.3-2.5-5.3-8.8,1.9-8.8,5.4-8.8,5.3,2.4,5.3,8.7h0ZM197.3,87.9c0,5,.7,6.6,2.4,6.6s2.5-1.6,2.5-6.6-.7-6.5-2.5-6.5-2.4,1.4-2.4,6.5h0Z"/>
    <path d="M220,87.7c-1.1,2.2-2.2,3.1-3.6,3.1s-1.6-.2-3.3-1c-1.5-.7-2.1-.9-2.8-.9s-1.6.5-2.3,1.7l-1.1-.6c.9-2.1,2.1-3.1,3.5-3.1s1.6.2,3.1.9c1.6.7,2.3,1,3,1,1,0,1.7-.5,2.5-1.7l1,.6h0Z"/>
    <path d="M228.8,94.2h3.2v2.2h-9.2v-2.2h3.3v-12.1c-.9.6-1.9,1.1-3.1,1.5l-.4-2.3c1.5-.4,2.8-1.1,4-2h2.3v14.9h-.1Z"/>
    <path d="M244.7,92c0,2.8-2.2,4.7-5.5,4.7s-5.5-1.8-5.5-4.6,1-3.1,3.3-4.2c-2.1-1.1-2.9-2.5-2.9-4.3s2-4.4,5.1-4.4,5.1,1.8,5.1,4.3-1,3-3,3.9c2.5,1.1,3.4,2.4,3.4,4.6h0ZM238.7,88.7c-1.6.9-2.3,1.8-2.3,3.2s1.1,2.8,2.8,2.8,2.9-1,2.9-2.6-.6-2.1-2.7-3.1l-.7-.3h0ZM239.7,86.5c1.5-.8,2-1.7,2-3s-1.1-2.4-2.5-2.4-2.4.9-2.4,2.3.6,1.9,2.3,2.7l.6.4h0Z"/>
    <path d="M249.9,87.2h-3.2v-3.1h3.2v3.1ZM249.9,96.4h-3.2v-3.1h3.2v3.1Z"/>
    <path d="M263.6,87.9c0,6.3-1.9,8.9-5.4,8.9s-5.2-2.6-5.2-8.9,1.9-8.8,5.4-8.8,5.2,2.5,5.2,8.8h0ZM255.8,87.9c0,5,.7,6.6,2.4,6.6s2.5-1.6,2.5-6.6-.7-6.5-2.5-6.5-2.4,1.4-2.4,6.5Z"/>
    <path d="M275.7,87.9c0,6.3-1.9,8.9-5.4,8.9s-5.3-2.6-5.3-8.9,1.9-8.8,5.4-8.8,5.3,2.5,5.3,8.8h0ZM267.9,87.9c0,5,.7,6.6,2.5,6.6s2.5-1.6,2.5-6.6-.7-6.5-2.5-6.5-2.5,1.4-2.5,6.5h0Z"/>
    <path d="M282.3,76.9c3.6,3.3,5.3,6.7,5.3,11s-1.6,7.7-5.3,11l-.7-.6c2.9-3.3,3.9-6.5,3.9-10.4s-1-7.1-3.9-10.4l.7-.6h0Z"/>
  </g>
  <g>
    <path d="M83.4,39.4c1.6,9.3-.9,20.6-10.3,20.6s-9.5-4.8-10.5-10.7c-1.7-9.4,1.3-20.1,10.4-20.1,6.4,0,9.5,4.9,10.4,10.2ZM69.1,49.5c.4,2.2,1.3,5.3,3.9,5.3,4.5,0,4.6-11.3,3.9-15.3-.4-2-1.2-5-3.7-5-4.4,0-4.8,10.6-4.1,15Z"/>
    <path d="M96.1,35.9h0l-5.5,2.6-1.1-5.2,7.6-3.6h5.4l-.4,29.8h-6.4l.4-23.6Z"/>
    <path d="M112,59.5v-4.2l5.6-5c5.1-4.9,8.3-8.3,7.7-11.9-.4-2.1-2.1-3.6-4.7-3.6s-4.6.8-6,1.8l-2.2-4.7c2.1-1.5,5.4-2.6,8.8-2.6,6,0,9.9,3.5,10.7,8.1,1.1,6.1-3.1,10.3-7.6,14.3l-2.6,2.1h0c0,0,10.7,0,10.7,0v5.6c-.1,0-20.4,0-20.4,0Z"/>
    <path d="M157.8,39.4c1.6,9.3-.9,20.6-10.3,20.6s-9.5-4.8-10.5-10.7c-1.7-9.4,1.3-20.1,10.4-20.1,6.4,0,9.5,4.9,10.4,10.2ZM143.5,49.5c.4,2.2,1.3,5.3,3.9,5.3,4.5,0,4.6-11.3,3.9-15.3-.4-2-1.2-5-3.7-5-4.4,0-4.8,10.6-4.1,15Z"/>
    <path d="M173.1,45.1v4.6h-12v-4.6h12Z"/>
    <path d="M195.6,35.3h-10.5l-.6,4.6c.5,0,.8,0,1.2,0,1.9,0,4.4.5,6.5,1.8,2.3,1.4,4,3.8,4.4,6.6,1.4,7.6-4.2,11.8-11.6,11.8s-6.7-.8-8.1-1.8l.8-5.2c1.3.7,3.8,1.5,6.4,1.5s6.5-1.8,5.9-5c-.5-2.6-2.5-4.6-8.2-4.6s-2.4,0-3.6.2l1.6-15.4h16l-.2,5.6Z"/>
    <path d="M213.1,59.5v-7.2c.1,0-12.6,0-12.6,0v-4.4c.1,0,11.1-18.1,11.1-18.1h8.1l-.2,17.5h3.5v5.1h-3.5v7.2h-6.4ZM213.3,47.2l.2-6.5c.1-1.9.3-3.9.4-5.8h-.2c-1,2-1.8,3.9-2.9,5.9l-3.8,6.3h0c0,0,6.3,0,6.3,0Z"/>
    <path d="M246.6,29.7v4.4c-4,8.5-8,16.9-12,25.4h-7.3c4-8,8-16.1,11.9-24.1h0c0,0-12.9,0-12.9,0v-5.6c.1,0,20.3,0,20.3,0Z"/>
    <path d="M262.3,45.1v4.6h-12v-4.6h12Z"/>
    <path d="M265.5,59.5v-4.2l5.6-5c5.1-4.9,8.3-8.3,7.7-11.9-.4-2.1-2.1-3.6-4.7-3.6s-4.6.8-6,1.8l-2.2-4.7c2.1-1.5,5.4-2.6,8.8-2.6,6,0,9.9,3.5,10.7,8.1,1.1,6.1-3.1,10.3-7.6,14.3l-2.6,2.1h0c0,0,10.8,0,10.8,0v5.6c-.1,0-20.5,0-20.5,0Z"/>
    <path d="M310.5,36.4c.6,3.2-1.2,5.6-4.1,7.1h0c2.9,1.6,4.8,4.2,5.3,6.7,1.1,6.5-4.5,9.8-10.3,9.8s-10.5-3.2-11.3-7.7c-.7-4.2,1.7-7,4.9-8.5h0c-2.3-1.6-3.6-3.6-4-5.7-1-5.5,3.6-9,9.4-9,4.9.1,9.3,2.6,10.1,7.3ZM304.9,50.9c-.4-2.4-2.3-3.8-4.7-4.5-2.1.6-3.9,2.4-3.4,5.2.4,2.1,2,3.7,4.4,3.7,2.3-.1,4.1-1.7,3.7-4.4ZM297.2,37.8c.3,1.9,2,3.1,4.1,3.8,1.8-.6,3.3-2.3,2.9-4.4-.3-1.8-1.7-3.2-3.8-3.2-2.1,0-3.5,1.8-3.2,3.8Z"/>
    <path d="M327.1,59.5v-7.2c.1,0-12.6,0-12.6,0v-4.4c.1,0,11.1-18.1,11.1-18.1h8.1l-.2,17.5h3.5v5.1h-3.5v7.2h-6.4ZM327.2,47.2l.2-6.5c.1-1.9.3-3.9.4-5.8h-.2c-1,2-1.8,3.9-2.9,5.9l-3.8,6.3h0c0,0,6.3,0,6.3,0Z"/>
  </g>
  <g>
    <path d="M69.5,7.7c-1.3,0-2.4,0-3.3,0s-.3,0-.4-.4c0-.4,0-1.4-.2-2,.9,0,2,0,3.8,0h7.1c.6,0,.8,0,1.1-.2,0,0,.2,0,.3,0s.2,0,.4,0c.5.3,1.1.8,1.5,1.3,0,.1.2.2.2.4s0,.3-.3.5c-.2.2-.3.4-.5.8-1,2.4-2.2,4.6-3.9,6.5-1.7,2-3.7,3.6-5.7,4.8-.2.1-.4.2-.5.2-.2,0-.3-.1-.5-.2-.5-.4-1.1-.8-1.9-1.1,2.9-1.5,4.7-2.9,6.5-5,1.6-1.8,2.6-3.5,3.4-5.7h-7.1Z"/>
    <path d="M86.9,6.8c0-1.4,0-2.1-.2-2.9.8,0,1.9.2,2.5.4.2,0,.3.2.3.3s0,.2,0,.3c-.2.4-.2.9-.2,1.9v4c0,1,0,1.8,0,2.5,0,.3,0,.4-.4.4h-1.6c-.3,0-.4-.1-.4-.3,0-.7,0-1.9,0-2.7v-3.9h-.1ZM96.3,10.5c0,3-.4,4.9-1.6,6.5-1,1.3-2.7,2.5-4.4,3.1-.2.1-.3.1-.4.1-.2,0-.3-.1-.5-.2-.5-.5-1-.9-1.7-1.2,2.1-.7,3.8-1.6,4.9-2.9.9-1.1,1.3-2.8,1.3-5.3v-3.8c0-1.7,0-2.4-.2-3.3,1,0,1.9.2,2.6.4.2.1.3.2.3.3s0,.2,0,.3c-.2.4-.2.9-.2,2.2v3.8h0Z"/>
    <path d="M106.5,13.1c-2,0-2.7.2-2.9.2s-.4-.1-.5-.4c0-.5-.2-1.4-.3-2.4,1.3.2,2.3.2,4.3.2h6.4c1.5,0,3.1,0,4.6-.1.3,0,.4,0,.4.3v1.9c0,.2,0,.3-.4.3h-4.5s-7.1,0-7.1,0Z"/>
    <path d="M134.3,6.2c.6,0,.8,0,1.1-.3.1,0,.2,0,.3,0s.2,0,.4.2c.4.3,1,.8,1.4,1.2.1,0,.2.2.2.4s-.1.2-.2.4c-.2.2-.4.4-.6.8-.9,1.7-1.8,3.3-2.9,4.8.8.7,1.6,1.4,2.2,2,.1.1.1.2.1.3s0,.2-.1.3c-.3.3-.9,1-1.2,1.3-.1.1-.2.1-.2.1q-.1,0-.2-.1c-.5-.6-1.3-1.4-1.9-1.9-2,2.2-4.1,3.8-6.4,5-.2.1-.3.2-.5.2s-.2-.1-.4-.2c-.6-.5-1.2-.8-1.9-1,3.1-1.6,5.1-3,7.4-5.4-.8-.6-1.7-1.2-2.9-1.9.4-.5.9-1,1.3-1.4.1-.1.2-.1.3-.1s.1,0,.2.1c.7.3,1.6.9,2.6,1.6,1-1.2,1.7-2.5,2.3-4h-5c-1.6,2.2-2.9,3.6-4.3,4.6,0,.1-.3.2-.4.2s-.2,0-.3-.1c-.5-.4-1-.6-1.7-.9,2.8-2.2,4.3-4.1,5.7-6.3.6-1.1.9-1.6,1.1-2.5.7.2,1.7.6,2.3,1,.2,0,.2.2.2.3s-.1.3-.2.4c-.2,0-.3.3-.4.4-.2.3-.3.5-.6,1l3.2-.4ZM136.9,3.4c.1,0,.2,0,.3,0,.6.5,1.3,1.3,1.9,2.1.1,0,.1.2-.1.3l-.8.6c-.1,0-.2,0-.3,0-.6-.9-1.2-1.7-2-2.3l1-.6ZM138.7,2.1c.1-.1.2-.1.3,0,.7.6,1.5,1.4,1.9,2.1.1,0,.1.2-.1.4l-.8.6c-.2,0-.3,0-.3,0-.5-.9-1.2-1.6-2-2.3l1-.7Z"/>
    <path d="M152.9,15.6c0,1.4,0,2.6.1,4.2,0,.3-.1.3-.3.3h-2c-.2,0-.3-.1-.3-.3,0-1.4.1-2.7.1-4.1v-4.7c-1.8,1.5-3.9,3-5.5,3.8-.1.1-.2.1-.3.1-.2,0-.3-.1-.4-.2-.5-.5-1.1-.9-1.7-1.2,2.8-1.4,4.5-2.6,6.3-4.1,1.6-1.3,3-2.7,4.3-4.2.7-.8.9-1.2,1.3-2.1.9.5,1.8,1,2.2,1.4.1,0,.2.2.2.3,0,.2-.1.3-.3.4-.3.2-.7.5-1.2,1.1-.8.9-1.5,1.7-2.3,2.5v6.8h-.2Z"/>
    <path d="M166.6,6.2c-.3-1.1-.5-1.7-1-2.5.8,0,1.9-.2,2.7-.2s.4,0,.4.6.1,1.1.3,2l.4,1.7,5.7-1.5c.8-.2,1.1-.4,1.3-.5.1,0,.2,0,.3,0s.3,0,.4.2c.4.2,1.1.9,1.4,1.2.1,0,.2.2.2.3s-.1.3-.2.4c-.2.2-.3.3-.4.6-1.1,2.2-2.2,3.8-3,4.7-.1.1-.2.2-.3.2s-.3-.1-.4-.2c-.4-.3-.9-.4-1.7-.6,1.4-1.5,2-2.4,2.9-4l-5.6,1.4,1.2,4.8c.3,1.2.9,3.4,1.2,4.3.1.3,0,.4-.3.5-.6.2-1,.4-1.6.5-.3,0-.4.1-.5-.2-.3-1-.7-2.9-1.1-4.3l-1.3-4.9-1.6.4c-.9.3-2.1.7-2.9,1-.1.1-.2.1-.3.1s-.3-.1-.4-.3c-.3-.5-.6-1.2-.8-2,1.3-.2,2.3-.5,3.8-.8l1.7-.5-.5-2.3Z"/>
    <path d="M188.8,6.6c.3,0,.4.3.3.6-.2.4-.2.9-.2,1.4,0,2.5-.4,4.4-1.1,5.9-.5,1.2-1.4,2.5-2.8,3.8-.2.2-.4.3-.5.3s-.2-.1-.4-.2c-.5-.3-1-.6-1.7-.8,1.6-1.2,2.6-2.4,3.3-4,.6-1.4.8-2.5.8-5.7s0-1.1-.2-1.7c1.1.1,2,.3,2.5.4ZM193.2,15.1c1-.5,1.9-1.1,2.8-1.9,1.2-.9,2.4-2,3.5-3.4.1.7.3,1.4.6,2,.1.1.1.2.1.3s-.1.3-.3.5c-1,1-1.9,1.8-3,2.6-1,.8-2.2,1.6-3.6,2.4-.4.2-.4.3-.6.4-.1.1-.3.2-.4.2s-.3-.1-.4-.2c-.4-.3-.9-.8-1.2-1.2-.1-.2-.2-.3-.2-.4s0-.2.1-.3c.1-.3.1-.5.1-1.5v-6.2c0-1.7,0-2.6-.2-3.5.8,0,1.9.2,2.5.4.3,0,.4.2.4.3s-.1.3-.2.5c-.2.4-.2.8-.2,2.2v6.8h.2Z"/>
  </g>
  <path d="M173.6,91.7c0,2.8-2.2,4.7-5.5,4.7s-5.5-1.8-5.5-4.6,1-3.1,3.3-4.2c-2.1-1.1-2.9-2.5-2.9-4.3s2-4.4,5.1-4.4,5.1,1.8,5.1,4.3-1,3-3,3.9c2.5,1.1,3.4,2.4,3.4,4.6h0ZM167.6,88.4c-1.6.9-2.3,1.8-2.3,3.2s1.1,2.8,2.8,2.8,2.9-1,2.9-2.6-.6-2.1-2.7-3.1l-.7-.3h0ZM168.6,86.2c1.5-.8,2-1.7,2-3s-1.1-2.4-2.5-2.4-2.4.9-2.4,2.3.6,1.9,2.3,2.7l.6.4h0Z"/>
</svg>